<svg xmlns="http://www.w3.org/2000/svg" xmlns:xlink="http://www.w3.org/1999/xlink" width="1322.202" height="387.723" viewBox="0 0 991.652 290.792"><defs><style>*{stroke-linejoin:round;stroke-linecap:butt}</style></defs><g id="figure_1"><path id="patch_1" d="M0 290.792h991.652V0H0z" style="fill:#fff"/><g id="axes_1"><path id="patch_2" d="M47.902 252.746h254.79V60.096H47.902z" style="fill:#fff"/><g id="matplotlib.axis_1"><g id="xtick_1"><path id="line2d_1" d="M79.75 252.746V60.096" clip-path="url(#p728fdb0b47)" style="fill:none;stroke-dasharray:2.96,1.28;stroke-dashoffset:0;stroke:#b0b0b0;stroke-opacity:.7;stroke-width:.8"/><g id="line2d_2"><defs><path id="mb8bfb5d634" d="M0 0v3.5" style="stroke:#000;stroke-width:.8"/></defs><use xlink:href="#mb8bfb5d634" x="79.751" y="252.746" style="stroke:#000;stroke-width:.8"/></g><g id="text_1" transform="matrix(0 -.12 -.12 0 83.01 280.41)"><defs><path id="GuardianSansCond-Regular-31" d="M832 0h531v4474h-192L141 4083v-307l691 70z" transform="scale(.01563)"/><path id="GuardianSansCond-Regular-30" d="M1722-70c934 0 1433 716 1433 2131v345c0 1485-557 2093-1440 2093-896 0-1446-665-1446-2131v-326C269 499 845-70 1722-70m6 454c-659 0-883 595-883 1632v474c0 1004 243 1561 864 1561 627 0 883-537 883-1593v-480c0-1044-218-1594-864-1594" transform="scale(.01563)"/><path id="GuardianSansCond-Regular-32" d="M173 0h2297v461H800v19l774 941c493 614 845 1107 845 1843 0 762-390 1235-1197 1235-416 0-723-89-953-217v-429c198 96 461 179 787 179 563 0 794-282 794-819 0-583-308-1024-698-1543L173 397z" transform="scale(.01563)"/><path id="GuardianSansCond-Regular-34" d="M1805 0h525v1107h627v455h-627v2873h-461L70 1504v-397h1735zM608 1562v19l1171 1894h26V1562z" transform="scale(.01563)"/></defs><use xlink:href="#GuardianSansCond-Regular-31"/><use xlink:href="#GuardianSansCond-Regular-30" x="28.8"/><use xlink:href="#GuardianSansCond-Regular-32" x="82.3"/><use xlink:href="#GuardianSansCond-Regular-34" x="124.8"/></g></g><g id="xtick_2"><path id="line2d_3" d="M143.448 252.746V60.096" clip-path="url(#p728fdb0b47)" style="fill:none;stroke-dasharray:2.96,1.28;stroke-dashoffset:0;stroke:#b0b0b0;stroke-opacity:.7;stroke-width:.8"/><use xlink:href="#mb8bfb5d634" id="line2d_4" x="143.448" y="252.746" style="stroke:#000;stroke-width:.8"/><g id="text_2" transform="matrix(0 -.12 -.12 0 146.707 282.884)"><defs><path id="GuardianSansCond-Regular-38" d="M1581-64c864 0 1350 531 1350 1203 0 621-339 935-825 1191 384 211 716 569 716 1094 0 653-428 1075-1216 1075-787 0-1222-486-1222-1101 0-550 294-889 685-1113-467-231-839-602-839-1203C230 384 710-64 1581-64m6 454c-505 0-819 288-819 736 0 455 269 768 646 954 615-288 973-506 973-998 0-468-333-692-800-692m167 2132c-544 256-826 499-826 908 0 391 243 621 678 621 461 0 679-269 679-653 0-390-186-633-531-876" transform="scale(.01563)"/></defs><use xlink:href="#GuardianSansCond-Regular-32"/><use xlink:href="#GuardianSansCond-Regular-30" x="42.5"/><use xlink:href="#GuardianSansCond-Regular-34" x="96"/><use xlink:href="#GuardianSansCond-Regular-38" x="143.4"/></g></g><g id="xtick_3"><path id="line2d_5" d="M207.146 252.746V60.096" clip-path="url(#p728fdb0b47)" style="fill:none;stroke-dasharray:2.96,1.28;stroke-dashoffset:0;stroke:#b0b0b0;stroke-opacity:.7;stroke-width:.8"/><use xlink:href="#mb8bfb5d634" id="line2d_6" x="207.146" y="252.746" style="stroke:#000;stroke-width:.8"/><g id="text_3" transform="matrix(0 -.12 -.12 0 210.404 283.592)"><defs><path id="GuardianSansCond-Regular-39" d="M1171-70c1005 0 1683 518 1683 2291v365c0 1209-422 1913-1331 1913-832 0-1280-582-1280-1478 0-819 410-1338 1146-1338 377 0 685 135 896 301-19-1376-487-1587-1178-1587-256 0-544 70-678 121V96C563 0 858-70 1171-70m371 2220c-486 0-736 295-736 922 0 640 237 973 717 973 525 0 762-487 762-1453v-218c-147-102-403-224-743-224" transform="scale(.01563)"/><path id="GuardianSansCond-Regular-36" d="M1632 384c-550 0-787 531-787 1453v217c147 96 409 224 749 224 492 0 729-294 729-921 0-615-237-973-691-973m0-454c806 0 1254 614 1254 1478 0 826-396 1338-1132 1338-391 0-698-135-909-301 32 1408 595 1593 1184 1593 262 0 525-64 659-108v422c-141 90-416 147-730 147-915 0-1683-518-1683-2291v-365C275 691 717-70 1632-70" transform="scale(.01563)"/></defs><use xlink:href="#GuardianSansCond-Regular-34"/><use xlink:href="#GuardianSansCond-Regular-30" x="47.4"/><use xlink:href="#GuardianSansCond-Regular-39" x="100.9"/><use xlink:href="#GuardianSansCond-Regular-36" x="149.8"/></g></g><g id="xtick_4"><path id="line2d_7" d="M270.843 252.746V60.096" clip-path="url(#p728fdb0b47)" style="fill:none;stroke-dasharray:2.96,1.28;stroke-dashoffset:0;stroke:#b0b0b0;stroke-opacity:.7;stroke-width:.8"/><use xlink:href="#mb8bfb5d634" id="line2d_8" x="270.843" y="252.746" style="stroke:#000;stroke-width:.8"/><g id="text_4" transform="matrix(0 -.12 -.12 0 274.102 280.1)"><use xlink:href="#GuardianSansCond-Regular-38"/><use xlink:href="#GuardianSansCond-Regular-31" x="49.4"/><use xlink:href="#GuardianSansCond-Regular-39" x="78.2"/><use xlink:href="#GuardianSansCond-Regular-32" x="127.1"/></g></g></g><g id="matplotlib.axis_2"><g id="ytick_1"><path id="line2d_9" d="M47.902 252.746h254.79" clip-path="url(#p728fdb0b47)" style="fill:none;stroke-dasharray:2.96,1.28;stroke-dashoffset:0;stroke:#b0b0b0;stroke-opacity:.7;stroke-width:.8"/><g id="line2d_10"><defs><path id="m12ddd96148" d="M0 0h-3.5" style="stroke:#000;stroke-width:.8"/></defs><use xlink:href="#m12ddd96148" x="47.902" y="252.746" style="stroke:#000;stroke-width:.8"/></g><use xlink:href="#GuardianSansCond-Regular-30" id="text_5" transform="matrix(.12 0 0 -.12 34.482 257.15)"/></g><g id="ytick_2"><path id="line2d_11" d="M47.902 212.72h254.79" clip-path="url(#p728fdb0b47)" style="fill:none;stroke-dasharray:2.96,1.28;stroke-dashoffset:0;stroke:#b0b0b0;stroke-opacity:.7;stroke-width:.8"/><use xlink:href="#m12ddd96148" id="line2d_12" x="47.902" y="212.719" style="stroke:#000;stroke-width:.8"/><g id="text_6" transform="matrix(.12 0 0 -.12 24.606 217.124)"><use xlink:href="#GuardianSansCond-Regular-31"/><use xlink:href="#GuardianSansCond-Regular-30" x="28.8"/><use xlink:href="#GuardianSansCond-Regular-30" x="82.3"/></g></g><g id="ytick_3"><path id="line2d_13" d="M47.902 172.693h254.79" clip-path="url(#p728fdb0b47)" style="fill:none;stroke-dasharray:2.96,1.28;stroke-dashoffset:0;stroke:#b0b0b0;stroke-opacity:.7;stroke-width:.8"/><use xlink:href="#m12ddd96148" id="line2d_14" x="47.902" y="172.693" style="stroke:#000;stroke-width:.8"/><g id="text_7" transform="matrix(.12 0 0 -.12 22.962 177.097)"><use xlink:href="#GuardianSansCond-Regular-32"/><use xlink:href="#GuardianSansCond-Regular-30" x="42.5"/><use xlink:href="#GuardianSansCond-Regular-30" x="96"/></g></g><g id="ytick_4"><path id="line2d_15" d="M47.902 132.666h254.79" clip-path="url(#p728fdb0b47)" style="fill:none;stroke-dasharray:2.96,1.28;stroke-dashoffset:0;stroke:#b0b0b0;stroke-opacity:.7;stroke-width:.8"/><use xlink:href="#m12ddd96148" id="line2d_16" x="47.902" y="132.666" style="stroke:#000;stroke-width:.8"/><g id="text_8" transform="matrix(.12 0 0 -.12 22.997 137.07)"><defs><path id="GuardianSansCond-Regular-33" d="M1094-64c826 0 1338 480 1338 1312 0 691-320 1005-826 1114v19c436 134 704 422 704 1024 0 691-428 1094-1152 1094-371 0-672-70-883-179v-429c186 77 403 147 723 147 480 0 756-172 756-736 0-505-276-755-736-755H717v-461h339c544 0 813-249 813-819 0-621-352-864-922-864-301 0-589 90-800 205V166C358 32 640-64 1094-64" transform="scale(.01563)"/></defs><use xlink:href="#GuardianSansCond-Regular-33"/><use xlink:href="#GuardianSansCond-Regular-30" x="42.2"/><use xlink:href="#GuardianSansCond-Regular-30" x="95.7"/></g></g><g id="ytick_5"><path id="line2d_17" d="M47.902 92.64h254.79" clip-path="url(#p728fdb0b47)" style="fill:none;stroke-dasharray:2.96,1.28;stroke-dashoffset:0;stroke:#b0b0b0;stroke-opacity:.7;stroke-width:.8"/><use xlink:href="#m12ddd96148" id="line2d_18" x="47.902" y="92.639" style="stroke:#000;stroke-width:.8"/><g id="text_9" transform="matrix(.12 0 0 -.12 22.373 97.044)"><use xlink:href="#GuardianSansCond-Regular-34"/><use xlink:href="#GuardianSansCond-Regular-30" x="47.4"/><use xlink:href="#GuardianSansCond-Regular-30" x="100.9"/></g></g><g id="text_10" transform="matrix(0 -.12 -.12 0 16.009 198.493)"><defs><path id="GuardianSansCond-Regular-4d" d="M416 0h493v2675c0 423-26 1171-26 1171h19s154-716 224-985L1875 0h551l761 2899c90 352 224 960 224 960h19s-25-761-25-1177V0h512v4435h-819l-730-2925c-102-403-186-902-186-902h-12s-84 493-186 902l-742 2925H416z" transform="scale(.01563)"/><path id="GuardianSansCond-Regular-65" d="M1555-51c429 0 762 153 915 294v384c-230-128-505-230-857-230-576 0-871 301-890 1069h1831v332c0 1095-378 1536-1152 1536-743 0-1216-524-1216-1612v-173C186 499 634-51 1555-51m-173 2957c448 0 628-295 628-1012H723c13 736 269 1012 659 1012" transform="scale(.01563)"/><path id="GuardianSansCond-Regular-6d" d="M346 0h524v2688c180 102 397 198 653 198 333 0 448-128 448-422V0h519v2688c192 109 422 198 646 198 352 0 454-140 454-422V0h525v2528c0 576-294 806-768 806-352 0-659-147-928-339h-25c-128 231-333 339-672 339-327 0-634-153-852-313h-25v262H346z" transform="scale(.01563)"/><path id="GuardianSansCond-Regular-6f" d="M1459-51c813 0 1274 621 1274 1593v205c0 1024-442 1587-1274 1587-800 0-1273-620-1273-1593v-211C186 531 614-51 1459-51m7 429c-474 0-743 384-743 1094v346c0 633 224 1088 730 1088 467 0 742-346 742-1101v-339c0-640-237-1088-729-1088" transform="scale(.01563)"/><path id="GuardianSansCond-Regular-72" d="M346 0h524v2605c192 147 436 237 717 237 51 0 141-7 199-13v473c-39 13-109 26-180 26-300 0-576-186-736-390h-25v345H346z" transform="scale(.01563)"/><path id="GuardianSansCond-Regular-79" d="M570-1261c512 0 736 301 915 896l1107 3648h-525l-582-2086c-64-205-109-410-109-410h-13s-32 141-115 416L621 3283H51L1120 13l-102-307C896-698 749-826 480-826c-96 0-218 13-294 26v-371c96-51 249-90 384-90" transform="scale(.01563)"/><path id="GuardianSansCond-Regular-55" d="M1760-70c922 0 1350 480 1350 1414v3091h-512V1395c0-736-230-1011-812-1011-589 0-852 282-852 1005v3046H397V1325C397 429 832-70 1760-70" transform="scale(.01563)"/><path id="GuardianSansCond-Regular-73" d="M992-51c666 0 1062 358 1062 998 0 538-236 762-748 941l-256 90c-282 96-391 217-391 473 0 320 205 442 563 442 295 0 538-83 692-154v429c-141 83-346 166-717 166-666 0-1037-352-1037-928 0-505 262-748 666-889l256-90c326-115 454-243 454-531 0-314-166-506-602-506-352 0-576 90-780 173V141C358 19 640-51 992-51" transform="scale(.01563)"/><path id="GuardianSansCond-Regular-61" d="M1082-51c313 0 556 128 697 281h32l51-230h429v2413c0 614-333 921-998 921-378 0-659-76-883-179v-384c166 58 396 115 684 115 506 0 672-147 672-608v-320l-678-102c-608-90-928-390-928-973 0-633 365-934 922-934m140 409c-345 0-518 186-518 557 0 359 173 525 538 570l524 64V525c-108-90-307-167-544-167" transform="scale(.01563)"/><path id="GuardianSansCond-Regular-67" d="M1325-1235c915 0 1350 448 1350 1056 0 595-339 883-979 883h-627c-211 0-295 102-295 262 0 103 52 212 116 276 128-45 281-64 441-64 608 0 1082 352 1082 1030v96c0 256-77 435-179 570h448v409h-935c-121 32-262 51-422 51-621 0-1075-390-1075-1056v-96c0-396 179-672 384-806-212-166-340-352-340-589 0-243 148-384 333-454v-26C320 192 64-38 64-422c0-493 442-813 1261-813m-13 416c-480 0-717 179-717 493 0 275 167 467 371 544h666c390 0 518-173 518-455 0-365-224-582-838-582m19 2400c-333 0-569 192-569 608v134c0 403 211 608 569 608 339 0 570-185 570-621v-134c0-397-218-595-570-595" transform="scale(.01563)"/><path id="GuardianSansCond-Regular-28" d="M1318-768h442C1267-166 826 877 826 1869v217c0 1031 441 2016 934 2612h-442C800 4160 275 3187 275 2029v-147C275 723 800-237 1318-768" transform="scale(.01563)"/><path id="GuardianSansCond-Regular-47" d="M1933-64c518 0 909 115 1165 230v2068H1837v-455h729V486c-134-51-358-89-588-89-922 0-1172 614-1172 1702v307c0 992 282 1632 1184 1632 448 0 724-108 954-217v454c-186 115-467 224-922 224-1113 0-1785-646-1785-2157v-243C237 493 864-64 1933-64" transform="scale(.01563)"/><path id="GuardianSansCond-Regular-42" d="M416 0h1146c966 0 1382 493 1382 1254 0 711-326 999-832 1069v26c493 134 678 493 678 985 0 692-326 1101-1273 1101H416zm538 454v1620h563c569 0 864-199 864-781 0-557-224-839-864-839zm0 2061v1459h499c525 0 787-160 787-710 0-557-320-749-838-749z" transform="scale(.01563)"/><path id="GuardianSansCond-Regular-29" d="M32-768h448C992-237 1517 717 1517 1882v147c0 1152-525 2131-1037 2669H32c499-602 941-1645 941-2663v-217C973 813 531-166 32-768" transform="scale(.01563)"/></defs><use xlink:href="#GuardianSansCond-Regular-4d"/><use xlink:href="#GuardianSansCond-Regular-65" x="67.7"/><use xlink:href="#GuardianSansCond-Regular-6d" x="110.4"/><use xlink:href="#GuardianSansCond-Regular-6f" x="179.9"/><use xlink:href="#GuardianSansCond-Regular-72" x="225.5"/><use xlink:href="#GuardianSansCond-Regular-79" x="254.3"/><use xlink:href="#GuardianSansCond-Regular-55" x="311.5"/><use xlink:href="#GuardianSansCond-Regular-73" x="366.3"/><use xlink:href="#GuardianSansCond-Regular-61" x="400.8"/><use xlink:href="#GuardianSansCond-Regular-67" x="441.7"/><use xlink:href="#GuardianSansCond-Regular-65" x="484.4"/><use xlink:href="#GuardianSansCond-Regular-28" x="542.9"/><use xlink:href="#GuardianSansCond-Regular-47" x="570.9"/><use xlink:href="#GuardianSansCond-Regular-42" x="624.2"/><use xlink:href="#GuardianSansCond-Regular-29" x="673.2"/></g></g><path id="line2d_19" d="M47.902 220.725h254.79" clip-path="url(#p728fdb0b47)" style="fill:none;stroke-dasharray:5.55,2.4;stroke-dashoffset:0;stroke:red;stroke-width:1.5"/><path id="patch_3" d="M47.902 252.746V60.096" style="fill:none;stroke:#000;stroke-width:.8;stroke-linejoin:miter;stroke-linecap:square"/><path id="patch_4" d="M302.692 252.746V60.096" style="fill:none;stroke:#000;stroke-width:.8;stroke-linejoin:miter;stroke-linecap:square"/><path id="patch_5" d="M47.902 252.746h254.79" style="fill:none;stroke:#000;stroke-width:.8;stroke-linejoin:miter;stroke-linecap:square"/><path id="patch_6" d="M47.902 60.096h254.79" style="fill:none;stroke:#000;stroke-width:.8;stroke-linejoin:miter;stroke-linecap:square"/><path id="patch_7" d="M63.826 252.746h31.849v-10.399H63.826z" clip-path="url(#p728fdb0b47)" style="fill:#4ea5b7"/><path id="patch_8" d="M127.524 252.746h31.849v-10.405h-31.85z" clip-path="url(#p728fdb0b47)" style="fill:#4ea5b7"/><path id="patch_9" d="M191.221 252.746h31.849v-10.417h-31.849z" clip-path="url(#p728fdb0b47)" style="fill:#4ea5b7"/><path id="patch_10" d="M254.919 252.746h31.848v-10.442H254.92z" clip-path="url(#p728fdb0b47)" style="fill:#4ea5b7"/><path id="patch_11" d="M63.826 242.347h31.849V231.95H63.826z" clip-path="url(#p728fdb0b47)" style="fill:#e889ab"/><path id="patch_12" d="M127.524 242.341h31.849v-10.405h-31.85z" clip-path="url(#p728fdb0b47)" style="fill:#e889ab"/><path id="patch_13" d="M191.221 242.329h31.849V231.91h-31.849z" clip-path="url(#p728fdb0b47)" style="fill:#e889ab"/><path id="patch_14" d="M254.919 242.304h31.848V231.86H254.92z" clip-path="url(#p728fdb0b47)" style="fill:#e889ab"/><path id="patch_15" d="M63.826 231.949h31.849v-20.797H63.826z" clip-path="url(#p728fdb0b47)" style="fill:#cec0fa"/><path id="patch_16" d="M127.524 231.936h31.849v-20.81h-31.85z" clip-path="url(#p728fdb0b47)" style="fill:#cec0fa"/><path id="patch_17" d="M191.221 231.911h31.849v-20.834h-31.849z" clip-path="url(#p728fdb0b47)" style="fill:#cec0fa"/><path id="patch_18" d="M254.919 231.861h31.848v-20.884H254.92z" clip-path="url(#p728fdb0b47)" style="fill:#cec0fa"/><path id="patch_19" d="M63.826 211.152h31.849v-3.704H63.826z" clip-path="url(#p728fdb0b47)" style="fill:#e38a42"/><path id="patch_20" d="M127.524 211.127h31.849v-11.41h-31.85z" clip-path="url(#p728fdb0b47)" style="fill:#e38a42"/><path id="patch_21" d="M191.221 211.077h31.849v-38.832h-31.849z" clip-path="url(#p728fdb0b47)" style="fill:#e38a42"/><path id="patch_22" d="M254.919 210.977h31.848V69.27H254.92z" clip-path="url(#p728fdb0b47)" style="fill:#e38a42"/><g id="text_11" transform="matrix(.144 0 0 -.144 119.52 54.096)"><defs><path id="GuardianSansCond-Regular-52" d="M416 0h538v1888h620L2483 0h583l-973 1990v32c435 160 717 480 717 1146 0 890-410 1267-1325 1267H416zm538 2330v1644h492c589 0 794-230 794-825 0-563-224-819-768-819z" transform="scale(.01563)"/><path id="GuardianSansCond-Regular-63" d="M1498-51c371 0 627 102 800 224v422c-135-77-391-205-743-205-550 0-832 314-832 1152v256c0 666 218 1095 787 1095 346 0 544-90 749-179v435c-166 109-384 185-717 185-774 0-1356-448-1356-1593v-205C186 416 685-51 1498-51" transform="scale(.01563)"/><path id="GuardianSansCond-Regular-70" d="M346-1222h524V128c135-90 372-179 672-179 832 0 1242 576 1242 1651v218c0 1094-442 1516-1114 1516-352 0-640-147-800-300h-25v249H346zM1466 378c-256 0-493 83-596 160v2150c122 96 359 205 653 205 512 0 723-320 723-1095v-249c0-807-243-1171-780-1171" transform="scale(.01563)"/><path id="GuardianSansCond-Regular-75" d="M1158-51c365 0 666 160 884 313h25l51-262h448v3283h-524V602c-154-90-416-205-692-205-403 0-492 160-492 441v2445H333V826c0-525 243-877 825-877" transform="scale(.01563)"/><path id="GuardianSansCond-Regular-74" d="M1222-38c244 0 397 64 500 128v352c-90-26-205-52-340-52-275 0-377 90-377 391v2067h678v435h-678v768H486v-768H96v-435h390V710c0-550 288-748 736-748" transform="scale(.01563)"/><path id="GuardianSansCond-Regular-69" d="M358 0h525v3283H358zm-6 3910h531v564H352z" transform="scale(.01563)"/><path id="GuardianSansCond-Regular-6e" d="M346 0h524v2688c167 90 436 198 717 198 378 0 506-121 506-428V0h518v2528c0 557-269 806-800 806-371 0-704-140-941-313h-25v262H346z" transform="scale(.01563)"/><path id="GuardianSansCond-Regular-3a" d="M416 0h589v621H416zm0 1926h589v621H416z" transform="scale(.01563)"/><path id="GuardianSansCond-Regular-4e" d="M416 0h493v2912c0 512-32 845-32 845h19s154-435 378-935L2547 0h608v4435h-493V1568c0-454 32-806 32-806h-12s-180 492-352 864L1094 4435H416z" transform="scale(.01563)"/></defs><use xlink:href="#GuardianSansCond-Regular-52"/><use xlink:href="#GuardianSansCond-Regular-65" x="48.7"/><use xlink:href="#GuardianSansCond-Regular-63" x="91.4"/><use xlink:href="#GuardianSansCond-Regular-6f" x="129.2"/><use xlink:href="#GuardianSansCond-Regular-6d" x="174.8"/><use xlink:href="#GuardianSansCond-Regular-70" x="244.3"/><use xlink:href="#GuardianSansCond-Regular-75" x="290.9"/><use xlink:href="#GuardianSansCond-Regular-74" x="336.4"/><use xlink:href="#GuardianSansCond-Regular-61" x="365.4"/><use xlink:href="#GuardianSansCond-Regular-74" x="406.3"/><use xlink:href="#GuardianSansCond-Regular-69" x="435.3"/><use xlink:href="#GuardianSansCond-Regular-6f" x="454.6"/><use xlink:href="#GuardianSansCond-Regular-6e" x="500.2"/><use xlink:href="#GuardianSansCond-Regular-3a" x="546.3"/><use xlink:href="#GuardianSansCond-Regular-4e" x="584.5"/><use xlink:href="#GuardianSansCond-Regular-6f" x="640.3"/><use xlink:href="#GuardianSansCond-Regular-6e" x="685.9"/><use xlink:href="#GuardianSansCond-Regular-65" x="732"/></g></g><g id="axes_2"><path id="patch_23" d="M319.152 252.746h254.79V60.096h-254.79z" style="fill:#fff"/><g id="matplotlib.axis_3"><g id="xtick_5"><path id="line2d_20" d="M351 252.746V60.096" clip-path="url(#pd2b5d00e01)" style="fill:none;stroke-dasharray:2.96,1.28;stroke-dashoffset:0;stroke:#b0b0b0;stroke-opacity:.7;stroke-width:.8"/><use xlink:href="#mb8bfb5d634" id="line2d_21" x="351.001" y="252.746" style="stroke:#000;stroke-width:.8"/><g id="text_12" transform="matrix(0 -.12 -.12 0 354.26 280.41)"><use xlink:href="#GuardianSansCond-Regular-31"/><use xlink:href="#GuardianSansCond-Regular-30" x="28.8"/><use xlink:href="#GuardianSansCond-Regular-32" x="82.3"/><use xlink:href="#GuardianSansCond-Regular-34" x="124.8"/></g></g><g id="xtick_6"><path id="line2d_22" d="M414.698 252.746V60.096" clip-path="url(#pd2b5d00e01)" style="fill:none;stroke-dasharray:2.96,1.28;stroke-dashoffset:0;stroke:#b0b0b0;stroke-opacity:.7;stroke-width:.8"/><use xlink:href="#mb8bfb5d634" id="line2d_23" x="414.698" y="252.746" style="stroke:#000;stroke-width:.8"/><g id="text_13" transform="matrix(0 -.12 -.12 0 417.957 282.884)"><use xlink:href="#GuardianSansCond-Regular-32"/><use xlink:href="#GuardianSansCond-Regular-30" x="42.5"/><use xlink:href="#GuardianSansCond-Regular-34" x="96"/><use xlink:href="#GuardianSansCond-Regular-38" x="143.4"/></g></g><g id="xtick_7"><path id="line2d_24" d="M478.396 252.746V60.096" clip-path="url(#pd2b5d00e01)" style="fill:none;stroke-dasharray:2.96,1.28;stroke-dashoffset:0;stroke:#b0b0b0;stroke-opacity:.7;stroke-width:.8"/><use xlink:href="#mb8bfb5d634" id="line2d_25" x="478.396" y="252.746" style="stroke:#000;stroke-width:.8"/><g id="text_14" transform="matrix(0 -.12 -.12 0 481.654 283.592)"><use xlink:href="#GuardianSansCond-Regular-34"/><use xlink:href="#GuardianSansCond-Regular-30" x="47.4"/><use xlink:href="#GuardianSansCond-Regular-39" x="100.9"/><use xlink:href="#GuardianSansCond-Regular-36" x="149.8"/></g></g><g id="xtick_8"><path id="line2d_26" d="M542.093 252.746V60.096" clip-path="url(#pd2b5d00e01)" style="fill:none;stroke-dasharray:2.96,1.28;stroke-dashoffset:0;stroke:#b0b0b0;stroke-opacity:.7;stroke-width:.8"/><use xlink:href="#mb8bfb5d634" id="line2d_27" x="542.093" y="252.746" style="stroke:#000;stroke-width:.8"/><g id="text_15" transform="matrix(0 -.12 -.12 0 545.352 280.1)"><use xlink:href="#GuardianSansCond-Regular-38"/><use xlink:href="#GuardianSansCond-Regular-31" x="49.4"/><use xlink:href="#GuardianSansCond-Regular-39" x="78.2"/><use xlink:href="#GuardianSansCond-Regular-32" x="127.1"/></g></g></g><g id="matplotlib.axis_4"><g id="ytick_6"><path id="line2d_28" d="M319.152 252.746h254.79" clip-path="url(#pd2b5d00e01)" style="fill:none;stroke-dasharray:2.96,1.28;stroke-dashoffset:0;stroke:#b0b0b0;stroke-opacity:.7;stroke-width:.8"/><use xlink:href="#m12ddd96148" id="line2d_29" x="319.152" y="252.746" style="stroke:#000;stroke-width:.8"/></g><g id="ytick_7"><path id="line2d_30" d="M319.152 212.72h254.79" clip-path="url(#pd2b5d00e01)" style="fill:none;stroke-dasharray:2.96,1.28;stroke-dashoffset:0;stroke:#b0b0b0;stroke-opacity:.7;stroke-width:.8"/><use xlink:href="#m12ddd96148" id="line2d_31" x="319.152" y="212.719" style="stroke:#000;stroke-width:.8"/></g><g id="ytick_8"><path id="line2d_32" d="M319.152 172.693h254.79" clip-path="url(#pd2b5d00e01)" style="fill:none;stroke-dasharray:2.96,1.28;stroke-dashoffset:0;stroke:#b0b0b0;stroke-opacity:.7;stroke-width:.8"/><use xlink:href="#m12ddd96148" id="line2d_33" x="319.152" y="172.693" style="stroke:#000;stroke-width:.8"/></g><g id="ytick_9"><path id="line2d_34" d="M319.152 132.666h254.79" clip-path="url(#pd2b5d00e01)" style="fill:none;stroke-dasharray:2.96,1.28;stroke-dashoffset:0;stroke:#b0b0b0;stroke-opacity:.7;stroke-width:.8"/><use xlink:href="#m12ddd96148" id="line2d_35" x="319.152" y="132.666" style="stroke:#000;stroke-width:.8"/></g><g id="ytick_10"><path id="line2d_36" d="M319.152 92.64h254.79" clip-path="url(#pd2b5d00e01)" style="fill:none;stroke-dasharray:2.96,1.28;stroke-dashoffset:0;stroke:#b0b0b0;stroke-opacity:.7;stroke-width:.8"/><use xlink:href="#m12ddd96148" id="line2d_37" x="319.152" y="92.639" style="stroke:#000;stroke-width:.8"/></g></g><path id="line2d_38" d="M319.152 220.725h254.79" clip-path="url(#pd2b5d00e01)" style="fill:none;stroke-dasharray:5.55,2.4;stroke-dashoffset:0;stroke:red;stroke-width:1.5"/><path id="patch_24" d="M319.152 252.746V60.096" style="fill:none;stroke:#000;stroke-width:.8;stroke-linejoin:miter;stroke-linecap:square"/><path id="patch_25" d="M573.942 252.746V60.096" style="fill:none;stroke:#000;stroke-width:.8;stroke-linejoin:miter;stroke-linecap:square"/><path id="patch_26" d="M319.152 252.746h254.79" style="fill:none;stroke:#000;stroke-width:.8;stroke-linejoin:miter;stroke-linecap:square"/><path id="patch_27" d="M319.152 60.096h254.79" style="fill:none;stroke:#000;stroke-width:.8;stroke-linejoin:miter;stroke-linecap:square"/><path id="patch_28" d="M335.076 252.746h31.849v-10.399h-31.849z" clip-path="url(#pd2b5d00e01)" style="fill:#4ea5b7"/><path id="patch_29" d="M398.774 252.746h31.849v-10.405h-31.85z" clip-path="url(#pd2b5d00e01)" style="fill:#4ea5b7"/><path id="patch_30" d="M462.471 252.746h31.849v-10.417h-31.849z" clip-path="url(#pd2b5d00e01)" style="fill:#4ea5b7"/><path id="patch_31" d="M526.169 252.746h31.849v-10.442h-31.85z" clip-path="url(#pd2b5d00e01)" style="fill:#4ea5b7"/><path id="patch_32" d="M335.076 242.347h31.849V231.95h-31.849z" clip-path="url(#pd2b5d00e01)" style="fill:#e889ab"/><path id="patch_33" d="M398.774 242.341h31.849v-10.405h-31.85z" clip-path="url(#pd2b5d00e01)" style="fill:#e889ab"/><path id="patch_34" d="M462.471 242.329h31.849V231.91h-31.849z" clip-path="url(#pd2b5d00e01)" style="fill:#e889ab"/><path id="patch_35" d="M526.169 242.304h31.849V231.86h-31.85z" clip-path="url(#pd2b5d00e01)" style="fill:#e889ab"/><path id="patch_36" d="M335.076 231.949h31.849v-20.797h-31.849z" clip-path="url(#pd2b5d00e01)" style="fill:#cec0fa"/><path id="patch_37" d="M398.774 231.936h31.849v-20.81h-31.85z" clip-path="url(#pd2b5d00e01)" style="fill:#cec0fa"/><path id="patch_38" d="M462.471 231.911h31.849v-20.834h-31.849z" clip-path="url(#pd2b5d00e01)" style="fill:#cec0fa"/><path id="patch_39" d="M526.169 231.861h31.849v-20.884h-31.85z" clip-path="url(#pd2b5d00e01)" style="fill:#cec0fa"/><path id="patch_40" d="M335.076 211.152h31.849v-1.703h-31.849z" clip-path="url(#pd2b5d00e01)" style="fill:#e38a42"/><path id="patch_41" d="M398.774 211.127h31.849v-3.406h-31.85z" clip-path="url(#pd2b5d00e01)" style="fill:#e38a42"/><path id="patch_42" d="M462.471 211.077h31.849v-6.811h-31.849z" clip-path="url(#pd2b5d00e01)" style="fill:#e38a42"/><path id="patch_43" d="M526.169 210.977h31.849v-13.622h-31.85z" clip-path="url(#pd2b5d00e01)" style="fill:#e38a42"/><g id="text_16" transform="matrix(.144 0 0 -.144 382.15 54.096)"><defs><path id="GuardianSansCond-Regular-6c" d="M358 0h519v4698H358z" transform="scale(.01563)"/><path id="GuardianSansCond-Regular-76" d="M1075 0h538l992 3283h-512l-589-2093c-83-320-134-537-134-537h-26s-45 224-128 537L627 3283H70z" transform="scale(.01563)"/></defs><use xlink:href="#GuardianSansCond-Regular-52"/><use xlink:href="#GuardianSansCond-Regular-65" x="48.7"/><use xlink:href="#GuardianSansCond-Regular-63" x="91.4"/><use xlink:href="#GuardianSansCond-Regular-6f" x="129.2"/><use xlink:href="#GuardianSansCond-Regular-6d" x="174.8"/><use xlink:href="#GuardianSansCond-Regular-70" x="244.3"/><use xlink:href="#GuardianSansCond-Regular-75" x="290.9"/><use xlink:href="#GuardianSansCond-Regular-74" x="336.4"/><use xlink:href="#GuardianSansCond-Regular-61" x="365.4"/><use xlink:href="#GuardianSansCond-Regular-74" x="406.3"/><use xlink:href="#GuardianSansCond-Regular-69" x="435.3"/><use xlink:href="#GuardianSansCond-Regular-6f" x="454.6"/><use xlink:href="#GuardianSansCond-Regular-6e" x="500.2"/><use xlink:href="#GuardianSansCond-Regular-3a" x="546.3"/><use xlink:href="#GuardianSansCond-Regular-73" x="584.5"/><use xlink:href="#GuardianSansCond-Regular-65" x="619"/><use xlink:href="#GuardianSansCond-Regular-6c" x="661.7"/><use xlink:href="#GuardianSansCond-Regular-65" x="681"/><use xlink:href="#GuardianSansCond-Regular-63" x="723.7"/><use xlink:href="#GuardianSansCond-Regular-74" x="761.5"/><use xlink:href="#GuardianSansCond-Regular-69" x="790.5"/><use xlink:href="#GuardianSansCond-Regular-76" x="809.8"/><use xlink:href="#GuardianSansCond-Regular-65" x="851.7"/></g></g><g id="axes_3"><path id="patch_44" d="M590.402 252.746h254.79V60.096h-254.79z" style="fill:#fff"/><g id="matplotlib.axis_5"><g id="xtick_9"><path id="line2d_39" d="M622.25 252.746V60.096" clip-path="url(#pa7599372ac)" style="fill:none;stroke-dasharray:2.96,1.28;stroke-dashoffset:0;stroke:#b0b0b0;stroke-opacity:.7;stroke-width:.8"/><use xlink:href="#mb8bfb5d634" id="line2d_40" x="622.251" y="252.746" style="stroke:#000;stroke-width:.8"/><g id="text_17" transform="matrix(0 -.12 -.12 0 625.51 280.41)"><use xlink:href="#GuardianSansCond-Regular-31"/><use xlink:href="#GuardianSansCond-Regular-30" x="28.8"/><use xlink:href="#GuardianSansCond-Regular-32" x="82.3"/><use xlink:href="#GuardianSansCond-Regular-34" x="124.8"/></g></g><g id="xtick_10"><path id="line2d_41" d="M685.948 252.746V60.096" clip-path="url(#pa7599372ac)" style="fill:none;stroke-dasharray:2.96,1.28;stroke-dashoffset:0;stroke:#b0b0b0;stroke-opacity:.7;stroke-width:.8"/><use xlink:href="#mb8bfb5d634" id="line2d_42" x="685.948" y="252.746" style="stroke:#000;stroke-width:.8"/><g id="text_18" transform="matrix(0 -.12 -.12 0 689.207 282.884)"><use xlink:href="#GuardianSansCond-Regular-32"/><use xlink:href="#GuardianSansCond-Regular-30" x="42.5"/><use xlink:href="#GuardianSansCond-Regular-34" x="96"/><use xlink:href="#GuardianSansCond-Regular-38" x="143.4"/></g></g><g id="xtick_11"><path id="line2d_43" d="M749.646 252.746V60.096" clip-path="url(#pa7599372ac)" style="fill:none;stroke-dasharray:2.96,1.28;stroke-dashoffset:0;stroke:#b0b0b0;stroke-opacity:.7;stroke-width:.8"/><use xlink:href="#mb8bfb5d634" id="line2d_44" x="749.646" y="252.746" style="stroke:#000;stroke-width:.8"/><g id="text_19" transform="matrix(0 -.12 -.12 0 752.904 283.592)"><use xlink:href="#GuardianSansCond-Regular-34"/><use xlink:href="#GuardianSansCond-Regular-30" x="47.4"/><use xlink:href="#GuardianSansCond-Regular-39" x="100.9"/><use xlink:href="#GuardianSansCond-Regular-36" x="149.8"/></g></g><g id="xtick_12"><path id="line2d_45" d="M813.343 252.746V60.096" clip-path="url(#pa7599372ac)" style="fill:none;stroke-dasharray:2.96,1.28;stroke-dashoffset:0;stroke:#b0b0b0;stroke-opacity:.7;stroke-width:.8"/><use xlink:href="#mb8bfb5d634" id="line2d_46" x="813.343" y="252.746" style="stroke:#000;stroke-width:.8"/><g id="text_20" transform="matrix(0 -.12 -.12 0 816.602 280.1)"><use xlink:href="#GuardianSansCond-Regular-38"/><use xlink:href="#GuardianSansCond-Regular-31" x="49.4"/><use xlink:href="#GuardianSansCond-Regular-39" x="78.2"/><use xlink:href="#GuardianSansCond-Regular-32" x="127.1"/></g></g></g><g id="matplotlib.axis_6"><g id="ytick_11"><path id="line2d_47" d="M590.402 252.746h254.79" clip-path="url(#pa7599372ac)" style="fill:none;stroke-dasharray:2.96,1.28;stroke-dashoffset:0;stroke:#b0b0b0;stroke-opacity:.7;stroke-width:.8"/><use xlink:href="#m12ddd96148" id="line2d_48" x="590.402" y="252.746" style="stroke:#000;stroke-width:.8"/></g><g id="ytick_12"><path id="line2d_49" d="M590.402 212.72h254.79" clip-path="url(#pa7599372ac)" style="fill:none;stroke-dasharray:2.96,1.28;stroke-dashoffset:0;stroke:#b0b0b0;stroke-opacity:.7;stroke-width:.8"/><use xlink:href="#m12ddd96148" id="line2d_50" x="590.402" y="212.719" style="stroke:#000;stroke-width:.8"/></g><g id="ytick_13"><path id="line2d_51" d="M590.402 172.693h254.79" clip-path="url(#pa7599372ac)" style="fill:none;stroke-dasharray:2.96,1.28;stroke-dashoffset:0;stroke:#b0b0b0;stroke-opacity:.7;stroke-width:.8"/><use xlink:href="#m12ddd96148" id="line2d_52" x="590.402" y="172.693" style="stroke:#000;stroke-width:.8"/></g><g id="ytick_14"><path id="line2d_53" d="M590.402 132.666h254.79" clip-path="url(#pa7599372ac)" style="fill:none;stroke-dasharray:2.96,1.28;stroke-dashoffset:0;stroke:#b0b0b0;stroke-opacity:.7;stroke-width:.8"/><use xlink:href="#m12ddd96148" id="line2d_54" x="590.402" y="132.666" style="stroke:#000;stroke-width:.8"/></g><g id="ytick_15"><path id="line2d_55" d="M590.402 92.64h254.79" clip-path="url(#pa7599372ac)" style="fill:none;stroke-dasharray:2.96,1.28;stroke-dashoffset:0;stroke:#b0b0b0;stroke-opacity:.7;stroke-width:.8"/><use xlink:href="#m12ddd96148" id="line2d_56" x="590.402" y="92.639" style="stroke:#000;stroke-width:.8"/></g></g><path id="line2d_57" d="M590.402 220.725h254.79" clip-path="url(#pa7599372ac)" style="fill:none;stroke-dasharray:5.55,2.4;stroke-dashoffset:0;stroke:red;stroke-width:1.5"/><path id="patch_45" d="M590.402 252.746V60.096" style="fill:none;stroke:#000;stroke-width:.8;stroke-linejoin:miter;stroke-linecap:square"/><path id="patch_46" d="M845.192 252.746V60.096" style="fill:none;stroke:#000;stroke-width:.8;stroke-linejoin:miter;stroke-linecap:square"/><path id="patch_47" d="M590.402 252.746h254.79" style="fill:none;stroke:#000;stroke-width:.8;stroke-linejoin:miter;stroke-linecap:square"/><path id="patch_48" d="M590.402 60.096h254.79" style="fill:none;stroke:#000;stroke-width:.8;stroke-linejoin:miter;stroke-linecap:square"/><path id="patch_49" d="M606.326 252.746h31.849v-10.399h-31.849z" clip-path="url(#pa7599372ac)" style="fill:#4ea5b7"/><path id="patch_50" d="M670.024 252.746h31.848v-10.405h-31.848z" clip-path="url(#pa7599372ac)" style="fill:#4ea5b7"/><path id="patch_51" d="M733.721 252.746h31.849v-10.417h-31.849z" clip-path="url(#pa7599372ac)" style="fill:#4ea5b7"/><path id="patch_52" d="M797.419 252.746h31.849v-10.442h-31.85z" clip-path="url(#pa7599372ac)" style="fill:#4ea5b7"/><path id="patch_53" d="M606.326 242.347h31.849V231.95h-31.849z" clip-path="url(#pa7599372ac)" style="fill:#e889ab"/><path id="patch_54" d="M670.024 242.341h31.848v-10.405h-31.848z" clip-path="url(#pa7599372ac)" style="fill:#e889ab"/><path id="patch_55" d="M733.721 242.329h31.849V231.91h-31.849z" clip-path="url(#pa7599372ac)" style="fill:#e889ab"/><path id="patch_56" d="M797.419 242.304h31.849V231.86h-31.85z" clip-path="url(#pa7599372ac)" style="fill:#e889ab"/><path id="patch_57" d="M606.326 231.949h31.849v-20.797h-31.849z" clip-path="url(#pa7599372ac)" style="fill:#cec0fa"/><path id="patch_58" d="M670.024 231.936h31.848v-20.81h-31.848z" clip-path="url(#pa7599372ac)" style="fill:#cec0fa"/><path id="patch_59" d="M733.721 231.911h31.849v-20.834h-31.849z" clip-path="url(#pa7599372ac)" style="fill:#cec0fa"/><path id="patch_60" d="M797.419 231.861h31.849v-20.884h-31.85z" clip-path="url(#pa7599372ac)" style="fill:#cec0fa"/><path id="patch_61" d="M606.326 211.152h31.849v-.102h-31.849z" clip-path="url(#pa7599372ac)" style="fill:#e38a42"/><path id="patch_62" d="M670.024 211.127h31.848v-.203h-31.848z" clip-path="url(#pa7599372ac)" style="fill:#e38a42"/><path id="patch_63" d="M733.721 211.077h31.849v-.407h-31.849z" clip-path="url(#pa7599372ac)" style="fill:#e38a42"/><path id="patch_64" d="M797.419 210.977h31.849v-.813h-31.85z" clip-path="url(#pa7599372ac)" style="fill:#e38a42"/><g id="text_21" transform="matrix(.144 0 0 -.144 667.737 54.096)"><defs><path id="GuardianSansCond-Regular-66" d="M493 0h525v2848h608v435h-608v429c0 403 128 595 460 595 154 0 276-25 359-45v378c-90 45-250 102-474 102-537 0-870-313-870-985v-474H96v-435h397z" transform="scale(.01563)"/></defs><use xlink:href="#GuardianSansCond-Regular-52"/><use xlink:href="#GuardianSansCond-Regular-65" x="48.7"/><use xlink:href="#GuardianSansCond-Regular-63" x="91.4"/><use xlink:href="#GuardianSansCond-Regular-6f" x="129.2"/><use xlink:href="#GuardianSansCond-Regular-6d" x="174.8"/><use xlink:href="#GuardianSansCond-Regular-70" x="244.3"/><use xlink:href="#GuardianSansCond-Regular-75" x="290.9"/><use xlink:href="#GuardianSansCond-Regular-74" x="336.4"/><use xlink:href="#GuardianSansCond-Regular-61" x="365.4"/><use xlink:href="#GuardianSansCond-Regular-74" x="406.3"/><use xlink:href="#GuardianSansCond-Regular-69" x="435.3"/><use xlink:href="#GuardianSansCond-Regular-6f" x="454.6"/><use xlink:href="#GuardianSansCond-Regular-6e" x="500.2"/><use xlink:href="#GuardianSansCond-Regular-3a" x="546.3"/><use xlink:href="#GuardianSansCond-Regular-66" x="584.5"/><use xlink:href="#GuardianSansCond-Regular-75" x="611.2"/><use xlink:href="#GuardianSansCond-Regular-6c" x="656.7"/><use xlink:href="#GuardianSansCond-Regular-6c" x="676"/></g></g><g id="text_22" transform="matrix(.1728 0 0 -.1728 397.113 19.885)"><defs><path id="GuardianSansCond-Regular-64" d="M1357-51c333 0 608 128 768 294h25l45-243h442v4698h-519V3174c-140 90-384 160-652 160-832 0-1268-595-1268-1664v-147C198 339 723-51 1357-51m147 429c-512 0-762 371-762 1164v186c0 813 237 1165 794 1165 243 0 467-58 582-135V595c-134-102-345-217-614-217" transform="scale(.01563)"/></defs><use xlink:href="#GuardianSansCond-Regular-38"/><use xlink:href="#GuardianSansCond-Regular-42" x="49.4"/><use xlink:href="#GuardianSansCond-Regular-4d" x="114.2"/><use xlink:href="#GuardianSansCond-Regular-6f" x="181.9"/><use xlink:href="#GuardianSansCond-Regular-64" x="227.5"/><use xlink:href="#GuardianSansCond-Regular-65" x="274.1"/><use xlink:href="#GuardianSansCond-Regular-6c" x="316.8"/></g><g id="legend_1"><path id="patch_65" d="M866.552 193.446h115.5q2.4 0 2.4-2.4v-84.3q0-2.4-2.4-2.4h-115.5q-2.4 0-2.4 2.4v84.3q0 2.4 2.4 2.4z" style="fill:#fff;opacity:.8;stroke:#ccc;stroke-linejoin:miter"/><path id="line2d_58" d="M868.952 113.755h24" style="fill:none;stroke-dasharray:5.55,2.4;stroke-dashoffset:0;stroke:red;stroke-width:1.5"/><g id="text_23" transform="matrix(.12 0 0 -.12 902.552 117.955)"><use xlink:href="#GuardianSansCond-Regular-38"/><use xlink:href="#GuardianSansCond-Regular-30" x="49.4"/><use xlink:href="#GuardianSansCond-Regular-47" x="102.9"/><use xlink:href="#GuardianSansCond-Regular-42" x="156.2"/><use xlink:href="#GuardianSansCond-Regular-6c" x="221"/><use xlink:href="#GuardianSansCond-Regular-69" x="240.3"/><use xlink:href="#GuardianSansCond-Regular-6d" x="259.6"/><use xlink:href="#GuardianSansCond-Regular-69" x="329.1"/><use xlink:href="#GuardianSansCond-Regular-74" x="348.4"/></g><path id="patch_66" d="M868.952 135.055h24v-8.4h-24z" style="fill:#4ea5b7"/><g id="text_24" transform="matrix(.12 0 0 -.12 902.552 135.055)"><defs><path id="GuardianSansCond-Regular-50" d="M416 0h538v1766h601c807 0 1299 480 1299 1351 0 909-441 1318-1318 1318H416zm538 2221v1753h524c583 0 807-224 807-876 0-602-231-877-813-877z" transform="scale(.01563)"/></defs><use xlink:href="#GuardianSansCond-Regular-4d"/><use xlink:href="#GuardianSansCond-Regular-6f" x="67.7"/><use xlink:href="#GuardianSansCond-Regular-64" x="113.3"/><use xlink:href="#GuardianSansCond-Regular-65" x="159.9"/><use xlink:href="#GuardianSansCond-Regular-6c" x="202.6"/><use xlink:href="#GuardianSansCond-Regular-50" x="237.7"/><use xlink:href="#GuardianSansCond-Regular-61" x="284.7"/><use xlink:href="#GuardianSansCond-Regular-72" x="325.6"/><use xlink:href="#GuardianSansCond-Regular-61" x="354.4"/><use xlink:href="#GuardianSansCond-Regular-6d" x="395.3"/><use xlink:href="#GuardianSansCond-Regular-65" x="464.8"/><use xlink:href="#GuardianSansCond-Regular-74" x="507.5"/><use xlink:href="#GuardianSansCond-Regular-65" x="536.5"/><use xlink:href="#GuardianSansCond-Regular-72" x="579.2"/><use xlink:href="#GuardianSansCond-Regular-73" x="608"/></g><path id="patch_67" d="M868.952 152.155h24v-8.4h-24z" style="fill:#e889ab"/><g id="text_25" transform="matrix(.12 0 0 -.12 902.552 152.155)"><use xlink:href="#GuardianSansCond-Regular-47"/><use xlink:href="#GuardianSansCond-Regular-72" x="53.3"/><use xlink:href="#GuardianSansCond-Regular-61" x="82.1"/><use xlink:href="#GuardianSansCond-Regular-64" x="123"/><use xlink:href="#GuardianSansCond-Regular-69" x="169.6"/><use xlink:href="#GuardianSansCond-Regular-65" x="188.9"/><use xlink:href="#GuardianSansCond-Regular-6e" x="231.6"/><use xlink:href="#GuardianSansCond-Regular-74" x="277.7"/><use xlink:href="#GuardianSansCond-Regular-73" x="306.7"/></g><path id="patch_68" d="M868.952 169.255h24v-8.4h-24z" style="fill:#cec0fa"/><g id="text_26" transform="matrix(.12 0 0 -.12 902.552 169.255)"><defs><path id="GuardianSansCond-Regular-4f" d="M1818-64c1068 0 1580 800 1580 2118v320c0 1440-556 2125-1580 2125-1050 0-1581-774-1581-2137v-295C237 576 819-64 1818-64m6 448c-768 0-1018 653-1018 1690v403c0 921 276 1574 999 1574 768 0 1024-633 1024-1677v-409c0-967-295-1581-1005-1581" transform="scale(.01563)"/><path id="GuardianSansCond-Regular-7a" d="M179 0h2067v435H794v19l1465 2464v365H256v-429h1370v-19L179 384z" transform="scale(.01563)"/><path id="GuardianSansCond-Regular-53" d="M1184-70c954 0 1325 569 1325 1318 0 781-397 1011-947 1254l-320 141c-384 167-512 327-512 717 0 448 256 678 729 678 384 0 685-102 877-198v461c-179 96-422 198-870 198-813 0-1268-441-1268-1177 0-685 346-973 826-1184l320-141c416-186 614-320 614-800 0-538-256-800-812-800-352 0-704 115-980 249V186C390 51 723-70 1184-70" transform="scale(.01563)"/></defs><use xlink:href="#GuardianSansCond-Regular-4f"/><use xlink:href="#GuardianSansCond-Regular-70" x="56.8"/><use xlink:href="#GuardianSansCond-Regular-74" x="103.4"/><use xlink:href="#GuardianSansCond-Regular-69" x="132.4"/><use xlink:href="#GuardianSansCond-Regular-6d" x="151.7"/><use xlink:href="#GuardianSansCond-Regular-69" x="221.2"/><use xlink:href="#GuardianSansCond-Regular-7a" x="240.5"/><use xlink:href="#GuardianSansCond-Regular-65" x="278.7"/><use xlink:href="#GuardianSansCond-Regular-72" x="321.4"/><use xlink:href="#GuardianSansCond-Regular-53" x="366"/><use xlink:href="#GuardianSansCond-Regular-74" x="408.2"/><use xlink:href="#GuardianSansCond-Regular-61" x="437.2"/><use xlink:href="#GuardianSansCond-Regular-74" x="478.1"/><use xlink:href="#GuardianSansCond-Regular-65" x="507.1"/><use xlink:href="#GuardianSansCond-Regular-73" x="549.8"/></g><path id="patch_69" d="M868.952 186.355h24v-8.4h-24z" style="fill:#e38a42"/><g id="text_27" transform="matrix(.12 0 0 -.12 902.552 186.355)"><defs><path id="GuardianSansCond-Regular-41" d="M70 0h506l333 1222h1401L2656 0h550L1933 4435h-595zm1549 3776s77-346 135-563l422-1536H1043l423 1536c64 224 134 563 134 563z" transform="scale(.01563)"/></defs><use xlink:href="#GuardianSansCond-Regular-41"/><use xlink:href="#GuardianSansCond-Regular-63" x="51.1"/><use xlink:href="#GuardianSansCond-Regular-74" x="88.9"/><use xlink:href="#GuardianSansCond-Regular-69" x="117.9"/><use xlink:href="#GuardianSansCond-Regular-76" x="137.2"/><use xlink:href="#GuardianSansCond-Regular-61" x="179.1"/><use xlink:href="#GuardianSansCond-Regular-74" x="220"/><use xlink:href="#GuardianSansCond-Regular-69" x="249"/><use xlink:href="#GuardianSansCond-Regular-6f" x="268.3"/><use xlink:href="#GuardianSansCond-Regular-6e" x="313.9"/><use xlink:href="#GuardianSansCond-Regular-73" x="360"/></g></g></g><defs><clipPath id="p728fdb0b47"><path d="M47.902 60.096h254.79v192.65H47.902z"/></clipPath><clipPath id="pd2b5d00e01"><path d="M319.152 60.096h254.79v192.65h-254.79z"/></clipPath><clipPath id="pa7599372ac"><path d="M590.402 60.096h254.79v192.65h-254.79z"/></clipPath></defs></svg>