<svg xmlns="http://www.w3.org/2000/svg" width="800.933" height="146.088" fill="none" stroke-linecap="square" stroke-miterlimit="10"><clipPath id="a"><path d="M0 0h960v540H0Z"/></clipPath><g clip-path="url(#a)" transform="translate(-139.78 -307.782)"><path d="M437.202 307.782h166.11v42.016h-166.11Z"/><path fill="#000" d="M485.202 321.296h2.594l5.156 13.406h-2.656l-1.047-2.765h-5.47l-1.093 2.765h-2.64zm1.312 3.562-1.781 4.594h3.563zm8.442-3.718h2.469v3.656h1.484v2.14h-1.484v7.766h-2.47v-7.765h-1.28v-2.141h1.28zm5.593 0h2.469v3.656h1.484v2.14h-1.484v7.766h-2.469v-7.765h-1.281v-2.141h1.281zm15.218 9.328h-7.984q.172 1.062.922 1.687.75.61 1.922.61 1.39 0 2.39-.97l2.094.985q-.781 1.11-1.875 1.64-1.094.532-2.594.532-2.343 0-3.812-1.469-1.453-1.468-1.453-3.687 0-2.266 1.453-3.766 1.469-1.5 3.672-1.5 2.343 0 3.812 1.5t1.469 3.969zm-2.5-1.953q-.25-.828-.968-1.344-.72-.531-1.672-.531-1.047 0-1.828.578-.5.375-.907 1.297zm4.505-3.72h2.485v1q.843-.702 1.531-.983t1.406-.282q1.485 0 2.516 1.032.86.875.86 2.593v6.547h-2.454v-4.344q0-1.78-.172-2.359-.156-.578-.547-.875-.39-.312-.984-.312-.75 0-1.297.5t-.75 1.39q-.11.469-.11 2.016v3.984h-2.484zm11.508-3.655h2.47v3.656h1.484v2.14h-1.485v7.766h-2.469v-7.765H528v-2.141h1.28zm6.265-.438q.657 0 1.125.485.47.468.47 1.14t-.47 1.14q-.468.47-1.109.47-.672 0-1.14-.47-.47-.484-.47-1.171 0-.656.47-1.125.468-.469 1.124-.469m-1.25 4.094h2.5v9.906h-2.5zm9.395-.266q1.406 0 2.64.703 1.235.704 1.923 1.907.703 1.203.703 2.593 0 1.407-.703 2.625-.688 1.22-1.891 1.907t-2.656.687q-2.125 0-3.64-1.515-1.5-1.516-1.5-3.688 0-2.312 1.702-3.86 1.485-1.359 3.422-1.359m.047 2.344q-1.156 0-1.937.813-.766.796-.766 2.062 0 1.297.75 2.094.766.797 1.937.797t1.938-.813q.781-.812.781-2.078 0-1.281-.765-2.078-.766-.797-1.938-.797m7.24-2.078h2.484v1q.844-.703 1.531-.984.688-.282 1.406-.282 1.485 0 2.516 1.032.86.875.86 2.593v6.547h-2.454v-4.344q0-1.78-.172-2.359-.156-.578-.547-.875-.39-.312-.984-.312-.75 0-1.297.5t-.75 1.39q-.11.469-.11 2.016v3.984h-2.484z"/><path d="M139.78 380.835h166.11v19.401H139.78Z"/><path fill="#000" d="m160.701 386.57-1.53 1.53q-1.47-1.546-3.407-1.546-1.703 0-2.844 1.125t-1.14 2.734q0 1.657 1.187 2.813t2.922 1.156q1.14 0 1.906-.469.781-.484 1.266-1.5h-3.328v-2.046h5.78l.017.484q0 1.5-.782 2.86-.781 1.343-2.031 2.062-1.234.719-2.906.719-1.797 0-3.203-.782-1.391-.781-2.22-2.218-.812-1.438-.812-3.11 0-2.281 1.516-3.969 1.781-2 4.656-2 1.5 0 2.797.547 1.11.469 2.156 1.61m2.829-1.875h2.312q1.89 0 2.719.359.828.344 1.312 1.125.485.766.485 1.86 0 1.203-.641 2-.625.796-1.703 1.109-.625.172-2.297.172v4.875h-2.187zm2.187 4.5h.688q.828 0 1.14-.11.328-.125.5-.39.188-.282.188-.657 0-.671-.516-.968-.375-.235-1.39-.235h-.61zm6.695-4.5h2.203v7.437q0 .969.157 1.375.172.39.562.625t.938.235q.578 0 .984-.266.422-.266.578-.672.172-.406.172-1.562v-7.172h2.188v6.859q0 1.734-.204 2.406-.187.672-.734 1.297t-1.266.938q-.718.297-1.671.297-1.25 0-2.188-.579-.922-.578-1.328-1.437-.39-.875-.39-2.922zm25.36 2.03-1.532 1.454q-1.562-1.64-3.515-1.64-1.64 0-2.781 1.124-1.125 1.125-1.125 2.766 0 1.156.5 2.047.5.89 1.406 1.406.922.5 2.047.5.953 0 1.734-.36.797-.359 1.734-1.296l1.485 1.547q-1.266 1.25-2.406 1.734-1.125.485-2.579.485-2.687 0-4.39-1.704t-1.703-4.359q0-1.719.765-3.047.782-1.344 2.235-2.156t3.125-.813q1.422 0 2.734.61 1.313.594 2.266 1.703m5.68.75q1.203 0 2.25.61 1.062.594 1.656 1.625t.593 2.219q0 1.203-.593 2.25-.594 1.047-1.625 1.64-1.032.594-2.282.594-1.828 0-3.125-1.296-1.28-1.313-1.28-3.172 0-1.985 1.452-3.313 1.282-1.156 2.953-1.156m.03 2q-1 0-1.656.704-.656.688-.656 1.766 0 1.109.64 1.797.657.687 1.657.687t1.656-.687q.672-.704.672-1.797 0-1.094-.656-1.782-.64-.687-1.656-.687m6.196-1.78h2.14v.968q.547-.593 1.22-.89.671-.297 1.452-.297.797 0 1.438.39.64.391 1.031 1.141.516-.75 1.25-1.14.735-.391 1.61-.391.906 0 1.593.422.688.422.985 1.11.312.671.312 2.202v4.985h-2.156v-4.313q0-1.453-.36-1.953-.359-.516-1.078-.516-.546 0-.984.313-.422.312-.64.86-.204.546-.204 1.765v3.844h-2.156v-4.125q0-1.141-.172-1.641-.156-.516-.5-.766-.328-.25-.812-.25-.532 0-.97.313-.421.312-.64.89-.218.563-.218 1.797v3.782h-2.141zm17.18 0v.937q.578-.578 1.25-.86.671-.296 1.437-.296 1.656 0 2.813 1.266 1.171 1.25 1.171 3.218 0 1.89-1.203 3.172-1.203 1.281-2.843 1.281-.735 0-1.375-.265-.625-.266-1.25-.86v4.016h-2.125v-11.61zm2.234 1.75q-1 0-1.672.687-.656.688-.656 1.797 0 1.125.656 1.828.672.703 1.672.703.984 0 1.64-.703.672-.719.672-1.828 0-1.094-.656-1.781-.656-.703-1.656-.703m6.203-1.75h2.156v4.093q0 1.188.157 1.657.171.468.53.734.36.25.891.25.532 0 .907-.25.375-.266.547-.75.14-.375.14-1.578v-4.156h2.14v3.593q0 2.235-.359 3.047-.421 1-1.265 1.547-.828.531-2.125.531-1.39 0-2.266-.625-.86-.625-1.203-1.75-.25-.765-.25-2.812zm9.867-3.141h2.125v3.14h1.266v1.829h-1.266v6.672h-2.125v-6.672h-1.093v-1.828h1.093zm10.813 3.14h2.125v8.5h-2.125v-.906q-.625.594-1.25.86-.625.265-1.36.265-1.656 0-2.859-1.28-1.203-1.282-1.203-3.173 0-1.968 1.156-3.218 1.172-1.266 2.844-1.266.766 0 1.437.297.672.281 1.235.86zm-2.235 1.75q-1 0-1.656.704-.656.687-.656 1.781 0 1.11.672 1.828.672.703 1.64.703 1.016 0 1.672-.703.672-.703.672-1.828 0-1.11-.672-1.797-.656-.687-1.672-.687m6.782-4.89h2.125v3.14h1.265v1.829h-1.265v6.672h-2.125v-6.672h-1.094v-1.828h1.094zm5.375-.36q.562 0 .953.407.406.406.406.984 0 .563-.406.969-.39.406-.938.406-.578 0-.984-.406-.39-.422-.39-1 0-.562.39-.953.406-.406.969-.406m-1.078 3.5h2.14v8.5h-2.14zm8.07-.218q1.203 0 2.25.61 1.062.593 1.656 1.624t.594 2.219q0 1.203-.594 2.25t-1.625 1.64-2.281.594q-1.828 0-3.125-1.296-1.281-1.313-1.281-3.172 0-1.985 1.453-3.313 1.281-1.156 2.953-1.156m.031 2q-1 0-1.656.703-.656.688-.656 1.766 0 1.109.64 1.797.656.687 1.656.687t1.657-.687q.672-.704.672-1.797 0-1.094-.657-1.782-.64-.687-1.656-.687m6.211-1.781h2.125v.859q.734-.61 1.313-.844.593-.234 1.218-.234 1.266 0 2.14.875.75.75.75 2.219v5.625h-2.108v-3.735q0-1.515-.141-2.015t-.484-.766q-.329-.266-.829-.266-.656 0-1.125.438-.453.437-.64 1.203-.094.39-.094 1.719v3.422h-2.125zm10.773-.22q.5 0 .86.36t.36.86-.36.859-.86.36q-.515 0-.875-.344-.359-.36-.359-.875 0-.5.36-.86.359-.36.874-.36m0 6.485q.5 0 .86.36.36.359.36.859 0 .516-.36.875-.36.36-.86.36-.515 0-.875-.36-.359-.36-.359-.875 0-.5.36-.86.359-.359.874-.359"/><path d="M139.78 422.724h186.96v19.402H139.78Z"/><path fill="#000" d="m160.701 428.46-1.53 1.53q-1.47-1.546-3.407-1.546-1.703 0-2.844 1.125t-1.14 2.734q0 1.656 1.187 2.813 1.188 1.156 2.922 1.156 1.14 0 1.906-.469.781-.484 1.266-1.5h-3.328v-2.047h5.78l.017.485q0 1.5-.782 2.859-.781 1.344-2.031 2.063-1.234.718-2.906.718-1.797 0-3.203-.781-1.391-.781-2.22-2.219-.812-1.437-.812-3.11 0-2.28 1.516-3.968 1.781-2 4.656-2 1.5 0 2.797.547 1.11.469 2.156 1.61m2.829-1.876h2.312q1.89 0 2.719.36.828.344 1.312 1.125.485.765.485 1.86 0 1.202-.641 2-.625.796-1.703 1.109-.625.171-2.297.171v4.875h-2.187zm2.187 4.5h.688q.828 0 1.14-.109.328-.125.5-.39.188-.282.188-.657 0-.672-.516-.969-.375-.234-1.39-.234h-.61zm6.695-4.5h2.203v7.438q0 .969.157 1.375.172.39.562.625t.938.234q.578 0 .984-.265.422-.266.578-.672.172-.406.172-1.563v-7.172h2.188v6.86q0 1.734-.204 2.406-.187.672-.734 1.297t-1.266.937q-.718.297-1.671.297-1.25 0-2.188-.578-.922-.578-1.328-1.437-.39-.875-.39-2.922zm25.36 2.032-1.532 1.453q-1.562-1.64-3.515-1.64-1.64 0-2.781 1.124-1.125 1.125-1.125 2.766 0 1.156.5 2.047.5.89 1.406 1.406.922.5 2.047.5.953 0 1.734-.36.797-.359 1.734-1.296l1.485 1.547q-1.266 1.25-2.406 1.734-1.125.484-2.579.484-2.687 0-4.39-1.703t-1.703-4.36q0-1.718.765-3.046.782-1.344 2.235-2.156t3.125-.813q1.422 0 2.734.61 1.313.593 2.266 1.703m5.68.75q1.203 0 2.25.609 1.062.594 1.656 1.625t.593 2.219q0 1.203-.593 2.25-.594 1.047-1.625 1.64-1.032.594-2.282.594-1.828 0-3.125-1.297-1.28-1.312-1.28-3.172 0-1.984 1.452-3.312 1.282-1.156 2.953-1.156m.03 2q-1 0-1.656.703-.656.687-.656 1.765 0 1.11.64 1.797.657.688 1.657.688t1.656-.688q.672-.703.672-1.797t-.656-1.78q-.64-.688-1.656-.688m6.196-1.782h2.14v.97q.547-.595 1.22-.891.671-.297 1.452-.297.797 0 1.438.39t1.031 1.14q.516-.75 1.25-1.14.735-.39 1.61-.39.906 0 1.593.422.688.421.985 1.109.312.672.312 2.203v4.984h-2.156v-4.312q0-1.453-.36-1.953-.359-.516-1.078-.516-.546 0-.984.313-.422.312-.64.859-.204.547-.204 1.766v3.843h-2.156v-4.125q0-1.14-.172-1.64-.156-.516-.5-.766-.328-.25-.812-.25-.532 0-.97.313-.421.312-.64.89-.218.563-.218 1.797v3.781h-2.141zm15.039 0h2.14v.97q.547-.595 1.22-.891.671-.297 1.452-.297.797 0 1.438.39t1.031 1.14q.516-.75 1.25-1.14.735-.39 1.61-.39.906 0 1.593.422.688.421.985 1.109.312.672.312 2.203v4.984h-2.156v-4.312q0-1.453-.36-1.953-.359-.516-1.078-.516-.546 0-.984.313-.422.312-.64.859-.204.547-.204 1.766v3.843h-2.156v-4.125q0-1.14-.172-1.64-.156-.516-.5-.766-.328-.25-.812-.25-.532 0-.969.313-.422.312-.64.89-.22.563-.22 1.797v3.781h-2.14zm15.055 0h2.156v4.094q0 1.188.156 1.656.172.47.531.735.36.25.891.25t.906-.25q.375-.266.547-.75.14-.375.14-1.578v-4.157h2.141v3.594q0 2.235-.359 3.047-.422 1-1.266 1.547-.828.531-2.125.531-1.39 0-2.265-.625-.86-.625-1.203-1.75-.25-.765-.25-2.812zm9.601 0h2.125v.86q.735-.61 1.313-.844.593-.234 1.218-.234 1.266 0 2.141.875.75.75.75 2.218v5.625h-2.11v-3.734q0-1.516-.14-2.016t-.484-.765q-.328-.266-.828-.266-.657 0-1.125.438-.454.437-.641 1.203-.094.39-.094 1.719v3.421h-2.125zm10.446-3.5q.562 0 .953.407.406.406.406.984 0 .563-.406.969-.39.406-.938.406-.578 0-.984-.406-.39-.422-.39-1 0-.563.39-.953.406-.407.969-.407m-1.079 3.5h2.141v8.5h-2.14zm12.399 1.72-1.781.968q-.5-.516-.985-.719-.484-.203-1.14-.203-1.204 0-1.938.719-.734.703-.734 1.828 0 1.078.703 1.766.719.687 1.875.687 1.422 0 2.219-.969l1.687 1.14q-1.375 1.782-3.86 1.782-2.25 0-3.515-1.328t-1.266-3.11q0-1.234.61-2.265.625-1.047 1.719-1.64 1.109-.594 2.484-.594 1.266 0 2.266.5 1.015.5 1.656 1.437m8.195-1.72h2.125v8.5h-2.125v-.906q-.625.594-1.25.86-.625.265-1.36.265-1.655 0-2.859-1.281t-1.203-3.172q0-1.969 1.157-3.219 1.171-1.265 2.843-1.265.766 0 1.438.297.672.28 1.234.859zm-2.234 1.75q-1 0-1.656.704-.657.687-.657 1.78 0 1.11.672 1.829.672.703 1.64.703 1.016 0 1.673-.703.672-.703.672-1.828 0-1.11-.672-1.797-.657-.688-1.672-.688m6.781-4.89h2.125v3.14h1.266v1.829h-1.266v6.671h-2.125v-6.671h-1.094v-1.829h1.094zm5.375-.36q.563 0 .953.407.406.406.406.984 0 .563-.406.969-.39.406-.937.406-.578 0-.985-.406-.39-.422-.39-1 0-.563.39-.953.407-.407.97-.407m-1.078 3.5h2.14v8.5h-2.14zm8.07-.218q1.203 0 2.25.609 1.063.594 1.656 1.625.594 1.031.594 2.219 0 1.203-.594 2.25-.593 1.047-1.625 1.64-1.03.594-2.28.594-1.829 0-3.126-1.297-1.281-1.312-1.281-3.172 0-1.984 1.453-3.312 1.281-1.156 2.953-1.156m.031 2q-1 0-1.656.703-.656.687-.656 1.765 0 1.11.64 1.797.657.688 1.657.688t1.656-.688q.672-.703.672-1.797t-.656-1.78q-.64-.688-1.657-.688m6.211-1.782h2.125v.86q.735-.61 1.313-.844.594-.234 1.219-.234 1.265 0 2.14.875.75.75.75 2.218v5.625h-2.11v-3.734q0-1.516-.14-2.016t-.484-.765q-.328-.266-.828-.266-.656 0-1.125.438-.453.437-.64 1.203-.095.39-.095 1.719v3.421h-2.125zm10.774-.218q.5 0 .86.359.359.36.359.86t-.36.859-.86.36q-.515 0-.874-.345-.36-.359-.36-.875 0-.5.36-.859.36-.36.875-.36m0 6.484q.5 0 .86.36.359.359.359.859 0 .515-.36.875t-.86.36q-.515 0-.874-.36-.36-.36-.36-.875 0-.5.36-.86.36-.359.875-.359"/><path fill="#4ea5b7" fill-rule="evenodd" d="M323.898 376.572a6.98 6.98 0 0 1 6.982-6.981h87.359a6.98 6.98 0 0 1 6.982 6.981V404.5a6.98 6.98 0 0 1-6.982 6.981h-87.36a6.98 6.98 0 0 1-6.981-6.981z"/><path stroke="#000" stroke-linecap="butt" stroke-linejoin="round" d="M323.898 376.572a6.98 6.98 0 0 1 6.982-6.981h87.359a6.98 6.98 0 0 1 6.982 6.981V404.5a6.98 6.98 0 0 1-6.982 6.981h-87.36a6.98 6.98 0 0 1-6.981-6.981z"/><path fill="#fff" d="M342.076 386.62h1.484l2.938 7.655h-1.516l-.593-1.578h-3.125l-.625 1.578h-1.516zm.75 2.03-1.016 2.625h2.032zm4.82-2.125h1.422v2.094h.828v1.219h-.828v4.437h-1.422v-4.437h-.734v-1.219h.734zm3.195 0h1.422v2.094h.828v1.219h-.828v4.437h-1.422v-4.437h-.734v-1.219h.734zm3.023 2.094h1.422v.578q.484-.406.875-.562.39-.172.797-.172.844 0 1.437.594.485.5.485 1.484v3.734h-1.406v-2.484q0-1.016-.094-1.344-.078-.328-.313-.5-.218-.187-.562-.187-.422 0-.735.297-.312.28-.421.797-.063.265-.063 1.14v2.281h-1.422zm7.66-2.344h1.797q-.937 1.047-1.39 2.282-.453 1.218-.453 2.797 0 1.687.515 2.984.391 1 1.328 2.156h-1.796q-.844-1.328-1.172-2.469-.328-1.156-.328-2.718 0-1.532.343-2.672.36-1.156 1.157-2.36m9.502 6.875 1.328 1.735h-1.719l-.672-.875q-.843.453-1.875.453-1.718 0-2.859-1.188-1.14-1.187-1.14-2.828 0-1.093.53-2.015.532-.922 1.454-1.453.937-.547 2-.547 1.625 0 2.797 1.172 1.171 1.171 1.171 2.875 0 1.546-1.015 2.671m-.906-1.171q.468-.688.468-1.516 0-1.094-.734-1.844-.734-.765-1.781-.765-1.078 0-1.797.75-.719.734-.719 1.875 0 1.265.906 2 .72.578 1.625.578.516 0 .97-.203l-1.36-1.766h1.734zm3.7-5.704q.374 0 .64.282.265.265.265.656 0 .375-.265.64-.266.266-.64.266-.376 0-.641-.265-.266-.282-.266-.672 0-.375.266-.641.265-.266.64-.266m-.72 2.344h1.422v5.656H373.1zm3.399 4.219 1.016.5-1.297 2.203-.703-.344zm5.447-6.219h1.469v2.64l2.078-2.64h1.75l-2.672 3.422 2.938 4.234h-1.735l-2.359-3.39v3.39h-1.469zm6.999-.344q.375 0 .64.282.266.265.266.656 0 .375-.265.64-.266.266-.641.266t-.64-.265q-.266-.282-.266-.672 0-.375.265-.641.266-.266.641-.266m-.719 2.344h1.422v5.656h-1.422zm3.399 4.219 1.015.5-1.296 2.203-.704-.344zm4.853-6.219h1.5l1.922 5.438 1.953-5.438h1.5l-2.765 7.656h-1.407zm8.446-.344q.375 0 .64.282.266.265.266.656 0 .375-.265.64-.266.266-.64.266-.376 0-.641-.265-.266-.282-.266-.672 0-.375.266-.641.265-.266.64-.266m-.719 2.344h1.422v5.656h-1.422zm4.07 7.875h-1.796q.922-1.047 1.375-2.265.453-1.22.453-2.797 0-1.703-.5-2.985-.39-1-1.328-2.172h1.797q.828 1.329 1.156 2.485t.328 2.719q0 1.515-.344 2.671-.343 1.157-1.14 2.344"/><path fill="#4ea5b7" fill-rule="evenodd" d="M820.276 414.725a3.77 3.77 0 0 1 3.769-3.77h112.399a3.77 3.77 0 0 1 3.769 3.77V429.8a3.77 3.77 0 0 1-3.77 3.77H824.046a3.77 3.77 0 0 1-3.77-3.77z"/><path stroke="#000" stroke-linecap="butt" stroke-linejoin="round" d="M820.276 414.725a3.77 3.77 0 0 1 3.769-3.77h112.399a3.77 3.77 0 0 1 3.769 3.77V429.8a3.77 3.77 0 0 1-3.77 3.77H824.046a3.77 3.77 0 0 1-3.77-3.77z"/><path fill="#fff" d="M838.987 417.484h4.75v1.782h-2.954V421h2.953v1.75h-2.953v4.312h-1.797zm9.49 2.313q1 0 1.876.5.89.5 1.39 1.36.5.859.5 1.859t-.5 1.875-1.36 1.375q-.859.484-1.89.484-1.531 0-2.61-1.078-1.077-1.094-1.077-2.64 0-1.657 1.218-2.766 1.079-.97 2.454-.97m.032 1.672q-.828 0-1.375.578t-.547 1.469q0 .937.531 1.515.547.563 1.39.563.829 0 1.376-.578.562-.579.562-1.5 0-.907-.547-1.47-.547-.577-1.39-.577m4.766-1.485h1.516v.891q.25-.531.656-.797.422-.281.906-.281.344 0 .719.187l-.547 1.532q-.313-.157-.516-.157-.406 0-.703.516-.281.5-.281 1.984l.016.344v2.86h-1.766zm3.888 0h1.734l1.437 4.032 1.532-4.032h1.062l1.5 3.985 1.422-3.985h1.75l-2.578 7.078h-1.125l-1.516-4.03-1.547 4.03h-1.125zm16.675 0h1.781v7.078h-1.78v-.75q-.516.5-1.048.72-.515.218-1.125.218-1.375 0-2.375-1.063-1-1.078-1-2.656 0-1.64.969-2.687t2.344-1.047q.64 0 1.203.25.562.234 1.031.719zm-1.86 1.453q-.827 0-1.374.594-.547.578-.547 1.485 0 .921.547 1.515.562.594 1.375.594.844 0 1.39-.578.563-.594.563-1.531 0-.938-.563-1.5-.546-.579-1.39-.579m5.018-1.453h1.516v.891q.25-.531.656-.797.422-.281.906-.281.344 0 .719.187l-.547 1.532q-.312-.157-.515-.157-.407 0-.704.516-.28.5-.28 1.984l.015.344v2.86h-1.766zm9.903-2.734h1.782v9.812h-1.782v-.75q-.515.5-1.046.72-.516.218-1.125.218-1.375 0-2.375-1.063-1-1.078-1-2.656 0-1.64.968-2.687.969-1.047 2.344-1.047.64 0 1.203.25.563.234 1.031.719zm-1.859 4.187q-.828 0-1.375.594-.547.578-.547 1.485 0 .921.547 1.515.563.594 1.375.594.844 0 1.39-.578.563-.594.563-1.531 0-.938-.562-1.5-.547-.579-1.391-.579m10.918-1.453v.782q.485-.485 1.047-.72.563-.25 1.203-.25 1.375 0 2.344 1.048.969 1.047.969 2.687 0 1.578-1 2.656-1 1.063-2.375 1.063-.61 0-1.14-.219-.516-.219-1.048-.719v3.344h-1.765v-9.672zm1.875 1.453q-.843 0-1.406.579-.547.562-.547 1.5t.547 1.53q.563.579 1.406.579.813 0 1.36-.594.562-.594.562-1.515 0-.907-.547-1.485-.547-.594-1.375-.594m10.393-1.453h1.781v7.078h-1.781v-.75q-.516.5-1.047.72-.516.218-1.125.218-1.375 0-2.375-1.063-1-1.078-1-2.656 0-1.64.969-2.687.968-1.047 2.343-1.047.641 0 1.203.25.563.234 1.032.719zm-1.86 1.453q-.828 0-1.375.594-.547.578-.547 1.485 0 .921.547 1.515.563.594 1.375.594.844 0 1.391-.578.562-.594.562-1.531 0-.938-.562-1.5-.547-.579-1.39-.579m9.768-.468-1.11 1.11q-.656-.673-1.203-.673-.312 0-.484.125-.156.125-.156.313 0 .156.109.281.11.11.531.312l.64.329q1.032.515 1.407 1.046.39.516.39 1.22 0 .952-.702 1.593-.688.625-1.844.625-1.547 0-2.469-1.219l1.094-1.187q.312.36.719.593.421.22.75.22.359 0 .562-.173.219-.172.219-.39 0-.407-.766-.797l-.61-.297q-1.718-.875-1.718-2.172 0-.844.64-1.437.657-.594 1.673-.594.687 0 1.296.312.61.297 1.032.86m5.863 0-1.109 1.11q-.656-.673-1.203-.673-.313 0-.485.125-.156.125-.156.313 0 .156.11.281.109.11.53.312l.641.329q1.032.515 1.407 1.046.39.516.39 1.22 0 .952-.703 1.593-.687.625-1.844.625-1.546 0-2.468-1.219l1.093-1.187q.313.36.72.593.421.22.75.22.359 0 .562-.173.218-.172.218-.39 0-.407-.765-.797l-.61-.297q-1.718-.875-1.718-2.172 0-.844.64-1.437.657-.594 1.672-.594.688 0 1.297.312.61.297 1.031.86"/><path fill="#e889ab" fill-rule="evenodd" d="M323.853 418.462a6.98 6.98 0 0 1 6.982-6.982h218.824a6.98 6.98 0 0 1 6.981 6.982v27.926a6.98 6.98 0 0 1-6.981 6.982H330.835a6.98 6.98 0 0 1-6.982-6.982z"/><path stroke="#000" stroke-linecap="butt" stroke-linejoin="round" d="M323.853 418.462a6.98 6.98 0 0 1 6.982-6.982h218.824a6.98 6.98 0 0 1 6.981 6.982v27.926a6.98 6.98 0 0 1-6.981 6.982H330.835a6.98 6.98 0 0 1-6.982-6.982z"/><path fill="#fff" d="M418.01 427.647h1.843l3.688 9.578h-1.906l-.75-1.969h-3.891l-.781 1.97h-1.907zm.937 2.547-1.281 3.281h2.547zm14.844-.984-1.281 1.28q-1.22-1.296-2.844-1.296-1.406 0-2.36.937-.953.938-.953 2.282 0 1.39.985 2.36.984.952 2.437.952.938 0 1.578-.39.657-.407 1.063-1.25h-2.781v-1.72h4.812l.016.407q0 1.25-.657 2.39-.64 1.126-1.671 1.72-1.032.578-2.438.578-1.484 0-2.656-.641-1.156-.64-1.844-1.844-.687-1.203-.687-2.578 0-1.906 1.265-3.312 1.485-1.672 3.875-1.672 1.25 0 2.344.453.906.39 1.797 1.344m3.725-1.985h2.25q-1.157 1.313-1.735 2.844-.562 1.531-.562 3.5 0 2.125.64 3.734.485 1.25 1.657 2.688h-2.25q-1.032-1.64-1.454-3.078-.406-1.453-.406-3.407 0-1.906.438-3.343.437-1.438 1.422-2.938m3.703.422h1.844v3.297l2.594-3.297h2.187l-3.343 4.281 3.671 5.297h-2.156l-2.953-4.25v4.25h-1.844zm8.906 7.781 1.266.625-1.61 2.75-.875-.422zm2.338-7.78h1.875l2.407 6.812 2.453-6.813h1.875l-3.453 9.578h-1.766Zm11.567 12.343h-2.25q1.156-1.297 1.719-2.828.578-1.532.578-3.5 0-2.125-.625-3.735-.5-1.234-1.672-2.703h2.25q1.047 1.656 1.453 3.11.422 1.437.422 3.39 0 1.906-.437 3.344-.438 1.437-1.438 2.922"/><path fill="#4ea5b7" fill-rule="evenodd" d="M556.64 376.572a6.98 6.98 0 0 1 6.983-6.981h87.359a6.98 6.98 0 0 1 6.982 6.981V404.5a6.98 6.98 0 0 1-6.982 6.981h-87.36a6.98 6.98 0 0 1-6.981-6.981z"/><path stroke="#000" stroke-linecap="butt" stroke-linejoin="round" d="M556.64 376.572a6.98 6.98 0 0 1 6.983-6.981h87.359a6.98 6.98 0 0 1 6.982 6.981V404.5a6.98 6.98 0 0 1-6.982 6.981h-87.36a6.98 6.98 0 0 1-6.981-6.981z"/><path fill="#fff" d="M568.054 387.292h1.281l2.578 6.703h-1.312l-.532-1.375h-2.734l-.547 1.375h-1.328zm.656 1.782-.906 2.296h1.781zm4.213-1.86h1.234v1.828h.735v1.063h-.735v3.89h-1.234v-3.89h-.64v-1.063h.64zm2.797 0h1.234v1.828h.734v1.063h-.734v3.89h-1.234v-3.89h-.641v-1.063h.64zm2.64 1.828h1.25v.5q.422-.36.766-.484.343-.14.703-.14.734 0 1.25.515.437.437.437 1.281v3.281h-1.234v-2.171q0-.891-.078-1.172-.078-.297-.281-.453t-.485-.157q-.39 0-.656.266-.266.25-.375.687-.047.235-.047 1.016v1.984h-1.25zm6.707-2.047h1.578q-.812.922-1.218 2-.391 1.063-.391 2.438 0 1.484.437 2.61.344.874 1.172 1.89h-1.578q-.734-1.156-1.031-2.156-.281-1.016-.281-2.375 0-1.344.297-2.344.312-1.016 1.015-2.063m8.325 6.016 1.156 1.516h-1.5l-.593-.766q-.735.406-1.641.406-1.5 0-2.5-1.03-1-1.048-1-2.5 0-.954.453-1.75.469-.813 1.281-1.282.828-.485 1.75-.485 1.438 0 2.453 1.032 1.016 1.03 1.016 2.515 0 1.36-.875 2.344m-.797-1.031q.406-.594.406-1.328 0-.953-.64-1.61-.64-.672-1.563-.672-.937 0-1.578.657-.625.64-.625 1.64 0 1.11.797 1.75.625.516 1.422.516.453 0 .86-.188l-1.204-1.53h1.516zm3.225-4.985q.328 0 .562.25.235.235.235.563t-.235.562q-.218.235-.546.235t-.563-.235-.234-.578q0-.328.218-.562.235-.235.563-.235m-.625 2.047h1.25v4.953h-1.25zm2.97 3.688.891.453-1.125 1.922-.61-.297zm4.783-5.438h1.281v2.313l1.813-2.313h1.547l-2.344 2.985 2.562 3.718h-1.515l-2.063-2.968v2.968h-1.281zm6.113-.297q.328 0 .562.25.235.235.235.563t-.235.562q-.219.235-.547.235t-.562-.235-.235-.578q0-.328.22-.562.234-.235.562-.235m-.625 2.047h1.25v4.953h-1.25zm3.986 1.032v-1.704h1.14v1.704h1.704v1.14h-1.703v1.703h-1.141v-1.703h-1.703v-1.14zm4.895-2.782h1.906v6.703h-1.266v-5.5h-1.375zm4.911 5.438.891.453-1.125 1.922-.61-.297zm4.251-5.438h1.313l1.687 4.766 1.704-4.766h1.312l-2.406 6.703h-1.235zm7.391-.297q.329 0 .563.25.234.235.234.563t-.234.562q-.219.235-.547.235t-.562-.235-.235-.578q0-.328.219-.562.234-.235.562-.235m-.625 2.047h1.25v4.953h-1.25zm3.987 1.032v-1.704h1.14v1.704h1.704v1.14h-1.704v1.703h-1.14v-1.703h-1.703v-1.14zm4.894-2.782h1.907v6.703h-1.266v-5.5h-1.375zm5.506 8.64h-1.578q.812-.905 1.203-1.968.406-1.078.406-2.453 0-1.5-.437-2.625-.344-.86-1.172-1.89h1.578q.734 1.156 1.016 2.171.296 1 .296 2.375 0 1.344-.312 2.344-.297 1-1 2.047"/><path fill="#4ea5b7" fill-rule="evenodd" d="M657.964 376.572a6.98 6.98 0 0 1 6.981-6.981h87.36a6.98 6.98 0 0 1 6.981 6.981V404.5a6.98 6.98 0 0 1-6.981 6.981h-87.36a6.98 6.98 0 0 1-6.981-6.981z"/><path stroke="#000" stroke-linecap="butt" stroke-linejoin="round" d="M657.964 376.572a6.98 6.98 0 0 1 6.981-6.981h87.36a6.98 6.98 0 0 1 6.981 6.981V404.5a6.98 6.98 0 0 1-6.981 6.981h-87.36a6.98 6.98 0 0 1-6.981-6.981z"/><path fill="#fff" d="M669.377 387.292h1.28l2.579 6.703h-1.312l-.532-1.375h-2.734l-.547 1.375h-1.328zm.656 1.782-.906 2.296h1.78zm4.213-1.86h1.234v1.828h.735v1.063h-.735v3.89h-1.234v-3.89h-.64v-1.063h.64zm2.796 0h1.235v1.828h.734v1.063h-.734v3.89h-1.235v-3.89h-.64v-1.063h.64zm2.64 1.828h1.25v.5q.423-.36.766-.484.344-.14.704-.14.734 0 1.25.515.437.437.437 1.281v3.281h-1.234v-2.171q0-.891-.078-1.172-.079-.297-.282-.453t-.484-.157q-.39 0-.656.266-.266.25-.375.687-.047.235-.047 1.016v1.984h-1.25zm6.708-2.047h1.578q-.812.922-1.219 2-.39 1.063-.39 2.438 0 1.484.437 2.61.344.874 1.172 1.89h-1.578q-.734-1.156-1.031-2.156-.282-1.016-.282-2.375 0-1.344.297-2.344.313-1.016 1.016-2.063m8.325 6.016 1.156 1.516h-1.5l-.594-.766q-.734.406-1.64.406-1.5 0-2.5-1.03-1-1.048-1-2.5 0-.954.453-1.75.469-.813 1.281-1.282.828-.485 1.75-.485 1.438 0 2.453 1.032 1.016 1.03 1.016 2.515 0 1.36-.875 2.344m-.797-1.031q.406-.594.406-1.328 0-.953-.64-1.61-.641-.672-1.563-.672-.937 0-1.578.657-.625.64-.625 1.64 0 1.11.797 1.75.625.516 1.422.516.453 0 .86-.188l-1.204-1.53h1.516zm3.225-4.985q.328 0 .562.25.235.235.235.563t-.235.562q-.218.235-.547.235-.328 0-.562-.235t-.234-.578q0-.328.218-.562.235-.235.563-.235m-.625 2.047h1.25v4.953h-1.25zm2.97 3.688.891.453-1.125 1.922-.61-.297zm4.783-5.438h1.281v2.313l1.813-2.313h1.546l-2.343 2.985 2.562 3.718h-1.515l-2.063-2.968v2.968h-1.281zm6.112-.297q.329 0 .563.25.234.235.234.563t-.234.562q-.219.235-.547.235t-.562-.235-.235-.578q0-.328.219-.562.234-.235.562-.235m-.625 2.047h1.25v4.953h-1.25zm3.987 1.032v-1.704h1.14v1.704h1.704v1.14h-1.704v1.703h-1.14v-1.703h-1.703v-1.14zm4.988-.625h-1.25q.063-1.079.688-1.704t1.625-.625q.61 0 1.078.266.469.25.734.734.281.485.281 1 0 .594-.343 1.282-.328.687-1.235 1.625l-.75.797h2.391v1.171h-4.64v-.609l2.062-2.11q.765-.765 1-1.218.25-.469.25-.844 0-.39-.266-.64-.25-.25-.656-.25t-.688.312q-.265.297-.28.813m4.818 3.28.89.454-1.124 1.922-.61-.297zm4.251-5.437h1.313l1.687 4.766 1.703-4.766h1.313l-2.406 6.703h-1.235zm7.391-.297q.328 0 .563.25.234.235.234.563t-.234.562q-.22.235-.547.235t-.563-.235q-.234-.234-.234-.578 0-.328.219-.562.234-.235.562-.235m-.625 2.047h1.25v4.953h-1.25zm3.987 1.032v-1.704h1.14v1.704h1.703v1.14h-1.703v1.703h-1.14v-1.703h-1.704v-1.14zm4.988-.625h-1.25q.062-1.079.687-1.704t1.625-.625q.61 0 1.079.266.468.25.734.734.281.485.281 1 0 .594-.344 1.282-.328.687-1.234 1.625l-.75.797h2.39v1.171h-4.64v-.609l2.063-2.11q.765-.765 1-1.218.25-.469.25-.844 0-.39-.266-.64-.25-.25-.656-.25t-.688.312q-.265.297-.281.813m5.412 6.484h-1.578q.812-.906 1.203-1.969.406-1.078.406-2.453 0-1.5-.437-2.625-.344-.86-1.172-1.89h1.578q.734 1.156 1.015 2.171.297 1 .297 2.375 0 1.344-.312 2.344-.297 1-1 2.047"/><path fill="#e889ab" fill-rule="evenodd" d="M820.276 385.066a3.77 3.77 0 0 1 3.769-3.769h112.399a3.77 3.77 0 0 1 3.769 3.77v15.075a3.77 3.77 0 0 1-3.77 3.77H824.046a3.77 3.77 0 0 1-3.77-3.77z"/><path stroke="#000" stroke-linecap="butt" stroke-linejoin="round" d="M820.276 385.066a3.77 3.77 0 0 1 3.769-3.769h112.399a3.77 3.77 0 0 1 3.769 3.77v15.075a3.77 3.77 0 0 1-3.77 3.77H824.046a3.77 3.77 0 0 1-3.77-3.77z"/><path fill="#fff" d="M842.003 388.688h1.485l2.937 7.656h-1.515l-.594-1.578h-3.125l-.625 1.578h-1.516zm.75 2.031-1.015 2.625h2.031zm4.493-2.218h1.422v7.843h-1.422zm2.554 0h1.422v7.843H849.8zm9.93 1.437-1.015 1.016q-.985-1.031-2.282-1.031-1.125 0-1.89.75-.75.75-.75 1.828 0 1.109.781 1.875.797.765 1.953.765.75 0 1.266-.312.531-.328.843-1h-2.218v-1.36h3.843l.016.313q0 1-.516 1.906-.515.906-1.343 1.375t-1.953.469q-1.188 0-2.125-.516-.922-.515-1.47-1.468-.546-.954-.546-2.063 0-1.531 1-2.656 1.187-1.328 3.11-1.328 1 0 1.859.359.734.313 1.437 1.078m5.919.75h1.406v5.656h-1.406v-.593q-.422.39-.844.562t-.906.172q-1.094 0-1.907-.844-.797-.86-.797-2.11 0-1.312.782-2.155.78-.844 1.875-.844.515 0 .953.203.453.188.844.578zm-1.5 1.156q-.657 0-1.094.47-.438.468-.438 1.202 0 .719.438 1.203.453.47 1.094.47.671 0 1.109-.47.453-.468.453-1.218 0-.735-.453-1.188-.438-.469-1.11-.469m4.519-3.25h1.422v2.094h.828v1.219h-.828v4.437h-1.422v-4.437h-.735v-1.219h.735zm3.023-.093h1.422v2.75q.406-.36.828-.532.422-.187.86-.187.843 0 1.42.594.485.5.485 1.484v3.734h-1.39v-2.484q0-.984-.094-1.328t-.328-.516q-.219-.172-.563-.172-.422 0-.734.282-.313.28-.422.78-.062.25-.062 1.157v2.281h-1.422zm12.066 5.422h-4.562q.094.609.515.968.438.344 1.11.344.797 0 1.36-.547l1.202.563q-.453.625-1.078.937-.625.297-1.484.297-1.328 0-2.172-.828-.828-.844-.828-2.11 0-1.296.828-2.156.844-.86 2.094-.86 1.343 0 2.172.86.843.86.843 2.266zm-1.422-1.11q-.14-.484-.562-.781-.406-.297-.953-.297-.594 0-1.047.344-.281.203-.516.734zm2.244-2.125h1.219v.703q.187-.422.515-.64.328-.22.719-.22.281 0 .578.157l-.437 1.219q-.25-.125-.407-.125-.328 0-.562.406-.219.406-.219 1.594v2.562h-1.406zm9.202-2h1.484l2.938 7.656h-1.516l-.594-1.578h-3.125l-.625 1.578h-1.515zm.75 2.031-1.016 2.625h2.032zm10.195 1.11-1.187.656q-.328-.36-.656-.484-.329-.14-.766-.14-.797 0-1.297.483-.484.47-.484 1.22 0 .718.468 1.171.485.453 1.25.453.954 0 1.485-.64l1.125.765q-.922 1.172-2.578 1.172-1.485 0-2.344-.875-.844-.89-.844-2.078 0-.813.406-1.5.422-.703 1.157-1.094.734-.406 1.64-.406.844 0 1.516.344.672.328 1.11.953m1.447-3.235h1.422v2.094h.828v1.219h-.828v4.437h-1.422v-4.437h-.735v-1.219h.735zm3.585-.25q.375 0 .64.282.266.265.266.656 0 .375-.265.64-.266.266-.64.266-.376 0-.641-.265-.266-.282-.266-.672 0-.375.266-.64.265-.267.64-.267m-.719 2.344h1.422v5.656h-1.422zm2.102 0h1.453l1.422 3.328 1.422-3.328h1.453l-2.422 5.656h-.906zm10.046.781-.89.891q-.532-.531-.97-.531-.233 0-.374.11-.125.093-.125.234 0 .125.078.218.094.094.422.266l.516.25q.828.406 1.125.828.312.422.312.984 0 .766-.562 1.266-.547.5-1.47.5-1.234 0-1.984-.969l.875-.953q.25.297.579.485.343.171.609.171.281 0 .453-.125.172-.14.172-.328 0-.328-.625-.64l-.469-.235q-1.375-.687-1.375-1.734 0-.672.516-1.14.515-.485 1.328-.485.547 0 1.031.25.485.234.828.687"/></g></svg>