<svg xmlns="http://www.w3.org/2000/svg" width="800.933" height="146.361" fill="none" stroke-linecap="square" stroke-miterlimit="10"><clipPath id="a"><path d="M0 0h960v540H0Z"/></clipPath><g clip-path="url(#a)" transform="translate(-127.783 -39.367)"><path d="M425.206 39.367h166.11v42.016h-166.11Z"/><path fill="#000" d="M473.206 52.881h2.593l5.157 13.406h-2.657l-1.046-2.765h-5.47l-1.093 2.765h-2.64zm1.312 3.563-1.781 4.593h3.562zm8.442-3.719h2.469v3.656h1.484v2.14h-1.485v7.766h-2.468v-7.765h-1.281v-2.14h1.28zm5.593 0h2.469v3.656h1.484v2.14h-1.484v7.766h-2.469v-7.765h-1.281v-2.14h1.281zm15.218 9.328h-7.984q.172 1.063.922 1.688.75.609 1.922.609 1.39 0 2.39-.969l2.094.985q-.781 1.109-1.875 1.64t-2.594.531q-2.344 0-3.812-1.468-1.453-1.469-1.453-3.688 0-2.265 1.453-3.765 1.468-1.5 3.672-1.5 2.343 0 3.812 1.5t1.469 3.968zm-2.5-1.953q-.25-.828-.969-1.344-.718-.531-1.671-.531-1.047 0-1.829.578-.5.375-.906 1.297zm4.505-3.719h2.485v1q.843-.703 1.53-.984t1.407-.281q1.485 0 2.516 1.03.86.876.86 2.595v6.546h-2.454v-4.343q0-1.782-.172-2.36-.156-.578-.547-.875-.39-.312-.984-.312-.75 0-1.297.5t-.75 1.39q-.11.47-.11 2.016v3.984h-2.484zm11.508-3.656h2.47v3.656h1.483v2.14h-1.484v7.766h-2.469v-7.765h-1.28v-2.14h1.28zm6.265-.438q.657 0 1.125.485.47.469.47 1.14 0 .672-.47 1.141-.468.469-1.109.469-.672 0-1.14-.469-.47-.484-.47-1.172 0-.656.47-1.125.468-.469 1.124-.469m-1.25 4.094h2.5v9.906h-2.5zm9.395-.265q1.406 0 2.64.703t1.923 1.906q.703 1.203.703 2.594 0 1.406-.703 2.625-.688 1.218-1.891 1.906t-2.656.687q-2.125 0-3.64-1.515-1.5-1.516-1.5-3.688 0-2.312 1.702-3.859 1.485-1.36 3.422-1.36m.047 2.343q-1.156 0-1.938.813-.765.797-.765 2.062 0 1.297.75 2.094.765.797 1.937.797t1.938-.813q.781-.812.781-2.078 0-1.28-.766-2.078-.765-.797-1.937-.797m7.24-2.078h2.484v1q.843-.703 1.531-.984t1.406-.281q1.485 0 2.516 1.03.86.876.86 2.595v6.546h-2.454v-4.343q0-1.782-.172-2.36-.156-.578-.547-.875-.39-.312-.984-.312-.75 0-1.297.5t-.75 1.39q-.11.47-.11 2.016v3.984h-2.484z"/><path d="M127.783 112.42h166.11v19.402h-166.11Z"/><path fill="#000" d="m148.705 118.155-1.53 1.531q-1.47-1.547-3.407-1.547-1.703 0-2.844 1.125t-1.14 2.735q0 1.656 1.187 2.812t2.922 1.156q1.14 0 1.906-.468.781-.485 1.266-1.5h-3.328v-2.047h5.78l.016.484q0 1.5-.78 2.86-.782 1.343-2.032 2.062-1.234.719-2.906.719-1.797 0-3.203-.781-1.391-.782-2.22-2.22-.812-1.437-.812-3.109 0-2.28 1.516-3.968 1.781-2 4.656-2 1.5 0 2.797.547 1.11.468 2.156 1.609m2.828-1.875h2.313q1.89 0 2.719.36.828.343 1.312 1.124.485.766.485 1.86 0 1.203-.641 2-.625.797-1.703 1.11-.625.17-2.297.17v4.876h-2.188zm2.188 4.5h.687q.829 0 1.141-.11.328-.124.5-.39.188-.281.188-.656 0-.672-.516-.97-.375-.233-1.39-.233h-.61zm6.695-4.5h2.203v7.437q0 .97.157 1.375.172.391.562.625.39.235.938.235.578 0 .984-.266.422-.265.578-.672.172-.406.172-1.562v-7.172h2.188v6.86q0 1.734-.204 2.406-.187.671-.734 1.296t-1.266.938q-.718.297-1.671.297-1.25 0-2.188-.578-.922-.578-1.328-1.438-.39-.875-.39-2.922zm25.36 2.031-1.532 1.453q-1.562-1.64-3.515-1.64-1.64 0-2.781 1.125-1.125 1.125-1.125 2.765 0 1.157.5 2.047t1.406 1.406q.922.5 2.047.5.953 0 1.734-.359.797-.36 1.734-1.297l1.485 1.547q-1.266 1.25-2.406 1.734-1.125.485-2.579.485-2.687 0-4.39-1.703t-1.703-4.36q0-1.718.765-3.047.782-1.343 2.235-2.156 1.453-.812 3.125-.812 1.422 0 2.734.61 1.313.593 2.266 1.702m5.68.75q1.202 0 2.25.61 1.062.593 1.656 1.625.593 1.03.593 2.218 0 1.203-.593 2.25-.594 1.047-1.625 1.64-1.032.595-2.282.595-1.828 0-3.125-1.297-1.28-1.313-1.28-3.172 0-1.984 1.452-3.313 1.281-1.156 2.953-1.156m.03 2q-1 0-1.656.703-.656.688-.656 1.766 0 1.11.64 1.797.657.687 1.657.687t1.656-.687q.672-.703.672-1.797t-.656-1.781q-.64-.688-1.656-.688m6.196-1.781h2.14v.969q.547-.594 1.22-.89.671-.298 1.452-.298.797 0 1.438.39.64.391 1.031 1.141.516-.75 1.25-1.14t1.61-.39q.906 0 1.593.421.688.422.985 1.11.312.671.312 2.203v4.984h-2.156v-4.313q0-1.453-.36-1.953-.359-.515-1.078-.515-.547 0-.984.312-.422.313-.64.86-.204.546-.204 1.765v3.844h-2.156v-4.125q0-1.14-.172-1.64-.156-.516-.5-.766-.328-.25-.812-.25-.532 0-.97.312-.421.313-.64.89-.219.563-.219 1.798v3.78h-2.14zm17.18 0v.937q.578-.578 1.25-.859.671-.297 1.437-.297 1.656 0 2.813 1.266 1.171 1.25 1.171 3.219 0 1.89-1.203 3.171-1.203 1.282-2.843 1.282-.735 0-1.375-.266-.625-.266-1.25-.86v4.016h-2.125v-11.61zm2.234 1.75q-1 0-1.672.687-.656.688-.656 1.797 0 1.125.656 1.828.672.704 1.672.704.984 0 1.64-.704.672-.718.672-1.828 0-1.093-.656-1.78-.656-.704-1.656-.704m6.203-1.75h2.156v4.094q0 1.187.157 1.656.171.469.53.734.36.25.891.25.532 0 .907-.25.375-.265.547-.75.14-.375.14-1.578v-4.156h2.14v3.594q0 2.234-.359 3.047-.421 1-1.265 1.546-.828.532-2.125.532-1.39 0-2.266-.625-.86-.625-1.203-1.75-.25-.766-.25-2.813zm9.867-3.14h2.125v3.14h1.266v1.828h-1.266v6.672h-2.125v-6.672h-1.094v-1.828h1.094zm10.813 3.14h2.125v8.5h-2.125v-.906q-.625.593-1.25.86-.625.265-1.36.265-1.656 0-2.859-1.282-1.203-1.28-1.203-3.171 0-1.97 1.156-3.22 1.172-1.265 2.844-1.265.765 0 1.437.297.672.281 1.235.86zm-2.235 1.75q-1 0-1.656.703-.656.688-.656 1.781 0 1.11.672 1.828.672.704 1.64.704 1.016 0 1.672-.704.672-.703.672-1.828 0-1.11-.672-1.797-.656-.687-1.672-.687m6.782-4.89h2.125v3.14h1.265v1.828h-1.265v6.672h-2.125v-6.672h-1.094v-1.828h1.094zm5.375-.36q.562 0 .953.406.406.406.406.985 0 .562-.406.968-.39.407-.938.407-.578 0-.984-.407-.39-.422-.39-1 0-.562.39-.953.406-.406.969-.406m-1.079 3.5h2.141v8.5h-2.14zm8.07-.219q1.204 0 2.25.61 1.063.593 1.657 1.625.594 1.03.594 2.218 0 1.203-.594 2.25t-1.625 1.64q-1.031.595-2.281.595-1.828 0-3.125-1.297-1.281-1.313-1.281-3.172 0-1.984 1.453-3.313 1.28-1.156 2.953-1.156m.032 2q-1 0-1.656.703-.656.688-.656 1.766 0 1.11.64 1.797.656.687 1.656.687t1.657-.687q.672-.703.672-1.797t-.657-1.781q-.64-.688-1.656-.688m6.21-1.781h2.126v.86q.734-.61 1.312-.844.594-.235 1.22-.235 1.265 0 2.14.875.75.75.75 2.219v5.625h-2.11v-3.734q0-1.516-.14-2.016t-.485-.766q-.328-.265-.828-.265-.656 0-1.125.437-.453.438-.64 1.203-.094.39-.094 1.72v3.42h-2.125zm10.774-.219q.5 0 .86.36.36.359.36.859t-.36.86q-.36.359-.86.359-.515 0-.875-.344-.359-.36-.359-.875 0-.5.36-.86.359-.359.874-.359m0 6.485q.5 0 .86.359.36.36.36.86 0 .515-.36.874-.36.36-.86.36-.515 0-.875-.36-.359-.36-.359-.875 0-.5.36-.86.359-.358.874-.358"/><path d="M127.783 154.31h186.961v19.401h-186.96Z"/><path fill="#000" d="m148.705 160.045-1.53 1.531q-1.47-1.547-3.407-1.547-1.703 0-2.844 1.125t-1.14 2.734q0 1.657 1.187 2.813t2.922 1.156q1.14 0 1.906-.469.781-.484 1.266-1.5h-3.328v-2.046h5.78l.016.484q0 1.5-.78 2.86-.782 1.343-2.032 2.062-1.234.719-2.906.719-1.797 0-3.203-.782-1.391-.78-2.22-2.218-.812-1.438-.812-3.11 0-2.281 1.516-3.969 1.781-2 4.656-2 1.5 0 2.797.547 1.11.47 2.156 1.61m2.828-1.875h2.313q1.89 0 2.719.36.828.343 1.312 1.124.485.766.485 1.86 0 1.203-.641 2-.625.796-1.703 1.109-.625.172-2.297.172v4.875h-2.188zm2.188 4.5h.687q.829 0 1.141-.11.328-.125.5-.39.188-.282.188-.657 0-.671-.516-.968-.375-.235-1.39-.235h-.61zm6.695-4.5h2.203v7.437q0 .969.157 1.375.172.39.562.625t.938.235q.578 0 .984-.266.422-.266.578-.672.172-.406.172-1.562v-7.172h2.188v6.86q0 1.733-.204 2.405-.187.672-.734 1.297t-1.266.938q-.718.297-1.671.297-1.25 0-2.188-.579-.922-.578-1.328-1.437-.39-.875-.39-2.922zm25.36 2.031-1.532 1.453q-1.562-1.64-3.515-1.64-1.64 0-2.781 1.124-1.125 1.125-1.125 2.766 0 1.156.5 2.047.5.89 1.406 1.406.922.5 2.047.5.953 0 1.734-.36.797-.359 1.734-1.296l1.485 1.547q-1.266 1.25-2.406 1.734-1.125.485-2.579.485-2.687 0-4.39-1.704t-1.703-4.359q0-1.719.765-3.047.782-1.344 2.235-2.156t3.125-.813q1.422 0 2.734.61 1.313.594 2.266 1.703m5.68.75q1.202 0 2.25.61 1.062.593 1.656 1.624t.593 2.22q0 1.202-.593 2.25-.594 1.046-1.625 1.64t-2.282.593q-1.828 0-3.125-1.296-1.28-1.313-1.28-3.172 0-1.985 1.452-3.313 1.281-1.156 2.953-1.156m.03 2q-1 0-1.656.703-.656.688-.656 1.766 0 1.11.64 1.797.657.687 1.657.687t1.656-.687q.672-.704.672-1.797 0-1.094-.656-1.782-.64-.687-1.656-.687m6.196-1.781h2.14v.968q.547-.593 1.22-.89.671-.297 1.452-.297.797 0 1.438.39.64.391 1.031 1.141.516-.75 1.25-1.14.734-.391 1.61-.391.906 0 1.593.422.688.422.985 1.11.312.671.312 2.202v4.985h-2.156v-4.313q0-1.453-.36-1.953-.359-.516-1.078-.516-.547 0-.984.313-.422.312-.64.86-.204.546-.204 1.765v3.844h-2.156v-4.125q0-1.14-.172-1.64-.156-.517-.5-.767-.328-.25-.812-.25-.532 0-.97.313-.421.312-.64.89-.219.563-.219 1.797v3.782h-2.14zm15.039 0h2.14v.968q.547-.593 1.22-.89.671-.297 1.452-.297.797 0 1.438.39.64.391 1.031 1.141.516-.75 1.25-1.14.735-.391 1.61-.391.906 0 1.593.422.688.422.985 1.11.312.671.312 2.202v4.985h-2.156v-4.313q0-1.453-.36-1.953-.359-.516-1.078-.516-.546 0-.984.313-.422.312-.64.86-.204.546-.204 1.765v3.844h-2.156v-4.125q0-1.14-.172-1.64-.156-.517-.5-.767-.328-.25-.812-.25-.532 0-.97.313-.421.312-.64.89-.218.563-.218 1.797v3.782h-2.141zm15.055 0h2.156v4.093q0 1.188.156 1.657.172.468.531.734.36.25.891.25t.906-.25q.375-.266.547-.75.14-.375.14-1.578v-4.156h2.141v3.593q0 2.235-.359 3.047-.422 1-1.266 1.547-.828.531-2.125.531-1.39 0-2.265-.625-.86-.625-1.203-1.75-.25-.765-.25-2.812zm9.601 0h2.125v.86q.735-.61 1.313-.845.593-.234 1.218-.234 1.266 0 2.141.875.75.75.75 2.219v5.625h-2.11v-3.735q0-1.515-.14-2.015t-.484-.766q-.328-.266-.828-.266-.657 0-1.125.438-.454.437-.641 1.203-.094.39-.094 1.719v3.422h-2.125zm10.445-3.5q.563 0 .954.406.406.406.406.984 0 .563-.406.97-.391.405-.938.405-.578 0-.984-.406-.39-.422-.39-1 0-.562.39-.953.406-.406.968-.406m-1.078 3.5h2.141v8.5h-2.14zm12.399 1.718-1.781.97q-.5-.516-.985-.72-.484-.203-1.14-.203-1.204 0-1.938.72-.734.702-.734 1.827 0 1.078.703 1.766.719.687 1.875.687 1.422 0 2.219-.968l1.687 1.14q-1.375 1.781-3.86 1.781-2.25 0-3.515-1.328t-1.266-3.109q0-1.234.61-2.266.625-1.047 1.719-1.64 1.109-.594 2.484-.594 1.266 0 2.266.5 1.015.5 1.656 1.437m8.195-1.718h2.125v8.5h-2.125v-.907q-.625.594-1.25.86-.625.265-1.36.265-1.656 0-2.859-1.28-1.203-1.282-1.203-3.173 0-1.968 1.156-3.218 1.172-1.266 2.844-1.266.766 0 1.438.297.672.281 1.234.86zm-2.234 1.75q-1 0-1.657.703-.656.687-.656 1.781 0 1.11.672 1.828.672.703 1.64.703 1.016 0 1.673-.703.671-.703.671-1.828 0-1.11-.671-1.797-.657-.687-1.672-.687m6.781-4.89h2.125v3.14h1.266v1.828h-1.266v6.672h-2.125v-6.672h-1.094v-1.828h1.094zm5.375-.36q.562 0 .953.406.406.406.406.984 0 .563-.406.97-.39.405-.937.405-.579 0-.985-.406-.39-.422-.39-1 0-.562.39-.953.406-.406.969-.406m-1.078 3.5h2.14v8.5h-2.14zm8.07-.219q1.203 0 2.25.61 1.063.593 1.656 1.624.594 1.032.594 2.22 0 1.202-.594 2.25-.593 1.046-1.625 1.64-1.03.593-2.28.593-1.829 0-3.126-1.296-1.281-1.313-1.281-3.172 0-1.985 1.453-3.313 1.281-1.156 2.953-1.156m.031 2q-1 0-1.656.703-.656.688-.656 1.766 0 1.11.64 1.797.657.687 1.657.687t1.656-.687q.672-.704.672-1.797 0-1.094-.656-1.782-.641-.687-1.657-.687m6.211-1.781h2.125v.86q.735-.61 1.313-.845.594-.234 1.219-.234 1.265 0 2.14.875.75.75.75 2.219v5.625h-2.11v-3.735q0-1.515-.14-2.015t-.484-.766q-.328-.266-.828-.266-.657 0-1.125.438-.453.437-.64 1.203-.095.39-.095 1.719v3.422h-2.125zm10.774-.219q.5 0 .86.36.359.359.359.859t-.36.86-.86.358q-.515 0-.874-.343-.36-.36-.36-.875 0-.5.36-.86.36-.359.875-.359m0 6.484q.5 0 .86.36.359.36.359.86 0 .515-.36.874-.36.36-.86.36-.515 0-.874-.36-.36-.36-.36-.875 0-.5.36-.86.36-.359.875-.359"/><path fill="#4ea5b7" fill-rule="evenodd" d="M311.903 108.158a6.98 6.98 0 0 1 6.982-6.982h121.28a6.98 6.98 0 0 1 6.982 6.982v27.926a6.98 6.98 0 0 1-6.982 6.982h-121.28a6.98 6.98 0 0 1-6.982-6.982z"/><path stroke="#000" stroke-linecap="butt" stroke-linejoin="round" d="M311.903 108.158a6.98 6.98 0 0 1 6.982-6.982h121.28a6.98 6.98 0 0 1 6.982 6.982v27.926a6.98 6.98 0 0 1-6.982 6.982h-121.28a6.98 6.98 0 0 1-6.982-6.982z"/><path fill="#fff" d="M338.906 117.343h1.844l3.687 9.578h-1.906l-.75-1.969h-3.89l-.782 1.969h-1.906zm.938 2.546-1.282 3.282h2.547zm6.015-2.656h1.782v2.61h1.047v1.53h-1.047v5.548h-1.782v-5.547h-.906v-1.531h.906zm3.996 0h1.781v2.61h1.047v1.53h-1.047v5.548h-1.78v-5.547h-.907v-1.531h.906zm3.777 2.61h1.782v.718q.609-.5 1.093-.703.485-.203 1-.203 1.063 0 1.797.734.61.625.61 1.86v4.672h-1.75v-3.11q0-1.265-.125-1.672-.11-.421-.391-.64t-.703-.219q-.531 0-.922.36-.39.359-.531 1-.078.328-.078 1.437v2.844h-1.782zm9.577-2.922h2.25q-1.157 1.312-1.735 2.843-.562 1.532-.562 3.5 0 2.125.64 3.735.485 1.25 1.657 2.687h-2.25q-1.032-1.64-1.454-3.078-.406-1.453-.406-3.406 0-1.906.438-3.344.437-1.437 1.422-2.937m11.907 8.593 1.656 2.157h-2.156l-.844-1.078q-1.047.562-2.344.562-2.156 0-3.578-1.484-1.422-1.485-1.422-3.547 0-1.36.656-2.5.672-1.156 1.828-1.828 1.172-.688 2.5-.688 2.032 0 3.485 1.469 1.469 1.469 1.469 3.594 0 1.937-1.25 3.343m-1.141-1.468q.578-.86.578-1.89 0-1.36-.922-2.313t-2.219-.954q-1.343 0-2.25.922-.906.922-.906 2.36 0 1.578 1.14 2.5.891.734 2.032.734.656 0 1.219-.266l-1.703-2.203h2.172zm4.615-7.125q.469 0 .797.343.344.344.344.813 0 .484-.344.828-.328.328-.781.328-.484 0-.813-.344t-.328-.828q0-.468.328-.797.329-.343.797-.343m-.89 2.922h1.78v7.078h-1.78zm4.242 5.28 1.266.626-1.61 2.75-.875-.422zm6.817-7.78h1.844v3.296l2.594-3.296h2.187l-3.343 4.28 3.671 5.298h-2.156l-2.953-4.25v4.25h-1.844zm8.75-.422q.468 0 .797.343.343.344.343.813 0 .484-.343.828-.329.328-.782.328-.484 0-.812-.344t-.328-.828q0-.468.328-.797.328-.343.797-.343m-.89 2.922h1.78v7.078h-1.78zm4.241 5.28 1.266.626-1.61 2.75-.874-.422zm6.068-7.78h1.875l2.406 6.812 2.453-6.812h1.875l-3.453 9.578h-1.766zm10.566-.422q.47 0 .797.343.344.344.344.813 0 .484-.344.828-.328.328-.781.328-.484 0-.812-.344t-.329-.828q0-.468.329-.797.328-.343.796-.343m-.89 2.922h1.781v7.078h-1.781zm5.086 9.843h-2.25q1.156-1.297 1.719-2.828.578-1.531.578-3.5 0-2.125-.625-3.734-.5-1.235-1.672-2.703h2.25q1.047 1.656 1.453 3.11.422 1.437.422 3.39 0 1.906-.438 3.343-.437 1.438-1.437 2.922"/><path fill="#b6d7a8" fill-rule="evenodd" d="M808.28 118.538a3.77 3.77 0 0 1 3.769-3.769h112.398a3.77 3.77 0 0 1 3.77 3.77v15.075a3.77 3.77 0 0 1-3.77 3.77H812.05a3.77 3.77 0 0 1-3.77-3.77z"/><path stroke="#000" stroke-linecap="butt" stroke-linejoin="round" d="M808.28 118.538a3.77 3.77 0 0 1 3.769-3.769h112.398a3.77 3.77 0 0 1 3.77 3.77v15.075a3.77 3.77 0 0 1-3.77 3.77H812.05a3.77 3.77 0 0 1-3.77-3.77z"/><path fill="#fff" d="M843.125 122.16h1.547q1.25 0 1.797.234.562.235.875.75.328.516.328 1.235 0 .812-.422 1.343-.422.532-1.14.735-.423.125-1.532.125v3.234h-1.453Zm1.453 3h.453q.547 0 .766-.078t.328-.25q.125-.188.125-.453 0-.438-.344-.641-.25-.156-.922-.156h-.406zm5.5-.531h-1.422q.062-1.235.78-1.938.72-.719 1.845-.719.703 0 1.234.297.531.281.844.844.328.547.328 1.125 0 .687-.39 1.469-.391.781-1.423 1.86l-.859.905h2.734v1.344h-5.296v-.703l2.359-2.406q.86-.875 1.14-1.39.282-.532.282-.97t-.297-.718q-.281-.297-.75-.297t-.781.36q-.313.343-.328.937m4.983-2.47h1.547q1.25 0 1.797.235.563.235.875.75.328.516.328 1.235 0 .812-.422 1.343-.422.532-1.14.735-.422.125-1.532.125v3.234h-1.453zm1.453 3h.454q.546 0 .765-.077.219-.078.328-.25.125-.188.125-.453 0-.438-.343-.641-.25-.156-.922-.156h-.407zm9.825-3h1.484l2.938 7.657h-1.516l-.594-1.578h-3.125l-.625 1.578h-1.515zm.75 2.032-1.016 2.625h2.032zm10.195 1.11-1.187.656q-.328-.36-.656-.485-.329-.14-.766-.14-.797 0-1.297.484-.484.469-.484 1.219 0 .719.468 1.172.485.453 1.25.453.954 0 1.485-.64l1.125.765q-.922 1.172-2.578 1.172-1.485 0-2.344-.875-.844-.89-.844-2.078 0-.813.406-1.5.422-.704 1.157-1.094.734-.406 1.64-.406.844 0 1.516.343.672.329 1.11.953m1.447-3.235h1.422v2.094h.828v1.219h-.828v4.437h-1.422v-4.437h-.735v-1.22h.735zm3.585-.25q.375 0 .64.281.267.266.267.657 0 .375-.266.64-.266.266-.64.266-.376 0-.641-.266-.266-.281-.266-.672 0-.375.266-.64.265-.266.64-.266m-.718 2.344h1.421v5.656h-1.421zm2.101 0h1.453l1.422 3.328 1.422-3.328h1.453l-2.422 5.656h-.906zm10.046.781-.89.89q-.531-.53-.969-.53-.234 0-.375.109-.125.094-.125.234 0 .125.078.219.094.094.422.266l.516.25q.828.406 1.125.828.312.422.312.984 0 .766-.562 1.266-.547.5-1.47.5-1.233 0-1.983-.969l.875-.953q.25.297.578.484.343.172.609.172.281 0 .453-.125.172-.14.172-.328 0-.328-.625-.64l-.469-.235q-1.375-.687-1.375-1.734 0-.672.516-1.141.516-.484 1.328-.484.547 0 1.031.25.485.234.828.687"/><path fill="#4ea5b7" fill-rule="evenodd" d="M808.28 146.31a3.77 3.77 0 0 1 3.769-3.77h112.398a3.77 3.77 0 0 1 3.77 3.77v15.076a3.77 3.77 0 0 1-3.77 3.769H812.05a3.77 3.77 0 0 1-3.77-3.77z"/><path stroke="#000" stroke-linecap="butt" stroke-linejoin="round" d="M808.28 146.31a3.77 3.77 0 0 1 3.769-3.77h112.398a3.77 3.77 0 0 1 3.77 3.77v15.076a3.77 3.77 0 0 1-3.77 3.769H812.05a3.77 3.77 0 0 1-3.77-3.77z"/><path fill="#fff" d="M826.99 149.07h4.75v1.78h-2.953v1.735h2.953v1.75h-2.953v4.313h-1.797zm9.491 2.312q1 0 1.875.5.891.5 1.391 1.36.5.859.5 1.859t-.5 1.875-1.36 1.375q-.859.484-1.89.484-1.531 0-2.61-1.078-1.077-1.094-1.077-2.64 0-1.657 1.218-2.766 1.078-.969 2.453-.969m.032 1.672q-.828 0-1.375.578t-.547 1.469q0 .937.531 1.516.547.562 1.39.562.829 0 1.376-.578.562-.578.562-1.5 0-.906-.547-1.469-.547-.578-1.39-.578m4.766-1.484h1.516v.89q.25-.531.656-.797.422-.28.906-.28.344 0 .719.187l-.547 1.53q-.313-.155-.516-.155-.406 0-.703.515-.281.5-.281 1.985l.015.343v2.86h-1.765zm3.888 0h1.734l1.437 4.03 1.532-4.03h1.062l1.5 3.984 1.422-3.984h1.75l-2.578 7.078H851.9l-1.516-4.031-1.547 4.03h-1.125zm16.675 0h1.781v7.078h-1.78v-.75q-.517.5-1.048.719-.515.218-1.125.218-1.375 0-2.375-1.062-1-1.078-1-2.656 0-1.641.969-2.688t2.344-1.047q.64 0 1.203.25.562.235 1.031.719zm-1.86 1.453q-.827 0-1.374.594-.547.578-.547 1.484 0 .922.547 1.516.562.593 1.375.593.843 0 1.39-.578.563-.594.563-1.531 0-.938-.563-1.5-.547-.578-1.39-.578M865 151.57h1.516v.89q.25-.531.656-.797.422-.28.906-.28.344 0 .719.187l-.547 1.53q-.312-.155-.516-.155-.406 0-.703.515-.28.5-.28 1.985l.015.343v2.86H865zm9.903-2.735h1.782v9.813h-1.782v-.75q-.515.5-1.046.719-.516.218-1.125.218-1.375 0-2.375-1.062-1-1.078-1-2.656 0-1.641.968-2.688.969-1.047 2.344-1.047.64 0 1.203.25.563.235 1.031.719zm-1.859 4.188q-.828 0-1.375.594-.547.578-.547 1.484 0 .922.547 1.516.563.593 1.375.593.844 0 1.39-.578.563-.594.563-1.531 0-.938-.562-1.5-.547-.578-1.391-.578m10.918-1.453v.78q.485-.483 1.047-.718.563-.25 1.203-.25 1.375 0 2.344 1.047t.969 2.688q0 1.578-1 2.656-1 1.062-2.375 1.062-.61 0-1.14-.218-.516-.22-1.048-.72v3.345h-1.765v-9.672zm1.875 1.453q-.843 0-1.406.578-.547.562-.547 1.5t.547 1.531q.563.578 1.406.578.813 0 1.36-.593.562-.594.562-1.516 0-.906-.547-1.484-.547-.594-1.375-.594m10.393-1.453h1.781v7.078h-1.781v-.75q-.516.5-1.047.719-.516.218-1.125.218-1.375 0-2.375-1.062-1-1.078-1-2.656 0-1.641.969-2.688.968-1.047 2.343-1.047.641 0 1.203.25.563.235 1.032.719zm-1.86 1.453q-.828 0-1.375.594-.547.578-.547 1.484 0 .922.547 1.516.563.593 1.375.593.844 0 1.391-.578.562-.594.562-1.531 0-.938-.562-1.5-.547-.578-1.39-.578m9.768-.469-1.11 1.11q-.656-.672-1.203-.672-.312 0-.484.125-.156.125-.156.312 0 .156.109.281.11.11.531.313l.64.328q1.032.516 1.407 1.047.39.515.39 1.219 0 .953-.702 1.593-.688.625-1.844.625-1.547 0-2.469-1.218l1.094-1.188q.312.36.719.594.421.219.75.219.359 0 .562-.172.219-.172.219-.391 0-.406-.766-.797l-.61-.297q-1.718-.875-1.718-2.172 0-.843.64-1.437.657-.594 1.673-.594.687 0 1.296.313.61.297 1.032.859m5.863 0-1.11 1.11q-.655-.672-1.202-.672-.313 0-.485.125-.156.125-.156.312 0 .156.11.281.109.11.53.313l.641.328q1.032.516 1.407 1.047.39.515.39 1.219 0 .953-.703 1.593-.687.625-1.844.625-1.546 0-2.468-1.218l1.093-1.188q.313.36.72.594.421.219.75.219.359 0 .562-.172.218-.172.218-.391 0-.406-.765-.797l-.61-.297q-1.718-.875-1.718-2.172 0-.843.64-1.437.657-.594 1.672-.594.688 0 1.297.313.61.297 1.031.859"/><path fill="#b6d7a8" fill-rule="evenodd" d="M311.856 150.047a6.98 6.98 0 0 1 6.981-6.981h138.131a6.98 6.98 0 0 1 6.982 6.981v27.927a6.98 6.98 0 0 1-6.982 6.981h-138.13a6.98 6.98 0 0 1-6.982-6.981z"/><path stroke="#000" stroke-linecap="butt" stroke-linejoin="round" d="M311.856 150.047a6.98 6.98 0 0 1 6.981-6.981h138.131a6.98 6.98 0 0 1 6.982 6.981v27.927a6.98 6.98 0 0 1-6.982 6.981h-138.13a6.98 6.98 0 0 1-6.982-6.981z"/><path fill="#fff" d="M334.918 159.232h4.75v1.782h-2.953v1.734h2.953v1.75h-2.953v4.313h-1.797zm13.257 6.547h-5.703q.125.766.656 1.219.547.438 1.375.438 1 0 1.719-.704l1.484.704q-.547.796-1.328 1.187-.781.375-1.86.375-1.671 0-2.718-1.047-1.047-1.062-1.047-2.64 0-1.625 1.047-2.688 1.047-1.078 2.625-1.078 1.672 0 2.719 1.078 1.046 1.063 1.046 2.828zm-1.781-1.39q-.172-.594-.688-.97-.516-.374-1.203-.374-.734 0-1.297.422-.36.265-.656.922zm3.438-5.266h1.78v2.61h1.048v1.53h-1.047v5.548h-1.781v-5.547h-.907v-1.532h.907zm10.714 4.031-1.469.828q-.421-.437-.828-.609t-.953-.172q-1 0-1.625.594-.61.594-.61 1.531 0 .906.595 1.485.593.562 1.562.562 1.188 0 1.86-.812l1.39.953q-1.14 1.484-3.219 1.484-1.86 0-2.922-1.11-1.062-1.109-1.062-2.593 0-1.031.516-1.89.515-.876 1.437-1.36.922-.5 2.063-.5 1.046 0 1.89.422t1.375 1.187m1.61-4.156h1.766v3.453q.515-.453 1.047-.672.53-.234 1.062-.234 1.063 0 1.781.734.61.625.61 1.86v4.671h-1.75v-3.109q0-1.219-.125-1.656-.11-.438-.39-.656-.282-.22-.704-.22-.531 0-.922.36-.39.36-.531.985-.078.312-.078 1.453v2.844h-1.766zm11.93.234h1.844v3.297l2.594-3.297h2.187l-3.343 4.282 3.672 5.296h-2.157l-2.953-4.25v4.25h-1.844zm8.75-.421q.469 0 .797.343.344.344.344.813 0 .484-.344.828-.328.328-.781.328-.485 0-.813-.344t-.328-.828q0-.469.328-.797.328-.343.797-.343m-.89 2.921h1.78v7.079h-1.78zm5.679 1.485v-2.438h1.625v2.438h2.438v1.625h-2.438v2.437h-1.625v-2.437h-2.437v-1.625zm6.998-3.985h2.735v9.579h-1.813v-7.86h-1.969zm7.027 7.782 1.266.625-1.61 2.75-.875-.422zm6.068-7.782h1.875l2.406 6.813 2.453-6.813h1.875l-3.453 9.579h-1.766zm8.894 10.579h6.813v.671h-6.813zm8.336-11q.47 0 .797.343.344.344.344.813 0 .484-.344.828-.328.328-.781.328-.484 0-.813-.344t-.328-.828q0-.469.328-.797.329-.343.797-.343m-.89 2.921h1.781v7.079h-1.781zm5.68 1.485v-2.438h1.624v2.438h2.438v1.625h-2.438v2.437h-1.625v-2.437H427.3v-1.625zm6.998-3.985h2.734v9.579h-1.812v-7.86h-1.97z"/><path fill="#b6d7a8" fill-rule="evenodd" d="M463.95 150.047a6.98 6.98 0 0 1 6.982-6.981h138.13a6.98 6.98 0 0 1 6.983 6.981v27.927a6.98 6.98 0 0 1-6.982 6.981H470.932a6.98 6.98 0 0 1-6.982-6.981z"/><path stroke="#000" stroke-linecap="butt" stroke-linejoin="round" d="M463.95 150.047a6.98 6.98 0 0 1 6.982-6.981h138.13a6.98 6.98 0 0 1 6.983 6.981v27.927a6.98 6.98 0 0 1-6.982 6.981H470.932a6.98 6.98 0 0 1-6.982-6.981z"/><path fill="#fff" d="M483.68 159.232h4.75v1.782h-2.952v1.734h2.953v1.75h-2.953v4.313h-1.797zm13.257 6.547h-5.703q.125.766.656 1.219.547.438 1.375.438 1 0 1.72-.704l1.483.704q-.546.796-1.328 1.187-.78.375-1.859.375-1.672 0-2.719-1.047-1.047-1.062-1.047-2.64 0-1.625 1.047-2.688 1.047-1.078 2.625-1.078 1.672 0 2.719 1.078 1.047 1.063 1.047 2.828zm-1.781-1.39q-.172-.594-.687-.97-.516-.374-1.204-.374-.734 0-1.296.422-.36.265-.657.922zm3.438-5.266h1.781v2.61h1.047v1.53h-1.047v5.548h-1.78v-5.547h-.907v-1.532h.906zm10.715 4.031-1.47.828q-.42-.437-.827-.609t-.953-.172q-1 0-1.625.594-.61.594-.61 1.531 0 .906.594 1.485.594.562 1.563.562 1.187 0 1.859-.812l1.39.953q-1.14 1.484-3.218 1.484-1.86 0-2.922-1.11-1.063-1.109-1.063-2.593 0-1.031.516-1.89.516-.876 1.438-1.36.921-.5 2.062-.5 1.047 0 1.89.422.844.422 1.376 1.187m1.61-4.156h1.765v3.453q.516-.453 1.047-.672.531-.234 1.063-.234 1.062 0 1.78.734.61.625.61 1.86v4.671h-1.75v-3.109q0-1.219-.125-1.656-.11-.438-.39-.656-.282-.22-.703-.22-.532 0-.922.36-.391.36-.532.985-.078.312-.078 1.453v2.844h-1.765zm11.93.234h1.844v3.297l2.593-3.297h2.188l-3.344 4.282 3.672 5.296h-2.156l-2.953-4.25v4.25h-1.844zm7.077 10.579h6.813v.671h-6.813zm8.336-11q.47 0 .797.343.344.344.344.813 0 .484-.344.828-.328.328-.781.328-.484 0-.812-.344t-.329-.828q0-.469.329-.797.328-.343.796-.343m-.89 2.921h1.781v7.079h-1.781zm5.68 1.485v-2.438h1.625v2.438h2.437v1.625h-2.437v2.437h-1.625v-2.437h-2.438v-1.625zm7.138-.89h-1.78q.077-1.548.968-2.438.906-.891 2.312-.891.875 0 1.547.375.672.36 1.063 1.063.406.687.406 1.406 0 .844-.484 1.828-.485.984-1.782 2.328l-1.078 1.125h3.422v1.688h-6.64v-.875l2.968-3.016q1.078-1.094 1.422-1.75.36-.656.36-1.188 0-.562-.376-.921-.359-.36-.937-.36-.594 0-.984.438-.391.437-.407 1.187m6.887 4.687 1.265.625-1.609 2.75-.875-.422zm6.067-7.782h1.875l2.406 6.813 2.454-6.813h1.875l-3.454 9.579h-1.765zm8.895 10.579h6.812v.671h-6.812zm8.336-11q.469 0 .797.343.344.344.344.813 0 .484-.344.828-.328.328-.781.328-.485 0-.813-.344t-.328-.828q0-.469.328-.797.328-.343.797-.343m-.89 2.921h1.78v7.079h-1.78zm5.679 1.485v-2.438h1.625v2.438h2.438v1.625h-2.438v2.437h-1.625v-2.437h-2.437v-1.625zm7.139-.89h-1.781q.078-1.548.968-2.438.907-.891 2.313-.891.875 0 1.547.375.672.36 1.062 1.063.406.687.406 1.406 0 .844-.484 1.828t-1.781 2.328l-1.078 1.125h3.422v1.688h-6.641v-.875l2.969-3.016q1.078-1.094 1.422-1.75.359-.656.359-1.188 0-.562-.375-.921-.36-.36-.938-.36-.593 0-.984.438-.39.437-.406 1.187"/><path fill="#4ea5b7" fill-rule="evenodd" d="M463.951 107.885a6.98 6.98 0 0 1 6.982-6.982h121.28a6.98 6.98 0 0 1 6.982 6.982v27.926a6.98 6.98 0 0 1-6.982 6.982h-121.28a6.98 6.98 0 0 1-6.982-6.982z"/><path stroke="#000" stroke-linecap="butt" stroke-linejoin="round" d="M463.951 107.885a6.98 6.98 0 0 1 6.982-6.982h121.28a6.98 6.98 0 0 1 6.982 6.982v27.926a6.98 6.98 0 0 1-6.982 6.982h-121.28a6.98 6.98 0 0 1-6.982-6.982z"/><path fill="#fff" d="M475.492 117.07h1.843l3.688 9.578h-1.906l-.75-1.969h-3.891l-.781 1.969h-1.906zm.937 2.547-1.281 3.28h2.547zm6.016-2.657h1.781v2.61h1.047v1.53h-1.047v5.548h-1.781V121.1h-.906v-1.531h.906zm3.996 0h1.78v2.61h1.048v1.53h-1.047v5.548h-1.781V121.1h-.907v-1.531h.907zm3.777 2.61h1.781v.718q.61-.5 1.094-.703t1-.203q1.062 0 1.797.735.609.625.609 1.859v4.672h-1.75v-3.11q0-1.265-.125-1.671-.11-.422-.39-.641-.282-.219-.704-.219-.531 0-.922.36-.39.359-.53 1-.079.328-.079 1.437v2.844h-1.781zm9.576-2.922h2.25q-1.156 1.312-1.734 2.844-.563 1.53-.563 3.5 0 2.125.64 3.734.485 1.25 1.657 2.687h-2.25q-1.031-1.64-1.453-3.078-.406-1.453-.406-3.406 0-1.906.437-3.344.438-1.437 1.422-2.937m11.907 8.594 1.656 2.156h-2.156l-.844-1.078q-1.047.562-2.344.562-2.156 0-3.578-1.484-1.422-1.485-1.422-3.547 0-1.36.657-2.5.672-1.156 1.828-1.828 1.172-.688 2.5-.688 2.031 0 3.484 1.469 1.469 1.469 1.469 3.594 0 1.937-1.25 3.344m-1.14-1.47q.577-.859.577-1.89 0-1.36-.921-2.312-.922-.953-2.22-.953-1.343 0-2.25.921-.905.922-.905 2.36 0 1.578 1.14 2.5.89.734 2.031.734.657 0 1.22-.265l-1.704-2.204h2.172zm4.615-7.124q.468 0 .797.344.343.343.343.812 0 .484-.343.828-.329.328-.782.328-.484 0-.812-.343t-.328-.829q0-.468.328-.796.328-.344.797-.344m-.89 2.922h1.78v7.078h-1.78zm4.241 5.28 1.266.626-1.61 2.75-.874-.422zm6.818-7.78h1.843v3.297l2.594-3.297h2.188l-3.344 4.28 3.672 5.298h-2.156l-2.954-4.25v4.25h-1.843zm8.75-.422q.468 0 .796.344.344.343.344.812 0 .484-.344.828-.328.328-.781.328-.485 0-.813-.343t-.328-.829q0-.468.328-.796.328-.344.797-.344m-.892 2.922h1.782v7.078h-1.782zm5.68 1.484v-2.437h1.625v2.437h2.438v1.625h-2.438v2.438h-1.625v-2.438h-2.437v-1.625zm6.998-3.984h2.735v9.578h-1.813v-7.86h-1.968zm7.027 7.78 1.266.626-1.61 2.75-.874-.422zm6.068-7.78h1.875l2.406 6.812 2.453-6.812h1.875l-3.453 9.578h-1.765zm10.567-.422q.468 0 .796.344.344.343.344.812 0 .484-.344.828-.328.328-.78.328-.485 0-.813-.343t-.328-.829q0-.468.328-.796.328-.344.797-.344m-.891 2.922h1.781v7.078h-1.781zm5.68 1.484v-2.437h1.625v2.437h2.437v1.625h-2.437v2.438h-1.625v-2.438h-2.438v-1.625zm6.998-3.984h2.734v9.578h-1.812v-7.86h-1.969zm7.87 12.343h-2.25q1.157-1.296 1.72-2.828.577-1.531.577-3.5 0-2.125-.625-3.734-.5-1.234-1.671-2.703h2.25q1.046 1.656 1.453 3.11.422 1.437.422 3.39 0 1.906-.438 3.344-.437 1.437-1.437 2.921"/><path fill="#b6d7a8" fill-rule="evenodd" d="M615.997 150.32a6.98 6.98 0 0 1 6.982-6.981H761.11a6.98 6.98 0 0 1 6.982 6.981v27.927a6.98 6.98 0 0 1-6.982 6.981H622.98a6.98 6.98 0 0 1-6.983-6.981z"/><path stroke="#000" stroke-linecap="butt" stroke-linejoin="round" d="M615.997 150.32a6.98 6.98 0 0 1 6.982-6.981H761.11a6.98 6.98 0 0 1 6.982 6.981v27.927a6.98 6.98 0 0 1-6.982 6.981H622.98a6.98 6.98 0 0 1-6.983-6.981z"/><path fill="#fff" d="M635.728 159.505h4.75v1.782h-2.953v1.734h2.953v1.75h-2.953v4.312h-1.797zm13.256 6.547h-5.703q.125.766.657 1.219.546.437 1.375.437 1 0 1.718-.703l1.485.703q-.547.797-1.328 1.188-.782.375-1.86.375-1.672 0-2.719-1.047-1.046-1.062-1.046-2.64 0-1.626 1.046-2.688 1.047-1.078 2.625-1.078 1.672 0 2.72 1.078 1.046 1.062 1.046 2.828zm-1.78-1.39q-.173-.594-.688-.97-.516-.374-1.203-.374-.735 0-1.297.422-.36.265-.657.922zm3.437-5.266h1.782v2.61h1.046v1.53h-1.046v5.547h-1.782v-5.546h-.906v-1.532h.906zm10.715 4.031-1.469.828q-.422-.437-.828-.609t-.953-.172q-1 0-1.625.594-.61.594-.61 1.531 0 .906.594 1.484.594.563 1.563.563 1.187 0 1.86-.813l1.39.954q-1.14 1.484-3.219 1.484-1.86 0-2.922-1.11-1.062-1.109-1.062-2.593 0-1.031.515-1.89.516-.876 1.438-1.36.922-.5 2.062-.5 1.047 0 1.89.422.845.422 1.376 1.187m1.61-4.156h1.766v3.453q.515-.453 1.046-.672.532-.234 1.063-.234 1.062 0 1.781.734.61.625.61 1.86v4.671h-1.75v-3.109q0-1.219-.125-1.656-.11-.438-.391-.656-.281-.22-.703-.22-.531 0-.922.36-.39.36-.531.985-.078.312-.078 1.453v2.843h-1.766zm11.93.234h1.844v3.297l2.594-3.297h2.187l-3.344 4.282 3.672 5.296h-2.156l-2.953-4.25v4.25h-1.844zm7.078 10.578h6.812v.672h-6.812zm8.336-11q.468 0 .797.344.343.344.343.813 0 .484-.343.828-.329.328-.782.328-.484 0-.812-.344t-.328-.828q0-.469.328-.797.328-.344.797-.344m-.891 2.922h1.781v7.078h-1.781Zm5.68 1.485v-2.438h1.625v2.438h2.437v1.625h-2.437v2.437h-1.625v-2.437h-2.438v-1.625zm7.342-1.61h-1.75q.14-1.062.765-1.718.875-.891 2.188-.891 1.172 0 1.969.75.812.75.812 1.781 0 .625-.36 1.156-.343.532-1.015.86.875.25 1.36.906.5.64.5 1.516 0 1.297-.954 2.187-.937.89-2.422.89-1.39 0-2.265-.827-.875-.844-.969-2.297h1.813q.109.734.515 1.094.406.359 1.016.359.625 0 1.047-.406t.422-1q0-.657-.563-1.094-.562-.453-1.64-.469v-1.562q.656-.047.984-.203t.5-.422q.187-.266.187-.563 0-.39-.281-.64-.266-.266-.719-.266-.39 0-.703.234t-.437.625m6.683 5.407 1.266.625-1.61 2.75-.875-.422zm6.067-7.782h1.875l2.407 6.813 2.453-6.813h1.875l-3.453 9.578h-1.766zm8.895 10.578h6.813v.672h-6.813zm8.336-11q.469 0 .797.344.344.344.344.813 0 .484-.344.828-.328.328-.781.328-.485 0-.813-.344t-.328-.828q0-.469.328-.797.328-.344.797-.344m-.89 2.922h1.78v7.078h-1.78zm5.68 1.485v-2.438h1.624v2.438h2.438v1.625h-2.438v2.437h-1.625v-2.437h-2.437v-1.625zm7.341-1.61h-1.75q.14-1.062.766-1.718.875-.891 2.187-.891 1.172 0 1.969.75.813.75.813 1.781 0 .625-.36 1.156-.344.532-1.015.86.875.25 1.359.906.5.64.5 1.516 0 1.297-.953 2.187-.938.89-2.422.89-1.39 0-2.266-.827-.875-.844-.968-2.297h1.812q.11.734.516 1.094.406.359 1.015.359.625 0 1.047-.406t.422-1q0-.657-.562-1.094-.563-.453-1.641-.469v-1.562q.656-.047.984-.203t.5-.422q.188-.266.188-.563 0-.39-.281-.64-.266-.266-.72-.266-.39 0-.702.234-.313.235-.438.625"/><path fill="#4ea5b7" fill-rule="evenodd" d="M615.998 108.158a6.98 6.98 0 0 1 6.982-6.982h121.28a6.98 6.98 0 0 1 6.982 6.982v27.926a6.98 6.98 0 0 1-6.981 6.982H622.98a6.98 6.98 0 0 1-6.982-6.982z"/><path stroke="#000" stroke-linecap="butt" stroke-linejoin="round" d="M615.998 108.158a6.98 6.98 0 0 1 6.982-6.982h121.28a6.98 6.98 0 0 1 6.982 6.982v27.926a6.98 6.98 0 0 1-6.981 6.982H622.98a6.98 6.98 0 0 1-6.982-6.982z"/><path fill="#fff" d="M627.539 117.343h1.844l3.687 9.578h-1.906l-.75-1.969h-3.89l-.782 1.969h-1.906zm.937 2.546-1.28 3.282h2.546zm6.016-2.656h1.781v2.61h1.047v1.53h-1.047v5.548h-1.78v-5.547h-.907v-1.531h.906zm3.996 0h1.781v2.61h1.047v1.53h-1.047v5.548h-1.781v-5.547h-.906v-1.531h.906zm3.777 2.61h1.781v.718q.61-.5 1.094-.703t1-.203q1.063 0 1.797.734.61.625.61 1.86v4.672h-1.75v-3.11q0-1.265-.126-1.672-.11-.421-.39-.64-.282-.219-.703-.219-.532 0-.922.36-.391.359-.532 1-.078.328-.078 1.437v2.844h-1.78zm9.576-2.922h2.25q-1.156 1.312-1.734 2.843-.563 1.532-.563 3.5 0 2.125.641 3.735.484 1.25 1.656 2.687h-2.25q-1.03-1.64-1.453-3.078-.406-1.453-.406-3.406 0-1.906.437-3.344.438-1.437 1.422-2.937m11.907 8.593 1.656 2.157h-2.156l-.844-1.078q-1.046.562-2.343.562-2.157 0-3.578-1.484-1.422-1.485-1.422-3.547 0-1.36.656-2.5.672-1.156 1.828-1.828 1.172-.688 2.5-.688 2.031 0 3.484 1.469 1.47 1.469 1.47 3.594 0 1.937-1.25 3.343m-1.14-1.468q.578-.86.578-1.89 0-1.36-.922-2.313t-2.219-.954q-1.344 0-2.25.922t-.906 2.36q0 1.578 1.14 2.5.891.734 2.032.734.656 0 1.218-.266l-1.703-2.203h2.172zm4.615-7.125q.469 0 .797.343.344.344.344.813 0 .484-.344.828-.328.328-.781.328-.485 0-.813-.344t-.328-.828q0-.468.328-.797.328-.343.797-.343m-.89 2.922h1.78v7.078h-1.78zm4.242 5.28 1.265.626-1.61 2.75-.874-.422zm6.817-7.78h1.844v3.296l2.594-3.296h2.187l-3.344 4.28 3.672 5.298h-2.156l-2.953-4.25v4.25h-1.844zm8.75-.422q.468 0 .796.343.344.344.344.813 0 .484-.344.828-.328.328-.781.328-.484 0-.812-.344t-.329-.828q0-.468.329-.797.328-.343.796-.343m-.891 2.922h1.781v7.078h-1.781zm5.68 1.484v-2.438h1.625v2.438h2.437v1.625h-2.437v2.437h-1.625v-2.437h-2.438v-1.625zm7.138-.89h-1.78q.077-1.548.968-2.438.906-.89 2.312-.89.875 0 1.547.374.672.36 1.063 1.063.406.687.406 1.406 0 .844-.484 1.828-.485.984-1.782 2.328l-1.078 1.125h3.422v1.688h-6.64v-.875l2.968-3.016q1.078-1.094 1.422-1.75.36-.656.36-1.187 0-.563-.376-.922-.359-.36-.937-.36-.594 0-.984.438-.391.437-.407 1.187m6.887 4.687 1.265.625-1.609 2.75-.875-.422zm6.067-7.781h1.875l2.406 6.812 2.454-6.812h1.875l-3.454 9.578h-1.765zm10.567-.422q.469 0 .797.343.343.344.343.813 0 .484-.343.828-.328.328-.782.328-.484 0-.812-.344t-.328-.828q0-.468.328-.797.328-.343.797-.343m-.89 2.922h1.78v7.078h-1.78zm5.679 1.484v-2.438h1.625v2.438h2.437v1.625h-2.437v2.437h-1.625v-2.437h-2.438v-1.625zm7.139-.89h-1.781q.078-1.548.968-2.438.907-.89 2.313-.89.875 0 1.547.374.672.36 1.062 1.063.406.687.406 1.406 0 .844-.484 1.828t-1.781 2.328l-1.078 1.125h3.422v1.688h-6.641v-.875l2.969-3.016q1.078-1.094 1.422-1.75.359-.656.359-1.187 0-.563-.375-.922-.36-.36-.938-.36-.593 0-.984.438-.39.437-.406 1.187m7.73 9.25h-2.25q1.156-1.298 1.719-2.829.578-1.531.578-3.5 0-2.125-.625-3.734-.5-1.235-1.672-2.703h2.25q1.047 1.656 1.453 3.11.422 1.437.422 3.39 0 1.906-.438 3.343-.437 1.438-1.437 2.922"/></g></svg>