<svg xmlns="http://www.w3.org/2000/svg" width="629.059" height="517.786" fill="none" stroke-linecap="square" stroke-miterlimit="10"><clipPath id="a"><path d="M0 0h960v540H0Z"/></clipPath><g clip-path="url(#a)" transform="translate(-111.412 -16.703)"><path fill="#e38a42" fill-rule="evenodd" d="M161.606 55.176h460.788v460.787H161.606Z"/><path stroke="#000" stroke-linecap="butt" stroke-linejoin="round" d="M161.606 55.176h460.788v460.787H161.606Z"/><path fill="#4ea5b7" fill-rule="evenodd" d="M161.606 55.176h28.788v28.787h-28.788Z"/><path stroke="#000" stroke-linecap="butt" stroke-linejoin="round" d="M161.606 55.176h28.788v28.787h-28.788Z"/><path fill="#fff" fill-rule="evenodd" d="M190.394 55.176h28.787v28.787h-28.787z"/><path stroke="#000" stroke-linecap="butt" stroke-linejoin="round" d="M190.394 55.176h28.787v28.787h-28.787z"/><path fill="#fff" fill-rule="evenodd" d="M219.181 55.176h28.787v28.787h-28.787z"/><path stroke="#000" stroke-linecap="butt" stroke-linejoin="round" d="M219.181 55.176h28.787v28.787h-28.787z"/><path fill="#fff" fill-rule="evenodd" d="M247.969 55.176h28.787v28.787h-28.787Z"/><path stroke="#000" stroke-linecap="butt" stroke-linejoin="round" d="M247.969 55.176h28.787v28.787h-28.787Z"/><path fill="#fff" fill-rule="evenodd" d="M276.756 55.176h28.787v28.787h-28.787Z"/><path stroke="#000" stroke-linecap="butt" stroke-linejoin="round" d="M276.756 55.176h28.787v28.787h-28.787Z"/><path fill="#fff" fill-rule="evenodd" d="M305.543 55.176h28.788v28.787h-28.788Z"/><path stroke="#000" stroke-linecap="butt" stroke-linejoin="round" d="M305.543 55.176h28.788v28.787h-28.788Z"/><path fill="#fff" fill-rule="evenodd" d="M334.33 55.176h28.788v28.787h-28.787Z"/><path stroke="#000" stroke-linecap="butt" stroke-linejoin="round" d="M334.33 55.176h28.788v28.787h-28.787Z"/><path fill="#fff" fill-rule="evenodd" d="M363.118 55.176h28.788v28.787h-28.788Z"/><path stroke="#000" stroke-linecap="butt" stroke-linejoin="round" d="M363.118 55.176h28.788v28.787h-28.788Z"/><path fill="#fff" fill-rule="evenodd" d="M391.906 55.176h28.787v28.787h-28.787Z"/><path stroke="#000" stroke-linecap="butt" stroke-linejoin="round" d="M391.906 55.176h28.787v28.787h-28.787Z"/><path fill="#fff" fill-rule="evenodd" d="M420.693 55.176h28.787v28.787h-28.787Z"/><path stroke="#000" stroke-linecap="butt" stroke-linejoin="round" d="M420.693 55.176h28.787v28.787h-28.787Z"/><path fill="#fff" fill-rule="evenodd" d="M449.48 55.176h28.788v28.787H449.48z"/><path stroke="#000" stroke-linecap="butt" stroke-linejoin="round" d="M449.48 55.176h28.788v28.787H449.48z"/><path fill="#fff" fill-rule="evenodd" d="M478.268 55.176h28.787v28.787h-28.787z"/><path stroke="#000" stroke-linecap="butt" stroke-linejoin="round" d="M478.268 55.176h28.787v28.787h-28.787z"/><path fill="#fff" fill-rule="evenodd" d="M507.055 55.176h28.788v28.787h-28.788Z"/><path stroke="#000" stroke-linecap="butt" stroke-linejoin="round" d="M507.055 55.176h28.788v28.787h-28.788Z"/><path fill="#fff" fill-rule="evenodd" d="M535.843 55.176h28.787v28.787h-28.788Z"/><path stroke="#000" stroke-linecap="butt" stroke-linejoin="round" d="M535.843 55.176h28.787v28.787h-28.788Z"/><path fill="#fff" fill-rule="evenodd" d="M564.63 55.176h28.787v28.787H564.63z"/><path stroke="#000" stroke-linecap="butt" stroke-linejoin="round" d="M564.63 55.176h28.787v28.787H564.63z"/><path fill="#fff" fill-rule="evenodd" d="M593.417 55.176h28.788v28.787h-28.788Z"/><path stroke="#000" stroke-linecap="butt" stroke-linejoin="round" d="M593.417 55.176h28.788v28.787h-28.788Z"/><path fill="#4ea5b7" fill-rule="evenodd" d="M161.7 83.963h28.788v28.788h-28.787z"/><path stroke="#000" stroke-linecap="butt" stroke-linejoin="round" d="M161.7 83.963h28.788v28.788h-28.787z"/><path fill="#4ea5b7" fill-rule="evenodd" d="M190.488 83.963h28.788v28.788h-28.788z"/><path stroke="#000" stroke-linecap="butt" stroke-linejoin="round" d="M190.488 83.963h28.788v28.788h-28.788z"/><path fill="#fff" fill-rule="evenodd" d="M219.276 83.963h28.787v28.788h-28.787z"/><path stroke="#000" stroke-linecap="butt" stroke-linejoin="round" d="M219.276 83.963h28.787v28.788h-28.787z"/><path fill="#fff" fill-rule="evenodd" d="M248.063 83.963h28.787v28.788h-28.787z"/><path stroke="#000" stroke-linecap="butt" stroke-linejoin="round" d="M248.063 83.963h28.787v28.788h-28.787z"/><path fill="#fff" fill-rule="evenodd" d="M276.85 83.963h28.788v28.788H276.85Z"/><path stroke="#000" stroke-linecap="butt" stroke-linejoin="round" d="M276.85 83.963h28.788v28.788H276.85Z"/><path fill="#fff" fill-rule="evenodd" d="M305.638 83.963h28.787v28.788h-28.787Z"/><path stroke="#000" stroke-linecap="butt" stroke-linejoin="round" d="M305.638 83.963h28.787v28.788h-28.787Z"/><path fill="#fff" fill-rule="evenodd" d="M334.425 83.963h28.788v28.788h-28.788Z"/><path stroke="#000" stroke-linecap="butt" stroke-linejoin="round" d="M334.425 83.963h28.788v28.788h-28.788Z"/><path fill="#fff" fill-rule="evenodd" d="M363.213 83.963H392v28.788h-28.787Z"/><path stroke="#000" stroke-linecap="butt" stroke-linejoin="round" d="M363.213 83.963H392v28.788h-28.787Z"/><path fill="#fff" fill-rule="evenodd" d="M392 83.963h28.787v28.788H392Z"/><path stroke="#000" stroke-linecap="butt" stroke-linejoin="round" d="M392 83.963h28.787v28.788H392Z"/><path fill="#fff" fill-rule="evenodd" d="M420.787 83.963h28.788v28.788h-28.788Z"/><path stroke="#000" stroke-linecap="butt" stroke-linejoin="round" d="M420.787 83.963h28.788v28.788h-28.788Z"/><path fill="#fff" fill-rule="evenodd" d="M449.575 83.963h28.787v28.788h-28.787Z"/><path stroke="#000" stroke-linecap="butt" stroke-linejoin="round" d="M449.575 83.963h28.787v28.788h-28.787Z"/><path fill="#fff" fill-rule="evenodd" d="M478.362 83.963h28.788v28.788h-28.788Z"/><path stroke="#000" stroke-linecap="butt" stroke-linejoin="round" d="M478.362 83.963h28.788v28.788h-28.788Z"/><path fill="#fff" fill-rule="evenodd" d="M507.15 83.963h28.787v28.788H507.15Z"/><path stroke="#000" stroke-linecap="butt" stroke-linejoin="round" d="M507.15 83.963h28.787v28.788H507.15Z"/><path fill="#fff" fill-rule="evenodd" d="M535.937 83.963h28.787v28.788h-28.787Z"/><path stroke="#000" stroke-linecap="butt" stroke-linejoin="round" d="M535.937 83.963h28.787v28.788h-28.787Z"/><path fill="#fff" fill-rule="evenodd" d="M564.724 83.963h28.788v28.788h-28.788Z"/><path stroke="#000" stroke-linecap="butt" stroke-linejoin="round" d="M564.724 83.963h28.788v28.788h-28.788Z"/><path fill="#fff" fill-rule="evenodd" d="M593.512 83.963h28.787v28.788h-28.787z"/><path stroke="#000" stroke-linecap="butt" stroke-linejoin="round" d="M593.512 83.963h28.787v28.788h-28.787z"/><path fill="#e889ab" fill-rule="evenodd" d="M161.7 112.75h28.788v28.788h-28.787z"/><path stroke="#000" stroke-linecap="butt" stroke-linejoin="round" d="M161.7 112.75h28.788v28.788h-28.787z"/><path fill="#e889ab" fill-rule="evenodd" d="M190.488 112.75h28.788v28.788h-28.788z"/><path stroke="#000" stroke-linecap="butt" stroke-linejoin="round" d="M190.488 112.75h28.788v28.788h-28.788z"/><path fill="#e889ab" fill-rule="evenodd" d="M219.276 112.75h28.787v28.788h-28.787z"/><path stroke="#000" stroke-linecap="butt" stroke-linejoin="round" d="M219.276 112.75h28.787v28.788h-28.787z"/><path fill="#fff" fill-rule="evenodd" d="M248.063 112.75h28.787v28.788h-28.787z"/><path stroke="#000" stroke-linecap="butt" stroke-linejoin="round" d="M248.063 112.75h28.787v28.788h-28.787z"/><path fill="#fff" fill-rule="evenodd" d="M276.85 112.75h28.788v28.788H276.85Z"/><path stroke="#000" stroke-linecap="butt" stroke-linejoin="round" d="M276.85 112.75h28.788v28.788H276.85Z"/><path fill="#fff" fill-rule="evenodd" d="M305.638 112.75h28.787v28.788h-28.787Z"/><path stroke="#000" stroke-linecap="butt" stroke-linejoin="round" d="M305.638 112.75h28.787v28.788h-28.787Z"/><path fill="#fff" fill-rule="evenodd" d="M334.425 112.75h28.788v28.788h-28.788Z"/><path stroke="#000" stroke-linecap="butt" stroke-linejoin="round" d="M334.425 112.75h28.788v28.788h-28.788Z"/><path fill="#fff" fill-rule="evenodd" d="M363.213 112.75H392v28.788h-28.787Z"/><path stroke="#000" stroke-linecap="butt" stroke-linejoin="round" d="M363.213 112.75H392v28.788h-28.787Z"/><path fill="#fff" fill-rule="evenodd" d="M392 112.75h28.787v28.788H392Z"/><path stroke="#000" stroke-linecap="butt" stroke-linejoin="round" d="M392 112.75h28.787v28.788H392Z"/><path fill="#fff" fill-rule="evenodd" d="M420.787 112.75h28.788v28.788h-28.788Z"/><path stroke="#000" stroke-linecap="butt" stroke-linejoin="round" d="M420.787 112.75h28.788v28.788h-28.788Z"/><path fill="#fff" fill-rule="evenodd" d="M449.575 112.75h28.787v28.788h-28.787Z"/><path stroke="#000" stroke-linecap="butt" stroke-linejoin="round" d="M449.575 112.75h28.787v28.788h-28.787Z"/><path fill="#fff" fill-rule="evenodd" d="M478.362 112.75h28.788v28.788h-28.788Z"/><path stroke="#000" stroke-linecap="butt" stroke-linejoin="round" d="M478.362 112.75h28.788v28.788h-28.788Z"/><path fill="#fff" fill-rule="evenodd" d="M507.15 112.75h28.787v28.788H507.15Z"/><path stroke="#000" stroke-linecap="butt" stroke-linejoin="round" d="M507.15 112.75h28.787v28.788H507.15Z"/><path fill="#fff" fill-rule="evenodd" d="M535.937 112.75h28.787v28.788h-28.787Z"/><path stroke="#000" stroke-linecap="butt" stroke-linejoin="round" d="M535.937 112.75h28.787v28.788h-28.787Z"/><path fill="#fff" fill-rule="evenodd" d="M564.724 112.75h28.788v28.788h-28.788Z"/><path stroke="#000" stroke-linecap="butt" stroke-linejoin="round" d="M564.724 112.75h28.788v28.788h-28.788Z"/><path fill="#fff" fill-rule="evenodd" d="M593.512 112.75h28.787v28.788h-28.787z"/><path stroke="#000" stroke-linecap="butt" stroke-linejoin="round" d="M593.512 112.75h28.787v28.788h-28.787z"/><path fill="#e889ab" fill-rule="evenodd" d="M161.7 141.538h28.788v28.787h-28.787z"/><path stroke="#000" stroke-linecap="butt" stroke-linejoin="round" d="M161.7 141.538h28.788v28.787h-28.787z"/><path fill="#e889ab" fill-rule="evenodd" d="M190.488 141.538h28.788v28.787h-28.788z"/><path stroke="#000" stroke-linecap="butt" stroke-linejoin="round" d="M190.488 141.538h28.788v28.787h-28.788z"/><path fill="#e889ab" fill-rule="evenodd" d="M219.276 141.538h28.787v28.787h-28.787z"/><path stroke="#000" stroke-linecap="butt" stroke-linejoin="round" d="M219.276 141.538h28.787v28.787h-28.787z"/><path fill="#e889ab" fill-rule="evenodd" d="M248.063 141.538h28.787v28.787h-28.787z"/><path stroke="#000" stroke-linecap="butt" stroke-linejoin="round" d="M248.063 141.538h28.787v28.787h-28.787z"/><path fill="#fff" fill-rule="evenodd" d="M276.85 141.538h28.788v28.787H276.85Z"/><path stroke="#000" stroke-linecap="butt" stroke-linejoin="round" d="M276.85 141.538h28.788v28.787H276.85Z"/><path fill="#fff" fill-rule="evenodd" d="M305.638 141.538h28.787v28.787h-28.787Z"/><path stroke="#000" stroke-linecap="butt" stroke-linejoin="round" d="M305.638 141.538h28.787v28.787h-28.787Z"/><path fill="#fff" fill-rule="evenodd" d="M334.425 141.538h28.788v28.787h-28.788Z"/><path stroke="#000" stroke-linecap="butt" stroke-linejoin="round" d="M334.425 141.538h28.788v28.787h-28.788Z"/><path fill="#fff" fill-rule="evenodd" d="M363.213 141.538H392v28.787h-28.787Z"/><path stroke="#000" stroke-linecap="butt" stroke-linejoin="round" d="M363.213 141.538H392v28.787h-28.787Z"/><path fill="#fff" fill-rule="evenodd" d="M392 141.538h28.787v28.787H392Z"/><path stroke="#000" stroke-linecap="butt" stroke-linejoin="round" d="M392 141.538h28.787v28.787H392Z"/><path fill="#fff" fill-rule="evenodd" d="M420.787 141.538h28.788v28.787h-28.788Z"/><path stroke="#000" stroke-linecap="butt" stroke-linejoin="round" d="M420.787 141.538h28.788v28.787h-28.788Z"/><path fill="#fff" fill-rule="evenodd" d="M449.575 141.538h28.787v28.787h-28.787Z"/><path stroke="#000" stroke-linecap="butt" stroke-linejoin="round" d="M449.575 141.538h28.787v28.787h-28.787Z"/><path fill="#fff" fill-rule="evenodd" d="M478.362 141.538h28.788v28.787h-28.788Z"/><path stroke="#000" stroke-linecap="butt" stroke-linejoin="round" d="M478.362 141.538h28.788v28.787h-28.788Z"/><path fill="#fff" fill-rule="evenodd" d="M507.15 141.538h28.787v28.787H507.15Z"/><path stroke="#000" stroke-linecap="butt" stroke-linejoin="round" d="M507.15 141.538h28.787v28.787H507.15Z"/><path fill="#fff" fill-rule="evenodd" d="M535.937 141.538h28.787v28.787h-28.787Z"/><path stroke="#000" stroke-linecap="butt" stroke-linejoin="round" d="M535.937 141.538h28.787v28.787h-28.787Z"/><path fill="#fff" fill-rule="evenodd" d="M564.724 141.538h28.788v28.787h-28.788Z"/><path stroke="#000" stroke-linecap="butt" stroke-linejoin="round" d="M564.724 141.538h28.788v28.787h-28.788Z"/><path fill="#fff" fill-rule="evenodd" d="M593.512 141.538h28.787v28.787h-28.787z"/><path stroke="#000" stroke-linecap="butt" stroke-linejoin="round" d="M593.512 141.538h28.787v28.787h-28.787z"/><path fill="#cec0fa" fill-rule="evenodd" d="M161.7 170.325h28.788v28.788h-28.787z"/><path stroke="#000" stroke-linecap="butt" stroke-linejoin="round" d="M161.7 170.325h28.788v28.788h-28.787z"/><path fill="#cec0fa" fill-rule="evenodd" d="M190.488 170.325h28.788v28.788h-28.788z"/><path stroke="#000" stroke-linecap="butt" stroke-linejoin="round" d="M190.488 170.325h28.788v28.788h-28.788z"/><path fill="#cec0fa" fill-rule="evenodd" d="M219.276 170.325h28.787v28.788h-28.787z"/><path stroke="#000" stroke-linecap="butt" stroke-linejoin="round" d="M219.276 170.325h28.787v28.788h-28.787z"/><path fill="#cec0fa" fill-rule="evenodd" d="M248.063 170.325h28.787v28.788h-28.787z"/><path stroke="#000" stroke-linecap="butt" stroke-linejoin="round" d="M248.063 170.325h28.787v28.788h-28.787z"/><path fill="#cec0fa" fill-rule="evenodd" d="M276.85 170.325h28.788v28.788H276.85Z"/><path stroke="#000" stroke-linecap="butt" stroke-linejoin="round" d="M276.85 170.325h28.788v28.788H276.85Z"/><path fill="#fff" fill-rule="evenodd" d="M305.638 170.325h28.787v28.788h-28.787Z"/><path stroke="#000" stroke-linecap="butt" stroke-linejoin="round" d="M305.638 170.325h28.787v28.788h-28.787Z"/><path fill="#fff" fill-rule="evenodd" d="M334.425 170.325h28.788v28.788h-28.788Z"/><path stroke="#000" stroke-linecap="butt" stroke-linejoin="round" d="M334.425 170.325h28.788v28.788h-28.788Z"/><path fill="#fff" fill-rule="evenodd" d="M363.213 170.325H392v28.788h-28.787Z"/><path stroke="#000" stroke-linecap="butt" stroke-linejoin="round" d="M363.213 170.325H392v28.788h-28.787Z"/><path fill="#fff" fill-rule="evenodd" d="M392 170.325h28.787v28.788H392Z"/><path stroke="#000" stroke-linecap="butt" stroke-linejoin="round" d="M392 170.325h28.787v28.788H392Z"/><path fill="#fff" fill-rule="evenodd" d="M420.787 170.325h28.788v28.788h-28.788Z"/><path stroke="#000" stroke-linecap="butt" stroke-linejoin="round" d="M420.787 170.325h28.788v28.788h-28.788Z"/><path fill="#fff" fill-rule="evenodd" d="M449.575 170.325h28.787v28.788h-28.787Z"/><path stroke="#000" stroke-linecap="butt" stroke-linejoin="round" d="M449.575 170.325h28.787v28.788h-28.787Z"/><path fill="#fff" fill-rule="evenodd" d="M478.362 170.325h28.788v28.788h-28.788Z"/><path stroke="#000" stroke-linecap="butt" stroke-linejoin="round" d="M478.362 170.325h28.788v28.788h-28.788Z"/><path fill="#fff" fill-rule="evenodd" d="M507.15 170.325h28.787v28.788H507.15Z"/><path stroke="#000" stroke-linecap="butt" stroke-linejoin="round" d="M507.15 170.325h28.787v28.788H507.15Z"/><path fill="#fff" fill-rule="evenodd" d="M535.937 170.325h28.787v28.788h-28.787Z"/><path stroke="#000" stroke-linecap="butt" stroke-linejoin="round" d="M535.937 170.325h28.787v28.788h-28.787Z"/><path fill="#fff" fill-rule="evenodd" d="M564.724 170.325h28.788v28.788h-28.788Z"/><path stroke="#000" stroke-linecap="butt" stroke-linejoin="round" d="M564.724 170.325h28.788v28.788h-28.788Z"/><path fill="#fff" fill-rule="evenodd" d="M593.512 170.325h28.787v28.788h-28.787z"/><path stroke="#000" stroke-linecap="butt" stroke-linejoin="round" d="M593.512 170.325h28.787v28.788h-28.787z"/><path fill="#cec0fa" fill-rule="evenodd" d="M161.7 199.113h28.788V227.9h-28.787z"/><path stroke="#000" stroke-linecap="butt" stroke-linejoin="round" d="M161.7 199.113h28.788V227.9h-28.787z"/><path fill="#cec0fa" fill-rule="evenodd" d="M190.488 199.113h28.788V227.9h-28.788z"/><path stroke="#000" stroke-linecap="butt" stroke-linejoin="round" d="M190.488 199.113h28.788V227.9h-28.788z"/><path fill="#cec0fa" fill-rule="evenodd" d="M219.276 199.113h28.787V227.9h-28.787z"/><path stroke="#000" stroke-linecap="butt" stroke-linejoin="round" d="M219.276 199.113h28.787V227.9h-28.787z"/><path fill="#cec0fa" fill-rule="evenodd" d="M248.063 199.113h28.787V227.9h-28.787z"/><path stroke="#000" stroke-linecap="butt" stroke-linejoin="round" d="M248.063 199.113h28.787V227.9h-28.787z"/><path fill="#cec0fa" fill-rule="evenodd" d="M276.85 199.113h28.788V227.9H276.85Z"/><path stroke="#000" stroke-linecap="butt" stroke-linejoin="round" d="M276.85 199.113h28.788V227.9H276.85Z"/><path fill="#cec0fa" fill-rule="evenodd" d="M305.638 199.113h28.787V227.9h-28.787Z"/><path stroke="#000" stroke-linecap="butt" stroke-linejoin="round" d="M305.638 199.113h28.787V227.9h-28.787Z"/><path fill="#fff" fill-rule="evenodd" d="M334.425 199.113h28.788V227.9h-28.788Z"/><path stroke="#000" stroke-linecap="butt" stroke-linejoin="round" d="M334.425 199.113h28.788V227.9h-28.788Z"/><path fill="#fff" fill-rule="evenodd" d="M363.213 199.113H392V227.9h-28.787Z"/><path stroke="#000" stroke-linecap="butt" stroke-linejoin="round" d="M363.213 199.113H392V227.9h-28.787Z"/><path fill="#fff" fill-rule="evenodd" d="M392 199.113h28.787V227.9H392Z"/><path stroke="#000" stroke-linecap="butt" stroke-linejoin="round" d="M392 199.113h28.787V227.9H392Z"/><path fill="#fff" fill-rule="evenodd" d="M420.787 199.113h28.788V227.9h-28.788Z"/><path stroke="#000" stroke-linecap="butt" stroke-linejoin="round" d="M420.787 199.113h28.788V227.9h-28.788Z"/><path fill="#fff" fill-rule="evenodd" d="M449.575 199.113h28.787V227.9h-28.787Z"/><path stroke="#000" stroke-linecap="butt" stroke-linejoin="round" d="M449.575 199.113h28.787V227.9h-28.787Z"/><path fill="#fff" fill-rule="evenodd" d="M478.362 199.113h28.788V227.9h-28.788Z"/><path stroke="#000" stroke-linecap="butt" stroke-linejoin="round" d="M478.362 199.113h28.788V227.9h-28.788Z"/><path fill="#fff" fill-rule="evenodd" d="M507.15 199.113h28.787V227.9H507.15Z"/><path stroke="#000" stroke-linecap="butt" stroke-linejoin="round" d="M507.15 199.113h28.787V227.9H507.15Z"/><path fill="#fff" fill-rule="evenodd" d="M535.937 199.113h28.787V227.9h-28.787Z"/><path stroke="#000" stroke-linecap="butt" stroke-linejoin="round" d="M535.937 199.113h28.787V227.9h-28.787Z"/><path fill="#fff" fill-rule="evenodd" d="M564.724 199.113h28.788V227.9h-28.788Z"/><path stroke="#000" stroke-linecap="butt" stroke-linejoin="round" d="M564.724 199.113h28.788V227.9h-28.788Z"/><path fill="#fff" fill-rule="evenodd" d="M593.512 199.113h28.787V227.9h-28.787z"/><path stroke="#000" stroke-linecap="butt" stroke-linejoin="round" d="M593.512 199.113h28.787V227.9h-28.787z"/><path fill="#e38a42" fill-rule="evenodd" d="M161.7 227.9h28.788v28.788h-28.787z"/><path stroke="#000" stroke-linecap="butt" stroke-linejoin="round" d="M161.7 227.9h28.788v28.788h-28.787z"/><path fill="#e38a42" fill-rule="evenodd" d="M190.488 227.9h28.788v28.788h-28.788z"/><path stroke="#000" stroke-linecap="butt" stroke-linejoin="round" d="M190.488 227.9h28.788v28.788h-28.788z"/><path fill="#e38a42" fill-rule="evenodd" d="M219.276 227.9h28.787v28.788h-28.787z"/><path stroke="#000" stroke-linecap="butt" stroke-linejoin="round" d="M219.276 227.9h28.787v28.788h-28.787z"/><path fill="#e38a42" fill-rule="evenodd" d="M248.063 227.9h28.787v28.788h-28.787z"/><path stroke="#000" stroke-linecap="butt" stroke-linejoin="round" d="M248.063 227.9h28.787v28.788h-28.787z"/><path fill="#e38a42" fill-rule="evenodd" d="M276.85 227.9h28.788v28.788H276.85Z"/><path stroke="#000" stroke-linecap="butt" stroke-linejoin="round" d="M276.85 227.9h28.788v28.788H276.85Z"/><path fill="#e38a42" fill-rule="evenodd" d="M305.638 227.9h28.787v28.788h-28.787Z"/><path stroke="#000" stroke-linecap="butt" stroke-linejoin="round" d="M305.638 227.9h28.787v28.788h-28.787Z"/><path fill="#e38a42" fill-rule="evenodd" d="M334.425 227.9h28.788v28.788h-28.788Z"/><path stroke="#000" stroke-linecap="butt" stroke-linejoin="round" d="M334.425 227.9h28.788v28.788h-28.788Z"/><path fill="#fff" fill-rule="evenodd" d="M363.213 227.9H392v28.788h-28.787Z"/><path stroke="#000" stroke-linecap="butt" stroke-linejoin="round" d="M363.213 227.9H392v28.788h-28.787Z"/><path fill="#fff" fill-rule="evenodd" d="M392 227.9h28.787v28.788H392Z"/><path stroke="#000" stroke-linecap="butt" stroke-linejoin="round" d="M392 227.9h28.787v28.788H392Z"/><path fill="#fff" fill-rule="evenodd" d="M420.787 227.9h28.788v28.788h-28.788Z"/><path stroke="#000" stroke-linecap="butt" stroke-linejoin="round" d="M420.787 227.9h28.788v28.788h-28.788Z"/><path fill="#fff" fill-rule="evenodd" d="M449.575 227.9h28.787v28.788h-28.787Z"/><path stroke="#000" stroke-linecap="butt" stroke-linejoin="round" d="M449.575 227.9h28.787v28.788h-28.787Z"/><path fill="#fff" fill-rule="evenodd" d="M478.362 227.9h28.788v28.788h-28.788Z"/><path stroke="#000" stroke-linecap="butt" stroke-linejoin="round" d="M478.362 227.9h28.788v28.788h-28.788Z"/><path fill="#fff" fill-rule="evenodd" d="M507.15 227.9h28.787v28.788H507.15Z"/><path stroke="#000" stroke-linecap="butt" stroke-linejoin="round" d="M507.15 227.9h28.787v28.788H507.15Z"/><path fill="#fff" fill-rule="evenodd" d="M535.937 227.9h28.787v28.788h-28.787Z"/><path stroke="#000" stroke-linecap="butt" stroke-linejoin="round" d="M535.937 227.9h28.787v28.788h-28.787Z"/><path fill="#fff" fill-rule="evenodd" d="M564.724 227.9h28.788v28.788h-28.788Z"/><path stroke="#000" stroke-linecap="butt" stroke-linejoin="round" d="M564.724 227.9h28.788v28.788h-28.788Z"/><path fill="#fff" fill-rule="evenodd" d="M593.512 227.9h28.787v28.788h-28.787z"/><path stroke="#000" stroke-linecap="butt" stroke-linejoin="round" d="M593.512 227.9h28.787v28.788h-28.787z"/><path fill="#e38a42" fill-rule="evenodd" d="M161.7 256.688h28.788v28.787h-28.787z"/><path stroke="#000" stroke-linecap="butt" stroke-linejoin="round" d="M161.7 256.688h28.788v28.787h-28.787z"/><path fill="#e38a42" fill-rule="evenodd" d="M190.488 256.688h28.788v28.787h-28.788z"/><path stroke="#000" stroke-linecap="butt" stroke-linejoin="round" d="M190.488 256.688h28.788v28.787h-28.788z"/><path fill="#e38a42" fill-rule="evenodd" d="M219.276 256.688h28.787v28.787h-28.787z"/><path stroke="#000" stroke-linecap="butt" stroke-linejoin="round" d="M219.276 256.688h28.787v28.787h-28.787z"/><path fill="#e38a42" fill-rule="evenodd" d="M248.063 256.688h28.787v28.787h-28.787z"/><path stroke="#000" stroke-linecap="butt" stroke-linejoin="round" d="M248.063 256.688h28.787v28.787h-28.787z"/><path fill="#e38a42" fill-rule="evenodd" d="M276.85 256.688h28.788v28.787H276.85Z"/><path stroke="#000" stroke-linecap="butt" stroke-linejoin="round" d="M276.85 256.688h28.788v28.787H276.85Z"/><path fill="#e38a42" fill-rule="evenodd" d="M305.638 256.688h28.787v28.787h-28.787Z"/><path stroke="#000" stroke-linecap="butt" stroke-linejoin="round" d="M305.638 256.688h28.787v28.787h-28.787Z"/><path fill="#e38a42" fill-rule="evenodd" d="M334.425 256.688h28.788v28.787h-28.788Z"/><path stroke="#000" stroke-linecap="butt" stroke-linejoin="round" d="M334.425 256.688h28.788v28.787h-28.788Z"/><path fill="#e38a42" fill-rule="evenodd" d="M363.213 256.688H392v28.787h-28.787Z"/><path stroke="#000" stroke-linecap="butt" stroke-linejoin="round" d="M363.213 256.688H392v28.787h-28.787Z"/><path fill="#fff" fill-rule="evenodd" d="M392 256.688h28.787v28.787H392Z"/><path stroke="#000" stroke-linecap="butt" stroke-linejoin="round" d="M392 256.688h28.787v28.787H392Z"/><path fill="#fff" fill-rule="evenodd" d="M420.787 256.688h28.788v28.787h-28.788Z"/><path stroke="#000" stroke-linecap="butt" stroke-linejoin="round" d="M420.787 256.688h28.788v28.787h-28.788Z"/><path fill="#fff" fill-rule="evenodd" d="M449.575 256.688h28.787v28.787h-28.787Z"/><path stroke="#000" stroke-linecap="butt" stroke-linejoin="round" d="M449.575 256.688h28.787v28.787h-28.787Z"/><path fill="#fff" fill-rule="evenodd" d="M478.362 256.688h28.788v28.787h-28.788Z"/><path stroke="#000" stroke-linecap="butt" stroke-linejoin="round" d="M478.362 256.688h28.788v28.787h-28.788Z"/><path fill="#fff" fill-rule="evenodd" d="M507.15 256.688h28.787v28.787H507.15Z"/><path stroke="#000" stroke-linecap="butt" stroke-linejoin="round" d="M507.15 256.688h28.787v28.787H507.15Z"/><path fill="#fff" fill-rule="evenodd" d="M535.937 256.688h28.787v28.787h-28.787Z"/><path stroke="#000" stroke-linecap="butt" stroke-linejoin="round" d="M535.937 256.688h28.787v28.787h-28.787Z"/><path fill="#fff" fill-rule="evenodd" d="M564.724 256.688h28.788v28.787h-28.788Z"/><path stroke="#000" stroke-linecap="butt" stroke-linejoin="round" d="M564.724 256.688h28.788v28.787h-28.788Z"/><path fill="#fff" fill-rule="evenodd" d="M593.512 256.688h28.787v28.787h-28.787z"/><path stroke="#000" stroke-linecap="butt" stroke-linejoin="round" d="M593.512 256.688h28.787v28.787h-28.787z"/><path fill="#e38a42" fill-rule="evenodd" d="M161.7 285.475h28.788v28.787h-28.787z"/><path stroke="#000" stroke-linecap="butt" stroke-linejoin="round" d="M161.7 285.475h28.788v28.787h-28.787z"/><path fill="#e38a42" fill-rule="evenodd" d="M190.488 285.475h28.788v28.787h-28.788z"/><path stroke="#000" stroke-linecap="butt" stroke-linejoin="round" d="M190.488 285.475h28.788v28.787h-28.788z"/><path fill="#e38a42" fill-rule="evenodd" d="M219.276 285.475h28.787v28.787h-28.787z"/><path stroke="#000" stroke-linecap="butt" stroke-linejoin="round" d="M219.276 285.475h28.787v28.787h-28.787z"/><path fill="#e38a42" fill-rule="evenodd" d="M248.063 285.475h28.787v28.787h-28.787z"/><path stroke="#000" stroke-linecap="butt" stroke-linejoin="round" d="M248.063 285.475h28.787v28.787h-28.787z"/><path fill="#e38a42" fill-rule="evenodd" d="M276.85 285.475h28.788v28.787H276.85Z"/><path stroke="#000" stroke-linecap="butt" stroke-linejoin="round" d="M276.85 285.475h28.788v28.787H276.85Z"/><path fill="#e38a42" fill-rule="evenodd" d="M305.638 285.475h28.787v28.787h-28.787Z"/><path stroke="#000" stroke-linecap="butt" stroke-linejoin="round" d="M305.638 285.475h28.787v28.787h-28.787Z"/><path fill="#e38a42" fill-rule="evenodd" d="M334.425 285.475h28.788v28.787h-28.788Z"/><path stroke="#000" stroke-linecap="butt" stroke-linejoin="round" d="M334.425 285.475h28.788v28.787h-28.788Z"/><path fill="#e38a42" fill-rule="evenodd" d="M363.213 285.475H392v28.787h-28.787Z"/><path stroke="#000" stroke-linecap="butt" stroke-linejoin="round" d="M363.213 285.475H392v28.787h-28.787Z"/><path fill="#e38a42" fill-rule="evenodd" d="M392 285.475h28.787v28.787H392Z"/><path stroke="#000" stroke-linecap="butt" stroke-linejoin="round" d="M392 285.475h28.787v28.787H392Z"/><path fill="#fff" fill-rule="evenodd" d="M420.787 285.475h28.788v28.787h-28.788Z"/><path stroke="#000" stroke-linecap="butt" stroke-linejoin="round" d="M420.787 285.475h28.788v28.787h-28.788Z"/><path fill="#fff" fill-rule="evenodd" d="M449.575 285.475h28.787v28.787h-28.787Z"/><path stroke="#000" stroke-linecap="butt" stroke-linejoin="round" d="M449.575 285.475h28.787v28.787h-28.787Z"/><path fill="#fff" fill-rule="evenodd" d="M478.362 285.475h28.788v28.787h-28.788Z"/><path stroke="#000" stroke-linecap="butt" stroke-linejoin="round" d="M478.362 285.475h28.788v28.787h-28.788Z"/><path fill="#fff" fill-rule="evenodd" d="M507.15 285.475h28.787v28.787H507.15Z"/><path stroke="#000" stroke-linecap="butt" stroke-linejoin="round" d="M507.15 285.475h28.787v28.787H507.15Z"/><path fill="#fff" fill-rule="evenodd" d="M535.937 285.475h28.787v28.787h-28.787Z"/><path stroke="#000" stroke-linecap="butt" stroke-linejoin="round" d="M535.937 285.475h28.787v28.787h-28.787Z"/><path fill="#fff" fill-rule="evenodd" d="M564.724 285.475h28.788v28.787h-28.788Z"/><path stroke="#000" stroke-linecap="butt" stroke-linejoin="round" d="M564.724 285.475h28.788v28.787h-28.788Z"/><path fill="#fff" fill-rule="evenodd" d="M593.512 285.475h28.787v28.787h-28.787z"/><path stroke="#000" stroke-linecap="butt" stroke-linejoin="round" d="M593.512 285.475h28.787v28.787h-28.787z"/><path fill="#e38a42" fill-rule="evenodd" d="M161.7 314.262h28.788v28.788h-28.787z"/><path stroke="#000" stroke-linecap="butt" stroke-linejoin="round" d="M161.7 314.262h28.788v28.788h-28.787z"/><path fill="#e38a42" fill-rule="evenodd" d="M190.488 314.262h28.788v28.788h-28.788z"/><path stroke="#000" stroke-linecap="butt" stroke-linejoin="round" d="M190.488 314.262h28.788v28.788h-28.788z"/><path fill="#e38a42" fill-rule="evenodd" d="M219.276 314.262h28.787v28.788h-28.787z"/><path stroke="#000" stroke-linecap="butt" stroke-linejoin="round" d="M219.276 314.262h28.787v28.788h-28.787z"/><path fill="#e38a42" fill-rule="evenodd" d="M248.063 314.262h28.787v28.788h-28.787z"/><path stroke="#000" stroke-linecap="butt" stroke-linejoin="round" d="M248.063 314.262h28.787v28.788h-28.787z"/><path fill="#e38a42" fill-rule="evenodd" d="M276.85 314.262h28.788v28.788H276.85Z"/><path stroke="#000" stroke-linecap="butt" stroke-linejoin="round" d="M276.85 314.262h28.788v28.788H276.85Z"/><path fill="#e38a42" fill-rule="evenodd" d="M305.638 314.262h28.787v28.788h-28.787Z"/><path stroke="#000" stroke-linecap="butt" stroke-linejoin="round" d="M305.638 314.262h28.787v28.788h-28.787Z"/><path fill="#e38a42" fill-rule="evenodd" d="M334.425 314.262h28.788v28.788h-28.788Z"/><path stroke="#000" stroke-linecap="butt" stroke-linejoin="round" d="M334.425 314.262h28.788v28.788h-28.788Z"/><path fill="#e38a42" fill-rule="evenodd" d="M363.213 314.262H392v28.788h-28.787Z"/><path stroke="#000" stroke-linecap="butt" stroke-linejoin="round" d="M363.213 314.262H392v28.788h-28.787Z"/><path fill="#e38a42" fill-rule="evenodd" d="M392 314.262h28.787v28.788H392Z"/><path stroke="#000" stroke-linecap="butt" stroke-linejoin="round" d="M392 314.262h28.787v28.788H392Z"/><path fill="#e38a42" fill-rule="evenodd" d="M420.787 314.262h28.788v28.788h-28.788Z"/><path stroke="#000" stroke-linecap="butt" stroke-linejoin="round" d="M420.787 314.262h28.788v28.788h-28.788Z"/><path fill="#fff" fill-rule="evenodd" d="M449.575 314.262h28.787v28.788h-28.787Z"/><path stroke="#000" stroke-linecap="butt" stroke-linejoin="round" d="M449.575 314.262h28.787v28.788h-28.787Z"/><path fill="#fff" fill-rule="evenodd" d="M478.362 314.262h28.788v28.788h-28.788Z"/><path stroke="#000" stroke-linecap="butt" stroke-linejoin="round" d="M478.362 314.262h28.788v28.788h-28.788Z"/><path fill="#fff" fill-rule="evenodd" d="M507.15 314.262h28.787v28.788H507.15Z"/><path stroke="#000" stroke-linecap="butt" stroke-linejoin="round" d="M507.15 314.262h28.787v28.788H507.15Z"/><path fill="#fff" fill-rule="evenodd" d="M535.937 314.262h28.787v28.788h-28.787Z"/><path stroke="#000" stroke-linecap="butt" stroke-linejoin="round" d="M535.937 314.262h28.787v28.788h-28.787Z"/><path fill="#fff" fill-rule="evenodd" d="M564.724 314.262h28.788v28.788h-28.788Z"/><path stroke="#000" stroke-linecap="butt" stroke-linejoin="round" d="M564.724 314.262h28.788v28.788h-28.788Z"/><path fill="#fff" fill-rule="evenodd" d="M593.512 314.262h28.787v28.788h-28.787z"/><path stroke="#000" stroke-linecap="butt" stroke-linejoin="round" d="M593.512 314.262h28.787v28.788h-28.787z"/><path fill="#cec0fa" fill-rule="evenodd" d="M161.7 343.05h28.788v28.787h-28.787z"/><path stroke="#000" stroke-linecap="butt" stroke-linejoin="round" d="M161.7 343.05h28.788v28.787h-28.787z"/><path fill="#cec0fa" fill-rule="evenodd" d="M190.488 343.05h28.788v28.787h-28.788z"/><path stroke="#000" stroke-linecap="butt" stroke-linejoin="round" d="M190.488 343.05h28.788v28.787h-28.788z"/><path fill="#cec0fa" fill-rule="evenodd" d="M219.276 343.05h28.787v28.787h-28.787z"/><path stroke="#000" stroke-linecap="butt" stroke-linejoin="round" d="M219.276 343.05h28.787v28.787h-28.787z"/><path fill="#cec0fa" fill-rule="evenodd" d="M248.063 343.05h28.787v28.787h-28.787z"/><path stroke="#000" stroke-linecap="butt" stroke-linejoin="round" d="M248.063 343.05h28.787v28.787h-28.787z"/><path fill="#cec0fa" fill-rule="evenodd" d="M276.85 343.05h28.788v28.787H276.85Z"/><path stroke="#000" stroke-linecap="butt" stroke-linejoin="round" d="M276.85 343.05h28.788v28.787H276.85Z"/><path fill="#cec0fa" fill-rule="evenodd" d="M305.638 343.05h28.787v28.787h-28.787Z"/><path stroke="#000" stroke-linecap="butt" stroke-linejoin="round" d="M305.638 343.05h28.787v28.787h-28.787Z"/><path fill="#cec0fa" fill-rule="evenodd" d="M334.425 343.05h28.788v28.787h-28.788Z"/><path stroke="#000" stroke-linecap="butt" stroke-linejoin="round" d="M334.425 343.05h28.788v28.787h-28.788Z"/><path fill="#cec0fa" fill-rule="evenodd" d="M363.213 343.05H392v28.787h-28.787Z"/><path stroke="#000" stroke-linecap="butt" stroke-linejoin="round" d="M363.213 343.05H392v28.787h-28.787Z"/><path fill="#cec0fa" fill-rule="evenodd" d="M392 343.05h28.787v28.787H392Z"/><path stroke="#000" stroke-linecap="butt" stroke-linejoin="round" d="M392 343.05h28.787v28.787H392Z"/><path fill="#cec0fa" fill-rule="evenodd" d="M420.787 343.05h28.788v28.787h-28.788Z"/><path stroke="#000" stroke-linecap="butt" stroke-linejoin="round" d="M420.787 343.05h28.788v28.787h-28.788Z"/><path fill="#cec0fa" fill-rule="evenodd" d="M449.575 343.05h28.787v28.787h-28.787Z"/><path stroke="#000" stroke-linecap="butt" stroke-linejoin="round" d="M449.575 343.05h28.787v28.787h-28.787Z"/><path fill="#fff" fill-rule="evenodd" d="M478.362 343.05h28.788v28.787h-28.788Z"/><path stroke="#000" stroke-linecap="butt" stroke-linejoin="round" d="M478.362 343.05h28.788v28.787h-28.788Z"/><path fill="#fff" fill-rule="evenodd" d="M507.15 343.05h28.787v28.787H507.15Z"/><path stroke="#000" stroke-linecap="butt" stroke-linejoin="round" d="M507.15 343.05h28.787v28.787H507.15Z"/><path fill="#fff" fill-rule="evenodd" d="M535.937 343.05h28.787v28.787h-28.787Z"/><path stroke="#000" stroke-linecap="butt" stroke-linejoin="round" d="M535.937 343.05h28.787v28.787h-28.787Z"/><path fill="#fff" fill-rule="evenodd" d="M564.724 343.05h28.788v28.787h-28.788Z"/><path stroke="#000" stroke-linecap="butt" stroke-linejoin="round" d="M564.724 343.05h28.788v28.787h-28.788Z"/><path fill="#fff" fill-rule="evenodd" d="M593.512 343.05h28.787v28.787h-28.787z"/><path stroke="#000" stroke-linecap="butt" stroke-linejoin="round" d="M593.512 343.05h28.787v28.787h-28.787z"/><path fill="#cec0fa" fill-rule="evenodd" d="M161.7 371.837h28.788v28.788h-28.787z"/><path stroke="#000" stroke-linecap="butt" stroke-linejoin="round" d="M161.7 371.837h28.788v28.788h-28.787z"/><path fill="#cec0fa" fill-rule="evenodd" d="M190.488 371.837h28.788v28.788h-28.788z"/><path stroke="#000" stroke-linecap="butt" stroke-linejoin="round" d="M190.488 371.837h28.788v28.788h-28.788z"/><path fill="#cec0fa" fill-rule="evenodd" d="M219.276 371.837h28.787v28.788h-28.787z"/><path stroke="#000" stroke-linecap="butt" stroke-linejoin="round" d="M219.276 371.837h28.787v28.788h-28.787z"/><path fill="#cec0fa" fill-rule="evenodd" d="M248.063 371.837h28.787v28.788h-28.787z"/><path stroke="#000" stroke-linecap="butt" stroke-linejoin="round" d="M248.063 371.837h28.787v28.788h-28.787z"/><path fill="#cec0fa" fill-rule="evenodd" d="M276.85 371.837h28.788v28.788H276.85Z"/><path stroke="#000" stroke-linecap="butt" stroke-linejoin="round" d="M276.85 371.837h28.788v28.788H276.85Z"/><path fill="#cec0fa" fill-rule="evenodd" d="M305.638 371.837h28.787v28.788h-28.787Z"/><path stroke="#000" stroke-linecap="butt" stroke-linejoin="round" d="M305.638 371.837h28.787v28.788h-28.787Z"/><path fill="#cec0fa" fill-rule="evenodd" d="M334.425 371.837h28.788v28.788h-28.788Z"/><path stroke="#000" stroke-linecap="butt" stroke-linejoin="round" d="M334.425 371.837h28.788v28.788h-28.788Z"/><path fill="#cec0fa" fill-rule="evenodd" d="M363.213 371.837H392v28.788h-28.787Z"/><path stroke="#000" stroke-linecap="butt" stroke-linejoin="round" d="M363.213 371.837H392v28.788h-28.787Z"/><path fill="#cec0fa" fill-rule="evenodd" d="M392 371.837h28.787v28.788H392Z"/><path stroke="#000" stroke-linecap="butt" stroke-linejoin="round" d="M392 371.837h28.787v28.788H392Z"/><path fill="#cec0fa" fill-rule="evenodd" d="M420.787 371.837h28.788v28.788h-28.788Z"/><path stroke="#000" stroke-linecap="butt" stroke-linejoin="round" d="M420.787 371.837h28.788v28.788h-28.788Z"/><path fill="#cec0fa" fill-rule="evenodd" d="M449.575 371.837h28.787v28.788h-28.787Z"/><path stroke="#000" stroke-linecap="butt" stroke-linejoin="round" d="M449.575 371.837h28.787v28.788h-28.787Z"/><path fill="#cec0fa" fill-rule="evenodd" d="M478.362 371.837h28.788v28.788h-28.788Z"/><path stroke="#000" stroke-linecap="butt" stroke-linejoin="round" d="M478.362 371.837h28.788v28.788h-28.788Z"/><path fill="#fff" fill-rule="evenodd" d="M507.15 371.837h28.787v28.788H507.15Z"/><path stroke="#000" stroke-linecap="butt" stroke-linejoin="round" d="M507.15 371.837h28.787v28.788H507.15Z"/><path fill="#fff" fill-rule="evenodd" d="M535.937 371.837h28.787v28.788h-28.787Z"/><path stroke="#000" stroke-linecap="butt" stroke-linejoin="round" d="M535.937 371.837h28.787v28.788h-28.787Z"/><path fill="#fff" fill-rule="evenodd" d="M564.724 371.837h28.788v28.788h-28.788Z"/><path stroke="#000" stroke-linecap="butt" stroke-linejoin="round" d="M564.724 371.837h28.788v28.788h-28.788Z"/><path fill="#fff" fill-rule="evenodd" d="M593.512 371.837h28.787v28.788h-28.787z"/><path stroke="#000" stroke-linecap="butt" stroke-linejoin="round" d="M593.512 371.837h28.787v28.788h-28.787z"/><path fill="#e889ab" fill-rule="evenodd" d="M161.7 400.625h28.788v28.787h-28.787z"/><path stroke="#000" stroke-linecap="butt" stroke-linejoin="round" d="M161.7 400.625h28.788v28.787h-28.787z"/><path fill="#e889ab" fill-rule="evenodd" d="M190.488 400.625h28.788v28.787h-28.788z"/><path stroke="#000" stroke-linecap="butt" stroke-linejoin="round" d="M190.488 400.625h28.788v28.787h-28.788z"/><path fill="#e889ab" fill-rule="evenodd" d="M219.276 400.625h28.787v28.787h-28.787z"/><path stroke="#000" stroke-linecap="butt" stroke-linejoin="round" d="M219.276 400.625h28.787v28.787h-28.787z"/><path fill="#e889ab" fill-rule="evenodd" d="M248.063 400.625h28.787v28.787h-28.787z"/><path stroke="#000" stroke-linecap="butt" stroke-linejoin="round" d="M248.063 400.625h28.787v28.787h-28.787z"/><path fill="#e889ab" fill-rule="evenodd" d="M276.85 400.625h28.788v28.787H276.85Z"/><path stroke="#000" stroke-linecap="butt" stroke-linejoin="round" d="M276.85 400.625h28.788v28.787H276.85Z"/><path fill="#e889ab" fill-rule="evenodd" d="M305.638 400.625h28.787v28.787h-28.787Z"/><path stroke="#000" stroke-linecap="butt" stroke-linejoin="round" d="M305.638 400.625h28.787v28.787h-28.787Z"/><path fill="#e889ab" fill-rule="evenodd" d="M334.425 400.625h28.788v28.787h-28.788Z"/><path stroke="#000" stroke-linecap="butt" stroke-linejoin="round" d="M334.425 400.625h28.788v28.787h-28.788Z"/><path fill="#e889ab" fill-rule="evenodd" d="M363.213 400.625H392v28.787h-28.787Z"/><path stroke="#000" stroke-linecap="butt" stroke-linejoin="round" d="M363.213 400.625H392v28.787h-28.787Z"/><path fill="#e889ab" fill-rule="evenodd" d="M392 400.625h28.787v28.787H392Z"/><path stroke="#000" stroke-linecap="butt" stroke-linejoin="round" d="M392 400.625h28.787v28.787H392Z"/><path fill="#e889ab" fill-rule="evenodd" d="M420.787 400.625h28.788v28.787h-28.788Z"/><path stroke="#000" stroke-linecap="butt" stroke-linejoin="round" d="M420.787 400.625h28.788v28.787h-28.788Z"/><path fill="#e889ab" fill-rule="evenodd" d="M449.575 400.625h28.787v28.787h-28.787Z"/><path stroke="#000" stroke-linecap="butt" stroke-linejoin="round" d="M449.575 400.625h28.787v28.787h-28.787Z"/><path fill="#e889ab" fill-rule="evenodd" d="M478.362 400.625h28.788v28.787h-28.788Z"/><path stroke="#000" stroke-linecap="butt" stroke-linejoin="round" d="M478.362 400.625h28.788v28.787h-28.788Z"/><path fill="#e889ab" fill-rule="evenodd" d="M507.15 400.625h28.787v28.787H507.15Z"/><path stroke="#000" stroke-linecap="butt" stroke-linejoin="round" d="M507.15 400.625h28.787v28.787H507.15Z"/><path fill="#fff" fill-rule="evenodd" d="M535.937 400.625h28.787v28.787h-28.787Z"/><path stroke="#000" stroke-linecap="butt" stroke-linejoin="round" d="M535.937 400.625h28.787v28.787h-28.787Z"/><path fill="#fff" fill-rule="evenodd" d="M564.724 400.625h28.788v28.787h-28.788Z"/><path stroke="#000" stroke-linecap="butt" stroke-linejoin="round" d="M564.724 400.625h28.788v28.787h-28.788Z"/><path fill="#fff" fill-rule="evenodd" d="M593.512 400.625h28.787v28.787h-28.787z"/><path stroke="#000" stroke-linecap="butt" stroke-linejoin="round" d="M593.512 400.625h28.787v28.787h-28.787z"/><path fill="#e889ab" fill-rule="evenodd" d="M161.7 429.412h28.788V458.2h-28.787z"/><path stroke="#000" stroke-linecap="butt" stroke-linejoin="round" d="M161.7 429.412h28.788V458.2h-28.787z"/><path fill="#e889ab" fill-rule="evenodd" d="M190.488 429.412h28.788V458.2h-28.788z"/><path stroke="#000" stroke-linecap="butt" stroke-linejoin="round" d="M190.488 429.412h28.788V458.2h-28.788z"/><path fill="#e889ab" fill-rule="evenodd" d="M219.276 429.412h28.787V458.2h-28.787z"/><path stroke="#000" stroke-linecap="butt" stroke-linejoin="round" d="M219.276 429.412h28.787V458.2h-28.787z"/><path fill="#e889ab" fill-rule="evenodd" d="M248.063 429.412h28.787V458.2h-28.787z"/><path stroke="#000" stroke-linecap="butt" stroke-linejoin="round" d="M248.063 429.412h28.787V458.2h-28.787z"/><path fill="#e889ab" fill-rule="evenodd" d="M276.85 429.412h28.788V458.2H276.85Z"/><path stroke="#000" stroke-linecap="butt" stroke-linejoin="round" d="M276.85 429.412h28.788V458.2H276.85Z"/><path fill="#e889ab" fill-rule="evenodd" d="M305.638 429.412h28.787V458.2h-28.787Z"/><path stroke="#000" stroke-linecap="butt" stroke-linejoin="round" d="M305.638 429.412h28.787V458.2h-28.787Z"/><path fill="#e889ab" fill-rule="evenodd" d="M334.425 429.412h28.788V458.2h-28.788Z"/><path stroke="#000" stroke-linecap="butt" stroke-linejoin="round" d="M334.425 429.412h28.788V458.2h-28.788Z"/><path fill="#e889ab" fill-rule="evenodd" d="M363.213 429.412H392V458.2h-28.787Z"/><path stroke="#000" stroke-linecap="butt" stroke-linejoin="round" d="M363.213 429.412H392V458.2h-28.787Z"/><path fill="#e889ab" fill-rule="evenodd" d="M392 429.412h28.787V458.2H392Z"/><path stroke="#000" stroke-linecap="butt" stroke-linejoin="round" d="M392 429.412h28.787V458.2H392Z"/><path fill="#e889ab" fill-rule="evenodd" d="M420.787 429.412h28.788V458.2h-28.788Z"/><path stroke="#000" stroke-linecap="butt" stroke-linejoin="round" d="M420.787 429.412h28.788V458.2h-28.788Z"/><path fill="#e889ab" fill-rule="evenodd" d="M449.575 429.412h28.787V458.2h-28.787Z"/><path stroke="#000" stroke-linecap="butt" stroke-linejoin="round" d="M449.575 429.412h28.787V458.2h-28.787Z"/><path fill="#e889ab" fill-rule="evenodd" d="M478.362 429.412h28.788V458.2h-28.788Z"/><path stroke="#000" stroke-linecap="butt" stroke-linejoin="round" d="M478.362 429.412h28.788V458.2h-28.788Z"/><path fill="#e889ab" fill-rule="evenodd" d="M507.15 429.412h28.787V458.2H507.15Z"/><path stroke="#000" stroke-linecap="butt" stroke-linejoin="round" d="M507.15 429.412h28.787V458.2H507.15Z"/><path fill="#e889ab" fill-rule="evenodd" d="M535.937 429.412h28.787V458.2h-28.787Z"/><path stroke="#000" stroke-linecap="butt" stroke-linejoin="round" d="M535.937 429.412h28.787V458.2h-28.787Z"/><path fill="#fff" fill-rule="evenodd" d="M564.724 429.412h28.788V458.2h-28.788Z"/><path stroke="#000" stroke-linecap="butt" stroke-linejoin="round" d="M564.724 429.412h28.788V458.2h-28.788Z"/><path fill="#fff" fill-rule="evenodd" d="M593.512 429.412h28.787V458.2h-28.787z"/><path stroke="#000" stroke-linecap="butt" stroke-linejoin="round" d="M593.512 429.412h28.787V458.2h-28.787z"/><path fill="#4ea5b7" fill-rule="evenodd" d="M161.7 458.2h28.788v28.787h-28.787z"/><path stroke="#000" stroke-linecap="butt" stroke-linejoin="round" d="M161.7 458.2h28.788v28.787h-28.787z"/><path fill="#4ea5b7" fill-rule="evenodd" d="M190.488 458.2h28.788v28.787h-28.788z"/><path stroke="#000" stroke-linecap="butt" stroke-linejoin="round" d="M190.488 458.2h28.788v28.787h-28.788z"/><path fill="#4ea5b7" fill-rule="evenodd" d="M219.276 458.2h28.787v28.787h-28.787z"/><path stroke="#000" stroke-linecap="butt" stroke-linejoin="round" d="M219.276 458.2h28.787v28.787h-28.787z"/><path fill="#4ea5b7" fill-rule="evenodd" d="M248.063 458.2h28.787v28.787h-28.787z"/><path stroke="#000" stroke-linecap="butt" stroke-linejoin="round" d="M248.063 458.2h28.787v28.787h-28.787z"/><path fill="#4ea5b7" fill-rule="evenodd" d="M276.85 458.2h28.788v28.787H276.85Z"/><path stroke="#000" stroke-linecap="butt" stroke-linejoin="round" d="M276.85 458.2h28.788v28.787H276.85Z"/><path fill="#4ea5b7" fill-rule="evenodd" d="M305.638 458.2h28.787v28.787h-28.787Z"/><path stroke="#000" stroke-linecap="butt" stroke-linejoin="round" d="M305.638 458.2h28.787v28.787h-28.787Z"/><path fill="#4ea5b7" fill-rule="evenodd" d="M334.425 458.2h28.788v28.787h-28.788Z"/><path stroke="#000" stroke-linecap="butt" stroke-linejoin="round" d="M334.425 458.2h28.788v28.787h-28.788Z"/><path fill="#4ea5b7" fill-rule="evenodd" d="M363.213 458.2H392v28.787h-28.787Z"/><path stroke="#000" stroke-linecap="butt" stroke-linejoin="round" d="M363.213 458.2H392v28.787h-28.787Z"/><path fill="#4ea5b7" fill-rule="evenodd" d="M392 458.2h28.787v28.787H392Z"/><path stroke="#000" stroke-linecap="butt" stroke-linejoin="round" d="M392 458.2h28.787v28.787H392Z"/><path fill="#4ea5b7" fill-rule="evenodd" d="M420.787 458.2h28.788v28.787h-28.788Z"/><path stroke="#000" stroke-linecap="butt" stroke-linejoin="round" d="M420.787 458.2h28.788v28.787h-28.788Z"/><path fill="#4ea5b7" fill-rule="evenodd" d="M449.575 458.2h28.787v28.787h-28.787Z"/><path stroke="#000" stroke-linecap="butt" stroke-linejoin="round" d="M449.575 458.2h28.787v28.787h-28.787Z"/><path fill="#4ea5b7" fill-rule="evenodd" d="M478.362 458.2h28.788v28.787h-28.788Z"/><path stroke="#000" stroke-linecap="butt" stroke-linejoin="round" d="M478.362 458.2h28.788v28.787h-28.788Z"/><path fill="#4ea5b7" fill-rule="evenodd" d="M507.15 458.2h28.787v28.787H507.15Z"/><path stroke="#000" stroke-linecap="butt" stroke-linejoin="round" d="M507.15 458.2h28.787v28.787H507.15Z"/><path fill="#4ea5b7" fill-rule="evenodd" d="M535.937 458.2h28.787v28.787h-28.787Z"/><path stroke="#000" stroke-linecap="butt" stroke-linejoin="round" d="M535.937 458.2h28.787v28.787h-28.787Z"/><path fill="#4ea5b7" fill-rule="evenodd" d="M564.724 458.2h28.788v28.787h-28.788Z"/><path stroke="#000" stroke-linecap="butt" stroke-linejoin="round" d="M564.724 458.2h28.788v28.787h-28.788Z"/><path fill="#fff" fill-rule="evenodd" d="M593.512 458.2h28.787v28.787h-28.787z"/><path stroke="#000" stroke-linecap="butt" stroke-linejoin="round" d="M593.512 458.2h28.787v28.787h-28.787z"/><path fill="#4ea5b7" fill-rule="evenodd" d="M161.7 486.987h28.788v28.787h-28.787z"/><path stroke="#000" stroke-linecap="butt" stroke-linejoin="round" d="M161.7 486.987h28.788v28.787h-28.787z"/><path fill="#4ea5b7" fill-rule="evenodd" d="M190.488 486.987h28.788v28.787h-28.788z"/><path stroke="#000" stroke-linecap="butt" stroke-linejoin="round" d="M190.488 486.987h28.788v28.787h-28.788z"/><path fill="#4ea5b7" fill-rule="evenodd" d="M219.276 486.987h28.787v28.787h-28.787z"/><path stroke="#000" stroke-linecap="butt" stroke-linejoin="round" d="M219.276 486.987h28.787v28.787h-28.787z"/><path fill="#4ea5b7" fill-rule="evenodd" d="M248.063 486.987h28.787v28.787h-28.787z"/><path stroke="#000" stroke-linecap="butt" stroke-linejoin="round" d="M248.063 486.987h28.787v28.787h-28.787z"/><path fill="#4ea5b7" fill-rule="evenodd" d="M276.85 486.987h28.788v28.787H276.85Z"/><path stroke="#000" stroke-linecap="butt" stroke-linejoin="round" d="M276.85 486.987h28.788v28.787H276.85Z"/><path fill="#4ea5b7" fill-rule="evenodd" d="M305.638 486.987h28.787v28.787h-28.787Z"/><path stroke="#000" stroke-linecap="butt" stroke-linejoin="round" d="M305.638 486.987h28.787v28.787h-28.787Z"/><path fill="#4ea5b7" fill-rule="evenodd" d="M334.425 486.987h28.788v28.787h-28.788Z"/><path stroke="#000" stroke-linecap="butt" stroke-linejoin="round" d="M334.425 486.987h28.788v28.787h-28.788Z"/><path fill="#4ea5b7" fill-rule="evenodd" d="M363.213 486.987H392v28.787h-28.787Z"/><path stroke="#000" stroke-linecap="butt" stroke-linejoin="round" d="M363.213 486.987H392v28.787h-28.787Z"/><path fill="#4ea5b7" fill-rule="evenodd" d="M392 486.987h28.787v28.787H392Z"/><path stroke="#000" stroke-linecap="butt" stroke-linejoin="round" d="M392 486.987h28.787v28.787H392Z"/><path fill="#4ea5b7" fill-rule="evenodd" d="M420.787 486.987h28.788v28.787h-28.788Z"/><path stroke="#000" stroke-linecap="butt" stroke-linejoin="round" d="M420.787 486.987h28.788v28.787h-28.788Z"/><path fill="#4ea5b7" fill-rule="evenodd" d="M449.575 486.987h28.787v28.787h-28.787Z"/><path stroke="#000" stroke-linecap="butt" stroke-linejoin="round" d="M449.575 486.987h28.787v28.787h-28.787Z"/><path fill="#4ea5b7" fill-rule="evenodd" d="M478.362 486.987h28.788v28.787h-28.788Z"/><path stroke="#000" stroke-linecap="butt" stroke-linejoin="round" d="M478.362 486.987h28.788v28.787h-28.788Z"/><path fill="#4ea5b7" fill-rule="evenodd" d="M507.15 486.987h28.787v28.787H507.15Z"/><path stroke="#000" stroke-linecap="butt" stroke-linejoin="round" d="M507.15 486.987h28.787v28.787H507.15Z"/><path fill="#4ea5b7" fill-rule="evenodd" d="M535.937 486.987h28.787v28.787h-28.787Z"/><path stroke="#000" stroke-linecap="butt" stroke-linejoin="round" d="M535.937 486.987h28.787v28.787h-28.787Z"/><path fill="#4ea5b7" fill-rule="evenodd" d="M564.724 486.987h28.788v28.787h-28.788Z"/><path stroke="#000" stroke-linecap="butt" stroke-linejoin="round" d="M564.724 486.987h28.788v28.787h-28.788Z"/><path fill="#4ea5b7" fill-rule="evenodd" d="M593.512 486.987h28.787v28.787h-28.787z"/><path stroke="#000" stroke-linecap="butt" stroke-linejoin="round" d="M593.512 486.987h28.787v28.787h-28.787z"/><path d="M126.241 60.688h28.788V78.45H126.24z"/><path fill="#000" d="M149.625 64.236h2.063v10.532h-1.047v-9.5h-1.656z"/><path d="M126.241 89.475h28.788v17.764H126.24z"/><path fill="#000" d="M148.61 96.32h-1.016q.047-1.546 1.047-2.546 1-1.016 2.453-1.016t2.344.938q.906.937.906 2.218 0 .891-.438 1.672-.421.782-1.656 2.125l-2.61 2.828h4.845v1.016h-7.141l4.016-4.344q1.234-1.312 1.593-1.937.375-.64.375-1.344 0-.89-.672-1.531-.656-.64-1.609-.64-1.016 0-1.687.687-.657.672-.75 1.875"/><path d="M126.241 118.262h28.788v17.764H126.24z"/><path fill="#000" d="M148.844 124.249h-1.078q.297-1.297 1.125-2t1.969-.703q.812 0 1.53.375.72.375 1.11 1.015t.39 1.328q0 1.36-1.359 2.157.766.312 1.25.906.688.844.688 1.875 0 .89-.484 1.703-.47.812-1.282 1.266-.812.437-1.828.437-1.36 0-2.265-.781-.907-.781-1.188-2.297h1.031q.266 1.016.782 1.469.656.578 1.656.578 1.14 0 1.828-.672.703-.688.703-1.625 0-.61-.344-1.14-.343-.548-.937-.813-.578-.266-1.797-.344v-.953q.719 0 1.312-.25.594-.266.86-.656.265-.39.265-.86 0-.687-.546-1.187-.547-.5-1.375-.5-.688 0-1.188.39-.484.375-.828 1.282"/><path d="M126.241 147.05h28.788v17.764H126.24z"/><path fill="#000" d="M153.14 150.333h.22v7.344h1.28v1h-1.28v2.453h-1.047v-2.453h-5.032zm-.827 7.344v-4.39l-3.11 4.39z"/><path d="M126.241 175.837h28.788v17.764H126.24z"/><path fill="#000" d="M154.11 179.386v1h-3.75l-.516 2.875q.687-.203 1.234-.203 1.438 0 2.375.969.938.953.938 2.468 0 1.032-.485 1.907-.484.859-1.312 1.328-.813.453-1.875.453-1.281 0-2.172-.781-.875-.782-1.047-2.032h1.078q.125.61.407.985.296.375.78.61t1.016.234q1.032 0 1.766-.782.75-.797.75-1.968 0-1.063-.672-1.735t-1.797-.672q-.922 0-2.25.578l.969-5.234z"/><path d="M126.241 204.625h28.788v17.763H126.24z"/><path fill="#000" d="m152.281 207.908.86.578-2.828 4.297q.562-.188 1.062-.188 1.25 0 2.125.907.875.906.875 2.218 0 .922-.422 1.657-.422.734-1.203 1.171-.765.422-1.672.422-.86 0-1.61-.422-.733-.421-1.155-1.171-.422-.766-.422-1.625 0-.641.265-1.36.266-.719.938-1.719zm-1.156 5.61q-.906 0-1.562.655-.641.641-.641 1.563t.64 1.562q.657.641 1.563.641.922 0 1.563-.64.656-.641.656-1.563t-.656-1.563q-.641-.656-1.563-.656"/><path d="M126.241 233.412h28.788v17.764H126.24z"/><path fill="#000" d="M147.953 236.96h6.688L149 247.759l-.86-.438 4.86-9.36h-5.048z"/><path d="M126.241 262.2h28.788v17.763H126.24z"/><path fill="#000" d="M152.531 270.498q1.079.531 1.532 1.219.468.672.468 1.547 0 1.219-.796 2.14-.97 1.141-2.782 1.141-1.75 0-2.656-1-.89-1-.89-2.203 0-.875.468-1.578t1.578-1.266q-.781-.39-1.172-.984-.375-.594-.375-1.281 0-.688.407-1.344t1.125-1.031q.734-.375 1.578-.375.828 0 1.531.39.703.375 1.094 1.031.406.641.406 1.36t-.375 1.281q-.375.547-1.14.953m-1.562-3.984q-.86 0-1.438.515-.562.5-.562 1.22 0 .702.61 1.265.609.562 1.421.562.531 0 .985-.25.468-.265.734-.703.266-.453.266-.906 0-.625-.516-1.156-.516-.547-1.5-.547m.047 4.515q-1.078 0-1.828.72-.735.702-.735 1.64 0 .578.313 1.094.328.515.89.796.563.266 1.313.266 1.14 0 1.812-.672.688-.687.688-1.594 0-.875-.719-1.562t-1.734-.688"/><path d="M126.241 290.987h28.788v17.764H126.24z"/><path fill="#000" d="m149.719 305.333-.86-.563 2.829-4.297q-.563.172-1.063.172-1.25 0-2.125-.89-.875-.907-.875-2.235 0-.906.422-1.64.422-.735 1.188-1.173.78-.437 1.671-.437.875 0 1.61.422.75.422 1.172 1.187.422.75.422 1.61 0 .656-.266 1.375-.266.703-.938 1.703zm1.14-5.61q.922 0 1.563-.64.656-.657.656-1.563 0-.922-.656-1.562-.64-.657-1.562-.657-.907 0-1.563.656-.64.641-.64 1.563 0 .906.64 1.563.656.64 1.563.64"/><path d="M126.241 319.774h28.788v17.764H126.24z"/><path fill="#000" d="M141.503 323.323h2.062v10.531h-1.047v-9.5h-1.656zm5.872 5.266q0-2.078.438-3.22.453-1.14 1.265-1.718.813-.594 1.828-.594 1.032 0 1.86.594t1.312 1.781q.485 1.172.485 3.157 0 1.984-.485 3.156-.468 1.172-1.312 1.781-.828.594-1.86.594-1.015 0-1.828-.578-.797-.578-1.25-1.719-.453-1.156-.453-3.234m.985.03q0 1.782.312 2.704.328.906.953 1.375t1.313.469q.703 0 1.312-.453.61-.47.922-1.391.39-1.125.39-2.703 0-1.594-.343-2.61t-.969-1.484-1.312-.469q-.703 0-1.313.47-.61.468-.937 1.39-.328.906-.328 2.703"/><path d="M126.241 348.562h28.788v17.763H126.24z"/><path fill="#000" d="M141.503 352.11h2.062v10.532h-1.047v-9.5h-1.656zm8.122 0h2.063v10.532h-1.047v-9.5h-1.656z"/><path d="M126.241 377.35h28.788v17.763H126.24z"/><path fill="#000" d="M141.503 380.898h2.062v10.531h-1.047v-9.5h-1.656zm7.107 3.297h-1.016q.047-1.547 1.047-2.547 1-1.016 2.453-1.016t2.344.938q.906.937.906 2.218 0 .891-.438 1.672-.421.782-1.656 2.125l-2.61 2.828h4.845v1.016h-7.141l4.016-4.344q1.234-1.312 1.593-1.937.375-.64.375-1.344 0-.89-.672-1.531-.656-.64-1.609-.64-1.016 0-1.687.687-.657.672-.75 1.875"/><path d="M126.241 406.136h28.788V423.9H126.24z"/><path fill="#000" d="M141.503 409.685h2.062v10.531h-1.047v-9.5h-1.656zm7.34 2.438h-1.077q.297-1.297 1.125-2t1.969-.703q.812 0 1.53.375.72.375 1.11 1.015t.39 1.328q0 1.36-1.359 2.157.766.312 1.25.906.688.844.688 1.875 0 .89-.484 1.703-.47.812-1.282 1.266-.812.437-1.828.437-1.36 0-2.265-.781-.907-.781-1.188-2.297h1.031q.266 1.016.782 1.469.656.578 1.656.578 1.14 0 1.828-.672.703-.688.703-1.625 0-.61-.344-1.14-.343-.548-.937-.813-.578-.266-1.797-.344v-.953q.719 0 1.312-.25.594-.266.86-.656.265-.39.265-.86 0-.687-.546-1.187-.547-.5-1.375-.5-.688 0-1.188.39-.484.375-.828 1.282"/><path d="M126.241 434.924h28.788v17.764H126.24z"/><path fill="#000" d="M141.503 438.473h2.062v10.53h-1.047v-9.5h-1.656zm11.638-.266h.219v7.344h1.28v1h-1.28v2.453h-1.047v-2.453h-5.032zm-.828 7.344v-4.39l-3.11 4.39z"/><path d="M126.241 463.711h28.788v17.764H126.24z"/><path fill="#000" d="M141.503 467.26h2.062v10.531h-1.047v-9.5h-1.656zm12.607 0v1h-3.75l-.516 2.875q.687-.203 1.234-.203 1.438 0 2.375.969.938.953.938 2.468 0 1.032-.485 1.907-.484.859-1.312 1.328-.813.453-1.875.453-1.281 0-2.172-.781-.875-.782-1.047-2.032h1.078q.125.61.407.985.296.375.78.61t1.016.234q1.032 0 1.766-.782.75-.797.75-1.968 0-1.063-.672-1.735t-1.797-.672q-.922 0-2.25.578l.969-5.234z"/><path d="M126.241 492.499h28.788v17.763H126.24z"/><path fill="#000" d="M141.503 496.047h2.062v10.532h-1.047v-9.5h-1.656zm10.778-.265.86.578-2.828 4.297q.562-.188 1.062-.188 1.25 0 2.125.907.875.906.875 2.218 0 .922-.422 1.657-.422.734-1.203 1.171-.765.422-1.672.422-.86 0-1.61-.422-.733-.421-1.155-1.171-.422-.766-.422-1.625 0-.641.265-1.36.266-.719.938-1.719zm-1.156 5.61q-.906 0-1.562.655-.641.641-.641 1.563t.64 1.562q.657.641 1.563.641.922 0 1.563-.64.656-.641.656-1.563t-.656-1.563q-.641-.656-1.563-.656"/><path d="M161.701 516.726h28.787v17.763h-28.787z"/><path fill="#000" d="M174.752 520.274h2.063v10.532h-1.047v-9.5h-1.656z"/><path d="M190.488 516.724h28.788v17.764h-28.788z"/><path fill="#000" d="M202.524 523.57h-1.016q.047-1.547 1.047-2.547 1-1.015 2.453-1.015t2.344.937q.906.938.906 2.219 0 .89-.437 1.672-.422.78-1.657 2.125l-2.609 2.828h4.844v1.015h-7.14l4.015-4.343q1.234-1.313 1.594-1.938.375-.64.375-1.344 0-.89-.672-1.53-.657-.641-1.61-.641-1.015 0-1.687.687-.656.672-.75 1.875"/><path d="M219.276 516.724h28.787v17.764h-28.787z"/><path fill="#000" d="M231.546 522.71h-1.079q.297-1.296 1.125-2 .829-.702 1.97-.702.812 0 1.53.375.72.375 1.11 1.015t.39 1.328q0 1.36-1.359 2.157.766.312 1.25.906.688.844.688 1.875 0 .89-.485 1.703-.469.812-1.281 1.266-.813.437-1.828.437-1.36 0-2.266-.781t-1.187-2.297h1.03q.267 1.016.782 1.469.656.578 1.656.578 1.141 0 1.829-.672.703-.688.703-1.625 0-.61-.344-1.14-.344-.548-.938-.813-.578-.266-1.796-.344v-.953q.718 0 1.312-.25.594-.266.86-.656.265-.391.265-.86 0-.687-.547-1.187t-1.375-.5q-.687 0-1.187.39-.485.375-.828 1.282"/><path d="M248.063 516.724h28.787v17.764h-28.787z"/><path fill="#000" d="M264.63 520.008h.219v7.343h1.28v1h-1.28v2.453h-1.047v-2.453h-5.032zm-.828 7.343v-4.39l-3.11 4.39z"/><path d="M276.85 516.724h28.788v17.764H276.85Z"/><path fill="#000" d="M294.386 520.273v1h-3.75l-.516 2.875q.688-.203 1.235-.203 1.437 0 2.375.969.937.953.937 2.469 0 1.03-.484 1.906-.484.86-1.313 1.328-.812.453-1.875.453-1.28 0-2.171-.781-.875-.781-1.047-2.031h1.078q.125.609.406.984.297.375.781.61t1.016.234q1.031 0 1.766-.782.75-.796.75-1.968 0-1.063-.672-1.735t-1.797-.672q-.922 0-2.25.579l.969-5.235z"/><path d="M305.638 516.724h28.787v17.764h-28.787Z"/><path fill="#000" d="m321.345 520.008.86.578-2.828 4.297q.562-.188 1.062-.188 1.25 0 2.125.906.875.907.875 2.219 0 .922-.422 1.656-.422.735-1.203 1.172-.766.422-1.672.422-.86 0-1.61-.422-.734-.422-1.155-1.172-.422-.765-.422-1.625 0-.64.265-1.36.266-.718.938-1.718zm-1.156 5.609q-.906 0-1.562.656-.641.64-.641 1.563t.64 1.562q.657.64 1.563.64.922 0 1.563-.64.656-.64.656-1.562t-.656-1.563q-.641-.656-1.563-.656"/><path d="M334.425 516.724h28.788v17.764h-28.788Z"/><path fill="#000" d="M345.805 520.273h6.687l-5.64 10.797-.86-.437 4.86-9.36h-5.047z"/><path d="M363.213 516.724H392v17.764h-28.787Z"/><path fill="#000" d="M379.17 525.023q1.078.531 1.531 1.219.469.672.469 1.547 0 1.219-.797 2.14-.969 1.141-2.781 1.141-1.75 0-2.656-1-.891-1-.891-2.203 0-.875.469-1.578t1.578-1.266q-.781-.39-1.172-.984-.375-.594-.375-1.281 0-.688.406-1.344t1.125-1.031q.735-.375 1.578-.375.829 0 1.532.39.703.375 1.093 1.031.407.641.407 1.36t-.375 1.281q-.375.547-1.141.953m-1.562-3.984q-.86 0-1.438.515-.562.5-.562 1.22 0 .702.609 1.265.61.562 1.422.562.531 0 .984-.25.469-.265.735-.703.265-.453.265-.906 0-.625-.515-1.156-.516-.547-1.5-.547m.046 4.515q-1.078 0-1.828.72-.734.702-.734 1.64 0 .578.312 1.094.329.515.891.796.563.266 1.313.266 1.14 0 1.812-.672.688-.687.688-1.594 0-.875-.72-1.562-.718-.688-1.734-.688"/><path d="M392 516.724h28.787v17.764H392Z"/><path fill="#000" d="m405.145 531.07-.86-.562 2.829-4.297q-.563.172-1.063.172-1.25 0-2.125-.891-.875-.906-.875-2.234 0-.907.422-1.641t1.188-1.172q.78-.437 1.671-.437.875 0 1.61.421.75.422 1.172 1.188.422.75.422 1.61 0 .656-.266 1.374-.266.703-.938 1.703zm1.14-5.61q.922 0 1.563-.64.656-.656.656-1.562 0-.922-.656-1.563-.64-.656-1.562-.656-.907 0-1.563.656-.64.64-.64 1.563 0 .906.64 1.562.656.64 1.563.64"/><path d="M420.787 516.724h28.788v17.764h-28.788Z"/><path fill="#000" d="M429.777 520.273h2.063v10.531h-1.047v-9.5h-1.656zm5.873 5.266q0-2.078.437-3.219.453-1.14 1.266-1.719.812-.593 1.828-.593 1.031 0 1.86.593.828.594 1.312 1.782.484 1.171.484 3.156 0 1.984-.484 3.156-.469 1.172-1.313 1.781-.828.594-1.859.594-1.016 0-1.828-.578-.797-.578-1.25-1.719-.453-1.156-.453-3.234m.984.031q0 1.781.313 2.703.328.906.953 1.375t1.312.469q.703 0 1.313-.453.61-.469.922-1.39.39-1.126.39-2.704 0-1.594-.343-2.61t-.97-1.484-1.312-.469q-.703 0-1.312.47-.61.468-.938 1.39-.328.906-.328 2.703"/><path d="M449.575 516.724h28.787v17.764h-28.787Z"/><path fill="#000" d="M458.565 520.273h2.062v10.531h-1.047v-9.5h-1.656zm8.122 0h2.063v10.531h-1.047v-9.5h-1.656z"/><path d="M478.362 516.724h28.788v17.764h-28.788Z"/><path fill="#000" d="M487.352 520.273h2.063v10.531h-1.047v-9.5h-1.656zm7.107 3.297h-1.016q.047-1.547 1.047-2.547 1-1.015 2.453-1.015 1.454 0 2.344.937.906.938.906 2.219 0 .89-.437 1.672-.422.78-1.656 2.125l-2.61 2.828h4.844v1.015h-7.14l4.015-4.343q1.234-1.313 1.594-1.938.375-.64.375-1.344 0-.89-.672-1.53-.656-.641-1.61-.641-1.015 0-1.687.687-.656.672-.75 1.875"/><path d="M507.15 516.724h28.787v17.764H507.15Z"/><path fill="#000" d="M516.14 520.273h2.062v10.531h-1.047v-9.5H515.5zm7.34 2.438h-1.077q.297-1.297 1.125-2t1.968-.703q.813 0 1.532.375.718.375 1.11 1.015.39.64.39 1.328 0 1.36-1.36 2.157.766.312 1.25.906.688.844.688 1.875 0 .89-.485 1.703-.468.812-1.28 1.266-.813.437-1.829.437-1.36 0-2.266-.781t-1.187-2.297h1.031q.266 1.016.781 1.469.657.578 1.657.578 1.14 0 1.828-.672.703-.688.703-1.625 0-.61-.344-1.14-.344-.548-.937-.813-.578-.266-1.797-.344v-.953q.719 0 1.312-.25.594-.266.86-.656.265-.391.265-.86 0-.687-.547-1.187-.546-.5-1.375-.5-.687 0-1.187.39-.484.375-.828 1.282"/><path d="M535.937 516.724h28.787v17.764h-28.787Z"/><path fill="#000" d="M544.927 520.273h2.063v10.531h-1.047v-9.5h-1.657zm11.638-.265h.219v7.343h1.281v1h-1.281v2.453h-1.047v-2.453h-5.031zm-.828 7.343v-4.39l-3.11 4.39z"/><path d="M564.724 516.724h28.788v17.764h-28.788Z"/><path fill="#000" d="M573.714 520.273h2.063v10.531h-1.047v-9.5h-1.656zm12.607 0v1h-3.75l-.515 2.875q.687-.203 1.234-.203 1.437 0 2.375.969.937.953.937 2.469 0 1.03-.484 1.906-.484.86-1.312 1.328-.813.453-1.875.453-1.282 0-2.172-.781-.875-.781-1.047-2.031h1.078q.125.609.406.984.297.375.781.61t1.016.234q1.031 0 1.766-.782.75-.796.75-1.968 0-1.063-.672-1.735t-1.797-.672q-.922 0-2.25.579l.969-5.235z"/><path d="M593.512 516.724h28.787v17.764h-28.787z"/><path fill="#000" d="M602.502 520.273h2.062v10.531h-1.047v-9.5h-1.656zm10.779-.265.859.578-2.828 4.297q.562-.188 1.062-.188 1.25 0 2.125.906.875.907.875 2.219 0 .922-.422 1.656-.421.735-1.203 1.172-.765.422-1.672.422-.859 0-1.609-.422-.734-.422-1.156-1.172-.422-.765-.422-1.625 0-.64.266-1.36.265-.718.937-1.718zm-1.157 5.609q-.906 0-1.562.656-.64.64-.64 1.563t.64 1.562q.656.64 1.562.64.922 0 1.563-.64.656-.64.656-1.562t-.656-1.563q-.64-.656-1.563-.656"/><path fill="#4ea5b7" fill-rule="evenodd" d="M643.971 93.538h96v28.787h-96z"/><path stroke="#000" stroke-linecap="butt" stroke-linejoin="round" d="M643.971 93.538h96v28.787h-96z"/><path fill="#000" d="m679.018 103.696-1.046.984q-1.125-1.094-2.454-1.656-1.328-.578-2.593-.578-1.578 0-3.016.78-1.422.766-2.203 2.095-.781 1.328-.781 2.796 0 1.516.812 2.875.813 1.36 2.235 2.141 1.437.781 3.14.781 2.063 0 3.485-1.156 1.437-1.172 1.703-3.031h-4.266v-1.297h5.766q-.016 3.11-1.844 4.937-1.828 1.829-4.875 1.829-3.719 0-5.89-2.547-1.673-1.938-1.673-4.5 0-1.907.954-3.547.968-1.64 2.625-2.563 1.671-.922 3.78-.922 1.704 0 3.204.625 1.5.61 2.937 1.954m3.332-2.25h2.672q2.297 0 3.094.203 1.14.28 1.875 1.172.734.875.734 2.203 0 1.343-.718 2.218-.703.86-1.953 1.157-.922.218-3.407.218h-.968v6.235h-1.329zm1.329 1.312v4.547l2.28.031q1.376 0 2-.25.641-.25 1-.812.376-.563.376-1.25 0-.672-.375-1.235-.36-.562-.953-.797-.594-.234-1.953-.234zm9.76-1.312h1.343v8.093q0 1.438.047 1.797.11.797.468 1.328.375.532 1.125.89.75.36 1.516.36.672 0 1.281-.281.61-.281 1.016-.781t.61-1.219q.124-.5.124-2.094v-8.093h1.344v8.093q0 1.797-.36 2.907-.343 1.109-1.39 1.937-1.047.813-2.547.813-1.625 0-2.781-.782-1.156-.781-1.547-2.047-.25-.78-.25-2.828zm19.161 0h2.625v13.406h-1.328v-12.094h-2.094z"/><path fill="#e889ab" fill-rule="evenodd" d="M643.971 208.688h96v28.787h-96z"/><path stroke="#000" stroke-linecap="butt" stroke-linejoin="round" d="M643.971 208.688h96v28.787h-96z"/><path fill="#000" d="m679.018 218.845-1.046.984q-1.125-1.093-2.454-1.656-1.328-.578-2.593-.578-1.578 0-3.016.781-1.422.766-2.203 2.094t-.781 2.797q0 1.516.812 2.875.813 1.36 2.235 2.14 1.437.782 3.14.782 2.063 0 3.485-1.156 1.437-1.172 1.703-3.032h-4.266v-1.297h5.766q-.016 3.11-1.844 4.938t-4.875 1.828q-3.719 0-5.89-2.547-1.673-1.937-1.673-4.5 0-1.906.954-3.547.968-1.64 2.625-2.562 1.671-.922 3.78-.922 1.704 0 3.204.625 1.5.61 2.937 1.953m3.332-2.25h2.672q2.297 0 3.094.203 1.14.281 1.875 1.172.734.875.734 2.203 0 1.344-.718 2.219-.703.86-1.953 1.156-.922.219-3.407.219h-.968v6.234h-1.329zm1.329 1.313v4.546l2.28.032q1.376 0 2-.25.641-.25 1-.813.376-.562.376-1.25 0-.672-.375-1.234-.36-.563-.953-.797-.594-.234-1.953-.234zm9.76-1.313h1.343v8.094q0 1.437.047 1.797.11.797.468 1.328.375.531 1.125.89.75.36 1.516.36.672 0 1.281-.281.61-.282 1.016-.782t.61-1.218q.124-.5.124-2.094v-8.094h1.344v8.094q0 1.797-.36 2.906-.343 1.11-1.39 1.938-1.047.812-2.547.812-1.625 0-2.781-.781t-1.547-2.047q-.25-.781-.25-2.828zm17.864 4.203h-1.28q.046-1.984 1.312-3.25 1.28-1.281 3.156-1.281 1.844 0 2.984 1.203 1.14 1.188 1.14 2.797 0 1.14-.546 2.14-.547 1-2.11 2.704l-3.343 3.593h6.187v1.297h-9.093l5.109-5.53q1.563-1.673 2.031-2.47.469-.812.469-1.703 0-1.125-.844-1.937-.844-.828-2.062-.828-1.282 0-2.14.859-.845.86-.97 2.406"/><path fill="#cec0fa" fill-rule="evenodd" d="M643.971 323.837h96v28.788h-96z"/><path stroke="#000" stroke-linecap="butt" stroke-linejoin="round" d="M643.971 323.837h96v28.788h-96z"/><path fill="#000" d="m679.018 333.995-1.046.984q-1.125-1.094-2.454-1.656-1.328-.578-2.593-.578-1.578 0-3.016.781-1.422.766-2.203 2.094t-.781 2.797q0 1.515.812 2.875.813 1.359 2.235 2.14 1.437.781 3.14.781 2.063 0 3.485-1.156 1.437-1.172 1.703-3.031h-4.266v-1.297h5.766q-.016 3.11-1.844 4.938t-4.875 1.828q-3.719 0-5.89-2.547-1.673-1.938-1.673-4.5 0-1.906.954-3.547.968-1.64 2.625-2.563 1.671-.921 3.78-.921 1.704 0 3.204.625 1.5.609 2.937 1.953m3.332-2.25h2.672q2.297 0 3.094.203 1.14.281 1.875 1.172.734.875.734 2.203 0 1.344-.718 2.219-.703.859-1.953 1.156-.922.219-3.407.219h-.968v6.234h-1.329zm1.329 1.312v4.547l2.28.031q1.376 0 2-.25.641-.25 1-.812.376-.563.376-1.25 0-.672-.375-1.235-.36-.562-.953-.796-.594-.235-1.953-.235zm9.76-1.312h1.343v8.093q0 1.438.047 1.797.11.797.468 1.328.375.532 1.125.891.75.36 1.516.36.672 0 1.281-.282.61-.281 1.016-.781t.61-1.219q.124-.5.124-2.094v-8.093h1.344v8.093q0 1.797-.36 2.907-.343 1.11-1.39 1.937-1.047.813-2.547.813-1.625 0-2.781-.782-1.156-.78-1.547-2.046-.25-.782-.25-2.829zm18.177 3.11h-1.36q.36-1.657 1.422-2.548 1.063-.89 2.5-.89 1.047 0 1.953.484.907.469 1.391 1.281.5.813.5 1.688 0 1.734-1.719 2.75.97.39 1.594 1.14.875 1.078.875 2.391 0 1.14-.61 2.172-.593 1.031-1.64 1.61-1.031.562-2.312.562-1.735 0-2.891-1t-1.516-2.938h1.313q.344 1.313.984 1.89.844.735 2.125.735 1.453 0 2.328-.875.891-.875.891-2.047 0-.78-.437-1.468-.438-.688-1.188-1.032-.734-.343-2.297-.422v-1.234q.922 0 1.672-.312.766-.329 1.094-.829.343-.5.343-1.093 0-.875-.703-1.516-.687-.64-1.75-.64-.875 0-1.5.5-.625.484-1.062 1.64"/><path fill="#e38a42" fill-rule="evenodd" d="M643.971 438.987h96v28.787h-96z"/><path stroke="#000" stroke-linecap="butt" stroke-linejoin="round" d="M643.971 438.987h96v28.787h-96z"/><path fill="#000" d="m679.018 449.144-1.046.985q-1.125-1.094-2.454-1.657-1.328-.578-2.593-.578-1.578 0-3.016.782-1.422.765-2.203 2.093t-.781 2.797q0 1.516.812 2.875.813 1.36 2.235 2.14 1.437.782 3.14.782 2.063 0 3.485-1.156 1.437-1.172 1.703-3.031h-4.266v-1.297h5.766q-.016 3.11-1.844 4.937t-4.875 1.828q-3.719 0-5.89-2.547-1.673-1.937-1.673-4.5 0-1.906.954-3.546.968-1.641 2.625-2.563 1.671-.922 3.78-.922 1.704 0 3.204.625 1.5.61 2.937 1.953m3.332-2.25h2.672q2.297 0 3.094.203 1.14.282 1.875 1.172.734.875.734 2.203 0 1.344-.718 2.22-.703.859-1.953 1.155-.922.22-3.407.22h-.968v6.234h-1.329zm1.329 1.313v4.547l2.28.03q1.376 0 2-.25.641-.25 1-.812.376-.562.376-1.25 0-.671-.375-1.234-.36-.562-.953-.797-.594-.234-1.953-.234zm9.76-1.313h1.343v8.094q0 1.438.047 1.797.11.797.468 1.328.375.531 1.125.89.75.36 1.516.36.672 0 1.281-.281.61-.281 1.016-.781t.61-1.22q.124-.5.124-2.093v-8.094h1.344v8.094q0 1.797-.36 2.906-.343 1.11-1.39 1.938-1.047.812-2.547.812-1.625 0-2.781-.78-1.156-.782-1.547-2.048-.25-.781-.25-2.828zm23.646-.328h.28v9.328h1.626v1.297h-1.625v3.11h-1.344v-3.11h-6.406zm-1.063 9.328v-5.578l-3.937 5.578z"/><path d="M111.412 377.806V193.333h24.252v184.473Z"/><path fill="#000" d="M117.643 342.942h-1.39v-7.875h1.39v3.203h12.97v1.468h-12.97zm2.063-14.735q0-2.453 1.781-4.062 1.625-1.469 3.844-1.469t3.89 1.547 1.672 3.984-1.672 3.985-3.89 1.546q-2.203 0-3.828-1.468-1.797-1.61-1.797-4.063m1.344 0q0 1.688 1.265 2.922 1.25 1.219 3.047 1.219 1.14 0 2.14-.563t1.548-1.5q.53-.953.53-2.078 0-1.14-.53-2.078-.547-.953-1.547-1.5-1-.562-2.14-.562-1.798 0-3.048 1.218-1.265 1.22-1.265 2.922m-5.172-8.064v-1.375h8.39l-4.28-4.906v-2.016l5.062 5.828 5.562-6.172v1.938l-4.781 5.328h4.781v1.375zm11.203-18.992.61-1.157q1.109.563 1.796 1.313.688.734 1.047 1.672.36.922.36 2.093 0 2.594-1.704 4.063-1.719 1.469-3.86 1.469-2.03 0-3.609-1.235-2.015-1.578-2.015-4.218 0-2.72 2.062-4.329 1.453-1.156 3.641-1.171v9.546q1.86-.046 3.047-1.187 1.172-1.14 1.172-2.813 0-.812-.282-1.578-.28-.765-.75-1.297-.468-.546-1.515-1.171m-2.86 0q-1.093.265-1.75.796-.656.516-1.046 1.375-.407.86-.407 1.813 0 1.562 1.016 2.687.719.813 2.187 1.235zm-4.234-4.06v-1.36h1.906q-1.093-.828-1.64-1.813-.547-1-.547-2.172 0-1.187.61-2.11.609-.92 1.64-1.358 1.015-.454 3.187-.454h5.47v1.36h-5.063q-1.844 0-2.454.156-1.062.25-1.593.922-.532.672-.532 1.75 0 1.25.829 2.234.812.97 2.03 1.282.782.203 2.891.203h3.891v1.36zm-3.734-17.75v-1.438h14.36v1.437zm3.734-4.507v-1.36h1.906q-1.093-.827-1.64-1.812-.547-1-.547-2.172 0-1.187.61-2.109.609-.922 1.64-1.36 1.015-.452 3.187-.452h5.47v1.359h-5.063q-1.844 0-2.454.156-1.062.25-1.593.922-.532.672-.532 1.75 0 1.25.829 2.234.812.97 2.03 1.282.782.203 2.891.203h3.891v1.36zm-4.11-22.79h14.735v1.343h-1.828q1.047.86 1.578 1.937.531 1.063.531 2.329 0 2.25-1.64 3.859-1.64 1.594-3.985 1.594-2.297 0-3.922-1.61-1.64-1.61-1.64-3.875 0-1.312.562-2.375t1.672-1.86h-6.062zm5.157 5.468q0 1.14.562 2.11.563.968 1.579 1.546 1.015.563 2.14.563t2.156-.578q1.016-.579 1.594-1.547.563-.97.563-2.094 0-1.125-.563-2.125t-1.531-1.547-2.172-.547q-1.844 0-3.078 1.219-1.25 1.219-1.25 3m6.047-17.514.61-1.156q1.109.563 1.796 1.313.688.734 1.047 1.671.36.922.36 2.094 0 2.594-1.704 4.063-1.719 1.468-3.86 1.468-2.03 0-3.609-1.234-2.015-1.578-2.015-4.219 0-2.718 2.062-4.328 1.453-1.156 3.641-1.172v9.547q1.86-.047 3.047-1.187 1.172-1.141 1.172-2.813 0-.812-.282-1.578-.28-.766-.75-1.297-.468-.547-1.515-1.172m-2.86 0q-1.093.266-1.75.797-.656.516-1.046 1.375-.407.86-.407 1.813 0 1.562 1.016 2.687.719.813 2.187 1.235zm-4.234-2.842v-1.64l3.938-2.813-3.938-2.812v-1.64l5.047 3.624 5.578-4.078v1.656l-4.469 3.25 4.47 3.203v1.625l-5.58-4.015z"/><path d="M262.457 16.703h259.086v24.252H262.457Z"/><path fill="#000" d="m298.055 24.06-1.907 1.828q-1.953-2.063-4.406-2.063-2.062 0-3.469 1.407-1.406 1.406-1.406 3.468 0 1.438.625 2.563.625 1.11 1.766 1.75 1.14.625 2.531.625 1.203 0 2.188-.438.984-.453 2.171-1.625l1.844 1.938q-1.594 1.547-3.015 2.156-1.407.594-3.22.594-3.343 0-5.484-2.125t-2.14-5.438q0-2.156.969-3.828.984-1.672 2.796-2.687 1.813-1.016 3.891-1.016 1.781 0 3.422.766 1.656.75 2.844 2.125m9.955 1.218h2.656v10.625h-2.656v-1.125q-.781.75-1.578 1.079-.782.328-1.703.328-2.047 0-3.563-1.594-1.5-1.61-1.5-3.984 0-2.454 1.453-4.032t3.531-1.578q.97 0 1.797.375.844.36 1.563 1.078zm-2.813 2.188q-1.234 0-2.062.875-.813.875-.813 2.234 0 1.375.828 2.266.844.89 2.063.89 1.266 0 2.094-.874.828-.875.828-2.282 0-1.39-.828-2.25t-2.11-.86m8.157-2.188h2.687v5.11q0 1.5.203 2.078t.656.906q.47.328 1.125.328.672 0 1.125-.312.47-.328.688-.938.172-.468.172-1.968v-5.204h2.672v4.5q0 2.782-.438 3.813-.531 1.25-1.578 1.922t-2.656.672q-1.75 0-2.828-.782-1.078-.796-1.516-2.187-.312-.969-.312-3.516zm18.517 1.485-1.656 1.656q-1-1-1.828-1-.453 0-.703.188-.25.187-.25.468 0 .219.156.407.156.171.797.484l.984.484q1.531.766 2.11 1.563.578.781.578 1.86 0 1.405-1.047 2.359-1.032.953-2.782.953-2.328 0-3.703-1.828l1.641-1.782q.469.547 1.094.89.625.329 1.11.329.53 0 .843-.25.328-.266.328-.594 0-.61-1.156-1.203l-.89-.437q-2.579-1.313-2.579-3.266 0-1.25.969-2.14.968-.907 2.484-.907 1.031 0 1.938.469.921.453 1.562 1.297m10.143-1.485h2.656v10.625h-2.656v-1.125q-.782.75-1.578 1.079-.782.328-1.704.328-2.046 0-3.562-1.594-1.5-1.61-1.5-3.984 0-2.454 1.453-4.032t3.531-1.578q.97 0 1.797.375.844.36 1.563 1.078zm-2.813 2.188q-1.234 0-2.062.875-.813.875-.813 2.234 0 1.375.828 2.266.844.89 2.063.89 1.265 0 2.094-.874.828-.875.828-2.282 0-1.39-.828-2.25-.829-.86-2.11-.86m7.875-6.297h2.672v14.734h-2.672zm15.344.375h2.781l5.516 14.36h-2.844l-1.11-2.954h-5.859l-1.172 2.953h-2.843zm1.406 3.797-1.906 4.937h3.812zm9.045-3.984h2.656v3.921h1.578v2.297h-1.578v8.328h-2.656v-8.328h-1.375v-2.297h1.375zm5.996 0h2.656v3.921h1.579v2.297h-1.579v8.328h-2.656v-8.328h-1.375v-2.297h1.375zm16.324 10h-8.578q.188 1.14.985 1.812.812.656 2.062.656 1.5 0 2.578-1.031l2.25 1.047q-.843 1.187-2.015 1.766-1.172.578-2.782.578-2.5 0-4.078-1.578t-1.578-3.954q0-2.437 1.563-4.046 1.578-1.61 3.937-1.61 2.516 0 4.078 1.61 1.578 1.609 1.578 4.25zm-2.687-2.094q-.266-.89-1.047-1.438-.766-.562-1.797-.562-1.11 0-1.953.625-.516.39-.969 1.375zm4.834-3.985h2.656v1.079q.906-.75 1.64-1.047.75-.313 1.516-.313 1.579 0 2.688 1.11.922.937.922 2.78v7.016h-2.625v-4.656q0-1.906-.172-2.531t-.61-.953q-.421-.328-1.046-.328-.797 0-1.391.547-.578.53-.797 1.5-.125.5-.125 2.156v4.265h-2.656zm12.33-3.921h2.656v3.921h1.578v2.297h-1.578v8.328h-2.656v-8.328h-1.375v-2.297h1.375zm6.715-.454q.703 0 1.203.516.516.5.516 1.219t-.5 1.219-1.204.5-1.218-.5q-.5-.516-.5-1.25 0-.704.5-1.204t1.203-.5m-1.328 4.375h2.672v10.625h-2.672zm10.076-.28q1.5 0 2.812.765 1.329.75 2.063 2.047.75 1.28.75 2.765 0 1.516-.75 2.828-.734 1.297-2.031 2.047-1.282.735-2.844.735-2.281 0-3.906-1.625-1.61-1.641-1.61-3.953 0-2.5 1.828-4.157 1.61-1.453 3.688-1.453m.031 2.515q-1.234 0-2.062.875-.829.86-.829 2.203 0 1.39.813 2.25.828.86 2.078.86t2.078-.876.828-2.234q0-1.375-.828-2.219-.812-.86-2.078-.86m7.772-2.235h2.656v1.079q.906-.75 1.64-1.047.75-.313 1.516-.313 1.578 0 2.688 1.11.921.937.921 2.78v7.016h-2.625v-4.656q0-1.906-.171-2.531t-.61-.953q-.422-.328-1.047-.328-.797 0-1.39.547-.578.53-.797 1.5-.125.5-.125 2.156v4.265h-2.656zm19.285-3.734h2.672l3.328 10.016 3.36-10.016h2.64l2.422 14.36H464l-1.547-9.079-3.047 9.078h-2.422l-3.015-9.078-1.563 9.078h-2.672zm24.17 3.734h2.656v10.625h-2.656v-1.125q-.782.75-1.578 1.079-.782.328-1.704.328-2.046 0-3.562-1.594-1.5-1.61-1.5-3.984 0-2.454 1.453-4.032t3.531-1.578q.969 0 1.797.375.844.36 1.563 1.078zm-2.813 2.188q-1.234 0-2.062.875-.813.875-.813 2.234 0 1.375.828 2.266.844.89 2.063.89 1.265 0 2.094-.874.828-.875.828-2.282 0-1.39-.828-2.25-.829-.86-2.11-.86m14.672-.703-1.656 1.656q-1-1-1.828-1-.453 0-.703.188-.25.187-.25.468 0 .219.156.407.156.171.797.484l.984.484q1.531.766 2.11 1.563.578.781.578 1.86 0 1.405-1.047 2.359-1.032.953-2.782.953-2.328 0-3.703-1.828l1.64-1.782q.47.547 1.095.89.625.329 1.109.329.531 0 .844-.25.328-.266.328-.594 0-.61-1.156-1.203l-.891-.437q-2.578-1.313-2.578-3.266 0-1.25.969-2.14.968-.907 2.484-.907 1.031 0 1.938.469.921.453 1.562 1.297m2.314-5.594h2.657v8.5l3.922-4.39h3.343l-4.562 5.093 5.125 5.531h-3.313l-4.515-4.89v4.89h-2.657z"/></g></svg>