<svg xmlns="http://www.w3.org/2000/svg" width="867.295" height="488.535" fill="none" stroke-linecap="square" stroke-miterlimit="10"><clipPath id="a"><path d="M0 0h960v540H0Z"/></clipPath><g clip-path="url(#a)" transform="translate(-46.353 -30.935)"><path fill="#4ea5b7" fill-rule="evenodd" d="M47.353 52.381c0-11.292 9.154-20.446 20.447-20.446h81.784A20.447 20.447 0 0 1 170.03 52.38v119.957c0 11.293-9.154 20.447-20.446 20.447H67.8c-11.293 0-20.447-9.154-20.447-20.447z"/><path stroke="#000" stroke-linecap="butt" stroke-linejoin="round" stroke-width="2" d="M47.353 52.381c0-11.292 9.154-20.446 20.447-20.446h81.784A20.447 20.447 0 0 1 170.03 52.38v119.957c0 11.293-9.154 20.447-20.446 20.447H67.8c-11.293 0-20.447-9.154-20.447-20.447z"/><path fill="#fff" d="m103.664 44.717-2.015 1.781q-1.079-1.484-2.172-1.484-.547 0-.89.297-.329.28-.329.64t.234.688q.344.422 2 1.844 1.563 1.312 1.907 1.64.828.844 1.171 1.61.344.765.344 1.671 0 1.782-1.219 2.938-1.218 1.14-3.187 1.14-1.531 0-2.672-.75-1.125-.75-1.937-2.359l2.296-1.39q1.032 1.906 2.376 1.906.703 0 1.171-.406.485-.422.485-.954 0-.484-.36-.968-.359-.5-1.593-1.5-2.344-1.922-3.032-2.953-.672-1.047-.672-2.079 0-1.5 1.126-2.562 1.14-1.078 2.812-1.078 1.078 0 2.047.5t2.11 1.828m4.26-1.953h2.672l3.328 10.015 3.36-10.015h2.64l2.422 14.36h-2.64l-1.548-9.079-3.046 9.078h-2.422l-3.016-9.078-1.562 9.078h-2.672z"/><path fill="#e889ab" fill-rule="evenodd" d="M57.573 72.147a4.814 4.814 0 0 1 4.814-4.814h92.609a4.814 4.814 0 0 1 4.814 4.814v19.254a4.814 4.814 0 0 1-4.814 4.814H62.387a4.814 4.814 0 0 1-4.814-4.814z"/><path stroke="#000" stroke-linecap="butt" stroke-linejoin="round" stroke-width="2" d="M57.573 72.147a4.814 4.814 0 0 1 4.814-4.814h92.609a4.814 4.814 0 0 1 4.814 4.814v19.254a4.814 4.814 0 0 1-4.814 4.814H62.387a4.814 4.814 0 0 1-4.814-4.814z"/><path fill="#fff" d="m88.34 77.13-1.906 1.829q-1.953-2.063-4.406-2.063-2.063 0-3.47 1.406-1.405 1.407-1.405 3.47 0 1.437.625 2.562.625 1.109 1.765 1.75 1.14.625 2.531.625 1.204 0 2.188-.438.984-.453 2.172-1.625l1.844 1.938q-1.594 1.547-3.016 2.156-1.406.594-3.219.594-3.344 0-5.484-2.125t-2.14-5.438q0-2.156.968-3.828.984-1.672 2.797-2.687 1.812-1.016 3.89-1.016 1.782 0 3.422.766 1.657.75 2.844 2.125m7.096.938q1.5 0 2.812.766 1.328.75 2.063 2.047.75 1.28.75 2.765 0 1.516-.75 2.828-.735 1.297-2.032 2.047-1.28.735-2.843.735-2.282 0-3.907-1.625-1.609-1.641-1.609-3.954 0-2.5 1.828-4.156 1.61-1.453 3.688-1.453m.031 2.516q-1.234 0-2.063.875-.828.859-.828 2.203 0 1.39.813 2.25.828.86 2.078.86t2.078-.876.828-2.234q0-1.375-.828-2.219-.812-.86-2.078-.86m7.771-2.235h2.657v1.078q.906-.75 1.64-1.046.75-.313 1.516-.313 1.578 0 2.687 1.11.922.937.922 2.78v7.016h-2.625v-4.656q0-1.906-.172-2.531t-.609-.953q-.422-.328-1.047-.328-.797 0-1.39.546-.579.532-.797 1.5-.125.5-.125 2.157v4.265h-2.657zm12.33-3.922h2.657v3.922h1.578v2.297h-1.578v8.328h-2.656v-8.328h-1.375V78.35h1.375zm5.044 3.922h2.296v1.344q.36-.797.97-1.203.624-.422 1.359-.422.515 0 1.078.281l-.828 2.297q-.47-.234-.766-.234-.625 0-1.047.765-.422.75-.422 2.985l.016.515v4.297h-2.657zm12.021-.281q1.5 0 2.813.766 1.328.75 2.062 2.047.75 1.28.75 2.765 0 1.516-.75 2.828-.734 1.297-2.031 2.047-1.281.735-2.844.735-2.281 0-3.906-1.625-1.61-1.641-1.61-3.954 0-2.5 1.829-4.156 1.609-1.453 3.687-1.453m.031 2.516q-1.234 0-2.062.875-.828.859-.828 2.203 0 1.39.812 2.25.828.86 2.078.86t2.078-.876.828-2.234q0-1.375-.828-2.219-.812-.86-2.078-.86m7.49-6.344h2.672v14.734h-2.672z"/><path d="M57.573 113.948a7.375 7.375 0 0 1 7.376-7.376H94.45a7.375 7.375 0 0 1 7.375 7.376v61.091a7.375 7.375 0 0 1-7.375 7.376H64.949a7.375 7.375 0 0 1-7.376-7.376z"/><path stroke="#000" stroke-linecap="butt" stroke-linejoin="round" stroke-width="2" d="M57.573 113.948a7.375 7.375 0 0 1 7.376-7.376H94.45a7.375 7.375 0 0 1 7.375 7.376v61.091a7.375 7.375 0 0 1-7.375 7.376H64.949a7.375 7.375 0 0 1-7.376-7.376z"/><path d="M115.558 113.948a7.375 7.375 0 0 1 7.375-7.376h29.501a7.375 7.375 0 0 1 7.376 7.376v61.091a7.375 7.375 0 0 1-7.376 7.376h-29.5a7.375 7.375 0 0 1-7.376-7.376z"/><path stroke="#000" stroke-linecap="butt" stroke-linejoin="round" stroke-width="2" d="M115.558 113.948a7.375 7.375 0 0 1 7.375-7.376h29.501a7.375 7.375 0 0 1 7.376 7.376v61.091a7.375 7.375 0 0 1-7.376 7.376h-29.5a7.375 7.375 0 0 1-7.376-7.376z"/><path fill="#e38a42" fill-rule="evenodd" d="M119.83 112.696a2.4 2.4 0 0 1 2.398-2.4h9.911a2.4 2.4 0 0 1 2.4 2.4v9.595a2.4 2.4 0 0 1-2.4 2.4h-9.91a2.4 2.4 0 0 1-2.4-2.4z"/><path stroke="#000" stroke-linecap="butt" stroke-linejoin="round" stroke-width="2" d="M119.83 112.696a2.4 2.4 0 0 1 2.398-2.4h9.911a2.4 2.4 0 0 1 2.4 2.4v9.595a2.4 2.4 0 0 1-2.4 2.4h-9.91a2.4 2.4 0 0 1-2.4-2.4z"/><path fill="#e38a42" fill-rule="evenodd" d="M119.83 130.696a2.4 2.4 0 0 1 2.398-2.4h9.911a2.4 2.4 0 0 1 2.4 2.4v9.595a2.4 2.4 0 0 1-2.4 2.4h-9.91a2.4 2.4 0 0 1-2.4-2.4z"/><path stroke="#000" stroke-linecap="butt" stroke-linejoin="round" stroke-width="2" d="M119.83 130.696a2.4 2.4 0 0 1 2.398-2.4h9.911a2.4 2.4 0 0 1 2.4 2.4v9.595a2.4 2.4 0 0 1-2.4 2.4h-9.91a2.4 2.4 0 0 1-2.4-2.4z"/><path fill="#e38a42" fill-rule="evenodd" d="M119.83 148.696a2.4 2.4 0 0 1 2.398-2.4h9.911a2.4 2.4 0 0 1 2.4 2.4v9.595a2.4 2.4 0 0 1-2.4 2.4h-9.91a2.4 2.4 0 0 1-2.4-2.4z"/><path stroke="#000" stroke-linecap="butt" stroke-linejoin="round" stroke-width="2" d="M119.83 148.696a2.4 2.4 0 0 1 2.398-2.4h9.911a2.4 2.4 0 0 1 2.4 2.4v9.595a2.4 2.4 0 0 1-2.4 2.4h-9.91a2.4 2.4 0 0 1-2.4-2.4z"/><path fill="#e38a42" fill-rule="evenodd" d="M119.83 166.696a2.4 2.4 0 0 1 2.398-2.4h9.911a2.4 2.4 0 0 1 2.4 2.4v9.595a2.4 2.4 0 0 1-2.4 2.4h-9.91a2.4 2.4 0 0 1-2.4-2.4z"/><path stroke="#000" stroke-linecap="butt" stroke-linejoin="round" stroke-width="2" d="M119.83 166.696a2.4 2.4 0 0 1 2.398-2.4h9.911a2.4 2.4 0 0 1 2.4 2.4v9.595a2.4 2.4 0 0 1-2.4 2.4h-9.91a2.4 2.4 0 0 1-2.4-2.4z"/><path fill="#e38a42" fill-rule="evenodd" d="M140.83 112.696a2.4 2.4 0 0 1 2.398-2.4h9.911a2.4 2.4 0 0 1 2.399 2.4v9.595a2.4 2.4 0 0 1-2.399 2.4h-9.91a2.4 2.4 0 0 1-2.4-2.4z"/><path stroke="#000" stroke-linecap="butt" stroke-linejoin="round" stroke-width="2" d="M140.83 112.696a2.4 2.4 0 0 1 2.398-2.4h9.911a2.4 2.4 0 0 1 2.399 2.4v9.595a2.4 2.4 0 0 1-2.399 2.4h-9.91a2.4 2.4 0 0 1-2.4-2.4z"/><path fill="#e38a42" fill-rule="evenodd" d="M140.83 130.696a2.4 2.4 0 0 1 2.398-2.4h9.911a2.4 2.4 0 0 1 2.399 2.4v9.595a2.4 2.4 0 0 1-2.399 2.4h-9.91a2.4 2.4 0 0 1-2.4-2.4z"/><path stroke="#000" stroke-linecap="butt" stroke-linejoin="round" stroke-width="2" d="M140.83 130.696a2.4 2.4 0 0 1 2.398-2.4h9.911a2.4 2.4 0 0 1 2.399 2.4v9.595a2.4 2.4 0 0 1-2.399 2.4h-9.91a2.4 2.4 0 0 1-2.4-2.4z"/><path fill="#e38a42" fill-rule="evenodd" d="M140.83 148.696a2.4 2.4 0 0 1 2.398-2.4h9.911a2.4 2.4 0 0 1 2.399 2.4v9.595a2.4 2.4 0 0 1-2.399 2.4h-9.91a2.4 2.4 0 0 1-2.4-2.4z"/><path stroke="#000" stroke-linecap="butt" stroke-linejoin="round" stroke-width="2" d="M140.83 148.696a2.4 2.4 0 0 1 2.398-2.4h9.911a2.4 2.4 0 0 1 2.399 2.4v9.595a2.4 2.4 0 0 1-2.399 2.4h-9.91a2.4 2.4 0 0 1-2.4-2.4z"/><path fill="#e38a42" fill-rule="evenodd" d="M140.83 166.696a2.4 2.4 0 0 1 2.398-2.4h9.911a2.4 2.4 0 0 1 2.399 2.4v9.595a2.4 2.4 0 0 1-2.399 2.4h-9.91a2.4 2.4 0 0 1-2.4-2.4z"/><path stroke="#000" stroke-linecap="butt" stroke-linejoin="round" stroke-width="2" d="M140.83 166.696a2.4 2.4 0 0 1 2.398-2.4h9.911a2.4 2.4 0 0 1 2.399 2.4v9.595a2.4 2.4 0 0 1-2.399 2.4h-9.91a2.4 2.4 0 0 1-2.4-2.4z"/><path fill="#e38a42" fill-rule="evenodd" d="M61.844 112.696a2.4 2.4 0 0 1 2.399-2.4h9.91a2.4 2.4 0 0 1 2.4 2.4v9.595a2.4 2.4 0 0 1-2.4 2.4h-9.91a2.4 2.4 0 0 1-2.4-2.4z"/><path stroke="#000" stroke-linecap="butt" stroke-linejoin="round" stroke-width="2" d="M61.844 112.696a2.4 2.4 0 0 1 2.399-2.4h9.91a2.4 2.4 0 0 1 2.4 2.4v9.595a2.4 2.4 0 0 1-2.4 2.4h-9.91a2.4 2.4 0 0 1-2.4-2.4z"/><path fill="#e38a42" fill-rule="evenodd" d="M61.844 130.696a2.4 2.4 0 0 1 2.399-2.4h9.91a2.4 2.4 0 0 1 2.4 2.4v9.595a2.4 2.4 0 0 1-2.4 2.4h-9.91a2.4 2.4 0 0 1-2.4-2.4z"/><path stroke="#000" stroke-linecap="butt" stroke-linejoin="round" stroke-width="2" d="M61.844 130.696a2.4 2.4 0 0 1 2.399-2.4h9.91a2.4 2.4 0 0 1 2.4 2.4v9.595a2.4 2.4 0 0 1-2.4 2.4h-9.91a2.4 2.4 0 0 1-2.4-2.4z"/><path fill="#e38a42" fill-rule="evenodd" d="M61.844 148.696a2.4 2.4 0 0 1 2.399-2.4h9.91a2.4 2.4 0 0 1 2.4 2.4v9.595a2.4 2.4 0 0 1-2.4 2.4h-9.91a2.4 2.4 0 0 1-2.4-2.4z"/><path stroke="#000" stroke-linecap="butt" stroke-linejoin="round" stroke-width="2" d="M61.844 148.696a2.4 2.4 0 0 1 2.399-2.4h9.91a2.4 2.4 0 0 1 2.4 2.4v9.595a2.4 2.4 0 0 1-2.4 2.4h-9.91a2.4 2.4 0 0 1-2.4-2.4z"/><path fill="#e38a42" fill-rule="evenodd" d="M61.844 166.696a2.4 2.4 0 0 1 2.399-2.4h9.91a2.4 2.4 0 0 1 2.4 2.4v9.595a2.4 2.4 0 0 1-2.4 2.4h-9.91a2.4 2.4 0 0 1-2.4-2.4z"/><path stroke="#000" stroke-linecap="butt" stroke-linejoin="round" stroke-width="2" d="M61.844 166.696a2.4 2.4 0 0 1 2.399-2.4h9.91a2.4 2.4 0 0 1 2.4 2.4v9.595a2.4 2.4 0 0 1-2.4 2.4h-9.91a2.4 2.4 0 0 1-2.4-2.4z"/><path fill="#e38a42" fill-rule="evenodd" d="M82.844 112.696a2.4 2.4 0 0 1 2.399-2.4h9.91a2.4 2.4 0 0 1 2.4 2.4v9.595a2.4 2.4 0 0 1-2.4 2.4h-9.91a2.4 2.4 0 0 1-2.4-2.4z"/><path stroke="#000" stroke-linecap="butt" stroke-linejoin="round" stroke-width="2" d="M82.844 112.696a2.4 2.4 0 0 1 2.399-2.4h9.91a2.4 2.4 0 0 1 2.4 2.4v9.595a2.4 2.4 0 0 1-2.4 2.4h-9.91a2.4 2.4 0 0 1-2.4-2.4z"/><path fill="#e38a42" fill-rule="evenodd" d="M82.844 130.696a2.4 2.4 0 0 1 2.399-2.4h9.91a2.4 2.4 0 0 1 2.4 2.4v9.595a2.4 2.4 0 0 1-2.4 2.4h-9.91a2.4 2.4 0 0 1-2.4-2.4z"/><path stroke="#000" stroke-linecap="butt" stroke-linejoin="round" stroke-width="2" d="M82.844 130.696a2.4 2.4 0 0 1 2.399-2.4h9.91a2.4 2.4 0 0 1 2.4 2.4v9.595a2.4 2.4 0 0 1-2.4 2.4h-9.91a2.4 2.4 0 0 1-2.4-2.4z"/><path fill="#e38a42" fill-rule="evenodd" d="M82.844 148.696a2.4 2.4 0 0 1 2.399-2.4h9.91a2.4 2.4 0 0 1 2.4 2.4v9.595a2.4 2.4 0 0 1-2.4 2.4h-9.91a2.4 2.4 0 0 1-2.4-2.4z"/><path stroke="#000" stroke-linecap="butt" stroke-linejoin="round" stroke-width="2" d="M82.844 148.696a2.4 2.4 0 0 1 2.399-2.4h9.91a2.4 2.4 0 0 1 2.4 2.4v9.595a2.4 2.4 0 0 1-2.4 2.4h-9.91a2.4 2.4 0 0 1-2.4-2.4z"/><path fill="#e38a42" fill-rule="evenodd" d="M82.844 166.696a2.4 2.4 0 0 1 2.399-2.4h9.91a2.4 2.4 0 0 1 2.4 2.4v9.595a2.4 2.4 0 0 1-2.4 2.4h-9.91a2.4 2.4 0 0 1-2.4-2.4z"/><path stroke="#000" stroke-linecap="butt" stroke-linejoin="round" stroke-width="2" d="M82.844 166.696a2.4 2.4 0 0 1 2.399-2.4h9.91a2.4 2.4 0 0 1 2.4 2.4v9.595a2.4 2.4 0 0 1-2.4 2.4h-9.91a2.4 2.4 0 0 1-2.4-2.4z"/><path fill="#4ea5b7" fill-rule="evenodd" d="M195.876 52.381c0-11.292 9.155-20.446 20.447-20.446h81.784a20.447 20.447 0 0 1 20.447 20.446v119.957c0 11.293-9.155 20.447-20.447 20.447h-81.784c-11.292 0-20.447-9.154-20.447-20.447z"/><path stroke="#000" stroke-linecap="butt" stroke-linejoin="round" stroke-width="2" d="M195.876 52.381c0-11.292 9.155-20.446 20.447-20.446h81.784a20.447 20.447 0 0 1 20.447 20.446v119.957c0 11.293-9.155 20.447-20.447 20.447h-81.784c-11.292 0-20.447-9.154-20.447-20.447z"/><path fill="#fff" d="m252.188 44.717-2.016 1.781q-1.078-1.484-2.172-1.484-.547 0-.89.297-.329.28-.329.64t.235.688q.343.422 2 1.844 1.562 1.312 1.906 1.64.828.844 1.172 1.61.344.765.344 1.671 0 1.782-1.22 2.938-1.218 1.14-3.187 1.14-1.53 0-2.672-.75-1.125-.75-1.937-2.359l2.297-1.39q1.031 1.906 2.375 1.906.703 0 1.172-.406.484-.422.484-.954 0-.484-.36-.968-.359-.5-1.593-1.5-2.344-1.922-3.031-2.953-.672-1.047-.672-2.079 0-1.5 1.125-2.562 1.14-1.078 2.812-1.078 1.078 0 2.047.5t2.11 1.828m4.26-1.953h2.671l3.328 10.015 3.36-10.015h2.64l2.422 14.36h-2.64l-1.547-9.079-3.047 9.078h-2.422l-3.016-9.078-1.562 9.078h-2.672z"/><path fill="#e889ab" fill-rule="evenodd" d="M206.097 72.147a4.814 4.814 0 0 1 4.814-4.814h92.608a4.814 4.814 0 0 1 4.814 4.814v19.254a4.814 4.814 0 0 1-4.814 4.814h-92.608a4.814 4.814 0 0 1-4.814-4.814z"/><path stroke="#000" stroke-linecap="butt" stroke-linejoin="round" stroke-width="2" d="M206.097 72.147a4.814 4.814 0 0 1 4.814-4.814h92.608a4.814 4.814 0 0 1 4.814 4.814v19.254a4.814 4.814 0 0 1-4.814 4.814h-92.608a4.814 4.814 0 0 1-4.814-4.814z"/><path fill="#fff" d="m236.863 77.13-1.906 1.829q-1.953-2.063-4.406-2.063-2.063 0-3.469 1.406-1.406 1.407-1.406 3.47 0 1.437.625 2.562.625 1.109 1.766 1.75 1.14.625 2.53.625 1.204 0 2.188-.438.985-.453 2.172-1.625l1.844 1.938q-1.594 1.547-3.016 2.156-1.406.594-3.218.594-3.344 0-5.485-2.125-2.14-2.125-2.14-5.438 0-2.156.968-3.828.985-1.672 2.797-2.687 1.813-1.016 3.89-1.016 1.782 0 3.423.766 1.656.75 2.843 2.125m7.096.938q1.5 0 2.813.766 1.328.75 2.062 2.047.75 1.28.75 2.765 0 1.516-.75 2.828-.734 1.297-2.031 2.047-1.281.735-2.844.735-2.281 0-3.906-1.625-1.61-1.641-1.61-3.954 0-2.5 1.829-4.156 1.609-1.453 3.687-1.453m.031 2.516q-1.234 0-2.062.875-.828.859-.828 2.203 0 1.39.812 2.25.828.86 2.078.86t2.078-.876.829-2.234q0-1.375-.829-2.219-.812-.86-2.078-.86m7.772-2.235h2.656v1.078q.906-.75 1.64-1.046.75-.313 1.516-.313 1.578 0 2.688 1.11.922.937.922 2.78v7.016h-2.625v-4.656q0-1.906-.172-2.531t-.61-.953q-.421-.328-1.046-.328-.797 0-1.391.546-.578.532-.797 1.5-.125.5-.125 2.157v4.265h-2.656zm12.33-3.922h2.656v3.922h1.578v2.297h-1.578v8.328h-2.656v-8.328h-1.375V78.35h1.375zm5.043 3.922h2.297v1.344q.36-.797.968-1.203.625-.422 1.36-.422.515 0 1.078.281l-.828 2.297q-.469-.234-.766-.234-.625 0-1.047.765-.422.75-.422 2.985l.016.515v4.297h-2.656zm12.021-.281q1.5 0 2.813.766 1.328.75 2.062 2.047.75 1.28.75 2.765 0 1.516-.75 2.828-.734 1.297-2.03 2.047-1.282.735-2.845.735-2.28 0-3.906-1.625-1.61-1.641-1.61-3.954 0-2.5 1.829-4.156 1.61-1.453 3.687-1.453m.032 2.516q-1.235 0-2.063.875-.828.859-.828 2.203 0 1.39.812 2.25.829.86 2.079.86t2.078-.876.828-2.234q0-1.375-.828-2.219-.813-.86-2.078-.86m7.49-6.344h2.672v14.734h-2.672z"/><path d="M206.097 113.948a7.375 7.375 0 0 1 7.375-7.376h29.501a7.376 7.376 0 0 1 7.376 7.376v61.091a7.375 7.375 0 0 1-7.376 7.376h-29.5a7.375 7.375 0 0 1-7.376-7.376z"/><path stroke="#000" stroke-linecap="butt" stroke-linejoin="round" stroke-width="2" d="M206.097 113.948a7.375 7.375 0 0 1 7.375-7.376h29.501a7.376 7.376 0 0 1 7.376 7.376v61.091a7.375 7.375 0 0 1-7.376 7.376h-29.5a7.375 7.375 0 0 1-7.376-7.376z"/><path d="M264.081 113.948a7.375 7.375 0 0 1 7.376-7.376h29.5a7.376 7.376 0 0 1 7.376 7.376v61.091a7.375 7.375 0 0 1-7.375 7.376h-29.501a7.375 7.375 0 0 1-7.376-7.376z"/><path stroke="#000" stroke-linecap="butt" stroke-linejoin="round" stroke-width="2" d="M264.081 113.948a7.375 7.375 0 0 1 7.376-7.376h29.5a7.376 7.376 0 0 1 7.376 7.376v61.091a7.375 7.375 0 0 1-7.375 7.376h-29.501a7.375 7.375 0 0 1-7.376-7.376z"/><path fill="#e38a42" fill-rule="evenodd" d="M268.353 112.696a2.4 2.4 0 0 1 2.399-2.4h9.91a2.4 2.4 0 0 1 2.4 2.4v9.595a2.4 2.4 0 0 1-2.4 2.4h-9.91a2.4 2.4 0 0 1-2.4-2.4z"/><path stroke="#000" stroke-linecap="butt" stroke-linejoin="round" stroke-width="2" d="M268.353 112.696a2.4 2.4 0 0 1 2.399-2.4h9.91a2.4 2.4 0 0 1 2.4 2.4v9.595a2.4 2.4 0 0 1-2.4 2.4h-9.91a2.4 2.4 0 0 1-2.4-2.4z"/><path fill="#e38a42" fill-rule="evenodd" d="M268.353 130.696a2.4 2.4 0 0 1 2.399-2.4h9.91a2.4 2.4 0 0 1 2.4 2.4v9.595a2.4 2.4 0 0 1-2.4 2.4h-9.91a2.4 2.4 0 0 1-2.4-2.4z"/><path stroke="#000" stroke-linecap="butt" stroke-linejoin="round" stroke-width="2" d="M268.353 130.696a2.4 2.4 0 0 1 2.399-2.4h9.91a2.4 2.4 0 0 1 2.4 2.4v9.595a2.4 2.4 0 0 1-2.4 2.4h-9.91a2.4 2.4 0 0 1-2.4-2.4z"/><path fill="#e38a42" fill-rule="evenodd" d="M268.353 148.696a2.4 2.4 0 0 1 2.399-2.4h9.91a2.4 2.4 0 0 1 2.4 2.4v9.595a2.4 2.4 0 0 1-2.4 2.4h-9.91a2.4 2.4 0 0 1-2.4-2.4z"/><path stroke="#000" stroke-linecap="butt" stroke-linejoin="round" stroke-width="2" d="M268.353 148.696a2.4 2.4 0 0 1 2.399-2.4h9.91a2.4 2.4 0 0 1 2.4 2.4v9.595a2.4 2.4 0 0 1-2.4 2.4h-9.91a2.4 2.4 0 0 1-2.4-2.4z"/><path fill="#e38a42" fill-rule="evenodd" d="M268.353 166.696a2.4 2.4 0 0 1 2.399-2.4h9.91a2.4 2.4 0 0 1 2.4 2.4v9.595a2.4 2.4 0 0 1-2.4 2.4h-9.91a2.4 2.4 0 0 1-2.4-2.4z"/><path stroke="#000" stroke-linecap="butt" stroke-linejoin="round" stroke-width="2" d="M268.353 166.696a2.4 2.4 0 0 1 2.399-2.4h9.91a2.4 2.4 0 0 1 2.4 2.4v9.595a2.4 2.4 0 0 1-2.4 2.4h-9.91a2.4 2.4 0 0 1-2.4-2.4z"/><path fill="#e38a42" fill-rule="evenodd" d="M289.353 112.696a2.4 2.4 0 0 1 2.399-2.4h9.91a2.4 2.4 0 0 1 2.4 2.4v9.595a2.4 2.4 0 0 1-2.4 2.4h-9.91a2.4 2.4 0 0 1-2.4-2.4z"/><path stroke="#000" stroke-linecap="butt" stroke-linejoin="round" stroke-width="2" d="M289.353 112.696a2.4 2.4 0 0 1 2.399-2.4h9.91a2.4 2.4 0 0 1 2.4 2.4v9.595a2.4 2.4 0 0 1-2.4 2.4h-9.91a2.4 2.4 0 0 1-2.4-2.4z"/><path fill="#e38a42" fill-rule="evenodd" d="M289.353 130.696a2.4 2.4 0 0 1 2.399-2.4h9.91a2.4 2.4 0 0 1 2.4 2.4v9.595a2.4 2.4 0 0 1-2.4 2.4h-9.91a2.4 2.4 0 0 1-2.4-2.4z"/><path stroke="#000" stroke-linecap="butt" stroke-linejoin="round" stroke-width="2" d="M289.353 130.696a2.4 2.4 0 0 1 2.399-2.4h9.91a2.4 2.4 0 0 1 2.4 2.4v9.595a2.4 2.4 0 0 1-2.4 2.4h-9.91a2.4 2.4 0 0 1-2.4-2.4z"/><path fill="#e38a42" fill-rule="evenodd" d="M289.353 148.696a2.4 2.4 0 0 1 2.399-2.4h9.91a2.4 2.4 0 0 1 2.4 2.4v9.595a2.4 2.4 0 0 1-2.4 2.4h-9.91a2.4 2.4 0 0 1-2.4-2.4z"/><path stroke="#000" stroke-linecap="butt" stroke-linejoin="round" stroke-width="2" d="M289.353 148.696a2.4 2.4 0 0 1 2.399-2.4h9.91a2.4 2.4 0 0 1 2.4 2.4v9.595a2.4 2.4 0 0 1-2.4 2.4h-9.91a2.4 2.4 0 0 1-2.4-2.4z"/><path fill="#e38a42" fill-rule="evenodd" d="M289.353 166.696a2.4 2.4 0 0 1 2.399-2.4h9.91a2.4 2.4 0 0 1 2.4 2.4v9.595a2.4 2.4 0 0 1-2.4 2.4h-9.91a2.4 2.4 0 0 1-2.4-2.4z"/><path stroke="#000" stroke-linecap="butt" stroke-linejoin="round" stroke-width="2" d="M289.353 166.696a2.4 2.4 0 0 1 2.399-2.4h9.91a2.4 2.4 0 0 1 2.4 2.4v9.595a2.4 2.4 0 0 1-2.4 2.4h-9.91a2.4 2.4 0 0 1-2.4-2.4z"/><path fill="#e38a42" fill-rule="evenodd" d="M210.367 112.696a2.4 2.4 0 0 1 2.4-2.4h9.91a2.4 2.4 0 0 1 2.399 2.4v9.595a2.4 2.4 0 0 1-2.4 2.4h-9.91a2.4 2.4 0 0 1-2.399-2.4z"/><path stroke="#000" stroke-linecap="butt" stroke-linejoin="round" stroke-width="2" d="M210.367 112.696a2.4 2.4 0 0 1 2.4-2.4h9.91a2.4 2.4 0 0 1 2.399 2.4v9.595a2.4 2.4 0 0 1-2.4 2.4h-9.91a2.4 2.4 0 0 1-2.399-2.4z"/><path fill="#e38a42" fill-rule="evenodd" d="M210.367 130.696a2.4 2.4 0 0 1 2.4-2.4h9.91a2.4 2.4 0 0 1 2.399 2.4v9.595a2.4 2.4 0 0 1-2.4 2.4h-9.91a2.4 2.4 0 0 1-2.399-2.4z"/><path stroke="#000" stroke-linecap="butt" stroke-linejoin="round" stroke-width="2" d="M210.367 130.696a2.4 2.4 0 0 1 2.4-2.4h9.91a2.4 2.4 0 0 1 2.399 2.4v9.595a2.4 2.4 0 0 1-2.4 2.4h-9.91a2.4 2.4 0 0 1-2.399-2.4z"/><path fill="#e38a42" fill-rule="evenodd" d="M210.367 148.696a2.4 2.4 0 0 1 2.4-2.4h9.91a2.4 2.4 0 0 1 2.399 2.4v9.595a2.4 2.4 0 0 1-2.4 2.4h-9.91a2.4 2.4 0 0 1-2.399-2.4z"/><path stroke="#000" stroke-linecap="butt" stroke-linejoin="round" stroke-width="2" d="M210.367 148.696a2.4 2.4 0 0 1 2.4-2.4h9.91a2.4 2.4 0 0 1 2.399 2.4v9.595a2.4 2.4 0 0 1-2.4 2.4h-9.91a2.4 2.4 0 0 1-2.399-2.4z"/><path fill="#e38a42" fill-rule="evenodd" d="M210.367 166.696a2.4 2.4 0 0 1 2.4-2.4h9.91a2.4 2.4 0 0 1 2.399 2.4v9.595a2.4 2.4 0 0 1-2.4 2.4h-9.91a2.4 2.4 0 0 1-2.399-2.4z"/><path stroke="#000" stroke-linecap="butt" stroke-linejoin="round" stroke-width="2" d="M210.367 166.696a2.4 2.4 0 0 1 2.4-2.4h9.91a2.4 2.4 0 0 1 2.399 2.4v9.595a2.4 2.4 0 0 1-2.4 2.4h-9.91a2.4 2.4 0 0 1-2.399-2.4z"/><path fill="#e38a42" fill-rule="evenodd" d="M231.367 112.696a2.4 2.4 0 0 1 2.4-2.4h9.91a2.4 2.4 0 0 1 2.399 2.4v9.595a2.4 2.4 0 0 1-2.4 2.4h-9.91a2.4 2.4 0 0 1-2.399-2.4z"/><path stroke="#000" stroke-linecap="butt" stroke-linejoin="round" stroke-width="2" d="M231.367 112.696a2.4 2.4 0 0 1 2.4-2.4h9.91a2.4 2.4 0 0 1 2.399 2.4v9.595a2.4 2.4 0 0 1-2.4 2.4h-9.91a2.4 2.4 0 0 1-2.399-2.4z"/><path fill="#e38a42" fill-rule="evenodd" d="M231.367 130.696a2.4 2.4 0 0 1 2.4-2.4h9.91a2.4 2.4 0 0 1 2.399 2.4v9.595a2.4 2.4 0 0 1-2.4 2.4h-9.91a2.4 2.4 0 0 1-2.399-2.4z"/><path stroke="#000" stroke-linecap="butt" stroke-linejoin="round" stroke-width="2" d="M231.367 130.696a2.4 2.4 0 0 1 2.4-2.4h9.91a2.4 2.4 0 0 1 2.399 2.4v9.595a2.4 2.4 0 0 1-2.4 2.4h-9.91a2.4 2.4 0 0 1-2.399-2.4z"/><path fill="#e38a42" fill-rule="evenodd" d="M231.367 148.696a2.4 2.4 0 0 1 2.4-2.4h9.91a2.4 2.4 0 0 1 2.399 2.4v9.595a2.4 2.4 0 0 1-2.4 2.4h-9.91a2.4 2.4 0 0 1-2.399-2.4z"/><path stroke="#000" stroke-linecap="butt" stroke-linejoin="round" stroke-width="2" d="M231.367 148.696a2.4 2.4 0 0 1 2.4-2.4h9.91a2.4 2.4 0 0 1 2.399 2.4v9.595a2.4 2.4 0 0 1-2.4 2.4h-9.91a2.4 2.4 0 0 1-2.399-2.4z"/><path fill="#e38a42" fill-rule="evenodd" d="M231.367 166.696a2.4 2.4 0 0 1 2.4-2.4h9.91a2.4 2.4 0 0 1 2.399 2.4v9.595a2.4 2.4 0 0 1-2.4 2.4h-9.91a2.4 2.4 0 0 1-2.399-2.4z"/><path stroke="#000" stroke-linecap="butt" stroke-linejoin="round" stroke-width="2" d="M231.367 166.696a2.4 2.4 0 0 1 2.4-2.4h9.91a2.4 2.4 0 0 1 2.399 2.4v9.595a2.4 2.4 0 0 1-2.4 2.4h-9.91a2.4 2.4 0 0 1-2.399-2.4z"/><path fill="#4ea5b7" fill-rule="evenodd" d="M344.4 52.381c0-11.292 9.154-20.446 20.446-20.446h81.784a20.447 20.447 0 0 1 20.447 20.446v119.957c0 11.293-9.154 20.447-20.447 20.447h-81.784c-11.292 0-20.446-9.154-20.446-20.447z"/><path stroke="#000" stroke-linecap="butt" stroke-linejoin="round" stroke-width="2" d="M344.4 52.381c0-11.292 9.154-20.446 20.446-20.446h81.784a20.447 20.447 0 0 1 20.447 20.446v119.957c0 11.293-9.154 20.447-20.447 20.447h-81.784c-11.292 0-20.446-9.154-20.446-20.447z"/><path fill="#fff" d="m400.711 44.717-2.016 1.781q-1.078-1.484-2.172-1.484-.546 0-.89.297-.328.28-.328.64t.234.688q.344.422 2 1.844 1.563 1.312 1.906 1.64.828.844 1.172 1.61.344.765.344 1.671 0 1.782-1.219 2.938-1.219 1.14-3.187 1.14-1.532 0-2.672-.75-1.125-.75-1.938-2.359l2.297-1.39q1.031 1.906 2.375 1.906.703 0 1.172-.406.484-.422.484-.954 0-.484-.359-.968-.36-.5-1.594-1.5-2.343-1.922-3.03-2.953-.673-1.047-.673-2.079 0-1.5 1.125-2.562 1.14-1.078 2.813-1.078 1.078 0 2.047.5.968.5 2.109 1.828m4.26-1.953h2.672l3.328 10.015 3.36-10.015h2.64l2.422 14.36h-2.641l-1.547-9.079-3.047 9.078h-2.422l-3.015-9.078-1.563 9.078h-2.672z"/><path fill="#e889ab" fill-rule="evenodd" d="M354.62 72.147a4.814 4.814 0 0 1 4.814-4.814h92.609a4.814 4.814 0 0 1 4.813 4.814v19.254a4.814 4.814 0 0 1-4.813 4.814h-92.61a4.814 4.814 0 0 1-4.813-4.814z"/><path stroke="#000" stroke-linecap="butt" stroke-linejoin="round" stroke-width="2" d="M354.62 72.147a4.814 4.814 0 0 1 4.814-4.814h92.609a4.814 4.814 0 0 1 4.813 4.814v19.254a4.814 4.814 0 0 1-4.813 4.814h-92.61a4.814 4.814 0 0 1-4.813-4.814z"/><path fill="#fff" d="m385.387 77.13-1.906 1.829q-1.954-2.063-4.407-2.063-2.062 0-3.469 1.406-1.406 1.407-1.406 3.47 0 1.437.625 2.562.625 1.109 1.766 1.75 1.14.625 2.531.625 1.203 0 2.188-.438.984-.453 2.171-1.625l1.844 1.938q-1.594 1.547-3.015 2.156-1.407.594-3.22.594-3.343 0-5.483-2.125-2.141-2.125-2.141-5.438 0-2.156.969-3.828.984-1.672 2.796-2.687 1.813-1.016 3.891-1.016 1.781 0 3.422.766 1.656.75 2.844 2.125m7.095.938q1.5 0 2.813.766 1.328.75 2.062 2.047.75 1.28.75 2.765 0 1.516-.75 2.828-.734 1.297-2.03 2.047-1.282.735-2.845.735-2.28 0-3.906-1.625-1.61-1.641-1.61-3.954 0-2.5 1.829-4.156 1.61-1.453 3.687-1.453m.032 2.516q-1.235 0-2.063.875-.828.859-.828 2.203 0 1.39.813 2.25.828.86 2.078.86t2.078-.876.828-2.234q0-1.375-.828-2.219-.813-.86-2.078-.86m7.771-2.235h2.656v1.078q.907-.75 1.641-1.046.75-.313 1.516-.313 1.578 0 2.687 1.11.922.937.922 2.78v7.016h-2.625v-4.656q0-1.906-.172-2.531t-.61-.953q-.421-.328-1.046-.328-.797 0-1.39.546-.579.532-.798 1.5-.125.5-.125 2.157v4.265h-2.656zm12.33-3.922h2.656v3.922h1.579v2.297h-1.579v8.328h-2.656v-8.328h-1.375V78.35h1.375zm5.043 3.922h2.297v1.344q.36-.797.969-1.203.625-.422 1.36-.422.515 0 1.077.281l-.828 2.297q-.469-.234-.765-.234-.625 0-1.047.765-.422.75-.422 2.985l.015.515v4.297h-2.656zm12.022-.281q1.5 0 2.812.766 1.328.75 2.063 2.047.75 1.28.75 2.765 0 1.516-.75 2.828-.735 1.297-2.032 2.047-1.28.735-2.843.735-2.282 0-3.907-1.625-1.609-1.641-1.609-3.954 0-2.5 1.828-4.156 1.61-1.453 3.688-1.453m.03 2.516q-1.234 0-2.062.875-.828.859-.828 2.203 0 1.39.813 2.25.828.86 2.078.86t2.078-.876.828-2.234q0-1.375-.828-2.219-.813-.86-2.078-.86m7.491-6.344h2.672v14.734h-2.672z"/><path d="M354.62 113.948a7.375 7.375 0 0 1 7.376-7.376h29.5a7.375 7.375 0 0 1 7.376 7.376v61.091a7.375 7.375 0 0 1-7.375 7.376h-29.501a7.375 7.375 0 0 1-7.376-7.376z"/><path stroke="#000" stroke-linecap="butt" stroke-linejoin="round" stroke-width="2" d="M354.62 113.948a7.375 7.375 0 0 1 7.376-7.376h29.5a7.375 7.375 0 0 1 7.376 7.376v61.091a7.375 7.375 0 0 1-7.375 7.376h-29.501a7.375 7.375 0 0 1-7.376-7.376z"/><path d="M412.604 113.948a7.375 7.375 0 0 1 7.376-7.376h29.501a7.376 7.376 0 0 1 7.375 7.376v61.091a7.375 7.375 0 0 1-7.375 7.376H419.98a7.375 7.375 0 0 1-7.376-7.376z"/><path stroke="#000" stroke-linecap="butt" stroke-linejoin="round" stroke-width="2" d="M412.604 113.948a7.375 7.375 0 0 1 7.376-7.376h29.501a7.376 7.376 0 0 1 7.375 7.376v61.091a7.375 7.375 0 0 1-7.375 7.376H419.98a7.375 7.375 0 0 1-7.376-7.376z"/><path fill="#e38a42" fill-rule="evenodd" d="M416.876 112.696a2.4 2.4 0 0 1 2.4-2.4h9.91a2.4 2.4 0 0 1 2.399 2.4v9.595a2.4 2.4 0 0 1-2.4 2.4h-9.91a2.4 2.4 0 0 1-2.399-2.4z"/><path stroke="#000" stroke-linecap="butt" stroke-linejoin="round" stroke-width="2" d="M416.876 112.696a2.4 2.4 0 0 1 2.4-2.4h9.91a2.4 2.4 0 0 1 2.399 2.4v9.595a2.4 2.4 0 0 1-2.4 2.4h-9.91a2.4 2.4 0 0 1-2.399-2.4z"/><path fill="#e38a42" fill-rule="evenodd" d="M416.876 130.696a2.4 2.4 0 0 1 2.4-2.4h9.91a2.4 2.4 0 0 1 2.399 2.4v9.595a2.4 2.4 0 0 1-2.4 2.4h-9.91a2.4 2.4 0 0 1-2.399-2.4z"/><path stroke="#000" stroke-linecap="butt" stroke-linejoin="round" stroke-width="2" d="M416.876 130.696a2.4 2.4 0 0 1 2.4-2.4h9.91a2.4 2.4 0 0 1 2.399 2.4v9.595a2.4 2.4 0 0 1-2.4 2.4h-9.91a2.4 2.4 0 0 1-2.399-2.4z"/><path fill="#e38a42" fill-rule="evenodd" d="M416.876 148.696a2.4 2.4 0 0 1 2.4-2.4h9.91a2.4 2.4 0 0 1 2.399 2.4v9.595a2.4 2.4 0 0 1-2.4 2.4h-9.91a2.4 2.4 0 0 1-2.399-2.4z"/><path stroke="#000" stroke-linecap="butt" stroke-linejoin="round" stroke-width="2" d="M416.876 148.696a2.4 2.4 0 0 1 2.4-2.4h9.91a2.4 2.4 0 0 1 2.399 2.4v9.595a2.4 2.4 0 0 1-2.4 2.4h-9.91a2.4 2.4 0 0 1-2.399-2.4z"/><path fill="#e38a42" fill-rule="evenodd" d="M416.876 166.696a2.4 2.4 0 0 1 2.4-2.4h9.91a2.4 2.4 0 0 1 2.399 2.4v9.595a2.4 2.4 0 0 1-2.4 2.4h-9.91a2.4 2.4 0 0 1-2.399-2.4z"/><path stroke="#000" stroke-linecap="butt" stroke-linejoin="round" stroke-width="2" d="M416.876 166.696a2.4 2.4 0 0 1 2.4-2.4h9.91a2.4 2.4 0 0 1 2.399 2.4v9.595a2.4 2.4 0 0 1-2.4 2.4h-9.91a2.4 2.4 0 0 1-2.399-2.4z"/><path fill="#e38a42" fill-rule="evenodd" d="M437.876 112.696a2.4 2.4 0 0 1 2.4-2.4h9.91a2.4 2.4 0 0 1 2.399 2.4v9.595a2.4 2.4 0 0 1-2.4 2.4h-9.91a2.4 2.4 0 0 1-2.399-2.4z"/><path stroke="#000" stroke-linecap="butt" stroke-linejoin="round" stroke-width="2" d="M437.876 112.696a2.4 2.4 0 0 1 2.4-2.4h9.91a2.4 2.4 0 0 1 2.399 2.4v9.595a2.4 2.4 0 0 1-2.4 2.4h-9.91a2.4 2.4 0 0 1-2.399-2.4z"/><path fill="#e38a42" fill-rule="evenodd" d="M437.876 130.696a2.4 2.4 0 0 1 2.4-2.4h9.91a2.4 2.4 0 0 1 2.399 2.4v9.595a2.4 2.4 0 0 1-2.4 2.4h-9.91a2.4 2.4 0 0 1-2.399-2.4z"/><path stroke="#000" stroke-linecap="butt" stroke-linejoin="round" stroke-width="2" d="M437.876 130.696a2.4 2.4 0 0 1 2.4-2.4h9.91a2.4 2.4 0 0 1 2.399 2.4v9.595a2.4 2.4 0 0 1-2.4 2.4h-9.91a2.4 2.4 0 0 1-2.399-2.4z"/><path fill="#e38a42" fill-rule="evenodd" d="M437.876 148.696a2.4 2.4 0 0 1 2.4-2.4h9.91a2.4 2.4 0 0 1 2.399 2.4v9.595a2.4 2.4 0 0 1-2.4 2.4h-9.91a2.4 2.4 0 0 1-2.399-2.4z"/><path stroke="#000" stroke-linecap="butt" stroke-linejoin="round" stroke-width="2" d="M437.876 148.696a2.4 2.4 0 0 1 2.4-2.4h9.91a2.4 2.4 0 0 1 2.399 2.4v9.595a2.4 2.4 0 0 1-2.4 2.4h-9.91a2.4 2.4 0 0 1-2.399-2.4z"/><path fill="#e38a42" fill-rule="evenodd" d="M437.876 166.696a2.4 2.4 0 0 1 2.4-2.4h9.91a2.4 2.4 0 0 1 2.399 2.4v9.595a2.4 2.4 0 0 1-2.4 2.4h-9.91a2.4 2.4 0 0 1-2.399-2.4z"/><path stroke="#000" stroke-linecap="butt" stroke-linejoin="round" stroke-width="2" d="M437.876 166.696a2.4 2.4 0 0 1 2.4-2.4h9.91a2.4 2.4 0 0 1 2.399 2.4v9.595a2.4 2.4 0 0 1-2.4 2.4h-9.91a2.4 2.4 0 0 1-2.399-2.4z"/><path fill="#e38a42" fill-rule="evenodd" d="M358.89 112.696a2.4 2.4 0 0 1 2.4-2.4h9.91a2.4 2.4 0 0 1 2.4 2.4v9.595a2.4 2.4 0 0 1-2.4 2.4h-9.91a2.4 2.4 0 0 1-2.4-2.4z"/><path stroke="#000" stroke-linecap="butt" stroke-linejoin="round" stroke-width="2" d="M358.89 112.696a2.4 2.4 0 0 1 2.4-2.4h9.91a2.4 2.4 0 0 1 2.4 2.4v9.595a2.4 2.4 0 0 1-2.4 2.4h-9.91a2.4 2.4 0 0 1-2.4-2.4z"/><path fill="#e38a42" fill-rule="evenodd" d="M358.89 130.696a2.4 2.4 0 0 1 2.4-2.4h9.91a2.4 2.4 0 0 1 2.4 2.4v9.595a2.4 2.4 0 0 1-2.4 2.4h-9.91a2.4 2.4 0 0 1-2.4-2.4z"/><path stroke="#000" stroke-linecap="butt" stroke-linejoin="round" stroke-width="2" d="M358.89 130.696a2.4 2.4 0 0 1 2.4-2.4h9.91a2.4 2.4 0 0 1 2.4 2.4v9.595a2.4 2.4 0 0 1-2.4 2.4h-9.91a2.4 2.4 0 0 1-2.4-2.4z"/><path fill="#e38a42" fill-rule="evenodd" d="M358.89 148.696a2.4 2.4 0 0 1 2.4-2.4h9.91a2.4 2.4 0 0 1 2.4 2.4v9.595a2.4 2.4 0 0 1-2.4 2.4h-9.91a2.4 2.4 0 0 1-2.4-2.4z"/><path stroke="#000" stroke-linecap="butt" stroke-linejoin="round" stroke-width="2" d="M358.89 148.696a2.4 2.4 0 0 1 2.4-2.4h9.91a2.4 2.4 0 0 1 2.4 2.4v9.595a2.4 2.4 0 0 1-2.4 2.4h-9.91a2.4 2.4 0 0 1-2.4-2.4z"/><path fill="#e38a42" fill-rule="evenodd" d="M358.89 166.696a2.4 2.4 0 0 1 2.4-2.4h9.91a2.4 2.4 0 0 1 2.4 2.4v9.595a2.4 2.4 0 0 1-2.4 2.4h-9.91a2.4 2.4 0 0 1-2.4-2.4z"/><path stroke="#000" stroke-linecap="butt" stroke-linejoin="round" stroke-width="2" d="M358.89 166.696a2.4 2.4 0 0 1 2.4-2.4h9.91a2.4 2.4 0 0 1 2.4 2.4v9.595a2.4 2.4 0 0 1-2.4 2.4h-9.91a2.4 2.4 0 0 1-2.4-2.4z"/><path fill="#e38a42" fill-rule="evenodd" d="M379.89 112.696a2.4 2.4 0 0 1 2.4-2.4h9.91a2.4 2.4 0 0 1 2.4 2.4v9.595a2.4 2.4 0 0 1-2.4 2.4h-9.91a2.4 2.4 0 0 1-2.4-2.4z"/><path stroke="#000" stroke-linecap="butt" stroke-linejoin="round" stroke-width="2" d="M379.89 112.696a2.4 2.4 0 0 1 2.4-2.4h9.91a2.4 2.4 0 0 1 2.4 2.4v9.595a2.4 2.4 0 0 1-2.4 2.4h-9.91a2.4 2.4 0 0 1-2.4-2.4z"/><path fill="#e38a42" fill-rule="evenodd" d="M379.89 130.696a2.4 2.4 0 0 1 2.4-2.4h9.91a2.4 2.4 0 0 1 2.4 2.4v9.595a2.4 2.4 0 0 1-2.4 2.4h-9.91a2.4 2.4 0 0 1-2.4-2.4z"/><path stroke="#000" stroke-linecap="butt" stroke-linejoin="round" stroke-width="2" d="M379.89 130.696a2.4 2.4 0 0 1 2.4-2.4h9.91a2.4 2.4 0 0 1 2.4 2.4v9.595a2.4 2.4 0 0 1-2.4 2.4h-9.91a2.4 2.4 0 0 1-2.4-2.4z"/><path fill="#e38a42" fill-rule="evenodd" d="M379.89 148.696a2.4 2.4 0 0 1 2.4-2.4h9.91a2.4 2.4 0 0 1 2.4 2.4v9.595a2.4 2.4 0 0 1-2.4 2.4h-9.91a2.4 2.4 0 0 1-2.4-2.4z"/><path stroke="#000" stroke-linecap="butt" stroke-linejoin="round" stroke-width="2" d="M379.89 148.696a2.4 2.4 0 0 1 2.4-2.4h9.91a2.4 2.4 0 0 1 2.4 2.4v9.595a2.4 2.4 0 0 1-2.4 2.4h-9.91a2.4 2.4 0 0 1-2.4-2.4z"/><path fill="#e38a42" fill-rule="evenodd" d="M379.89 166.696a2.4 2.4 0 0 1 2.4-2.4h9.91a2.4 2.4 0 0 1 2.4 2.4v9.595a2.4 2.4 0 0 1-2.4 2.4h-9.91a2.4 2.4 0 0 1-2.4-2.4z"/><path stroke="#000" stroke-linecap="butt" stroke-linejoin="round" stroke-width="2" d="M379.89 166.696a2.4 2.4 0 0 1 2.4-2.4h9.91a2.4 2.4 0 0 1 2.4 2.4v9.595a2.4 2.4 0 0 1-2.4 2.4h-9.91a2.4 2.4 0 0 1-2.4-2.4z"/><path fill="#4ea5b7" fill-rule="evenodd" d="M492.923 52.381c0-11.292 9.154-20.446 20.447-20.446h81.784A20.447 20.447 0 0 1 615.6 52.38v119.957c0 11.293-9.154 20.447-20.446 20.447H513.37c-11.293 0-20.447-9.154-20.447-20.447z"/><path stroke="#000" stroke-linecap="butt" stroke-linejoin="round" stroke-width="2" d="M492.923 52.381c0-11.292 9.154-20.446 20.447-20.446h81.784A20.447 20.447 0 0 1 615.6 52.38v119.957c0 11.293-9.154 20.447-20.446 20.447H513.37c-11.293 0-20.447-9.154-20.447-20.447z"/><path fill="#fff" d="m549.234 44.717-2.015 1.781q-1.078-1.484-2.172-1.484-.547 0-.89.297-.329.28-.329.64t.234.688q.344.422 2 1.844 1.563 1.312 1.907 1.64.828.844 1.172 1.61.343.765.343 1.671 0 1.782-1.218 2.938-1.22 1.14-3.188 1.14-1.531 0-2.672-.75-1.125-.75-1.937-2.359l2.297-1.39q1.03 1.906 2.375 1.906.703 0 1.171-.406.485-.422.485-.954 0-.484-.36-.968-.359-.5-1.593-1.5-2.344-1.922-3.032-2.953-.671-1.047-.671-2.079 0-1.5 1.125-2.562 1.14-1.078 2.812-1.078 1.078 0 2.047.5t2.11 1.828m4.26-1.953h2.672l3.328 10.015 3.36-10.015h2.64l2.422 14.36h-2.64l-1.548-9.079-3.046 9.078h-2.422l-3.016-9.078-1.562 9.078h-2.672z"/><path fill="#e889ab" fill-rule="evenodd" d="M503.144 72.147a4.814 4.814 0 0 1 4.813-4.814h92.609a4.814 4.814 0 0 1 4.814 4.814v19.254a4.814 4.814 0 0 1-4.814 4.814h-92.609a4.814 4.814 0 0 1-4.813-4.814z"/><path stroke="#000" stroke-linecap="butt" stroke-linejoin="round" stroke-width="2" d="M503.144 72.147a4.814 4.814 0 0 1 4.813-4.814h92.609a4.814 4.814 0 0 1 4.814 4.814v19.254a4.814 4.814 0 0 1-4.814 4.814h-92.609a4.814 4.814 0 0 1-4.813-4.814z"/><path fill="#fff" d="m533.91 77.13-1.906 1.829q-1.953-2.063-4.406-2.063-2.063 0-3.47 1.406-1.405 1.407-1.405 3.47 0 1.437.625 2.562.625 1.109 1.765 1.75 1.14.625 2.531.625 1.204 0 2.188-.438.984-.453 2.172-1.625l1.844 1.938q-1.594 1.547-3.016 2.156-1.406.594-3.219.594-3.344 0-5.484-2.125t-2.14-5.438q0-2.156.968-3.828.984-1.672 2.797-2.687 1.812-1.016 3.89-1.016 1.782 0 3.422.766 1.657.75 2.844 2.125m7.096.938q1.5 0 2.812.766 1.328.75 2.063 2.047.75 1.28.75 2.765 0 1.516-.75 2.828-.735 1.297-2.031 2.047-1.282.735-2.844.735-2.281 0-3.906-1.625-1.61-1.641-1.61-3.954 0-2.5 1.828-4.156 1.61-1.453 3.688-1.453m.031 2.516q-1.234 0-2.062.875-.829.859-.829 2.203 0 1.39.813 2.25.828.86 2.078.86t2.078-.876.828-2.234q0-1.375-.828-2.219-.812-.86-2.078-.86m7.771-2.235h2.657v1.078q.906-.75 1.64-1.046.75-.313 1.516-.313 1.578 0 2.687 1.11.922.937.922 2.78v7.016h-2.625v-4.656q0-1.906-.172-2.531t-.609-.953q-.422-.328-1.047-.328-.797 0-1.39.546-.579.532-.797 1.5-.125.5-.125 2.157v4.265h-2.657zm12.33-3.922h2.657v3.922h1.578v2.297h-1.578v8.328h-2.656v-8.328h-1.375V78.35h1.375zm5.044 3.922h2.296v1.344q.36-.797.97-1.203.624-.422 1.359-.422.515 0 1.078.281l-.828 2.297q-.47-.234-.766-.234-.625 0-1.047.765-.422.75-.422 2.985l.016.515v4.297h-2.656zm12.021-.281q1.5 0 2.813.766 1.328.75 2.062 2.047.75 1.28.75 2.765 0 1.516-.75 2.828-.734 1.297-2.031 2.047-1.281.735-2.844.735-2.281 0-3.906-1.625-1.61-1.641-1.61-3.954 0-2.5 1.829-4.156 1.609-1.453 3.687-1.453m.031 2.516q-1.234 0-2.062.875-.828.859-.828 2.203 0 1.39.812 2.25.828.86 2.078.86t2.078-.876.828-2.234q0-1.375-.828-2.219-.812-.86-2.078-.86m7.49-6.344h2.672v14.734h-2.672z"/><path d="M503.144 113.948a7.375 7.375 0 0 1 7.375-7.376h29.501a7.375 7.375 0 0 1 7.375 7.376v61.091a7.375 7.375 0 0 1-7.375 7.376h-29.5a7.375 7.375 0 0 1-7.375-7.376z"/><path stroke="#000" stroke-linecap="butt" stroke-linejoin="round" stroke-width="2" d="M503.144 113.948a7.375 7.375 0 0 1 7.375-7.376h29.501a7.375 7.375 0 0 1 7.375 7.376v61.091a7.375 7.375 0 0 1-7.375 7.376h-29.5a7.375 7.375 0 0 1-7.375-7.376z"/><path d="M561.128 113.948a7.375 7.375 0 0 1 7.375-7.376h29.501a7.375 7.375 0 0 1 7.376 7.376v61.091a7.375 7.375 0 0 1-7.376 7.376h-29.5a7.375 7.375 0 0 1-7.376-7.376z"/><path stroke="#000" stroke-linecap="butt" stroke-linejoin="round" stroke-width="2" d="M561.128 113.948a7.375 7.375 0 0 1 7.375-7.376h29.501a7.375 7.375 0 0 1 7.376 7.376v61.091a7.375 7.375 0 0 1-7.376 7.376h-29.5a7.375 7.375 0 0 1-7.376-7.376z"/><path fill="#e38a42" fill-rule="evenodd" d="M565.4 112.696a2.4 2.4 0 0 1 2.398-2.4h9.911a2.4 2.4 0 0 1 2.4 2.4v9.595a2.4 2.4 0 0 1-2.4 2.4h-9.91a2.4 2.4 0 0 1-2.4-2.4z"/><path stroke="#000" stroke-linecap="butt" stroke-linejoin="round" stroke-width="2" d="M565.4 112.696a2.4 2.4 0 0 1 2.398-2.4h9.911a2.4 2.4 0 0 1 2.4 2.4v9.595a2.4 2.4 0 0 1-2.4 2.4h-9.91a2.4 2.4 0 0 1-2.4-2.4z"/><path fill="#e38a42" fill-rule="evenodd" d="M565.4 130.696a2.4 2.4 0 0 1 2.398-2.4h9.911a2.4 2.4 0 0 1 2.4 2.4v9.595a2.4 2.4 0 0 1-2.4 2.4h-9.91a2.4 2.4 0 0 1-2.4-2.4z"/><path stroke="#000" stroke-linecap="butt" stroke-linejoin="round" stroke-width="2" d="M565.4 130.696a2.4 2.4 0 0 1 2.398-2.4h9.911a2.4 2.4 0 0 1 2.4 2.4v9.595a2.4 2.4 0 0 1-2.4 2.4h-9.91a2.4 2.4 0 0 1-2.4-2.4z"/><path fill="#e38a42" fill-rule="evenodd" d="M565.4 148.696a2.4 2.4 0 0 1 2.398-2.4h9.911a2.4 2.4 0 0 1 2.4 2.4v9.595a2.4 2.4 0 0 1-2.4 2.4h-9.91a2.4 2.4 0 0 1-2.4-2.4z"/><path stroke="#000" stroke-linecap="butt" stroke-linejoin="round" stroke-width="2" d="M565.4 148.696a2.4 2.4 0 0 1 2.398-2.4h9.911a2.4 2.4 0 0 1 2.4 2.4v9.595a2.4 2.4 0 0 1-2.4 2.4h-9.91a2.4 2.4 0 0 1-2.4-2.4z"/><path fill="#e38a42" fill-rule="evenodd" d="M565.4 166.696a2.4 2.4 0 0 1 2.398-2.4h9.911a2.4 2.4 0 0 1 2.4 2.4v9.595a2.4 2.4 0 0 1-2.4 2.4h-9.91a2.4 2.4 0 0 1-2.4-2.4z"/><path stroke="#000" stroke-linecap="butt" stroke-linejoin="round" stroke-width="2" d="M565.4 166.696a2.4 2.4 0 0 1 2.398-2.4h9.911a2.4 2.4 0 0 1 2.4 2.4v9.595a2.4 2.4 0 0 1-2.4 2.4h-9.91a2.4 2.4 0 0 1-2.4-2.4z"/><path fill="#e38a42" fill-rule="evenodd" d="M586.4 112.696a2.4 2.4 0 0 1 2.398-2.4h9.911a2.4 2.4 0 0 1 2.4 2.4v9.595a2.4 2.4 0 0 1-2.4 2.4h-9.91a2.4 2.4 0 0 1-2.4-2.4z"/><path stroke="#000" stroke-linecap="butt" stroke-linejoin="round" stroke-width="2" d="M586.4 112.696a2.4 2.4 0 0 1 2.398-2.4h9.911a2.4 2.4 0 0 1 2.4 2.4v9.595a2.4 2.4 0 0 1-2.4 2.4h-9.91a2.4 2.4 0 0 1-2.4-2.4z"/><path fill="#e38a42" fill-rule="evenodd" d="M586.4 130.696a2.4 2.4 0 0 1 2.398-2.4h9.911a2.4 2.4 0 0 1 2.4 2.4v9.595a2.4 2.4 0 0 1-2.4 2.4h-9.91a2.4 2.4 0 0 1-2.4-2.4z"/><path stroke="#000" stroke-linecap="butt" stroke-linejoin="round" stroke-width="2" d="M586.4 130.696a2.4 2.4 0 0 1 2.398-2.4h9.911a2.4 2.4 0 0 1 2.4 2.4v9.595a2.4 2.4 0 0 1-2.4 2.4h-9.91a2.4 2.4 0 0 1-2.4-2.4z"/><path fill="#e38a42" fill-rule="evenodd" d="M586.4 148.696a2.4 2.4 0 0 1 2.398-2.4h9.911a2.4 2.4 0 0 1 2.4 2.4v9.595a2.4 2.4 0 0 1-2.4 2.4h-9.91a2.4 2.4 0 0 1-2.4-2.4z"/><path stroke="#000" stroke-linecap="butt" stroke-linejoin="round" stroke-width="2" d="M586.4 148.696a2.4 2.4 0 0 1 2.398-2.4h9.911a2.4 2.4 0 0 1 2.4 2.4v9.595a2.4 2.4 0 0 1-2.4 2.4h-9.91a2.4 2.4 0 0 1-2.4-2.4z"/><path fill="#e38a42" fill-rule="evenodd" d="M586.4 166.696a2.4 2.4 0 0 1 2.398-2.4h9.911a2.4 2.4 0 0 1 2.4 2.4v9.595a2.4 2.4 0 0 1-2.4 2.4h-9.91a2.4 2.4 0 0 1-2.4-2.4z"/><path stroke="#000" stroke-linecap="butt" stroke-linejoin="round" stroke-width="2" d="M586.4 166.696a2.4 2.4 0 0 1 2.398-2.4h9.911a2.4 2.4 0 0 1 2.4 2.4v9.595a2.4 2.4 0 0 1-2.4 2.4h-9.91a2.4 2.4 0 0 1-2.4-2.4z"/><path fill="#e38a42" fill-rule="evenodd" d="M507.414 112.696a2.4 2.4 0 0 1 2.399-2.4h9.91a2.4 2.4 0 0 1 2.4 2.4v9.595a2.4 2.4 0 0 1-2.4 2.4h-9.91a2.4 2.4 0 0 1-2.4-2.4z"/><path stroke="#000" stroke-linecap="butt" stroke-linejoin="round" stroke-width="2" d="M507.414 112.696a2.4 2.4 0 0 1 2.399-2.4h9.91a2.4 2.4 0 0 1 2.4 2.4v9.595a2.4 2.4 0 0 1-2.4 2.4h-9.91a2.4 2.4 0 0 1-2.4-2.4z"/><path fill="#e38a42" fill-rule="evenodd" d="M507.414 130.696a2.4 2.4 0 0 1 2.399-2.4h9.91a2.4 2.4 0 0 1 2.4 2.4v9.595a2.4 2.4 0 0 1-2.4 2.4h-9.91a2.4 2.4 0 0 1-2.4-2.4z"/><path stroke="#000" stroke-linecap="butt" stroke-linejoin="round" stroke-width="2" d="M507.414 130.696a2.4 2.4 0 0 1 2.399-2.4h9.91a2.4 2.4 0 0 1 2.4 2.4v9.595a2.4 2.4 0 0 1-2.4 2.4h-9.91a2.4 2.4 0 0 1-2.4-2.4z"/><path fill="#e38a42" fill-rule="evenodd" d="M507.414 148.696a2.4 2.4 0 0 1 2.399-2.4h9.91a2.4 2.4 0 0 1 2.4 2.4v9.595a2.4 2.4 0 0 1-2.4 2.4h-9.91a2.4 2.4 0 0 1-2.4-2.4z"/><path stroke="#000" stroke-linecap="butt" stroke-linejoin="round" stroke-width="2" d="M507.414 148.696a2.4 2.4 0 0 1 2.399-2.4h9.91a2.4 2.4 0 0 1 2.4 2.4v9.595a2.4 2.4 0 0 1-2.4 2.4h-9.91a2.4 2.4 0 0 1-2.4-2.4z"/><path fill="#e38a42" fill-rule="evenodd" d="M507.414 166.696a2.4 2.4 0 0 1 2.399-2.4h9.91a2.4 2.4 0 0 1 2.4 2.4v9.595a2.4 2.4 0 0 1-2.4 2.4h-9.91a2.4 2.4 0 0 1-2.4-2.4z"/><path stroke="#000" stroke-linecap="butt" stroke-linejoin="round" stroke-width="2" d="M507.414 166.696a2.4 2.4 0 0 1 2.399-2.4h9.91a2.4 2.4 0 0 1 2.4 2.4v9.595a2.4 2.4 0 0 1-2.4 2.4h-9.91a2.4 2.4 0 0 1-2.4-2.4z"/><path fill="#e38a42" fill-rule="evenodd" d="M528.414 112.696a2.4 2.4 0 0 1 2.399-2.4h9.91a2.4 2.4 0 0 1 2.4 2.4v9.595a2.4 2.4 0 0 1-2.4 2.4h-9.91a2.4 2.4 0 0 1-2.4-2.4z"/><path stroke="#000" stroke-linecap="butt" stroke-linejoin="round" stroke-width="2" d="M528.414 112.696a2.4 2.4 0 0 1 2.399-2.4h9.91a2.4 2.4 0 0 1 2.4 2.4v9.595a2.4 2.4 0 0 1-2.4 2.4h-9.91a2.4 2.4 0 0 1-2.4-2.4z"/><path fill="#e38a42" fill-rule="evenodd" d="M528.414 130.696a2.4 2.4 0 0 1 2.399-2.4h9.91a2.4 2.4 0 0 1 2.4 2.4v9.595a2.4 2.4 0 0 1-2.4 2.4h-9.91a2.4 2.4 0 0 1-2.4-2.4z"/><path stroke="#000" stroke-linecap="butt" stroke-linejoin="round" stroke-width="2" d="M528.414 130.696a2.4 2.4 0 0 1 2.399-2.4h9.91a2.4 2.4 0 0 1 2.4 2.4v9.595a2.4 2.4 0 0 1-2.4 2.4h-9.91a2.4 2.4 0 0 1-2.4-2.4z"/><path fill="#e38a42" fill-rule="evenodd" d="M528.414 148.696a2.4 2.4 0 0 1 2.399-2.4h9.91a2.4 2.4 0 0 1 2.4 2.4v9.595a2.4 2.4 0 0 1-2.4 2.4h-9.91a2.4 2.4 0 0 1-2.4-2.4z"/><path stroke="#000" stroke-linecap="butt" stroke-linejoin="round" stroke-width="2" d="M528.414 148.696a2.4 2.4 0 0 1 2.399-2.4h9.91a2.4 2.4 0 0 1 2.4 2.4v9.595a2.4 2.4 0 0 1-2.4 2.4h-9.91a2.4 2.4 0 0 1-2.4-2.4z"/><path fill="#e38a42" fill-rule="evenodd" d="M528.414 166.696a2.4 2.4 0 0 1 2.399-2.4h9.91a2.4 2.4 0 0 1 2.4 2.4v9.595a2.4 2.4 0 0 1-2.4 2.4h-9.91a2.4 2.4 0 0 1-2.4-2.4z"/><path stroke="#000" stroke-linecap="butt" stroke-linejoin="round" stroke-width="2" d="M528.414 166.696a2.4 2.4 0 0 1 2.399-2.4h9.91a2.4 2.4 0 0 1 2.4 2.4v9.595a2.4 2.4 0 0 1-2.4 2.4h-9.91a2.4 2.4 0 0 1-2.4-2.4z"/><path fill="#4ea5b7" fill-rule="evenodd" d="M641.447 52.381c0-11.292 9.154-20.446 20.446-20.446h81.784a20.447 20.447 0 0 1 20.447 20.446v119.957c0 11.293-9.155 20.447-20.447 20.447h-81.784c-11.292 0-20.446-9.154-20.446-20.447z"/><path stroke="#000" stroke-linecap="butt" stroke-linejoin="round" stroke-width="2" d="M641.447 52.381c0-11.292 9.154-20.446 20.446-20.446h81.784a20.447 20.447 0 0 1 20.447 20.446v119.957c0 11.293-9.155 20.447-20.447 20.447h-81.784c-11.292 0-20.446-9.154-20.446-20.447z"/><path fill="#fff" d="m697.758 44.717-2.016 1.781q-1.078-1.484-2.172-1.484-.547 0-.89.297-.329.28-.329.64t.235.688q.344.422 2 1.844 1.562 1.312 1.906 1.64.828.844 1.172 1.61.344.765.344 1.671 0 1.782-1.22 2.938-1.218 1.14-3.187 1.14-1.53 0-2.671-.75-1.125-.75-1.938-2.359l2.297-1.39q1.031 1.906 2.375 1.906.703 0 1.172-.406.484-.422.484-.954 0-.484-.36-.968-.359-.5-1.593-1.5-2.344-1.922-3.031-2.953-.672-1.047-.672-2.079 0-1.5 1.125-2.562 1.14-1.078 2.812-1.078 1.079 0 2.047.5.97.5 2.11 1.828m4.26-1.953h2.671l3.328 10.015 3.36-10.015h2.64l2.422 14.36h-2.64l-1.547-9.079-3.047 9.078h-2.422l-3.016-9.078-1.562 9.078h-2.672z"/><path fill="#e889ab" fill-rule="evenodd" d="M651.667 72.147a4.814 4.814 0 0 1 4.814-4.814h92.608a4.814 4.814 0 0 1 4.814 4.814v19.254a4.814 4.814 0 0 1-4.814 4.814h-92.608a4.814 4.814 0 0 1-4.814-4.814z"/><path stroke="#000" stroke-linecap="butt" stroke-linejoin="round" stroke-width="2" d="M651.667 72.147a4.814 4.814 0 0 1 4.814-4.814h92.608a4.814 4.814 0 0 1 4.814 4.814v19.254a4.814 4.814 0 0 1-4.814 4.814h-92.608a4.814 4.814 0 0 1-4.814-4.814z"/><path fill="#fff" d="m682.434 77.13-1.907 1.829q-1.953-2.063-4.406-2.063-2.062 0-3.469 1.406-1.406 1.407-1.406 3.47 0 1.437.625 2.562.625 1.109 1.766 1.75 1.14.625 2.53.625 1.204 0 2.188-.438.985-.453 2.172-1.625l1.844 1.938q-1.594 1.547-3.016 2.156-1.406.594-3.218.594-3.344 0-5.485-2.125-2.14-2.125-2.14-5.438 0-2.156.968-3.828.985-1.672 2.797-2.687 1.813-1.016 3.89-1.016 1.782 0 3.423.766 1.656.75 2.843 2.125m7.095.938q1.5 0 2.813.766 1.328.75 2.062 2.047.75 1.28.75 2.765 0 1.516-.75 2.828-.734 1.297-2.031 2.047-1.281.735-2.844.735-2.281 0-3.906-1.625-1.61-1.641-1.61-3.954 0-2.5 1.829-4.156 1.61-1.453 3.687-1.453m.031 2.516q-1.234 0-2.062.875-.828.859-.828 2.203 0 1.39.812 2.25.828.86 2.078.86t2.079-.876.828-2.234q0-1.375-.828-2.219-.813-.86-2.079-.86m7.772-2.235h2.656v1.078q.906-.75 1.64-1.046.75-.313 1.516-.313 1.579 0 2.688 1.11.922.937.922 2.78v7.016h-2.625v-4.656q0-1.906-.172-2.531t-.61-.953q-.421-.328-1.046-.328-.797 0-1.391.546-.578.532-.797 1.5-.125.5-.125 2.157v4.265h-2.656zm12.33-3.922h2.656v3.922h1.578v2.297h-1.578v8.328h-2.656v-8.328h-1.375V78.35h1.375zm5.043 3.922h2.297v1.344q.36-.797.969-1.203.625-.422 1.359-.422.516 0 1.078.281l-.828 2.297q-.469-.234-.766-.234-.625 0-1.047.765-.421.75-.421 2.985l.015.515v4.297h-2.656zm12.021-.281q1.5 0 2.813.766 1.328.75 2.062 2.047.75 1.28.75 2.765 0 1.516-.75 2.828-.734 1.297-2.03 2.047-1.282.735-2.845.735-2.28 0-3.906-1.625-1.61-1.641-1.61-3.954 0-2.5 1.829-4.156 1.61-1.453 3.687-1.453m.032 2.516q-1.235 0-2.063.875-.828.859-.828 2.203 0 1.39.812 2.25.829.86 2.079.86t2.078-.876.828-2.234q0-1.375-.828-2.219-.813-.86-2.078-.86m7.49-6.344h2.672v14.734h-2.672z"/><path d="M651.667 113.948a7.375 7.375 0 0 1 7.375-7.376h29.501a7.376 7.376 0 0 1 7.376 7.376v61.091a7.375 7.375 0 0 1-7.376 7.376h-29.5a7.375 7.375 0 0 1-7.376-7.376z"/><path stroke="#000" stroke-linecap="butt" stroke-linejoin="round" stroke-width="2" d="M651.667 113.948a7.375 7.375 0 0 1 7.375-7.376h29.501a7.376 7.376 0 0 1 7.376 7.376v61.091a7.375 7.375 0 0 1-7.376 7.376h-29.5a7.375 7.375 0 0 1-7.376-7.376z"/><path d="M709.651 113.948a7.375 7.375 0 0 1 7.376-7.376h29.5a7.376 7.376 0 0 1 7.376 7.376v61.091a7.375 7.375 0 0 1-7.375 7.376h-29.501a7.375 7.375 0 0 1-7.376-7.376z"/><path stroke="#000" stroke-linecap="butt" stroke-linejoin="round" stroke-width="2" d="M709.651 113.948a7.375 7.375 0 0 1 7.376-7.376h29.5a7.376 7.376 0 0 1 7.376 7.376v61.091a7.375 7.375 0 0 1-7.375 7.376h-29.501a7.375 7.375 0 0 1-7.376-7.376z"/><path fill="#e38a42" fill-rule="evenodd" d="M713.923 112.696a2.4 2.4 0 0 1 2.399-2.4h9.91a2.4 2.4 0 0 1 2.4 2.4v9.595a2.4 2.4 0 0 1-2.4 2.4h-9.91a2.4 2.4 0 0 1-2.4-2.4z"/><path stroke="#000" stroke-linecap="butt" stroke-linejoin="round" stroke-width="2" d="M713.923 112.696a2.4 2.4 0 0 1 2.399-2.4h9.91a2.4 2.4 0 0 1 2.4 2.4v9.595a2.4 2.4 0 0 1-2.4 2.4h-9.91a2.4 2.4 0 0 1-2.4-2.4z"/><path fill="#e38a42" fill-rule="evenodd" d="M713.923 130.696a2.4 2.4 0 0 1 2.399-2.4h9.91a2.4 2.4 0 0 1 2.4 2.4v9.595a2.4 2.4 0 0 1-2.4 2.4h-9.91a2.4 2.4 0 0 1-2.4-2.4z"/><path stroke="#000" stroke-linecap="butt" stroke-linejoin="round" stroke-width="2" d="M713.923 130.696a2.4 2.4 0 0 1 2.399-2.4h9.91a2.4 2.4 0 0 1 2.4 2.4v9.595a2.4 2.4 0 0 1-2.4 2.4h-9.91a2.4 2.4 0 0 1-2.4-2.4z"/><path fill="#e38a42" fill-rule="evenodd" d="M713.923 148.696a2.4 2.4 0 0 1 2.399-2.4h9.91a2.4 2.4 0 0 1 2.4 2.4v9.595a2.4 2.4 0 0 1-2.4 2.4h-9.91a2.4 2.4 0 0 1-2.4-2.4z"/><path stroke="#000" stroke-linecap="butt" stroke-linejoin="round" stroke-width="2" d="M713.923 148.696a2.4 2.4 0 0 1 2.399-2.4h9.91a2.4 2.4 0 0 1 2.4 2.4v9.595a2.4 2.4 0 0 1-2.4 2.4h-9.91a2.4 2.4 0 0 1-2.4-2.4z"/><path fill="#e38a42" fill-rule="evenodd" d="M713.923 166.696a2.4 2.4 0 0 1 2.399-2.4h9.91a2.4 2.4 0 0 1 2.4 2.4v9.595a2.4 2.4 0 0 1-2.4 2.4h-9.91a2.4 2.4 0 0 1-2.4-2.4z"/><path stroke="#000" stroke-linecap="butt" stroke-linejoin="round" stroke-width="2" d="M713.923 166.696a2.4 2.4 0 0 1 2.399-2.4h9.91a2.4 2.4 0 0 1 2.4 2.4v9.595a2.4 2.4 0 0 1-2.4 2.4h-9.91a2.4 2.4 0 0 1-2.4-2.4z"/><path fill="#e38a42" fill-rule="evenodd" d="M734.923 112.696a2.4 2.4 0 0 1 2.399-2.4h9.91a2.4 2.4 0 0 1 2.4 2.4v9.595a2.4 2.4 0 0 1-2.4 2.4h-9.91a2.4 2.4 0 0 1-2.4-2.4z"/><path stroke="#000" stroke-linecap="butt" stroke-linejoin="round" stroke-width="2" d="M734.923 112.696a2.4 2.4 0 0 1 2.399-2.4h9.91a2.4 2.4 0 0 1 2.4 2.4v9.595a2.4 2.4 0 0 1-2.4 2.4h-9.91a2.4 2.4 0 0 1-2.4-2.4z"/><path fill="#e38a42" fill-rule="evenodd" d="M734.923 130.696a2.4 2.4 0 0 1 2.399-2.4h9.91a2.4 2.4 0 0 1 2.4 2.4v9.595a2.4 2.4 0 0 1-2.4 2.4h-9.91a2.4 2.4 0 0 1-2.4-2.4z"/><path stroke="#000" stroke-linecap="butt" stroke-linejoin="round" stroke-width="2" d="M734.923 130.696a2.4 2.4 0 0 1 2.399-2.4h9.91a2.4 2.4 0 0 1 2.4 2.4v9.595a2.4 2.4 0 0 1-2.4 2.4h-9.91a2.4 2.4 0 0 1-2.4-2.4z"/><path fill="#e38a42" fill-rule="evenodd" d="M734.923 148.696a2.4 2.4 0 0 1 2.399-2.4h9.91a2.4 2.4 0 0 1 2.4 2.4v9.595a2.4 2.4 0 0 1-2.4 2.4h-9.91a2.4 2.4 0 0 1-2.4-2.4z"/><path stroke="#000" stroke-linecap="butt" stroke-linejoin="round" stroke-width="2" d="M734.923 148.696a2.4 2.4 0 0 1 2.399-2.4h9.91a2.4 2.4 0 0 1 2.4 2.4v9.595a2.4 2.4 0 0 1-2.4 2.4h-9.91a2.4 2.4 0 0 1-2.4-2.4z"/><path fill="#e38a42" fill-rule="evenodd" d="M734.923 166.696a2.4 2.4 0 0 1 2.399-2.4h9.91a2.4 2.4 0 0 1 2.4 2.4v9.595a2.4 2.4 0 0 1-2.4 2.4h-9.91a2.4 2.4 0 0 1-2.4-2.4z"/><path stroke="#000" stroke-linecap="butt" stroke-linejoin="round" stroke-width="2" d="M734.923 166.696a2.4 2.4 0 0 1 2.399-2.4h9.91a2.4 2.4 0 0 1 2.4 2.4v9.595a2.4 2.4 0 0 1-2.4 2.4h-9.91a2.4 2.4 0 0 1-2.4-2.4z"/><path fill="#e38a42" fill-rule="evenodd" d="M655.937 112.696a2.4 2.4 0 0 1 2.4-2.4h9.91a2.4 2.4 0 0 1 2.399 2.4v9.595a2.4 2.4 0 0 1-2.399 2.4h-9.91a2.4 2.4 0 0 1-2.4-2.4z"/><path stroke="#000" stroke-linecap="butt" stroke-linejoin="round" stroke-width="2" d="M655.937 112.696a2.4 2.4 0 0 1 2.4-2.4h9.91a2.4 2.4 0 0 1 2.399 2.4v9.595a2.4 2.4 0 0 1-2.399 2.4h-9.91a2.4 2.4 0 0 1-2.4-2.4z"/><path fill="#e38a42" fill-rule="evenodd" d="M655.937 130.696a2.4 2.4 0 0 1 2.4-2.4h9.91a2.4 2.4 0 0 1 2.399 2.4v9.595a2.4 2.4 0 0 1-2.399 2.4h-9.91a2.4 2.4 0 0 1-2.4-2.4z"/><path stroke="#000" stroke-linecap="butt" stroke-linejoin="round" stroke-width="2" d="M655.937 130.696a2.4 2.4 0 0 1 2.4-2.4h9.91a2.4 2.4 0 0 1 2.399 2.4v9.595a2.4 2.4 0 0 1-2.399 2.4h-9.91a2.4 2.4 0 0 1-2.4-2.4z"/><path fill="#e38a42" fill-rule="evenodd" d="M655.937 148.696a2.4 2.4 0 0 1 2.4-2.4h9.91a2.4 2.4 0 0 1 2.399 2.4v9.595a2.4 2.4 0 0 1-2.399 2.4h-9.91a2.4 2.4 0 0 1-2.4-2.4z"/><path stroke="#000" stroke-linecap="butt" stroke-linejoin="round" stroke-width="2" d="M655.937 148.696a2.4 2.4 0 0 1 2.4-2.4h9.91a2.4 2.4 0 0 1 2.399 2.4v9.595a2.4 2.4 0 0 1-2.399 2.4h-9.91a2.4 2.4 0 0 1-2.4-2.4z"/><path fill="#e38a42" fill-rule="evenodd" d="M655.937 166.696a2.4 2.4 0 0 1 2.4-2.4h9.91a2.4 2.4 0 0 1 2.399 2.4v9.595a2.4 2.4 0 0 1-2.399 2.4h-9.91a2.4 2.4 0 0 1-2.4-2.4z"/><path stroke="#000" stroke-linecap="butt" stroke-linejoin="round" stroke-width="2" d="M655.937 166.696a2.4 2.4 0 0 1 2.4-2.4h9.91a2.4 2.4 0 0 1 2.399 2.4v9.595a2.4 2.4 0 0 1-2.399 2.4h-9.91a2.4 2.4 0 0 1-2.4-2.4z"/><path fill="#e38a42" fill-rule="evenodd" d="M676.937 112.696a2.4 2.4 0 0 1 2.4-2.4h9.91a2.4 2.4 0 0 1 2.399 2.4v9.595a2.4 2.4 0 0 1-2.399 2.4h-9.91a2.4 2.4 0 0 1-2.4-2.4z"/><path stroke="#000" stroke-linecap="butt" stroke-linejoin="round" stroke-width="2" d="M676.937 112.696a2.4 2.4 0 0 1 2.4-2.4h9.91a2.4 2.4 0 0 1 2.399 2.4v9.595a2.4 2.4 0 0 1-2.399 2.4h-9.91a2.4 2.4 0 0 1-2.4-2.4z"/><path fill="#e38a42" fill-rule="evenodd" d="M676.937 130.696a2.4 2.4 0 0 1 2.4-2.4h9.91a2.4 2.4 0 0 1 2.399 2.4v9.595a2.4 2.4 0 0 1-2.399 2.4h-9.91a2.4 2.4 0 0 1-2.4-2.4z"/><path stroke="#000" stroke-linecap="butt" stroke-linejoin="round" stroke-width="2" d="M676.937 130.696a2.4 2.4 0 0 1 2.4-2.4h9.91a2.4 2.4 0 0 1 2.399 2.4v9.595a2.4 2.4 0 0 1-2.399 2.4h-9.91a2.4 2.4 0 0 1-2.4-2.4z"/><path fill="#e38a42" fill-rule="evenodd" d="M676.937 148.696a2.4 2.4 0 0 1 2.4-2.4h9.91a2.4 2.4 0 0 1 2.399 2.4v9.595a2.4 2.4 0 0 1-2.399 2.4h-9.91a2.4 2.4 0 0 1-2.4-2.4z"/><path stroke="#000" stroke-linecap="butt" stroke-linejoin="round" stroke-width="2" d="M676.937 148.696a2.4 2.4 0 0 1 2.4-2.4h9.91a2.4 2.4 0 0 1 2.399 2.4v9.595a2.4 2.4 0 0 1-2.399 2.4h-9.91a2.4 2.4 0 0 1-2.4-2.4z"/><path fill="#e38a42" fill-rule="evenodd" d="M676.937 166.696a2.4 2.4 0 0 1 2.4-2.4h9.91a2.4 2.4 0 0 1 2.399 2.4v9.595a2.4 2.4 0 0 1-2.399 2.4h-9.91a2.4 2.4 0 0 1-2.4-2.4z"/><path stroke="#000" stroke-linecap="butt" stroke-linejoin="round" stroke-width="2" d="M676.937 166.696a2.4 2.4 0 0 1 2.4-2.4h9.91a2.4 2.4 0 0 1 2.399 2.4v9.595a2.4 2.4 0 0 1-2.399 2.4h-9.91a2.4 2.4 0 0 1-2.4-2.4z"/><path fill="#4ea5b7" fill-rule="evenodd" d="M789.97 52.381c0-11.292 9.154-20.446 20.446-20.446H892.2a20.447 20.447 0 0 1 20.447 20.446v119.957c0 11.293-9.154 20.447-20.447 20.447h-81.784c-11.292 0-20.446-9.154-20.446-20.447z"/><path stroke="#000" stroke-linecap="butt" stroke-linejoin="round" stroke-width="2" d="M789.97 52.381c0-11.292 9.154-20.446 20.446-20.446H892.2a20.447 20.447 0 0 1 20.447 20.446v119.957c0 11.293-9.154 20.447-20.447 20.447h-81.784c-11.292 0-20.446-9.154-20.446-20.447z"/><path fill="#fff" d="m846.281 44.717-2.016 1.781q-1.078-1.484-2.171-1.484-.547 0-.891.297-.328.28-.328.64t.234.688q.344.422 2 1.844 1.563 1.312 1.906 1.64.829.844 1.172 1.61.344.765.344 1.671 0 1.782-1.219 2.938-1.218 1.14-3.187 1.14-1.531 0-2.672-.75-1.125-.75-1.938-2.359l2.297-1.39q1.032 1.906 2.375 1.906.703 0 1.172-.406.485-.422.485-.954 0-.484-.36-.968-.36-.5-1.594-1.5-2.343-1.922-3.03-2.953-.673-1.047-.673-2.079 0-1.5 1.125-2.562 1.14-1.078 2.813-1.078 1.078 0 2.047.5.968.5 2.11 1.828m4.26-1.953h2.672l3.328 10.015 3.36-10.015h2.64l2.422 14.36h-2.64l-1.548-9.079-3.047 9.078h-2.422l-3.015-9.078-1.563 9.078h-2.672z"/><path fill="#e889ab" fill-rule="evenodd" d="M800.19 72.147a4.814 4.814 0 0 1 4.814-4.814h92.609a4.814 4.814 0 0 1 4.814 4.814v19.254a4.814 4.814 0 0 1-4.814 4.814h-92.609a4.814 4.814 0 0 1-4.814-4.814z"/><path stroke="#000" stroke-linecap="butt" stroke-linejoin="round" stroke-width="2" d="M800.19 72.147a4.814 4.814 0 0 1 4.814-4.814h92.609a4.814 4.814 0 0 1 4.814 4.814v19.254a4.814 4.814 0 0 1-4.814 4.814h-92.609a4.814 4.814 0 0 1-4.814-4.814z"/><path fill="#fff" d="m830.957 77.13-1.906 1.829q-1.954-2.063-4.407-2.063-2.062 0-3.468 1.406-1.407 1.407-1.407 3.47 0 1.437.625 2.562.625 1.109 1.766 1.75 1.14.625 2.531.625 1.203 0 2.188-.438.984-.453 2.172-1.625l1.843 1.938q-1.593 1.547-3.015 2.156-1.407.594-3.219.594-3.344 0-5.484-2.125t-2.141-5.438q0-2.156.969-3.828.984-1.672 2.797-2.687 1.812-1.016 3.89-1.016 1.781 0 3.422.766 1.656.75 2.844 2.125m7.096.938q1.5 0 2.812.766 1.328.75 2.063 2.047.75 1.28.75 2.765 0 1.516-.75 2.828-.735 1.297-2.032 2.047-1.28.735-2.843.735-2.282 0-3.907-1.625-1.61-1.641-1.61-3.954 0-2.5 1.83-4.156 1.608-1.453 3.687-1.453m.03 2.516q-1.234 0-2.062.875-.828.859-.828 2.203 0 1.39.813 2.25.828.86 2.078.86t2.078-.876.828-2.234q0-1.375-.828-2.219-.813-.86-2.078-.86m7.772-2.235h2.656v1.078q.907-.75 1.641-1.046.75-.313 1.516-.313 1.578 0 2.687 1.11.922.937.922 2.78v7.016h-2.625v-4.656q0-1.906-.172-2.531t-.61-.953q-.421-.328-1.046-.328-.797 0-1.39.546-.579.532-.798 1.5-.125.5-.125 2.157v4.265h-2.656zm12.33-3.922h2.657v3.922h1.578v2.297h-1.578v8.328h-2.657v-8.328h-1.375V78.35h1.375zm5.043 3.922h2.297v1.344q.36-.797.969-1.203.625-.422 1.36-.422.515 0 1.077.281l-.828 2.297q-.468-.234-.765-.234-.625 0-1.047.765-.422.75-.422 2.985l.016.515v4.297h-2.657zm12.022-.281q1.5 0 2.812.766 1.328.75 2.063 2.047.75 1.28.75 2.765 0 1.516-.75 2.828-.735 1.297-2.031 2.047-1.282.735-2.844.735-2.281 0-3.906-1.625-1.61-1.641-1.61-3.954 0-2.5 1.828-4.156 1.61-1.453 3.688-1.453m.031 2.516q-1.234 0-2.063.875-.828.859-.828 2.203 0 1.39.813 2.25.828.86 2.078.86t2.078-.876.828-2.234q0-1.375-.828-2.219-.812-.86-2.078-.86m7.49-6.344h2.672v14.734h-2.672z"/><path d="M800.19 113.948a7.375 7.375 0 0 1 7.376-7.376h29.5a7.376 7.376 0 0 1 7.376 7.376v61.091a7.375 7.375 0 0 1-7.375 7.376h-29.501a7.375 7.375 0 0 1-7.376-7.376z"/><path stroke="#000" stroke-linecap="butt" stroke-linejoin="round" stroke-width="2" d="M800.19 113.948a7.375 7.375 0 0 1 7.376-7.376h29.5a7.376 7.376 0 0 1 7.376 7.376v61.091a7.375 7.375 0 0 1-7.375 7.376h-29.501a7.375 7.375 0 0 1-7.376-7.376z"/><path d="M858.175 113.948a7.375 7.375 0 0 1 7.375-7.376h29.501a7.376 7.376 0 0 1 7.376 7.376v61.091a7.375 7.375 0 0 1-7.376 7.376H865.55a7.375 7.375 0 0 1-7.375-7.376z"/><path stroke="#000" stroke-linecap="butt" stroke-linejoin="round" stroke-width="2" d="M858.175 113.948a7.375 7.375 0 0 1 7.375-7.376h29.501a7.376 7.376 0 0 1 7.376 7.376v61.091a7.375 7.375 0 0 1-7.376 7.376H865.55a7.375 7.375 0 0 1-7.375-7.376z"/><path fill="#e38a42" fill-rule="evenodd" d="M862.446 112.696a2.4 2.4 0 0 1 2.4-2.4h9.91a2.4 2.4 0 0 1 2.399 2.4v9.595a2.4 2.4 0 0 1-2.4 2.4h-9.91a2.4 2.4 0 0 1-2.399-2.4z"/><path stroke="#000" stroke-linecap="butt" stroke-linejoin="round" stroke-width="2" d="M862.446 112.696a2.4 2.4 0 0 1 2.4-2.4h9.91a2.4 2.4 0 0 1 2.399 2.4v9.595a2.4 2.4 0 0 1-2.4 2.4h-9.91a2.4 2.4 0 0 1-2.399-2.4z"/><path fill="#e38a42" fill-rule="evenodd" d="M862.446 130.696a2.4 2.4 0 0 1 2.4-2.4h9.91a2.4 2.4 0 0 1 2.399 2.4v9.595a2.4 2.4 0 0 1-2.4 2.4h-9.91a2.4 2.4 0 0 1-2.399-2.4z"/><path stroke="#000" stroke-linecap="butt" stroke-linejoin="round" stroke-width="2" d="M862.446 130.696a2.4 2.4 0 0 1 2.4-2.4h9.91a2.4 2.4 0 0 1 2.399 2.4v9.595a2.4 2.4 0 0 1-2.4 2.4h-9.91a2.4 2.4 0 0 1-2.399-2.4z"/><path fill="#e38a42" fill-rule="evenodd" d="M862.446 148.696a2.4 2.4 0 0 1 2.4-2.4h9.91a2.4 2.4 0 0 1 2.399 2.4v9.595a2.4 2.4 0 0 1-2.4 2.4h-9.91a2.4 2.4 0 0 1-2.399-2.4z"/><path stroke="#000" stroke-linecap="butt" stroke-linejoin="round" stroke-width="2" d="M862.446 148.696a2.4 2.4 0 0 1 2.4-2.4h9.91a2.4 2.4 0 0 1 2.399 2.4v9.595a2.4 2.4 0 0 1-2.4 2.4h-9.91a2.4 2.4 0 0 1-2.399-2.4z"/><path fill="#e38a42" fill-rule="evenodd" d="M862.446 166.696a2.4 2.4 0 0 1 2.4-2.4h9.91a2.4 2.4 0 0 1 2.399 2.4v9.595a2.4 2.4 0 0 1-2.4 2.4h-9.91a2.4 2.4 0 0 1-2.399-2.4z"/><path stroke="#000" stroke-linecap="butt" stroke-linejoin="round" stroke-width="2" d="M862.446 166.696a2.4 2.4 0 0 1 2.4-2.4h9.91a2.4 2.4 0 0 1 2.399 2.4v9.595a2.4 2.4 0 0 1-2.4 2.4h-9.91a2.4 2.4 0 0 1-2.399-2.4z"/><path fill="#e38a42" fill-rule="evenodd" d="M883.446 112.696a2.4 2.4 0 0 1 2.4-2.4h9.91a2.4 2.4 0 0 1 2.399 2.4v9.595a2.4 2.4 0 0 1-2.4 2.4h-9.91a2.4 2.4 0 0 1-2.399-2.4z"/><path stroke="#000" stroke-linecap="butt" stroke-linejoin="round" stroke-width="2" d="M883.446 112.696a2.4 2.4 0 0 1 2.4-2.4h9.91a2.4 2.4 0 0 1 2.399 2.4v9.595a2.4 2.4 0 0 1-2.4 2.4h-9.91a2.4 2.4 0 0 1-2.399-2.4z"/><path fill="#e38a42" fill-rule="evenodd" d="M883.446 130.696a2.4 2.4 0 0 1 2.4-2.4h9.91a2.4 2.4 0 0 1 2.399 2.4v9.595a2.4 2.4 0 0 1-2.4 2.4h-9.91a2.4 2.4 0 0 1-2.399-2.4z"/><path stroke="#000" stroke-linecap="butt" stroke-linejoin="round" stroke-width="2" d="M883.446 130.696a2.4 2.4 0 0 1 2.4-2.4h9.91a2.4 2.4 0 0 1 2.399 2.4v9.595a2.4 2.4 0 0 1-2.4 2.4h-9.91a2.4 2.4 0 0 1-2.399-2.4z"/><path fill="#e38a42" fill-rule="evenodd" d="M883.446 148.696a2.4 2.4 0 0 1 2.4-2.4h9.91a2.4 2.4 0 0 1 2.399 2.4v9.595a2.4 2.4 0 0 1-2.4 2.4h-9.91a2.4 2.4 0 0 1-2.399-2.4z"/><path stroke="#000" stroke-linecap="butt" stroke-linejoin="round" stroke-width="2" d="M883.446 148.696a2.4 2.4 0 0 1 2.4-2.4h9.91a2.4 2.4 0 0 1 2.399 2.4v9.595a2.4 2.4 0 0 1-2.4 2.4h-9.91a2.4 2.4 0 0 1-2.399-2.4z"/><path fill="#e38a42" fill-rule="evenodd" d="M883.446 166.696a2.4 2.4 0 0 1 2.4-2.4h9.91a2.4 2.4 0 0 1 2.399 2.4v9.595a2.4 2.4 0 0 1-2.4 2.4h-9.91a2.4 2.4 0 0 1-2.399-2.4z"/><path stroke="#000" stroke-linecap="butt" stroke-linejoin="round" stroke-width="2" d="M883.446 166.696a2.4 2.4 0 0 1 2.4-2.4h9.91a2.4 2.4 0 0 1 2.399 2.4v9.595a2.4 2.4 0 0 1-2.4 2.4h-9.91a2.4 2.4 0 0 1-2.399-2.4z"/><path fill="#e38a42" fill-rule="evenodd" d="M804.46 112.696a2.4 2.4 0 0 1 2.4-2.4h9.91a2.4 2.4 0 0 1 2.4 2.4v9.595a2.4 2.4 0 0 1-2.4 2.4h-9.91a2.4 2.4 0 0 1-2.4-2.4z"/><path stroke="#000" stroke-linecap="butt" stroke-linejoin="round" stroke-width="2" d="M804.46 112.696a2.4 2.4 0 0 1 2.4-2.4h9.91a2.4 2.4 0 0 1 2.4 2.4v9.595a2.4 2.4 0 0 1-2.4 2.4h-9.91a2.4 2.4 0 0 1-2.4-2.4z"/><path fill="#e38a42" fill-rule="evenodd" d="M804.46 130.696a2.4 2.4 0 0 1 2.4-2.4h9.91a2.4 2.4 0 0 1 2.4 2.4v9.595a2.4 2.4 0 0 1-2.4 2.4h-9.91a2.4 2.4 0 0 1-2.4-2.4z"/><path stroke="#000" stroke-linecap="butt" stroke-linejoin="round" stroke-width="2" d="M804.46 130.696a2.4 2.4 0 0 1 2.4-2.4h9.91a2.4 2.4 0 0 1 2.4 2.4v9.595a2.4 2.4 0 0 1-2.4 2.4h-9.91a2.4 2.4 0 0 1-2.4-2.4z"/><path fill="#e38a42" fill-rule="evenodd" d="M804.46 148.696a2.4 2.4 0 0 1 2.4-2.4h9.91a2.4 2.4 0 0 1 2.4 2.4v9.595a2.4 2.4 0 0 1-2.4 2.4h-9.91a2.4 2.4 0 0 1-2.4-2.4z"/><path stroke="#000" stroke-linecap="butt" stroke-linejoin="round" stroke-width="2" d="M804.46 148.696a2.4 2.4 0 0 1 2.4-2.4h9.91a2.4 2.4 0 0 1 2.4 2.4v9.595a2.4 2.4 0 0 1-2.4 2.4h-9.91a2.4 2.4 0 0 1-2.4-2.4z"/><path fill="#e38a42" fill-rule="evenodd" d="M804.46 166.696a2.4 2.4 0 0 1 2.4-2.4h9.91a2.4 2.4 0 0 1 2.4 2.4v9.595a2.4 2.4 0 0 1-2.4 2.4h-9.91a2.4 2.4 0 0 1-2.4-2.4z"/><path stroke="#000" stroke-linecap="butt" stroke-linejoin="round" stroke-width="2" d="M804.46 166.696a2.4 2.4 0 0 1 2.4-2.4h9.91a2.4 2.4 0 0 1 2.4 2.4v9.595a2.4 2.4 0 0 1-2.4 2.4h-9.91a2.4 2.4 0 0 1-2.4-2.4z"/><path fill="#e38a42" fill-rule="evenodd" d="M825.46 112.696a2.4 2.4 0 0 1 2.4-2.4h9.91a2.4 2.4 0 0 1 2.4 2.4v9.595a2.4 2.4 0 0 1-2.4 2.4h-9.91a2.4 2.4 0 0 1-2.4-2.4z"/><path stroke="#000" stroke-linecap="butt" stroke-linejoin="round" stroke-width="2" d="M825.46 112.696a2.4 2.4 0 0 1 2.4-2.4h9.91a2.4 2.4 0 0 1 2.4 2.4v9.595a2.4 2.4 0 0 1-2.4 2.4h-9.91a2.4 2.4 0 0 1-2.4-2.4z"/><path fill="#e38a42" fill-rule="evenodd" d="M825.46 130.696a2.4 2.4 0 0 1 2.4-2.4h9.91a2.4 2.4 0 0 1 2.4 2.4v9.595a2.4 2.4 0 0 1-2.4 2.4h-9.91a2.4 2.4 0 0 1-2.4-2.4z"/><path stroke="#000" stroke-linecap="butt" stroke-linejoin="round" stroke-width="2" d="M825.46 130.696a2.4 2.4 0 0 1 2.4-2.4h9.91a2.4 2.4 0 0 1 2.4 2.4v9.595a2.4 2.4 0 0 1-2.4 2.4h-9.91a2.4 2.4 0 0 1-2.4-2.4z"/><path fill="#e38a42" fill-rule="evenodd" d="M825.46 148.696a2.4 2.4 0 0 1 2.4-2.4h9.91a2.4 2.4 0 0 1 2.4 2.4v9.595a2.4 2.4 0 0 1-2.4 2.4h-9.91a2.4 2.4 0 0 1-2.4-2.4z"/><path stroke="#000" stroke-linecap="butt" stroke-linejoin="round" stroke-width="2" d="M825.46 148.696a2.4 2.4 0 0 1 2.4-2.4h9.91a2.4 2.4 0 0 1 2.4 2.4v9.595a2.4 2.4 0 0 1-2.4 2.4h-9.91a2.4 2.4 0 0 1-2.4-2.4z"/><path fill="#e38a42" fill-rule="evenodd" d="M825.46 166.696a2.4 2.4 0 0 1 2.4-2.4h9.91a2.4 2.4 0 0 1 2.4 2.4v9.595a2.4 2.4 0 0 1-2.4 2.4h-9.91a2.4 2.4 0 0 1-2.4-2.4z"/><path stroke="#000" stroke-linecap="butt" stroke-linejoin="round" stroke-width="2" d="M825.46 166.696a2.4 2.4 0 0 1 2.4-2.4h9.91a2.4 2.4 0 0 1 2.4 2.4v9.595a2.4 2.4 0 0 1-2.4 2.4h-9.91a2.4 2.4 0 0 1-2.4-2.4z"/><path fill="#e889ab" fill-rule="evenodd" d="M47.354 217.121a6.903 6.903 0 0 1 6.903-6.903h108.871a6.903 6.903 0 0 1 6.904 6.903v27.611a6.903 6.903 0 0 1-6.904 6.903H54.258a6.903 6.903 0 0 1-6.904-6.903z"/><path stroke="#000" stroke-linecap="butt" stroke-linejoin="round" stroke-width="2" d="M47.354 217.121a6.903 6.903 0 0 1 6.903-6.903h108.871a6.903 6.903 0 0 1 6.904 6.903v27.611a6.903 6.903 0 0 1-6.904 6.903H54.258a6.903 6.903 0 0 1-6.904-6.903z"/><path fill="#fff" d="M71.524 223.767h2.672l3.328 10.016 3.36-10.016h2.64l2.422 14.36h-2.64l-1.548-9.078-3.047 9.078H76.29l-3.016-9.078-1.563 9.078H69.04zm26.967 9.813h-8.578q.187 1.14.984 1.812.813.657 2.063.657 1.5 0 2.578-1.032l2.25 1.047q-.844 1.188-2.016 1.766t-2.781.578q-2.5 0-4.078-1.578t-1.578-3.953q0-2.438 1.562-4.047 1.578-1.61 3.938-1.61 2.515 0 4.078 1.61 1.578 1.61 1.578 4.25zm-2.688-2.094q-.265-.89-1.047-1.437-.765-.563-1.796-.563-1.11 0-1.954.625-.515.39-.968 1.375zm4.819-3.984h2.672v1.218q.687-.75 1.515-1.125.844-.375 1.828-.375 1 0 1.797.5.797.485 1.297 1.422.625-.937 1.547-1.422.922-.5 2.016-.5 1.14 0 2 .532.859.53 1.234 1.39.375.844.375 2.75v6.235h-2.688v-5.391q0-1.812-.453-2.453-.437-.64-1.343-.64-.688 0-1.235.39-.531.39-.797 1.094-.265.687-.265 2.203v4.797h-2.688v-5.141q0-1.437-.219-2.078-.203-.64-.625-.953-.406-.313-1-.313-.671 0-1.218.407-.532.39-.813 1.109-.265.703-.265 2.234v4.735h-2.672zm23.814-.282q1.5 0 2.813.766 1.328.75 2.062 2.047.75 1.281.75 2.766 0 1.515-.75 2.828-.734 1.297-2.031 2.047-1.281.734-2.844.734-2.281 0-3.906-1.625-1.61-1.64-1.61-3.953 0-2.5 1.829-4.156 1.609-1.454 3.687-1.454m.031 2.516q-1.234 0-2.062.875-.828.86-.828 2.203 0 1.39.812 2.25.828.86 2.078.86t2.078-.875.829-2.235q0-1.375-.829-2.219-.812-.859-2.078-.859m7.147-2.234h2.297v1.343q.359-.796.968-1.203.625-.422 1.36-.422.515 0 1.078.282l-.828 2.297q-.469-.235-.766-.235-.625 0-1.047.766-.422.75-.422 2.984l.016.516v4.297h-2.656zm5.85 0h2.718l2.766 6.672 3.047-6.672h2.734l-6.656 14.515h-2.766l2.188-4.687z"/><path fill="#e889ab" fill-rule="evenodd" d="M789.971 217.121a6.903 6.903 0 0 1 6.903-6.903h108.871a6.903 6.903 0 0 1 6.903 6.903v27.611a6.903 6.903 0 0 1-6.903 6.903h-108.87a6.903 6.903 0 0 1-6.904-6.903z"/><path stroke="#000" stroke-linecap="butt" stroke-linejoin="round" stroke-width="2" d="M789.971 217.121a6.903 6.903 0 0 1 6.903-6.903h108.871a6.903 6.903 0 0 1 6.903 6.903v27.611a6.903 6.903 0 0 1-6.903 6.903h-108.87a6.903 6.903 0 0 1-6.904-6.903z"/><path fill="#fff" d="M814.14 223.767h2.673l3.328 10.016 3.36-10.016h2.64l2.422 14.36h-2.641l-1.547-9.078-3.047 9.078h-2.422l-3.015-9.078-1.563 9.078h-2.672zm26.968 9.813h-8.579q.188 1.14.985 1.812.812.657 2.062.657 1.5 0 2.578-1.032l2.25 1.047q-.843 1.188-2.015 1.766t-2.781.578q-2.5 0-4.079-1.578t-1.578-3.953q0-2.438 1.563-4.047 1.578-1.61 3.937-1.61 2.516 0 4.078 1.61 1.579 1.61 1.579 4.25zm-2.688-2.094q-.266-.89-1.047-1.437-.765-.563-1.797-.563-1.11 0-1.953.625-.515.39-.969 1.375zm4.818-3.984h2.672v1.218q.688-.75 1.516-1.125.844-.375 1.828-.375 1 0 1.797.5.797.485 1.297 1.422.625-.937 1.547-1.422.922-.5 2.015-.5 1.14 0 2 .532.86.53 1.235 1.39.375.844.375 2.75v6.235h-2.688v-5.391q0-1.812-.453-2.453-.437-.64-1.344-.64-.687 0-1.234.39-.531.39-.797 1.094-.266.687-.266 2.203v4.797h-2.687v-5.141q0-1.437-.219-2.078-.203-.64-.625-.953-.406-.313-1-.313-.672 0-1.219.407-.53.39-.812 1.109-.266.703-.266 2.234v4.735h-2.672zm23.815-.282q1.5 0 2.812.766 1.328.75 2.063 2.047.75 1.281.75 2.766 0 1.515-.75 2.828-.735 1.297-2.031 2.047-1.282.734-2.844.734-2.281 0-3.906-1.625-1.61-1.64-1.61-3.953 0-2.5 1.828-4.156 1.61-1.454 3.688-1.454m.031 2.516q-1.234 0-2.062.875-.829.86-.829 2.203 0 1.39.813 2.25.828.86 2.078.86t2.078-.875.828-2.235q0-1.375-.828-2.219-.812-.859-2.078-.859m7.147-2.234h2.296v1.343q.36-.796.97-1.203.624-.422 1.359-.422.515 0 1.078.282l-.828 2.297q-.47-.235-.766-.235-.625 0-1.047.766-.422.75-.422 2.984l.016.516v4.297h-2.656zm5.85 0h2.718l2.766 6.672 3.046-6.672h2.735l-6.656 14.515h-2.766l2.187-4.687z"/><path fill="#e889ab" fill-rule="evenodd" d="M195.878 217.121a6.903 6.903 0 0 1 6.903-6.903h108.87a6.903 6.903 0 0 1 6.904 6.903v27.611a6.903 6.903 0 0 1-6.903 6.903H202.78a6.903 6.903 0 0 1-6.903-6.903z"/><path stroke="#000" stroke-linecap="butt" stroke-linejoin="round" stroke-width="2" d="M195.878 217.121a6.903 6.903 0 0 1 6.903-6.903h108.87a6.903 6.903 0 0 1 6.904 6.903v27.611a6.903 6.903 0 0 1-6.903 6.903H202.78a6.903 6.903 0 0 1-6.903-6.903z"/><path fill="#fff" d="M220.047 223.767h2.672l3.328 10.016 3.36-10.016h2.64l2.422 14.36h-2.64l-1.547-9.078-3.047 9.078h-2.422l-3.016-9.078-1.562 9.078h-2.672zm26.967 9.813h-8.578q.188 1.14.984 1.812.813.657 2.063.657 1.5 0 2.578-1.032l2.25 1.047q-.844 1.188-2.016 1.766-1.171.578-2.78.578-2.5 0-4.079-1.578t-1.578-3.953q0-2.438 1.562-4.047 1.579-1.61 3.938-1.61 2.515 0 4.078 1.61 1.578 1.61 1.578 4.25zm-2.687-2.094q-.266-.89-1.047-1.437-.766-.563-1.797-.563-1.11 0-1.953.625-.516.39-.969 1.375zm4.818-3.984h2.672v1.218q.687-.75 1.515-1.125.844-.375 1.829-.375 1 0 1.796.5.797.485 1.297 1.422.625-.937 1.547-1.422.922-.5 2.016-.5 1.14 0 2 .532.86.53 1.234 1.39.375.844.375 2.75v6.235h-2.687v-5.391q0-1.812-.453-2.453-.438-.64-1.344-.64-.688 0-1.235.39-.53.39-.796 1.094-.266.687-.266 2.203v4.797h-2.688v-5.141q0-1.437-.218-2.078-.203-.64-.625-.953-.407-.313-1-.313-.672 0-1.219.407-.531.39-.813 1.109-.265.703-.265 2.234v4.735h-2.672zm23.814-.282q1.5 0 2.813.766 1.328.75 2.062 2.047.75 1.281.75 2.766 0 1.515-.75 2.828-.734 1.297-2.03 2.047-1.282.734-2.845.734-2.28 0-3.906-1.625-1.61-1.64-1.61-3.953 0-2.5 1.829-4.156 1.61-1.454 3.687-1.454m.032 2.516q-1.235 0-2.063.875-.828.86-.828 2.203 0 1.39.813 2.25.828.86 2.078.86t2.078-.875.828-2.235q0-1.375-.828-2.219-.813-.859-2.078-.859m7.146-2.234h2.297v1.343q.36-.796.969-1.203.625-.422 1.36-.422.515 0 1.077.282l-.828 2.297q-.469-.235-.765-.235-.625 0-1.047.766-.422.75-.422 2.984l.015.516v4.297h-2.656zm5.85 0h2.718l2.766 6.672 3.047-6.672h2.734l-6.656 14.515h-2.766l2.188-4.687z"/><path fill="#e889ab" fill-rule="evenodd" d="M344.401 217.121a6.903 6.903 0 0 1 6.903-6.903h108.871a6.903 6.903 0 0 1 6.903 6.903v27.611a6.903 6.903 0 0 1-6.903 6.903h-108.87a6.903 6.903 0 0 1-6.904-6.903z"/><path stroke="#000" stroke-linecap="butt" stroke-linejoin="round" stroke-width="2" d="M344.401 217.121a6.903 6.903 0 0 1 6.903-6.903h108.871a6.903 6.903 0 0 1 6.903 6.903v27.611a6.903 6.903 0 0 1-6.903 6.903h-108.87a6.903 6.903 0 0 1-6.904-6.903z"/><path fill="#fff" d="M368.57 223.767h2.673l3.328 10.016 3.359-10.016h2.64l2.423 14.36h-2.641l-1.547-9.078-3.047 9.078h-2.422l-3.015-9.078-1.563 9.078h-2.672zm26.967 9.813h-8.578q.188 1.14.985 1.812.812.657 2.062.657 1.5 0 2.578-1.032l2.25 1.047q-.843 1.188-2.015 1.766t-2.782.578q-2.5 0-4.078-1.578t-1.578-3.953q0-2.438 1.563-4.047 1.578-1.61 3.937-1.61 2.516 0 4.078 1.61 1.578 1.61 1.578 4.25zm-2.687-2.094q-.266-.89-1.047-1.437-.766-.563-1.797-.563-1.11 0-1.953.625-.516.39-.969 1.375zm4.818-3.984h2.672v1.218q.688-.75 1.516-1.125.844-.375 1.828-.375 1 0 1.797.5.797.485 1.297 1.422.625-.937 1.547-1.422.921-.5 2.015-.5 1.14 0 2 .532.86.53 1.235 1.39.375.844.375 2.75v6.235h-2.688v-5.391q0-1.812-.453-2.453-.438-.64-1.344-.64-.687 0-1.234.39-.531.39-.797 1.094-.266.687-.266 2.203v4.797h-2.687v-5.141q0-1.437-.219-2.078-.203-.64-.625-.953-.406-.313-1-.313-.672 0-1.219.407-.53.39-.812 1.109-.266.703-.266 2.234v4.735h-2.672zm23.815-.282q1.5 0 2.812.766 1.328.75 2.063 2.047.75 1.281.75 2.766 0 1.515-.75 2.828-.735 1.297-2.031 2.047-1.282.734-2.844.734-2.281 0-3.906-1.625-1.61-1.64-1.61-3.953 0-2.5 1.828-4.156 1.61-1.454 3.688-1.454m.031 2.516q-1.234 0-2.063.875-.828.86-.828 2.203 0 1.39.813 2.25.828.86 2.078.86t2.078-.875.828-2.235q0-1.375-.828-2.219-.812-.859-2.078-.859m7.146-2.234h2.297v1.343q.36-.796.97-1.203.624-.422 1.358-.422.516 0 1.079.282l-.829 2.297q-.468-.235-.765-.235-.625 0-1.047.766-.422.75-.422 2.984l.016.516v4.297h-2.657zm5.85 0h2.719l2.765 6.672 3.047-6.672h2.735l-6.657 14.515h-2.765l2.187-4.687z"/><path fill="#e889ab" fill-rule="evenodd" d="M492.924 217.121a6.903 6.903 0 0 1 6.903-6.903H608.7a6.903 6.903 0 0 1 6.903 6.903v27.611a6.903 6.903 0 0 1-6.903 6.903H499.827a6.903 6.903 0 0 1-6.903-6.903z"/><path stroke="#000" stroke-linecap="butt" stroke-linejoin="round" stroke-width="2" d="M492.924 217.121a6.903 6.903 0 0 1 6.903-6.903H608.7a6.903 6.903 0 0 1 6.903 6.903v27.611a6.903 6.903 0 0 1-6.903 6.903H499.827a6.903 6.903 0 0 1-6.903-6.903z"/><path fill="#fff" d="M517.094 223.767h2.672l3.328 10.016 3.36-10.016h2.64l2.422 14.36h-2.64l-1.548-9.078-3.046 9.078h-2.422l-3.016-9.078-1.562 9.078h-2.672zm26.967 9.813h-8.578q.187 1.14.984 1.812.813.657 2.063.657 1.5 0 2.578-1.032l2.25 1.047q-.844 1.188-2.016 1.766t-2.781.578q-2.5 0-4.078-1.578t-1.578-3.953q0-2.438 1.562-4.047 1.578-1.61 3.938-1.61 2.515 0 4.078 1.61 1.578 1.61 1.578 4.25zm-2.688-2.094q-.265-.89-1.047-1.437-.765-.563-1.796-.563-1.11 0-1.954.625-.515.39-.968 1.375zm4.819-3.984h2.672v1.218q.687-.75 1.515-1.125.844-.375 1.828-.375 1 0 1.797.5.797.485 1.297 1.422.625-.937 1.547-1.422.922-.5 2.016-.5 1.14 0 2 .532.859.53 1.234 1.39.375.844.375 2.75v6.235h-2.688v-5.391q0-1.812-.453-2.453-.437-.64-1.343-.64-.688 0-1.235.39-.531.39-.797 1.094-.265.687-.265 2.203v4.797h-2.688v-5.141q0-1.437-.219-2.078-.203-.64-.625-.953-.406-.313-1-.313-.671 0-1.218.407-.532.39-.813 1.109-.265.703-.265 2.234v4.735h-2.672zm23.814-.282q1.5 0 2.813.766 1.328.75 2.062 2.047.75 1.281.75 2.766 0 1.515-.75 2.828-.734 1.297-2.031 2.047-1.281.734-2.844.734-2.281 0-3.906-1.625-1.61-1.64-1.61-3.953 0-2.5 1.829-4.156 1.609-1.454 3.687-1.454m.031 2.516q-1.234 0-2.062.875-.828.86-.828 2.203 0 1.39.812 2.25.828.86 2.078.86t2.078-.875.829-2.235q0-1.375-.829-2.219-.812-.859-2.078-.859m7.147-2.234h2.297v1.343q.36-.796.968-1.203.625-.422 1.36-.422.515 0 1.078.282l-.828 2.297q-.469-.235-.766-.235-.625 0-1.047.766-.422.75-.422 2.984l.016.516v4.297h-2.656zm5.85 0h2.718l2.766 6.672 3.047-6.672h2.734l-6.656 14.515h-2.766l2.188-4.687z"/><path fill="#e889ab" fill-rule="evenodd" d="M641.448 217.121a6.903 6.903 0 0 1 6.903-6.903h108.87a6.903 6.903 0 0 1 6.904 6.903v27.611a6.903 6.903 0 0 1-6.903 6.903H648.35a6.903 6.903 0 0 1-6.903-6.903z"/><path stroke="#000" stroke-linecap="butt" stroke-linejoin="round" stroke-width="2" d="M641.448 217.121a6.903 6.903 0 0 1 6.903-6.903h108.87a6.903 6.903 0 0 1 6.904 6.903v27.611a6.903 6.903 0 0 1-6.903 6.903H648.35a6.903 6.903 0 0 1-6.903-6.903z"/><path fill="#fff" d="M665.617 223.767h2.672l3.328 10.016 3.36-10.016h2.64l2.422 14.36h-2.64l-1.547-9.078-3.047 9.078h-2.422l-3.016-9.078-1.562 9.078h-2.672zm26.967 9.813h-8.578q.188 1.14.984 1.812.813.657 2.063.657 1.5 0 2.578-1.032l2.25 1.047q-.844 1.188-2.016 1.766-1.171.578-2.78.578-2.5 0-4.079-1.578t-1.578-3.953q0-2.438 1.562-4.047 1.579-1.61 3.938-1.61 2.516 0 4.078 1.61 1.578 1.61 1.578 4.25zm-2.687-2.094q-.266-.89-1.047-1.437-.766-.563-1.797-.563-1.11 0-1.953.625-.516.39-.969 1.375zm4.818-3.984h2.672v1.218q.687-.75 1.516-1.125.843-.375 1.828-.375 1 0 1.797.5.796.485 1.296 1.422.625-.937 1.547-1.422.922-.5 2.016-.5 1.14 0 2 .532.86.53 1.234 1.39.375.844.375 2.75v6.235h-2.687v-5.391q0-1.812-.453-2.453-.438-.64-1.344-.64-.688 0-1.234.39-.532.39-.797 1.094-.266.687-.266 2.203v4.797h-2.687v-5.141q0-1.437-.22-2.078-.202-.64-.624-.953-.406-.313-1-.313-.672 0-1.219.407-.531.39-.812 1.109-.266.703-.266 2.234v4.735h-2.672zm23.815-.282q1.5 0 2.812.766 1.328.75 2.063 2.047.75 1.281.75 2.766 0 1.515-.75 2.828-.735 1.297-2.032 2.047-1.281.734-2.843.734-2.282 0-3.907-1.625-1.61-1.64-1.61-3.953 0-2.5 1.829-4.156 1.61-1.454 3.688-1.454m.03 2.516q-1.234 0-2.062.875-.828.86-.828 2.203 0 1.39.813 2.25.828.86 2.078.86t2.078-.875.828-2.235q0-1.375-.828-2.219-.813-.859-2.078-.859m7.147-2.234h2.297v1.343q.36-.796.969-1.203.625-.422 1.36-.422.515 0 1.077.282l-.828 2.297q-.469-.235-.765-.235-.625 0-1.047.766-.422.75-.422 2.984l.015.516v4.297h-2.656zm5.85 0h2.719l2.765 6.672 3.047-6.672h2.734l-6.656 14.515h-2.765l2.187-4.687z"/><path fill="#e889ab" fill-rule="evenodd" d="M47.354 350.536a6.903 6.903 0 0 1 6.903-6.903h108.871a6.903 6.903 0 0 1 6.904 6.903v27.611a6.903 6.903 0 0 1-6.904 6.903H54.258a6.903 6.903 0 0 1-6.904-6.903z"/><path stroke="#000" stroke-linecap="butt" stroke-linejoin="round" stroke-width="2" d="M47.354 350.536a6.903 6.903 0 0 1 6.903-6.903h108.871a6.903 6.903 0 0 1 6.904 6.903v27.611a6.903 6.903 0 0 1-6.904 6.903H54.258a6.903 6.903 0 0 1-6.904-6.903z"/><path fill="#fff" d="M57.53 357.182h2.735v11.75h3.985v2.61h-6.72zm13.503 3.453q1.5 0 2.812.766 1.328.75 2.063 2.047.75 1.28.75 2.765 0 1.516-.75 2.828-.735 1.297-2.031 2.047-1.282.735-2.844.735-2.281 0-3.906-1.625-1.61-1.641-1.61-3.954 0-2.5 1.828-4.156 1.61-1.453 3.688-1.453m.031 2.516q-1.234 0-2.062.875-.829.86-.829 2.203 0 1.39.813 2.25.828.86 2.078.86t2.078-.876.828-2.234q0-1.375-.828-2.219-.812-.86-2.078-.86m15.63-2.235h2.657v10.625h-2.656v-1.125q-.781.75-1.578 1.078-.782.329-1.703.329-2.047 0-3.563-1.594-1.5-1.61-1.5-3.985 0-2.453 1.453-4.03 1.453-1.579 3.531-1.579.97 0 1.797.375.844.36 1.563 1.078zm-2.812 2.188q-1.234 0-2.062.875-.813.875-.813 2.234 0 1.375.828 2.266.844.89 2.063.89 1.266 0 2.094-.875t.828-2.28q0-1.391-.828-2.25-.828-.86-2.11-.86m16.016-6.297h2.656v14.734h-2.656v-1.125q-.781.75-1.578 1.078-.781.329-1.703.329-2.047 0-3.563-1.594-1.5-1.61-1.5-3.985 0-2.453 1.453-4.03 1.453-1.579 3.532-1.579.968 0 1.796.375.844.36 1.563 1.078zm-2.813 6.297q-1.234 0-2.062.875-.813.875-.813 2.234 0 1.375.829 2.266.843.89 2.062.89 1.266 0 2.094-.875t.828-2.28q0-1.391-.828-2.25-.828-.86-2.11-.86m7.25 11 6.454-17.344h1.89l-6.468 17.344zm17.934-14.969-2.016 1.781q-1.078-1.484-2.171-1.484-.547 0-.891.297-.328.281-.328.64 0 .36.234.688.344.422 2 1.844 1.563 1.312 1.906 1.64.829.844 1.172 1.61.344.765.344 1.672 0 1.78-1.219 2.937-1.218 1.14-3.187 1.14-1.531 0-2.672-.75-1.125-.75-1.938-2.359l2.297-1.39q1.032 1.906 2.375 1.906.703 0 1.172-.406.485-.422.485-.953 0-.485-.36-.97-.36-.5-1.594-1.5-2.343-1.921-3.03-2.952-.673-1.047-.673-2.078 0-1.5 1.125-2.563 1.141-1.078 2.813-1.078 1.078 0 2.047.5.968.5 2.11 1.828m2.9-2.14h2.657v3.921h1.578v2.297h-1.578v8.328h-2.657v-8.328h-1.375v-2.297h1.375zm10.668 3.64q1.5 0 2.813.766 1.328.75 2.062 2.047.75 1.28.75 2.765 0 1.516-.75 2.828-.734 1.297-2.03 2.047-1.282.735-2.845.735-2.28 0-3.906-1.625-1.61-1.641-1.61-3.954 0-2.5 1.829-4.156 1.61-1.453 3.687-1.453m.032 2.516q-1.235 0-2.063.875-.828.86-.828 2.203 0 1.39.813 2.25.828.86 2.078.86t2.078-.876.828-2.234q0-1.375-.828-2.219-.813-.86-2.078-.86m7.146-2.235h2.297v1.344q.36-.797.969-1.203.625-.422 1.36-.422.515 0 1.077.281l-.828 2.297q-.469-.234-.765-.234-.625 0-1.047.765-.422.75-.422 2.985l.015.515v4.297h-2.656zm17.678 6.078h-8.578q.187 1.141.984 1.813.813.656 2.063.656 1.5 0 2.578-1.031l2.25 1.047q-.844 1.187-2.016 1.765-1.172.579-2.781.579-2.5 0-4.078-1.579t-1.578-3.953q0-2.437 1.562-4.047 1.578-1.609 3.938-1.609 2.515 0 4.078 1.61 1.578 1.609 1.578 4.25zm-2.688-2.093q-.265-.89-1.047-1.438-.765-.562-1.796-.562-1.11 0-1.954.625-.515.39-.968 1.375z"/><path fill="#e889ab" fill-rule="evenodd" d="M195.878 350.536a6.903 6.903 0 0 1 6.903-6.903h108.87a6.903 6.903 0 0 1 6.904 6.903v27.611a6.903 6.903 0 0 1-6.903 6.903H202.78a6.903 6.903 0 0 1-6.903-6.903z"/><path stroke="#000" stroke-linecap="butt" stroke-linejoin="round" stroke-width="2" d="M195.878 350.536a6.903 6.903 0 0 1 6.903-6.903h108.87a6.903 6.903 0 0 1 6.904 6.903v27.611a6.903 6.903 0 0 1-6.903 6.903H202.78a6.903 6.903 0 0 1-6.903-6.903z"/><path fill="#fff" d="M206.054 357.182h2.735v11.75h3.984v2.61h-6.719zm13.502 3.453q1.5 0 2.813.766 1.328.75 2.062 2.047.75 1.28.75 2.765 0 1.516-.75 2.828-.734 1.297-2.031 2.047-1.281.735-2.844.735-2.281 0-3.906-1.625-1.61-1.641-1.61-3.954 0-2.5 1.829-4.156 1.609-1.453 3.687-1.453m.031 2.516q-1.234 0-2.062.875-.828.86-.828 2.203 0 1.39.812 2.25.828.86 2.078.86t2.078-.876.829-2.234q0-1.375-.829-2.219-.812-.86-2.078-.86m15.631-2.235h2.656v10.625h-2.656v-1.125q-.781.75-1.578 1.078-.781.329-1.703.329-2.047 0-3.563-1.594-1.5-1.61-1.5-3.985 0-2.453 1.454-4.03 1.453-1.579 3.53-1.579.97 0 1.798.375.843.36 1.562 1.078zm-2.812 2.188q-1.235 0-2.063.875-.812.875-.812 2.234 0 1.375.828 2.266.844.89 2.062.89 1.266 0 2.094-.875t.828-2.28q0-1.391-.828-2.25-.828-.86-2.11-.86m16.015-6.297h2.657v14.734h-2.657v-1.125q-.78.75-1.578 1.078-.781.329-1.703.329-2.047 0-3.562-1.594-1.5-1.61-1.5-3.985 0-2.453 1.453-4.03 1.453-1.579 3.53-1.579.97 0 1.798.375.844.36 1.562 1.078zm-2.812 6.297q-1.235 0-2.063.875-.812.875-.812 2.234 0 1.375.828 2.266.844.89 2.062.89 1.266 0 2.094-.875t.828-2.28q0-1.391-.828-2.25-.828-.86-2.11-.86m7.25 11 6.453-17.344h1.89l-6.468 17.344zm17.933-14.969-2.015 1.781q-1.078-1.484-2.172-1.484-.547 0-.89.297-.329.281-.329.64 0 .36.235.688.343.422 2 1.844 1.562 1.312 1.906 1.64.828.844 1.172 1.61.343.765.343 1.672 0 1.78-1.218 2.937-1.22 1.14-3.188 1.14-1.531 0-2.672-.75-1.125-.75-1.937-2.359l2.297-1.39q1.03 1.906 2.375 1.906.703 0 1.172-.406.484-.422.484-.953 0-.485-.36-.97-.359-.5-1.593-1.5-2.344-1.921-3.031-2.952-.672-1.047-.672-2.078 0-1.5 1.125-2.563 1.14-1.078 2.812-1.078 1.078 0 2.047.5t2.11 1.828m2.9-2.14h2.657v3.921h1.578v2.297h-1.578v8.328h-2.656v-8.328h-1.375v-2.297h1.375zm10.669 3.64q1.5 0 2.812.766 1.328.75 2.063 2.047.75 1.28.75 2.765 0 1.516-.75 2.828-.735 1.297-2.031 2.047-1.282.735-2.844.735-2.281 0-3.906-1.625-1.61-1.641-1.61-3.954 0-2.5 1.828-4.156 1.61-1.453 3.688-1.453m.031 2.516q-1.234 0-2.063.875-.828.86-.828 2.203 0 1.39.813 2.25.828.86 2.078.86t2.078-.876.828-2.234q0-1.375-.828-2.219-.812-.86-2.078-.86m7.146-2.235h2.297v1.344q.36-.797.97-1.203.624-.422 1.358-.422.516 0 1.079.281l-.829 2.297q-.468-.234-.765-.234-.625 0-1.047.765-.422.75-.422 2.985l.016.515v4.297h-2.657zm17.678 6.078h-8.578q.188 1.141.984 1.813.813.656 2.063.656 1.5 0 2.578-1.031l2.25 1.047q-.844 1.187-2.016 1.765-1.171.579-2.78.579-2.5 0-4.079-1.579t-1.578-3.953q0-2.437 1.562-4.047 1.579-1.609 3.938-1.609 2.516 0 4.078 1.61 1.578 1.609 1.578 4.25zm-2.687-2.093q-.266-.89-1.047-1.438-.766-.562-1.797-.562-1.11 0-1.953.625-.516.39-.969 1.375z"/><path fill="#e889ab" fill-rule="evenodd" d="M344.401 350.536a6.903 6.903 0 0 1 6.903-6.903h108.871a6.903 6.903 0 0 1 6.903 6.903v27.611a6.903 6.903 0 0 1-6.903 6.903h-108.87a6.903 6.903 0 0 1-6.904-6.903z"/><path stroke="#000" stroke-linecap="butt" stroke-linejoin="round" stroke-width="2" d="M344.401 350.536a6.903 6.903 0 0 1 6.903-6.903h108.871a6.903 6.903 0 0 1 6.903 6.903v27.611a6.903 6.903 0 0 1-6.903 6.903h-108.87a6.903 6.903 0 0 1-6.904-6.903z"/><path fill="#fff" d="M354.578 357.182h2.734v11.75h3.984v2.61h-6.719zm13.501 3.453q1.5 0 2.813.766 1.328.75 2.062 2.047.75 1.28.75 2.765 0 1.516-.75 2.828-.734 1.297-2.03 2.047-1.282.735-2.845.735-2.28 0-3.906-1.625-1.61-1.641-1.61-3.954 0-2.5 1.829-4.156 1.61-1.453 3.687-1.453m.032 2.516q-1.235 0-2.063.875-.828.86-.828 2.203 0 1.39.813 2.25.828.86 2.078.86t2.078-.876.828-2.234q0-1.375-.828-2.219-.813-.86-2.078-.86m15.63-2.235h2.657v10.625h-2.656v-1.125q-.782.75-1.579 1.078-.78.329-1.703.329-2.047 0-3.562-1.594-1.5-1.61-1.5-3.985 0-2.453 1.453-4.03 1.453-1.579 3.531-1.579.969 0 1.797.375.844.36 1.563 1.078zm-2.812 2.188q-1.234 0-2.062.875-.813.875-.813 2.234 0 1.375.828 2.266.844.89 2.063.89 1.265 0 2.093-.875t.829-2.28q0-1.391-.829-2.25-.828-.86-2.109-.86m16.016-6.297h2.656v14.734h-2.656v-1.125q-.782.75-1.578 1.078-.782.329-1.704.329-2.046 0-3.562-1.594-1.5-1.61-1.5-3.985 0-2.453 1.453-4.03 1.453-1.579 3.531-1.579.969 0 1.797.375.844.36 1.563 1.078zm-2.813 6.297q-1.234 0-2.062.875-.813.875-.813 2.234 0 1.375.828 2.266.844.89 2.063.89 1.265 0 2.094-.875.828-.875.828-2.28 0-1.391-.828-2.25-.829-.86-2.11-.86m7.25 11 6.453-17.344h1.89l-6.468 17.344zm17.934-14.969-2.016 1.781q-1.078-1.484-2.172-1.484-.547 0-.89.297-.329.281-.329.64 0 .36.235.688.344.422 2 1.844 1.562 1.312 1.906 1.64.828.844 1.172 1.61.344.765.344 1.672 0 1.78-1.219 2.937-1.219 1.14-3.188 1.14-1.53 0-2.671-.75-1.125-.75-1.938-2.359l2.297-1.39q1.031 1.906 2.375 1.906.703 0 1.172-.406.484-.422.484-.953 0-.485-.36-.97-.359-.5-1.593-1.5-2.344-1.921-3.031-2.952-.672-1.047-.672-2.078 0-1.5 1.125-2.563 1.14-1.078 2.812-1.078 1.079 0 2.047.5.97.5 2.11 1.828m2.9-2.14h2.656v3.921h1.578v2.297h-1.578v8.328h-2.656v-8.328h-1.375v-2.297h1.375zm10.668 3.64q1.5 0 2.813.766 1.328.75 2.062 2.047.75 1.28.75 2.765 0 1.516-.75 2.828-.734 1.297-2.031 2.047-1.281.735-2.844.735-2.281 0-3.906-1.625-1.61-1.641-1.61-3.954 0-2.5 1.829-4.156 1.609-1.453 3.687-1.453m.031 2.516q-1.234 0-2.062.875-.828.86-.828 2.203 0 1.39.812 2.25.828.86 2.078.86t2.078-.876.829-2.234q0-1.375-.829-2.219-.812-.86-2.078-.86m7.147-2.235h2.297v1.344q.359-.797.968-1.203.625-.422 1.36-.422.515 0 1.078.281l-.828 2.297q-.469-.234-.766-.234-.625 0-1.047.765-.422.75-.422 2.985l.016.515v4.297h-2.656zm17.678 6.078h-8.579q.188 1.141.985 1.813.812.656 2.062.656 1.5 0 2.578-1.031l2.25 1.047q-.843 1.187-2.015 1.765-1.172.579-2.781.579-2.5 0-4.079-1.579t-1.578-3.953q0-2.437 1.563-4.047 1.578-1.609 3.937-1.609 2.516 0 4.078 1.61 1.579 1.609 1.579 4.25zm-2.688-2.093q-.266-.89-1.047-1.438-.765-.562-1.797-.562-1.11 0-1.953.625-.515.39-.969 1.375z"/><path fill="#e889ab" fill-rule="evenodd" d="M492.924 350.536a6.903 6.903 0 0 1 6.903-6.903H608.7a6.903 6.903 0 0 1 6.903 6.903v27.611a6.903 6.903 0 0 1-6.903 6.903H499.827a6.903 6.903 0 0 1-6.903-6.903z"/><path stroke="#000" stroke-linecap="butt" stroke-linejoin="round" stroke-width="2" d="M492.924 350.536a6.903 6.903 0 0 1 6.903-6.903H608.7a6.903 6.903 0 0 1 6.903 6.903v27.611a6.903 6.903 0 0 1-6.903 6.903H499.827a6.903 6.903 0 0 1-6.903-6.903z"/><path fill="#fff" d="M503.1 357.182h2.735v11.75h3.985v2.61h-6.72zm13.503 3.453q1.5 0 2.812.766 1.328.75 2.063 2.047.75 1.28.75 2.765 0 1.516-.75 2.828-.735 1.297-2.031 2.047-1.282.735-2.844.735-2.281 0-3.906-1.625-1.61-1.641-1.61-3.954 0-2.5 1.828-4.156 1.61-1.453 3.688-1.453m.031 2.516q-1.234 0-2.062.875-.829.86-.829 2.203 0 1.39.813 2.25.828.86 2.078.86t2.078-.876.828-2.234q0-1.375-.828-2.219-.812-.86-2.078-.86m15.63-2.235h2.657v10.625h-2.656v-1.125q-.781.75-1.578 1.078-.781.329-1.703.329-2.047 0-3.563-1.594-1.5-1.61-1.5-3.985 0-2.453 1.453-4.03 1.453-1.579 3.532-1.579.968 0 1.796.375.844.36 1.563 1.078zm-2.812 2.188q-1.234 0-2.062.875-.813.875-.813 2.234 0 1.375.829 2.266.843.89 2.062.89 1.266 0 2.094-.875t.828-2.28q0-1.391-.828-2.25-.828-.86-2.11-.86m16.016-6.297h2.656v14.734h-2.656v-1.125q-.781.75-1.578 1.078-.781.329-1.703.329-2.047 0-3.563-1.594-1.5-1.61-1.5-3.985 0-2.453 1.453-4.03 1.454-1.579 3.532-1.579.968 0 1.797.375.843.36 1.562 1.078zm-2.812 6.297q-1.235 0-2.063.875-.812.875-.812 2.234 0 1.375.828 2.266.843.89 2.062.89 1.266 0 2.094-.875t.828-2.28q0-1.391-.828-2.25-.828-.86-2.11-.86m7.25 11 6.453-17.344h1.89l-6.468 17.344zm17.933-14.969-2.015 1.781q-1.079-1.484-2.172-1.484-.547 0-.891.297-.328.281-.328.64 0 .36.234.688.344.422 2 1.844 1.563 1.312 1.907 1.64.828.844 1.171 1.61.344.765.344 1.672 0 1.78-1.219 2.937-1.218 1.14-3.187 1.14-1.531 0-2.672-.75-1.125-.75-1.937-2.359l2.296-1.39q1.032 1.906 2.375 1.906.704 0 1.172-.406.485-.422.485-.953 0-.485-.36-.97-.36-.5-1.593-1.5-2.344-1.921-3.032-2.952-.672-1.047-.672-2.078 0-1.5 1.125-2.563 1.141-1.078 2.813-1.078 1.078 0 2.047.5t2.11 1.828m2.9-2.14h2.657v3.921h1.578v2.297h-1.578v8.328h-2.656v-8.328h-1.375v-2.297h1.375zm10.668 3.64q1.5 0 2.813.766 1.328.75 2.062 2.047.75 1.28.75 2.765 0 1.516-.75 2.828-.734 1.297-2.03 2.047-1.282.735-2.845.735-2.28 0-3.906-1.625-1.61-1.641-1.61-3.954 0-2.5 1.829-4.156 1.61-1.453 3.687-1.453m.032 2.516q-1.235 0-2.063.875-.828.86-.828 2.203 0 1.39.813 2.25.828.86 2.078.86t2.078-.876.828-2.234q0-1.375-.828-2.219-.813-.86-2.078-.86m7.146-2.235h2.297v1.344q.36-.797.969-1.203.625-.422 1.36-.422.515 0 1.077.281l-.828 2.297q-.469-.234-.765-.234-.625 0-1.047.765-.422.75-.422 2.985l.015.515v4.297h-2.656zm17.678 6.078h-8.578q.187 1.141.984 1.813.813.656 2.063.656 1.5 0 2.578-1.031l2.25 1.047q-.844 1.187-2.016 1.765-1.172.579-2.781.579-2.5 0-4.078-1.579t-1.578-3.953q0-2.437 1.562-4.047 1.578-1.609 3.938-1.609 2.515 0 4.078 1.61 1.578 1.609 1.578 4.25zm-2.688-2.093q-.265-.89-1.046-1.438-.766-.562-1.797-.562-1.11 0-1.953.625-.516.39-.97 1.375z"/><path fill="#e889ab" fill-rule="evenodd" d="M641.448 350.536a6.903 6.903 0 0 1 6.903-6.903h108.87a6.903 6.903 0 0 1 6.904 6.903v27.611a6.903 6.903 0 0 1-6.903 6.903H648.35a6.903 6.903 0 0 1-6.903-6.903z"/><path stroke="#000" stroke-linecap="butt" stroke-linejoin="round" stroke-width="2" d="M641.448 350.536a6.903 6.903 0 0 1 6.903-6.903h108.87a6.903 6.903 0 0 1 6.904 6.903v27.611a6.903 6.903 0 0 1-6.903 6.903H648.35a6.903 6.903 0 0 1-6.903-6.903z"/><path fill="#fff" d="M651.624 357.182h2.735v11.75h3.984v2.61h-6.719zm13.502 3.453q1.5 0 2.813.766 1.328.75 2.062 2.047.75 1.28.75 2.765 0 1.516-.75 2.828-.734 1.297-2.031 2.047-1.281.735-2.844.735-2.281 0-3.906-1.625-1.61-1.641-1.61-3.954 0-2.5 1.829-4.156 1.61-1.453 3.687-1.453m.031 2.516q-1.234 0-2.062.875-.828.86-.828 2.203 0 1.39.812 2.25.828.86 2.078.86t2.079-.876.828-2.234q0-1.375-.828-2.219-.813-.86-2.079-.86m15.631-2.235h2.657v10.625h-2.657v-1.125q-.781.75-1.578 1.078-.781.329-1.703.329-2.047 0-3.562-1.594-1.5-1.61-1.5-3.985 0-2.453 1.453-4.03 1.453-1.579 3.53-1.579.97 0 1.798.375.844.36 1.562 1.078zm-2.812 2.188q-1.235 0-2.063.875-.812.875-.812 2.234 0 1.375.828 2.266.844.89 2.062.89 1.266 0 2.094-.875t.828-2.28q0-1.391-.828-2.25-.828-.86-2.11-.86m16.015-6.297h2.657v14.734h-2.657v-1.125q-.78.75-1.578 1.078-.781.329-1.703.329-2.047 0-3.562-1.594-1.5-1.61-1.5-3.985 0-2.453 1.453-4.03 1.453-1.579 3.531-1.579.969 0 1.797.375.844.36 1.562 1.078zm-2.812 6.297q-1.234 0-2.063.875-.812.875-.812 2.234 0 1.375.828 2.266.844.89 2.063.89 1.265 0 2.093-.875t.828-2.28q0-1.391-.828-2.25-.828-.86-2.11-.86m7.25 11 6.453-17.344h1.89l-6.468 17.344zm17.934-14.969-2.016 1.781q-1.078-1.484-2.172-1.484-.547 0-.89.297-.329.281-.329.64 0 .36.235.688.343.422 2 1.844 1.562 1.312 1.906 1.64.828.844 1.172 1.61.343.765.343 1.672 0 1.78-1.218 2.937-1.219 1.14-3.188 1.14-1.531 0-2.672-.75-1.125-.75-1.937-2.359l2.297-1.39q1.031 1.906 2.375 1.906.703 0 1.172-.406.484-.422.484-.953 0-.485-.36-.97-.359-.5-1.593-1.5-2.344-1.921-3.031-2.952-.672-1.047-.672-2.078 0-1.5 1.125-2.563 1.14-1.078 2.812-1.078 1.078 0 2.047.5t2.11 1.828m2.9-2.14h2.656v3.921h1.578v2.297h-1.578v8.328h-2.656v-8.328h-1.375v-2.297h1.375zm10.668 3.64q1.5 0 2.812.766 1.328.75 2.063 2.047.75 1.28.75 2.765 0 1.516-.75 2.828-.735 1.297-2.031 2.047-1.282.735-2.844.735-2.281 0-3.906-1.625-1.61-1.641-1.61-3.954 0-2.5 1.828-4.156 1.61-1.453 3.688-1.453m.031 2.516q-1.234 0-2.062.875-.829.86-.829 2.203 0 1.39.813 2.25.828.86 2.078.86t2.078-.876.828-2.234q0-1.375-.828-2.219-.812-.86-2.078-.86m7.147-2.235h2.296v1.344q.36-.797.97-1.203.624-.422 1.359-.422.515 0 1.078.281l-.828 2.297q-.47-.234-.766-.234-.625 0-1.047.765-.422.75-.422 2.985l.016.515v4.297h-2.656zm17.677 6.078h-8.578q.188 1.141.985 1.813.812.656 2.062.656 1.5 0 2.578-1.031l2.25 1.047q-.844 1.187-2.015 1.765-1.172.579-2.782.579-2.5 0-4.078-1.579t-1.578-3.953q0-2.437 1.563-4.047 1.578-1.609 3.937-1.609 2.516 0 4.078 1.61 1.578 1.609 1.578 4.25zm-2.687-2.093q-.266-.89-1.047-1.438-.766-.562-1.797-.562-1.11 0-1.953.625-.516.39-.969 1.375z"/><path fill="#e889ab" fill-rule="evenodd" d="M789.971 350.536a6.903 6.903 0 0 1 6.903-6.903h108.871a6.903 6.903 0 0 1 6.903 6.903v27.611a6.903 6.903 0 0 1-6.903 6.903h-108.87a6.903 6.903 0 0 1-6.904-6.903z"/><path stroke="#000" stroke-linecap="butt" stroke-linejoin="round" stroke-width="2" d="M789.971 350.536a6.903 6.903 0 0 1 6.903-6.903h108.871a6.903 6.903 0 0 1 6.903 6.903v27.611a6.903 6.903 0 0 1-6.903 6.903h-108.87a6.903 6.903 0 0 1-6.904-6.903z"/><path fill="#fff" d="M800.148 357.182h2.734v11.75h3.984v2.61h-6.718zm13.502 3.453q1.5 0 2.812.766 1.328.75 2.063 2.047.75 1.28.75 2.765 0 1.516-.75 2.828-.735 1.297-2.032 2.047-1.281.735-2.843.735-2.282 0-3.907-1.625-1.61-1.641-1.61-3.954 0-2.5 1.829-4.156 1.61-1.453 3.688-1.453m.03 2.516q-1.234 0-2.062.875-.828.86-.828 2.203 0 1.39.813 2.25.828.86 2.078.86t2.078-.876.828-2.234q0-1.375-.828-2.219-.813-.86-2.078-.86m15.632-2.235h2.656v10.625h-2.656v-1.125q-.782.75-1.579 1.078-.78.329-1.703.329-2.047 0-3.562-1.594-1.5-1.61-1.5-3.985 0-2.453 1.453-4.03 1.453-1.579 3.531-1.579.969 0 1.797.375.844.36 1.563 1.078zm-2.813 2.188q-1.234 0-2.062.875-.813.875-.813 2.234 0 1.375.828 2.266.844.89 2.063.89 1.265 0 2.093-.875t.829-2.28q0-1.391-.829-2.25-.828-.86-2.109-.86m16.016-6.297h2.656v14.734h-2.656v-1.125q-.782.75-1.578 1.078-.782.329-1.704.329-2.046 0-3.562-1.594-1.5-1.61-1.5-3.985 0-2.453 1.453-4.03 1.453-1.579 3.531-1.579.97 0 1.797.375.844.36 1.563 1.078zm-2.813 6.297q-1.234 0-2.062.875-.813.875-.813 2.234 0 1.375.828 2.266.844.89 2.063.89 1.265 0 2.094-.875.828-.875.828-2.28 0-1.391-.828-2.25-.829-.86-2.11-.86m7.25 11 6.453-17.344h1.891l-6.469 17.344zm17.934-14.969-2.016 1.781q-1.078-1.484-2.172-1.484-.547 0-.89.297-.328.281-.328.64 0 .36.234.688.344.422 2 1.844 1.562 1.312 1.906 1.64.828.844 1.172 1.61.344.765.344 1.672 0 1.78-1.219 2.937-1.219 1.14-3.187 1.14-1.532 0-2.672-.75-1.125-.75-1.938-2.359l2.297-1.39q1.031 1.906 2.375 1.906.703 0 1.172-.406.484-.422.484-.953 0-.485-.359-.97-.36-.5-1.594-1.5-2.344-1.921-3.031-2.952-.672-1.047-.672-2.078 0-1.5 1.125-2.563 1.14-1.078 2.813-1.078 1.078 0 2.046.5.97.5 2.11 1.828m2.9-2.14h2.656v3.921h1.579v2.297h-1.579v8.328h-2.656v-8.328h-1.375v-2.297h1.375zm10.668 3.64q1.5 0 2.813.766 1.328.75 2.062 2.047.75 1.28.75 2.765 0 1.516-.75 2.828-.734 1.297-2.031 2.047-1.281.735-2.844.735-2.281 0-3.906-1.625-1.61-1.641-1.61-3.954 0-2.5 1.829-4.156 1.61-1.453 3.687-1.453m.031 2.516q-1.234 0-2.062.875-.828.86-.828 2.203 0 1.39.812 2.25.828.86 2.078.86t2.079-.876.828-2.234q0-1.375-.828-2.219-.813-.86-2.079-.86m7.147-2.235h2.297v1.344q.36-.797.968-1.203.625-.422 1.36-.422.515 0 1.078.281l-.828 2.297q-.469-.234-.766-.234-.625 0-1.047.765-.422.75-.422 2.985l.016.515v4.297h-2.656zm17.678 6.078h-8.579q.188 1.141.985 1.813.812.656 2.062.656 1.5 0 2.578-1.031l2.25 1.047q-.843 1.187-2.015 1.765-1.172.579-2.781.579-2.5 0-4.079-1.579t-1.578-3.953q0-2.437 1.563-4.047 1.578-1.609 3.937-1.609 2.516 0 4.078 1.61 1.579 1.609 1.579 4.25zm-2.688-2.093q-.266-.89-1.047-1.438-.765-.562-1.797-.562-1.109 0-1.953.625-.515.39-.969 1.375z"/><path d="M108.693 251.635v92"/><path stroke="#000" stroke-linecap="butt" stroke-linejoin="round" stroke-width="2" d="M108.693 263.635v68"/><path fill="#000" fill-rule="evenodd" stroke="#000" stroke-linecap="butt" stroke-width="2" d="m111.996 263.635-3.303-9.076-3.304 9.076zm-6.606 68 3.303 9.076 3.303-9.076z"/><path d="M257.216 251.635v92"/><path stroke="#000" stroke-linecap="butt" stroke-linejoin="round" stroke-width="2" d="M257.216 263.635v68"/><path fill="#000" fill-rule="evenodd" stroke="#000" stroke-linecap="butt" stroke-width="2" d="m260.52 263.635-3.304-9.076-3.303 9.076zm-6.607 68 3.303 9.076 3.304-9.076z"/><path d="M405.741 251.635v92"/><path stroke="#000" stroke-linecap="butt" stroke-linejoin="round" stroke-width="2" d="M405.741 263.635v68"/><path fill="#000" fill-rule="evenodd" stroke="#000" stroke-linecap="butt" stroke-width="2" d="m409.045 263.635-3.304-9.076-3.303 9.076zm-6.607 68 3.303 9.076 3.304-9.076z"/><path d="M554.264 251.635v92"/><path stroke="#000" stroke-linecap="butt" stroke-linejoin="round" stroke-width="2" d="M554.264 263.635v68"/><path fill="#000" fill-rule="evenodd" stroke="#000" stroke-linecap="butt" stroke-width="2" d="m557.567 263.635-3.303-9.076-3.304 9.076zm-6.607 68 3.304 9.076 3.303-9.076z"/><path d="M702.788 251.635v92"/><path stroke="#000" stroke-linecap="butt" stroke-linejoin="round" stroke-width="2" d="M702.788 263.635v68"/><path fill="#000" fill-rule="evenodd" stroke="#000" stroke-linecap="butt" stroke-width="2" d="m706.092 263.635-3.304-9.076-3.303 9.076zm-6.607 68 3.303 9.076 3.304-9.076z"/><path d="M851.31 251.635v92"/><path stroke="#000" stroke-linecap="butt" stroke-linejoin="round" stroke-width="2" d="M851.31 263.635v68"/><path fill="#000" fill-rule="evenodd" stroke="#000" stroke-linecap="butt" stroke-width="2" d="m854.614 263.635-3.303-9.076-3.304 9.076zm-6.607 68 3.304 9.076 3.303-9.076z"/><path d="m109.795 299.146 740.41-3.024"/><path stroke="#000" stroke-linecap="butt" stroke-linejoin="round" stroke-width="2" d="m109.795 299.146 740.41-3.024"/><path fill="#e889ab" fill-rule="evenodd" d="M47.357 469.494c0-5.41 4.386-9.796 9.795-9.796h845.7a9.796 9.796 0 0 1 9.796 9.796v39.18c0 5.41-4.385 9.796-9.795 9.796h-845.7c-5.41 0-9.796-4.386-9.796-9.796z"/><path stroke="#000" stroke-linecap="butt" stroke-linejoin="round" stroke-width="2" d="M47.357 469.494c0-5.41 4.386-9.796 9.795-9.796h845.7a9.796 9.796 0 0 1 9.796 9.796v39.18c0 5.41-4.385 9.796-9.795 9.796h-845.7c-5.41 0-9.796-4.386-9.796-9.796z"/><path fill="#fff" d="m419.113 484.268-1.922 1.891q-1.828-1.922-4.266-1.922-2.109 0-3.546 1.406-1.438 1.407-1.438 3.407 0 2.093 1.484 3.546 1.485 1.438 3.672 1.438 1.407 0 2.375-.594.985-.61 1.578-1.875h-4.156v-2.562h7.219l.016.593q0 1.891-.985 3.579-.969 1.687-2.515 2.578t-3.641.89q-2.234 0-4-.968-1.75-.97-2.766-2.766-1.015-1.797-1.015-3.875 0-2.86 1.875-4.969 2.25-2.515 5.828-2.515 1.875 0 3.5.703 1.375.578 2.703 2.015m2.953-2.718h2.672v14.734h-2.672zm10.076 3.828q1.5 0 2.813.765 1.328.75 2.062 2.047.75 1.281.75 2.766 0 1.515-.75 2.828-.734 1.297-2.031 2.047-1.281.734-2.844.734-2.281 0-3.906-1.625-1.61-1.64-1.61-3.953 0-2.5 1.829-4.156 1.61-1.453 3.687-1.453m.031 2.515q-1.234 0-2.062.875-.828.86-.828 2.203 0 1.391.812 2.25.828.86 2.078.86t2.079-.875.828-2.235q0-1.375-.828-2.218-.813-.86-2.079-.86m10.428-6.343v5.28q.719-.718 1.547-1.077.844-.375 1.813-.375 2.078 0 3.53 1.578 1.454 1.578 1.454 4.031 0 2.375-1.5 3.984-1.5 1.594-3.563 1.594-.921 0-1.718-.328-.782-.328-1.563-1.078v1.125h-2.656V481.55zm2.797 6.296q-1.266 0-2.094.86t-.828 2.25q0 1.406.828 2.281t2.094.875q1.219 0 2.047-.89.844-.891.844-2.266 0-1.36-.828-2.235-.813-.875-2.063-.875m15.61-2.187h2.656v10.625h-2.657v-1.125q-.78.75-1.578 1.078-.78.328-1.703.328-2.047 0-3.562-1.594-1.5-1.609-1.5-3.984 0-2.453 1.453-4.031t3.531-1.578q.969 0 1.797.375.844.36 1.562 1.078zm-2.813 2.187q-1.234 0-2.063.875-.812.875-.812 2.235 0 1.375.828 2.265.844.891 2.063.891 1.265 0 2.093-.875t.828-2.281q0-1.39-.828-2.25t-2.109-.86m7.875-6.296h2.672v14.734h-2.672zm12.36.375h2.671l3.328 10.015 3.36-10.015h2.64l2.422 14.359h-2.64l-1.547-9.078-3.047 9.078h-2.422l-3.016-9.078-1.562 9.078h-2.672zm26.966 9.812h-8.578q.188 1.14.984 1.813.813.656 2.063.656 1.5 0 2.578-1.031l2.25 1.046q-.844 1.188-2.016 1.766-1.171.578-2.78.578-2.5 0-4.079-1.578t-1.578-3.953q0-2.438 1.562-4.047 1.579-1.61 3.938-1.61 2.516 0 4.078 1.61 1.578 1.61 1.578 4.25zm-2.687-2.094q-.266-.89-1.047-1.437-.766-.563-1.797-.563-1.11 0-1.953.625-.516.391-.969 1.375zm4.818-3.984h2.672v1.219q.687-.75 1.515-1.125.844-.375 1.829-.375 1 0 1.796.5.797.484 1.297 1.422.625-.938 1.547-1.422.922-.5 2.016-.5 1.14 0 2 .531t1.234 1.39q.375.844.375 2.75v6.235h-2.687v-5.39q0-1.813-.453-2.454-.438-.64-1.344-.64-.688 0-1.235.39-.53.39-.796 1.094-.266.687-.266 2.203v4.797h-2.688v-5.14q0-1.438-.218-2.079-.203-.64-.625-.953-.407-.312-1-.312-.672 0-1.219.406-.531.39-.813 1.11-.265.702-.265 2.234v4.734h-2.672zm23.814-.281q1.5 0 2.813.765 1.328.75 2.062 2.047.75 1.281.75 2.766 0 1.515-.75 2.828-.734 1.297-2.03 2.047-1.282.734-2.845.734-2.28 0-3.906-1.625-1.61-1.64-1.61-3.953 0-2.5 1.829-4.156 1.61-1.453 3.687-1.453m.032 2.515q-1.235 0-2.063.875-.828.86-.828 2.203 0 1.391.813 2.25.828.86 2.078.86t2.078-.875.828-2.235q0-1.375-.828-2.218-.813-.86-2.078-.86m7.146-2.234h2.297v1.344q.36-.797.969-1.203.625-.422 1.36-.422.515 0 1.077.281l-.828 2.297q-.469-.235-.765-.235-.625 0-1.047.766-.422.75-.422 2.984l.015.516v4.297h-2.656zm5.85 0h2.718l2.766 6.672 3.047-6.672h2.734l-6.656 14.516h-2.766l2.188-4.688z"/><path d="m108.693 385.05.315 74.992"/><path stroke="#000" stroke-linecap="butt" stroke-linejoin="round" stroke-width="2" d="m108.743 397.05.214 50.992"/><path fill="#000" fill-rule="evenodd" stroke="#000" stroke-linecap="butt" stroke-width="2" d="m112.047 397.036-3.342-9.062-3.265 9.09zm-6.393 51.02 3.342 9.062 3.265-9.09z"/><path d="m257.185 385.05.314 74.992"/><path stroke="#000" stroke-linecap="butt" stroke-linejoin="round" stroke-width="2" d="m257.235 397.05.214 50.992"/><path fill="#000" fill-rule="evenodd" stroke="#000" stroke-linecap="butt" stroke-width="2" d="m260.538 397.036-3.341-9.062-3.266 9.09zm-6.392 51.02 3.341 9.062 3.266-9.09z"/><path d="m405.676 385.05.315 74.992"/><path stroke="#000" stroke-linecap="butt" stroke-linejoin="round" stroke-width="2" d="m405.727 397.05.214 50.992"/><path fill="#000" fill-rule="evenodd" stroke="#000" stroke-linecap="butt" stroke-width="2" d="m409.03 397.036-3.342-9.062-3.265 9.09zm-6.393 51.02 3.342 9.062 3.265-9.09z"/><path d="m554.168 385.05.315 74.992"/><path stroke="#000" stroke-linecap="butt" stroke-linejoin="round" stroke-width="2" d="m554.218 397.05.214 50.992"/><path fill="#000" fill-rule="evenodd" stroke="#000" stroke-linecap="butt" stroke-width="2" d="m557.522 397.036-3.342-9.062-3.265 9.09zm-6.393 51.02 3.341 9.062 3.266-9.09z"/><path d="m702.66 385.05.314 74.992"/><path stroke="#000" stroke-linecap="butt" stroke-linejoin="round" stroke-width="2" d="m702.71 397.05.214 50.992"/><path fill="#000" fill-rule="evenodd" stroke="#000" stroke-linecap="butt" stroke-width="2" d="m706.013 397.036-3.341-9.062-3.266 9.09zm-6.393 51.02 3.342 9.062 3.265-9.09z"/><path d="m851.15 385.05.316 74.992"/><path stroke="#000" stroke-linecap="butt" stroke-linejoin="round" stroke-width="2" d="m851.201 397.05.215 50.992"/><path fill="#000" fill-rule="evenodd" stroke="#000" stroke-linecap="butt" stroke-width="2" d="m854.505 397.036-3.342-9.062-3.265 9.09zm-6.393 51.02 3.342 9.062 3.265-9.09z"/></g></svg>