<svg xmlns="http://www.w3.org/2000/svg" width="944.319" height="166.11" fill="none" stroke-linecap="square" stroke-miterlimit="10"><clipPath id="a"><path d="M0 0h960v540H0Z"/></clipPath><g clip-path="url(#a)" transform="translate(1.835 -205.241)"><path d="M122.436 217.588h166.11v42.016h-166.11Z"/><path fill="#000" d="M170.861 231.102h6.657v2.5h-4.125v2.422h4.125v2.453h-4.125v6.03h-2.532zm13.299 3.234q1.406 0 2.64.703t1.922 1.906q.703 1.204.703 2.594 0 1.406-.703 2.625-.687 1.219-1.89 1.906-1.204.688-2.657.688-2.125 0-3.64-1.516-1.5-1.515-1.5-3.687 0-2.313 1.703-3.86 1.484-1.359 3.422-1.359m.047 2.344q-1.157 0-1.938.812-.766.797-.766 2.063 0 1.297.75 2.094.766.796 1.938.796t1.937-.812q.782-.813.782-2.078 0-1.281-.766-2.078t-1.937-.797m6.66-2.078h2.142v1.25q.343-.75.906-1.125.578-.39 1.265-.39.485 0 1.016.265l-.781 2.14q-.438-.218-.719-.218-.578 0-.969.718-.39.703-.39 2.782v4.484h-2.47zm5.452 0h2.437l1.985 5.64 2.156-5.64h1.484l2.11 5.562 1.984-5.562h2.453l-3.609 9.906h-1.578l-2.125-5.64-2.172 5.64h-1.563zm23.343 0h2.485v9.906h-2.485v-1.047q-.719.688-1.453 1-.734.297-1.594.297-1.922 0-3.328-1.484-1.406-1.485-1.406-3.704 0-2.296 1.36-3.765 1.359-1.469 3.296-1.469.89 0 1.672.344.797.344 1.453 1.015zm-2.61 2.03q-1.155 0-1.921.83-.766.812-.766 2.077 0 1.281.782 2.125.78.828 1.906.828 1.187 0 1.953-.812.781-.828.781-2.14 0-1.298-.781-2.095-.766-.812-1.953-.812m7.02-2.03h2.14v1.25q.344-.75.907-1.125.578-.39 1.265-.39.485 0 1.016.265l-.781 2.14q-.438-.218-.719-.218-.578 0-.969.718-.39.703-.39 2.782v4.484h-2.469zm13.873-3.828h2.484v13.734h-2.484v-1.047q-.719.688-1.453 1-.735.297-1.594.297-1.922 0-3.328-1.484-1.406-1.485-1.406-3.704 0-2.296 1.36-3.765 1.358-1.469 3.296-1.469.89 0 1.672.344.797.344 1.453 1.015zm-2.61 5.859q-1.156 0-1.921.828-.766.813-.766 2.078 0 1.281.781 2.125.782.828 1.907.828 1.187 0 1.953-.812.781-.828.781-2.14 0-1.298-.781-2.095-.766-.812-1.953-.812"/><path d="M308.257 217.218h166.11v42.016h-166.11Z"/><path fill="#000" d="M347.132 244.138v-13.406h2.11q1.828 0 2.671.25 1.204.312 1.907 1.187.718.86.718 2.031 0 .766-.328 1.391-.312.625-1.047 1.172 1.22.562 1.782 1.437.562.86.562 2.032 0 1.125-.578 2.062-.578.922-1.5 1.39-.922.454-2.547.454zm2.547-10.969v2.828h.563q.921 0 1.375-.39.453-.391.453-1.063 0-.64-.438-1-.422-.375-1.297-.375zm0 5.11v3.421h.64q1.579 0 2.126-.39.562-.407.562-1.172 0-.86-.656-1.36-.64-.5-2.14-.5zm15.322-4.047h2.484v9.906h-2.484v-1.047q-.719.687-1.453 1-.734.297-1.594.297-1.922 0-3.328-1.485-1.406-1.484-1.406-3.703 0-2.297 1.36-3.765 1.359-1.469 3.296-1.469.89 0 1.672.344.797.343 1.453 1.015zm-2.61 2.03q-1.156 0-1.921.829-.766.812-.766 2.078 0 1.281.781 2.125.782.828 1.907.828 1.187 0 1.953-.812.781-.828.781-2.14 0-1.298-.781-2.095-.766-.812-1.953-.812m17.301-.03-2.062 1.14q-.578-.61-1.157-.843-.562-.25-1.328-.25-1.39 0-2.265.843-.86.828-.86 2.14 0 1.267.828 2.063.844.797 2.188.797 1.672 0 2.594-1.14l1.953 1.343q-1.594 2.063-4.5 2.063-2.61 0-4.094-1.547-1.469-1.547-1.469-3.625 0-1.437.719-2.64.719-1.22 2-1.907 1.297-.703 2.89-.703 1.47 0 2.641.594 1.188.594 1.922 1.672m2.27-5.828h2.485v7.906l3.656-4.078h3.125l-4.265 4.75 4.781 5.156h-3.094l-4.203-4.563v4.563h-2.484zm9.698 3.828h2.437l1.985 5.64 2.156-5.64h1.484l2.11 5.562 1.984-5.562h2.453l-3.61 9.906h-1.577l-2.125-5.64-2.172 5.64h-1.563zm23.343 0h2.484v9.906h-2.484v-1.047q-.719.688-1.453 1-.734.297-1.594.297-1.922 0-3.328-1.484-1.406-1.485-1.406-3.704 0-2.296 1.36-3.765 1.359-1.469 3.296-1.469.89 0 1.672.344.797.344 1.453 1.015zm-2.61 2.03q-1.156 0-1.921.829-.766.813-.766 2.078 0 1.281.781 2.125.782.828 1.907.828 1.187 0 1.953-.812.781-.828.781-2.14 0-1.298-.781-2.095-.766-.812-1.953-.812m7.02-2.03h2.14v1.25q.344-.75.907-1.125.578-.391 1.265-.391.485 0 1.016.266l-.781 2.14q-.438-.218-.719-.218-.578 0-.969.718-.39.703-.39 2.782v4.484h-2.47zm13.873-3.828h2.484v13.734h-2.484v-1.047q-.719.688-1.453 1-.735.297-1.594.297-1.922 0-3.328-1.484-1.406-1.485-1.406-3.704 0-2.296 1.359-3.765 1.36-1.469 3.297-1.469.89 0 1.672.344.797.344 1.453 1.015zm-2.61 5.859q-1.156 0-1.921.828-.766.813-.766 2.078 0 1.281.781 2.125.782.828 1.907.828 1.187 0 1.953-.812.78-.828.78-2.14 0-1.298-.78-2.095-.766-.812-1.953-.812"/><path d="M-1.835 290.64h166.11v19.402H-1.834Z"/><path fill="#000" d="m19.087 296.375-1.531 1.532q-1.469-1.547-3.406-1.547-1.703 0-2.844 1.125t-1.14 2.734q0 1.656 1.187 2.813 1.187 1.156 2.922 1.156 1.14 0 1.906-.469.781-.484 1.266-1.5h-3.329v-2.047H19.9l.015.485q0 1.5-.78 2.86-.782 1.343-2.032 2.062-1.235.718-2.906.718-1.797 0-3.204-.781-1.39-.781-2.218-2.219-.813-1.437-.813-3.11 0-2.28 1.516-3.968 1.781-2 4.656-2 1.5 0 2.797.547 1.11.469 2.156 1.61m2.828-1.875h2.313q1.89 0 2.719.36.828.344 1.312 1.125.484.765.484 1.86 0 1.202-.64 2-.625.796-1.703 1.109-.625.171-2.297.171V306h-2.188zm2.188 4.5h.687q.828 0 1.141-.109.328-.125.5-.39.187-.282.187-.657 0-.672-.515-.969-.375-.234-1.39-.234h-.61zm6.695-4.5h2.203v7.438q0 .969.157 1.375.171.39.562.625.39.234.938.234.578 0 .984-.265.422-.266.578-.672.172-.406.172-1.563V294.5h2.187v6.86q0 1.734-.203 2.406-.187.672-.734 1.297t-1.266.937q-.718.297-1.672.297-1.25 0-2.187-.578-.922-.578-1.328-1.437-.39-.875-.39-2.922zm25.36 2.032-1.532 1.453q-1.562-1.64-3.515-1.64-1.641 0-2.782 1.124-1.125 1.125-1.125 2.766 0 1.156.5 2.047.5.89 1.407 1.406.922.5 2.047.5.953 0 1.734-.36.797-.359 1.734-1.296l1.485 1.547q-1.266 1.25-2.407 1.734-1.125.484-2.578.484-2.687 0-4.39-1.703t-1.703-4.36q0-1.718.765-3.046.781-1.344 2.235-2.156t3.125-.813q1.421 0 2.734.61 1.312.593 2.266 1.703m5.68.75q1.202 0 2.25.61 1.062.593 1.655 1.624.594 1.031.594 2.219 0 1.203-.594 2.25-.593 1.047-1.625 1.64-1.03.594-2.28.594-1.829 0-3.126-1.297-1.281-1.312-1.281-3.172 0-1.984 1.453-3.312 1.281-1.156 2.953-1.156m.03 2q-1 0-1.656.703-.656.687-.656 1.765 0 1.11.64 1.797.657.688 1.657.688t1.656-.688q.672-.703.672-1.797t-.656-1.78q-.64-.688-1.657-.688m6.196-1.782h2.14v.97q.547-.595 1.22-.891.671-.297 1.452-.297.797 0 1.438.39t1.031 1.14q.516-.75 1.25-1.14t1.61-.39q.906 0 1.593.422.688.421.985 1.109.312.672.312 2.203V306h-2.156v-4.312q0-1.453-.36-1.953-.359-.516-1.078-.516-.547 0-.984.313-.422.312-.64.86-.204.546-.204 1.765V306h-2.156v-4.125q0-1.14-.172-1.64-.156-.516-.5-.766-.328-.25-.812-.25-.532 0-.97.313-.421.312-.64.89-.219.563-.219 1.797V306h-2.14Zm17.18 0v.938q.578-.578 1.25-.86.671-.296 1.437-.296 1.656 0 2.812 1.265 1.172 1.25 1.172 3.219 0 1.89-1.203 3.172-1.203 1.281-2.844 1.281-.734 0-1.375-.265-.625-.266-1.25-.86v4.016h-2.125V297.5zm2.234 1.75q-1 0-1.672.688-.656.687-.656 1.797 0 1.125.656 1.828.672.703 1.672.703.984 0 1.64-.703.672-.719.672-1.828 0-1.094-.656-1.781-.656-.704-1.656-.704m6.203-1.75h2.156v4.094q0 1.188.156 1.656.172.47.532.735.36.25.89.25.532 0 .907-.25.375-.266.546-.75.141-.375.141-1.578V297.5h2.14v3.594q0 2.235-.359 3.047-.422 1-1.265 1.547-.828.531-2.125.531-1.39 0-2.266-.625-.86-.625-1.203-1.75-.25-.765-.25-2.812zm9.867-3.14h2.125v3.14h1.266v1.829h-1.266V306h-2.125v-6.671h-1.094V297.5h1.094zm10.813 3.14h2.125v8.5h-2.125v-.906q-.625.594-1.25.86-.625.265-1.36.265-1.656 0-2.86-1.281-1.202-1.281-1.202-3.172 0-1.969 1.156-3.219 1.172-1.265 2.844-1.265.765 0 1.437.297.672.28 1.235.859zm-2.235 1.75q-1 0-1.656.704-.656.687-.656 1.78 0 1.11.672 1.829.672.703 1.64.703 1.016 0 1.672-.703.672-.703.672-1.828 0-1.11-.672-1.797-.656-.688-1.672-.688m6.782-4.89h2.125v3.14h1.265v1.829h-1.265V306h-2.125v-6.671h-1.094V297.5h1.094zm5.375-.36q.562 0 .953.407.406.406.406.984 0 .563-.406.969-.391.406-.938.406-.578 0-.984-.406-.39-.422-.39-1 0-.563.39-.953.406-.407.969-.407m-1.079 3.5h2.141v8.5h-2.14zm8.07-.218q1.204 0 2.25.61 1.063.593 1.657 1.624t.594 2.219q0 1.203-.594 2.25t-1.625 1.64-2.281.594q-1.828 0-3.125-1.297-1.282-1.312-1.282-3.172 0-1.984 1.454-3.312 1.28-1.156 2.953-1.156m.032 2q-1 0-1.656.703-.657.687-.657 1.765 0 1.11.641 1.797.656.688 1.656.688t1.657-.688q.671-.703.671-1.797t-.656-1.78q-.64-.688-1.656-.688m6.21-1.782h2.126v.86q.734-.61 1.312-.844.594-.234 1.22-.234 1.265 0 2.14.875.75.75.75 2.218V306h-2.11v-3.734q0-1.516-.14-2.016t-.485-.765q-.328-.266-.828-.266-.656 0-1.125.438-.453.437-.64 1.203-.094.39-.094 1.719V306h-2.125zm10.774-.218q.5 0 .86.36.36.358.36.858t-.36.86-.86.36q-.515 0-.875-.345-.36-.359-.36-.875 0-.5.36-.859.36-.36.875-.36m0 6.484q.5 0 .86.36.36.359.36.859 0 .515-.36.875t-.86.36q-.515 0-.875-.36t-.36-.875q0-.5.36-.86.36-.359.875-.359"/><path d="M-1.835 332.53h186.961v19.402H-1.834Z"/><path fill="#000" d="m19.087 338.265-1.531 1.531q-1.469-1.546-3.406-1.546-1.703 0-2.844 1.125t-1.14 2.734q0 1.656 1.187 2.812 1.187 1.157 2.922 1.157 1.14 0 1.906-.469.781-.484 1.266-1.5h-3.329v-2.047H19.9l.015.484q0 1.5-.78 2.86-.782 1.344-2.032 2.062-1.235.72-2.906.72-1.797 0-3.204-.782-1.39-.781-2.218-2.219-.813-1.437-.813-3.11 0-2.28 1.516-3.968 1.781-2 4.656-2 1.5 0 2.797.547 1.11.469 2.156 1.61m2.828-1.875h2.313q1.89 0 2.719.36.828.343 1.312 1.125.484.765.484 1.859 0 1.203-.64 2-.625.797-1.703 1.11-.625.171-2.297.171v4.875h-2.188zm2.188 4.5h.687q.828 0 1.141-.11.328-.124.5-.39.187-.281.187-.656 0-.672-.515-.969-.375-.234-1.39-.234h-.61zm6.695-4.5h2.203v7.438q0 .968.157 1.375.171.39.562.625.39.234.938.234.578 0 .984-.266.422-.265.578-.671.172-.407.172-1.563v-7.172h2.187v6.86q0 1.734-.203 2.406-.187.672-.734 1.297t-1.266.937q-.718.297-1.672.297-1.25 0-2.187-.578-.922-.578-1.328-1.438-.39-.875-.39-2.921zm25.36 2.031-1.532 1.454q-1.562-1.641-3.515-1.641-1.641 0-2.782 1.125-1.125 1.125-1.125 2.766 0 1.156.5 2.046.5.891 1.407 1.407.922.5 2.047.5.953 0 1.734-.36.797-.36 1.734-1.297l1.485 1.547q-1.266 1.25-2.407 1.735-1.125.484-2.578.484-2.687 0-4.39-1.703t-1.703-4.36q0-1.718.765-3.046.781-1.344 2.235-2.157t3.125-.812q1.421 0 2.734.61 1.312.593 2.266 1.702m5.68.75q1.202 0 2.25.61 1.062.594 1.655 1.625.594 1.031.594 2.219 0 1.203-.594 2.25-.593 1.046-1.625 1.64-1.03.594-2.28.594-1.829 0-3.126-1.297-1.281-1.312-1.281-3.172 0-1.984 1.453-3.312 1.281-1.157 2.953-1.157m.03 2q-1 0-1.656.704-.656.687-.656 1.765 0 1.11.64 1.797.657.688 1.657.688t1.656-.688q.672-.703.672-1.797t-.656-1.781q-.64-.688-1.657-.688m6.196-1.78h2.14v.968q.547-.594 1.22-.89.671-.298 1.452-.298.797 0 1.438.391.64.39 1.031 1.14.516-.75 1.25-1.14t1.61-.39q.906 0 1.593.421.688.422.985 1.11.312.672.312 2.203v4.984h-2.156v-4.312q0-1.453-.36-1.953-.359-.516-1.078-.516-.547 0-.984.312-.422.313-.64.86-.204.547-.204 1.765v3.844h-2.156v-4.125q0-1.14-.172-1.64-.156-.516-.5-.766-.328-.25-.812-.25-.532 0-.97.312-.421.313-.64.891-.219.563-.219 1.797v3.781h-2.14Zm15.039 0h2.14v.968q.547-.594 1.22-.89.671-.298 1.452-.298.797 0 1.438.391.64.39 1.031 1.14.516-.75 1.25-1.14t1.61-.39q.906 0 1.593.421.688.422.985 1.11.312.672.312 2.203v4.984h-2.156v-4.312q0-1.453-.36-1.953-.359-.516-1.078-.516-.547 0-.984.312-.422.313-.64.86-.204.547-.204 1.765v3.844h-2.156v-4.125q0-1.14-.172-1.64-.156-.516-.5-.766-.328-.25-.812-.25-.532 0-.97.312-.421.313-.64.891-.219.563-.219 1.797v3.781h-2.14zm15.055 0h2.156v4.093q0 1.187.156 1.656.172.469.531.735.36.25.89.25.532 0 .907-.25.375-.266.547-.75.14-.375.14-1.579v-4.156h2.141v3.594q0 2.234-.36 3.047-.421 1-1.265 1.547-.828.531-2.125.531-1.39 0-2.265-.625-.86-.625-1.203-1.75-.25-.766-.25-2.813zm9.601 0h2.125v.859q.734-.61 1.313-.844.593-.235 1.218-.235 1.266 0 2.141.875.75.75.75 2.22v5.624h-2.11v-3.734q0-1.516-.14-2.016t-.484-.765q-.329-.266-.829-.266-.656 0-1.125.437-.453.438-.64 1.204-.094.39-.094 1.718v3.422h-2.125zm10.445-3.5q.563 0 .954.405.406.407.406.985 0 .562-.406.969-.391.406-.938.406-.578 0-.984-.406-.391-.422-.391-1 0-.563.39-.954.407-.406.97-.406m-1.078 3.5h2.14v8.5h-2.14zm12.399 1.718-1.782.969q-.5-.516-.984-.719t-1.14-.203q-1.204 0-1.938.719-.734.703-.734 1.828 0 1.078.703 1.765.718.688 1.875.688 1.422 0 2.218-.969l1.688 1.14q-1.375 1.782-3.86 1.782-2.25 0-3.515-1.328t-1.266-3.11q0-1.234.61-2.265.625-1.047 1.718-1.64 1.11-.595 2.485-.595 1.265 0 2.265.5 1.016.5 1.657 1.438m8.195-1.719h2.125v8.5h-2.125v-.906q-.625.594-1.25.86-.625.265-1.36.265-1.656 0-2.859-1.281-1.203-1.282-1.203-3.172 0-1.969 1.156-3.219 1.172-1.266 2.844-1.266.766 0 1.438.297.672.282 1.234.86zm-2.234 1.75q-1 0-1.657.703-.656.688-.656 1.782 0 1.109.672 1.828.672.703 1.64.703 1.016 0 1.673-.703.671-.703.671-1.828 0-1.11-.671-1.797-.657-.688-1.672-.688m6.78-4.89h2.126v3.14h1.266v1.828h-1.266v6.672h-2.125v-6.672h-1.094v-1.828h1.094zm5.376-.36q.562 0 .953.406.406.407.406.985 0 .562-.406.969-.39.406-.937.406-.579 0-.985-.406-.39-.422-.39-1 0-.563.39-.954.406-.406.969-.406m-1.078 3.5h2.14v8.5h-2.14zm8.07-.219q1.203 0 2.25.61 1.063.594 1.656 1.625.594 1.031.594 2.219 0 1.203-.594 2.25-.593 1.046-1.625 1.64-1.03.594-2.28.594-1.829 0-3.126-1.297-1.281-1.312-1.281-3.172 0-1.984 1.453-3.312 1.281-1.157 2.953-1.157m.031 2q-1 0-1.656.704-.656.687-.656 1.765 0 1.11.64 1.797.657.688 1.657.688t1.656-.688q.672-.703.672-1.797t-.656-1.781q-.641-.688-1.657-.688m6.211-1.78h2.125v.859q.735-.61 1.313-.844.594-.235 1.219-.235 1.265 0 2.14.875.75.75.75 2.22v5.624h-2.11v-3.734q0-1.516-.14-2.016t-.484-.765q-.328-.266-.828-.266-.657 0-1.125.437-.453.438-.641 1.204-.094.39-.094 1.718v3.422h-2.125zm10.774-.22q.5 0 .86.36.358.36.358.86t-.359.859-.86.359q-.515 0-.874-.344-.36-.36-.36-.875 0-.5.36-.86.36-.359.875-.359m0 6.485q.5 0 .86.36.358.359.358.859 0 .515-.359.875-.36.359-.86.359-.515 0-.874-.36-.36-.359-.36-.874 0-.5.36-.86t.875-.36"/><path fill="#8e7cc3" fill-rule="evenodd" d="M452.415 328.268a6.98 6.98 0 0 1 6.981-6.982h164.651a6.98 6.98 0 0 1 6.982 6.982v27.926a6.98 6.98 0 0 1-6.982 6.982h-164.65a6.98 6.98 0 0 1-6.982-6.982z"/><path stroke="#000" stroke-linecap="butt" stroke-linejoin="round" d="M452.415 328.268a6.98 6.98 0 0 1 6.981-6.982h164.651a6.98 6.98 0 0 1 6.982 6.982v27.926a6.98 6.98 0 0 1-6.982 6.982h-164.65a6.98 6.98 0 0 1-6.982-6.982z"/><path fill="#fff" d="M536.295 338.315h1.485l2.937 7.656h-1.515l-.594-1.578h-3.125l-.625 1.578h-1.516zm.75 2.031-1.015 2.625h2.031zm4.805-2.031h1.453v6.265h2.125v1.391h-3.578zm4.688 0h1.453v6.265h2.125v1.391h-3.578z"/><path fill="#4ea5b7" fill-rule="evenodd" d="M170.44 284.515a5.12 5.12 0 0 1 5.12-5.119h20.471a5.12 5.12 0 0 1 5.119 5.119v31.653a5.12 5.12 0 0 1-5.119 5.118H175.56a5.12 5.12 0 0 1-5.118-5.118z"/><path stroke="#000" stroke-linecap="butt" stroke-linejoin="round" d="M170.44 284.515a5.12 5.12 0 0 1 5.12-5.119h20.471a5.12 5.12 0 0 1 5.119 5.119v31.653a5.12 5.12 0 0 1-5.119 5.118H175.56a5.12 5.12 0 0 1-5.118-5.118z"/><path fill="#fff" d="M185.766 295.329q1.047 0 1.797.515.766.516 1.172 1.578.422 1.047.422 2.938 0 1.906-.422 2.969t-1.14 1.562q-.704.485-1.782.485t-1.812-.5-1.157-1.516q-.406-1.031-.406-2.906 0-2.64.813-3.828.906-1.297 2.515-1.297m.047 1.734q-.469 0-.828.297-.344.297-.547 1.016-.187.718-.187 2.109 0 1.812.437 2.516.438.687 1.125.687.656 0 1.047-.656.484-.797.484-2.656 0-1.891-.437-2.594-.422-.719-1.094-.719"/><path fill="#4ea5b7" fill-rule="evenodd" d="M201.15 284.515a5.12 5.12 0 0 1 5.118-5.119h20.472a5.12 5.12 0 0 1 5.118 5.119v31.653a5.12 5.12 0 0 1-5.118 5.118h-20.472a5.12 5.12 0 0 1-5.118-5.118z"/><path stroke="#000" stroke-linecap="butt" stroke-linejoin="round" d="M201.15 284.515a5.12 5.12 0 0 1 5.118-5.119h20.472a5.12 5.12 0 0 1 5.118 5.119v31.653a5.12 5.12 0 0 1-5.118 5.118h-20.472a5.12 5.12 0 0 1-5.118-5.118z"/><path fill="#fff" d="M214.96 295.563h2.734v9.578h-1.813v-7.86h-1.969z"/><path fill="#e38a42" fill-rule="evenodd" d="M264.34 286.378a6.98 6.98 0 0 1 6.982-6.982h48.084a6.98 6.98 0 0 1 6.981 6.982v27.926a6.98 6.98 0 0 1-6.981 6.982h-48.084a6.98 6.98 0 0 1-6.982-6.982z"/><path stroke="#000" stroke-linecap="butt" stroke-linejoin="round" d="M264.34 286.378a6.98 6.98 0 0 1 6.982-6.982h48.084a6.98 6.98 0 0 1 6.981 6.982v27.926a6.98 6.98 0 0 1-6.981 6.982h-48.084a6.98 6.98 0 0 1-6.982-6.982z"/><path fill="#fff" d="M293.96 298.657h-1.782q.078-1.547.97-2.438.905-.89 2.312-.89.875 0 1.547.375.671.36 1.062 1.062.406.688.406 1.406 0 .844-.484 1.829-.484.984-1.781 2.328l-1.078 1.125h3.421v1.687h-6.64v-.875l2.969-3.015q1.078-1.094 1.421-1.75.36-.657.36-1.188 0-.562-.375-.922-.36-.36-.938-.36-.594 0-.984.438t-.406 1.188"/><path fill="#8e7cc3" fill-rule="evenodd" d="M822.047 280.759a3.77 3.77 0 0 1 3.77-3.77h112.398a3.77 3.77 0 0 1 3.77 3.77v15.076a3.77 3.77 0 0 1-3.77 3.769H825.816a3.77 3.77 0 0 1-3.769-3.77z"/><path stroke="#000" stroke-linecap="butt" stroke-linejoin="round" d="M822.047 280.759a3.77 3.77 0 0 1 3.77-3.77h112.398a3.77 3.77 0 0 1 3.77 3.77v15.076a3.77 3.77 0 0 1-3.77 3.769H825.816a3.77 3.77 0 0 1-3.769-3.77z"/><path fill="#fff" d="M841.637 284.38h1.484l2.937 7.657h-1.515l-.594-1.579h-3.125l-.625 1.579h-1.516zm.75 2.032-1.016 2.625h2.031zm4.492-2.22h1.422v7.845h-1.422zm2.555 0h1.421v7.845h-1.421zm2.96.188h1.547q1.266 0 1.797.235.547.218.875.75.328.515.328 1.234 0 .766-.359 1.281-.36.5-1.094.75l1.813 3.407h-1.594l-1.719-3.235h-.125v3.235h-1.468zm1.47 3h.452q.688 0 .954-.187.265-.188.265-.61 0-.25-.14-.421-.125-.188-.344-.266-.219-.094-.797-.094h-.39zm10.134 2.235h-4.563q.094.61.516.968.438.344 1.11.344.796 0 1.359-.547l1.203.563q-.453.625-1.078.937-.625.297-1.485.297-1.328 0-2.171-.828-.829-.844-.829-2.11 0-1.296.829-2.156.843-.859 2.093-.859 1.344 0 2.172.86.844.859.844 2.265zm-1.422-1.11q-.14-.484-.562-.78-.407-.298-.954-.298-.593 0-1.046.344-.282.203-.516.734zm6.759-4.312h1.406v7.844h-1.406v-.594q-.422.39-.844.562t-.906.172q-1.094 0-1.906-.844-.797-.859-.797-2.109 0-1.312.781-2.156t1.875-.844q.516 0 .953.203.453.188.844.578zm-1.5 3.344q-.656 0-1.094.468-.437.47-.437 1.203 0 .72.437 1.204.453.468 1.094.468.672 0 1.11-.468.453-.47.453-1.22 0-.734-.454-1.187-.437-.468-1.109-.468m4.347-1.157h1.438v2.72q0 .796.11 1.108.109.313.343.485t.594.172.593-.172q.25-.172.375-.5.094-.25.094-1.047v-2.766h1.422v2.391q0 1.484-.234 2.031-.282.672-.844 1.031-.563.344-1.422.344-.922 0-1.5-.406-.578-.422-.812-1.172-.157-.516-.157-1.86zm11.942 1.141-1.188.656q-.328-.36-.656-.484-.328-.14-.765-.14-.797 0-1.297.484-.485.468-.485 1.218 0 .72.47 1.172.483.453 1.25.453.952 0 1.483-.64l1.125.765q-.921 1.172-2.578 1.172-1.484 0-2.343-.875-.844-.89-.844-2.078 0-.812.406-1.5.422-.703 1.156-1.094.735-.406 1.641-.406.844 0 1.516.344.671.328 1.109.953m6.946 2.094h-4.562q.094.61.516.968.437.344 1.109.344.797 0 1.36-.547l1.202.563q-.453.625-1.078.937-.625.297-1.484.297-1.328 0-2.172-.828-.828-.844-.828-2.11 0-1.296.828-2.156.844-.859 2.094-.859 1.344 0 2.172.86.843.859.843 2.265zm-1.421-1.11q-.141-.484-.563-.78-.406-.298-.953-.298-.594 0-1.047.344-.281.203-.516.734zm12.771-2.875-1.015 1.016q-.985-1.031-2.282-1.031-1.125 0-1.89.75-.75.75-.75 1.828 0 1.11.781 1.875.797.765 1.953.765.75 0 1.266-.312.531-.328.843-1h-2.218v-1.36h3.843l.016.313q0 1-.516 1.906-.515.907-1.343 1.375-.828.47-1.953.47-1.188 0-2.125-.517-.922-.515-1.47-1.468-.546-.953-.546-2.063 0-1.531 1-2.656 1.187-1.328 3.11-1.328 1 0 1.859.36.734.312 1.437 1.077m1.403.75h1.219v.703q.187-.421.515-.64t.72-.219q.28 0 .577.156l-.437 1.22q-.25-.126-.407-.126-.328 0-.562.406-.219.407-.219 1.594v2.563h-1.406zm7.924 0h1.406v5.657h-1.406v-.594q-.422.39-.844.562t-.906.172q-1.094 0-1.907-.844-.796-.859-.796-2.109 0-1.312.78-2.156.782-.844 1.876-.844.515 0 .953.203.453.188.844.578zm-1.5 1.157q-.657 0-1.094.468-.438.47-.438 1.203 0 .72.438 1.204.453.468 1.094.468.672 0 1.11-.468.452-.47.452-1.22 0-.734-.453-1.187-.437-.468-1.11-.468m8.535-3.344h1.406v7.844h-1.406v-.594q-.422.39-.844.562t-.906.172q-1.094 0-1.907-.844-.797-.859-.797-2.109 0-1.312.782-2.156.78-.844 1.875-.844.515 0 .953.203.453.188.844.578zm-1.5 3.344q-.657 0-1.094.468-.438.47-.438 1.203 0 .72.438 1.204.453.468 1.094.468.671 0 1.109-.468.453-.47.453-1.22 0-.734-.453-1.187-.438-.468-1.11-.468m7.816-.375-.891.89q-.531-.531-.969-.531-.234 0-.375.11-.125.093-.125.234 0 .125.078.218.094.094.422.266l.516.25q.828.406 1.125.828.312.422.312.985 0 .765-.562 1.265-.547.5-1.469.5-1.234 0-1.984-.969l.875-.953q.25.297.578.485.344.172.61.172.28 0 .452-.125.172-.141.172-.329 0-.328-.625-.64l-.469-.235q-1.375-.687-1.375-1.734 0-.672.516-1.14.516-.485 1.328-.485.547 0 1.031.25.485.234.829.688"/><path fill="#4ea5b7" fill-rule="evenodd" d="M822.047 308.53a3.77 3.77 0 0 1 3.77-3.769h112.398a3.77 3.77 0 0 1 3.77 3.77v15.075a3.77 3.77 0 0 1-3.77 3.77H825.816a3.77 3.77 0 0 1-3.769-3.77z"/><path stroke="#000" stroke-linecap="butt" stroke-linejoin="round" d="M822.047 308.53a3.77 3.77 0 0 1 3.77-3.769h112.398a3.77 3.77 0 0 1 3.77 3.77v15.075a3.77 3.77 0 0 1-3.77 3.77H825.816a3.77 3.77 0 0 1-3.769-3.77z"/><path fill="#fff" d="M840.758 311.29h4.75v1.781h-2.953v1.735h2.953v1.75h-2.953v4.312h-1.797zm9.491 2.313q1 0 1.875.5.89.5 1.39 1.359.5.86.5 1.86t-.5 1.874-1.359 1.375q-.859.485-1.89.485-1.531 0-2.61-1.078-1.078-1.094-1.078-2.641 0-1.656 1.22-2.766 1.077-.968 2.452-.968m.031 1.671q-.828 0-1.375.579-.546.578-.546 1.468 0 .938.53 1.516.548.563 1.391.563.829 0 1.375-.579.563-.578.563-1.5 0-.906-.547-1.468-.547-.579-1.39-.579m4.767-1.484h1.515v.89q.25-.53.656-.796.422-.281.907-.281.343 0 .718.187l-.546 1.531q-.313-.156-.516-.156-.406 0-.703.516-.281.5-.281 1.984l.015.344v2.86h-1.765zm3.887 0h1.735l1.437 4.031 1.531-4.03h1.063l1.5 3.983 1.422-3.984h1.75l-2.578 7.078h-1.125l-1.516-4.031-1.547 4.031h-1.125zm16.676 0h1.781v7.078h-1.781v-.75q-.516.5-1.047.719-.516.219-1.125.219-1.375 0-2.375-1.063-1-1.078-1-2.656 0-1.64.969-2.687.968-1.047 2.343-1.047.641 0 1.204.25.562.234 1.03.718zm-1.86 1.453q-.828 0-1.375.594-.546.578-.546 1.484 0 .922.546 1.516.563.594 1.375.594.844 0 1.391-.578.563-.594.563-1.532 0-.937-.563-1.5-.547-.578-1.39-.578m5.018-1.453h1.515v.89q.25-.53.657-.796.422-.281.906-.281.344 0 .719.187l-.547 1.531q-.313-.156-.516-.156-.406 0-.703.516-.281.5-.281 1.984l.015.344v2.86h-1.765zm9.903-2.734h1.781v9.812h-1.78v-.75q-.517.5-1.048.719-.515.219-1.125.219-1.375 0-2.375-1.063-1-1.078-1-2.656 0-1.64.969-2.687t2.344-1.047q.64 0 1.203.25.562.234 1.031.718zm-1.86 4.187q-.827 0-1.374.594-.547.578-.547 1.484 0 .922.547 1.516.562.594 1.375.594.843 0 1.39-.578.563-.594.563-1.532 0-.937-.563-1.5-.547-.578-1.39-.578m10.919-1.453v.781q.484-.484 1.047-.718.562-.25 1.203-.25 1.375 0 2.344 1.046t.969 2.688q0 1.578-1 2.656-1 1.063-2.375 1.063-.61 0-1.141-.219-.516-.219-1.047-.719v3.344h-1.766v-9.672zm1.875 1.453q-.844 0-1.406.578-.547.563-.547 1.5t.547 1.532q.562.578 1.406.578.813 0 1.36-.594.562-.594.562-1.516 0-.906-.547-1.484-.547-.594-1.375-.594M910 313.79h1.782v7.078H910v-.75q-.515.5-1.046.719-.516.219-1.125.219-1.375 0-2.375-1.063-1-1.078-1-2.656 0-1.64.968-2.687.969-1.047 2.344-1.047.64 0 1.203.25.563.234 1.031.718zm-1.859 1.453q-.828 0-1.375.594-.547.578-.547 1.484 0 .922.547 1.516.563.594 1.375.594.844 0 1.39-.578.563-.594.563-1.532 0-.937-.562-1.5-.547-.578-1.391-.578m9.767-.469-1.109 1.11q-.656-.672-1.203-.672-.313 0-.484.125-.157.125-.157.313 0 .156.11.28.109.11.53.313l.642.328q1.03.516 1.406 1.047.39.516.39 1.219 0 .953-.703 1.594-.687.625-1.843.625-1.547 0-2.47-1.219l1.095-1.187q.312.359.718.593.422.219.75.219.36 0 .563-.172.219-.172.219-.39 0-.407-.766-.797l-.61-.297q-1.718-.875-1.718-2.172 0-.844.64-1.438.657-.593 1.672-.593.688 0 1.297.312.61.297 1.031.86m5.864 0-1.11 1.11q-.656-.672-1.202-.672-.313 0-.485.125-.156.125-.156.313 0 .156.11.28.109.11.53.313l.641.328q1.031.516 1.406 1.047.391.516.391 1.219 0 .953-.703 1.594-.688.625-1.844.625-1.547 0-2.469-1.219l1.094-1.187q.313.359.719.593.422.219.75.219.36 0 .562-.172.22-.172.22-.39 0-.407-.766-.797l-.61-.297q-1.719-.875-1.719-2.172 0-.844.641-1.438.656-.593 1.672-.593.687 0 1.297.312.61.297 1.031.86"/><path fill="#e38a42" fill-rule="evenodd" d="M822.047 339.864a3.77 3.77 0 0 1 3.77-3.77h112.398a3.77 3.77 0 0 1 3.77 3.77v15.076a3.77 3.77 0 0 1-3.77 3.769H825.816a3.77 3.77 0 0 1-3.769-3.77z"/><path stroke="#000" stroke-linecap="butt" stroke-linejoin="round" d="M822.047 339.864a3.77 3.77 0 0 1 3.77-3.77h112.398a3.77 3.77 0 0 1 3.77 3.77v15.076a3.77 3.77 0 0 1-3.77 3.769H825.816a3.77 3.77 0 0 1-3.769-3.77z"/><path fill="#fff" d="M833.926 352.202v-9.579h1.5q1.313 0 1.922.172.86.235 1.36.86.515.61.515 1.453 0 .547-.234 1-.235.437-.75.828.875.406 1.265 1.031.407.61.407 1.438 0 .812-.422 1.484-.407.656-1.063.984-.656.329-1.812.329zm1.828-7.829v2.016h.39q.657 0 .985-.281t.328-.766q0-.453-.312-.703-.297-.266-.922-.266zm0 3.641v2.453h.453q1.125 0 1.516-.281.406-.297.406-.844 0-.61-.468-.969-.47-.359-1.532-.359zm10.935-2.89h1.781v7.078h-1.781v-.75q-.516.5-1.047.718-.516.22-1.125.22-1.375 0-2.375-1.063-1-1.079-1-2.657 0-1.64.969-2.687.968-1.047 2.343-1.047.641 0 1.204.25.562.234 1.03.719zm-1.86 1.453q-.828 0-1.375.593-.546.578-.546 1.485 0 .922.546 1.515.563.594 1.375.594.844 0 1.391-.578.563-.594.563-1.531 0-.938-.563-1.5-.547-.578-1.39-.578m12.362-.032-1.47.828q-.421-.437-.827-.609-.407-.172-.953-.172-1 0-1.625.594-.61.594-.61 1.531 0 .906.594 1.485.594.562 1.562.562 1.188 0 1.86-.812l1.39.953q-1.14 1.484-3.218 1.484-1.86 0-2.922-1.11-1.063-1.109-1.063-2.593 0-1.031.516-1.89.516-.876 1.437-1.36.922-.5 2.063-.5 1.047 0 1.89.422.844.422 1.376 1.187m1.61-4.156h1.78v5.656l2.61-2.922h2.235l-3.047 3.391 3.422 3.688h-2.22l-3-3.266v3.266h-1.78zm6.934 2.734h1.734l1.438 4.032 1.531-4.032h1.063l1.5 3.985 1.422-3.985h1.75l-2.579 7.079h-1.125l-1.515-4.032-1.547 4.032h-1.125zm16.676 0h1.78v7.079h-1.78v-.75q-.516.5-1.047.718-.516.22-1.125.22-1.375 0-2.375-1.063-1-1.079-1-2.657 0-1.64.968-2.687.97-1.047 2.344-1.047.64 0 1.203.25.563.234 1.032.719zm-1.86 1.454q-.828 0-1.375.593-.547.578-.547 1.485 0 .922.547 1.515.563.594 1.375.594.844 0 1.39-.578.563-.594.563-1.531 0-.938-.562-1.5-.547-.578-1.39-.578m5.018-1.454h1.515v.891q.25-.531.656-.797.422-.281.907-.281.343 0 .718.187l-.546 1.532q-.313-.157-.516-.157-.406 0-.703.516-.281.5-.281 1.984l.015.344v2.86h-1.765zm9.903-2.734h1.781v9.813h-1.781v-.75q-.516.5-1.047.718-.516.22-1.125.22-1.375 0-2.375-1.063-1-1.079-1-2.657 0-1.64.969-2.687.968-1.047 2.343-1.047.641 0 1.204.25.562.234 1.03.719zm-1.86 4.188q-.828 0-1.375.593-.546.578-.546 1.485 0 .922.546 1.515.563.594 1.375.594.844 0 1.391-.578.563-.594.563-1.531 0-.938-.563-1.5-.547-.578-1.39-.578m10.919-1.454v.782q.484-.485 1.047-.719.562-.25 1.203-.25 1.375 0 2.344 1.047t.968 2.687q0 1.578-1 2.657-1 1.062-2.375 1.062-.61 0-1.14-.219-.516-.218-1.047-.718v3.343h-1.766v-9.672zm1.875 1.454q-.844 0-1.406.578-.547.562-.547 1.5t.547 1.531q.562.578 1.406.578.812 0 1.36-.594.562-.593.562-1.515 0-.907-.547-1.485-.547-.593-1.375-.593m10.392-1.454h1.781v7.079h-1.78v-.75q-.516.5-1.048.718-.515.22-1.125.22-1.375 0-2.375-1.063-1-1.079-1-2.657 0-1.64.969-2.687t2.344-1.047q.64 0 1.203.25.562.234 1.031.719zm-1.86 1.454q-.827 0-1.374.593-.547.578-.547 1.485 0 .922.547 1.515.562.594 1.375.594.844 0 1.39-.578.563-.594.563-1.531 0-.938-.563-1.5-.546-.578-1.39-.578m9.768-.47-1.11 1.11q-.655-.672-1.202-.672-.313 0-.485.125-.156.125-.156.313 0 .156.11.281.109.11.53.313l.641.328q1.032.515 1.407 1.047.39.515.39 1.218 0 .953-.703 1.594-.687.625-1.844.625-1.547 0-2.468-1.219l1.093-1.187q.313.36.719.594.422.218.75.218.36 0 .563-.172.218-.171.218-.39 0-.406-.765-.797l-.61-.297q-1.718-.875-1.718-2.172 0-.844.64-1.437.656-.594 1.672-.594.688 0 1.297.312.61.297 1.031.86m5.864 0-1.11 1.11q-.656-.672-1.203-.672-.312 0-.484.125-.156.125-.156.313 0 .156.11.281.108.11.53.313l.64.328q1.032.515 1.407 1.047.39.515.39 1.218 0 .953-.702 1.594-.688.625-1.844.625-1.547 0-2.469-1.219l1.094-1.187q.312.36.719.594.422.218.75.218.36 0 .562-.172.219-.171.219-.39 0-.406-.766-.797l-.61-.297q-1.718-.875-1.718-2.172 0-.844.64-1.437.657-.594 1.673-.594.687 0 1.297.312.609.297 1.03.86"/><path fill="#4ea5b7" fill-rule="evenodd" d="M232.368 284.515a5.12 5.12 0 0 1 5.118-5.119h20.472a5.12 5.12 0 0 1 5.118 5.119v31.653a5.12 5.12 0 0 1-5.118 5.118h-20.472a5.12 5.12 0 0 1-5.118-5.118z"/><path stroke="#000" stroke-linecap="butt" stroke-linejoin="round" d="M232.368 284.515a5.12 5.12 0 0 1 5.118-5.119h20.472a5.12 5.12 0 0 1 5.118 5.119v31.653a5.12 5.12 0 0 1-5.118 5.118h-20.472a5.12 5.12 0 0 1-5.118-5.118z"/><path fill="#fff" d="M246.318 298.657h-1.781q.078-1.547.968-2.438.907-.89 2.313-.89.875 0 1.547.375.672.36 1.062 1.062.407.688.407 1.406 0 .844-.485 1.829-.484.984-1.781 2.328l-1.078 1.125h3.422v1.687h-6.641v-.875l2.969-3.015q1.078-1.094 1.422-1.75.359-.657.359-1.188 0-.562-.375-.922-.36-.36-.937-.36-.594 0-.985.438-.39.438-.406 1.188"/><path fill="#e38a42" fill-rule="evenodd" d="M327.356 286.377a6.98 6.98 0 0 1 6.981-6.982h48.084a6.98 6.98 0 0 1 6.982 6.982v27.926a6.98 6.98 0 0 1-6.982 6.982h-48.084a6.98 6.98 0 0 1-6.981-6.982z"/><path stroke="#000" stroke-linecap="butt" stroke-linejoin="round" d="M327.356 286.377a6.98 6.98 0 0 1 6.981-6.982h48.084a6.98 6.98 0 0 1 6.982 6.982v27.926a6.98 6.98 0 0 1-6.982 6.982h-48.084a6.98 6.98 0 0 1-6.981-6.982z"/><path fill="#fff" d="M356.834 295.562h2.735v9.578h-1.813v-7.86h-1.968z"/><path fill="#e38a42" fill-rule="evenodd" d="M390.367 286.377a6.98 6.98 0 0 1 6.982-6.982h48.084a6.98 6.98 0 0 1 6.981 6.982v27.926a6.98 6.98 0 0 1-6.981 6.982h-48.084a6.98 6.98 0 0 1-6.982-6.982z"/><path stroke="#000" stroke-linecap="butt" stroke-linejoin="round" d="M390.367 286.377a6.98 6.98 0 0 1 6.982-6.982h48.084a6.98 6.98 0 0 1 6.981 6.982v27.926a6.98 6.98 0 0 1-6.981 6.982h-48.084a6.98 6.98 0 0 1-6.982-6.982z"/><path fill="#fff" d="M421.362 295.327q1.046 0 1.796.516.766.516 1.172 1.578.422 1.047.422 2.938 0 1.906-.422 2.968t-1.14 1.563q-.703.484-1.782.484-1.078 0-1.812-.5t-1.156-1.515q-.407-1.032-.407-2.907 0-2.64.813-3.828.906-1.297 2.516-1.297m.046 1.735q-.468 0-.828.297-.343.297-.547 1.015-.187.719-.187 2.11 0 1.812.437 2.515.438.688 1.125.688.657 0 1.047-.656.485-.797.485-2.657 0-1.89-.438-2.593-.422-.72-1.094-.72"/><path d="m264.656 225.127-.787 99.213"/><path stroke="#000" stroke-dasharray="12, 9" stroke-linecap="butt" stroke-linejoin="round" stroke-width="3" d="m264.656 225.127-.787 99.213"/><path d="m634.144 220.393-.787 99.212"/><path stroke="#000" stroke-dasharray="12, 9" stroke-linecap="butt" stroke-linejoin="round" stroke-width="3" d="m634.144 220.393-.787 99.212"/><path d="M678.488 205.241v166.11h-42.016v-166.11Z"/><path fill="#000" d="M665.303 252.881q0 2.844-2.063 4.89-2.047 2.048-5.016 2.048-2.937 0-4.968-2.016t-2.032-4.906q0-3.016 2.079-5.016 2.093-1.984 4.968-1.984 1.922 0 3.532.922 1.609.937 2.546 2.562.954 1.625.954 3.5m-2.5-.03q0-1.86-1.297-3.126-1.282-1.266-3.282-1.266-2.218 0-3.515 1.594-1.016 1.25-1.016 2.844 0 1.812 1.313 3.094t3.234 1.281 3.234-1.297q1.329-1.281 1.329-3.125m-1.329 11.558h-1.093q.672.688 1.015 1.469.344.781.344 1.672 0 1.937-1.469 3.297-1.468 1.359-3.765 1.359-2.22 0-3.703-1.406-1.485-1.407-1.485-3.328 0-.844.297-1.594.313-.735 1-1.469h-4.672v-2.469h13.531zm-2.03 2.625q0-1.172-.813-1.953-.797-.781-2.094-.781-1.313 0-2.14.78-.813.782-.813 1.954 0 1.14.828 1.906.844.782 2.125.782 1.266 0 2.078-.766.828-.766.828-1.922m5.687 7.535v2.469h-3.657v1.484h-2.14v-1.484h-7.766v-2.47h7.766v-1.28h2.14v1.28zm.437 6.265q0 .656-.484 1.125-.469.469-1.14.469-.673 0-1.141-.47-.47-.468-.47-1.108 0-.672.47-1.141.484-.469 1.171-.469.657 0 1.125.469.47.469.47 1.125m-4.094-1.25v2.5h-9.906v-2.5zm0 4.723v2.5h-1.14q.703.64 1.047 1.422.36.78.36 1.687 0 .938-.47 1.688-.453.75-1.328 1.203.875.593 1.328 1.453.47.86.47 1.875 0 1.062-.5 1.86-.485.796-1.282 1.14-.797.36-2.578.36h-5.813v-2.5h5.031q1.688 0 2.282-.423.593-.422.593-1.25 0-.64-.375-1.156-.359-.5-1-.75-.64-.234-2.062-.234h-4.469v-2.516h4.797q1.328 0 1.922-.203.61-.188.89-.578.297-.39.297-.953 0-.61-.375-1.125-.359-.5-1.03-.75-.657-.25-2.095-.25h-4.406v-2.5zm4.094 18.535q0 .657-.484 1.125-.469.47-1.14.47-.673 0-1.141-.47-.47-.468-.47-1.109 0-.672.47-1.14.484-.47 1.171-.47.657 0 1.125.47.47.468.47 1.124m-4.094-1.25v2.5h-9.906v-2.5zm0 4.317v7.61l-7.796-4.47v4.22h-2.11v-8.047l7.813 4.484v-3.797zm-5.671 18.94v-7.984q-1.063.172-1.688.922-.61.75-.61 1.922 0 1.39.97 2.39l-.985 2.094q-1.11-.781-1.64-1.875-.532-1.093-.532-2.593 0-2.344 1.469-3.813 1.469-1.453 3.687-1.453 2.266 0 3.766 1.453 1.5 1.469 1.5 3.672 0 2.344-1.5 3.812-1.5 1.47-3.969 1.47zm1.953-2.5q.828-.25 1.343-.968.532-.719.532-1.672 0-1.047-.578-1.828-.375-.5-1.297-.906zm3.718 3.927v2.141h-1.25q.75.344 1.125.906.391.578.391 1.266 0 .484-.266 1.016l-2.14-.782q.219-.437.219-.718 0-.579-.72-.97-.702-.39-2.78-.39h-4.485v-2.469z"/><path d="m677.877 217.217-.787 99.212"/><path stroke="#000" stroke-dasharray="12, 9" stroke-linecap="butt" stroke-linejoin="round" stroke-width="3" d="m677.877 217.217-.787 99.212"/><path d="M649.09 217.588H815.2v42.016H649.09Z"/><path fill="#000" d="M697.515 231.102h6.656v2.5h-4.125v2.422h4.125v2.453h-4.125v6.03h-2.531zm13.298 3.234q1.406 0 2.64.703t1.923 1.906q.703 1.204.703 2.594 0 1.406-.703 2.625-.688 1.219-1.89 1.906-1.204.688-2.657.688-2.125 0-3.64-1.516-1.5-1.515-1.5-3.687 0-2.313 1.702-3.86 1.485-1.359 3.422-1.359m.047 2.344q-1.156 0-1.937.812-.766.797-.766 2.063 0 1.297.75 2.094.766.796 1.938.796t1.937-.812q.781-.813.781-2.078 0-1.281-.765-2.078-.766-.797-1.938-.797m6.661-2.078h2.141v1.25q.344-.75.906-1.125.578-.39 1.266-.39.484 0 1.016.265l-.782 2.14q-.437-.218-.718-.218-.579 0-.97.718-.39.703-.39 2.782v4.484h-2.469zm5.451 0h2.438l1.984 5.64 2.157-5.64h1.484l2.11 5.562 1.984-5.562h2.453l-3.61 9.906h-1.578l-2.125-5.64-2.172 5.64h-1.562zm23.344 0h2.484v9.906h-2.484v-1.047q-.719.688-1.453 1-.735.297-1.594.297-1.922 0-3.328-1.484-1.407-1.485-1.407-3.704 0-2.296 1.36-3.765t3.297-1.469q.89 0 1.672.344.796.344 1.453 1.015zm-2.61 2.03q-1.156 0-1.922.83-.765.812-.765 2.077 0 1.281.781 2.125.781.828 1.906.828 1.188 0 1.953-.812.782-.828.782-2.14 0-1.298-.782-2.095-.765-.812-1.953-.812m7.02-2.03h2.14v1.25q.344-.75.906-1.125.579-.39 1.266-.39.484 0 1.016.265l-.782 2.14q-.437-.218-.718-.218-.578 0-.97.718-.39.703-.39 2.782v4.484h-2.468zm13.872-3.828h2.485v13.734h-2.485v-1.047q-.718.688-1.453 1-.734.297-1.593.297-1.922 0-3.329-1.484-1.406-1.485-1.406-3.704 0-2.296 1.36-3.765 1.359-1.469 3.296-1.469.891 0 1.672.344.797.344 1.453 1.015zm-2.609 5.859q-1.156 0-1.922.828-.765.813-.765 2.078 0 1.281.78 2.125.782.828 1.907.828 1.188 0 1.953-.812.781-.828.781-2.14 0-1.298-.78-2.095-.766-.812-1.954-.812"/><path fill="#4ea5b7" fill-rule="evenodd" d="M679.28 282.108a5.12 5.12 0 0 1 5.119-5.118h20.472a5.12 5.12 0 0 1 5.118 5.118v31.653a5.12 5.12 0 0 1-5.118 5.118h-20.472a5.12 5.12 0 0 1-5.119-5.118z"/><path stroke="#000" stroke-linecap="butt" stroke-linejoin="round" d="M679.28 282.108a5.12 5.12 0 0 1 5.119-5.118h20.472a5.12 5.12 0 0 1 5.118 5.118v31.653a5.12 5.12 0 0 1-5.118 5.118h-20.472a5.12 5.12 0 0 1-5.119-5.118z"/><path fill="#fff" d="M694.606 292.922q1.047 0 1.797.515.765.516 1.171 1.579.422 1.046.422 2.937 0 1.906-.422 2.969-.421 1.062-1.14 1.562-.703.485-1.781.485-1.079 0-1.813-.5t-1.156-1.516q-.406-1.031-.406-2.906 0-2.64.812-3.828.906-1.297 2.516-1.297m.047 1.734q-.47 0-.829.297-.343.297-.546 1.016-.188.719-.188 2.11 0 1.812.438 2.515.437.687 1.125.687.656 0 1.046-.656.485-.797.485-2.656 0-1.89-.438-2.594-.422-.719-1.093-.719"/><path d="M708.945 288.15h30.709v19.401h-30.71Z"/><path fill="#000" d="M725.945 301.275q.5 0 .86.36.359.359.359.859 0 .516-.36.875-.36.36-.86.36-.515 0-.874-.36-.344-.36-.344-.875 0-.5.344-.86.36-.359.875-.359m-5.328 0q.5 0 .86.36.359.359.359.859 0 .516-.36.875-.36.36-.86.36-.515 0-.874-.36-.36-.36-.36-.875 0-.5.36-.86.36-.359.875-.359m10.656 0q.516 0 .875.36.36.359.36.859 0 .516-.36.875-.36.36-.875.36-.5 0-.86-.36-.359-.36-.359-.875 0-.5.36-.86.359-.359.859-.359"/></g></svg>