<svg xmlns="http://www.w3.org/2000/svg" xmlns:xlink="http://www.w3.org/1999/xlink" width="1136.487" height="368.267" viewBox="0 0 852.365 276.2"><defs><style>*{stroke-linejoin:round;stroke-linecap:butt}</style></defs><g id="figure_1"><path id="patch_1" d="M0 276.2h852.365V0H0z" style="fill:#fff"/><g id="axes_1"><path id="patch_2" d="M55.465 237.65h368.89V23.77H55.465z" style="fill:#fff"/><g id="matplotlib.axis_1"><g id="xtick_1"><path id="line2d_1" d="M92.825 237.65V23.77" clip-path="url(#p7aead071cb)" style="fill:none;stroke-dasharray:2.96,1.28;stroke-dashoffset:0;stroke:#b0b0b0;stroke-opacity:.7;stroke-width:.8"/><g id="line2d_2"><defs><path id="m9e1d62e5ef" d="M0 0v3.5" style="stroke:#000;stroke-width:.8"/></defs><use xlink:href="#m9e1d62e5ef" x="92.825" y="237.65" style="stroke:#000;stroke-width:.8"/></g><g id="text_1" transform="matrix(.1 0 0 -.1 90.354 251.991)"><defs><path id="GuardianSansCond-Regular-38" d="M1581-64c864 0 1350 531 1350 1203 0 621-339 935-825 1191 384 211 716 569 716 1094 0 653-428 1075-1216 1075-787 0-1222-486-1222-1101 0-550 294-889 685-1113-467-231-839-602-839-1203C230 384 710-64 1581-64m6 454c-505 0-819 288-819 736 0 455 269 768 646 954 615-288 973-506 973-998 0-468-333-692-800-692m167 2132c-544 256-826 499-826 908 0 391 243 621 678 621 461 0 679-269 679-653 0-390-186-633-531-876" transform="scale(.01563)"/></defs><use xlink:href="#GuardianSansCond-Regular-38"/></g></g><g id="xtick_2"><path id="line2d_3" d="M151.659 237.65V23.77" clip-path="url(#p7aead071cb)" style="fill:none;stroke-dasharray:2.96,1.28;stroke-dashoffset:0;stroke:#b0b0b0;stroke-opacity:.7;stroke-width:.8"/><use xlink:href="#m9e1d62e5ef" id="line2d_4" x="151.659" y="237.65" style="stroke:#000;stroke-width:.8"/><g id="text_2" transform="matrix(.1 0 0 -.1 147.774 251.991)"><defs><path id="GuardianSansCond-Regular-31" d="M832 0h531v4474h-192L141 4083v-307l691 70z" transform="scale(.01563)"/><path id="GuardianSansCond-Regular-36" d="M1632 384c-550 0-787 531-787 1453v217c147 96 409 224 749 224 492 0 729-294 729-921 0-615-237-973-691-973m0-454c806 0 1254 614 1254 1478 0 826-396 1338-1132 1338-391 0-698-135-909-301 32 1408 595 1593 1184 1593 262 0 525-64 659-108v422c-141 90-416 147-730 147-915 0-1683-518-1683-2291v-365C275 691 717-70 1632-70" transform="scale(.01563)"/></defs><use xlink:href="#GuardianSansCond-Regular-31"/><use xlink:href="#GuardianSansCond-Regular-36" x="28.8"/></g></g><g id="xtick_3"><path id="line2d_5" d="M210.493 237.65V23.77" clip-path="url(#p7aead071cb)" style="fill:none;stroke-dasharray:2.96,1.28;stroke-dashoffset:0;stroke:#b0b0b0;stroke-opacity:.7;stroke-width:.8"/><use xlink:href="#m9e1d62e5ef" id="line2d_6" x="210.493" y="237.65" style="stroke:#000;stroke-width:.8"/><g id="text_3" transform="matrix(.1 0 0 -.1 206.258 251.991)"><defs><path id="GuardianSansCond-Regular-33" d="M1094-64c826 0 1338 480 1338 1312 0 691-320 1005-826 1114v19c436 134 704 422 704 1024 0 691-428 1094-1152 1094-371 0-672-70-883-179v-429c186 77 403 147 723 147 480 0 756-172 756-736 0-505-276-755-736-755H717v-461h339c544 0 813-249 813-819 0-621-352-864-922-864-301 0-589 90-800 205V166C358 32 640-64 1094-64" transform="scale(.01563)"/><path id="GuardianSansCond-Regular-32" d="M173 0h2297v461H800v19l774 941c493 614 845 1107 845 1843 0 762-390 1235-1197 1235-416 0-723-89-953-217v-429c198 96 461 179 787 179 563 0 794-282 794-819 0-583-308-1024-698-1543L173 397z" transform="scale(.01563)"/></defs><use xlink:href="#GuardianSansCond-Regular-33"/><use xlink:href="#GuardianSansCond-Regular-32" x="42.2"/></g></g><g id="xtick_4"><path id="line2d_7" d="M269.327 237.65V23.77" clip-path="url(#p7aead071cb)" style="fill:none;stroke-dasharray:2.96,1.28;stroke-dashoffset:0;stroke:#b0b0b0;stroke-opacity:.7;stroke-width:.8"/><use xlink:href="#m9e1d62e5ef" id="line2d_8" x="269.327" y="237.65" style="stroke:#000;stroke-width:.8"/><g id="text_4" transform="matrix(.1 0 0 -.1 264.511 251.991)"><defs><path id="GuardianSansCond-Regular-34" d="M1805 0h525v1107h627v455h-627v2873h-461L70 1504v-397h1735zM608 1562v19l1171 1894h26V1562z" transform="scale(.01563)"/></defs><use xlink:href="#GuardianSansCond-Regular-36"/><use xlink:href="#GuardianSansCond-Regular-34" x="48.9"/></g></g><g id="xtick_5"><path id="line2d_9" d="M328.161 237.65V23.77" clip-path="url(#p7aead071cb)" style="fill:none;stroke-dasharray:2.96,1.28;stroke-dashoffset:0;stroke:#b0b0b0;stroke-opacity:.7;stroke-width:.8"/><use xlink:href="#m9e1d62e5ef" id="line2d_10" x="328.161" y="237.65" style="stroke:#000;stroke-width:.8"/><g id="text_5" transform="matrix(.1 0 0 -.1 322.126 251.991)"><use xlink:href="#GuardianSansCond-Regular-31"/><use xlink:href="#GuardianSansCond-Regular-32" x="28.8"/><use xlink:href="#GuardianSansCond-Regular-38" x="71.3"/></g></g><g id="xtick_6"><path id="line2d_11" d="M386.995 237.65V23.77" clip-path="url(#p7aead071cb)" style="fill:none;stroke-dasharray:2.96,1.28;stroke-dashoffset:0;stroke:#b0b0b0;stroke-opacity:.7;stroke-width:.8"/><use xlink:href="#m9e1d62e5ef" id="line2d_12" x="386.995" y="237.65" style="stroke:#000;stroke-width:.8"/><g id="text_6" transform="matrix(.1 0 0 -.1 380.32 251.991)"><defs><path id="GuardianSansCond-Regular-35" d="M1094-64c877 0 1351 576 1351 1427 0 935-448 1344-1280 1344-154 0-275-13-371-32l83 1299h1465v461H429L294 2170c173 38 416 76 672 76 621 0 909-256 909-883 0-646-288-966-921-966-327 0-589 77-800 185V147C352 26 672-64 1094-64" transform="scale(.01563)"/></defs><use xlink:href="#GuardianSansCond-Regular-32"/><use xlink:href="#GuardianSansCond-Regular-35" x="42.5"/><use xlink:href="#GuardianSansCond-Regular-36" x="84.6"/></g></g><g id="text_7" transform="matrix(.12 0 0 -.12 195.744 266.71)"><defs><path id="GuardianSansCond-Regular-44" d="M416 0h1082c1216 0 1772 813 1772 2163v237c0 1402-633 2035-1779 2035H416zm538 461v3513h492c788 0 1248-371 1248-1574v-326c0-1133-371-1613-1184-1613z" transform="scale(.01563)"/><path id="GuardianSansCond-Regular-61" d="M1082-51c313 0 556 128 697 281h32l51-230h429v2413c0 614-333 921-998 921-378 0-659-76-883-179v-384c166 58 396 115 684 115 506 0 672-147 672-608v-320l-678-102c-608-90-928-390-928-973 0-633 365-934 922-934m140 409c-345 0-518 186-518 557 0 359 173 525 538 570l524 64V525c-108-90-307-167-544-167" transform="scale(.01563)"/><path id="GuardianSansCond-Regular-74" d="M1222-38c244 0 397 64 500 128v352c-90-26-205-52-340-52-275 0-377 90-377 391v2067h678v435h-678v768H486v-768H96v-435h390V710c0-550 288-748 736-748" transform="scale(.01563)"/><path id="GuardianSansCond-Regular-50" d="M416 0h538v1766h601c807 0 1299 480 1299 1351 0 909-441 1318-1318 1318H416zm538 2221v1753h524c583 0 807-224 807-876 0-602-231-877-813-877z" transform="scale(.01563)"/><path id="GuardianSansCond-Regular-72" d="M346 0h524v2605c192 147 436 237 717 237 51 0 141-7 199-13v473c-39 13-109 26-180 26-300 0-576-186-736-390h-25v345H346z" transform="scale(.01563)"/><path id="GuardianSansCond-Regular-6c" d="M358 0h519v4698H358z" transform="scale(.01563)"/><path id="GuardianSansCond-Regular-65" d="M1555-51c429 0 762 153 915 294v384c-230-128-505-230-857-230-576 0-871 301-890 1069h1831v332c0 1095-378 1536-1152 1536-743 0-1216-524-1216-1612v-173C186 499 634-51 1555-51m-173 2957c448 0 628-295 628-1012H723c13 736 269 1012 659 1012" transform="scale(.01563)"/><path id="GuardianSansCond-Regular-69" d="M358 0h525v3283H358zm-6 3910h531v564H352z" transform="scale(.01563)"/><path id="GuardianSansCond-Regular-73" d="M992-51c666 0 1062 358 1062 998 0 538-236 762-748 941l-256 90c-282 96-391 217-391 473 0 320 205 442 563 442 295 0 538-83 692-154v429c-141 83-346 166-717 166-666 0-1037-352-1037-928 0-505 262-748 666-889l256-90c326-115 454-243 454-531 0-314-166-506-602-506-352 0-576 90-780 173V141C358 19 640-51 992-51" transform="scale(.01563)"/><path id="GuardianSansCond-Regular-6d" d="M346 0h524v2688c180 102 397 198 653 198 333 0 448-128 448-422V0h519v2688c192 109 422 198 646 198 352 0 454-140 454-422V0h525v2528c0 576-294 806-768 806-352 0-659-147-928-339h-25c-128 231-333 339-672 339-327 0-634-153-852-313h-25v262H346z" transform="scale(.01563)"/><path id="GuardianSansCond-Regular-28" d="M1318-768h442C1267-166 826 877 826 1869v217c0 1031 441 2016 934 2612h-442C800 4160 275 3187 275 2029v-147C275 723 800-237 1318-768" transform="scale(.01563)"/><path id="GuardianSansCond-Regular-29" d="M32-768h448C992-237 1517 717 1517 1882v147c0 1152-525 2131-1037 2669H32c499-602 941-1645 941-2663v-217C973 813 531-166 32-768" transform="scale(.01563)"/></defs><use xlink:href="#GuardianSansCond-Regular-44"/><use xlink:href="#GuardianSansCond-Regular-61" x="54.6"/><use xlink:href="#GuardianSansCond-Regular-74" x="95.5"/><use xlink:href="#GuardianSansCond-Regular-61" x="124.5"/><use xlink:href="#GuardianSansCond-Regular-50" x="181.2"/><use xlink:href="#GuardianSansCond-Regular-61" x="228.2"/><use xlink:href="#GuardianSansCond-Regular-72" x="269.1"/><use xlink:href="#GuardianSansCond-Regular-61" x="297.9"/><use xlink:href="#GuardianSansCond-Regular-6c" x="338.8"/><use xlink:href="#GuardianSansCond-Regular-6c" x="358.1"/><use xlink:href="#GuardianSansCond-Regular-65" x="377.4"/><use xlink:href="#GuardianSansCond-Regular-6c" x="420.1"/><use xlink:href="#GuardianSansCond-Regular-69" x="439.4"/><use xlink:href="#GuardianSansCond-Regular-73" x="458.7"/><use xlink:href="#GuardianSansCond-Regular-6d" x="493.2"/><use xlink:href="#GuardianSansCond-Regular-28" x="578.5"/><use xlink:href="#GuardianSansCond-Regular-44" x="606.5"/><use xlink:href="#GuardianSansCond-Regular-50" x="661.1"/><use xlink:href="#GuardianSansCond-Regular-29" x="708.1"/></g></g><g id="matplotlib.axis_2"><g id="ytick_1"><path id="line2d_13" d="M55.465 237.65h368.89" clip-path="url(#p7aead071cb)" style="fill:none;stroke-dasharray:2.96,1.28;stroke-dashoffset:0;stroke:#b0b0b0;stroke-opacity:.7;stroke-width:.8"/><g id="line2d_14"><defs><path id="m3422bdeb13" d="M0 0h-3.5" style="stroke:#000;stroke-width:.8"/></defs><use xlink:href="#m3422bdeb13" x="55.465" y="237.65" style="stroke:#000;stroke-width:.8"/></g><g id="text_8" transform="matrix(.1 0 0 -.1 43.115 241.32)"><defs><path id="GuardianSansCond-Regular-30" d="M1722-70c934 0 1433 716 1433 2131v345c0 1485-557 2093-1440 2093-896 0-1446-665-1446-2131v-326C269 499 845-70 1722-70m6 454c-659 0-883 595-883 1632v474c0 1004 243 1561 864 1561 627 0 883-537 883-1593v-480c0-1044-218-1594-864-1594" transform="scale(.01563)"/></defs><use xlink:href="#GuardianSansCond-Regular-30"/></g></g><g id="ytick_2"><path id="line2d_15" d="M55.465 212.284h368.89" clip-path="url(#p7aead071cb)" style="fill:none;stroke-dasharray:2.96,1.28;stroke-dashoffset:0;stroke:#b0b0b0;stroke-opacity:.7;stroke-width:.8"/><use xlink:href="#m3422bdeb13" id="line2d_16" x="55.465" y="212.284" style="stroke:#000;stroke-width:.8"/><g id="text_9" transform="matrix(.1 0 0 -.1 28.206 215.954)"><use xlink:href="#GuardianSansCond-Regular-35"/><use xlink:href="#GuardianSansCond-Regular-30" x="42.1"/><use xlink:href="#GuardianSansCond-Regular-30" x="95.6"/><use xlink:href="#GuardianSansCond-Regular-30" x="149.1"/></g></g><g id="ytick_3"><path id="line2d_17" d="M55.465 186.917h368.89" clip-path="url(#p7aead071cb)" style="fill:none;stroke-dasharray:2.96,1.28;stroke-dashoffset:0;stroke:#b0b0b0;stroke-opacity:.7;stroke-width:.8"/><use xlink:href="#m3422bdeb13" id="line2d_18" x="55.465" y="186.917" style="stroke:#000;stroke-width:.8"/><g id="text_10" transform="matrix(.1 0 0 -.1 24.185 190.587)"><use xlink:href="#GuardianSansCond-Regular-31"/><use xlink:href="#GuardianSansCond-Regular-30" x="28.8"/><use xlink:href="#GuardianSansCond-Regular-30" x="82.3"/><use xlink:href="#GuardianSansCond-Regular-30" x="135.8"/><use xlink:href="#GuardianSansCond-Regular-30" x="189.3"/></g></g><g id="ytick_4"><path id="line2d_19" d="M55.465 161.55h368.89" clip-path="url(#p7aead071cb)" style="fill:none;stroke-dasharray:2.96,1.28;stroke-dashoffset:0;stroke:#b0b0b0;stroke-opacity:.7;stroke-width:.8"/><use xlink:href="#m3422bdeb13" id="line2d_20" x="55.465" y="161.55" style="stroke:#000;stroke-width:.8"/><g id="text_11" transform="matrix(.1 0 0 -.1 25.326 165.22)"><use xlink:href="#GuardianSansCond-Regular-31"/><use xlink:href="#GuardianSansCond-Regular-35" x="28.8"/><use xlink:href="#GuardianSansCond-Regular-30" x="70.9"/><use xlink:href="#GuardianSansCond-Regular-30" x="124.4"/><use xlink:href="#GuardianSansCond-Regular-30" x="177.9"/></g></g><g id="ytick_5"><path id="line2d_21" d="M55.465 136.183h368.89" clip-path="url(#p7aead071cb)" style="fill:none;stroke-dasharray:2.96,1.28;stroke-dashoffset:0;stroke:#b0b0b0;stroke-opacity:.7;stroke-width:.8"/><use xlink:href="#m3422bdeb13" id="line2d_22" x="55.465" y="136.183" style="stroke:#000;stroke-width:.8"/><g id="text_12" transform="matrix(.1 0 0 -.1 22.815 139.854)"><use xlink:href="#GuardianSansCond-Regular-32"/><use xlink:href="#GuardianSansCond-Regular-30" x="42.5"/><use xlink:href="#GuardianSansCond-Regular-30" x="96"/><use xlink:href="#GuardianSansCond-Regular-30" x="149.5"/><use xlink:href="#GuardianSansCond-Regular-30" x="203"/></g></g><g id="ytick_6"><path id="line2d_23" d="M55.465 110.816h368.89" clip-path="url(#p7aead071cb)" style="fill:none;stroke-dasharray:2.96,1.28;stroke-dashoffset:0;stroke:#b0b0b0;stroke-opacity:.7;stroke-width:.8"/><use xlink:href="#m3422bdeb13" id="line2d_24" x="55.465" y="110.816" style="stroke:#000;stroke-width:.8"/><g id="text_13" transform="matrix(.1 0 0 -.1 23.956 114.487)"><use xlink:href="#GuardianSansCond-Regular-32"/><use xlink:href="#GuardianSansCond-Regular-35" x="42.5"/><use xlink:href="#GuardianSansCond-Regular-30" x="84.6"/><use xlink:href="#GuardianSansCond-Regular-30" x="138.1"/><use xlink:href="#GuardianSansCond-Regular-30" x="191.6"/></g></g><g id="ytick_7"><path id="line2d_25" d="M55.465 85.45h368.89" clip-path="url(#p7aead071cb)" style="fill:none;stroke-dasharray:2.96,1.28;stroke-dashoffset:0;stroke:#b0b0b0;stroke-opacity:.7;stroke-width:.8"/><use xlink:href="#m3422bdeb13" id="line2d_26" x="55.465" y="85.45" style="stroke:#000;stroke-width:.8"/><g id="text_14" transform="matrix(.1 0 0 -.1 22.845 89.12)"><use xlink:href="#GuardianSansCond-Regular-33"/><use xlink:href="#GuardianSansCond-Regular-30" x="42.2"/><use xlink:href="#GuardianSansCond-Regular-30" x="95.7"/><use xlink:href="#GuardianSansCond-Regular-30" x="149.2"/><use xlink:href="#GuardianSansCond-Regular-30" x="202.7"/></g></g><g id="ytick_8"><path id="line2d_27" d="M55.465 60.083h368.89" clip-path="url(#p7aead071cb)" style="fill:none;stroke-dasharray:2.96,1.28;stroke-dashoffset:0;stroke:#b0b0b0;stroke-opacity:.7;stroke-width:.8"/><use xlink:href="#m3422bdeb13" id="line2d_28" x="55.465" y="60.083" style="stroke:#000;stroke-width:.8"/><g id="text_15" transform="matrix(.1 0 0 -.1 23.985 63.753)"><use xlink:href="#GuardianSansCond-Regular-33"/><use xlink:href="#GuardianSansCond-Regular-35" x="42.2"/><use xlink:href="#GuardianSansCond-Regular-30" x="84.3"/><use xlink:href="#GuardianSansCond-Regular-30" x="137.8"/><use xlink:href="#GuardianSansCond-Regular-30" x="191.3"/></g></g><g id="ytick_9"><path id="line2d_29" d="M55.465 34.716h368.89" clip-path="url(#p7aead071cb)" style="fill:none;stroke-dasharray:2.96,1.28;stroke-dashoffset:0;stroke:#b0b0b0;stroke-opacity:.7;stroke-width:.8"/><use xlink:href="#m3422bdeb13" id="line2d_30" x="55.465" y="34.716" style="stroke:#000;stroke-width:.8"/><g id="text_16" transform="matrix(.1 0 0 -.1 22.324 38.386)"><use xlink:href="#GuardianSansCond-Regular-34"/><use xlink:href="#GuardianSansCond-Regular-30" x="47.4"/><use xlink:href="#GuardianSansCond-Regular-30" x="100.9"/><use xlink:href="#GuardianSansCond-Regular-30" x="154.4"/><use xlink:href="#GuardianSansCond-Regular-30" x="207.9"/></g></g><g id="text_17" transform="matrix(0 -.12 -.12 0 16.009 194.399)"><defs><path id="GuardianSansCond-Regular-54" d="M1152 0h538v3974h1056v461H90v-461h1062z" transform="scale(.01563)"/><path id="GuardianSansCond-Regular-68" d="M346 0h524v2688c167 90 436 198 717 198 378 0 506-121 506-428V0h518v2528c0 557-275 806-806 806-365 0-679-134-909-300h-26v1664H346z" transform="scale(.01563)"/><path id="GuardianSansCond-Regular-6f" d="M1459-51c813 0 1274 621 1274 1593v205c0 1024-442 1587-1274 1587-800 0-1273-620-1273-1593v-211C186 531 614-51 1459-51m7 429c-474 0-743 384-743 1094v346c0 633 224 1088 730 1088 467 0 742-346 742-1101v-339c0-640-237-1088-729-1088" transform="scale(.01563)"/><path id="GuardianSansCond-Regular-75" d="M1158-51c365 0 666 160 884 313h25l51-262h448v3283h-524V602c-154-90-416-205-692-205-403 0-492 160-492 441v2445H333V826c0-525 243-877 825-877" transform="scale(.01563)"/><path id="GuardianSansCond-Regular-67" d="M1325-1235c915 0 1350 448 1350 1056 0 595-339 883-979 883h-627c-211 0-295 102-295 262 0 103 52 212 116 276 128-45 281-64 441-64 608 0 1082 352 1082 1030v96c0 256-77 435-179 570h448v409h-935c-121 32-262 51-422 51-621 0-1075-390-1075-1056v-96c0-396 179-672 384-806-212-166-340-352-340-589 0-243 148-384 333-454v-26C320 192 64-38 64-422c0-493 442-813 1261-813m-13 416c-480 0-717 179-717 493 0 275 167 467 371 544h666c390 0 518-173 518-455 0-365-224-582-838-582m19 2400c-333 0-569 192-569 608v134c0 403 211 608 569 608 339 0 570-185 570-621v-134c0-397-218-595-570-595" transform="scale(.01563)"/><path id="GuardianSansCond-Regular-70" d="M346-1222h524V128c135-90 372-179 672-179 832 0 1242 576 1242 1651v218c0 1094-442 1516-1114 1516-352 0-640-147-800-300h-25v249H346zM1466 378c-256 0-493 83-596 160v2150c122 96 359 205 653 205 512 0 723-320 723-1095v-249c0-807-243-1171-780-1171" transform="scale(.01563)"/><path id="GuardianSansCond-Regular-6b" d="M870 4698H346V0h524zm103-3002L1984 0h608L1549 1741l966 1542h-576z" transform="scale(.01563)"/><path id="GuardianSansCond-Regular-6e" d="M346 0h524v2688c167 90 436 198 717 198 378 0 506-121 506-428V0h518v2528c0 557-269 806-800 806-371 0-704-140-941-313h-25v262H346z" transform="scale(.01563)"/><path id="GuardianSansCond-Regular-2f" d="M13-768h461l1312 5466h-461z" transform="scale(.01563)"/><path id="GuardianSansCond-Regular-63" d="M1498-51c371 0 627 102 800 224v422c-135-77-391-205-743-205-550 0-832 314-832 1152v256c0 666 218 1095 787 1095 346 0 544-90 749-179v435c-166 109-384 185-717 185-774 0-1356-448-1356-1593v-205C186 416 685-51 1498-51" transform="scale(.01563)"/><path id="GuardianSansCond-Regular-47" d="M1933-64c518 0 909 115 1165 230v2068H1837v-455h729V486c-134-51-358-89-588-89-922 0-1172 614-1172 1702v307c0 992 282 1632 1184 1632 448 0 724-108 954-217v454c-186 115-467 224-922 224-1113 0-1785-646-1785-2157v-243C237 493 864-64 1933-64" transform="scale(.01563)"/><path id="GuardianSansCond-Regular-55" d="M1760-70c922 0 1350 480 1350 1414v3091h-512V1395c0-736-230-1011-812-1011-589 0-852 282-852 1005v3046H397V1325C397 429 832-70 1760-70" transform="scale(.01563)"/></defs><use xlink:href="#GuardianSansCond-Regular-54"/><use xlink:href="#GuardianSansCond-Regular-68" x="44.5"/><use xlink:href="#GuardianSansCond-Regular-72" x="90.6"/><use xlink:href="#GuardianSansCond-Regular-6f" x="119.4"/><use xlink:href="#GuardianSansCond-Regular-75" x="165"/><use xlink:href="#GuardianSansCond-Regular-67" x="210.5"/><use xlink:href="#GuardianSansCond-Regular-68" x="253.2"/><use xlink:href="#GuardianSansCond-Regular-70" x="299.3"/><use xlink:href="#GuardianSansCond-Regular-75" x="345.9"/><use xlink:href="#GuardianSansCond-Regular-74" x="391.4"/><use xlink:href="#GuardianSansCond-Regular-28" x="436.2"/><use xlink:href="#GuardianSansCond-Regular-74" x="464.2"/><use xlink:href="#GuardianSansCond-Regular-6f" x="493.2"/><use xlink:href="#GuardianSansCond-Regular-6b" x="538.8"/><use xlink:href="#GuardianSansCond-Regular-65" x="580.3"/><use xlink:href="#GuardianSansCond-Regular-6e" x="623"/><use xlink:href="#GuardianSansCond-Regular-73" x="669.1"/><use xlink:href="#GuardianSansCond-Regular-2f" x="703.6"/><use xlink:href="#GuardianSansCond-Regular-73" x="733.5"/><use xlink:href="#GuardianSansCond-Regular-65" x="768"/><use xlink:href="#GuardianSansCond-Regular-63" x="810.7"/><use xlink:href="#GuardianSansCond-Regular-2f" x="848.5"/><use xlink:href="#GuardianSansCond-Regular-47" x="878.4"/><use xlink:href="#GuardianSansCond-Regular-50" x="931.7"/><use xlink:href="#GuardianSansCond-Regular-55" x="978.7"/><use xlink:href="#GuardianSansCond-Regular-29" x="1033.5"/></g></g><path id="patch_3" d="M55.465 237.65V23.77" style="fill:none;stroke:#000;stroke-width:.8;stroke-linejoin:miter;stroke-linecap:square"/><path id="patch_4" d="M424.355 237.65V23.77" style="fill:none;stroke:#000;stroke-width:.8;stroke-linejoin:miter;stroke-linecap:square"/><path id="patch_5" d="M55.465 237.65h368.89" style="fill:none;stroke:#000;stroke-width:.8;stroke-linejoin:miter;stroke-linecap:square"/><path id="patch_6" d="M55.465 23.77h368.89" style="fill:none;stroke:#000;stroke-width:.8;stroke-linejoin:miter;stroke-linecap:square"/><path id="patch_7" d="M72.233 237.65h41.184V33.956H72.233z" clip-path="url(#p7aead071cb)" style="fill:#4ea5b7"/><path id="patch_8" d="M131.067 237.65h41.184V46.844h-41.184z" clip-path="url(#p7aead071cb)" style="fill:#4ea5b7"/><path id="patch_9" d="M189.901 237.65h41.184V58.219H189.9z" clip-path="url(#p7aead071cb)" style="fill:#4ea5b7"/><path id="patch_10" d="M248.735 237.65h41.184V79.808h-41.184z" clip-path="url(#p7aead071cb)" style="fill:#4ea5b7"/><path id="patch_11" d="M307.57 237.65h41.183V103.479H307.57z" clip-path="url(#p7aead071cb)" style="fill:#4ea5b7"/><path id="patch_12" d="M366.403 237.65h41.184v-79.653h-41.184z" clip-path="url(#p7aead071cb)" style="fill:#4ea5b7"/><path id="patch_13" d="M149.085 46.843h5.148V33.955h-5.148z" clip-path="url(#p7aead071cb)" style="fill:#e889ab"/><g id="text_18" style="fill:#e889ab" transform="matrix(.12 0 0 -.12 156.625 43.658)"><defs><path id="GuardianSansCond-Regular-2d" d="M333 1536h1075v454H333z" transform="scale(.01563)"/><path id="GuardianSansCond-Regular-2e" d="M397 0h589v621H397z" transform="scale(.01563)"/><path id="GuardianSansCond-Regular-25" d="M755-256h455l2560 4819h-461zm327 2432c595 0 902 461 902 1139v96c0 698-320 1088-909 1088-582 0-902-435-902-1107v-102c0-730 320-1114 909-1114m6 371c-294 0-448 192-448 717v173c0 505 160 697 442 697 275 0 435-198 435-704v-172c0-519-141-711-429-711M3501-58c589 0 902 461 902 1140v96c0 697-320 1088-909 1088-582 0-902-436-902-1108v-102c0-730 320-1114 909-1114m6 365c-294 0-448 199-448 723v173c0 506 160 698 442 698 275 0 435-199 435-704v-173c0-518-141-717-429-717" transform="scale(.01563)"/></defs><use xlink:href="#GuardianSansCond-Regular-2d"/><use xlink:href="#GuardianSansCond-Regular-36" x="27.2"/><use xlink:href="#GuardianSansCond-Regular-2e" x="76.1"/><use xlink:href="#GuardianSansCond-Regular-33" x="97.7"/><use xlink:href="#GuardianSansCond-Regular-25" x="139.9"/></g><path id="patch_14" d="M207.919 58.218h5.148V46.843h-5.148z" clip-path="url(#p7aead071cb)" style="fill:#e889ab"/><g id="text_19" style="fill:#e889ab" transform="matrix(.12 0 0 -.12 214.781 55.79)"><use xlink:href="#GuardianSansCond-Regular-2d"/><use xlink:href="#GuardianSansCond-Regular-36" x="27.2"/><use xlink:href="#GuardianSansCond-Regular-2e" x="76.1"/><use xlink:href="#GuardianSansCond-Regular-30" x="97.7"/><use xlink:href="#GuardianSansCond-Regular-25" x="151.2"/></g><path id="patch_15" d="M266.753 79.807h5.148v-21.59h-5.148z" clip-path="url(#p7aead071cb)" style="fill:#e889ab"/><g id="text_20" style="fill:#e889ab" transform="matrix(.12 0 0 -.12 272.272 72.271)"><use xlink:href="#GuardianSansCond-Regular-2d"/><use xlink:href="#GuardianSansCond-Regular-31" x="27.2"/><use xlink:href="#GuardianSansCond-Regular-32" x="56"/><use xlink:href="#GuardianSansCond-Regular-2e" x="98.5"/><use xlink:href="#GuardianSansCond-Regular-30" x="120.1"/><use xlink:href="#GuardianSansCond-Regular-25" x="173.6"/></g><path id="patch_16" d="M325.587 103.478h5.148V79.807h-5.148z" clip-path="url(#p7aead071cb)" style="fill:#e889ab"/><g id="text_21" style="fill:#e889ab" transform="matrix(.12 0 0 -.12 331.13 94.901)"><use xlink:href="#GuardianSansCond-Regular-2d"/><use xlink:href="#GuardianSansCond-Regular-31" x="27.2"/><use xlink:href="#GuardianSansCond-Regular-35" x="56"/><use xlink:href="#GuardianSansCond-Regular-2e" x="98.1"/><use xlink:href="#GuardianSansCond-Regular-30" x="119.7"/><use xlink:href="#GuardianSansCond-Regular-25" x="173.2"/></g><path id="patch_17" d="M384.421 157.997h5.148v-54.519h-5.148z" clip-path="url(#p7aead071cb)" style="fill:#e889ab"/><g id="text_22" style="fill:#e889ab" transform="matrix(.12 0 0 -.12 388.439 133.996)"><use xlink:href="#GuardianSansCond-Regular-2d"/><use xlink:href="#GuardianSansCond-Regular-34" x="27.2"/><use xlink:href="#GuardianSansCond-Regular-30" x="74.6"/><use xlink:href="#GuardianSansCond-Regular-2e" x="128.1"/><use xlink:href="#GuardianSansCond-Regular-36" x="149.7"/><use xlink:href="#GuardianSansCond-Regular-25" x="198.6"/></g><g id="text_23" transform="matrix(.144 0 0 -.144 136.564 17.77)"><defs><path id="GuardianSansCond-Regular-53" d="M1184-70c954 0 1325 569 1325 1318 0 781-397 1011-947 1254l-320 141c-384 167-512 327-512 717 0 448 256 678 729 678 384 0 685-102 877-198v461c-179 96-422 198-870 198-813 0-1268-441-1268-1177 0-685 346-973 826-1184l320-141c416-186 614-320 614-800 0-538-256-800-812-800-352 0-704 115-980 249V186C390 51 723-70 1184-70" transform="scale(.01563)"/><path id="GuardianSansCond-Regular-77" d="M858 0h544l416 1696c102 403 166 730 166 730h19s71-333 167-730L2586 0h550l762 3283h-500l-396-1939c-71-378-128-640-128-640h-20s-51 250-147 646l-454 1933h-480l-448-1933c-83-371-147-646-147-646h-20s-51 269-128 646L627 3283H83z" transform="scale(.01563)"/></defs><use xlink:href="#GuardianSansCond-Regular-54"/><use xlink:href="#GuardianSansCond-Regular-68" x="44.5"/><use xlink:href="#GuardianSansCond-Regular-72" x="90.6"/><use xlink:href="#GuardianSansCond-Regular-6f" x="119.4"/><use xlink:href="#GuardianSansCond-Regular-75" x="165"/><use xlink:href="#GuardianSansCond-Regular-67" x="210.5"/><use xlink:href="#GuardianSansCond-Regular-68" x="253.2"/><use xlink:href="#GuardianSansCond-Regular-70" x="299.3"/><use xlink:href="#GuardianSansCond-Regular-75" x="345.9"/><use xlink:href="#GuardianSansCond-Regular-74" x="391.4"/><use xlink:href="#GuardianSansCond-Regular-53" x="436.2"/><use xlink:href="#GuardianSansCond-Regular-63" x="478.4"/><use xlink:href="#GuardianSansCond-Regular-61" x="516.2"/><use xlink:href="#GuardianSansCond-Regular-6c" x="557.1"/><use xlink:href="#GuardianSansCond-Regular-69" x="576.4"/><use xlink:href="#GuardianSansCond-Regular-6e" x="595.7"/><use xlink:href="#GuardianSansCond-Regular-67" x="641.8"/><use xlink:href="#GuardianSansCond-Regular-77" x="700.3"/><use xlink:href="#GuardianSansCond-Regular-69" x="762.5"/><use xlink:href="#GuardianSansCond-Regular-74" x="781.8"/><use xlink:href="#GuardianSansCond-Regular-68" x="810.8"/><use xlink:href="#GuardianSansCond-Regular-44" x="872.7"/><use xlink:href="#GuardianSansCond-Regular-61" x="927.3"/><use xlink:href="#GuardianSansCond-Regular-74" x="968.2"/><use xlink:href="#GuardianSansCond-Regular-61" x="997.2"/><use xlink:href="#GuardianSansCond-Regular-50" x="1053.9"/><use xlink:href="#GuardianSansCond-Regular-61" x="1100.9"/><use xlink:href="#GuardianSansCond-Regular-72" x="1141.8"/><use xlink:href="#GuardianSansCond-Regular-61" x="1170.6"/><use xlink:href="#GuardianSansCond-Regular-6c" x="1211.5"/><use xlink:href="#GuardianSansCond-Regular-6c" x="1230.8"/><use xlink:href="#GuardianSansCond-Regular-65" x="1250.1"/><use xlink:href="#GuardianSansCond-Regular-6c" x="1292.8"/><use xlink:href="#GuardianSansCond-Regular-69" x="1312.1"/><use xlink:href="#GuardianSansCond-Regular-73" x="1331.4"/><use xlink:href="#GuardianSansCond-Regular-6d" x="1365.9"/></g><g id="legend_1"><path id="patch_18" d="M279.266 60.345h138.092q1.999 0 1.999-2V30.769q0-2-2-2h-138.09q-2 0-2 2v27.578q0 1.999 2 1.999z" style="fill:#fff;opacity:.8;stroke:#ccc;stroke-linejoin:miter"/><path id="patch_19" d="M281.265 40.105h19.992v-6.998h-19.992z" style="fill:#4ea5b7"/><g id="text_24" transform="matrix(.09996 0 0 -.09996 309.254 40.105)"><use xlink:href="#GuardianSansCond-Regular-54"/><use xlink:href="#GuardianSansCond-Regular-68" x="44.5"/><use xlink:href="#GuardianSansCond-Regular-72" x="90.6"/><use xlink:href="#GuardianSansCond-Regular-6f" x="119.4"/><use xlink:href="#GuardianSansCond-Regular-75" x="165"/><use xlink:href="#GuardianSansCond-Regular-67" x="210.5"/><use xlink:href="#GuardianSansCond-Regular-68" x="253.2"/><use xlink:href="#GuardianSansCond-Regular-70" x="299.3"/><use xlink:href="#GuardianSansCond-Regular-75" x="345.9"/><use xlink:href="#GuardianSansCond-Regular-74" x="391.4"/><use xlink:href="#GuardianSansCond-Regular-28" x="436.2"/><use xlink:href="#GuardianSansCond-Regular-74" x="464.2"/><use xlink:href="#GuardianSansCond-Regular-6f" x="493.2"/><use xlink:href="#GuardianSansCond-Regular-6b" x="538.8"/><use xlink:href="#GuardianSansCond-Regular-65" x="580.3"/><use xlink:href="#GuardianSansCond-Regular-6e" x="623"/><use xlink:href="#GuardianSansCond-Regular-73" x="669.1"/><use xlink:href="#GuardianSansCond-Regular-2f" x="703.6"/><use xlink:href="#GuardianSansCond-Regular-73" x="733.5"/><use xlink:href="#GuardianSansCond-Regular-65" x="768"/><use xlink:href="#GuardianSansCond-Regular-63" x="810.7"/><use xlink:href="#GuardianSansCond-Regular-2f" x="848.5"/><use xlink:href="#GuardianSansCond-Regular-47" x="878.4"/><use xlink:href="#GuardianSansCond-Regular-50" x="931.7"/><use xlink:href="#GuardianSansCond-Regular-55" x="978.7"/><use xlink:href="#GuardianSansCond-Regular-29" x="1033.5"/></g><path id="patch_20" d="M281.265 54.438h19.992V47.44h-19.992z" style="fill:#e889ab"/><g id="text_25" transform="matrix(.09996 0 0 -.09996 309.254 54.438)"><defs><path id="GuardianSansCond-Regular-66" d="M493 0h525v2848h608v435h-608v429c0 403 128 595 460 595 154 0 276-25 359-45v378c-90 45-250 102-474 102-537 0-870-313-870-985v-474H96v-435h397z" transform="scale(.01563)"/></defs><use xlink:href="#GuardianSansCond-Regular-50"/><use xlink:href="#GuardianSansCond-Regular-65" x="47"/><use xlink:href="#GuardianSansCond-Regular-72" x="89.7"/><use xlink:href="#GuardianSansCond-Regular-66" x="118.5"/><use xlink:href="#GuardianSansCond-Regular-6f" x="145.2"/><use xlink:href="#GuardianSansCond-Regular-72" x="190.8"/><use xlink:href="#GuardianSansCond-Regular-6d" x="219.6"/><use xlink:href="#GuardianSansCond-Regular-61" x="289.1"/><use xlink:href="#GuardianSansCond-Regular-6e" x="330"/><use xlink:href="#GuardianSansCond-Regular-63" x="376.1"/><use xlink:href="#GuardianSansCond-Regular-65" x="413.9"/><use xlink:href="#GuardianSansCond-Regular-44" x="472.4"/><use xlink:href="#GuardianSansCond-Regular-72" x="527"/><use xlink:href="#GuardianSansCond-Regular-6f" x="555.8"/><use xlink:href="#GuardianSansCond-Regular-70" x="601.4"/></g></g></g><g id="axes_2"><path id="patch_21" d="M476.275 237.65h368.89V23.77h-368.89z" style="fill:#fff"/><g id="matplotlib.axis_3"><g id="xtick_7"><path id="line2d_31" d="M493.043 237.65V23.77" clip-path="url(#pac0899721d)" style="fill:none;stroke-dasharray:2.96,1.28;stroke-dashoffset:0;stroke:#b0b0b0;stroke-opacity:.7;stroke-width:.8"/><use xlink:href="#m9e1d62e5ef" id="line2d_32" x="493.043" y="237.65" style="stroke:#000;stroke-width:.8"/><use xlink:href="#GuardianSansCond-Regular-38" id="text_26" transform="matrix(.1 0 0 -.1 490.572 251.991)"/></g><g id="xtick_8"><path id="line2d_33" d="M560.114 237.65V23.77" clip-path="url(#pac0899721d)" style="fill:none;stroke-dasharray:2.96,1.28;stroke-dashoffset:0;stroke:#b0b0b0;stroke-opacity:.7;stroke-width:.8"/><use xlink:href="#m9e1d62e5ef" id="line2d_34" x="560.114" y="237.65" style="stroke:#000;stroke-width:.8"/><g id="text_27" transform="matrix(.1 0 0 -.1 556.228 251.991)"><use xlink:href="#GuardianSansCond-Regular-31"/><use xlink:href="#GuardianSansCond-Regular-36" x="28.8"/></g></g><g id="xtick_9"><path id="line2d_35" d="M627.185 237.65V23.77" clip-path="url(#pac0899721d)" style="fill:none;stroke-dasharray:2.96,1.28;stroke-dashoffset:0;stroke:#b0b0b0;stroke-opacity:.7;stroke-width:.8"/><use xlink:href="#m9e1d62e5ef" id="line2d_36" x="627.185" y="237.65" style="stroke:#000;stroke-width:.8"/><g id="text_28" transform="matrix(.1 0 0 -.1 622.95 251.991)"><use xlink:href="#GuardianSansCond-Regular-33"/><use xlink:href="#GuardianSansCond-Regular-32" x="42.2"/></g></g><g id="xtick_10"><path id="line2d_37" d="M694.255 237.65V23.77" clip-path="url(#pac0899721d)" style="fill:none;stroke-dasharray:2.96,1.28;stroke-dashoffset:0;stroke:#b0b0b0;stroke-opacity:.7;stroke-width:.8"/><use xlink:href="#m9e1d62e5ef" id="line2d_38" x="694.255" y="237.65" style="stroke:#000;stroke-width:.8"/><g id="text_29" transform="matrix(.1 0 0 -.1 689.44 251.991)"><use xlink:href="#GuardianSansCond-Regular-36"/><use xlink:href="#GuardianSansCond-Regular-34" x="48.9"/></g></g><g id="xtick_11"><path id="line2d_39" d="M761.326 237.65V23.77" clip-path="url(#pac0899721d)" style="fill:none;stroke-dasharray:2.96,1.28;stroke-dashoffset:0;stroke:#b0b0b0;stroke-opacity:.7;stroke-width:.8"/><use xlink:href="#m9e1d62e5ef" id="line2d_40" x="761.326" y="237.65" style="stroke:#000;stroke-width:.8"/><g id="text_30" transform="matrix(.1 0 0 -.1 755.291 251.991)"><use xlink:href="#GuardianSansCond-Regular-31"/><use xlink:href="#GuardianSansCond-Regular-32" x="28.8"/><use xlink:href="#GuardianSansCond-Regular-38" x="71.3"/></g></g><g id="xtick_12"><path id="line2d_41" d="M828.397 237.65V23.77" clip-path="url(#pac0899721d)" style="fill:none;stroke-dasharray:2.96,1.28;stroke-dashoffset:0;stroke:#b0b0b0;stroke-opacity:.7;stroke-width:.8"/><use xlink:href="#m9e1d62e5ef" id="line2d_42" x="828.397" y="237.65" style="stroke:#000;stroke-width:.8"/><g id="text_31" transform="matrix(.1 0 0 -.1 821.722 251.991)"><use xlink:href="#GuardianSansCond-Regular-32"/><use xlink:href="#GuardianSansCond-Regular-35" x="42.5"/><use xlink:href="#GuardianSansCond-Regular-36" x="84.6"/></g></g><g id="text_32" transform="matrix(.12 0 0 -.12 616.554 266.71)"><use xlink:href="#GuardianSansCond-Regular-44"/><use xlink:href="#GuardianSansCond-Regular-61" x="54.6"/><use xlink:href="#GuardianSansCond-Regular-74" x="95.5"/><use xlink:href="#GuardianSansCond-Regular-61" x="124.5"/><use xlink:href="#GuardianSansCond-Regular-50" x="181.2"/><use xlink:href="#GuardianSansCond-Regular-61" x="228.2"/><use xlink:href="#GuardianSansCond-Regular-72" x="269.1"/><use xlink:href="#GuardianSansCond-Regular-61" x="297.9"/><use xlink:href="#GuardianSansCond-Regular-6c" x="338.8"/><use xlink:href="#GuardianSansCond-Regular-6c" x="358.1"/><use xlink:href="#GuardianSansCond-Regular-65" x="377.4"/><use xlink:href="#GuardianSansCond-Regular-6c" x="420.1"/><use xlink:href="#GuardianSansCond-Regular-69" x="439.4"/><use xlink:href="#GuardianSansCond-Regular-73" x="458.7"/><use xlink:href="#GuardianSansCond-Regular-6d" x="493.2"/><use xlink:href="#GuardianSansCond-Regular-28" x="578.5"/><use xlink:href="#GuardianSansCond-Regular-44" x="606.5"/><use xlink:href="#GuardianSansCond-Regular-50" x="661.1"/><use xlink:href="#GuardianSansCond-Regular-29" x="708.1"/></g></g><g id="matplotlib.axis_4"><g id="ytick_10"><path id="line2d_43" d="M476.275 218.753h368.89" clip-path="url(#pac0899721d)" style="fill:none;stroke-dasharray:2.96,1.28;stroke-dashoffset:0;stroke:#b0b0b0;stroke-opacity:.7;stroke-width:.8"/><use xlink:href="#m3422bdeb13" id="line2d_44" x="476.275" y="218.753" style="stroke:#000;stroke-width:.8"/><g id="text_33" transform="matrix(.1 0 0 -.1 453.336 222.423)"><use xlink:href="#GuardianSansCond-Regular-33"/><use xlink:href="#GuardianSansCond-Regular-35" x="42.2"/><use xlink:href="#GuardianSansCond-Regular-2e" x="84.3"/><use xlink:href="#GuardianSansCond-Regular-30" x="105.9"/></g></g><g id="ytick_11"><path id="line2d_45" d="M476.275 192.234h368.89" clip-path="url(#pac0899721d)" style="fill:none;stroke-dasharray:2.96,1.28;stroke-dashoffset:0;stroke:#b0b0b0;stroke-opacity:.7;stroke-width:.8"/><use xlink:href="#m3422bdeb13" id="line2d_46" x="476.275" y="192.234" style="stroke:#000;stroke-width:.8"/><g id="text_34" transform="matrix(.1 0 0 -.1 454.477 195.905)"><use xlink:href="#GuardianSansCond-Regular-33"/><use xlink:href="#GuardianSansCond-Regular-35" x="42.2"/><use xlink:href="#GuardianSansCond-Regular-2e" x="84.3"/><use xlink:href="#GuardianSansCond-Regular-35" x="105.9"/></g></g><g id="ytick_12"><path id="line2d_47" d="M476.275 165.715h368.89" clip-path="url(#pac0899721d)" style="fill:none;stroke-dasharray:2.96,1.28;stroke-dashoffset:0;stroke:#b0b0b0;stroke-opacity:.7;stroke-width:.8"/><use xlink:href="#m3422bdeb13" id="line2d_48" x="476.275" y="165.715" style="stroke:#000;stroke-width:.8"/><g id="text_35" transform="matrix(.1 0 0 -.1 452.655 169.386)"><use xlink:href="#GuardianSansCond-Regular-33"/><use xlink:href="#GuardianSansCond-Regular-36" x="42.2"/><use xlink:href="#GuardianSansCond-Regular-2e" x="91.1"/><use xlink:href="#GuardianSansCond-Regular-30" x="112.7"/></g></g><g id="ytick_13"><path id="line2d_49" d="M476.275 139.197h368.89" clip-path="url(#pac0899721d)" style="fill:none;stroke-dasharray:2.96,1.28;stroke-dashoffset:0;stroke:#b0b0b0;stroke-opacity:.7;stroke-width:.8"/><use xlink:href="#m3422bdeb13" id="line2d_50" x="476.275" y="139.197" style="stroke:#000;stroke-width:.8"/><g id="text_36" transform="matrix(.1 0 0 -.1 453.795 142.867)"><use xlink:href="#GuardianSansCond-Regular-33"/><use xlink:href="#GuardianSansCond-Regular-36" x="42.2"/><use xlink:href="#GuardianSansCond-Regular-2e" x="91.1"/><use xlink:href="#GuardianSansCond-Regular-35" x="112.7"/></g></g><g id="ytick_14"><path id="line2d_51" d="M476.275 112.678h368.89" clip-path="url(#pac0899721d)" style="fill:none;stroke-dasharray:2.96,1.28;stroke-dashoffset:0;stroke:#b0b0b0;stroke-opacity:.7;stroke-width:.8"/><use xlink:href="#m3422bdeb13" id="line2d_52" x="476.275" y="112.678" style="stroke:#000;stroke-width:.8"/><g id="text_37" transform="matrix(.1 0 0 -.1 453.655 116.348)"><defs><path id="GuardianSansCond-Regular-37" d="M461 0h557l1369 3994v441H109v-461h1741v-25z" transform="scale(.01563)"/></defs><use xlink:href="#GuardianSansCond-Regular-33"/><use xlink:href="#GuardianSansCond-Regular-37" x="42.2"/><use xlink:href="#GuardianSansCond-Regular-2e" x="81.1"/><use xlink:href="#GuardianSansCond-Regular-30" x="102.7"/></g></g><g id="ytick_15"><path id="line2d_53" d="M476.275 86.159h368.89" clip-path="url(#pac0899721d)" style="fill:none;stroke-dasharray:2.96,1.28;stroke-dashoffset:0;stroke:#b0b0b0;stroke-opacity:.7;stroke-width:.8"/><use xlink:href="#m3422bdeb13" id="line2d_54" x="476.275" y="86.159" style="stroke:#000;stroke-width:.8"/><g id="text_38" transform="matrix(.1 0 0 -.1 454.795 89.83)"><use xlink:href="#GuardianSansCond-Regular-33"/><use xlink:href="#GuardianSansCond-Regular-37" x="42.2"/><use xlink:href="#GuardianSansCond-Regular-2e" x="81.1"/><use xlink:href="#GuardianSansCond-Regular-35" x="102.7"/></g></g><g id="ytick_16"><path id="line2d_55" d="M476.275 59.64h368.89" clip-path="url(#pac0899721d)" style="fill:none;stroke-dasharray:2.96,1.28;stroke-dashoffset:0;stroke:#b0b0b0;stroke-opacity:.7;stroke-width:.8"/><use xlink:href="#m3422bdeb13" id="line2d_56" x="476.275" y="59.64" style="stroke:#000;stroke-width:.8"/><g id="text_39" transform="matrix(.1 0 0 -.1 452.605 63.31)"><use xlink:href="#GuardianSansCond-Regular-33"/><use xlink:href="#GuardianSansCond-Regular-38" x="42.2"/><use xlink:href="#GuardianSansCond-Regular-2e" x="91.6"/><use xlink:href="#GuardianSansCond-Regular-30" x="113.2"/></g></g><g id="ytick_17"><path id="line2d_57" d="M476.275 33.121h368.89" clip-path="url(#pac0899721d)" style="fill:none;stroke-dasharray:2.96,1.28;stroke-dashoffset:0;stroke:#b0b0b0;stroke-opacity:.7;stroke-width:.8"/><use xlink:href="#m3422bdeb13" id="line2d_58" x="476.275" y="33.121" style="stroke:#000;stroke-width:.8"/><g id="text_40" transform="matrix(.1 0 0 -.1 453.745 36.791)"><use xlink:href="#GuardianSansCond-Regular-33"/><use xlink:href="#GuardianSansCond-Regular-38" x="42.2"/><use xlink:href="#GuardianSansCond-Regular-2e" x="91.6"/><use xlink:href="#GuardianSansCond-Regular-35" x="113.2"/></g></g><g id="text_41" transform="matrix(0 -.12 -.12 0 446.24 172.783)"><defs><path id="GuardianSansCond-Regular-4d" d="M416 0h493v2675c0 423-26 1171-26 1171h19s154-716 224-985L1875 0h551l761 2899c90 352 224 960 224 960h19s-25-761-25-1177V0h512v4435h-819l-730-2925c-102-403-186-902-186-902h-12s-84 493-186 902l-742 2925H416z" transform="scale(.01563)"/><path id="GuardianSansCond-Regular-79" d="M570-1261c512 0 736 301 915 896l1107 3648h-525l-582-2086c-64-205-109-410-109-410h-13s-32 141-115 416L621 3283H51L1120 13l-102-307C896-698 749-826 480-826c-96 0-218 13-294 26v-371c96-51 249-90 384-90" transform="scale(.01563)"/><path id="GuardianSansCond-Regular-42" d="M416 0h1146c966 0 1382 493 1382 1254 0 711-326 999-832 1069v26c493 134 678 493 678 985 0 692-326 1101-1273 1101H416zm538 454v1620h563c569 0 864-199 864-781 0-557-224-839-864-839zm0 2061v1459h499c525 0 787-160 787-710 0-557-320-749-838-749z" transform="scale(.01563)"/></defs><use xlink:href="#GuardianSansCond-Regular-4d"/><use xlink:href="#GuardianSansCond-Regular-65" x="67.7"/><use xlink:href="#GuardianSansCond-Regular-6d" x="110.4"/><use xlink:href="#GuardianSansCond-Regular-6f" x="179.9"/><use xlink:href="#GuardianSansCond-Regular-72" x="225.5"/><use xlink:href="#GuardianSansCond-Regular-79" x="254.3"/><use xlink:href="#GuardianSansCond-Regular-55" x="311.5"/><use xlink:href="#GuardianSansCond-Regular-73" x="366.3"/><use xlink:href="#GuardianSansCond-Regular-61" x="400.8"/><use xlink:href="#GuardianSansCond-Regular-67" x="441.7"/><use xlink:href="#GuardianSansCond-Regular-65" x="484.4"/><use xlink:href="#GuardianSansCond-Regular-28" x="542.9"/><use xlink:href="#GuardianSansCond-Regular-47" x="570.9"/><use xlink:href="#GuardianSansCond-Regular-42" x="624.2"/><use xlink:href="#GuardianSansCond-Regular-29" x="673.2"/></g></g><g id="line2d_59"><path d="M493.043 130.71h335.354" clip-path="url(#pac0899721d)" style="fill:none;stroke:#e889ab;stroke-width:2;stroke-linecap:square"/><defs><path id="m16f49c7690" d="M0 3a3 3 0 1 0 0-6 3 3 0 0 0 0 6z" style="stroke:#e889ab"/></defs><g clip-path="url(#pac0899721d)"><use xlink:href="#m16f49c7690" x="493.043" y="130.71" style="fill:#e889ab;stroke:#e889ab"/><use xlink:href="#m16f49c7690" x="560.114" y="130.71" style="fill:#e889ab;stroke:#e889ab"/><use xlink:href="#m16f49c7690" x="627.185" y="130.71" style="fill:#e889ab;stroke:#e889ab"/><use xlink:href="#m16f49c7690" x="694.255" y="130.71" style="fill:#e889ab;stroke:#e889ab"/><use xlink:href="#m16f49c7690" x="761.326" y="130.71" style="fill:#e889ab;stroke:#e889ab"/><use xlink:href="#m16f49c7690" x="828.397" y="130.71" style="fill:#e889ab;stroke:#e889ab"/></g></g><path id="patch_22" d="M476.275 237.65V23.77" style="fill:none;stroke:#000;stroke-width:.8;stroke-linejoin:miter;stroke-linecap:square"/><path id="patch_23" d="M845.165 237.65V23.77" style="fill:none;stroke:#000;stroke-width:.8;stroke-linejoin:miter;stroke-linecap:square"/><path id="patch_24" d="M476.275 237.65h368.89" style="fill:none;stroke:#000;stroke-width:.8;stroke-linejoin:miter;stroke-linecap:square"/><path id="patch_25" d="M476.275 23.77h368.89" style="fill:none;stroke:#000;stroke-width:.8;stroke-linejoin:miter;stroke-linecap:square"/><g id="text_42" transform="matrix(.144 0 0 -.144 549.69 17.77)"><use xlink:href="#GuardianSansCond-Regular-4d"/><use xlink:href="#GuardianSansCond-Regular-65" x="67.7"/><use xlink:href="#GuardianSansCond-Regular-6d" x="110.4"/><use xlink:href="#GuardianSansCond-Regular-6f" x="179.9"/><use xlink:href="#GuardianSansCond-Regular-72" x="225.5"/><use xlink:href="#GuardianSansCond-Regular-79" x="254.3"/><use xlink:href="#GuardianSansCond-Regular-55" x="311.5"/><use xlink:href="#GuardianSansCond-Regular-73" x="366.3"/><use xlink:href="#GuardianSansCond-Regular-61" x="400.8"/><use xlink:href="#GuardianSansCond-Regular-67" x="441.7"/><use xlink:href="#GuardianSansCond-Regular-65" x="484.4"/><use xlink:href="#GuardianSansCond-Regular-53" x="542.9"/><use xlink:href="#GuardianSansCond-Regular-63" x="585.1"/><use xlink:href="#GuardianSansCond-Regular-61" x="622.9"/><use xlink:href="#GuardianSansCond-Regular-6c" x="663.8"/><use xlink:href="#GuardianSansCond-Regular-69" x="683.1"/><use xlink:href="#GuardianSansCond-Regular-6e" x="702.4"/><use xlink:href="#GuardianSansCond-Regular-67" x="748.5"/><use xlink:href="#GuardianSansCond-Regular-77" x="807"/><use xlink:href="#GuardianSansCond-Regular-69" x="869.2"/><use xlink:href="#GuardianSansCond-Regular-74" x="888.5"/><use xlink:href="#GuardianSansCond-Regular-68" x="917.5"/><use xlink:href="#GuardianSansCond-Regular-44" x="979.4"/><use xlink:href="#GuardianSansCond-Regular-61" x="1034"/><use xlink:href="#GuardianSansCond-Regular-74" x="1074.9"/><use xlink:href="#GuardianSansCond-Regular-61" x="1103.9"/><use xlink:href="#GuardianSansCond-Regular-50" x="1160.6"/><use xlink:href="#GuardianSansCond-Regular-61" x="1207.6"/><use xlink:href="#GuardianSansCond-Regular-72" x="1248.5"/><use xlink:href="#GuardianSansCond-Regular-61" x="1277.3"/><use xlink:href="#GuardianSansCond-Regular-6c" x="1318.2"/><use xlink:href="#GuardianSansCond-Regular-6c" x="1337.5"/><use xlink:href="#GuardianSansCond-Regular-65" x="1356.8"/><use xlink:href="#GuardianSansCond-Regular-6c" x="1399.5"/><use xlink:href="#GuardianSansCond-Regular-69" x="1418.8"/><use xlink:href="#GuardianSansCond-Regular-73" x="1438.1"/><use xlink:href="#GuardianSansCond-Regular-6d" x="1472.6"/></g><g id="legend_2"><path id="patch_26" d="M714.22 50.544h122.545q2.4 0 2.4-2.4V32.17q0-2.4-2.4-2.4H714.221q-2.4 0-2.4 2.4v15.974q0 2.4 2.4 2.4z" style="fill:#fff;opacity:.8;stroke:#ccc;stroke-linejoin:miter"/><g id="line2d_60"><path d="M716.62 39.18h24" style="fill:none;stroke:#e889ab;stroke-width:2;stroke-linecap:square"/><use xlink:href="#m16f49c7690" x="728.621" y="39.179" style="fill:#e889ab;stroke:#e889ab"/></g><g id="text_43" transform="matrix(.12 0 0 -.12 750.22 43.38)"><use xlink:href="#GuardianSansCond-Regular-4d"/><use xlink:href="#GuardianSansCond-Regular-65" x="67.7"/><use xlink:href="#GuardianSansCond-Regular-6d" x="110.4"/><use xlink:href="#GuardianSansCond-Regular-6f" x="179.9"/><use xlink:href="#GuardianSansCond-Regular-72" x="225.5"/><use xlink:href="#GuardianSansCond-Regular-79" x="254.3"/><use xlink:href="#GuardianSansCond-Regular-55" x="311.5"/><use xlink:href="#GuardianSansCond-Regular-73" x="366.3"/><use xlink:href="#GuardianSansCond-Regular-61" x="400.8"/><use xlink:href="#GuardianSansCond-Regular-67" x="441.7"/><use xlink:href="#GuardianSansCond-Regular-65" x="484.4"/><use xlink:href="#GuardianSansCond-Regular-28" x="542.9"/><use xlink:href="#GuardianSansCond-Regular-47" x="570.9"/><use xlink:href="#GuardianSansCond-Regular-42" x="624.2"/><use xlink:href="#GuardianSansCond-Regular-29" x="673.2"/></g></g></g></g><defs><clipPath id="p7aead071cb"><path d="M55.465 23.77h368.89v213.88H55.465z"/></clipPath><clipPath id="pac0899721d"><path d="M476.275 23.77h368.89v213.88h-368.89z"/></clipPath></defs></svg>