<svg xmlns="http://www.w3.org/2000/svg" width="945.967" height="242.768" fill="none" stroke-linecap="square" stroke-miterlimit="10"><clipPath id="a"><path d="M0 0h960v540H0Z"/></clipPath><g clip-path="url(#a)" transform="translate(-1.869 -129.04)"><path fill="#f3f3f3" fill-rule="evenodd" d="M63.575 171.58h883.212v36H63.575Z"/><path stroke="#595959" stroke-linecap="butt" stroke-linejoin="round" d="M63.575 171.58h883.212v36H63.575Z"/><path fill="#f3f3f3" fill-rule="evenodd" d="M63.575 207.58h883.212v36H63.575Z"/><path stroke="#595959" stroke-linecap="butt" stroke-linejoin="round" d="M63.575 207.58h883.212v36H63.575Z"/><path fill="#f3f3f3" fill-rule="evenodd" d="M63.575 243.58h883.212v36H63.575Z"/><path stroke="#595959" stroke-linecap="butt" stroke-linejoin="round" d="M63.575 243.58h883.212v36H63.575Z"/><path fill="#f3f3f3" fill-rule="evenodd" d="M63.575 279.58h883.212v36H63.575Z"/><path stroke="#595959" stroke-linecap="butt" stroke-linejoin="round" d="M63.575 279.58h883.212v36H63.575Z"/><path d="M17.46 166.21h32.913v45.26H17.459Z"/><path fill="#000" d="M30.256 195.69v-11.875l-2.281 2.406-1.063-1.094 3.563-3.656h1.547v14.219z"/><path d="M17.46 203.379h32.913v45.26H17.459Z"/><path fill="#000" d="M27.616 232.859v-1.406q3.75-2.97 5.156-4.313 1.406-1.36 2.062-2.437.672-1.079.672-2.11 0-1.172-.812-1.875-.813-.719-2.157-.719-2.5 0-3.859 1.797l-1.094-1.14q.813-1.078 2.125-1.657 1.313-.578 2.828-.578 2.063 0 3.422 1.141 1.36 1.14 1.36 3.031 0 1.735-1.47 3.64-1.452 1.907-5.437 5.048h6.97v1.578z"/><path d="M17.46 240.548h32.913v45.26H17.459Z"/><path fill="#000" d="M32.131 270.278q-1.812 0-3.11-.688-1.28-.687-1.937-1.656l1.032-1.11q.625.829 1.656 1.36 1.031.516 2.312.516 1.563 0 2.438-.704.89-.718.89-1.953 0-1.265-.921-1.89-.922-.625-2.61-.625h-.875l-.594.015v-1.625l.61.031h.86q1.53 0 2.405-.625.891-.64.891-1.718 0-1.094-.89-1.766-.876-.672-2.282-.672-2.156 0-3.75 1.719l-.984-1.11q1.797-2.187 4.86-2.187 2.171 0 3.5 1.031 1.327 1.032 1.327 2.766 0 1.281-.875 2.187-.875.907-2.203 1.11 1.344.11 2.313 1.11.968.984.968 2.39 0 1.86-1.39 2.984-1.375 1.11-3.64 1.11"/><path d="M17.46 277.717h32.913v45.26H17.459Z"/><path fill="#000" d="M33.897 307.197v-3.61h-6.75v-1.469l6.094-9.14h2.437v9.062h2v1.547h-2v3.61zm0-12.579-4.985 7.422h4.985z"/><path d="M1.869 129.04h64.094v45.26H1.87Z"/><path fill="#000" d="M19.275 158.8q-3.14 0-5.234-2.093-2.078-2.11-2.078-5.297 0-3.219 2.093-5.281 2.11-2.063 5.219-2.063 3.344 0 5.516 2.656l-1.407.875q-.671-.875-1.75-1.406-1.078-.547-2.359-.547-2.375 0-3.937 1.641-1.547 1.64-1.547 4.125 0 2.531 1.562 4.172 1.578 1.64 3.922 1.64 1.063 0 2.078-.421 1.031-.422 1.735-1.125v-2.891h-4.875v-1.578h6.64v5.14q-2.219 2.454-5.578 2.454m8.457-.28V144.3h5.719q2.031 0 3.25 1.22 1.219 1.202 1.219 3.062 0 1.875-1.25 3.078-1.235 1.203-3.22 1.203h-3.937v5.656zm5.516-7.235q1.28 0 2.047-.734.78-.75.78-1.97 0-1.218-.78-1.952-.766-.75-2.047-.75h-3.735v5.406zm12.816 7.484q-2.75 0-4.281-1.5t-1.531-4.28v-8.69h1.78v8.656q0 1.953 1.017 3.094 1.03 1.14 3.015 1.14t3-1.14q1.031-1.141 1.031-3.094V144.3h1.766v8.671q0 2.782-1.5 4.297-1.484 1.5-4.297 1.5"/><path fill="#4ea5b7" fill-rule="evenodd" d="M63.575 171.58H81.81v36H63.575Z"/><path stroke="#595959" stroke-linecap="butt" stroke-linejoin="round" d="M63.575 171.58H81.81v36H63.575Z"/><path fill="#fff" d="M72.655 195.44v-7.75l-1.781 1.813-1.297-1.36 3.36-3.375h1.984v10.672z"/><path fill="#4ea5b7" fill-rule="evenodd" d="M100.047 171.58h18.236v36h-18.236z"/><path stroke="#595959" stroke-linecap="butt" stroke-linejoin="round" d="M100.047 171.58h18.236v36h-18.236z"/><path fill="#fff" d="M109 195.628q-1.484 0-2.562-.485-1.062-.5-1.656-1.219l1.187-1.53q.563.577 1.36.905.797.313 1.593.313.97 0 1.485-.375.531-.375.531-.984 0-.641-.516-.938-.515-.297-1.64-.297h-.36l-.968.031v-2.046l.593.015h.735q1.969 0 1.969-1.125 0-.64-.563-.953t-1.422-.313q-1.547 0-2.703 1.094l-1.125-1.422q1.5-1.687 4.078-1.687 1.89 0 2.953.781 1.078.781 1.078 2.11 0 .89-.671 1.578-.657.671-1.672.859 1.11.125 1.797.86.703.718.703 1.702 0 1.407-1.172 2.266-1.156.86-3.031.86"/><path fill="#4ea5b7" fill-rule="evenodd" d="M81.811 171.58h18.236v36H81.811Z"/><path stroke="#595959" stroke-linecap="butt" stroke-linejoin="round" d="M81.811 171.58h18.236v36H81.811Z"/><path fill="#fff" d="M86.88 195.44v-1.781q3.78-2.813 4.718-3.797.937-.984.937-1.844 0-.625-.484-1-.484-.39-1.25-.39-1.656 0-2.86 1.234l-1.296-1.516q.781-.906 1.875-1.312 1.11-.422 2.234-.422 1.813 0 2.938.953 1.14.938 1.14 2.453 0 1.219-.969 2.485-.968 1.25-3.296 2.937h4.343v2z"/><path fill="#4ea5b7" fill-rule="evenodd" d="M118.283 171.58h18.237v36h-18.237z"/><path stroke="#595959" stroke-linecap="butt" stroke-linejoin="round" d="M118.283 171.58h18.237v36h-18.237z"/><path fill="#fff" d="M128.126 195.44v-2.203h-5.094v-1.797l4.234-6.672h3.14v6.469h1.376v2h-1.375v2.203zm0-8.656-2.875 4.453h2.875z"/><path fill="#4ea5b7" fill-rule="evenodd" d="M81.811 207.58h18.236v36H81.811Z"/><path stroke="#595959" stroke-linecap="butt" stroke-linejoin="round" d="M81.811 207.58h18.236v36H81.811Z"/><path fill="#fff" d="M90.891 231.44v-7.75l-1.781 1.813-1.297-1.36 3.36-3.375h1.984v10.672z"/><path fill="#4ea5b7" fill-rule="evenodd" d="M118.283 207.58h18.237v36h-18.237z"/><path stroke="#595959" stroke-linecap="butt" stroke-linejoin="round" d="M118.283 207.58h18.237v36h-18.237z"/><path fill="#fff" d="M127.237 231.628q-1.485 0-2.563-.485-1.062-.5-1.656-1.219l1.188-1.53q.562.577 1.359.905.797.313 1.594.313.968 0 1.484-.375.531-.375.531-.984 0-.641-.515-.938-.516-.297-1.64-.297h-.36l-.97.031v-2.046l.595.015h.734q1.969 0 1.969-1.125 0-.64-.563-.953t-1.422-.313q-1.546 0-2.703 1.094l-1.125-1.422q1.5-1.687 4.078-1.687 1.891 0 2.954.781 1.078.781 1.078 2.11 0 .89-.672 1.578-.656.671-1.672.859 1.11.125 1.797.86.703.718.703 1.702 0 1.407-1.172 2.266-1.156.86-3.031.86"/><path fill="#4ea5b7" fill-rule="evenodd" d="M100.047 207.58h18.236v36h-18.236z"/><path stroke="#595959" stroke-linecap="butt" stroke-linejoin="round" d="M100.047 207.58h18.236v36h-18.236z"/><path fill="#fff" d="M105.115 231.44v-1.781q3.782-2.813 4.72-3.797t.937-1.844q0-.625-.485-1-.484-.39-1.25-.39-1.656 0-2.86 1.234l-1.296-1.516q.781-.906 1.875-1.312 1.11-.422 2.234-.422 1.813 0 2.938.953 1.14.938 1.14 2.453 0 1.219-.968 2.485-.969 1.25-3.297 2.937h4.344v2z"/><path fill="#4ea5b7" fill-rule="evenodd" d="M136.52 207.58h18.236v36H136.52z"/><path stroke="#595959" stroke-linecap="butt" stroke-linejoin="round" d="M136.52 207.58h18.236v36H136.52z"/><path fill="#fff" d="M146.362 231.44v-2.203h-5.094v-1.797l4.234-6.672h3.141v6.469h1.375v2h-1.375v2.203zm0-8.656-2.875 4.453h2.875z"/><path fill="#4ea5b7" fill-rule="evenodd" d="M100.047 243.58h18.236v36h-18.236z"/><path stroke="#595959" stroke-linecap="butt" stroke-linejoin="round" d="M100.047 243.58h18.236v36h-18.236z"/><path fill="#fff" d="M109.127 267.44v-7.75l-1.78 1.813-1.298-1.36 3.36-3.375h1.984v10.672z"/><path fill="#4ea5b7" fill-rule="evenodd" d="M136.52 243.58h18.236v36H136.52z"/><path stroke="#595959" stroke-linecap="butt" stroke-linejoin="round" d="M136.52 243.58h18.236v36H136.52z"/><path fill="#fff" d="M145.473 267.628q-1.484 0-2.562-.485-1.063-.5-1.657-1.219l1.188-1.53q.562.577 1.36.905.796.313 1.593.313.969 0 1.484-.375.532-.375.532-.984 0-.641-.516-.938t-1.64-.297h-.36l-.969.031v-2.046l.594.015h.734q1.969 0 1.969-1.125 0-.64-.562-.953t-1.422-.313q-1.547 0-2.703 1.094l-1.125-1.422q1.5-1.687 4.078-1.687 1.89 0 2.953.781 1.078.781 1.078 2.11 0 .89-.672 1.578-.656.671-1.672.859 1.11.125 1.797.86.703.718.703 1.702 0 1.407-1.172 2.266-1.156.86-3.031.86"/><path fill="#4ea5b7" fill-rule="evenodd" d="M118.283 243.58h18.237v36h-18.237z"/><path stroke="#595959" stroke-linecap="butt" stroke-linejoin="round" d="M118.283 243.58h18.237v36h-18.237z"/><path fill="#fff" d="M123.352 267.44v-1.781q3.78-2.813 4.718-3.797t.938-1.844q0-.625-.485-1-.484-.39-1.25-.39-1.656 0-2.859 1.234l-1.297-1.516q.781-.906 1.875-1.312 1.11-.422 2.235-.422 1.812 0 2.937.953 1.14.938 1.14 2.453 0 1.219-.968 2.485-.969 1.25-3.297 2.937h4.344v2z"/><path fill="#4ea5b7" fill-rule="evenodd" d="M154.756 243.58h18.236v36h-18.236Z"/><path stroke="#595959" stroke-linecap="butt" stroke-linejoin="round" d="M154.756 243.58h18.236v36h-18.236Z"/><path fill="#fff" d="M164.598 267.44v-2.203h-5.094v-1.797l4.235-6.672h3.14v6.469h1.375v2h-1.375v2.203zm0-8.656-2.875 4.453h2.875z"/><path fill="#4ea5b7" fill-rule="evenodd" d="M118.283 279.58h18.237v36h-18.237z"/><path stroke="#595959" stroke-linecap="butt" stroke-linejoin="round" d="M118.283 279.58h18.237v36h-18.237z"/><path fill="#fff" d="M127.364 303.44v-7.75l-1.782 1.813-1.297-1.36 3.36-3.375h1.984v10.672z"/><path fill="#e889ab" fill-rule="evenodd" d="M136.544 279.58h36.472v36h-36.472z"/><path stroke="#595959" stroke-linecap="butt" stroke-linejoin="round" d="M136.544 279.58h36.472v36h-36.472z"/><path fill="#fff" d="M154.742 303.44v-7.75l-1.781 1.813-1.297-1.36 3.36-3.375h1.984v10.672z"/><path fill="#e889ab" fill-rule="evenodd" d="M245.934 279.58h36.472v36h-36.472z"/><path stroke="#595959" stroke-linecap="butt" stroke-linejoin="round" d="M245.934 279.58h36.472v36h-36.472z"/><path fill="#fff" d="M264.005 303.628q-1.484 0-2.562-.485-1.063-.5-1.657-1.219l1.188-1.53q.562.577 1.36.905.796.313 1.593.313.969 0 1.484-.375.532-.375.532-.984 0-.641-.516-.938t-1.64-.297h-.36l-.969.031v-2.046l.594.015h.734q1.97 0 1.97-1.125 0-.64-.563-.953t-1.422-.313q-1.547 0-2.703 1.094l-1.125-1.422q1.5-1.687 4.078-1.687 1.89 0 2.953.781 1.078.781 1.078 2.11 0 .89-.672 1.578-.656.671-1.672.859 1.11.125 1.797.86.703.718.703 1.702 0 1.407-1.172 2.266-1.156.86-3.03.86"/><path fill="#e889ab" fill-rule="evenodd" d="M191.215 279.58h36.473v36h-36.473Z"/><path stroke="#595959" stroke-linecap="butt" stroke-linejoin="round" d="M191.215 279.58h36.473v36h-36.473Z"/><path fill="#fff" d="M205.401 303.44v-1.781q3.782-2.813 4.72-3.797t.937-1.844q0-.625-.485-1-.484-.39-1.25-.39-1.656 0-2.86 1.234l-1.296-1.516q.781-.906 1.875-1.312 1.11-.422 2.234-.422 1.813 0 2.938.953 1.14.938 1.14 2.453 0 1.219-.968 2.485-.97 1.25-3.297 2.937h4.344v2z"/><path fill="#e889ab" fill-rule="evenodd" d="M300.652 279.58h36.473v36h-36.473z"/><path stroke="#595959" stroke-linecap="butt" stroke-linejoin="round" d="M300.652 279.58h36.473v36h-36.473z"/><path fill="#fff" d="M319.613 303.44v-2.203h-5.094v-1.797l4.234-6.672h3.14v6.469h1.376v2h-1.375v2.203zm0-8.656-2.875 4.453h2.875z"/><path fill="#e889ab" fill-rule="evenodd" d="M355.326 279.58H391.8v36h-36.473z"/><path stroke="#595959" stroke-linecap="butt" stroke-linejoin="round" d="M355.326 279.58H391.8v36h-36.473z"/><path fill="#fff" d="M373.59 303.628q-2.657 0-4.11-1.594l1.265-1.578q1.14 1.156 2.828 1.156.97 0 1.47-.453.515-.469.515-1.125 0-.719-.5-1.14-.5-.438-1.422-.438-1.344 0-2.234.86l-1.579-.423v-6.125h7.329v2h-5.063v2.61q.39-.391 1-.641.625-.25 1.36-.25 1.437 0 2.421.953 1 .953 1 2.5 0 1.688-1.156 2.688t-3.125 1"/><path fill="#e889ab" fill-rule="evenodd" d="M410.093 279.58h36.473v36h-36.473z"/><path stroke="#595959" stroke-linecap="butt" stroke-linejoin="round" d="M410.093 279.58h36.473v36h-36.473z"/><path fill="#fff" d="M428.622 303.628q-2.172 0-3.39-1.454-1.22-1.453-1.22-4.046 0-2.485 1.329-4t3.64-1.516q1.875 0 3.156 1.094l-1.03 1.75q-.423-.422-.923-.625-.484-.203-1.203-.203-1.156 0-1.922.875-.75.859-.75 2.14l.016.235q.453-.625 1.187-1 .75-.375 1.547-.375 1.594 0 2.61.953 1.03.953 1.03 2.515 0 1.594-1.155 2.625-1.14 1.032-2.922 1.032m-.125-2.016q.844 0 1.36-.469.53-.469.53-1.094 0-.734-.546-1.156-.532-.437-1.438-.437-1.281 0-2.078 1 .078.953.64 1.562.563.594 1.532.594"/><path fill="#e889ab" fill-rule="evenodd" d="M464.813 279.58h36.473v36h-36.473z"/><path stroke="#595959" stroke-linecap="butt" stroke-linejoin="round" d="M464.813 279.58h36.473v36h-36.473z"/><path fill="#fff" d="m480.627 303.44 3.828-8.672h-5.375v-2h8.016v1.578l-3.969 9.094z"/><path fill="#e889ab" fill-rule="evenodd" d="M519.532 279.58h36.472v36h-36.472z"/><path stroke="#595959" stroke-linecap="butt" stroke-linejoin="round" d="M519.532 279.58h36.472v36h-36.472z"/><path fill="#fff" d="M537.764 303.628q-1.875 0-3.078-.797t-1.203-2.157q0-.921.609-1.64.625-.719 1.672-1.094-2.11-.75-2.11-2.516 0-1.328 1.157-2.062 1.172-.75 2.953-.75 1.812 0 2.953.766 1.156.75 1.156 2.046 0 1.75-2.125 2.516 1.094.39 1.703 1.125.61.734.61 1.61 0 1.359-1.22 2.156-1.202.797-3.077.797m0-6.594q.765-.094 1.281-.438.516-.36.516-.812 0-.578-.516-.89-.5-.329-1.281-.329-.797 0-1.297.328-.5.313-.5.89 0 .423.5.782t1.297.469m0 4.64q.86 0 1.422-.375t.562-.921q0-.5-.594-.907-.593-.406-1.39-.515-.766.093-1.375.5-.61.406-.61.922 0 .593.563.953.578.343 1.422.343"/><path fill="#4ea5b7" fill-rule="evenodd" d="M665.451 171.58h18.237v36H665.45Z"/><path stroke="#595959" stroke-linecap="butt" stroke-linejoin="round" d="M665.451 171.58h18.237v36H665.45Z"/><path fill="#fff" d="M673.909 195.612q-1.938 0-3.125-1.094l1-1.75q.437.422.922.625.484.203 1.203.203 1.187 0 1.922-.828.75-.844.75-2.172v-.25q-.422.61-1.188 1-.75.375-1.562.375-1.594 0-2.625-.937-1.016-.953-1.016-2.531t1.156-2.61q1.156-1.047 2.938-1.047 2.156 0 3.375 1.469t1.218 4.047q0 2.547-1.343 4.031-1.344 1.469-3.625 1.469m.562-5.828q1.281 0 2.094-1-.078-.985-.672-1.578-.578-.594-1.5-.594-.797 0-1.344.453t-.547 1.11q0 .734.547 1.171t1.422.438"/><path fill="#4ea5b7" fill-rule="evenodd" d="M701.924 171.58h18.236v36h-18.236Z"/><path stroke="#595959" stroke-linecap="butt" stroke-linejoin="round" d="M701.924 171.58h18.236v36h-18.236Z"/><path fill="#fff" d="M707.716 195.44v-7.75l-1.781 1.813-1.297-1.36 3.36-3.375h1.984v10.672zm6.576 0v-7.75l-1.781 1.813-1.297-1.36 3.36-3.375h1.984v10.672z"/><path fill="#4ea5b7" fill-rule="evenodd" d="M683.688 171.58h18.236v36h-18.236Z"/><path stroke="#595959" stroke-linecap="butt" stroke-linejoin="round" d="M683.688 171.58h18.236v36h-18.236Z"/><path fill="#fff" d="M687.808 195.44v-7.75l-1.782 1.813-1.296-1.36 3.359-3.375h1.984v10.672zm8.279.188q-2.047 0-3.234-1.563-1.172-1.562-1.172-3.953 0-1.547.53-2.813.532-1.28 1.517-1.984 1-.703 2.359-.703 2.016 0 3.219 1.547 1.203 1.531 1.203 3.953 0 2.406-1.203 3.969-1.188 1.547-3.22 1.547m0-2.016q1 0 1.547-.89.562-.907.562-2.61 0-1.734-.562-2.61-.563-.874-1.547-.874t-1.547.875-.562 2.609.546 2.625q.563.875 1.563.875"/><path fill="#4ea5b7" fill-rule="evenodd" d="M720.16 171.58h18.236v36H720.16Z"/><path stroke="#595959" stroke-linecap="butt" stroke-linejoin="round" d="M720.16 171.58h18.236v36H720.16Z"/><path fill="#fff" d="M724.44 195.44v-7.75l-1.781 1.813-1.297-1.36 3.36-3.375h1.984v10.672zm4.076 0v-1.781q3.782-2.813 4.719-3.797t.938-1.844q0-.625-.485-1-.484-.39-1.25-.39-1.656 0-2.86 1.234l-1.296-1.516q.781-.906 1.875-1.312 1.11-.422 2.234-.422 1.813 0 2.938.953 1.14.938 1.14 2.453 0 1.219-.968 2.485-.97 1.25-3.297 2.937h4.344v2z"/><path fill="#4ea5b7" fill-rule="evenodd" d="M683.688 207.58h18.236v36h-18.236Z"/><path stroke="#595959" stroke-linecap="butt" stroke-linejoin="round" d="M683.688 207.58h18.236v36h-18.236Z"/><path fill="#fff" d="M692.145 231.612q-1.938 0-3.125-1.094l1-1.75q.437.422.922.625.484.203 1.203.203 1.187 0 1.922-.828.75-.844.75-2.172v-.25q-.422.61-1.188 1-.75.375-1.562.375-1.594 0-2.625-.937-1.016-.953-1.016-2.531t1.156-2.61q1.157-1.047 2.938-1.047 2.156 0 3.375 1.469t1.219 4.047q0 2.547-1.344 4.031-1.344 1.469-3.625 1.469m.562-5.828q1.282 0 2.094-1-.078-.985-.672-1.578-.578-.594-1.5-.594-.797 0-1.343.453-.547.453-.547 1.11 0 .734.547 1.171.546.438 1.421.438"/><path fill="#4ea5b7" fill-rule="evenodd" d="M720.16 207.58h18.236v36H720.16Z"/><path stroke="#595959" stroke-linecap="butt" stroke-linejoin="round" d="M720.16 207.58h18.236v36H720.16Z"/><path fill="#fff" d="M725.952 231.44v-7.75l-1.781 1.813-1.297-1.36 3.36-3.375h1.984v10.672zm6.576 0v-7.75l-1.781 1.813-1.297-1.36 3.36-3.375h1.984v10.672z"/><path fill="#4ea5b7" fill-rule="evenodd" d="M701.924 207.58h18.236v36h-18.236Z"/><path stroke="#595959" stroke-linecap="butt" stroke-linejoin="round" d="M701.924 207.58h18.236v36h-18.236Z"/><path fill="#fff" d="M706.044 231.44v-7.75l-1.781 1.813-1.297-1.36 3.36-3.375h1.984v10.672zm8.28.188q-2.048 0-3.235-1.563-1.172-1.562-1.172-3.953 0-1.547.531-2.813.531-1.28 1.516-1.984 1-.703 2.36-.703 2.015 0 3.218 1.547 1.203 1.531 1.203 3.953 0 2.406-1.203 3.969-1.188 1.547-3.219 1.547m0-2.016q1 0 1.546-.89.562-.907.562-2.61 0-1.734-.562-2.61-.563-.874-1.547-.874t-1.547.875-.562 2.609.547 2.625q.562.875 1.562.875"/><path fill="#4ea5b7" fill-rule="evenodd" d="M738.396 207.58h18.237v36h-18.237Z"/><path stroke="#595959" stroke-linecap="butt" stroke-linejoin="round" d="M738.396 207.58h18.237v36h-18.237Z"/><path fill="#fff" d="M742.676 231.44v-7.75l-1.78 1.813-1.298-1.36 3.36-3.375h1.984v10.672zm4.076 0v-1.781q3.782-2.813 4.72-3.797t.937-1.844q0-.625-.485-1-.484-.39-1.25-.39-1.656 0-2.86 1.234l-1.296-1.516q.781-.906 1.875-1.312 1.11-.422 2.234-.422 1.813 0 2.938.953 1.14.938 1.14 2.453 0 1.219-.968 2.485-.969 1.25-3.297 2.937h4.344v2z"/><path fill="#4ea5b7" fill-rule="evenodd" d="M701.924 243.58h18.236v36h-18.236Z"/><path stroke="#595959" stroke-linecap="butt" stroke-linejoin="round" d="M701.924 243.58h18.236v36h-18.236Z"/><path fill="#fff" d="M710.381 267.612q-1.937 0-3.125-1.094l1-1.75q.438.422.922.625t1.203.203q1.188 0 1.922-.828.75-.844.75-2.172v-.25q-.422.61-1.188 1-.75.375-1.562.375-1.594 0-2.625-.937-1.016-.953-1.016-2.531t1.157-2.61q1.156-1.047 2.937-1.047 2.156 0 3.375 1.47 1.219 1.468 1.219 4.046 0 2.547-1.344 4.031-1.344 1.469-3.625 1.469m.563-5.828q1.28 0 2.093-1-.078-.985-.672-1.578-.578-.594-1.5-.594-.796 0-1.343.453t-.547 1.11q0 .734.547 1.171t1.422.438"/><path fill="#4ea5b7" fill-rule="evenodd" d="M738.396 243.58h18.237v36h-18.237Z"/><path stroke="#595959" stroke-linecap="butt" stroke-linejoin="round" d="M738.396 243.58h18.237v36h-18.237Z"/><path fill="#fff" d="M744.188 267.44v-7.75l-1.78 1.813-1.298-1.36 3.36-3.375h1.984v10.672zm6.576 0v-7.75l-1.78 1.813-1.298-1.36 3.36-3.375h1.984v10.672z"/><path fill="#4ea5b7" fill-rule="evenodd" d="M720.16 243.58h18.236v36H720.16Z"/><path stroke="#595959" stroke-linecap="butt" stroke-linejoin="round" d="M720.16 243.58h18.236v36H720.16Z"/><path fill="#fff" d="M724.28 267.44v-7.75l-1.781 1.813-1.297-1.36 3.36-3.375h1.984v10.672zm8.28.188q-2.048 0-3.235-1.563-1.172-1.562-1.172-3.953 0-1.547.531-2.813.532-1.28 1.516-1.984 1-.703 2.36-.703 2.015 0 3.218 1.547 1.203 1.531 1.203 3.953 0 2.406-1.203 3.969-1.187 1.547-3.219 1.547m0-2.016q1 0 1.546-.89.563-.907.563-2.61 0-1.734-.563-2.61-.562-.874-1.547-.874t-1.547.875-.562 2.609.547 2.625q.562.875 1.562.875"/><path fill="#4ea5b7" fill-rule="evenodd" d="M756.633 243.58h18.236v36h-18.236z"/><path stroke="#595959" stroke-linecap="butt" stroke-linejoin="round" d="M756.633 243.58h18.236v36h-18.236z"/><path fill="#fff" d="M760.913 267.44v-7.75l-1.782 1.813-1.296-1.36 3.359-3.375h1.984v10.672zm4.076 0v-1.781q3.78-2.813 4.718-3.797t.938-1.844q0-.625-.484-1-.485-.39-1.25-.39-1.657 0-2.86 1.234l-1.297-1.516q.782-.906 1.875-1.312 1.11-.422 2.235-.422 1.812 0 2.937.953 1.14.938 1.14 2.453 0 1.219-.968 2.485-.969 1.25-3.297 2.937h4.344v2z"/><path fill="#4ea5b7" fill-rule="evenodd" d="M720.16 279.58h18.236v36H720.16Z"/><path stroke="#595959" stroke-linecap="butt" stroke-linejoin="round" d="M720.16 279.58h18.236v36H720.16Z"/><path fill="#fff" d="M728.617 303.612q-1.937 0-3.125-1.094l1-1.75q.438.422.922.625t1.203.203q1.188 0 1.922-.828.75-.844.75-2.172v-.25q-.422.61-1.187 1-.75.375-1.563.375-1.594 0-2.625-.937-1.015-.953-1.015-2.531t1.156-2.61q1.156-1.047 2.937-1.047 2.157 0 3.375 1.47 1.22 1.468 1.22 4.046 0 2.547-1.345 4.031-1.343 1.469-3.625 1.469m.563-5.828q1.281 0 2.094-1-.079-.985-.672-1.578-.578-.594-1.5-.594-.797 0-1.344.453t-.547 1.11q0 .734.547 1.171t1.422.438"/><path fill="#e889ab" fill-rule="evenodd" d="M884.287 243.58h36.472v36h-36.472z"/><path stroke="#595959" stroke-linecap="butt" stroke-linejoin="round" d="M884.287 243.58h36.472v36h-36.472z"/><path fill="#fff" d="M899.197 267.44v-7.75l-1.781 1.813-1.297-1.36 3.36-3.375h1.983v10.672zm6.576 0v-7.75l-1.781 1.813-1.297-1.36 3.359-3.375h1.984v10.672z"/><path fill="#e889ab" fill-rule="evenodd" d="M938.995 243.58h7.78v36h-7.78z"/><path stroke="#595959" stroke-linecap="butt" stroke-linejoin="round" d="M938.995 243.58h7.78v36h-7.78z"/><path fill="#4ea5b7" fill-rule="evenodd" d="M938.995 279.58h7.78v36h-7.78z"/><path stroke="#595959" stroke-linecap="butt" stroke-linejoin="round" d="M938.995 279.58h7.78v36h-7.78z"/><path fill="#e889ab" fill-rule="evenodd" d="M920.758 207.58h26.015v36h-26.015Z"/><path stroke="#595959" stroke-linecap="butt" stroke-linejoin="round" d="M920.758 207.58h26.015v36h-26.015Z"/><path fill="#fff" d="M932.488 231.44v-7.75l-1.782 1.813-1.297-1.36 3.36-3.375h1.984v10.672zm6.576 0v-7.75l-1.782 1.813-1.297-1.36 3.36-3.375h1.984v10.672z"/><path fill="#4ea5b7" fill-rule="evenodd" d="M518.018 335.307h127.024v36H518.018Z"/><path stroke="#595959" stroke-linecap="butt" stroke-linejoin="round" d="M518.018 335.307h127.024v36H518.018Z"/><path fill="#fff" d="M533.8 359.167v-10.672h7.547v2h-5.28v2.25h5.171v2h-5.172v4.422zm12.668.188q-1.797 0-2.938-1.141-1.14-1.156-1.14-2.922 0-1.75 1.14-2.89 1.141-1.157 2.938-1.157t2.937 1.156q1.157 1.141 1.157 2.891 0 1.781-1.157 2.922-1.14 1.14-2.937 1.14m0-1.797q.875 0 1.422-.625.562-.64.562-1.64 0-.954-.562-1.595-.547-.64-1.422-.64-.844 0-1.406.625-.563.61-.563 1.61 0 1.03.563 1.655.562.61 1.406.61m5.606 1.61v-7.735h2.031v1.062q.406-.515 1.062-.875.672-.375 1.391-.375v1.985l-.562-.047q-.532 0-1.094.265-.547.25-.797.61v5.11zm12.541 0-1.64-5.267-1.626 5.266h-2.172l-2.359-7.734h2.11l1.437 5.203 1.703-5.203h1.813l1.687 5.203 1.438-5.203h2.109l-2.344 7.734zm10.148 0v-.798q-.844.985-2.438.985-1.125 0-1.906-.704-.781-.718-.781-1.859 0-1.125.734-1.797.75-.687 1.953-.687 1.657 0 2.438.937v-1.031q0-.594-.469-.938-.453-.359-1.219-.359-1.281 0-2.25.906l-.781-1.359q1.422-1.219 3.375-1.219 1.64 0 2.516.766.875.75.875 2.172v4.984zm-1.625-1.188q1.125 0 1.625-.672v-.953q-.5-.672-1.625-.672-.61 0-1.031.312-.422.297-.422.86 0 .53.422.828.421.297 1.03.297m5.688 1.187v-7.734h2.031v1.062q.406-.515 1.063-.875.671-.375 1.39-.375v1.985l-.562-.047q-.532 0-1.094.265-.547.25-.797.61v5.11zm11.057 0v-.984q-.953 1.172-2.375 1.172-1.532 0-2.485-1.094-.937-1.11-.937-2.953 0-1.828.937-2.938.953-1.125 2.485-1.125 1.453 0 2.375 1.188v-3.938h2.062v10.672zm-1.75-1.61q.515 0 1-.25.5-.25.75-.64v-2.734q-.25-.375-.75-.625-.485-.25-1-.25-.86 0-1.407.625-.546.625-.546 1.625 0 .984.515 1.625.531.625 1.438.625m14.331 1.798q-1.484 0-2.375-1.172v3.922h-2.031v-10.672h2.031v.984q.922-1.172 2.375-1.172 1.531 0 2.469 1.078.953 1.078.953 2.97 0 1.858-.938 2.968-.937 1.094-2.484 1.094m-.64-1.797q.874 0 1.406-.625.547-.625.547-1.64 0-1-.547-1.61-.532-.625-1.407-.625-.5 0-1 .265-.484.25-.734.61v2.734q.25.375.734.64.5.25 1 .25m10.187 1.61v-.798q-.844.985-2.438.985-1.125 0-1.906-.704-.781-.718-.781-1.859 0-1.125.734-1.797.75-.687 1.953-.687 1.657 0 2.438.937v-1.031q0-.594-.469-.938-.453-.359-1.219-.359-1.28 0-2.25.906l-.78-1.359q1.421-1.219 3.374-1.219 1.64 0 2.516.766.875.75.875 2.172v4.984zm-1.625-1.188q1.125 0 1.625-.672v-.953q-.5-.672-1.625-.672-.61 0-1.031.312-.422.297-.422.86 0 .53.422.828.421.297 1.03.297m8.47 1.375q-1.017 0-1.938-.313-.922-.328-1.516-.89l.875-1.422q.469.437 1.234.75.766.312 1.438.312 1.297 0 1.297-.828 0-.328-.344-.484-.344-.157-.844-.266l-1.11-.234q-2.296-.5-2.296-2.297 0-1.078.89-1.75.891-.688 2.282-.688 1.797 0 3.11 1.063l-.813 1.39q-.344-.375-.953-.64-.61-.266-1.329-.266-.562 0-.89.234-.328.22-.328.547 0 .282.328.422.344.14.844.25.515.11 1.109.25.594.125 1.11.406.515.266.843.735.344.453.344 1.25 0 1.11-.922 1.797-.906.672-2.422.672m7.631 0q-1.015 0-1.937-.313-.922-.328-1.516-.89l.875-1.422q.469.437 1.234.75.766.312 1.438.312 1.297 0 1.297-.828 0-.328-.344-.484-.344-.157-.844-.266l-1.11-.234q-2.296-.5-2.296-2.297 0-1.078.89-1.75.891-.688 2.282-.688 1.797 0 3.11 1.063l-.813 1.39q-.344-.375-.953-.64-.61-.266-1.328-.266-.563 0-.891.234-.328.22-.328.547 0 .282.328.422.344.14.844.25.515.11 1.109.25.594.125 1.11.406.515.266.843.735.344.453.344 1.25 0 1.11-.922 1.797-.906.672-2.422.672"/><path fill="#e889ab" fill-rule="evenodd" d="M669.164 335.307h127.024v36H669.164Z"/><path stroke="#595959" stroke-linecap="butt" stroke-linejoin="round" d="M669.164 335.307h127.024v36H669.164Z"/><path fill="#fff" d="M679.066 359.167v-10.672h5.61q1.39 0 2.234.75t.844 1.969q0 .969-.531 1.64-.516.657-1.313.813.828.125 1.438.86.609.734.609 1.765 0 1.281-.844 2.078-.828.797-2.265.797zm5.11-6.406q.578 0 .906-.313.344-.328.344-.828 0-.515-.344-.844-.328-.328-.906-.328h-2.844v2.313zm.078 4.437q.656 0 1.015-.328.36-.328.36-.906 0-.516-.36-.875-.343-.375-1.015-.375h-2.922v2.484zm9.998 1.97v-.798q-.843.985-2.437.985-1.125 0-1.906-.704-.782-.718-.782-1.859 0-1.125.735-1.797.75-.687 1.953-.687 1.656 0 2.437.937v-1.031q0-.594-.468-.938-.453-.359-1.219-.359-1.281 0-2.25.906l-.781-1.359q1.422-1.219 3.375-1.219 1.64 0 2.515.766.875.75.875 2.172v4.984zm-1.625-1.188q1.125 0 1.625-.672v-.953q-.5-.672-1.625-.672-.609 0-1.03.312-.423.297-.423.86 0 .53.422.828t1.031.297m9.282 1.375q-1.828 0-2.968-1.141-1.125-1.156-1.125-2.922 0-1.734 1.125-2.89 1.14-1.157 2.968-1.157 1.188 0 1.922.438.75.422 1.125.953l-1.312 1.25q-.563-.828-1.641-.828-.922 0-1.516.625-.578.61-.578 1.61 0 1.015.578 1.64.594.625 1.516.625 1.047 0 1.64-.844l1.313 1.234q-.375.547-1.125.985-.734.422-1.922.422m9.39-.188-2.046-2.969-.922.985v1.984H706.3v-10.672h2.03v6.39l2.923-3.452h2.5l-3.063 3.515 3.156 4.22zm10.342 0-1.64-5.266-1.626 5.266h-2.172l-2.36-7.734h2.11l1.438 5.203 1.703-5.203h1.812l1.688 5.203 1.437-5.203h2.11l-2.344 7.734zm10.148 0v-.797q-.844.985-2.438.985-1.125 0-1.906-.704-.781-.718-.781-1.859 0-1.125.734-1.797.75-.687 1.953-.687 1.656 0 2.438.937v-1.031q0-.594-.47-.938-.452-.359-1.218-.359-1.281 0-2.25.906l-.781-1.359q1.422-1.219 3.375-1.219 1.64 0 2.515.766.875.75.875 2.172v4.984zm-1.625-1.187q1.125 0 1.625-.672v-.953q-.5-.672-1.625-.672-.61 0-1.032.312-.422.297-.422.86 0 .53.422.828t1.032.297m5.688 1.187v-7.734h2.03v1.062q.407-.515 1.063-.875.672-.375 1.391-.375v1.985l-.563-.047q-.53 0-1.093.265-.547.25-.797.61v5.11zm11.056 0v-.984q-.953 1.172-2.375 1.172-1.53 0-2.484-1.094-.937-1.11-.937-2.953 0-1.828.937-2.938.953-1.125 2.484-1.125 1.454 0 2.375 1.188v-3.938h2.063v10.672zm-1.75-1.61q.516 0 1-.25.5-.25.75-.64v-2.734q-.25-.375-.75-.625-.484-.25-1-.25-.859 0-1.406.625t-.547 1.625q0 .984.516 1.625.531.625 1.437.625m14.332 1.798q-1.485 0-2.375-1.172v3.922h-2.031v-10.672h2.03v.984q.923-1.172 2.376-1.172 1.531 0 2.469 1.078.953 1.078.953 2.97 0 1.858-.938 2.968-.937 1.094-2.484 1.094m-.64-1.797q.874 0 1.405-.625.547-.625.547-1.64 0-1-.547-1.61-.53-.625-1.406-.625-.5 0-1 .265-.484.25-.734.61v2.734q.25.375.734.64.5.25 1 .25m10.187 1.61v-.798q-.844.985-2.438.985-1.125 0-1.906-.704-.781-.718-.781-1.859 0-1.125.734-1.797.75-.687 1.953-.687 1.656 0 2.438.937v-1.031q0-.594-.47-.938-.452-.359-1.218-.359-1.281 0-2.25.906l-.781-1.359q1.422-1.219 3.375-1.219 1.64 0 2.516.766.875.75.875 2.172v4.984zm-1.625-1.188q1.125 0 1.625-.672v-.953q-.5-.672-1.625-.672-.61 0-1.032.312-.421.297-.421.86 0 .53.421.828.422.297 1.032.297m8.469 1.375q-1.016 0-1.938-.313-.921-.328-1.515-.89l.875-1.422q.469.437 1.234.75.766.312 1.438.312 1.297 0 1.297-.828 0-.328-.344-.484-.344-.157-.844-.266l-1.11-.234q-2.296-.5-2.296-2.297 0-1.078.89-1.75.891-.688 2.282-.688 1.797 0 3.109 1.063l-.812 1.39q-.344-.375-.954-.64-.609-.266-1.328-.266-.562 0-.89.234-.328.22-.328.547 0 .282.328.422.343.14.843.25.516.11 1.11.25.594.125 1.11.406.515.266.843.735.344.453.344 1.25 0 1.11-.922 1.797-.906.672-2.422.672m7.632 0q-1.016 0-1.938-.313-.921-.328-1.515-.89l.875-1.422q.469.437 1.234.75.766.312 1.438.312 1.297 0 1.297-.828 0-.328-.344-.484-.344-.157-.844-.266l-1.11-.234q-2.296-.5-2.296-2.297 0-1.078.89-1.75.891-.688 2.282-.688 1.797 0 3.11 1.063l-.813 1.39q-.344-.375-.954-.64-.609-.266-1.328-.266-.562 0-.89.234-.328.22-.328.547 0 .282.328.422.343.14.843.25.516.11 1.11.25.594.125 1.11.406.515.266.843.735.344.453.344 1.25 0 1.11-.922 1.797-.906.672-2.422.672"/><path fill="#efefef" fill-rule="evenodd" d="M820.312 335.307h127.024v36H820.312Z"/><path stroke="#595959" stroke-linecap="butt" stroke-linejoin="round" d="M820.312 335.307h127.024v36H820.312Z"/><path fill="#000" d="M844.967 359.167v-10.672h4.203q2.53 0 4.093 1.469t1.563 3.875q0 2.39-1.563 3.86-1.562 1.468-4.093 1.468zm4.203-2q1.484 0 2.406-.937.937-.938.937-2.391 0-1.516-.89-2.422-.89-.922-2.453-.922h-1.938v6.672zm10.863 2.188q-1.828 0-2.985-1.125-1.14-1.125-1.14-2.938 0-1.719 1.14-2.875 1.141-1.172 2.86-1.172 1.703 0 2.781 1.188 1.094 1.172 1.094 3.078v.437h-5.75q.093.735.656 1.266.578.531 1.562.531.485 0 1.079-.203.593-.203.984-.562l.906 1.312q-.578.516-1.437.797-.844.266-1.75.266m1.781-4.782q-.047-.765-.578-1.234t-1.328-.469-1.313.485-.594 1.218zm5.442 4.594-3.11-7.734h2.172l2.016 5.375 2.015-5.375h2.188l-3.094 7.734zm7.208-8.562q-.5 0-.86-.344-.359-.36-.359-.875 0-.5.36-.844.359-.344.859-.344.515 0 .86.344.358.344.358.844 0 .515-.359.875-.344.344-.86.344m-1 8.562v-7.734h2.031v7.734zm7.642.188q-1.829 0-2.97-1.141-1.124-1.156-1.124-2.922 0-1.734 1.125-2.89 1.14-1.157 2.969-1.157 1.187 0 1.921.438.75.422 1.125.953l-1.312 1.25q-.563-.828-1.64-.828-.923 0-1.516.625-.578.61-.578 1.61 0 1.015.578 1.64.593.625 1.515.625 1.047 0 1.64-.844l1.313 1.234q-.375.547-1.125.985-.734.422-1.921.422m8.015 0q-1.828 0-2.985-1.125-1.14-1.125-1.14-2.938 0-1.719 1.14-2.875 1.141-1.172 2.86-1.172 1.703 0 2.781 1.188 1.094 1.172 1.094 3.078v.437h-5.75q.093.735.656 1.266.578.531 1.563.531.484 0 1.078-.203.593-.203.984-.562l.906 1.312q-.578.516-1.437.797-.844.266-1.75.266m1.781-4.782q-.047-.765-.578-1.234t-1.328-.469-1.313.485-.593 1.218zm8.538-3.968q-.5 0-.86-.344-.359-.36-.359-.875 0-.5.36-.844.359-.344.859-.344.515 0 .86.344.359.344.359.844 0 .515-.36.875-.344.344-.86.344m-1 8.562v-7.734h2.031v7.734zm9.345 0v-.984q-.953 1.172-2.375 1.172-1.532 0-2.485-1.094-.937-1.11-.937-2.953 0-1.828.937-2.938.953-1.125 2.485-1.125 1.453 0 2.375 1.188v-3.938h2.062v10.672zm-1.75-1.61q.515 0 1-.25.5-.25.75-.64v-2.734q-.25-.375-.75-.625-.485-.25-1-.25-.86 0-1.407.625-.546.625-.546 1.625 0 .984.515 1.625.531.625 1.438.625m5.829 1.61v-10.672h2.031v10.672zm7.673.188q-1.828 0-2.985-1.125-1.14-1.125-1.14-2.938 0-1.719 1.14-2.875 1.141-1.172 2.86-1.172 1.703 0 2.781 1.188 1.094 1.172 1.094 3.078v.437h-5.75q.093.735.656 1.266.578.531 1.563.531.484 0 1.078-.203.593-.203.984-.562l.906 1.312q-.578.516-1.437.797-.844.266-1.75.266m1.781-4.782q-.047-.765-.578-1.234t-1.328-.469-1.313.485-.593 1.218z"/><path fill="#4ea5b7" fill-rule="evenodd" d="M173.04 279.579h18.236v36h-18.237z"/><path stroke="#595959" stroke-linecap="butt" stroke-linejoin="round" d="M173.04 279.579h18.236v36h-18.237z"/><path fill="#fff" d="M178.107 303.439v-1.781q3.782-2.813 4.72-3.797.937-.985.937-1.844 0-.625-.485-1-.484-.39-1.25-.39-1.656 0-2.859 1.234l-1.297-1.516q.781-.906 1.875-1.312 1.11-.422 2.234-.422 1.813 0 2.938.953 1.14.937 1.14 2.453 0 1.219-.968 2.484-.969 1.25-3.297 2.938h4.344v2z"/><path fill="#4ea5b7" fill-rule="evenodd" d="M227.717 279.58h18.236v36h-18.236z"/><path stroke="#595959" stroke-linecap="butt" stroke-linejoin="round" d="M227.717 279.58h18.236v36h-18.236z"/><path fill="#fff" d="M236.67 303.628q-1.484 0-2.563-.485-1.062-.5-1.656-1.219l1.188-1.53q.562.577 1.359.905.797.313 1.594.313.969 0 1.484-.375.531-.375.531-.984 0-.641-.515-.938-.516-.297-1.64-.297h-.36l-.969.031v-2.046l.594.015h.734q1.969 0 1.969-1.125 0-.64-.563-.953t-1.421-.313q-1.547 0-2.704 1.094l-1.125-1.422q1.5-1.687 4.079-1.687 1.89 0 2.953.781 1.078.781 1.078 2.11 0 .89-.672 1.578-.656.671-1.672.859 1.11.125 1.797.86.703.718.703 1.702 0 1.407-1.172 2.266-1.156.86-3.031.86"/><path fill="#4ea5b7" fill-rule="evenodd" d="M282.436 279.58h18.236v36h-18.236Z"/><path stroke="#595959" stroke-linecap="butt" stroke-linejoin="round" d="M282.436 279.58h18.236v36h-18.236Z"/><path fill="#fff" d="M292.278 303.44v-2.203h-5.094v-1.797l4.234-6.672h3.141v6.469h1.375v2h-1.375v2.203zm0-8.656-2.875 4.453h2.875z"/><path fill="#4ea5b7" fill-rule="evenodd" d="M337.131 279.58h18.236v36h-18.236z"/><path stroke="#595959" stroke-linecap="butt" stroke-linejoin="round" d="M337.131 279.58h18.236v36h-18.236z"/><path fill="#fff" d="M346.276 303.628q-2.656 0-4.11-1.594l1.266-1.578q1.14 1.156 2.828 1.156.97 0 1.47-.453.515-.469.515-1.125 0-.719-.5-1.14-.5-.438-1.422-.438-1.344 0-2.235.86l-1.578-.423v-6.125h7.328v2h-5.062v2.61q.39-.391 1-.641.625-.25 1.36-.25 1.437 0 2.421.953 1 .953 1 2.5 0 1.688-1.156 2.688t-3.125 1"/><path fill="#4ea5b7" fill-rule="evenodd" d="M391.852 279.58h18.236v36h-18.236Z"/><path stroke="#595959" stroke-linecap="butt" stroke-linejoin="round" d="M391.852 279.58h18.236v36h-18.236Z"/><path fill="#fff" d="M401.262 303.628q-2.172 0-3.39-1.454-1.22-1.453-1.22-4.046 0-2.485 1.329-4t3.64-1.516q1.875 0 3.157 1.094l-1.032 1.75q-.421-.422-.921-.625-.485-.203-1.204-.203-1.156 0-1.921.875-.75.859-.75 2.14l.015.235q.453-.625 1.188-1 .75-.375 1.547-.375 1.593 0 2.609.953 1.031.953 1.031 2.515 0 1.594-1.156 2.625-1.14 1.032-2.922 1.032m-.125-2.016q.844 0 1.36-.469.53-.469.53-1.094 0-.734-.546-1.156-.531-.437-1.438-.437-1.281 0-2.078 1 .078.953.64 1.562.563.594 1.532.594"/><path fill="#4ea5b7" fill-rule="evenodd" d="M446.547 279.58h18.236v36h-18.236z"/><path stroke="#595959" stroke-linecap="butt" stroke-linejoin="round" d="M446.547 279.58h18.236v36h-18.236z"/><path fill="#fff" d="m453.243 303.44 3.828-8.672h-5.375v-2h8.016v1.578l-3.97 9.094z"/><path fill="#4ea5b7" fill-rule="evenodd" d="M501.298 279.58h18.236v36h-18.236Z"/><path stroke="#595959" stroke-linecap="butt" stroke-linejoin="round" d="M501.298 279.58h18.236v36h-18.236Z"/><path fill="#fff" d="M510.412 303.628q-1.875 0-3.078-.797-1.204-.797-1.204-2.157 0-.921.61-1.64.625-.719 1.672-1.094-2.11-.75-2.11-2.516 0-1.328 1.157-2.062 1.171-.75 2.953-.75 1.812 0 2.953.766 1.156.75 1.156 2.046 0 1.75-2.125 2.516 1.094.39 1.703 1.125.61.734.61 1.61 0 1.359-1.22 2.156-1.202.797-3.077.797m0-6.594q.765-.094 1.281-.438.516-.36.516-.812 0-.578-.516-.89-.5-.329-1.281-.329-.797 0-1.297.328-.5.313-.5.89 0 .423.5.782t1.297.469m0 4.64q.86 0 1.422-.375t.562-.921q0-.5-.594-.907-.593-.406-1.39-.515-.766.093-1.375.5-.61.406-.61.922 0 .593.563.953.578.343 1.422.343"/><path fill="#e889ab" fill-rule="evenodd" d="M738.413 279.58h36.472v36h-36.472z"/><path stroke="#595959" stroke-linecap="butt" stroke-linejoin="round" d="M738.413 279.58h36.472v36h-36.472z"/><path fill="#fff" d="M755.988 303.612q-1.938 0-3.125-1.094l1-1.75q.437.422.922.625.484.203 1.203.203 1.187 0 1.922-.828.75-.844.75-2.172v-.25q-.422.61-1.188 1-.75.375-1.562.375-1.594 0-2.625-.937-1.016-.953-1.016-2.531t1.156-2.61q1.157-1.047 2.938-1.047 2.156 0 3.375 1.47 1.219 1.468 1.219 4.046 0 2.547-1.344 4.031-1.344 1.469-3.625 1.469m.562-5.828q1.282 0 2.094-1-.078-.985-.672-1.578-.578-.594-1.5-.594-.797 0-1.344.453-.546.453-.546 1.11 0 .734.546 1.171.547.438 1.422.438"/><path fill="#e889ab" fill-rule="evenodd" d="M847.802 279.58h36.473v36h-36.473Z"/><path stroke="#595959" stroke-linecap="butt" stroke-linejoin="round" d="M847.802 279.58h36.473v36h-36.473Z"/><path fill="#fff" d="M862.713 303.44v-7.75l-1.782 1.813-1.296-1.36 3.359-3.375h1.984v10.672zm6.576 0v-7.75l-1.782 1.813-1.296-1.36 3.359-3.375h1.984v10.672z"/><path fill="#e889ab" fill-rule="evenodd" d="M793.084 279.58h36.472v36h-36.472z"/><path stroke="#595959" stroke-linecap="butt" stroke-linejoin="round" d="M793.084 279.58h36.472v36h-36.472z"/><path fill="#fff" d="M806.322 303.44v-7.75l-1.781 1.813-1.297-1.36 3.36-3.375h1.984v10.672zm8.28.188q-2.048 0-3.235-1.563-1.172-1.562-1.172-3.953 0-1.547.531-2.813.531-1.28 1.516-1.984 1-.703 2.36-.703 2.015 0 3.218 1.547 1.203 1.531 1.203 3.953 0 2.406-1.203 3.969-1.188 1.547-3.219 1.547m0-2.016q1 0 1.546-.89.563-.907.563-2.61 0-1.734-.563-2.61-.562-.874-1.547-.874t-1.547.875-.562 2.609.547 2.625q.562.875 1.562.875"/><path fill="#e889ab" fill-rule="evenodd" d="M902.521 279.58h36.472v36h-36.472z"/><path stroke="#595959" stroke-linecap="butt" stroke-linejoin="round" d="M902.521 279.58h36.472v36h-36.472z"/><path fill="#fff" d="M915.92 303.44v-7.75l-1.782 1.813-1.297-1.36 3.36-3.375h1.984v10.672zm4.075 0v-1.781q3.781-2.813 4.719-3.797.937-.984.937-1.844 0-.625-.484-1-.484-.39-1.25-.39-1.656 0-2.86 1.234l-1.296-1.516q.781-.906 1.875-1.312 1.11-.422 2.234-.422 1.813 0 2.938.953 1.14.938 1.14 2.453 0 1.219-.968 2.485-.97 1.25-3.297 2.937h4.343v2z"/><path fill="#4ea5b7" fill-rule="evenodd" d="M774.908 279.579h18.236v36h-18.236z"/><path stroke="#595959" stroke-linecap="butt" stroke-linejoin="round" d="M774.908 279.579h18.236v36h-18.236z"/><path fill="#fff" d="M779.028 303.439v-7.75l-1.781 1.812-1.297-1.36 3.36-3.374h1.984v10.672zm8.28.187q-2.048 0-3.235-1.562-1.172-1.563-1.172-3.953 0-1.547.531-2.813.532-1.281 1.516-1.984 1-.703 2.36-.703 2.015 0 3.218 1.547 1.203 1.53 1.203 3.953 0 2.406-1.203 3.968-1.187 1.547-3.219 1.547m0-2.015q1 0 1.546-.891.563-.906.563-2.61 0-1.734-.563-2.609t-1.547-.875-1.547.875-.562 2.61.547 2.625q.562.875 1.562.875"/><path fill="#4ea5b7" fill-rule="evenodd" d="M829.585 279.58h18.237v36h-18.237Z"/><path stroke="#595959" stroke-linecap="butt" stroke-linejoin="round" d="M829.585 279.58h18.237v36h-18.237Z"/><path fill="#fff" d="M835.377 303.44v-7.75l-1.78 1.813-1.298-1.36 3.36-3.375h1.984v10.672zm6.576 0v-7.75l-1.78 1.813-1.298-1.36 3.36-3.375h1.984v10.672z"/><path fill="#4ea5b7" fill-rule="evenodd" d="M884.304 279.58h18.237v36h-18.237z"/><path stroke="#595959" stroke-linecap="butt" stroke-linejoin="round" d="M884.304 279.58h18.237v36h-18.237z"/><path fill="#fff" d="M888.585 303.44v-7.75l-1.782 1.813-1.297-1.36 3.36-3.375h1.984v10.672zm4.076 0v-1.781q3.78-2.813 4.718-3.797t.938-1.844q0-.625-.485-1-.484-.39-1.25-.39-1.656 0-2.859 1.234l-1.297-1.516q.781-.906 1.875-1.312 1.11-.422 2.235-.422 1.812 0 2.937.953 1.14.938 1.14 2.453 0 1.219-.968 2.485-.969 1.25-3.297 2.937h4.344v2z"/><path fill="#e889ab" fill-rule="evenodd" d="M172.993 243.58h36.472v36h-36.472Z"/><path stroke="#595959" stroke-linecap="butt" stroke-linejoin="round" d="M172.993 243.58h36.472v36h-36.472Z"/><path fill="#fff" d="M191.19 267.44v-7.75l-1.78 1.813-1.297-1.36 3.36-3.375h1.983v10.672z"/><path fill="#e889ab" fill-rule="evenodd" d="M282.383 243.58h36.472v36h-36.473Z"/><path stroke="#595959" stroke-linecap="butt" stroke-linejoin="round" d="M282.383 243.58h36.472v36h-36.473Z"/><path fill="#fff" d="M300.454 267.628q-1.484 0-2.563-.485-1.062-.5-1.656-1.219l1.188-1.53q.562.577 1.36.905.796.313 1.593.313.969 0 1.484-.375.531-.375.531-.984 0-.641-.515-.938-.516-.297-1.64-.297h-.36l-.969.031v-2.046l.594.015h.734q1.969 0 1.969-1.125 0-.64-.563-.953t-1.421-.313q-1.547 0-2.704 1.094l-1.125-1.422q1.5-1.687 4.079-1.687 1.89 0 2.953.781 1.078.781 1.078 2.11 0 .89-.672 1.578-.656.671-1.672.859 1.11.125 1.797.86.703.718.703 1.702 0 1.407-1.172 2.266-1.156.86-3.031.86"/><path fill="#e889ab" fill-rule="evenodd" d="M227.664 243.58h36.472v36h-36.472z"/><path stroke="#595959" stroke-linecap="butt" stroke-linejoin="round" d="M227.664 243.58h36.472v36h-36.472z"/><path fill="#fff" d="M241.85 267.44v-1.781q3.781-2.813 4.719-3.797.937-.984.937-1.844 0-.625-.484-1-.484-.39-1.25-.39-1.656 0-2.86 1.234l-1.296-1.516q.781-.906 1.875-1.312 1.11-.422 2.234-.422 1.813 0 2.938.953 1.14.938 1.14 2.453 0 1.219-.968 2.485-.97 1.25-3.297 2.937h4.343v2z"/><path fill="#e889ab" fill-rule="evenodd" d="M337.101 243.58h36.473v36H337.1Z"/><path stroke="#595959" stroke-linecap="butt" stroke-linejoin="round" d="M337.101 243.58h36.473v36H337.1Z"/><path fill="#fff" d="M356.061 267.44v-2.203h-5.093v-1.797l4.234-6.672h3.14v6.469h1.376v2h-1.375v2.203zm0-8.656-2.875 4.453h2.875z"/><path fill="#e889ab" fill-rule="evenodd" d="M391.775 243.58h36.472v36h-36.472z"/><path stroke="#595959" stroke-linecap="butt" stroke-linejoin="round" d="M391.775 243.58h36.472v36h-36.472z"/><path fill="#fff" d="M410.038 267.628q-2.656 0-4.11-1.594l1.266-1.578q1.14 1.156 2.828 1.156.969 0 1.469-.453.516-.469.516-1.125 0-.719-.5-1.14-.5-.438-1.422-.438-1.344 0-2.235.86l-1.578-.423v-6.125h7.328v2h-5.062v2.61q.39-.391 1-.641.625-.25 1.36-.25 1.437 0 2.421.953 1 .953 1 2.5 0 1.688-1.156 2.688t-3.125 1"/><path fill="#e889ab" fill-rule="evenodd" d="M446.542 243.58h36.473v36h-36.473z"/><path stroke="#595959" stroke-linecap="butt" stroke-linejoin="round" d="M446.542 243.58h36.473v36h-36.473z"/><path fill="#fff" d="M465.07 267.628q-2.171 0-3.39-1.454t-1.219-4.046q0-2.485 1.328-4t3.641-1.516q1.875 0 3.156 1.094l-1.031 1.75q-.422-.422-.922-.625-.484-.203-1.203-.203-1.156 0-1.922.875-.75.859-.75 2.14l.016.235q.453-.625 1.187-1 .75-.375 1.547-.375 1.594 0 2.61.953 1.03.953 1.03 2.515 0 1.594-1.156 2.625-1.14 1.032-2.921 1.032m-.124-2.016q.843 0 1.359-.469.531-.469.531-1.094 0-.734-.547-1.156-.53-.437-1.437-.437-1.281 0-2.078 1 .078.953.64 1.562.563.594 1.532.594"/><path fill="#e889ab" fill-rule="evenodd" d="M501.262 243.58h36.473v36h-36.473Z"/><path stroke="#595959" stroke-linecap="butt" stroke-linejoin="round" d="M501.262 243.58h36.473v36h-36.473Z"/><path fill="#fff" d="m517.076 267.44 3.828-8.672h-5.375v-2h8.016v1.578l-3.97 9.094z"/><path fill="#e889ab" fill-rule="evenodd" d="M555.98 243.58h36.473v36h-36.472z"/><path stroke="#595959" stroke-linecap="butt" stroke-linejoin="round" d="M555.98 243.58h36.473v36h-36.472z"/><path fill="#fff" d="M574.213 267.628q-1.875 0-3.078-.797-1.204-.797-1.204-2.157 0-.921.61-1.64.625-.719 1.672-1.094-2.11-.75-2.11-2.516 0-1.328 1.157-2.062 1.171-.75 2.953-.75 1.812 0 2.953.766 1.156.75 1.156 2.046 0 1.75-2.125 2.516 1.094.39 1.703 1.125.61.734.61 1.61 0 1.359-1.22 2.156-1.202.797-3.077.797m0-6.594q.765-.094 1.28-.438.517-.36.517-.812 0-.578-.516-.89-.5-.329-1.281-.329-.797 0-1.297.328-.5.313-.5.89 0 .423.5.782t1.297.469m0 4.64q.859 0 1.422-.375t.562-.921q0-.5-.594-.907-.593-.406-1.39-.515-.766.093-1.375.5-.61.406-.61.922 0 .593.563.953.578.343 1.422.343"/><path fill="#4ea5b7" fill-rule="evenodd" d="M318.885 243.58h18.236v36h-18.236z"/><path stroke="#595959" stroke-linecap="butt" stroke-linejoin="round" d="M318.885 243.58h18.236v36h-18.236z"/><path fill="#fff" d="M328.03 267.628q-2.657 0-4.11-1.594l1.265-1.578q1.141 1.156 2.829 1.156.968 0 1.468-.453.516-.469.516-1.125 0-.719-.5-1.14-.5-.438-1.422-.438-1.344 0-2.234.86l-1.578-.423v-6.125h7.328v2h-5.063v2.61q.39-.391 1-.641.625-.25 1.36-.25 1.437 0 2.421.953 1 .953 1 2.5 0 1.688-1.156 2.688t-3.125 1"/><path fill="#4ea5b7" fill-rule="evenodd" d="M373.58 243.58h18.236v36H373.58z"/><path stroke="#595959" stroke-linecap="butt" stroke-linejoin="round" d="M373.58 243.58h18.236v36H373.58z"/><path fill="#fff" d="M382.99 267.628q-2.171 0-3.39-1.454t-1.219-4.046q0-2.485 1.328-4t3.64-1.516q1.876 0 3.157 1.094l-1.031 1.75q-.422-.422-.922-.625-.484-.203-1.203-.203-1.156 0-1.922.875-.75.859-.75 2.14l.016.235q.453-.625 1.187-1 .75-.375 1.547-.375 1.594 0 2.61.953 1.03.953 1.03 2.515 0 1.594-1.156 2.625-1.14 1.032-2.922 1.032m-.125-2.016q.844 0 1.36-.469.531-.469.531-1.094 0-.734-.547-1.156-.531-.437-1.437-.437-1.282 0-2.078 1 .078.953.64 1.562.563.594 1.531.594"/><path fill="#4ea5b7" fill-rule="evenodd" d="M428.3 243.58h18.237v36H428.3z"/><path stroke="#595959" stroke-linecap="butt" stroke-linejoin="round" d="M428.3 243.58h18.237v36H428.3z"/><path fill="#fff" d="m434.996 267.44 3.828-8.672h-5.375v-2h8.016v1.578l-3.969 9.094z"/><path fill="#4ea5b7" fill-rule="evenodd" d="M482.996 243.58h18.236v36h-18.236z"/><path stroke="#595959" stroke-linecap="butt" stroke-linejoin="round" d="M482.996 243.58h18.236v36h-18.236z"/><path fill="#fff" d="M492.11 267.628q-1.875 0-3.078-.797t-1.203-2.157q0-.921.609-1.64.625-.719 1.672-1.094-2.11-.75-2.11-2.516 0-1.328 1.157-2.062 1.172-.75 2.953-.75 1.812 0 2.953.766 1.156.75 1.156 2.046 0 1.75-2.125 2.516 1.094.39 1.703 1.125.61.734.61 1.61 0 1.359-1.219 2.156-1.203.797-3.078.797m0-6.594q.766-.094 1.281-.438.516-.36.516-.812 0-.578-.516-.89-.5-.329-1.281-.329-.797 0-1.297.328-.5.313-.5.89 0 .423.5.782t1.297.469m0 4.64q.86 0 1.422-.375t.562-.921q0-.5-.593-.907-.594-.406-1.391-.515-.766.093-1.375.5-.61.406-.61.922 0 .593.563.953.578.343 1.422.343"/><path fill="#e889ab" fill-rule="evenodd" d="M209.491 207.58h36.473v36H209.49z"/><path stroke="#595959" stroke-linecap="butt" stroke-linejoin="round" d="M209.491 207.58h36.473v36H209.49z"/><path fill="#fff" d="M227.69 231.44v-7.75l-1.782 1.813-1.297-1.36 3.36-3.375h1.984v10.672z"/><path fill="#e889ab" fill-rule="evenodd" d="M318.881 207.58h36.473v36H318.88Z"/><path stroke="#595959" stroke-linecap="butt" stroke-linejoin="round" d="M318.881 207.58h36.473v36H318.88Z"/><path fill="#fff" d="M336.953 231.628q-1.485 0-2.563-.485-1.062-.5-1.656-1.219l1.187-1.53q.563.577 1.36.905.797.313 1.594.313.968 0 1.484-.375.531-.375.531-.984 0-.641-.515-.938-.516-.297-1.641-.297h-.36l-.968.031v-2.046l.594.015h.734q1.969 0 1.969-1.125 0-.64-.563-.953t-1.422-.313q-1.547 0-2.703 1.094l-1.125-1.422q1.5-1.687 4.078-1.687 1.89 0 2.953.781 1.079.781 1.079 2.11 0 .89-.672 1.578-.657.671-1.672.859 1.11.125 1.797.86.703.718.703 1.702 0 1.407-1.172 2.266-1.156.86-3.031.86"/><path fill="#e889ab" fill-rule="evenodd" d="M264.163 207.58h36.472v36h-36.472z"/><path stroke="#595959" stroke-linecap="butt" stroke-linejoin="round" d="M264.163 207.58h36.472v36h-36.472z"/><path fill="#fff" d="M278.349 231.44v-1.781q3.781-2.813 4.719-3.797.937-.984.937-1.844 0-.625-.484-1-.485-.39-1.25-.39-1.657 0-2.86 1.234l-1.297-1.516q.782-.906 1.875-1.312 1.11-.422 2.235-.422 1.812 0 2.937.953 1.14.938 1.14 2.453 0 1.219-.968 2.485-.969 1.25-3.297 2.937h4.344v2z"/><path fill="#e889ab" fill-rule="evenodd" d="M373.6 207.58h36.472v36H373.6Z"/><path stroke="#595959" stroke-linecap="butt" stroke-linejoin="round" d="M373.6 207.58h36.472v36H373.6Z"/><path fill="#fff" d="M392.56 231.44v-2.203h-5.094v-1.797l4.235-6.672h3.14v6.469h1.375v2h-1.375v2.203zm0-8.656-2.875 4.453h2.875z"/><path fill="#e889ab" fill-rule="evenodd" d="M428.274 207.58h36.472v36h-36.472z"/><path stroke="#595959" stroke-linecap="butt" stroke-linejoin="round" d="M428.274 207.58h36.472v36h-36.472z"/><path fill="#fff" d="M446.537 231.628q-2.657 0-4.11-1.594l1.266-1.578q1.14 1.156 2.828 1.156.969 0 1.469-.453.515-.469.515-1.125 0-.719-.5-1.14-.5-.438-1.422-.438-1.343 0-2.234.86l-1.578-.423v-6.125h7.328v2h-5.062v2.61q.39-.391 1-.641.625-.25 1.359-.25 1.437 0 2.422.953 1 .953 1 2.5 0 1.688-1.156 2.688-1.157 1-3.125 1"/><path fill="#e889ab" fill-rule="evenodd" d="M483.04 207.58h36.473v36h-36.472z"/><path stroke="#595959" stroke-linecap="butt" stroke-linejoin="round" d="M483.04 207.58h36.473v36h-36.472z"/><path fill="#fff" d="M501.57 231.628q-2.173 0-3.391-1.454-1.219-1.453-1.219-4.046 0-2.485 1.328-4t3.64-1.516q1.876 0 3.157 1.094l-1.031 1.75q-.422-.422-.922-.625-.485-.203-1.203-.203-1.157 0-1.922.875-.75.859-.75 2.14l.015.235q.454-.625 1.188-1 .75-.375 1.547-.375 1.594 0 2.61.953 1.03.953 1.03 2.515 0 1.594-1.156 2.625-1.14 1.032-2.922 1.032m-.126-2.016q.844 0 1.36-.469.531-.469.531-1.094 0-.734-.547-1.156-.531-.437-1.437-.437-1.282 0-2.079 1 .079.953.641 1.562.563.594 1.531.594"/><path fill="#e889ab" fill-rule="evenodd" d="M537.76 207.58h36.473v36h-36.472z"/><path stroke="#595959" stroke-linecap="butt" stroke-linejoin="round" d="M537.76 207.58h36.473v36h-36.472z"/><path fill="#fff" d="m553.574 231.44 3.829-8.672h-5.375v-2h8.015v1.578l-3.969 9.094z"/><path fill="#e889ab" fill-rule="evenodd" d="M592.48 207.58h36.472v36h-36.473Z"/><path stroke="#595959" stroke-linecap="butt" stroke-linejoin="round" d="M592.48 207.58h36.472v36h-36.473Z"/><path fill="#fff" d="M610.711 231.628q-1.875 0-3.078-.797t-1.203-2.157q0-.921.61-1.64.624-.719 1.671-1.094-2.11-.75-2.11-2.516 0-1.328 1.157-2.062 1.172-.75 2.953-.75 1.813 0 2.953.766 1.157.75 1.157 2.046 0 1.75-2.125 2.516 1.093.39 1.703 1.125.61.734.61 1.61 0 1.359-1.22 2.156-1.203.797-3.078.797m0-6.594q.766-.094 1.282-.438.515-.36.515-.812 0-.578-.515-.89-.5-.329-1.282-.329-.797 0-1.297.328-.5.313-.5.89 0 .423.5.782t1.297.469m0 4.64q.86 0 1.422-.375.563-.375.563-.921 0-.5-.594-.907-.594-.406-1.39-.515-.766.093-1.376.5-.61.406-.61.922 0 .593.563.953.579.343 1.422.343"/><path fill="#4ea5b7" fill-rule="evenodd" d="M300.664 207.58H318.9v36h-18.236z"/><path stroke="#595959" stroke-linecap="butt" stroke-linejoin="round" d="M300.664 207.58H318.9v36h-18.236z"/><path fill="#fff" d="M309.809 231.628q-2.656 0-4.11-1.594l1.266-1.578q1.14 1.156 2.828 1.156.969 0 1.469-.453.516-.469.516-1.125 0-.719-.5-1.14-.5-.438-1.422-.438-1.344 0-2.235.86l-1.578-.423v-6.125h7.328v2h-5.062v2.61q.39-.391 1-.641.625-.25 1.36-.25 1.437 0 2.421.953 1 .953 1 2.5 0 1.688-1.156 2.688t-3.125 1"/><path fill="#4ea5b7" fill-rule="evenodd" d="M355.383 207.58h18.236v36h-18.236Z"/><path stroke="#595959" stroke-linecap="butt" stroke-linejoin="round" d="M355.383 207.58h18.236v36h-18.236Z"/><path fill="#fff" d="M364.794 231.628q-2.172 0-3.391-1.454t-1.219-4.046q0-2.485 1.328-4t3.64-1.516q1.876 0 3.157 1.094l-1.031 1.75q-.422-.422-.922-.625-.484-.203-1.203-.203-1.156 0-1.922.875-.75.859-.75 2.14l.016.235q.453-.625 1.187-1 .75-.375 1.547-.375 1.594 0 2.61.953 1.03.953 1.03 2.515 0 1.594-1.156 2.625-1.14 1.032-2.921 1.032m-.125-2.016q.843 0 1.359-.469.531-.469.531-1.094 0-.734-.547-1.156-.531-.437-1.437-.437-1.281 0-2.078 1 .078.953.64 1.562.563.594 1.532.594"/><path fill="#4ea5b7" fill-rule="evenodd" d="M410.079 207.58h18.236v36h-18.236z"/><path stroke="#595959" stroke-linecap="butt" stroke-linejoin="round" d="M410.079 207.58h18.236v36h-18.236z"/><path fill="#fff" d="m416.774 231.44 3.828-8.672h-5.375v-2h8.016v1.578l-3.969 9.094z"/><path fill="#4ea5b7" fill-rule="evenodd" d="M464.8 207.58h18.235v36H464.8z"/><path stroke="#595959" stroke-linecap="butt" stroke-linejoin="round" d="M464.8 207.58h18.235v36H464.8z"/><path fill="#fff" d="M473.913 231.628q-1.875 0-3.078-.797t-1.203-2.157q0-.921.61-1.64.624-.719 1.671-1.094-2.11-.75-2.11-2.516 0-1.328 1.157-2.062 1.172-.75 2.953-.75 1.813 0 2.953.766 1.156.75 1.156 2.046 0 1.75-2.125 2.516 1.094.39 1.704 1.125.609.734.609 1.61 0 1.359-1.219 2.156-1.203.797-3.078.797m0-6.594q.766-.094 1.281-.438.516-.36.516-.812 0-.578-.516-.89-.5-.329-1.28-.329-.798 0-1.298.328-.5.313-.5.89 0 .423.5.782t1.297.469m0 4.64q.86 0 1.422-.375t.562-.921q0-.5-.593-.907-.594-.406-1.39-.515-.767.093-1.376.5-.61.406-.61.922 0 .593.563.953.578.343 1.422.343"/><path fill="#e889ab" fill-rule="evenodd" d="M245.964 171.58h36.472v36h-36.472z"/><path stroke="#595959" stroke-linecap="butt" stroke-linejoin="round" d="M245.964 171.58h36.472v36h-36.472z"/><path fill="#fff" d="M264.162 195.44v-7.75l-1.781 1.813-1.297-1.36 3.36-3.375h1.984v10.672z"/><path fill="#e889ab" fill-rule="evenodd" d="M355.354 171.58h36.472v36h-36.472z"/><path stroke="#595959" stroke-linecap="butt" stroke-linejoin="round" d="M355.354 171.58h36.472v36h-36.472z"/><path fill="#fff" d="M373.425 195.628q-1.484 0-2.562-.485-1.063-.5-1.657-1.219l1.188-1.53q.562.577 1.36.905.796.313 1.593.313.969 0 1.484-.375.532-.375.532-.984 0-.641-.516-.938t-1.64-.297h-.36l-.969.031v-2.046l.594.015h.734q1.97 0 1.97-1.125 0-.64-.563-.953t-1.422-.313q-1.547 0-2.703 1.094l-1.125-1.422q1.5-1.687 4.078-1.687 1.89 0 2.953.781 1.078.781 1.078 2.11 0 .89-.672 1.578-.656.671-1.672.859 1.11.125 1.797.86.703.718.703 1.702 0 1.407-1.172 2.266-1.156.86-3.03.86"/><path fill="#e889ab" fill-rule="evenodd" d="M300.635 171.58h36.473v36h-36.473z"/><path stroke="#595959" stroke-linecap="butt" stroke-linejoin="round" d="M300.635 171.58h36.473v36h-36.473z"/><path fill="#fff" d="M314.821 195.44v-1.781q3.782-2.813 4.719-3.797t.938-1.844q0-.625-.485-1-.484-.39-1.25-.39-1.656 0-2.86 1.234l-1.296-1.516q.781-.906 1.875-1.312 1.11-.422 2.234-.422 1.813 0 2.938.953 1.14.938 1.14 2.453 0 1.219-.968 2.485-.97 1.25-3.297 2.937h4.344v2z"/><path fill="#e889ab" fill-rule="evenodd" d="M410.072 171.58h36.473v36h-36.473Z"/><path stroke="#595959" stroke-linecap="butt" stroke-linejoin="round" d="M410.072 171.58h36.473v36h-36.473Z"/><path fill="#fff" d="M429.032 195.44v-2.203h-5.093v-1.797l4.234-6.672h3.14v6.469h1.376v2h-1.375v2.203zm0-8.656-2.875 4.453h2.875z"/><path fill="#e889ab" fill-rule="evenodd" d="M464.746 171.58h36.473v36h-36.473Z"/><path stroke="#595959" stroke-linecap="butt" stroke-linejoin="round" d="M464.746 171.58h36.473v36h-36.473Z"/><path fill="#fff" d="M483.009 195.628q-2.656 0-4.11-1.594l1.266-1.578q1.14 1.156 2.828 1.156.97 0 1.47-.453.515-.469.515-1.125 0-.719-.5-1.14-.5-.438-1.422-.438-1.344 0-2.234.86l-1.579-.423v-6.125h7.329v2h-5.063v2.61q.39-.391 1-.641.625-.25 1.36-.25 1.437 0 2.421.953 1 .953 1 2.5 0 1.688-1.156 2.688t-3.125 1"/><path fill="#e889ab" fill-rule="evenodd" d="M519.513 171.58h36.473v36h-36.473Z"/><path stroke="#595959" stroke-linecap="butt" stroke-linejoin="round" d="M519.513 171.58h36.473v36h-36.473Z"/><path fill="#fff" d="M538.042 195.628q-2.172 0-3.39-1.454-1.22-1.453-1.22-4.046 0-2.485 1.328-4t3.641-1.516q1.875 0 3.156 1.094l-1.03 1.75q-.423-.422-.923-.625-.484-.203-1.203-.203-1.156 0-1.922.875-.75.859-.75 2.14l.016.235q.453-.625 1.187-1 .75-.375 1.547-.375 1.594 0 2.61.953 1.03.953 1.03 2.515 0 1.594-1.155 2.625-1.141 1.032-2.922 1.032m-.125-2.016q.843 0 1.36-.469.53-.469.53-1.094 0-.734-.547-1.156-.53-.437-1.437-.437-1.281 0-2.078 1 .078.953.64 1.562.563.594 1.532.594"/><path fill="#e889ab" fill-rule="evenodd" d="M574.233 171.58h36.473v36h-36.473Z"/><path stroke="#595959" stroke-linecap="butt" stroke-linejoin="round" d="M574.233 171.58h36.473v36h-36.473Z"/><path fill="#fff" d="m590.047 195.44 3.828-8.672H588.5v-2h8.016v1.578l-3.97 9.094z"/><path fill="#e889ab" fill-rule="evenodd" d="M628.952 171.58h36.472v36h-36.472Z"/><path stroke="#595959" stroke-linecap="butt" stroke-linejoin="round" d="M628.952 171.58h36.472v36h-36.472Z"/><path fill="#fff" d="M647.184 195.628q-1.875 0-3.078-.797t-1.203-2.157q0-.921.609-1.64.625-.719 1.672-1.094-2.11-.75-2.11-2.516 0-1.328 1.157-2.062 1.172-.75 2.953-.75 1.812 0 2.953.766 1.156.75 1.156 2.046 0 1.75-2.125 2.516 1.094.39 1.703 1.125.61.734.61 1.61 0 1.359-1.22 2.156-1.202.797-3.077.797m0-6.594q.765-.094 1.281-.438.516-.36.516-.812 0-.578-.516-.89-.5-.329-1.281-.329-.797 0-1.297.328-.5.313-.5.89 0 .423.5.782t1.297.469m0 4.64q.86 0 1.422-.375t.562-.921q0-.5-.594-.907-.593-.406-1.39-.515-.766.093-1.375.5-.61.406-.61.922 0 .593.563.953.578.343 1.422.343"/><path fill="#4ea5b7" fill-rule="evenodd" d="M282.404 171.58h18.236v36h-18.236Z"/><path stroke="#595959" stroke-linecap="butt" stroke-linejoin="round" d="M282.404 171.58h18.236v36h-18.236Z"/><path fill="#fff" d="M291.549 195.628q-2.656 0-4.11-1.594l1.266-1.578q1.14 1.156 2.828 1.156.969 0 1.469-.453.516-.469.516-1.125 0-.719-.5-1.14-.5-.438-1.422-.438-1.344 0-2.235.86l-1.578-.423v-6.125h7.328v2h-5.062v2.61q.39-.391 1-.641.625-.25 1.36-.25 1.437 0 2.421.953 1 .953 1 2.5 0 1.688-1.156 2.688t-3.125 1"/><path fill="#4ea5b7" fill-rule="evenodd" d="M337.123 171.58h18.237v36h-18.237z"/><path stroke="#595959" stroke-linecap="butt" stroke-linejoin="round" d="M337.123 171.58h18.237v36h-18.237z"/><path fill="#fff" d="M346.534 195.628q-2.172 0-3.39-1.454-1.22-1.453-1.22-4.046 0-2.485 1.328-4t3.641-1.516q1.875 0 3.156 1.094l-1.03 1.75q-.423-.422-.923-.625-.484-.203-1.203-.203-1.156 0-1.922.875-.75.859-.75 2.14l.016.235q.453-.625 1.187-1 .75-.375 1.547-.375 1.594 0 2.61.953 1.03.953 1.03 2.515 0 1.594-1.155 2.625-1.141 1.032-2.922 1.032m-.125-2.016q.843 0 1.36-.469.53-.469.53-1.094 0-.734-.547-1.156-.53-.437-1.437-.437-1.281 0-2.078 1 .078.953.64 1.562.563.594 1.532.594"/><path fill="#4ea5b7" fill-rule="evenodd" d="M391.819 171.58h18.236v36H391.82Z"/><path stroke="#595959" stroke-linecap="butt" stroke-linejoin="round" d="M391.819 171.58h18.236v36H391.82Z"/><path fill="#fff" d="m398.515 195.44 3.828-8.672h-5.375v-2h8.015v1.578l-3.969 9.094z"/><path fill="#4ea5b7" fill-rule="evenodd" d="M446.54 171.58h18.236v36h-18.237z"/><path stroke="#595959" stroke-linecap="butt" stroke-linejoin="round" d="M446.54 171.58h18.236v36h-18.237z"/><path fill="#fff" d="M455.653 195.628q-1.875 0-3.078-.797t-1.203-2.157q0-.921.61-1.64.624-.719 1.671-1.094-2.11-.75-2.11-2.516 0-1.328 1.157-2.062 1.172-.75 2.953-.75 1.813 0 2.953.766 1.157.75 1.157 2.046 0 1.75-2.125 2.516 1.093.39 1.703 1.125.61.734.61 1.61 0 1.359-1.22 2.156-1.203.797-3.078.797m0-6.594q.766-.094 1.281-.438.516-.36.516-.812 0-.578-.516-.89-.5-.329-1.28-.329-.798 0-1.298.328-.5.313-.5.89 0 .423.5.782t1.297.469m0 4.64q.86 0 1.422-.375.563-.375.563-.921 0-.5-.594-.907-.594-.406-1.39-.515-.766.093-1.376.5-.61.406-.61.922 0 .593.563.953.578.343 1.422.343"/><path fill="#e889ab" fill-rule="evenodd" d="M774.87 243.58h36.472v36H774.87z"/><path stroke="#595959" stroke-linecap="butt" stroke-linejoin="round" d="M774.87 243.58h36.472v36H774.87z"/><path fill="#fff" d="M792.445 267.612q-1.938 0-3.125-1.094l1-1.75q.437.422.922.625.484.203 1.203.203 1.187 0 1.922-.828.75-.844.75-2.172v-.25q-.422.61-1.188 1-.75.375-1.562.375-1.594 0-2.625-.937-1.016-.953-1.016-2.531t1.156-2.61q1.157-1.047 2.938-1.047 2.156 0 3.375 1.47 1.219 1.468 1.219 4.046 0 2.547-1.344 4.031-1.344 1.469-3.625 1.469m.562-5.828q1.282 0 2.094-1-.078-.985-.672-1.578-.578-.594-1.5-.594-.797 0-1.343.453-.547.453-.547 1.11 0 .734.547 1.171.546.438 1.421.438"/><path fill="#e889ab" fill-rule="evenodd" d="M829.578 243.58h36.473v36h-36.473Z"/><path stroke="#595959" stroke-linecap="butt" stroke-linejoin="round" d="M829.578 243.58h36.473v36h-36.473Z"/><path fill="#fff" d="M842.816 267.44v-7.75l-1.78 1.813-1.298-1.36 3.36-3.375h1.984v10.672zm8.28.188q-2.047 0-3.235-1.563-1.172-1.562-1.172-3.953 0-1.547.532-2.813.53-1.28 1.515-1.984 1-.703 2.36-.703 2.015 0 3.218 1.547 1.203 1.531 1.203 3.953 0 2.406-1.203 3.969-1.187 1.547-3.218 1.547m0-2.016q1 0 1.546-.89.563-.907.563-2.61 0-1.734-.563-2.61-.562-.874-1.546-.874-.985 0-1.547.875-.563.875-.563 2.609t.547 2.625q.563.875 1.563.875"/><path fill="#4ea5b7" fill-rule="evenodd" d="M920.759 243.58h18.236v36h-18.236z"/><path stroke="#595959" stroke-linecap="butt" stroke-linejoin="round" d="M920.759 243.58h18.236v36h-18.236z"/><path fill="#fff" d="M925.143 267.44v-7.75l-1.782 1.813-1.296-1.36 3.359-3.375h1.984v10.672zm7.857.188q-1.484 0-2.563-.485-1.062-.5-1.656-1.219l1.188-1.53q.562.577 1.359.905.797.313 1.594.313.969 0 1.484-.375.531-.375.531-.984 0-.641-.515-.938-.516-.297-1.64-.297h-.36l-.969.031v-2.046l.594.015h.734q1.969 0 1.969-1.125 0-.64-.563-.953t-1.421-.313q-1.547 0-2.704 1.094l-1.125-1.422q1.5-1.687 4.079-1.687 1.89 0 2.953.781 1.078.781 1.078 2.11 0 .89-.672 1.578-.656.671-1.672.859 1.11.125 1.797.86.703.718.703 1.702 0 1.407-1.172 2.266-1.156.86-3.031.86"/><path fill="#e889ab" fill-rule="evenodd" d="M811.342 207.58h36.472v36h-36.472Z"/><path stroke="#595959" stroke-linecap="butt" stroke-linejoin="round" d="M811.342 207.58h36.472v36h-36.472Z"/><path fill="#fff" d="M828.917 231.612q-1.937 0-3.125-1.094l1-1.75q.438.422.922.625t1.203.203q1.188 0 1.922-.828.75-.844.75-2.172v-.25q-.422.61-1.187 1-.75.375-1.563.375-1.594 0-2.625-.937-1.015-.953-1.015-2.531t1.156-2.61q1.156-1.047 2.937-1.047 2.157 0 3.375 1.469 1.219 1.469 1.219 4.047 0 2.547-1.344 4.031-1.343 1.469-3.625 1.469m.563-5.828q1.281 0 2.094-1-.079-.985-.672-1.578-.578-.594-1.5-.594-.797 0-1.344.453t-.547 1.11q0 .734.547 1.171t1.422.438"/><path fill="#e889ab" fill-rule="evenodd" d="M865.917 207.58h36.472v36h-36.472Z"/><path stroke="#595959" stroke-linecap="butt" stroke-linejoin="round" d="M865.917 207.58h36.472v36h-36.472Z"/><path fill="#fff" d="M879.155 231.44v-7.75l-1.781 1.813-1.297-1.36 3.36-3.375h1.984v10.672zm8.28.188q-2.048 0-3.235-1.563-1.172-1.562-1.172-3.953 0-1.547.531-2.813.531-1.28 1.516-1.984 1-.703 2.36-.703 2.015 0 3.218 1.547 1.203 1.531 1.203 3.953 0 2.406-1.203 3.969-1.188 1.547-3.219 1.547m0-2.016q1 0 1.546-.89.563-.907.563-2.61 0-1.734-.563-2.61-.562-.874-1.547-.874t-1.547.875-.562 2.609.547 2.625q.562.875 1.562.875"/><path fill="#4ea5b7" fill-rule="evenodd" d="M902.521 207.58h18.236v36h-18.236Z"/><path stroke="#595959" stroke-linecap="butt" stroke-linejoin="round" d="M902.521 207.58h18.236v36h-18.236Z"/><path fill="#fff" d="M906.905 231.44v-7.75l-1.781 1.813-1.297-1.36 3.36-3.375h1.984v10.672zm7.857.188q-1.484 0-2.562-.485-1.063-.5-1.656-1.219l1.187-1.53q.563.577 1.36.905.796.313 1.593.313.969 0 1.485-.375.53-.375.53-.984 0-.641-.515-.938t-1.64-.297h-.36l-.968.031v-2.046l.593.015h.735q1.968 0 1.968-1.125 0-.64-.562-.953t-1.422-.313q-1.547 0-2.703 1.094L910.7 222.3q1.5-1.687 4.078-1.687 1.89 0 2.953.781 1.078.781 1.078 2.11 0 .89-.672 1.578-.656.671-1.671.859 1.109.125 1.796.86.704.718.704 1.702 0 1.407-1.172 2.266-1.157.86-3.032.86"/><path fill="#e889ab" fill-rule="evenodd" d="M847.851 171.58h36.473v36H847.85Z"/><path stroke="#595959" stroke-linecap="butt" stroke-linejoin="round" d="M847.851 171.58h36.473v36H847.85Z"/><path fill="#fff" d="M865.427 195.612q-1.938 0-3.125-1.094l1-1.75q.437.422.921.625t1.204.203q1.187 0 1.921-.828.75-.844.75-2.172v-.25q-.421.61-1.187 1-.75.375-1.563.375-1.593 0-2.625-.937-1.015-.953-1.015-2.531t1.156-2.61q1.156-1.047 2.938-1.047 2.156 0 3.375 1.469t1.218 4.047q0 2.547-1.343 4.031-1.344 1.469-3.625 1.469m.562-5.828q1.281 0 2.094-1-.078-.985-.672-1.578-.578-.594-1.5-.594-.797 0-1.344.453t-.547 1.11q0 .734.547 1.171t1.422.438"/><path fill="#e889ab" fill-rule="evenodd" d="M902.426 171.58h36.472v36h-36.472z"/><path stroke="#595959" stroke-linecap="butt" stroke-linejoin="round" d="M902.426 171.58h36.472v36h-36.472z"/><path fill="#fff" d="M915.664 195.44v-7.75l-1.781 1.813-1.297-1.36 3.36-3.375h1.984v10.672zm8.28.188q-2.048 0-3.235-1.563-1.172-1.562-1.172-3.953 0-1.547.531-2.813.532-1.28 1.516-1.984 1-.703 2.36-.703 2.015 0 3.218 1.547 1.203 1.531 1.203 3.953 0 2.406-1.203 3.969-1.187 1.547-3.219 1.547m0-2.016q1 0 1.546-.89.563-.907.563-2.61 0-1.734-.563-2.61-.562-.874-1.547-.874t-1.547.875-.562 2.609.547 2.625q.562.875 1.562.875"/><path fill="#4ea5b7" fill-rule="evenodd" d="M884.358 171.58h18.237v36h-18.237Z"/><path stroke="#595959" stroke-linecap="butt" stroke-linejoin="round" d="M884.358 171.58h18.237v36h-18.237Z"/><path fill="#fff" d="M888.742 195.44v-7.75l-1.78 1.813-1.298-1.36 3.36-3.375h1.984v10.672zm7.858.188q-1.485 0-2.563-.485-1.062-.5-1.656-1.219l1.187-1.53q.563.577 1.36.905.797.313 1.594.313.968 0 1.484-.375.531-.375.531-.984 0-.641-.515-.938-.516-.297-1.641-.297h-.36l-.968.031v-2.046l.594.015h.734q1.969 0 1.969-1.125 0-.64-.563-.953t-1.422-.313q-1.547 0-2.703 1.094l-1.125-1.422q1.5-1.687 4.078-1.687 1.89 0 2.953.781 1.079.781 1.079 2.11 0 .89-.672 1.578-.657.671-1.672.859 1.11.125 1.797.86.703.718.703 1.702 0 1.407-1.172 2.266-1.156.86-3.031.86"/><path fill="#4ea5b7" fill-rule="evenodd" d="M938.935 171.58h7.78v36h-7.78z"/><path stroke="#595959" stroke-linecap="butt" stroke-linejoin="round" d="M938.935 171.58h7.78v36h-7.78z"/><path d="m116.601 353.094 57.638-.126"/><path stroke="#000" stroke-linecap="butt" stroke-linejoin="round" stroke-width="2" d="m116.601 353.094 45.638-.1"/><path fill="#000" fill-rule="evenodd" stroke="#000" stroke-linecap="butt" stroke-width="2" d="m162.246 356.298 9.07-3.323-9.084-3.284z"/><path d="M63.89 335.307h44.44v36H63.89Z"/><path fill="#000" d="M67.405 359.167v-8.672h-3.109v-2h8.5v2h-3.094v8.672zm7.812-8.562q-.5 0-.859-.344-.36-.36-.36-.875 0-.5.36-.844t.86-.344q.515 0 .859.344.36.344.36.844 0 .515-.36.875-.344.344-.86.344m-1 8.562v-7.734h2.032v7.734zm13.627 0v-4.875q0-1.234-1.157-1.234-.547 0-.968.297-.407.28-.625.593v5.22h-2.047v-4.876q0-1.234-1.157-1.234-.53 0-.953.297-.422.296-.64.609v5.203h-2.032v-7.734h2.032v1.015q.265-.437 1-.812.75-.39 1.515-.39 1.688 0 2.157 1.405.359-.593 1.093-1 .735-.406 1.563-.406 2.265 0 2.265 2.344v5.578zm7.678.188q-1.828 0-2.984-1.125-1.14-1.125-1.14-2.938 0-1.719 1.14-2.875 1.14-1.172 2.86-1.172 1.703 0 2.78 1.188 1.094 1.172 1.094 3.078v.437h-5.75q.094.735.657 1.266.578.531 1.562.531.485 0 1.078-.203t.985-.562l.906 1.312q-.578.516-1.438.797-.843.266-1.75.266m1.782-4.782q-.047-.765-.578-1.234-.532-.469-1.329-.469t-1.312.485-.594 1.218z"/></g></svg>