<svg xmlns="http://www.w3.org/2000/svg" xmlns:xlink="http://www.w3.org/1999/xlink" width="1136.427" height="368.399" viewBox="0 0 852.321 276.3"><defs><style>*{stroke-linejoin:round;stroke-linecap:butt}</style></defs><g id="figure_1"><path id="patch_1" d="M0 276.3h852.32V0H0z" style="fill:#fff"/><g id="axes_1"><path id="patch_2" d="M44.74 237.75h800.38V23.87H44.74z" style="fill:#fff"/><g id="PolyCollection_1"><defs><path id="m1db30e03b7" d="M81.122-242.708v16.757l121.27 51.21L323.66-64.669l121.27 1.247 121.27 4.375 121.269 2.722 121.27 5.324v-70.385l-121.27-7.201-121.27 2.478-121.27-1.84-121.27-11.253-121.269-92.659z" style="stroke:#4ea5b7;stroke-opacity:.2"/></defs><g clip-path="url(#p8202fc8c6f)"><use xlink:href="#m1db30e03b7" y="276.3" style="fill:#4ea5b7;fill-opacity:.2;stroke:#4ea5b7;stroke-opacity:.2"/></g></g><g id="PolyCollection_2"><defs><path id="m67c6e3d574" d="M81.122-158.772v10.835l121.27 39.096L323.66-63.067l121.27-2.728 121.27 9.657 121.269 5.214 121.27 2.63V-64.63L687.47-78.55 566.2-99.741l-121.27-22.123-121.27-21.744-121.269 1.34z" style="stroke:#e889ab;stroke-opacity:.2"/></defs><g clip-path="url(#p8202fc8c6f)"><use xlink:href="#m67c6e3d574" y="276.3" style="fill:#e889ab;fill-opacity:.2;stroke:#e889ab;stroke-opacity:.2"/></g></g><g id="PolyCollection_3"><defs><path id="mdd933124b6" d="M81.122-158.65v10.178l121.27 40.431L323.66-63.246l121.27-2.402 121.27 9.502 121.269 5.19 121.27 2.684v-16.662l-121.27-13.73L566.2-99.666l-121.27-21.798-121.27-16.202-121.269-4.644z" style="stroke:#cec0fa;stroke-opacity:.2"/></defs><g clip-path="url(#p8202fc8c6f)"><use xlink:href="#mdd933124b6" y="276.3" style="fill:#cec0fa;fill-opacity:.2;stroke:#cec0fa;stroke-opacity:.2"/></g></g><g id="matplotlib.axis_1"><g id="xtick_1"><path id="line2d_1" d="M81.122 237.75V23.87" clip-path="url(#p8202fc8c6f)" style="fill:none;stroke-dasharray:2.96,1.28;stroke-dashoffset:0;stroke:#b0b0b0;stroke-opacity:.7;stroke-width:.8"/><g id="line2d_2"><defs><path id="m797a2be366" d="M0 0v3.5" style="stroke:#000;stroke-width:.8"/></defs><use xlink:href="#m797a2be366" x="81.122" y="237.75" style="stroke:#000;stroke-width:.8"/></g><g id="text_1" transform="matrix(.1 0 0 -.1 79.682 252.09)"><defs><path id="GuardianSansCond-Regular-31" d="M832 0h531v4474h-192L141 4083v-307l691 70z" transform="scale(.01563)"/></defs><use xlink:href="#GuardianSansCond-Regular-31"/></g></g><g id="xtick_2"><path id="line2d_3" d="M202.391 237.75V23.87" clip-path="url(#p8202fc8c6f)" style="fill:none;stroke-dasharray:2.96,1.28;stroke-dashoffset:0;stroke:#b0b0b0;stroke-opacity:.7;stroke-width:.8"/><use xlink:href="#m797a2be366" id="line2d_4" x="202.391" y="237.75" style="stroke:#000;stroke-width:.8"/><g id="text_2" transform="matrix(.1 0 0 -.1 200.266 252.09)"><defs><path id="GuardianSansCond-Regular-32" d="M173 0h2297v461H800v19l774 941c493 614 845 1107 845 1843 0 762-390 1235-1197 1235-416 0-723-89-953-217v-429c198 96 461 179 787 179 563 0 794-282 794-819 0-583-308-1024-698-1543L173 397z" transform="scale(.01563)"/></defs><use xlink:href="#GuardianSansCond-Regular-32"/></g></g><g id="xtick_3"><path id="line2d_5" d="M323.66 237.75V23.87" clip-path="url(#p8202fc8c6f)" style="fill:none;stroke-dasharray:2.96,1.28;stroke-dashoffset:0;stroke:#b0b0b0;stroke-opacity:.7;stroke-width:.8"/><use xlink:href="#m797a2be366" id="line2d_6" x="323.661" y="237.75" style="stroke:#000;stroke-width:.8"/><g id="text_3" transform="matrix(.1 0 0 -.1 321.29 252.09)"><defs><path id="GuardianSansCond-Regular-34" d="M1805 0h525v1107h627v455h-627v2873h-461L70 1504v-397h1735zM608 1562v19l1171 1894h26V1562z" transform="scale(.01563)"/></defs><use xlink:href="#GuardianSansCond-Regular-34"/></g></g><g id="xtick_4"><path id="line2d_7" d="M444.93 237.75V23.87" clip-path="url(#p8202fc8c6f)" style="fill:none;stroke-dasharray:2.96,1.28;stroke-dashoffset:0;stroke:#b0b0b0;stroke-opacity:.7;stroke-width:.8"/><use xlink:href="#m797a2be366" id="line2d_8" x="444.931" y="237.75" style="stroke:#000;stroke-width:.8"/><g id="text_4" transform="matrix(.1 0 0 -.1 442.46 252.09)"><defs><path id="GuardianSansCond-Regular-38" d="M1581-64c864 0 1350 531 1350 1203 0 621-339 935-825 1191 384 211 716 569 716 1094 0 653-428 1075-1216 1075-787 0-1222-486-1222-1101 0-550 294-889 685-1113-467-231-839-602-839-1203C230 384 710-64 1581-64m6 454c-505 0-819 288-819 736 0 455 269 768 646 954 615-288 973-506 973-998 0-468-333-692-800-692m167 2132c-544 256-826 499-826 908 0 391 243 621 678 621 461 0 679-269 679-653 0-390-186-633-531-876" transform="scale(.01563)"/></defs><use xlink:href="#GuardianSansCond-Regular-38"/></g></g><g id="xtick_5"><path id="line2d_9" d="M566.2 237.75V23.87" clip-path="url(#p8202fc8c6f)" style="fill:none;stroke-dasharray:2.96,1.28;stroke-dashoffset:0;stroke:#b0b0b0;stroke-opacity:.7;stroke-width:.8"/><use xlink:href="#m797a2be366" id="line2d_10" x="566.2" y="237.75" style="stroke:#000;stroke-width:.8"/><g id="text_5" transform="matrix(.1 0 0 -.1 562.315 252.09)"><defs><path id="GuardianSansCond-Regular-36" d="M1632 384c-550 0-787 531-787 1453v217c147 96 409 224 749 224 492 0 729-294 729-921 0-615-237-973-691-973m0-454c806 0 1254 614 1254 1478 0 826-396 1338-1132 1338-391 0-698-135-909-301 32 1408 595 1593 1184 1593 262 0 525-64 659-108v422c-141 90-416 147-730 147-915 0-1683-518-1683-2291v-365C275 691 717-70 1632-70" transform="scale(.01563)"/></defs><use xlink:href="#GuardianSansCond-Regular-31"/><use xlink:href="#GuardianSansCond-Regular-36" x="28.8"/></g></g><g id="xtick_6"><path id="line2d_11" d="M687.47 237.75V23.87" clip-path="url(#p8202fc8c6f)" style="fill:none;stroke-dasharray:2.96,1.28;stroke-dashoffset:0;stroke:#b0b0b0;stroke-opacity:.7;stroke-width:.8"/><use xlink:href="#m797a2be366" id="line2d_12" x="687.47" y="237.75" style="stroke:#000;stroke-width:.8"/><g id="text_6" transform="matrix(.1 0 0 -.1 683.235 252.09)"><defs><path id="GuardianSansCond-Regular-33" d="M1094-64c826 0 1338 480 1338 1312 0 691-320 1005-826 1114v19c436 134 704 422 704 1024 0 691-428 1094-1152 1094-371 0-672-70-883-179v-429c186 77 403 147 723 147 480 0 756-172 756-736 0-505-276-755-736-755H717v-461h339c544 0 813-249 813-819 0-621-352-864-922-864-301 0-589 90-800 205V166C358 32 640-64 1094-64" transform="scale(.01563)"/></defs><use xlink:href="#GuardianSansCond-Regular-33"/><use xlink:href="#GuardianSansCond-Regular-32" x="42.2"/></g></g><g id="xtick_7"><path id="line2d_13" d="M808.74 237.75V23.87" clip-path="url(#p8202fc8c6f)" style="fill:none;stroke-dasharray:2.96,1.28;stroke-dashoffset:0;stroke:#b0b0b0;stroke-opacity:.7;stroke-width:.8"/><use xlink:href="#m797a2be366" id="line2d_14" x="808.74" y="237.75" style="stroke:#000;stroke-width:.8"/><g id="text_7" transform="matrix(.1 0 0 -.1 803.924 252.09)"><use xlink:href="#GuardianSansCond-Regular-36"/><use xlink:href="#GuardianSansCond-Regular-34" x="48.9"/></g></g><g id="text_8" transform="matrix(.12 0 0 -.12 407.853 266.808)"><defs><path id="GuardianSansCond-Regular-4e" d="M416 0h493v2912c0 512-32 845-32 845h19s154-435 378-935L2547 0h608v4435h-493V1568c0-454 32-806 32-806h-12s-180 492-352 864L1094 4435H416z" transform="scale(.01563)"/><path id="GuardianSansCond-Regular-75" d="M1158-51c365 0 666 160 884 313h25l51-262h448v3283h-524V602c-154-90-416-205-692-205-403 0-492 160-492 441v2445H333V826c0-525 243-877 825-877" transform="scale(.01563)"/><path id="GuardianSansCond-Regular-6d" d="M346 0h524v2688c180 102 397 198 653 198 333 0 448-128 448-422V0h519v2688c192 109 422 198 646 198 352 0 454-140 454-422V0h525v2528c0 576-294 806-768 806-352 0-659-147-928-339h-25c-128 231-333 339-672 339-327 0-634-153-852-313h-25v262H346z" transform="scale(.01563)"/><path id="GuardianSansCond-Regular-62" d="M1382-64c935 0 1402 595 1402 1683v224c0 1152-499 1491-1082 1491-364 0-627-115-806-230h-26v1594H346V102C557 19 1005-64 1382-64m26 442c-243 0-429 38-538 76v2279c122 57 346 160 621 160 512 0 755-243 755-1075v-269c0-922-371-1171-838-1171" transform="scale(.01563)"/><path id="GuardianSansCond-Regular-65" d="M1555-51c429 0 762 153 915 294v384c-230-128-505-230-857-230-576 0-871 301-890 1069h1831v332c0 1095-378 1536-1152 1536-743 0-1216-524-1216-1612v-173C186 499 634-51 1555-51m-173 2957c448 0 628-295 628-1012H723c13 736 269 1012 659 1012" transform="scale(.01563)"/><path id="GuardianSansCond-Regular-72" d="M346 0h524v2605c192 147 436 237 717 237 51 0 141-7 199-13v473c-39 13-109 26-180 26-300 0-576-186-736-390h-25v345H346z" transform="scale(.01563)"/><path id="GuardianSansCond-Regular-6f" d="M1459-51c813 0 1274 621 1274 1593v205c0 1024-442 1587-1274 1587-800 0-1273-620-1273-1593v-211C186 531 614-51 1459-51m7 429c-474 0-743 384-743 1094v346c0 633 224 1088 730 1088 467 0 742-346 742-1101v-339c0-640-237-1088-729-1088" transform="scale(.01563)"/><path id="GuardianSansCond-Regular-66" d="M493 0h525v2848h608v435h-608v429c0 403 128 595 460 595 154 0 276-25 359-45v378c-90 45-250 102-474 102-537 0-870-313-870-985v-474H96v-435h397z" transform="scale(.01563)"/><path id="GuardianSansCond-Regular-64" d="M1357-51c333 0 608 128 768 294h25l45-243h442v4698h-519V3174c-140 90-384 160-652 160-832 0-1268-595-1268-1664v-147C198 339 723-51 1357-51m147 429c-512 0-762 371-762 1164v186c0 813 237 1165 794 1165 243 0 467-58 582-135V595c-134-102-345-217-614-217" transform="scale(.01563)"/><path id="GuardianSansCond-Regular-73" d="M992-51c666 0 1062 358 1062 998 0 538-236 762-748 941l-256 90c-282 96-391 217-391 473 0 320 205 442 563 442 295 0 538-83 692-154v429c-141 83-346 166-717 166-666 0-1037-352-1037-928 0-505 262-748 666-889l256-90c326-115 454-243 454-531 0-314-166-506-602-506-352 0-576 90-780 173V141C358 19 640-51 992-51" transform="scale(.01563)"/></defs><use xlink:href="#GuardianSansCond-Regular-4e"/><use xlink:href="#GuardianSansCond-Regular-75" x="55.8"/><use xlink:href="#GuardianSansCond-Regular-6d" x="101.3"/><use xlink:href="#GuardianSansCond-Regular-62" x="170.8"/><use xlink:href="#GuardianSansCond-Regular-65" x="217.4"/><use xlink:href="#GuardianSansCond-Regular-72" x="260.1"/><use xlink:href="#GuardianSansCond-Regular-6f" x="304.7"/><use xlink:href="#GuardianSansCond-Regular-66" x="350.3"/><use xlink:href="#GuardianSansCond-Regular-4e" x="392.8"/><use xlink:href="#GuardianSansCond-Regular-6f" x="448.6"/><use xlink:href="#GuardianSansCond-Regular-64" x="494.2"/><use xlink:href="#GuardianSansCond-Regular-65" x="540.8"/><use xlink:href="#GuardianSansCond-Regular-73" x="583.5"/></g></g><g id="matplotlib.axis_2"><g id="ytick_1"><path id="line2d_15" d="M44.74 230.632h800.38" clip-path="url(#p8202fc8c6f)" style="fill:none;stroke-dasharray:2.96,1.28;stroke-dashoffset:0;stroke:#b0b0b0;stroke-opacity:.7;stroke-width:.8"/><g id="line2d_16"><defs><path id="mfb0136a672" d="M0 0h-3.5" style="stroke:#000;stroke-width:.8"/></defs><use xlink:href="#mfb0136a672" x="44.741" y="230.632" style="stroke:#000;stroke-width:.8"/></g><g id="text_9" transform="matrix(.1 0 0 -.1 32.39 234.302)"><defs><path id="GuardianSansCond-Regular-30" d="M1722-70c934 0 1433 716 1433 2131v345c0 1485-557 2093-1440 2093-896 0-1446-665-1446-2131v-326C269 499 845-70 1722-70m6 454c-659 0-883 595-883 1632v474c0 1004 243 1561 864 1561 627 0 883-537 883-1593v-480c0-1044-218-1594-864-1594" transform="scale(.01563)"/></defs><use xlink:href="#GuardianSansCond-Regular-30"/></g></g><g id="ytick_2"><path id="line2d_17" d="M44.74 187.94h800.38" clip-path="url(#p8202fc8c6f)" style="fill:none;stroke-dasharray:2.96,1.28;stroke-dashoffset:0;stroke:#b0b0b0;stroke-opacity:.7;stroke-width:.8"/><use xlink:href="#mfb0136a672" id="line2d_18" x="44.741" y="187.94" style="stroke:#000;stroke-width:.8"/><g id="text_10" transform="matrix(.1 0 0 -.1 24.16 191.61)"><use xlink:href="#GuardianSansCond-Regular-31"/><use xlink:href="#GuardianSansCond-Regular-30" x="28.8"/><use xlink:href="#GuardianSansCond-Regular-30" x="82.3"/></g></g><g id="ytick_3"><path id="line2d_19" d="M44.74 145.248h800.38" clip-path="url(#p8202fc8c6f)" style="fill:none;stroke-dasharray:2.96,1.28;stroke-dashoffset:0;stroke:#b0b0b0;stroke-opacity:.7;stroke-width:.8"/><use xlink:href="#mfb0136a672" id="line2d_20" x="44.741" y="145.248" style="stroke:#000;stroke-width:.8"/><g id="text_11" transform="matrix(.1 0 0 -.1 22.79 148.918)"><use xlink:href="#GuardianSansCond-Regular-32"/><use xlink:href="#GuardianSansCond-Regular-30" x="42.5"/><use xlink:href="#GuardianSansCond-Regular-30" x="96"/></g></g><g id="ytick_4"><path id="line2d_21" d="M44.74 102.555h800.38" clip-path="url(#p8202fc8c6f)" style="fill:none;stroke-dasharray:2.96,1.28;stroke-dashoffset:0;stroke:#b0b0b0;stroke-opacity:.7;stroke-width:.8"/><use xlink:href="#mfb0136a672" id="line2d_22" x="44.741" y="102.555" style="stroke:#000;stroke-width:.8"/><g id="text_12" transform="matrix(.1 0 0 -.1 22.82 106.226)"><use xlink:href="#GuardianSansCond-Regular-33"/><use xlink:href="#GuardianSansCond-Regular-30" x="42.2"/><use xlink:href="#GuardianSansCond-Regular-30" x="95.7"/></g></g><g id="ytick_5"><path id="line2d_23" d="M44.74 59.863h800.38" clip-path="url(#p8202fc8c6f)" style="fill:none;stroke-dasharray:2.96,1.28;stroke-dashoffset:0;stroke:#b0b0b0;stroke-opacity:.7;stroke-width:.8"/><use xlink:href="#mfb0136a672" id="line2d_24" x="44.741" y="59.863" style="stroke:#000;stroke-width:.8"/><g id="text_13" transform="matrix(.1 0 0 -.1 22.3 63.534)"><use xlink:href="#GuardianSansCond-Regular-34"/><use xlink:href="#GuardianSansCond-Regular-30" x="47.4"/><use xlink:href="#GuardianSansCond-Regular-30" x="100.9"/></g></g><g id="text_14" transform="matrix(0 -.12 -.12 0 16.009 168.266)"><defs><path id="GuardianSansCond-Regular-42" d="M416 0h1146c966 0 1382 493 1382 1254 0 711-326 999-832 1069v26c493 134 678 493 678 985 0 692-326 1101-1273 1101H416zm538 454v1620h563c569 0 864-199 864-781 0-557-224-839-864-839zm0 2061v1459h499c525 0 787-160 787-710 0-557-320-749-838-749z" transform="scale(.01563)"/><path id="GuardianSansCond-Regular-61" d="M1082-51c313 0 556 128 697 281h32l51-230h429v2413c0 614-333 921-998 921-378 0-659-76-883-179v-384c166 58 396 115 684 115 506 0 672-147 672-608v-320l-678-102c-608-90-928-390-928-973 0-633 365-934 922-934m140 409c-345 0-518 186-518 557 0 359 173 525 538 570l524 64V525c-108-90-307-167-544-167" transform="scale(.01563)"/><path id="GuardianSansCond-Regular-6e" d="M346 0h524v2688c167 90 436 198 717 198 378 0 506-121 506-428V0h518v2528c0 557-269 806-800 806-371 0-704-140-941-313h-25v262H346z" transform="scale(.01563)"/><path id="GuardianSansCond-Regular-77" d="M858 0h544l416 1696c102 403 166 730 166 730h19s71-333 167-730L2586 0h550l762 3283h-500l-396-1939c-71-378-128-640-128-640h-20s-51 250-147 646l-454 1933h-480l-448-1933c-83-371-147-646-147-646h-20s-51 269-128 646L627 3283H83z" transform="scale(.01563)"/><path id="GuardianSansCond-Regular-69" d="M358 0h525v3283H358zm-6 3910h531v564H352z" transform="scale(.01563)"/><path id="GuardianSansCond-Regular-74" d="M1222-38c244 0 397 64 500 128v352c-90-26-205-52-340-52-275 0-377 90-377 391v2067h678v435h-678v768H486v-768H96v-435h390V710c0-550 288-748 736-748" transform="scale(.01563)"/><path id="GuardianSansCond-Regular-68" d="M346 0h524v2688c167 90 436 198 717 198 378 0 506-121 506-428V0h518v2528c0 557-275 806-806 806-365 0-679-134-909-300h-26v1664H346z" transform="scale(.01563)"/><path id="GuardianSansCond-Regular-28" d="M1318-768h442C1267-166 826 877 826 1869v217c0 1031 441 2016 934 2612h-442C800 4160 275 3187 275 2029v-147C275 723 800-237 1318-768" transform="scale(.01563)"/><path id="GuardianSansCond-Regular-47" d="M1933-64c518 0 909 115 1165 230v2068H1837v-455h729V486c-134-51-358-89-588-89-922 0-1172 614-1172 1702v307c0 992 282 1632 1184 1632 448 0 724-108 954-217v454c-186 115-467 224-922 224-1113 0-1785-646-1785-2157v-243C237 493 864-64 1933-64" transform="scale(.01563)"/><path id="GuardianSansCond-Regular-2f" d="M13-768h461l1312 5466h-461z" transform="scale(.01563)"/><path id="GuardianSansCond-Regular-29" d="M32-768h448C992-237 1517 717 1517 1882v147c0 1152-525 2131-1037 2669H32c499-602 941-1645 941-2663v-217C973 813 531-166 32-768" transform="scale(.01563)"/></defs><use xlink:href="#GuardianSansCond-Regular-42"/><use xlink:href="#GuardianSansCond-Regular-61" x="49"/><use xlink:href="#GuardianSansCond-Regular-6e" x="89.9"/><use xlink:href="#GuardianSansCond-Regular-64" x="136"/><use xlink:href="#GuardianSansCond-Regular-77" x="182.6"/><use xlink:href="#GuardianSansCond-Regular-69" x="244.8"/><use xlink:href="#GuardianSansCond-Regular-64" x="264.1"/><use xlink:href="#GuardianSansCond-Regular-74" x="310.7"/><use xlink:href="#GuardianSansCond-Regular-68" x="339.7"/><use xlink:href="#GuardianSansCond-Regular-28" x="401.6"/><use xlink:href="#GuardianSansCond-Regular-47" x="429.6"/><use xlink:href="#GuardianSansCond-Regular-42" x="482.9"/><use xlink:href="#GuardianSansCond-Regular-2f" x="531.9"/><use xlink:href="#GuardianSansCond-Regular-73" x="561.8"/><use xlink:href="#GuardianSansCond-Regular-29" x="596.3"/></g></g><g id="line2d_25"><path d="m81.122 44.508 121.27 31.685 121.269 86.072 121.27 25.86 121.27 6.33 121.269 8.459 121.27 13.656" clip-path="url(#p8202fc8c6f)" style="fill:none;stroke:#4ea5b7;stroke-width:3;stroke-linecap:square"/><defs><path id="m8aad6e0f6e" d="M0 5A5 5 0 1 0 0-5 5 5 0 0 0 0 5z" style="stroke:#4ea5b7"/></defs><g clip-path="url(#p8202fc8c6f)"><use xlink:href="#m8aad6e0f6e" x="81.122" y="44.508" style="fill:#4ea5b7;stroke:#4ea5b7"/><use xlink:href="#m8aad6e0f6e" x="202.391" y="76.193" style="fill:#4ea5b7;stroke:#4ea5b7"/><use xlink:href="#m8aad6e0f6e" x="323.661" y="162.265" style="fill:#4ea5b7;stroke:#4ea5b7"/><use xlink:href="#m8aad6e0f6e" x="444.931" y="188.126" style="fill:#4ea5b7;stroke:#4ea5b7"/><use xlink:href="#m8aad6e0f6e" x="566.2" y="194.455" style="fill:#4ea5b7;stroke:#4ea5b7"/><use xlink:href="#m8aad6e0f6e" x="687.47" y="202.914" style="fill:#4ea5b7;stroke:#4ea5b7"/><use xlink:href="#m8aad6e0f6e" x="808.74" y="216.57" style="fill:#4ea5b7;stroke:#4ea5b7"/></g></g><g id="line2d_26"><path d="m81.122 123.966 121.27 27.85 121.269 28.026 121.27 21.334 121.27 5.987 121.269 11.528 121.27 7.229" clip-path="url(#p8202fc8c6f)" style="fill:none;stroke:#e889ab;stroke-width:3;stroke-linecap:square"/><defs><path id="m17d045efe9" d="M-5 5H5V-5H-5z" style="stroke:#e889ab;stroke-linejoin:miter"/></defs><g clip-path="url(#p8202fc8c6f)"><use xlink:href="#m17d045efe9" x="81.122" y="123.966" style="fill:#e889ab;stroke:#e889ab;stroke-linejoin:miter"/><use xlink:href="#m17d045efe9" x="202.391" y="151.817" style="fill:#e889ab;stroke:#e889ab;stroke-linejoin:miter"/><use xlink:href="#m17d045efe9" x="323.661" y="179.842" style="fill:#e889ab;stroke:#e889ab;stroke-linejoin:miter"/><use xlink:href="#m17d045efe9" x="444.931" y="201.176" style="fill:#e889ab;stroke:#e889ab;stroke-linejoin:miter"/><use xlink:href="#m17d045efe9" x="566.2" y="207.163" style="fill:#e889ab;stroke:#e889ab;stroke-linejoin:miter"/><use xlink:href="#m17d045efe9" x="687.47" y="218.691" style="fill:#e889ab;stroke:#e889ab;stroke-linejoin:miter"/><use xlink:href="#m17d045efe9" x="808.74" y="225.92" style="fill:#e889ab;stroke:#e889ab;stroke-linejoin:miter"/></g></g><g id="line2d_27"><path d="m81.122 124.017 121.27 29.106 121.269 28.09 121.27 20.153 121.27 5.989 121.269 11.347 121.27 7.204" clip-path="url(#p8202fc8c6f)" style="fill:none;stroke:#cec0fa;stroke-width:3;stroke-linecap:square"/><defs><path id="m05010f6295" d="M0-5-5 5H5z" style="stroke:#cec0fa;stroke-linejoin:miter"/></defs><g clip-path="url(#p8202fc8c6f)"><use xlink:href="#m05010f6295" x="81.122" y="124.017" style="fill:#cec0fa;stroke:#cec0fa;stroke-linejoin:miter"/><use xlink:href="#m05010f6295" x="202.391" y="153.123" style="fill:#cec0fa;stroke:#cec0fa;stroke-linejoin:miter"/><use xlink:href="#m05010f6295" x="323.661" y="181.213" style="fill:#cec0fa;stroke:#cec0fa;stroke-linejoin:miter"/><use xlink:href="#m05010f6295" x="444.931" y="201.366" style="fill:#cec0fa;stroke:#cec0fa;stroke-linejoin:miter"/><use xlink:href="#m05010f6295" x="566.2" y="207.355" style="fill:#cec0fa;stroke:#cec0fa;stroke-linejoin:miter"/><use xlink:href="#m05010f6295" x="687.47" y="218.702" style="fill:#cec0fa;stroke:#cec0fa;stroke-linejoin:miter"/><use xlink:href="#m05010f6295" x="808.74" y="225.906" style="fill:#cec0fa;stroke:#cec0fa;stroke-linejoin:miter"/></g></g><path id="patch_3" d="M44.74 237.75V23.87" style="fill:none;stroke:#000;stroke-width:.8;stroke-linejoin:miter;stroke-linecap:square"/><path id="patch_4" d="M845.12 237.75V23.87" style="fill:none;stroke:#000;stroke-width:.8;stroke-linejoin:miter;stroke-linecap:square"/><path id="patch_5" d="M44.74 237.75h800.38" style="fill:none;stroke:#000;stroke-width:.8;stroke-linejoin:miter;stroke-linecap:square"/><path id="patch_6" d="M44.74 23.87h800.38" style="fill:none;stroke:#000;stroke-width:.8;stroke-linejoin:miter;stroke-linecap:square"/><g id="text_15" transform="matrix(.12 0 0 -.12 68.305 42.217)"><defs><path id="GuardianSansCond-Regular-2e" d="M397 0h589v621H397z" transform="scale(.01563)"/></defs><use xlink:href="#GuardianSansCond-Regular-34"/><use xlink:href="#GuardianSansCond-Regular-33" x="47.4"/><use xlink:href="#GuardianSansCond-Regular-36" x="89.6"/><use xlink:href="#GuardianSansCond-Regular-2e" x="138.5"/><use xlink:href="#GuardianSansCond-Regular-30" x="160.1"/></g><g id="text_16" transform="matrix(.12 0 0 -.12 191.567 73.902)"><defs><path id="GuardianSansCond-Regular-37" d="M461 0h557l1369 3994v441H109v-461h1741v-25z" transform="scale(.01563)"/></defs><use xlink:href="#GuardianSansCond-Regular-33"/><use xlink:href="#GuardianSansCond-Regular-36" x="42.2"/><use xlink:href="#GuardianSansCond-Regular-31" x="91.1"/><use xlink:href="#GuardianSansCond-Regular-2e" x="119.9"/><use xlink:href="#GuardianSansCond-Regular-37" x="141.5"/></g><g id="text_17" transform="matrix(.12 0 0 -.12 312.765 159.974)"><use xlink:href="#GuardianSansCond-Regular-31"/><use xlink:href="#GuardianSansCond-Regular-36" x="28.8"/><use xlink:href="#GuardianSansCond-Regular-30" x="77.7"/><use xlink:href="#GuardianSansCond-Regular-2e" x="131.2"/><use xlink:href="#GuardianSansCond-Regular-31" x="152.8"/></g><g id="text_18" transform="matrix(.12 0 0 -.12 434.832 185.835)"><defs><path id="GuardianSansCond-Regular-39" d="M1171-70c1005 0 1683 518 1683 2291v365c0 1209-422 1913-1331 1913-832 0-1280-582-1280-1478 0-819 410-1338 1146-1338 377 0 685 135 896 301-19-1376-487-1587-1178-1587-256 0-544 70-678 121V96C563 0 858-70 1171-70m371 2220c-486 0-736 295-736 922 0 640 237 973 717 973 525 0 762-487 762-1453v-218c-147-102-403-224-743-224" transform="scale(.01563)"/></defs><use xlink:href="#GuardianSansCond-Regular-39"/><use xlink:href="#GuardianSansCond-Regular-39" x="48.9"/><use xlink:href="#GuardianSansCond-Regular-2e" x="97.8"/><use xlink:href="#GuardianSansCond-Regular-36" x="119.4"/></g><g id="text_19" transform="matrix(.12 0 0 -.12 556.762 192.163)"><use xlink:href="#GuardianSansCond-Regular-38"/><use xlink:href="#GuardianSansCond-Regular-34" x="49.4"/><use xlink:href="#GuardianSansCond-Regular-2e" x="96.8"/><use xlink:href="#GuardianSansCond-Regular-37" x="118.4"/></g><g id="text_20" transform="matrix(.12 0 0 -.12 677.461 200.623)"><use xlink:href="#GuardianSansCond-Regular-36"/><use xlink:href="#GuardianSansCond-Regular-34" x="48.9"/><use xlink:href="#GuardianSansCond-Regular-2e" x="96.3"/><use xlink:href="#GuardianSansCond-Regular-39" x="117.9"/></g><g id="text_21" transform="matrix(.12 0 0 -.12 799.428 214.279)"><use xlink:href="#GuardianSansCond-Regular-33"/><use xlink:href="#GuardianSansCond-Regular-32" x="42.2"/><use xlink:href="#GuardianSansCond-Regular-2e" x="84.7"/><use xlink:href="#GuardianSansCond-Regular-39" x="106.3"/></g><g id="text_22" transform="matrix(.144 0 0 -.144 286.35 17.87)"><defs><path id="GuardianSansCond-Regular-43" d="M1882-64c422 0 755 102 992 250v454c-231-122-532-243-928-243-832 0-1140 589-1140 1645v403c0 1203 461 1593 1114 1593 358 0 621-83 902-198v448c-204 122-486 211-870 211-947 0-1715-505-1715-2112v-345C237 563 851-64 1882-64" transform="scale(.01563)"/><path id="GuardianSansCond-Regular-63" d="M1498-51c371 0 627 102 800 224v422c-135-77-391-205-743-205-550 0-832 314-832 1152v256c0 666 218 1095 787 1095 346 0 544-90 749-179v435c-166 109-384 185-717 185-774 0-1356-448-1356-1593v-205C186 416 685-51 1498-51" transform="scale(.01563)"/><path id="GuardianSansCond-Regular-79" d="M570-1261c512 0 736 301 915 896l1107 3648h-525l-582-2086c-64-205-109-410-109-410h-13s-32 141-115 416L621 3283H51L1120 13l-102-307C896-698 749-826 480-826c-96 0-218 13-294 26v-371c96-51 249-90 384-90" transform="scale(.01563)"/><path id="GuardianSansCond-Regular-7a" d="M179 0h2067v435H794v19l1465 2464v365H256v-429h1370v-19L179 384z" transform="scale(.01563)"/><path id="GuardianSansCond-Regular-3d" d="M326 2253h2240v441H326zm0-1037h2240v448H326z" transform="scale(.01563)"/><path id="GuardianSansCond-Regular-35" d="M1094-64c877 0 1351 576 1351 1427 0 935-448 1344-1280 1344-154 0-275-13-371-32l83 1299h1465v461H429L294 2170c173 38 416 76 672 76 621 0 909-256 909-883 0-646-288-966-921-966-327 0-589 77-800 185V147C352 26 672-64 1094-64" transform="scale(.01563)"/><path id="GuardianSansCond-Regular-4d" d="M416 0h493v2675c0 423-26 1171-26 1171h19s154-716 224-985L1875 0h551l761 2899c90 352 224 960 224 960h19s-25-761-25-1177V0h512v4435h-819l-730-2925c-102-403-186-902-186-902h-12s-84 493-186 902l-742 2925H416z" transform="scale(.01563)"/></defs><use xlink:href="#GuardianSansCond-Regular-43"/><use xlink:href="#GuardianSansCond-Regular-6f" x="47.4"/><use xlink:href="#GuardianSansCond-Regular-6d" x="93"/><use xlink:href="#GuardianSansCond-Regular-6d" x="162.5"/><use xlink:href="#GuardianSansCond-Regular-75" x="232"/><use xlink:href="#GuardianSansCond-Regular-6e" x="277.5"/><use xlink:href="#GuardianSansCond-Regular-69" x="323.6"/><use xlink:href="#GuardianSansCond-Regular-63" x="342.9"/><use xlink:href="#GuardianSansCond-Regular-61" x="380.7"/><use xlink:href="#GuardianSansCond-Regular-74" x="421.6"/><use xlink:href="#GuardianSansCond-Regular-69" x="450.6"/><use xlink:href="#GuardianSansCond-Regular-6f" x="469.9"/><use xlink:href="#GuardianSansCond-Regular-6e" x="515.5"/><use xlink:href="#GuardianSansCond-Regular-42" x="577.4"/><use xlink:href="#GuardianSansCond-Regular-61" x="626.4"/><use xlink:href="#GuardianSansCond-Regular-6e" x="667.3"/><use xlink:href="#GuardianSansCond-Regular-64" x="713.4"/><use xlink:href="#GuardianSansCond-Regular-77" x="760"/><use xlink:href="#GuardianSansCond-Regular-69" x="822.2"/><use xlink:href="#GuardianSansCond-Regular-64" x="841.5"/><use xlink:href="#GuardianSansCond-Regular-74" x="888.1"/><use xlink:href="#GuardianSansCond-Regular-68" x="917.1"/><use xlink:href="#GuardianSansCond-Regular-62" x="979"/><use xlink:href="#GuardianSansCond-Regular-79" x="1025.6"/><use xlink:href="#GuardianSansCond-Regular-4e" x="1082.8"/><use xlink:href="#GuardianSansCond-Regular-75" x="1138.6"/><use xlink:href="#GuardianSansCond-Regular-6d" x="1184.1"/><use xlink:href="#GuardianSansCond-Regular-62" x="1253.6"/><use xlink:href="#GuardianSansCond-Regular-65" x="1300.2"/><use xlink:href="#GuardianSansCond-Regular-72" x="1342.9"/><use xlink:href="#GuardianSansCond-Regular-6f" x="1387.5"/><use xlink:href="#GuardianSansCond-Regular-66" x="1433.1"/><use xlink:href="#GuardianSansCond-Regular-4e" x="1475.6"/><use xlink:href="#GuardianSansCond-Regular-6f" x="1531.4"/><use xlink:href="#GuardianSansCond-Regular-64" x="1577"/><use xlink:href="#GuardianSansCond-Regular-65" x="1623.6"/><use xlink:href="#GuardianSansCond-Regular-73" x="1666.3"/><use xlink:href="#GuardianSansCond-Regular-28" x="1716.6"/><use xlink:href="#GuardianSansCond-Regular-73" x="1744.6"/><use xlink:href="#GuardianSansCond-Regular-69" x="1779.1"/><use xlink:href="#GuardianSansCond-Regular-7a" x="1798.4"/><use xlink:href="#GuardianSansCond-Regular-65" x="1836.6"/><use xlink:href="#GuardianSansCond-Regular-3d" x="1879.3"/><use xlink:href="#GuardianSansCond-Regular-32" x="1924.399"/><use xlink:href="#GuardianSansCond-Regular-35" x="1966.899"/><use xlink:href="#GuardianSansCond-Regular-36" x="2008.999"/><use xlink:href="#GuardianSansCond-Regular-4d" x="2057.899"/><use xlink:href="#GuardianSansCond-Regular-42" x="2125.599"/><use xlink:href="#GuardianSansCond-Regular-29" x="2174.599"/></g><g id="legend_1"><path id="patch_7" d="M736.592 84.77H836.72q2.4 0 2.4-2.4v-50.1q0-2.4-2.4-2.4H736.59q-2.4 0-2.4 2.4v50.1q0 2.4 2.4 2.4z" style="fill:#fff;opacity:.8;stroke:#ccc;stroke-linejoin:miter"/><g id="line2d_28"><path d="M738.992 39.278h24" style="fill:none;stroke:#4ea5b7;stroke-width:3;stroke-linecap:square"/><use xlink:href="#m8aad6e0f6e" x="750.992" y="39.278" style="fill:#4ea5b7;stroke:#4ea5b7"/></g><g id="text_23" transform="matrix(.12 0 0 -.12 772.592 43.478)"><defs><path id="GuardianSansCond-Regular-41" d="M70 0h506l333 1222h1401L2656 0h550L1933 4435h-595zm1549 3776s77-346 135-563l422-1536H1043l423 1536c64 224 134 563 134 563z" transform="scale(.01563)"/><path id="GuardianSansCond-Regular-6c" d="M358 0h519v4698H358z" transform="scale(.01563)"/><path id="GuardianSansCond-Regular-52" d="M416 0h538v1888h620L2483 0h583l-973 1990v32c435 160 717 480 717 1146 0 890-410 1267-1325 1267H416zm538 2330v1644h492c589 0 794-230 794-825 0-563-224-819-768-819z" transform="scale(.01563)"/></defs><use xlink:href="#GuardianSansCond-Regular-41"/><use xlink:href="#GuardianSansCond-Regular-6c" x="51.1"/><use xlink:href="#GuardianSansCond-Regular-6c" x="70.4"/><use xlink:href="#GuardianSansCond-Regular-52" x="89.7"/><use xlink:href="#GuardianSansCond-Regular-65" x="138.4"/><use xlink:href="#GuardianSansCond-Regular-64" x="181.1"/><use xlink:href="#GuardianSansCond-Regular-75" x="227.7"/><use xlink:href="#GuardianSansCond-Regular-63" x="273.2"/><use xlink:href="#GuardianSansCond-Regular-65" x="311"/></g><g id="line2d_29"><path d="M738.992 56.378h24" style="fill:none;stroke:#e889ab;stroke-width:3;stroke-linecap:square"/><use xlink:href="#m17d045efe9" x="750.992" y="56.378" style="fill:#e889ab;stroke:#e889ab;stroke-linejoin:miter"/></g><g id="text_24" transform="matrix(.12 0 0 -.12 772.592 60.578)"><use xlink:href="#GuardianSansCond-Regular-41"/><use xlink:href="#GuardianSansCond-Regular-6c" x="51.1"/><use xlink:href="#GuardianSansCond-Regular-6c" x="70.4"/><use xlink:href="#GuardianSansCond-Regular-47" x="89.7"/><use xlink:href="#GuardianSansCond-Regular-61" x="143"/><use xlink:href="#GuardianSansCond-Regular-74" x="183.9"/><use xlink:href="#GuardianSansCond-Regular-68" x="212.9"/><use xlink:href="#GuardianSansCond-Regular-65" x="259"/><use xlink:href="#GuardianSansCond-Regular-72" x="301.7"/></g><g id="line2d_30"><path d="M738.992 73.478h24" style="fill:none;stroke:#cec0fa;stroke-width:3;stroke-linecap:square"/><use xlink:href="#m05010f6295" x="750.992" y="73.478" style="fill:#cec0fa;stroke:#cec0fa;stroke-linejoin:miter"/></g><g id="text_25" transform="matrix(.12 0 0 -.12 772.592 77.678)"><defs><path id="GuardianSansCond-Regular-53" d="M1184-70c954 0 1325 569 1325 1318 0 781-397 1011-947 1254l-320 141c-384 167-512 327-512 717 0 448 256 678 729 678 384 0 685-102 877-198v461c-179 96-422 198-870 198-813 0-1268-441-1268-1177 0-685 346-973 826-1184l320-141c416-186 614-320 614-800 0-538-256-800-812-800-352 0-704 115-980 249V186C390 51 723-70 1184-70" transform="scale(.01563)"/></defs><use xlink:href="#GuardianSansCond-Regular-52"/><use xlink:href="#GuardianSansCond-Regular-65" x="48.7"/><use xlink:href="#GuardianSansCond-Regular-64" x="91.4"/><use xlink:href="#GuardianSansCond-Regular-75" x="138"/><use xlink:href="#GuardianSansCond-Regular-63" x="183.5"/><use xlink:href="#GuardianSansCond-Regular-65" x="221.3"/><use xlink:href="#GuardianSansCond-Regular-53" x="264"/><use xlink:href="#GuardianSansCond-Regular-63" x="306.2"/><use xlink:href="#GuardianSansCond-Regular-61" x="344"/><use xlink:href="#GuardianSansCond-Regular-74" x="384.9"/><use xlink:href="#GuardianSansCond-Regular-74" x="413.9"/><use xlink:href="#GuardianSansCond-Regular-65" x="442.9"/><use xlink:href="#GuardianSansCond-Regular-72" x="485.6"/></g></g></g></g><defs><clipPath id="p8202fc8c6f"><path d="M44.741 23.869h800.38v213.88H44.741z"/></clipPath></defs></svg>