<svg xmlns="http://www.w3.org/2000/svg" xmlns:xlink="http://www.w3.org/1999/xlink" width="1243.27" height="407.733" viewBox="0 0 932.453 305.8"><defs><style>*{stroke-linejoin:round;stroke-linecap:butt}</style></defs><g id="figure_1"><path id="patch_1" d="M0 305.8h932.453V0H0z" style="fill:#fff"/><g id="axes_1"><path id="patch_2" d="M42.953 269.928h196.941V42.624H42.953z" style="fill:#fff"/><g id="matplotlib.axis_1"><g id="xtick_1"><path id="line2d_1" d="M75.776 269.928V42.624" clip-path="url(#p151422361f)" style="fill:none;stroke:#b0b0b0;stroke-opacity:.3;stroke-width:.8;stroke-linecap:square"/><g id="line2d_2"><defs><path id="m4c153b4420" d="M0 0v3.5" style="stroke:#000;stroke-width:.8"/></defs><use xlink:href="#m4c153b4420" x="75.776" y="269.928" style="stroke:#000;stroke-width:.8"/></g><g id="text_1" transform="matrix(0 -.1 -.1 0 78.492 294.148)"><defs><path id="GuardianSansCond-Regular-31" d="M832 0h531v4474h-192L141 4083v-307l691 70z" transform="scale(.01563)"/><path id="GuardianSansCond-Regular-30" d="M1722-70c934 0 1433 716 1433 2131v345c0 1485-557 2093-1440 2093-896 0-1446-665-1446-2131v-326C269 499 845-70 1722-70m6 454c-659 0-883 595-883 1632v474c0 1004 243 1561 864 1561 627 0 883-537 883-1593v-480c0-1044-218-1594-864-1594" transform="scale(.01563)"/><path id="GuardianSansCond-Regular-32" d="M173 0h2297v461H800v19l774 941c493 614 845 1107 845 1843 0 762-390 1235-1197 1235-416 0-723-89-953-217v-429c198 96 461 179 787 179 563 0 794-282 794-819 0-583-308-1024-698-1543L173 397z" transform="scale(.01563)"/><path id="GuardianSansCond-Regular-34" d="M1805 0h525v1107h627v455h-627v2873h-461L70 1504v-397h1735zM608 1562v19l1171 1894h26V1562z" transform="scale(.01563)"/></defs><use xlink:href="#GuardianSansCond-Regular-31"/><use xlink:href="#GuardianSansCond-Regular-30" x="28.8"/><use xlink:href="#GuardianSansCond-Regular-32" x="82.3"/><use xlink:href="#GuardianSansCond-Regular-34" x="124.8"/></g></g><g id="xtick_2"><path id="line2d_3" d="M141.423 269.928V42.624" clip-path="url(#p151422361f)" style="fill:none;stroke:#b0b0b0;stroke-opacity:.3;stroke-width:.8;stroke-linecap:square"/><use xlink:href="#m4c153b4420" id="line2d_4" x="141.423" y="269.928" style="stroke:#000;stroke-width:.8"/><g id="text_2" transform="matrix(0 -.1 -.1 0 144.139 296.8)"><defs><path id="GuardianSansCond-Regular-39" d="M1171-70c1005 0 1683 518 1683 2291v365c0 1209-422 1913-1331 1913-832 0-1280-582-1280-1478 0-819 410-1338 1146-1338 377 0 685 135 896 301-19-1376-487-1587-1178-1587-256 0-544 70-678 121V96C563 0 858-70 1171-70m371 2220c-486 0-736 295-736 922 0 640 237 973 717 973 525 0 762-487 762-1453v-218c-147-102-403-224-743-224" transform="scale(.01563)"/><path id="GuardianSansCond-Regular-36" d="M1632 384c-550 0-787 531-787 1453v217c147 96 409 224 749 224 492 0 729-294 729-921 0-615-237-973-691-973m0-454c806 0 1254 614 1254 1478 0 826-396 1338-1132 1338-391 0-698-135-909-301 32 1408 595 1593 1184 1593 262 0 525-64 659-108v422c-141 90-416 147-730 147-915 0-1683-518-1683-2291v-365C275 691 717-70 1632-70" transform="scale(.01563)"/></defs><use xlink:href="#GuardianSansCond-Regular-34"/><use xlink:href="#GuardianSansCond-Regular-30" x="47.4"/><use xlink:href="#GuardianSansCond-Regular-39" x="100.9"/><use xlink:href="#GuardianSansCond-Regular-36" x="149.8"/></g></g><g id="xtick_3"><path id="line2d_5" d="M207.07 269.928V42.624" clip-path="url(#p151422361f)" style="fill:none;stroke:#b0b0b0;stroke-opacity:.3;stroke-width:.8;stroke-linecap:square"/><use xlink:href="#m4c153b4420" id="line2d_6" x="207.07" y="269.928" style="stroke:#000;stroke-width:.8"/><g id="text_3" transform="matrix(0 -.1 -.1 0 209.786 298.6)"><defs><path id="GuardianSansCond-Regular-33" d="M1094-64c826 0 1338 480 1338 1312 0 691-320 1005-826 1114v19c436 134 704 422 704 1024 0 691-428 1094-1152 1094-371 0-672-70-883-179v-429c186 77 403 147 723 147 480 0 756-172 756-736 0-505-276-755-736-755H717v-461h339c544 0 813-249 813-819 0-621-352-864-922-864-301 0-589 90-800 205V166C358 32 640-64 1094-64" transform="scale(.01563)"/><path id="GuardianSansCond-Regular-38" d="M1581-64c864 0 1350 531 1350 1203 0 621-339 935-825 1191 384 211 716 569 716 1094 0 653-428 1075-1216 1075-787 0-1222-486-1222-1101 0-550 294-889 685-1113-467-231-839-602-839-1203C230 384 710-64 1581-64m6 454c-505 0-819 288-819 736 0 455 269 768 646 954 615-288 973-506 973-998 0-468-333-692-800-692m167 2132c-544 256-826 499-826 908 0 391 243 621 678 621 461 0 679-269 679-653 0-390-186-633-531-876" transform="scale(.01563)"/></defs><use xlink:href="#GuardianSansCond-Regular-31"/><use xlink:href="#GuardianSansCond-Regular-36" x="28.8"/><use xlink:href="#GuardianSansCond-Regular-33" x="77.7"/><use xlink:href="#GuardianSansCond-Regular-38" x="119.9"/><use xlink:href="#GuardianSansCond-Regular-34" x="169.3"/></g></g></g><g id="matplotlib.axis_2"><g id="ytick_1"><path id="line2d_7" d="M42.953 269.928h196.941" clip-path="url(#p151422361f)" style="fill:none;stroke-dasharray:2.96,1.28;stroke-dashoffset:0;stroke:#b0b0b0;stroke-opacity:.3;stroke-width:.8"/><g id="line2d_8"><defs><path id="m12422bff94" d="M0 0h-3.5" style="stroke:#000;stroke-width:.8"/></defs><use xlink:href="#m12422bff94" x="42.953" y="269.928" style="stroke:#000;stroke-width:.8"/></g><use xlink:href="#GuardianSansCond-Regular-30" id="text_4" transform="matrix(.1 0 0 -.1 30.603 273.598)"/></g><g id="ytick_2"><path id="line2d_9" d="M42.953 239.62h196.941" clip-path="url(#p151422361f)" style="fill:none;stroke-dasharray:2.96,1.28;stroke-dashoffset:0;stroke:#b0b0b0;stroke-opacity:.3;stroke-width:.8"/><use xlink:href="#m12422bff94" id="line2d_10" x="42.953" y="239.621" style="stroke:#000;stroke-width:.8"/><g id="text_5" transform="matrix(.1 0 0 -.1 26.353 243.291)"><use xlink:href="#GuardianSansCond-Regular-32"/><use xlink:href="#GuardianSansCond-Regular-30" x="42.5"/></g></g><g id="ytick_3"><path id="line2d_11" d="M42.953 209.314h196.941" clip-path="url(#p151422361f)" style="fill:none;stroke-dasharray:2.96,1.28;stroke-dashoffset:0;stroke:#b0b0b0;stroke-opacity:.3;stroke-width:.8"/><use xlink:href="#m12422bff94" id="line2d_12" x="42.953" y="209.314" style="stroke:#000;stroke-width:.8"/><g id="text_6" transform="matrix(.1 0 0 -.1 25.862 212.984)"><use xlink:href="#GuardianSansCond-Regular-34"/><use xlink:href="#GuardianSansCond-Regular-30" x="47.4"/></g></g><g id="ytick_4"><path id="line2d_13" d="M42.953 179.006h196.941" clip-path="url(#p151422361f)" style="fill:none;stroke-dasharray:2.96,1.28;stroke-dashoffset:0;stroke:#b0b0b0;stroke-opacity:.3;stroke-width:.8"/><use xlink:href="#m12422bff94" id="line2d_14" x="42.953" y="179.006" style="stroke:#000;stroke-width:.8"/><g id="text_7" transform="matrix(.1 0 0 -.1 25.712 182.677)"><use xlink:href="#GuardianSansCond-Regular-36"/><use xlink:href="#GuardianSansCond-Regular-30" x="48.9"/></g></g><g id="ytick_5"><path id="line2d_15" d="M42.953 148.7h196.941" clip-path="url(#p151422361f)" style="fill:none;stroke-dasharray:2.96,1.28;stroke-dashoffset:0;stroke:#b0b0b0;stroke-opacity:.3;stroke-width:.8"/><use xlink:href="#m12422bff94" id="line2d_16" x="42.953" y="148.699" style="stroke:#000;stroke-width:.8"/><g id="text_8" transform="matrix(.1 0 0 -.1 25.662 152.37)"><use xlink:href="#GuardianSansCond-Regular-38"/><use xlink:href="#GuardianSansCond-Regular-30" x="49.4"/></g></g><g id="ytick_6"><path id="line2d_17" d="M42.953 118.392h196.941" clip-path="url(#p151422361f)" style="fill:none;stroke-dasharray:2.96,1.28;stroke-dashoffset:0;stroke:#b0b0b0;stroke-opacity:.3;stroke-width:.8"/><use xlink:href="#m12422bff94" id="line2d_18" x="42.953" y="118.392" style="stroke:#000;stroke-width:.8"/><g id="text_9" transform="matrix(.1 0 0 -.1 22.373 122.062)"><use xlink:href="#GuardianSansCond-Regular-31"/><use xlink:href="#GuardianSansCond-Regular-30" x="28.8"/><use xlink:href="#GuardianSansCond-Regular-30" x="82.3"/></g></g><g id="ytick_7"><path id="line2d_19" d="M42.953 88.085h196.941" clip-path="url(#p151422361f)" style="fill:none;stroke-dasharray:2.96,1.28;stroke-dashoffset:0;stroke:#b0b0b0;stroke-opacity:.3;stroke-width:.8"/><use xlink:href="#m12422bff94" id="line2d_20" x="42.953" y="88.085" style="stroke:#000;stroke-width:.8"/><g id="text_10" transform="matrix(.1 0 0 -.1 23.473 91.755)"><use xlink:href="#GuardianSansCond-Regular-31"/><use xlink:href="#GuardianSansCond-Regular-32" x="28.8"/><use xlink:href="#GuardianSansCond-Regular-30" x="71.3"/></g></g><g id="ytick_8"><path id="line2d_21" d="M42.953 57.778h196.941" clip-path="url(#p151422361f)" style="fill:none;stroke-dasharray:2.96,1.28;stroke-dashoffset:0;stroke:#b0b0b0;stroke-opacity:.3;stroke-width:.8"/><use xlink:href="#m12422bff94" id="line2d_22" x="42.953" y="57.778" style="stroke:#000;stroke-width:.8"/><g id="text_11" transform="matrix(.1 0 0 -.1 22.983 61.448)"><use xlink:href="#GuardianSansCond-Regular-31"/><use xlink:href="#GuardianSansCond-Regular-34" x="28.8"/><use xlink:href="#GuardianSansCond-Regular-30" x="76.2"/></g></g><g id="text_12" transform="matrix(0 -.12 -.12 0 16.009 198.348)"><defs><path id="GuardianSansCond-Regular-4d" d="M416 0h493v2675c0 423-26 1171-26 1171h19s154-716 224-985L1875 0h551l761 2899c90 352 224 960 224 960h19s-25-761-25-1177V0h512v4435h-819l-730-2925c-102-403-186-902-186-902h-12s-84 493-186 902l-742 2925H416z" transform="scale(.01563)"/><path id="GuardianSansCond-Regular-65" d="M1555-51c429 0 762 153 915 294v384c-230-128-505-230-857-230-576 0-871 301-890 1069h1831v332c0 1095-378 1536-1152 1536-743 0-1216-524-1216-1612v-173C186 499 634-51 1555-51m-173 2957c448 0 628-295 628-1012H723c13 736 269 1012 659 1012" transform="scale(.01563)"/><path id="GuardianSansCond-Regular-6d" d="M346 0h524v2688c180 102 397 198 653 198 333 0 448-128 448-422V0h519v2688c192 109 422 198 646 198 352 0 454-140 454-422V0h525v2528c0 576-294 806-768 806-352 0-659-147-928-339h-25c-128 231-333 339-672 339-327 0-634-153-852-313h-25v262H346z" transform="scale(.01563)"/><path id="GuardianSansCond-Regular-6f" d="M1459-51c813 0 1274 621 1274 1593v205c0 1024-442 1587-1274 1587-800 0-1273-620-1273-1593v-211C186 531 614-51 1459-51m7 429c-474 0-743 384-743 1094v346c0 633 224 1088 730 1088 467 0 742-346 742-1101v-339c0-640-237-1088-729-1088" transform="scale(.01563)"/><path id="GuardianSansCond-Regular-72" d="M346 0h524v2605c192 147 436 237 717 237 51 0 141-7 199-13v473c-39 13-109 26-180 26-300 0-576-186-736-390h-25v345H346z" transform="scale(.01563)"/><path id="GuardianSansCond-Regular-79" d="M570-1261c512 0 736 301 915 896l1107 3648h-525l-582-2086c-64-205-109-410-109-410h-13s-32 141-115 416L621 3283H51L1120 13l-102-307C896-698 749-826 480-826c-96 0-218 13-294 26v-371c96-51 249-90 384-90" transform="scale(.01563)"/><path id="GuardianSansCond-Regular-55" d="M1760-70c922 0 1350 480 1350 1414v3091h-512V1395c0-736-230-1011-812-1011-589 0-852 282-852 1005v3046H397V1325C397 429 832-70 1760-70" transform="scale(.01563)"/><path id="GuardianSansCond-Regular-73" d="M992-51c666 0 1062 358 1062 998 0 538-236 762-748 941l-256 90c-282 96-391 217-391 473 0 320 205 442 563 442 295 0 538-83 692-154v429c-141 83-346 166-717 166-666 0-1037-352-1037-928 0-505 262-748 666-889l256-90c326-115 454-243 454-531 0-314-166-506-602-506-352 0-576 90-780 173V141C358 19 640-51 992-51" transform="scale(.01563)"/><path id="GuardianSansCond-Regular-61" d="M1082-51c313 0 556 128 697 281h32l51-230h429v2413c0 614-333 921-998 921-378 0-659-76-883-179v-384c166 58 396 115 684 115 506 0 672-147 672-608v-320l-678-102c-608-90-928-390-928-973 0-633 365-934 922-934m140 409c-345 0-518 186-518 557 0 359 173 525 538 570l524 64V525c-108-90-307-167-544-167" transform="scale(.01563)"/><path id="GuardianSansCond-Regular-67" d="M1325-1235c915 0 1350 448 1350 1056 0 595-339 883-979 883h-627c-211 0-295 102-295 262 0 103 52 212 116 276 128-45 281-64 441-64 608 0 1082 352 1082 1030v96c0 256-77 435-179 570h448v409h-935c-121 32-262 51-422 51-621 0-1075-390-1075-1056v-96c0-396 179-672 384-806-212-166-340-352-340-589 0-243 148-384 333-454v-26C320 192 64-38 64-422c0-493 442-813 1261-813m-13 416c-480 0-717 179-717 493 0 275 167 467 371 544h666c390 0 518-173 518-455 0-365-224-582-838-582m19 2400c-333 0-569 192-569 608v134c0 403 211 608 569 608 339 0 570-185 570-621v-134c0-397-218-595-570-595" transform="scale(.01563)"/><path id="GuardianSansCond-Regular-28" d="M1318-768h442C1267-166 826 877 826 1869v217c0 1031 441 2016 934 2612h-442C800 4160 275 3187 275 2029v-147C275 723 800-237 1318-768" transform="scale(.01563)"/><path id="GuardianSansCond-Regular-47" d="M1933-64c518 0 909 115 1165 230v2068H1837v-455h729V486c-134-51-358-89-588-89-922 0-1172 614-1172 1702v307c0 992 282 1632 1184 1632 448 0 724-108 954-217v454c-186 115-467 224-922 224-1113 0-1785-646-1785-2157v-243C237 493 864-64 1933-64" transform="scale(.01563)"/><path id="GuardianSansCond-Regular-42" d="M416 0h1146c966 0 1382 493 1382 1254 0 711-326 999-832 1069v26c493 134 678 493 678 985 0 692-326 1101-1273 1101H416zm538 454v1620h563c569 0 864-199 864-781 0-557-224-839-864-839zm0 2061v1459h499c525 0 787-160 787-710 0-557-320-749-838-749z" transform="scale(.01563)"/><path id="GuardianSansCond-Regular-29" d="M32-768h448C992-237 1517 717 1517 1882v147c0 1152-525 2131-1037 2669H32c499-602 941-1645 941-2663v-217C973 813 531-166 32-768" transform="scale(.01563)"/></defs><use xlink:href="#GuardianSansCond-Regular-4d"/><use xlink:href="#GuardianSansCond-Regular-65" x="67.7"/><use xlink:href="#GuardianSansCond-Regular-6d" x="110.4"/><use xlink:href="#GuardianSansCond-Regular-6f" x="179.9"/><use xlink:href="#GuardianSansCond-Regular-72" x="225.5"/><use xlink:href="#GuardianSansCond-Regular-79" x="254.3"/><use xlink:href="#GuardianSansCond-Regular-55" x="311.5"/><use xlink:href="#GuardianSansCond-Regular-73" x="366.3"/><use xlink:href="#GuardianSansCond-Regular-61" x="400.8"/><use xlink:href="#GuardianSansCond-Regular-67" x="441.7"/><use xlink:href="#GuardianSansCond-Regular-65" x="484.4"/><use xlink:href="#GuardianSansCond-Regular-28" x="542.9"/><use xlink:href="#GuardianSansCond-Regular-47" x="570.9"/><use xlink:href="#GuardianSansCond-Regular-42" x="624.2"/><use xlink:href="#GuardianSansCond-Regular-29" x="673.2"/></g></g><path id="patch_3" d="M59.365 269.928h32.823V70.658H59.365z" clip-path="url(#p151422361f)" style="fill:#4ea5b7"/><path id="patch_4" d="M125.012 269.928h32.823V70.658h-32.823z" clip-path="url(#p151422361f)" style="fill:#4ea5b7"/><path id="patch_5" d="M190.659 269.928h32.823V70.658H190.66z" clip-path="url(#p151422361f)" style="fill:#4ea5b7"/><path id="patch_6" d="M59.365 70.658h32.823v-199.27H59.365z" clip-path="url(#p151422361f)" style="fill:#e889ab"/><path id="patch_7" d="M125.012 70.658h32.823v-199.27h-32.823z" clip-path="url(#p151422361f)" style="fill:#e889ab"/><path id="patch_8" d="M190.659 70.658h32.823v-199.27H190.66z" clip-path="url(#p151422361f)" style="fill:#e889ab"/><path id="patch_9" d="M59.365-128.612h32.823V-925.69H59.365z" clip-path="url(#p151422361f)" style="fill:#cec0fa"/><path id="patch_10" d="M125.012-128.612h32.823V-925.69h-32.823z" clip-path="url(#p151422361f)" style="fill:#cec0fa"/><path id="patch_11" d="M190.659-128.612h32.823V-925.69H190.66z" clip-path="url(#p151422361f)" style="fill:#cec0fa"/><path id="patch_12" d="M59.365-925.691h32.823v-32.201H59.365z" clip-path="url(#p151422361f)" style="fill:#e38a42"/><path id="patch_13" d="M125.012-925.691h32.823v-128.806h-32.823z" clip-path="url(#p151422361f)" style="fill:#e38a42"/><path id="patch_14" d="M190.659-925.691h32.823v-515.222H190.66z" clip-path="url(#p151422361f)" style="fill:#e38a42"/><path id="line2d_23" d="M42.953 148.7h196.941" clip-path="url(#p151422361f)" style="fill:none;stroke-dasharray:7.4,3.2;stroke-dashoffset:0;stroke:red;stroke-width:2"/><path id="patch_15" d="M42.953 269.928V42.624" style="fill:none;stroke:#000;stroke-width:.8;stroke-linejoin:miter;stroke-linecap:square"/><path id="patch_16" d="M239.894 269.928V42.624" style="fill:none;stroke:#000;stroke-width:.8;stroke-linejoin:miter;stroke-linecap:square"/><path id="patch_17" d="M42.953 269.928h196.941" style="fill:none;stroke:#000;stroke-width:.8;stroke-linejoin:miter;stroke-linecap:square"/><path id="patch_18" d="M42.953 42.624h196.941" style="fill:none;stroke:#000;stroke-width:.8;stroke-linejoin:miter;stroke-linecap:square"/><g id="text_13" transform="matrix(.144 0 0 -.144 105.518 36.624)"><defs><path id="GuardianSansCond-Regular-4e" d="M416 0h493v2912c0 512-32 845-32 845h19s154-435 378-935L2547 0h608v4435h-493V1568c0-454 32-806 32-806h-12s-180 492-352 864L1094 4435H416z" transform="scale(.01563)"/><path id="GuardianSansCond-Regular-50" d="M416 0h538v1766h601c807 0 1299 480 1299 1351 0 909-441 1318-1318 1318H416zm538 2221v1753h524c583 0 807-224 807-876 0-602-231-877-813-877z" transform="scale(.01563)"/><path id="GuardianSansCond-Regular-6c" d="M358 0h519v4698H358z" transform="scale(.01563)"/><path id="GuardianSansCond-Regular-69" d="M358 0h525v3283H358zm-6 3910h531v564H352z" transform="scale(.01563)"/></defs><use xlink:href="#GuardianSansCond-Regular-4e"/><use xlink:href="#GuardianSansCond-Regular-6f" x="55.8"/><use xlink:href="#GuardianSansCond-Regular-50" x="117.2"/><use xlink:href="#GuardianSansCond-Regular-61" x="164.2"/><use xlink:href="#GuardianSansCond-Regular-72" x="205.1"/><use xlink:href="#GuardianSansCond-Regular-61" x="233.9"/><use xlink:href="#GuardianSansCond-Regular-6c" x="274.8"/><use xlink:href="#GuardianSansCond-Regular-6c" x="294.1"/><use xlink:href="#GuardianSansCond-Regular-65" x="313.4"/><use xlink:href="#GuardianSansCond-Regular-6c" x="356.1"/><use xlink:href="#GuardianSansCond-Regular-69" x="375.4"/><use xlink:href="#GuardianSansCond-Regular-73" x="394.7"/><use xlink:href="#GuardianSansCond-Regular-6d" x="429.2"/></g></g><g id="axes_2"><path id="patch_19" d="M279.282 269.928h196.941V42.624h-196.94z" style="fill:#fff"/><g id="matplotlib.axis_3"><g id="xtick_4"><path id="line2d_24" d="M312.106 269.928V42.624" clip-path="url(#p5a1d915955)" style="fill:none;stroke:#b0b0b0;stroke-opacity:.3;stroke-width:.8;stroke-linecap:square"/><use xlink:href="#m4c153b4420" id="line2d_25" x="312.106" y="269.928" style="stroke:#000;stroke-width:.8"/><g id="text_14" transform="matrix(0 -.1 -.1 0 314.821 294.148)"><use xlink:href="#GuardianSansCond-Regular-31"/><use xlink:href="#GuardianSansCond-Regular-30" x="28.8"/><use xlink:href="#GuardianSansCond-Regular-32" x="82.3"/><use xlink:href="#GuardianSansCond-Regular-34" x="124.8"/></g></g><g id="xtick_5"><path id="line2d_26" d="M377.753 269.928V42.624" clip-path="url(#p5a1d915955)" style="fill:none;stroke:#b0b0b0;stroke-opacity:.3;stroke-width:.8;stroke-linecap:square"/><use xlink:href="#m4c153b4420" id="line2d_27" x="377.753" y="269.928" style="stroke:#000;stroke-width:.8"/><g id="text_15" transform="matrix(0 -.1 -.1 0 380.468 296.8)"><use xlink:href="#GuardianSansCond-Regular-34"/><use xlink:href="#GuardianSansCond-Regular-30" x="47.4"/><use xlink:href="#GuardianSansCond-Regular-39" x="100.9"/><use xlink:href="#GuardianSansCond-Regular-36" x="149.8"/></g></g><g id="xtick_6"><path id="line2d_28" d="M443.4 269.928V42.624" clip-path="url(#p5a1d915955)" style="fill:none;stroke:#b0b0b0;stroke-opacity:.3;stroke-width:.8;stroke-linecap:square"/><use xlink:href="#m4c153b4420" id="line2d_29" x="443.4" y="269.928" style="stroke:#000;stroke-width:.8"/><g id="text_16" transform="matrix(0 -.1 -.1 0 446.115 298.6)"><use xlink:href="#GuardianSansCond-Regular-31"/><use xlink:href="#GuardianSansCond-Regular-36" x="28.8"/><use xlink:href="#GuardianSansCond-Regular-33" x="77.7"/><use xlink:href="#GuardianSansCond-Regular-38" x="119.9"/><use xlink:href="#GuardianSansCond-Regular-34" x="169.3"/></g></g></g><g id="matplotlib.axis_4"><g id="ytick_9"><path id="line2d_30" d="M279.282 269.928h196.941" clip-path="url(#p5a1d915955)" style="fill:none;stroke-dasharray:2.96,1.28;stroke-dashoffset:0;stroke:#b0b0b0;stroke-opacity:.3;stroke-width:.8"/><use xlink:href="#m12422bff94" id="line2d_31" x="279.282" y="269.928" style="stroke:#000;stroke-width:.8"/></g><g id="ytick_10"><path id="line2d_32" d="M279.282 239.62h196.941" clip-path="url(#p5a1d915955)" style="fill:none;stroke-dasharray:2.96,1.28;stroke-dashoffset:0;stroke:#b0b0b0;stroke-opacity:.3;stroke-width:.8"/><use xlink:href="#m12422bff94" id="line2d_33" x="279.282" y="239.621" style="stroke:#000;stroke-width:.8"/></g><g id="ytick_11"><path id="line2d_34" d="M279.282 209.314h196.941" clip-path="url(#p5a1d915955)" style="fill:none;stroke-dasharray:2.96,1.28;stroke-dashoffset:0;stroke:#b0b0b0;stroke-opacity:.3;stroke-width:.8"/><use xlink:href="#m12422bff94" id="line2d_35" x="279.282" y="209.314" style="stroke:#000;stroke-width:.8"/></g><g id="ytick_12"><path id="line2d_36" d="M279.282 179.006h196.941" clip-path="url(#p5a1d915955)" style="fill:none;stroke-dasharray:2.96,1.28;stroke-dashoffset:0;stroke:#b0b0b0;stroke-opacity:.3;stroke-width:.8"/><use xlink:href="#m12422bff94" id="line2d_37" x="279.282" y="179.006" style="stroke:#000;stroke-width:.8"/></g><g id="ytick_13"><path id="line2d_38" d="M279.282 148.7h196.941" clip-path="url(#p5a1d915955)" style="fill:none;stroke-dasharray:2.96,1.28;stroke-dashoffset:0;stroke:#b0b0b0;stroke-opacity:.3;stroke-width:.8"/><use xlink:href="#m12422bff94" id="line2d_39" x="279.282" y="148.699" style="stroke:#000;stroke-width:.8"/></g><g id="ytick_14"><path id="line2d_40" d="M279.282 118.392h196.941" clip-path="url(#p5a1d915955)" style="fill:none;stroke-dasharray:2.96,1.28;stroke-dashoffset:0;stroke:#b0b0b0;stroke-opacity:.3;stroke-width:.8"/><use xlink:href="#m12422bff94" id="line2d_41" x="279.282" y="118.392" style="stroke:#000;stroke-width:.8"/></g><g id="ytick_15"><path id="line2d_42" d="M279.282 88.085h196.941" clip-path="url(#p5a1d915955)" style="fill:none;stroke-dasharray:2.96,1.28;stroke-dashoffset:0;stroke:#b0b0b0;stroke-opacity:.3;stroke-width:.8"/><use xlink:href="#m12422bff94" id="line2d_43" x="279.282" y="88.085" style="stroke:#000;stroke-width:.8"/></g><g id="ytick_16"><path id="line2d_44" d="M279.282 57.778h196.941" clip-path="url(#p5a1d915955)" style="fill:none;stroke-dasharray:2.96,1.28;stroke-dashoffset:0;stroke:#b0b0b0;stroke-opacity:.3;stroke-width:.8"/><use xlink:href="#m12422bff94" id="line2d_45" x="279.282" y="57.778" style="stroke:#000;stroke-width:.8"/></g></g><path id="patch_20" d="M295.694 269.928h32.824v-24.909h-32.824z" clip-path="url(#p5a1d915955)" style="fill:#4ea5b7"/><path id="patch_21" d="M361.341 269.928h32.824v-24.909H361.34z" clip-path="url(#p5a1d915955)" style="fill:#4ea5b7"/><path id="patch_22" d="M426.988 269.928h32.824v-24.909h-32.824z" clip-path="url(#p5a1d915955)" style="fill:#4ea5b7"/><path id="patch_23" d="M295.694 245.02h32.824v-24.91h-32.824z" clip-path="url(#p5a1d915955)" style="fill:#e889ab"/><path id="patch_24" d="M361.341 245.02h32.824v-24.91H361.34z" clip-path="url(#p5a1d915955)" style="fill:#e889ab"/><path id="patch_25" d="M426.988 245.02h32.824v-24.91h-32.824z" clip-path="url(#p5a1d915955)" style="fill:#e889ab"/><path id="patch_26" d="M295.694 220.11h32.824v-99.634h-32.824z" clip-path="url(#p5a1d915955)" style="fill:#cec0fa"/><path id="patch_27" d="M361.341 220.11h32.824v-99.634H361.34z" clip-path="url(#p5a1d915955)" style="fill:#cec0fa"/><path id="patch_28" d="M426.988 220.11h32.824v-99.634h-32.824z" clip-path="url(#p5a1d915955)" style="fill:#cec0fa"/><path id="patch_29" d="M295.694 120.476h32.824v-12.313h-32.824z" clip-path="url(#p5a1d915955)" style="fill:#e38a42"/><path id="patch_30" d="M361.341 120.476h32.824v-49.25H361.34z" clip-path="url(#p5a1d915955)" style="fill:#e38a42"/><path id="patch_31" d="M426.988 120.476h32.824V-76.521h-32.824z" clip-path="url(#p5a1d915955)" style="fill:#e38a42"/><path id="line2d_46" d="M279.282 148.7h196.941" clip-path="url(#p5a1d915955)" style="fill:none;stroke-dasharray:7.4,3.2;stroke-dashoffset:0;stroke:red;stroke-width:2"/><path id="patch_32" d="M279.282 269.928V42.624" style="fill:none;stroke:#000;stroke-width:.8;stroke-linejoin:miter;stroke-linecap:square"/><path id="patch_33" d="M476.223 269.928V42.624" style="fill:none;stroke:#000;stroke-width:.8;stroke-linejoin:miter;stroke-linecap:square"/><path id="patch_34" d="M279.282 269.928h196.941" style="fill:none;stroke:#000;stroke-width:.8;stroke-linejoin:miter;stroke-linecap:square"/><path id="patch_35" d="M279.282 42.624h196.941" style="fill:none;stroke:#000;stroke-width:.8;stroke-linejoin:miter;stroke-linecap:square"/><g id="text_17" transform="matrix(.144 0 0 -.144 364.36 36.624)"><defs><path id="GuardianSansCond-Regular-54" d="M1152 0h538v3974h1056v461H90v-461h1062z" transform="scale(.01563)"/><path id="GuardianSansCond-Regular-3d" d="M326 2253h2240v441H326zm0-1037h2240v448H326z" transform="scale(.01563)"/></defs><use xlink:href="#GuardianSansCond-Regular-54"/><use xlink:href="#GuardianSansCond-Regular-50" x="44.5"/><use xlink:href="#GuardianSansCond-Regular-3d" x="91.5"/><use xlink:href="#GuardianSansCond-Regular-38" x="136.6"/></g></g><g id="axes_3"><path id="patch_36" d="M515.612 269.928h196.94V42.624h-196.94z" style="fill:#fff"/><g id="matplotlib.axis_5"><g id="xtick_7"><path id="line2d_47" d="M548.435 269.928V42.624" clip-path="url(#p08ef40d26e)" style="fill:none;stroke:#b0b0b0;stroke-opacity:.3;stroke-width:.8;stroke-linecap:square"/><use xlink:href="#m4c153b4420" id="line2d_48" x="548.435" y="269.928" style="stroke:#000;stroke-width:.8"/><g id="text_18" transform="matrix(0 -.1 -.1 0 551.15 294.148)"><use xlink:href="#GuardianSansCond-Regular-31"/><use xlink:href="#GuardianSansCond-Regular-30" x="28.8"/><use xlink:href="#GuardianSansCond-Regular-32" x="82.3"/><use xlink:href="#GuardianSansCond-Regular-34" x="124.8"/></g></g><g id="xtick_8"><path id="line2d_49" d="M614.082 269.928V42.624" clip-path="url(#p08ef40d26e)" style="fill:none;stroke:#b0b0b0;stroke-opacity:.3;stroke-width:.8;stroke-linecap:square"/><use xlink:href="#m4c153b4420" id="line2d_50" x="614.082" y="269.928" style="stroke:#000;stroke-width:.8"/><g id="text_19" transform="matrix(0 -.1 -.1 0 616.798 296.8)"><use xlink:href="#GuardianSansCond-Regular-34"/><use xlink:href="#GuardianSansCond-Regular-30" x="47.4"/><use xlink:href="#GuardianSansCond-Regular-39" x="100.9"/><use xlink:href="#GuardianSansCond-Regular-36" x="149.8"/></g></g><g id="xtick_9"><path id="line2d_51" d="M679.73 269.928V42.624" clip-path="url(#p08ef40d26e)" style="fill:none;stroke:#b0b0b0;stroke-opacity:.3;stroke-width:.8;stroke-linecap:square"/><use xlink:href="#m4c153b4420" id="line2d_52" x="679.729" y="269.928" style="stroke:#000;stroke-width:.8"/><g id="text_20" transform="matrix(0 -.1 -.1 0 682.445 298.6)"><use xlink:href="#GuardianSansCond-Regular-31"/><use xlink:href="#GuardianSansCond-Regular-36" x="28.8"/><use xlink:href="#GuardianSansCond-Regular-33" x="77.7"/><use xlink:href="#GuardianSansCond-Regular-38" x="119.9"/><use xlink:href="#GuardianSansCond-Regular-34" x="169.3"/></g></g></g><g id="matplotlib.axis_6"><g id="ytick_17"><path id="line2d_53" d="M515.612 269.928h196.94" clip-path="url(#p08ef40d26e)" style="fill:none;stroke-dasharray:2.96,1.28;stroke-dashoffset:0;stroke:#b0b0b0;stroke-opacity:.3;stroke-width:.8"/><use xlink:href="#m12422bff94" id="line2d_54" x="515.612" y="269.928" style="stroke:#000;stroke-width:.8"/></g><g id="ytick_18"><path id="line2d_55" d="M515.612 239.62h196.94" clip-path="url(#p08ef40d26e)" style="fill:none;stroke-dasharray:2.96,1.28;stroke-dashoffset:0;stroke:#b0b0b0;stroke-opacity:.3;stroke-width:.8"/><use xlink:href="#m12422bff94" id="line2d_56" x="515.612" y="239.621" style="stroke:#000;stroke-width:.8"/></g><g id="ytick_19"><path id="line2d_57" d="M515.612 209.314h196.94" clip-path="url(#p08ef40d26e)" style="fill:none;stroke-dasharray:2.96,1.28;stroke-dashoffset:0;stroke:#b0b0b0;stroke-opacity:.3;stroke-width:.8"/><use xlink:href="#m12422bff94" id="line2d_58" x="515.612" y="209.314" style="stroke:#000;stroke-width:.8"/></g><g id="ytick_20"><path id="line2d_59" d="M515.612 179.006h196.94" clip-path="url(#p08ef40d26e)" style="fill:none;stroke-dasharray:2.96,1.28;stroke-dashoffset:0;stroke:#b0b0b0;stroke-opacity:.3;stroke-width:.8"/><use xlink:href="#m12422bff94" id="line2d_60" x="515.612" y="179.006" style="stroke:#000;stroke-width:.8"/></g><g id="ytick_21"><path id="line2d_61" d="M515.612 148.7h196.94" clip-path="url(#p08ef40d26e)" style="fill:none;stroke-dasharray:2.96,1.28;stroke-dashoffset:0;stroke:#b0b0b0;stroke-opacity:.3;stroke-width:.8"/><use xlink:href="#m12422bff94" id="line2d_62" x="515.612" y="148.699" style="stroke:#000;stroke-width:.8"/></g><g id="ytick_22"><path id="line2d_63" d="M515.612 118.392h196.94" clip-path="url(#p08ef40d26e)" style="fill:none;stroke-dasharray:2.96,1.28;stroke-dashoffset:0;stroke:#b0b0b0;stroke-opacity:.3;stroke-width:.8"/><use xlink:href="#m12422bff94" id="line2d_64" x="515.612" y="118.392" style="stroke:#000;stroke-width:.8"/></g><g id="ytick_23"><path id="line2d_65" d="M515.612 88.085h196.94" clip-path="url(#p08ef40d26e)" style="fill:none;stroke-dasharray:2.96,1.28;stroke-dashoffset:0;stroke:#b0b0b0;stroke-opacity:.3;stroke-width:.8"/><use xlink:href="#m12422bff94" id="line2d_66" x="515.612" y="88.085" style="stroke:#000;stroke-width:.8"/></g><g id="ytick_24"><path id="line2d_67" d="M515.612 57.778h196.94" clip-path="url(#p08ef40d26e)" style="fill:none;stroke-dasharray:2.96,1.28;stroke-dashoffset:0;stroke:#b0b0b0;stroke-opacity:.3;stroke-width:.8"/><use xlink:href="#m12422bff94" id="line2d_68" x="515.612" y="57.778" style="stroke:#000;stroke-width:.8"/></g></g><path id="patch_37" d="M532.023 269.928h32.824v-12.454h-32.824z" clip-path="url(#p08ef40d26e)" style="fill:#4ea5b7"/><path id="patch_38" d="M597.67 269.928h32.824v-12.454H597.67z" clip-path="url(#p08ef40d26e)" style="fill:#4ea5b7"/><path id="patch_39" d="M663.318 269.928h32.823v-12.454h-32.823z" clip-path="url(#p08ef40d26e)" style="fill:#4ea5b7"/><path id="patch_40" d="M532.023 257.474h32.824v-12.455h-32.824z" clip-path="url(#p08ef40d26e)" style="fill:#e889ab"/><path id="patch_41" d="M597.67 257.474h32.824v-12.455H597.67z" clip-path="url(#p08ef40d26e)" style="fill:#e889ab"/><path id="patch_42" d="M663.318 257.474h32.823v-12.455h-32.823z" clip-path="url(#p08ef40d26e)" style="fill:#e889ab"/><path id="patch_43" d="M532.023 245.02h32.824v-49.818h-32.824z" clip-path="url(#p08ef40d26e)" style="fill:#cec0fa"/><path id="patch_44" d="M597.67 245.02h32.824v-49.818H597.67z" clip-path="url(#p08ef40d26e)" style="fill:#cec0fa"/><path id="patch_45" d="M663.318 245.02h32.823v-49.818h-32.823z" clip-path="url(#p08ef40d26e)" style="fill:#cec0fa"/><path id="patch_46" d="M532.023 195.202h32.824V184.31h-32.824z" clip-path="url(#p08ef40d26e)" style="fill:#e38a42"/><path id="patch_47" d="M597.67 195.202h32.824v-43.567H597.67z" clip-path="url(#p08ef40d26e)" style="fill:#e38a42"/><path id="patch_48" d="M663.318 195.202h32.823V20.935h-32.823z" clip-path="url(#p08ef40d26e)" style="fill:#e38a42"/><path id="line2d_69" d="M515.612 148.7h196.94" clip-path="url(#p08ef40d26e)" style="fill:none;stroke-dasharray:7.4,3.2;stroke-dashoffset:0;stroke:red;stroke-width:2"/><path id="patch_49" d="M515.612 269.928V42.624" style="fill:none;stroke:#000;stroke-width:.8;stroke-linejoin:miter;stroke-linecap:square"/><path id="patch_50" d="M712.553 269.928V42.624" style="fill:none;stroke:#000;stroke-width:.8;stroke-linejoin:miter;stroke-linecap:square"/><path id="patch_51" d="M515.612 269.928h196.94" style="fill:none;stroke:#000;stroke-width:.8;stroke-linejoin:miter;stroke-linecap:square"/><path id="patch_52" d="M515.612 42.624h196.94" style="fill:none;stroke:#000;stroke-width:.8;stroke-linejoin:miter;stroke-linecap:square"/><g id="text_21" transform="matrix(.144 0 0 -.144 598.653 36.624)"><use xlink:href="#GuardianSansCond-Regular-54"/><use xlink:href="#GuardianSansCond-Regular-50" x="44.5"/><use xlink:href="#GuardianSansCond-Regular-3d" x="91.5"/><use xlink:href="#GuardianSansCond-Regular-31" x="136.6"/><use xlink:href="#GuardianSansCond-Regular-36" x="165.4"/></g></g><g id="text_22" transform="matrix(.16 0 0 -.16 283.842 19.055)"><defs><path id="GuardianSansCond-Regular-66" d="M493 0h525v2848h608v435h-608v429c0 403 128 595 460 595 154 0 276-25 359-45v378c-90 45-250 102-474 102-537 0-870-313-870-985v-474H96v-435h397z" transform="scale(.01563)"/><path id="GuardianSansCond-Regular-37" d="M461 0h557l1369 3994v441H109v-461h1741v-25z" transform="scale(.01563)"/><path id="GuardianSansCond-Regular-64" d="M1357-51c333 0 608 128 768 294h25l45-243h442v4698h-519V3174c-140 90-384 160-652 160-832 0-1268-595-1268-1664v-147C198 339 723-51 1357-51m147 429c-512 0-762 371-762 1164v186c0 813 237 1165 794 1165 243 0 467-58 582-135V595c-134-102-345-217-614-217" transform="scale(.01563)"/></defs><use xlink:href="#GuardianSansCond-Regular-4d"/><use xlink:href="#GuardianSansCond-Regular-65" x="67.7"/><use xlink:href="#GuardianSansCond-Regular-6d" x="110.4"/><use xlink:href="#GuardianSansCond-Regular-6f" x="179.9"/><use xlink:href="#GuardianSansCond-Regular-72" x="225.5"/><use xlink:href="#GuardianSansCond-Regular-79" x="254.3"/><use xlink:href="#GuardianSansCond-Regular-55" x="311.5"/><use xlink:href="#GuardianSansCond-Regular-73" x="366.3"/><use xlink:href="#GuardianSansCond-Regular-61" x="400.8"/><use xlink:href="#GuardianSansCond-Regular-67" x="441.7"/><use xlink:href="#GuardianSansCond-Regular-65" x="484.4"/><use xlink:href="#GuardianSansCond-Regular-66" x="542.9"/><use xlink:href="#GuardianSansCond-Regular-6f" x="569.6"/><use xlink:href="#GuardianSansCond-Regular-72" x="615.2"/><use xlink:href="#GuardianSansCond-Regular-37" x="659.8"/><use xlink:href="#GuardianSansCond-Regular-30" x="698.7"/><use xlink:href="#GuardianSansCond-Regular-42" x="752.2"/><use xlink:href="#GuardianSansCond-Regular-4d" x="817"/><use xlink:href="#GuardianSansCond-Regular-6f" x="884.7"/><use xlink:href="#GuardianSansCond-Regular-64" x="930.3"/><use xlink:href="#GuardianSansCond-Regular-65" x="976.9"/><use xlink:href="#GuardianSansCond-Regular-6c" x="1019.6"/></g><g id="legend_1"><path id="patch_53" d="M807.353 199.35h115.5q2.4 0 2.4-2.4v-84.3q0-2.4-2.4-2.4h-115.5q-2.4 0-2.4 2.4v84.3q0 2.4 2.4 2.4z" style="fill:#fff;opacity:.8;stroke:#ccc;stroke-linejoin:miter"/><path id="line2d_70" d="M809.753 119.659h24" style="fill:none;stroke-dasharray:7.4,3.2;stroke-dashoffset:0;stroke:red;stroke-width:2"/><g id="text_23" transform="matrix(.12 0 0 -.12 843.353 123.859)"><defs><path id="GuardianSansCond-Regular-74" d="M1222-38c244 0 397 64 500 128v352c-90-26-205-52-340-52-275 0-377 90-377 391v2067h678v435h-678v768H486v-768H96v-435h390V710c0-550 288-748 736-748" transform="scale(.01563)"/></defs><use xlink:href="#GuardianSansCond-Regular-38"/><use xlink:href="#GuardianSansCond-Regular-30" x="49.4"/><use xlink:href="#GuardianSansCond-Regular-47" x="102.9"/><use xlink:href="#GuardianSansCond-Regular-42" x="156.2"/><use xlink:href="#GuardianSansCond-Regular-6c" x="221"/><use xlink:href="#GuardianSansCond-Regular-69" x="240.3"/><use xlink:href="#GuardianSansCond-Regular-6d" x="259.6"/><use xlink:href="#GuardianSansCond-Regular-69" x="329.1"/><use xlink:href="#GuardianSansCond-Regular-74" x="348.4"/></g><path id="patch_54" d="M809.753 140.959h24v-8.4h-24z" style="fill:#4ea5b7"/><g id="text_24" transform="matrix(.12 0 0 -.12 843.353 140.959)"><use xlink:href="#GuardianSansCond-Regular-4d"/><use xlink:href="#GuardianSansCond-Regular-6f" x="67.7"/><use xlink:href="#GuardianSansCond-Regular-64" x="113.3"/><use xlink:href="#GuardianSansCond-Regular-65" x="159.9"/><use xlink:href="#GuardianSansCond-Regular-6c" x="202.6"/><use xlink:href="#GuardianSansCond-Regular-50" x="237.7"/><use xlink:href="#GuardianSansCond-Regular-61" x="284.7"/><use xlink:href="#GuardianSansCond-Regular-72" x="325.6"/><use xlink:href="#GuardianSansCond-Regular-61" x="354.4"/><use xlink:href="#GuardianSansCond-Regular-6d" x="395.3"/><use xlink:href="#GuardianSansCond-Regular-65" x="464.8"/><use xlink:href="#GuardianSansCond-Regular-74" x="507.5"/><use xlink:href="#GuardianSansCond-Regular-65" x="536.5"/><use xlink:href="#GuardianSansCond-Regular-72" x="579.2"/><use xlink:href="#GuardianSansCond-Regular-73" x="608"/></g><path id="patch_55" d="M809.753 158.059h24v-8.4h-24z" style="fill:#e889ab"/><g id="text_25" transform="matrix(.12 0 0 -.12 843.353 158.059)"><defs><path id="GuardianSansCond-Regular-6e" d="M346 0h524v2688c167 90 436 198 717 198 378 0 506-121 506-428V0h518v2528c0 557-269 806-800 806-371 0-704-140-941-313h-25v262H346z" transform="scale(.01563)"/></defs><use xlink:href="#GuardianSansCond-Regular-47"/><use xlink:href="#GuardianSansCond-Regular-72" x="53.3"/><use xlink:href="#GuardianSansCond-Regular-61" x="82.1"/><use xlink:href="#GuardianSansCond-Regular-64" x="123"/><use xlink:href="#GuardianSansCond-Regular-69" x="169.6"/><use xlink:href="#GuardianSansCond-Regular-65" x="188.9"/><use xlink:href="#GuardianSansCond-Regular-6e" x="231.6"/><use xlink:href="#GuardianSansCond-Regular-74" x="277.7"/><use xlink:href="#GuardianSansCond-Regular-73" x="306.7"/></g><path id="patch_56" d="M809.753 175.159h24v-8.4h-24z" style="fill:#cec0fa"/><g id="text_26" transform="matrix(.12 0 0 -.12 843.353 175.159)"><defs><path id="GuardianSansCond-Regular-4f" d="M1818-64c1068 0 1580 800 1580 2118v320c0 1440-556 2125-1580 2125-1050 0-1581-774-1581-2137v-295C237 576 819-64 1818-64m6 448c-768 0-1018 653-1018 1690v403c0 921 276 1574 999 1574 768 0 1024-633 1024-1677v-409c0-967-295-1581-1005-1581" transform="scale(.01563)"/><path id="GuardianSansCond-Regular-70" d="M346-1222h524V128c135-90 372-179 672-179 832 0 1242 576 1242 1651v218c0 1094-442 1516-1114 1516-352 0-640-147-800-300h-25v249H346zM1466 378c-256 0-493 83-596 160v2150c122 96 359 205 653 205 512 0 723-320 723-1095v-249c0-807-243-1171-780-1171" transform="scale(.01563)"/><path id="GuardianSansCond-Regular-7a" d="M179 0h2067v435H794v19l1465 2464v365H256v-429h1370v-19L179 384z" transform="scale(.01563)"/><path id="GuardianSansCond-Regular-53" d="M1184-70c954 0 1325 569 1325 1318 0 781-397 1011-947 1254l-320 141c-384 167-512 327-512 717 0 448 256 678 729 678 384 0 685-102 877-198v461c-179 96-422 198-870 198-813 0-1268-441-1268-1177 0-685 346-973 826-1184l320-141c416-186 614-320 614-800 0-538-256-800-812-800-352 0-704 115-980 249V186C390 51 723-70 1184-70" transform="scale(.01563)"/></defs><use xlink:href="#GuardianSansCond-Regular-4f"/><use xlink:href="#GuardianSansCond-Regular-70" x="56.8"/><use xlink:href="#GuardianSansCond-Regular-74" x="103.4"/><use xlink:href="#GuardianSansCond-Regular-69" x="132.4"/><use xlink:href="#GuardianSansCond-Regular-6d" x="151.7"/><use xlink:href="#GuardianSansCond-Regular-69" x="221.2"/><use xlink:href="#GuardianSansCond-Regular-7a" x="240.5"/><use xlink:href="#GuardianSansCond-Regular-65" x="278.7"/><use xlink:href="#GuardianSansCond-Regular-72" x="321.4"/><use xlink:href="#GuardianSansCond-Regular-53" x="366"/><use xlink:href="#GuardianSansCond-Regular-74" x="408.2"/><use xlink:href="#GuardianSansCond-Regular-61" x="437.2"/><use xlink:href="#GuardianSansCond-Regular-74" x="478.1"/><use xlink:href="#GuardianSansCond-Regular-65" x="507.1"/><use xlink:href="#GuardianSansCond-Regular-73" x="549.8"/></g><path id="patch_57" d="M809.753 192.259h24v-8.4h-24z" style="fill:#e38a42"/><g id="text_27" transform="matrix(.12 0 0 -.12 843.353 192.259)"><defs><path id="GuardianSansCond-Regular-41" d="M70 0h506l333 1222h1401L2656 0h550L1933 4435h-595zm1549 3776s77-346 135-563l422-1536H1043l423 1536c64 224 134 563 134 563z" transform="scale(.01563)"/><path id="GuardianSansCond-Regular-63" d="M1498-51c371 0 627 102 800 224v422c-135-77-391-205-743-205-550 0-832 314-832 1152v256c0 666 218 1095 787 1095 346 0 544-90 749-179v435c-166 109-384 185-717 185-774 0-1356-448-1356-1593v-205C186 416 685-51 1498-51" transform="scale(.01563)"/><path id="GuardianSansCond-Regular-76" d="M1075 0h538l992 3283h-512l-589-2093c-83-320-134-537-134-537h-26s-45 224-128 537L627 3283H70z" transform="scale(.01563)"/></defs><use xlink:href="#GuardianSansCond-Regular-41"/><use xlink:href="#GuardianSansCond-Regular-63" x="51.1"/><use xlink:href="#GuardianSansCond-Regular-74" x="88.9"/><use xlink:href="#GuardianSansCond-Regular-69" x="117.9"/><use xlink:href="#GuardianSansCond-Regular-76" x="137.2"/><use xlink:href="#GuardianSansCond-Regular-61" x="179.1"/><use xlink:href="#GuardianSansCond-Regular-74" x="220"/><use xlink:href="#GuardianSansCond-Regular-69" x="249"/><use xlink:href="#GuardianSansCond-Regular-6f" x="268.3"/><use xlink:href="#GuardianSansCond-Regular-6e" x="313.9"/><use xlink:href="#GuardianSansCond-Regular-73" x="360"/></g></g></g><defs><clipPath id="p151422361f"><path d="M42.953 42.624h196.941v227.304H42.953z"/></clipPath><clipPath id="p5a1d915955"><path d="M279.282 42.624h196.941v227.304H279.282z"/></clipPath><clipPath id="p08ef40d26e"><path d="M515.612 42.624h196.941v227.304H515.612z"/></clipPath></defs></svg>