<svg xmlns="http://www.w3.org/2000/svg" width="800.933" height="146.088" fill="none" stroke-linecap="square" stroke-miterlimit="10"><clipPath id="a"><path d="M0 0h960v540H0Z"/></clipPath><g clip-path="url(#a)" transform="translate(-127.783 -39.367)"><path d="M425.206 39.367h166.11v42.016h-166.11Z"/><path fill="#000" d="M440.375 52.881h7.407v2.516h-2.438v10.89h-2.578v-10.89h-2.39zm9.147 0h2.719q2.187 0 3.156.406t1.531 1.313.563 2.172q0 1.406-.735 2.344-.734.921-1.984 1.28-.75.22-2.687.22v5.671h-2.563zm2.563 5.25h.796q.97 0 1.344-.14t.578-.454q.219-.312.219-.765 0-.766-.61-1.125-.437-.266-1.609-.266h-.718zm12.262-1.75h2.14v1.25q.344-.75.906-1.125.579-.39 1.266-.39.484 0 1.016.265l-.782 2.14q-.437-.218-.718-.218-.578 0-.969.719-.39.703-.39 2.781v4.484h-2.47zm16.482 5.672h-7.984q.171 1.063.921 1.688.75.609 1.922.609 1.391 0 2.391-.969l2.094.985q-.782 1.109-1.875 1.64-1.094.531-2.594.531-2.344 0-3.813-1.468-1.453-1.469-1.453-3.688 0-2.265 1.453-3.765 1.47-1.5 3.672-1.5 2.344 0 3.813 1.5t1.469 3.968zm-2.5-1.953q-.25-.828-.969-1.344-.719-.531-1.672-.531-1.047 0-1.828.578-.5.375-.906 1.297zm11.833-3.719h2.484v8.485q0 2.515-1.015 3.703-1.36 1.593-4.094 1.593-1.453 0-2.453-.359-.984-.36-1.672-1.078-.687-.703-1.016-1.703h2.75q.36.406.938.625t1.36.219q1 0 1.609-.313.61-.312.86-.812.25-.485.25-1.688-.657.656-1.376.953-.719.281-1.625.281-2 0-3.375-1.437t-1.375-3.64q0-2.36 1.453-3.798 1.328-1.296 3.156-1.296.86 0 1.61.328.765.312 1.531 1.031zm-2.578 2.063q-1.172 0-1.938.797-.765.78-.765 1.968 0 1.25.781 2.047.781.781 1.969.781 1.156 0 1.906-.765.75-.781.75-2.047 0-1.234-.75-2-.75-.781-1.953-.781m8.55-6.157q.657 0 1.125.485.47.469.47 1.14 0 .672-.47 1.141-.468.469-1.109.469-.672 0-1.14-.469-.47-.484-.47-1.172 0-.656.47-1.125.468-.469 1.124-.469m-1.25 4.094h2.5v9.906h-2.5zm9.395-.265q1.406 0 2.64.703t1.923 1.906q.703 1.203.703 2.594 0 1.406-.703 2.625-.688 1.218-1.891 1.906t-2.656.687q-2.125 0-3.64-1.515-1.5-1.516-1.5-3.688 0-2.312 1.702-3.859 1.485-1.36 3.422-1.36m.047 2.343q-1.156 0-1.938.813-.765.797-.765 2.062 0 1.297.75 2.094.765.797 1.937.797t1.938-.813q.781-.812.781-2.078 0-1.28-.766-2.078-.765-.797-1.937-.797m7.24-2.078h2.484v1q.844-.703 1.531-.984.688-.281 1.406-.281 1.485 0 2.516 1.03.86.876.86 2.595v6.546h-2.454v-4.343q0-1.782-.172-2.36-.156-.578-.547-.875-.39-.312-.984-.312-.75 0-1.297.5t-.75 1.39q-.11.47-.11 2.016v3.984h-2.484zm18.633-4.094h3.141q-1.625 1.844-2.422 3.985t-.797 4.89q0 2.97.89 5.235.688 1.734 2.33 3.765h-3.142q-1.468-2.312-2.046-4.328-.579-2.015-.579-4.75 0-2.672.61-4.687t2.015-4.11m6.447.594h2.484l3.11 9.36 3.14-9.36h2.454l2.265 13.406h-2.469l-1.437-8.468-2.844 8.468h-2.25l-2.812-8.468-1.47 8.468h-2.483zm15.492 0h2.547v10.97h3.719v2.437h-6.266zm8.192 0h2.719q2.187 0 3.156.406t1.531 1.313.563 2.172q0 1.406-.735 2.344-.734.921-1.984 1.28-.75.22-2.688.22v5.671h-2.562zm2.562 5.25h.797q.97 0 1.344-.14t.578-.454q.219-.312.219-.765 0-.766-.61-1.125-.437-.266-1.609-.266h-.719zm10.012 12.031h-3.157q1.625-1.828 2.422-3.953.797-2.14.797-4.906 0-2.984-.89-5.234-.688-1.735-2.329-3.782h3.157q1.453 2.329 2.03 4.344.579 2.016.579 4.75 0 2.672-.61 4.688-.609 2.015-2 4.093"/><path d="M127.783 112.42h166.11v19.402h-166.11Z"/><path fill="#000" d="m148.705 118.155-1.53 1.531q-1.47-1.547-3.407-1.547-1.703 0-2.844 1.125t-1.14 2.735q0 1.656 1.187 2.812t2.922 1.156q1.14 0 1.906-.468.781-.485 1.266-1.5h-3.328v-2.047h5.78l.016.484q0 1.5-.78 2.86-.782 1.343-2.032 2.062-1.234.719-2.906.719-1.797 0-3.203-.781-1.391-.782-2.22-2.22-.812-1.437-.812-3.109 0-2.28 1.516-3.968 1.781-2 4.656-2 1.5 0 2.797.547 1.11.468 2.156 1.609m2.828-1.875h2.313q1.89 0 2.719.36.828.343 1.312 1.124.485.766.485 1.86 0 1.203-.641 2-.625.797-1.703 1.11-.625.17-2.297.17v4.876h-2.188zm2.188 4.5h.687q.829 0 1.141-.11.328-.124.5-.39.188-.281.188-.656 0-.672-.516-.97-.375-.233-1.39-.233h-.61zm6.695-4.5h2.203v7.437q0 .97.157 1.375.172.391.562.625.39.235.938.235.578 0 .984-.266.422-.265.578-.672.172-.406.172-1.562v-7.172h2.188v6.86q0 1.734-.204 2.406-.187.671-.734 1.296t-1.266.938q-.718.297-1.671.297-1.25 0-2.188-.578-.922-.578-1.328-1.438-.39-.875-.39-2.922zm25.36 2.031-1.532 1.453q-1.562-1.64-3.515-1.64-1.64 0-2.781 1.125-1.125 1.125-1.125 2.765 0 1.157.5 2.047t1.406 1.406q.922.5 2.047.5.953 0 1.734-.359.797-.36 1.734-1.297l1.485 1.547q-1.266 1.25-2.406 1.734-1.125.485-2.579.485-2.687 0-4.39-1.703t-1.703-4.36q0-1.718.765-3.047.782-1.343 2.235-2.156 1.453-.812 3.125-.812 1.422 0 2.734.61 1.313.593 2.266 1.702m5.68.75q1.202 0 2.25.61 1.062.593 1.656 1.625.593 1.03.593 2.218 0 1.203-.593 2.25-.594 1.047-1.625 1.64-1.032.595-2.282.595-1.828 0-3.125-1.297-1.28-1.313-1.28-3.172 0-1.984 1.452-3.313 1.281-1.156 2.953-1.156m.03 2q-1 0-1.656.703-.656.688-.656 1.766 0 1.11.64 1.797.657.687 1.657.687t1.656-.687q.672-.703.672-1.797t-.656-1.781q-.64-.688-1.656-.688m6.196-1.781h2.14v.969q.547-.594 1.22-.89.671-.298 1.452-.298.797 0 1.438.39.64.391 1.031 1.141.516-.75 1.25-1.14t1.61-.39q.906 0 1.593.421.688.422.985 1.11.312.671.312 2.203v4.984h-2.156v-4.313q0-1.453-.36-1.953-.359-.515-1.078-.515-.547 0-.984.312-.422.313-.64.86-.204.546-.204 1.765v3.844h-2.156v-4.125q0-1.14-.172-1.64-.156-.516-.5-.766-.328-.25-.812-.25-.532 0-.97.312-.421.313-.64.89-.219.563-.219 1.798v3.78h-2.14zm17.18 0v.937q.578-.578 1.25-.859.671-.297 1.437-.297 1.656 0 2.813 1.266 1.171 1.25 1.171 3.219 0 1.89-1.203 3.171-1.203 1.282-2.843 1.282-.735 0-1.375-.266-.625-.266-1.25-.86v4.016h-2.125v-11.61zm2.234 1.75q-1 0-1.672.687-.656.688-.656 1.797 0 1.125.656 1.828.672.704 1.672.704.984 0 1.64-.704.672-.718.672-1.828 0-1.093-.656-1.78-.656-.704-1.656-.704m6.203-1.75h2.156v4.094q0 1.187.157 1.656.171.469.53.734.36.25.891.25.532 0 .907-.25.375-.265.547-.75.14-.375.14-1.578v-4.156h2.14v3.594q0 2.234-.359 3.047-.421 1-1.265 1.546-.828.532-2.125.532-1.39 0-2.266-.625-.86-.625-1.203-1.75-.25-.766-.25-2.813zm9.867-3.14h2.125v3.14h1.266v1.828h-1.266v6.672h-2.125v-6.672h-1.094v-1.828h1.094zm10.813 3.14h2.125v8.5h-2.125v-.906q-.625.593-1.25.86-.625.265-1.36.265-1.656 0-2.859-1.282-1.203-1.28-1.203-3.171 0-1.97 1.156-3.22 1.172-1.265 2.844-1.265.765 0 1.437.297.672.281 1.235.86zm-2.235 1.75q-1 0-1.656.703-.656.688-.656 1.781 0 1.11.672 1.828.672.704 1.64.704 1.016 0 1.672-.704.672-.703.672-1.828 0-1.11-.672-1.797-.656-.687-1.672-.687m6.782-4.89h2.125v3.14h1.265v1.828h-1.265v6.672h-2.125v-6.672h-1.094v-1.828h1.094zm5.375-.36q.562 0 .953.406.406.406.406.985 0 .562-.406.968-.39.407-.938.407-.578 0-.984-.407-.39-.422-.39-1 0-.562.39-.953.406-.406.969-.406m-1.079 3.5h2.141v8.5h-2.14zm8.07-.219q1.204 0 2.25.61 1.063.593 1.657 1.625.594 1.03.594 2.218 0 1.203-.594 2.25t-1.625 1.64q-1.031.595-2.281.595-1.828 0-3.125-1.297-1.281-1.313-1.281-3.172 0-1.984 1.453-3.313 1.28-1.156 2.953-1.156m.032 2q-1 0-1.656.703-.656.688-.656 1.766 0 1.11.64 1.797.656.687 1.656.687t1.657-.687q.672-.703.672-1.797t-.657-1.781q-.64-.688-1.656-.688m6.21-1.781h2.126v.86q.734-.61 1.312-.844.594-.235 1.22-.235 1.265 0 2.14.875.75.75.75 2.219v5.625h-2.11v-3.734q0-1.516-.14-2.016t-.485-.766q-.328-.265-.828-.265-.656 0-1.125.437-.453.438-.64 1.203-.094.39-.094 1.72v3.42h-2.125zm10.774-.219q.5 0 .86.36.36.359.36.859t-.36.86q-.36.359-.86.359-.515 0-.875-.344-.359-.36-.359-.875 0-.5.36-.86.359-.359.874-.359m0 6.485q.5 0 .86.359.36.36.36.86 0 .515-.36.874-.36.36-.86.36-.515 0-.875-.36-.359-.36-.359-.875 0-.5.36-.86.359-.358.874-.358"/><path d="M127.783 154.31h186.961v19.401h-186.96Z"/><path fill="#000" d="m148.705 160.045-1.53 1.531q-1.47-1.547-3.407-1.547-1.703 0-2.844 1.125t-1.14 2.734q0 1.657 1.187 2.813t2.922 1.156q1.14 0 1.906-.469.781-.484 1.266-1.5h-3.328v-2.046h5.78l.016.484q0 1.5-.78 2.86-.782 1.343-2.032 2.062-1.234.719-2.906.719-1.797 0-3.203-.782-1.391-.78-2.22-2.218-.812-1.438-.812-3.11 0-2.281 1.516-3.969 1.781-2 4.656-2 1.5 0 2.797.547 1.11.47 2.156 1.61m2.828-1.875h2.313q1.89 0 2.719.36.828.343 1.312 1.124.485.766.485 1.86 0 1.203-.641 2-.625.796-1.703 1.109-.625.172-2.297.172v4.875h-2.188zm2.188 4.5h.687q.829 0 1.141-.11.328-.125.5-.39.188-.282.188-.657 0-.671-.516-.968-.375-.235-1.39-.235h-.61zm6.695-4.5h2.203v7.437q0 .969.157 1.375.172.39.562.625t.938.235q.578 0 .984-.266.422-.266.578-.672.172-.406.172-1.562v-7.172h2.188v6.86q0 1.733-.204 2.405-.187.672-.734 1.297t-1.266.938q-.718.297-1.671.297-1.25 0-2.188-.579-.922-.578-1.328-1.437-.39-.875-.39-2.922zm25.36 2.031-1.532 1.453q-1.562-1.64-3.515-1.64-1.64 0-2.781 1.124-1.125 1.125-1.125 2.766 0 1.156.5 2.047.5.89 1.406 1.406.922.5 2.047.5.953 0 1.734-.36.797-.359 1.734-1.296l1.485 1.547q-1.266 1.25-2.406 1.734-1.125.485-2.579.485-2.687 0-4.39-1.704t-1.703-4.359q0-1.719.765-3.047.782-1.344 2.235-2.156t3.125-.813q1.422 0 2.734.61 1.313.594 2.266 1.703m5.68.75q1.202 0 2.25.61 1.062.593 1.656 1.624t.593 2.22q0 1.202-.593 2.25-.594 1.046-1.625 1.64t-2.282.593q-1.828 0-3.125-1.296-1.28-1.313-1.28-3.172 0-1.985 1.452-3.313 1.281-1.156 2.953-1.156m.03 2q-1 0-1.656.703-.656.688-.656 1.766 0 1.11.64 1.797.657.687 1.657.687t1.656-.687q.672-.704.672-1.797 0-1.094-.656-1.782-.64-.687-1.656-.687m6.196-1.781h2.14v.968q.547-.593 1.22-.89.671-.297 1.452-.297.797 0 1.438.39.64.391 1.031 1.141.516-.75 1.25-1.14.734-.391 1.61-.391.906 0 1.593.422.688.422.985 1.11.312.671.312 2.202v4.985h-2.156v-4.313q0-1.453-.36-1.953-.359-.516-1.078-.516-.547 0-.984.313-.422.312-.64.86-.204.546-.204 1.765v3.844h-2.156v-4.125q0-1.14-.172-1.64-.156-.517-.5-.767-.328-.25-.812-.25-.532 0-.97.313-.421.312-.64.89-.219.563-.219 1.797v3.782h-2.14zm15.039 0h2.14v.968q.547-.593 1.22-.89.671-.297 1.452-.297.797 0 1.438.39.64.391 1.031 1.141.516-.75 1.25-1.14.735-.391 1.61-.391.906 0 1.593.422.688.422.985 1.11.312.671.312 2.202v4.985h-2.156v-4.313q0-1.453-.36-1.953-.359-.516-1.078-.516-.546 0-.984.313-.422.312-.64.86-.204.546-.204 1.765v3.844h-2.156v-4.125q0-1.14-.172-1.64-.156-.517-.5-.767-.328-.25-.812-.25-.532 0-.97.313-.421.312-.64.89-.218.563-.218 1.797v3.782h-2.141zm15.055 0h2.156v4.093q0 1.188.156 1.657.172.468.531.734.36.25.891.25t.906-.25q.375-.266.547-.75.14-.375.14-1.578v-4.156h2.141v3.593q0 2.235-.359 3.047-.422 1-1.266 1.547-.828.531-2.125.531-1.39 0-2.265-.625-.86-.625-1.203-1.75-.25-.765-.25-2.812zm9.601 0h2.125v.86q.735-.61 1.313-.845.593-.234 1.218-.234 1.266 0 2.141.875.75.75.75 2.219v5.625h-2.11v-3.735q0-1.515-.14-2.015t-.484-.766q-.328-.266-.828-.266-.657 0-1.125.438-.454.437-.641 1.203-.094.39-.094 1.719v3.422h-2.125zm10.445-3.5q.563 0 .954.406.406.406.406.984 0 .563-.406.97-.391.405-.938.405-.578 0-.984-.406-.39-.422-.39-1 0-.562.39-.953.406-.406.968-.406m-1.078 3.5h2.141v8.5h-2.14zm12.399 1.718-1.781.97q-.5-.516-.985-.72-.484-.203-1.14-.203-1.204 0-1.938.72-.734.702-.734 1.827 0 1.078.703 1.766.719.687 1.875.687 1.422 0 2.219-.968l1.687 1.14q-1.375 1.781-3.86 1.781-2.25 0-3.515-1.328t-1.266-3.109q0-1.234.61-2.266.625-1.047 1.719-1.64 1.109-.594 2.484-.594 1.266 0 2.266.5 1.015.5 1.656 1.437m8.195-1.718h2.125v8.5h-2.125v-.907q-.625.594-1.25.86-.625.265-1.36.265-1.656 0-2.859-1.28-1.203-1.282-1.203-3.173 0-1.968 1.156-3.218 1.172-1.266 2.844-1.266.766 0 1.438.297.672.281 1.234.86zm-2.234 1.75q-1 0-1.657.703-.656.687-.656 1.781 0 1.11.672 1.828.672.703 1.64.703 1.016 0 1.673-.703.671-.703.671-1.828 0-1.11-.671-1.797-.657-.687-1.672-.687m6.781-4.89h2.125v3.14h1.266v1.828h-1.266v6.672h-2.125v-6.672h-1.094v-1.828h1.094zm5.375-.36q.562 0 .953.406.406.406.406.984 0 .563-.406.97-.39.405-.937.405-.579 0-.985-.406-.39-.422-.39-1 0-.562.39-.953.406-.406.969-.406m-1.078 3.5h2.14v8.5h-2.14zm8.07-.219q1.203 0 2.25.61 1.063.593 1.656 1.624.594 1.032.594 2.22 0 1.202-.594 2.25-.593 1.046-1.625 1.64-1.03.593-2.28.593-1.829 0-3.126-1.296-1.281-1.313-1.281-3.172 0-1.985 1.453-3.313 1.281-1.156 2.953-1.156m.031 2q-1 0-1.656.703-.656.688-.656 1.766 0 1.11.64 1.797.657.687 1.657.687t1.656-.687q.672-.704.672-1.797 0-1.094-.656-1.782-.641-.687-1.657-.687m6.211-1.781h2.125v.86q.735-.61 1.313-.845.594-.234 1.219-.234 1.265 0 2.14.875.75.75.75 2.219v5.625h-2.11v-3.735q0-1.515-.14-2.015t-.484-.766q-.328-.266-.828-.266-.657 0-1.125.438-.453.437-.64 1.203-.095.39-.095 1.719v3.422h-2.125zm10.774-.219q.5 0 .86.36.359.359.359.859t-.36.86-.86.358q-.515 0-.874-.343-.36-.36-.36-.875 0-.5.36-.86.36-.359.875-.359m0 6.484q.5 0 .86.36.359.36.359.86 0 .515-.36.874-.36.36-.86.36-.515 0-.874-.36-.36-.36-.36-.875 0-.5.36-.86.36-.359.875-.359"/><path fill="#8e7cc3" fill-rule="evenodd" d="M583.63 150.047a6.98 6.98 0 0 1 6.982-6.981h83.39a6.98 6.98 0 0 1 6.983 6.981v27.927a6.98 6.98 0 0 1-6.982 6.981h-83.391a6.98 6.98 0 0 1-6.982-6.981z"/><path stroke="#000" stroke-linecap="butt" stroke-linejoin="round" d="M583.63 150.047a6.98 6.98 0 0 1 6.982-6.981h83.39a6.98 6.98 0 0 1 6.983 6.981v27.927a6.98 6.98 0 0 1-6.982 6.981h-83.391a6.98 6.98 0 0 1-6.982-6.981z"/><path fill="#fff" d="M628.478 160.094h1.485l2.937 7.656h-1.515l-.594-1.578h-3.125l-.625 1.579h-1.516zm.75 2.031-1.015 2.625h2.03zm4.899-2.03h1.547q1.265 0 1.797.234.546.218.875.75.328.515.328 1.234 0 .766-.36 1.281-.359.5-1.093.75l1.812 3.406h-1.594l-1.718-3.234h-.125v3.235h-1.47zm1.469 3h.453q.687 0 .953-.188t.265-.61q0-.25-.14-.421-.125-.188-.344-.266-.219-.094-.797-.094h-.39z"/><path fill="#4ea5b7" fill-rule="evenodd" d="M395.887 108.158a6.98 6.98 0 0 1 6.982-6.982h48.084a6.98 6.98 0 0 1 6.982 6.982v27.926a6.98 6.98 0 0 1-6.982 6.982h-48.084a6.98 6.98 0 0 1-6.982-6.982z"/><path stroke="#000" stroke-linecap="butt" stroke-linejoin="round" d="M395.887 108.158a6.98 6.98 0 0 1 6.982-6.982h48.084a6.98 6.98 0 0 1 6.982 6.982v27.926a6.98 6.98 0 0 1-6.982 6.982h-48.084a6.98 6.98 0 0 1-6.982-6.982z"/><path fill="#fff" d="M415.909 117.343h4.75v1.78h-2.954v1.735h2.954v1.75h-2.954v4.313h-1.796zm15.162 1.687-1.28 1.219q-1.298-1.375-2.923-1.375-1.375 0-2.312.937-.938.938-.938 2.313 0 .953.407 1.703.421.734 1.187 1.156t1.688.422q.796 0 1.453-.297.656-.297 1.437-1.078l1.25 1.297q-1.062 1.031-2.015 1.437-.938.391-2.157.391-2.218 0-3.64-1.406-1.422-1.422-1.422-3.625 0-1.438.64-2.547.641-1.11 1.844-1.781 1.219-.688 2.61-.688 1.187 0 2.28.5 1.095.5 1.891 1.422m2.69-1.687h2.735v9.578h-1.813v-7.86h-1.968z"/><path fill="#8e7cc3" fill-rule="evenodd" d="M808.28 86.538a3.77 3.77 0 0 1 3.769-3.769h112.398a3.77 3.77 0 0 1 3.77 3.77v15.075a3.77 3.77 0 0 1-3.77 3.77H812.05a3.77 3.77 0 0 1-3.77-3.77z"/><path stroke="#000" stroke-linecap="butt" stroke-linejoin="round" d="M808.28 86.538a3.77 3.77 0 0 1 3.769-3.769h112.398a3.77 3.77 0 0 1 3.77 3.77v15.075a3.77 3.77 0 0 1-3.77 3.77H812.05a3.77 3.77 0 0 1-3.77-3.77z"/><path fill="#fff" d="M827.871 90.16h1.485l2.937 7.656h-1.515l-.594-1.578h-3.125l-.625 1.578h-1.516zm.75 2.031-1.015 2.625h2.031zm4.493-2.219h1.422v7.844h-1.422zm2.554 0h1.422v7.844h-1.422zm2.962.188h1.546q1.266 0 1.797.234.547.219.875.75.328.516.328 1.235 0 .765-.359 1.28-.36.5-1.094.75l1.813 3.407h-1.594l-1.719-3.234h-.125v3.234h-1.468zm1.468 3h.453q.688 0 .954-.188.265-.187.265-.609 0-.25-.14-.422-.125-.187-.344-.266-.219-.093-.797-.093h-.39zm10.135 2.234h-4.563q.094.61.516.969.437.344 1.11.344.796 0 1.359-.547l1.203.562q-.453.625-1.078.938-.625.297-1.485.297-1.328 0-2.172-.828-.828-.844-.828-2.11 0-1.297.828-2.156.844-.86 2.094-.86 1.344 0 2.172.86.844.86.844 2.266zm-1.422-1.11q-.14-.484-.563-.78-.406-.297-.953-.297-.593 0-1.047.343-.28.204-.515.735zm6.759-4.312h1.406v7.844h-1.406v-.594q-.422.391-.844.563t-.906.172q-1.094 0-1.906-.844-.797-.86-.797-2.11 0-1.312.781-2.156.781-.843 1.875-.843.516 0 .953.203.453.187.844.578zm-1.5 3.344q-.656 0-1.094.469-.437.469-.437 1.203 0 .719.437 1.203.453.469 1.094.469.672 0 1.11-.469.452-.469.452-1.219 0-.734-.453-1.187-.437-.469-1.11-.469m4.347-1.156h1.438v2.719q0 .796.11 1.109.108.312.343.484.234.172.594.172.359 0 .593-.172.25-.172.375-.5.094-.25.094-1.047V92.16h1.422v2.39q0 1.485-.234 2.032-.282.672-.844 1.031-.563.344-1.422.344-.922 0-1.5-.407-.578-.421-.813-1.171-.156-.516-.156-1.86zm11.942 1.14-1.188.657q-.328-.36-.656-.485-.328-.14-.765-.14-.797 0-1.297.484-.485.469-.485 1.219 0 .719.469 1.172.484.453 1.25.453.953 0 1.484-.64l1.125.765q-.921 1.172-2.578 1.172-1.484 0-2.343-.875-.844-.89-.844-2.078 0-.813.406-1.5.422-.704 1.156-1.094.735-.406 1.64-.406.845 0 1.517.343.671.328 1.109.953m6.946 2.094h-4.562q.093.61.515.969.438.344 1.11.344.797 0 1.36-.547l1.202.562q-.453.625-1.078.938-.625.297-1.484.297-1.328 0-2.172-.828-.828-.844-.828-2.11 0-1.297.828-2.156.844-.86 2.094-.86 1.343 0 2.172.86.843.86.843 2.266zm-1.422-1.11q-.14-.484-.562-.78-.406-.297-.953-.297-.594 0-1.047.343-.281.204-.516.735zm8.038-4.124h1.484l2.938 7.656h-1.516l-.594-1.578h-3.125l-.625 1.578h-1.515zm.75 2.031-1.016 2.625h2.031zm10.195 1.11-1.187.656q-.328-.36-.657-.485-.328-.14-.765-.14-.797 0-1.297.484-.484.469-.484 1.219 0 .719.468 1.172.485.453 1.25.453.953 0 1.485-.64l1.125.765q-.922 1.172-2.578 1.172-1.485 0-2.344-.875-.844-.89-.844-2.078 0-.813.406-1.5.422-.704 1.157-1.094.734-.406 1.64-.406.844 0 1.516.343.672.328 1.11.953m1.447-3.235h1.421v2.094h.829v1.219h-.829v4.437h-1.421V93.38h-.735v-1.22h.735zm3.585-.25q.375 0 .64.281.266.266.266.657 0 .375-.265.64-.266.266-.641.266t-.64-.266q-.266-.281-.266-.672 0-.375.265-.64.266-.266.641-.266m-.719 2.344h1.422v5.656h-1.422zm2.102 0h1.453l1.422 3.328 1.422-3.328h1.453l-2.422 5.656h-.906zm10.046.781-.89.89q-.532-.53-.97-.53-.234 0-.374.109-.125.094-.125.234 0 .125.078.219.094.094.422.266l.515.25q.829.406 1.125.828.313.422.313.984 0 .766-.563 1.266-.546.5-1.468.5-1.235 0-1.985-.969l.875-.953q.25.297.578.484.344.172.61.172.281 0 .453-.125.172-.14.172-.328 0-.328-.625-.64l-.469-.235q-1.375-.688-1.375-1.734 0-.672.516-1.141.515-.484 1.328-.484.547 0 1.031.25.484.234.828.687"/><path fill="#4ea5b7" fill-rule="evenodd" d="M808.28 114.31a3.77 3.77 0 0 1 3.769-3.77h112.398a3.77 3.77 0 0 1 3.77 3.77v15.076a3.77 3.77 0 0 1-3.77 3.769H812.05a3.77 3.77 0 0 1-3.77-3.77z"/><path stroke="#000" stroke-linecap="butt" stroke-linejoin="round" d="M808.28 114.31a3.77 3.77 0 0 1 3.769-3.77h112.398a3.77 3.77 0 0 1 3.77 3.77v15.076a3.77 3.77 0 0 1-3.77 3.769H812.05a3.77 3.77 0 0 1-3.77-3.77z"/><path fill="#fff" d="M826.99 117.07h4.75v1.78h-2.953v1.735h2.953v1.75h-2.953v4.313h-1.797zm9.491 2.312q1 0 1.875.5.891.5 1.391 1.36.5.859.5 1.859t-.5 1.875-1.36 1.375q-.859.484-1.89.484-1.531 0-2.61-1.078-1.077-1.094-1.077-2.64 0-1.657 1.218-2.766 1.078-.969 2.453-.969m.032 1.672q-.828 0-1.375.578t-.547 1.469q0 .937.531 1.516.547.562 1.39.562.829 0 1.376-.578.562-.578.562-1.5 0-.906-.547-1.469-.547-.578-1.39-.578m4.766-1.484h1.516v.89q.25-.531.656-.797.422-.28.906-.28.344 0 .719.187l-.547 1.53q-.313-.155-.516-.155-.406 0-.703.515-.281.5-.281 1.985l.015.343v2.86h-1.765zm3.888 0h1.734l1.437 4.03 1.532-4.03h1.062l1.5 3.984 1.422-3.984h1.75l-2.578 7.078H851.9l-1.516-4.031-1.547 4.03h-1.125zm16.675 0h1.781v7.078h-1.78v-.75q-.517.5-1.048.719-.515.218-1.125.218-1.375 0-2.375-1.062-1-1.078-1-2.656 0-1.641.969-2.688t2.344-1.047q.64 0 1.203.25.562.235 1.031.719zm-1.86 1.453q-.827 0-1.374.594-.547.578-.547 1.484 0 .922.547 1.516.562.593 1.375.593.843 0 1.39-.578.563-.594.563-1.531 0-.938-.563-1.5-.547-.578-1.39-.578M865 119.57h1.516v.89q.25-.531.656-.797.422-.28.906-.28.344 0 .719.187l-.547 1.53q-.312-.155-.516-.155-.406 0-.703.515-.28.5-.28 1.985l.015.343v2.86H865zm9.903-2.735h1.782v9.813h-1.782v-.75q-.515.5-1.046.719-.516.218-1.125.218-1.375 0-2.375-1.062-1-1.078-1-2.656 0-1.641.968-2.688.969-1.047 2.344-1.047.64 0 1.203.25.563.235 1.031.719zm-1.859 4.188q-.828 0-1.375.594-.547.578-.547 1.484 0 .922.547 1.516.563.593 1.375.593.844 0 1.39-.578.563-.594.563-1.531 0-.938-.562-1.5-.547-.578-1.391-.578m10.918-1.453v.78q.485-.483 1.047-.718.563-.25 1.203-.25 1.375 0 2.344 1.047t.969 2.688q0 1.578-1 2.656-1 1.062-2.375 1.062-.61 0-1.14-.218-.516-.22-1.048-.72v3.345h-1.765v-9.672zm1.875 1.453q-.843 0-1.406.578-.547.562-.547 1.5t.547 1.531q.563.578 1.406.578.813 0 1.36-.593.562-.594.562-1.516 0-.906-.547-1.484-.547-.594-1.375-.594m10.393-1.453h1.781v7.078h-1.781v-.75q-.516.5-1.047.719-.516.218-1.125.218-1.375 0-2.375-1.062-1-1.078-1-2.656 0-1.641.969-2.688.968-1.047 2.343-1.047.641 0 1.203.25.563.235 1.032.719zm-1.86 1.453q-.828 0-1.375.594-.547.578-.547 1.484 0 .922.547 1.516.563.593 1.375.593.844 0 1.391-.578.562-.594.562-1.531 0-.938-.562-1.5-.547-.578-1.39-.578m9.768-.469-1.11 1.11q-.656-.672-1.203-.672-.312 0-.484.125-.156.125-.156.312 0 .156.109.281.11.11.531.313l.64.328q1.032.516 1.407 1.047.39.515.39 1.219 0 .953-.702 1.593-.688.625-1.844.625-1.547 0-2.469-1.218l1.094-1.188q.312.36.719.594.421.219.75.219.359 0 .562-.172.219-.172.219-.391 0-.406-.766-.797l-.61-.297q-1.718-.875-1.718-2.172 0-.843.64-1.437.657-.594 1.673-.594.687 0 1.296.313.61.297 1.032.859m5.863 0-1.11 1.11q-.655-.672-1.202-.672-.313 0-.485.125-.156.125-.156.312 0 .156.11.281.109.11.53.313l.641.328q1.032.516 1.407 1.047.39.515.39 1.219 0 .953-.703 1.593-.687.625-1.844.625-1.546 0-2.468-1.218l1.093-1.188q.313.36.72.594.421.219.75.219.359 0 .562-.172.218-.172.218-.391 0-.406-.765-.797l-.61-.297q-1.718-.875-1.718-2.172 0-.843.64-1.437.657-.594 1.672-.594.688 0 1.297.313.61.297 1.031.859"/><path fill="#4ea5b7" fill-rule="evenodd" d="M458.517 108.156a6.98 6.98 0 0 1 6.981-6.981h48.084a6.98 6.98 0 0 1 6.982 6.981v27.927a6.98 6.98 0 0 1-6.982 6.981h-48.084a6.98 6.98 0 0 1-6.981-6.981z"/><path stroke="#000" stroke-linecap="butt" stroke-linejoin="round" d="M458.517 108.156a6.98 6.98 0 0 1 6.981-6.981h48.084a6.98 6.98 0 0 1 6.982 6.981v27.927a6.98 6.98 0 0 1-6.982 6.981h-48.084a6.98 6.98 0 0 1-6.981-6.981z"/><path fill="#fff" d="m482.417 118.904-1.28 1.281q-1.22-1.297-2.845-1.297-1.406 0-2.359.938t-.953 2.28q0 1.392.984 2.36.985.953 2.438.953.937 0 1.578-.39.656-.406 1.062-1.25h-2.78v-1.719h4.812l.015.406q0 1.25-.656 2.39-.64 1.126-1.672 1.72-1.031.578-2.437.578-1.485 0-2.657-.64-1.156-.641-1.843-1.845t-.688-2.578q0-1.906 1.266-3.312 1.484-1.672 3.875-1.672 1.25 0 2.344.453.906.39 1.796 1.344m9.24 4.984h-5.702q.125.766.656 1.219.547.437 1.375.437 1 0 1.719-.703l1.484.703q-.547.797-1.328 1.188-.781.375-1.86.375-1.671 0-2.718-1.047-1.047-1.062-1.047-2.64 0-1.626 1.047-2.688 1.047-1.078 2.625-1.078 1.672 0 2.719 1.078 1.046 1.062 1.046 2.828zm-1.78-1.39q-.172-.594-.688-.97-.516-.374-1.203-.374-.734 0-1.297.422-.36.265-.656.922zm3.422-5.157h1.828v7.844h2.656v1.734H493.3zm5.801 0h1.828v6.203q0 .797.14 1.141.142.328.454.531.328.188.781.188.485 0 .828-.219.36-.219.485-.562.14-.344.14-1.313v-5.969h1.829v5.719q0 1.438-.172 2-.157.563-.625 1.078-.453.516-1.063.766-.594.25-1.375.25-1.047 0-1.828-.469-.766-.484-1.094-1.203t-.328-2.422z"/><path fill="#4ea5b7" fill-rule="evenodd" d="M521.142 108.156a6.98 6.98 0 0 1 6.982-6.981h48.083a6.98 6.98 0 0 1 6.982 6.981v27.927a6.98 6.98 0 0 1-6.982 6.981h-48.083a6.98 6.98 0 0 1-6.982-6.981z"/><path stroke="#000" stroke-linecap="butt" stroke-linejoin="round" d="M521.142 108.156a6.98 6.98 0 0 1 6.982-6.981h48.083a6.98 6.98 0 0 1 6.982 6.981v27.927a6.98 6.98 0 0 1-6.982 6.981h-48.083a6.98 6.98 0 0 1-6.982-6.981z"/><path fill="#fff" d="M541.163 117.341h4.75v1.782h-2.953v1.734h2.953v1.75h-2.953v4.312h-1.797zm15.163 1.688-1.281 1.219q-1.297-1.375-2.922-1.375-1.375 0-2.313.937-.937.938-.937 2.313 0 .953.406 1.703.422.734 1.188 1.156.765.422 1.687.422.797 0 1.453-.297t1.438-1.078l1.25 1.297q-1.063 1.03-2.016 1.437-.937.39-2.156.39-2.219 0-3.64-1.405-1.423-1.422-1.423-3.625 0-1.438.641-2.547.64-1.11 1.844-1.782 1.218-.687 2.61-.687 1.187 0 2.28.5 1.094.5 1.891 1.422m2.83 1.406h-1.78q.077-1.547.968-2.437.906-.891 2.313-.891.875 0 1.546.375.672.36 1.063 1.062.406.688.406 1.407 0 .843-.484 1.828-.485.984-1.781 2.328l-1.079 1.125h3.422v1.687h-6.64v-.875l2.968-3.015q1.079-1.094 1.422-1.75.36-.656.36-1.188 0-.562-.375-.922-.36-.359-.938-.359-.594 0-.984.438-.39.437-.406 1.187"/><path d="m394.274 46.907-.787 99.213"/><path stroke="#000" stroke-dasharray="12, 9" stroke-linecap="butt" stroke-linejoin="round" stroke-width="3" d="m394.274 46.907-.787 99.213"/><path fill="#4ea5b7" fill-rule="evenodd" d="M331.53 108.158a6.98 6.98 0 0 1 6.981-6.982h48.084a6.98 6.98 0 0 1 6.982 6.982v27.926a6.98 6.98 0 0 1-6.982 6.982H338.51a6.98 6.98 0 0 1-6.982-6.982z"/><path stroke="#000" stroke-linecap="butt" stroke-linejoin="round" d="M331.53 108.158a6.98 6.98 0 0 1 6.981-6.982h48.084a6.98 6.98 0 0 1 6.982 6.982v27.926a6.98 6.98 0 0 1-6.982 6.982H338.51a6.98 6.98 0 0 1-6.982-6.982z"/><path fill="#fff" d="M335.297 118.204h1.453v6.266h2.125v1.39h-3.578zm8.719 2h1.406v5.657h-1.406v-.594q-.422.39-.844.562t-.906.172q-1.094 0-1.906-.843-.797-.86-.797-2.11 0-1.312.781-2.156t1.875-.844q.516 0 .953.203.453.188.844.578zm-1.5 1.157q-.656 0-1.094.468-.437.47-.437 1.204 0 .718.437 1.203.453.468 1.094.468.672 0 1.11-.468.452-.469.452-1.219 0-.734-.453-1.188-.437-.468-1.109-.468m3.722-1.157h1.453l1.47 3.547 1.624-3.547h1.453l-3.547 7.735h-1.468l1.172-2.5zm12.479 3.235h-4.563q.094.61.516.969.437.343 1.11.343.796 0 1.358-.547l1.204.563q-.454.625-1.079.937-.625.297-1.484.297-1.328 0-2.172-.828-.828-.844-.828-2.11 0-1.296.828-2.155.844-.86 2.094-.86 1.344 0 2.172.86.844.859.844 2.265zm-1.422-1.11q-.14-.484-.563-.78-.406-.298-.953-.298-.594 0-1.047.344-.281.203-.515.734zm2.243-2.125h1.219v.704q.187-.422.515-.641.329-.219.72-.219.28 0 .577.156l-.437 1.22q-.25-.126-.406-.126-.329 0-.563.406-.219.407-.219 1.594v2.563h-1.406zm3.893-2h1.406l3.281 5.032v-5.032h1.453v7.657h-1.406l-3.266-5.016v5.016h-1.468zm10.382 1.844q.797 0 1.5.406.72.407 1.11 1.094t.39 1.485q0 .796-.406 1.5-.39.687-1.078 1.078-.687.39-1.516.39-1.203 0-2.078-.859-.859-.875-.859-2.11 0-1.328.984-2.203.844-.78 1.953-.78m.016 1.344q-.656 0-1.094.469-.437.453-.437 1.172 0 .734.422 1.203.437.453 1.11.453.671 0 1.108-.469t.438-1.187q0-.735-.438-1.188-.421-.453-1.109-.453m3.822-1.188h1.218v.704q.188-.422.516-.641t.719-.219q.28 0 .578.156l-.438 1.22q-.25-.126-.406-.126-.328 0-.562.406-.22.407-.22 1.594v2.563h-1.405zm3.72 0h1.438v.641q.359-.39.797-.594.453-.203.968-.203.532 0 .953.266.438.265.704.765.328-.5.812-.765.5-.266 1.094-.266t1.047.281q.468.282.656.735.203.453.203 1.484v3.313h-1.422v-2.875q0-.953-.25-1.297-.234-.344-.703-.344-.375 0-.672.219-.281.203-.422.578-.14.36-.14 1.156v2.563h-1.422v-2.735q0-.765-.125-1.109-.11-.344-.328-.5-.22-.172-.547-.172-.344 0-.64.219-.282.203-.423.594-.14.375-.14 1.187v2.516h-1.438z"/><path fill="#4ea5b7" fill-rule="evenodd" d="M678.44 107.378a6.98 6.98 0 0 1 6.981-6.982h48.084a6.98 6.98 0 0 1 6.982 6.982v27.926a6.98 6.98 0 0 1-6.982 6.982H685.42a6.98 6.98 0 0 1-6.982-6.982z"/><path stroke="#000" stroke-linecap="butt" stroke-linejoin="round" d="M678.44 107.378a6.98 6.98 0 0 1 6.981-6.982h48.084a6.98 6.98 0 0 1 6.982 6.982v27.926a6.98 6.98 0 0 1-6.982 6.982H685.42a6.98 6.98 0 0 1-6.982-6.982z"/><path fill="#fff" d="M682.207 117.425h1.453v6.266h2.125v1.39h-3.578zm8.719 2h1.406v5.656h-1.406v-.594q-.422.391-.844.563t-.906.172q-1.094 0-1.906-.844-.797-.86-.797-2.11 0-1.312.781-2.156.781-.843 1.875-.843.516 0 .953.203.453.187.844.578zm-1.5 1.156q-.656 0-1.094.469-.437.469-.437 1.203 0 .719.437 1.203.453.469 1.094.469.672 0 1.11-.469.452-.469.452-1.219 0-.734-.453-1.187-.437-.469-1.109-.469m3.722-1.156h1.453l1.47 3.547 1.624-3.547h1.453l-3.547 7.734h-1.468l1.172-2.5zm12.479 3.234h-4.563q.094.61.516.97.437.343 1.11.343.796 0 1.358-.547l1.204.562q-.454.625-1.079.938-.625.297-1.484.297-1.328 0-2.172-.828-.828-.844-.828-2.11 0-1.297.828-2.156.844-.86 2.094-.86 1.344 0 2.172.86.844.86.844 2.266zm-1.422-1.109q-.14-.484-.563-.781-.406-.297-.953-.297-.594 0-1.047.344-.281.203-.515.734zm2.243-2.125h1.219v.703q.187-.422.515-.64.328-.22.72-.22.28 0 .577.157l-.437 1.219q-.25-.125-.407-.125-.328 0-.562.406-.219.406-.219 1.594v2.562h-1.406zm3.893-2h1.406l3.281 5.031v-5.031h1.453v7.656h-1.406l-3.266-5.015v5.015h-1.468zm10.382 1.844q.797 0 1.5.406.72.406 1.11 1.094.39.687.39 1.484t-.406 1.5q-.39.688-1.078 1.078-.687.39-1.516.39-1.203 0-2.078-.859-.859-.875-.859-2.109 0-1.328.984-2.203.844-.781 1.953-.781m.016 1.343q-.656 0-1.094.47-.437.452-.437 1.171 0 .734.422 1.203.437.453 1.11.453.67 0 1.108-.468.438-.47.438-1.188 0-.734-.438-1.187-.421-.454-1.109-.454m3.822-1.187h1.218v.703q.188-.422.516-.64.328-.22.719-.22.28 0 .578.157l-.438 1.219q-.25-.125-.406-.125-.328 0-.562.406-.22.406-.22 1.594v2.562h-1.405zm3.72 0h1.438v.64q.359-.39.796-.593.454-.203.97-.203.53 0 .952.265.438.266.703.766.329-.5.813-.766.5-.265 1.094-.265.593 0 1.047.281.468.281.656.734.203.453.203 1.485v3.312h-1.422v-2.875q0-.953-.25-1.297-.234-.343-.703-.343-.375 0-.672.218-.281.203-.422.578-.14.36-.14 1.157v2.562h-1.422v-2.734q0-.766-.125-1.11-.11-.343-.328-.5-.22-.171-.547-.171-.344 0-.64.218-.282.203-.423.594-.14.375-.14 1.188v2.515h-1.438z"/><path d="m618.757 46.127-.787 99.213"/><path stroke="#000" stroke-dasharray="12, 9" stroke-linecap="butt" stroke-linejoin="round" stroke-width="3" d="m618.757 46.127-.787 99.213"/></g></svg>