<svg xmlns="http://www.w3.org/2000/svg" xmlns:xlink="http://www.w3.org/1999/xlink" width="1136.453" height="368.267" viewBox="0 0 852.34 276.2"><defs><style>*{stroke-linejoin:round;stroke-linecap:butt}</style></defs><g id="figure_1"><path id="patch_1" d="M0 276.2h852.34V0H0z" style="fill:#fff"/><g id="axes_1"><path id="patch_2" d="M53.58 237.65h371.38V23.77H53.58z" style="fill:#fff"/><g id="matplotlib.axis_1"><g id="xtick_1"><path id="line2d_1" d="M95.602 237.65V23.77" clip-path="url(#pcec6c36b4c)" style="fill:none;stroke-dasharray:2.96,1.28;stroke-dashoffset:0;stroke:#b0b0b0;stroke-opacity:.7;stroke-width:.8"/><g id="line2d_2"><defs><path id="m177c807612" d="M0 0v3.5" style="stroke:#000;stroke-width:.8"/></defs><use xlink:href="#m177c807612" x="95.602" y="237.65" style="stroke:#000;stroke-width:.8"/></g><g id="text_1" transform="matrix(.1 0 0 -.1 93.477 251.991)"><defs><path id="GuardianSansCond-Regular-32" d="M173 0h2297v461H800v19l774 941c493 614 845 1107 845 1843 0 762-390 1235-1197 1235-416 0-723-89-953-217v-429c198 96 461 179 787 179 563 0 794-282 794-819 0-583-308-1024-698-1543L173 397z" transform="scale(.01563)"/></defs><use xlink:href="#GuardianSansCond-Regular-32"/></g></g><g id="xtick_2"><path id="line2d_3" d="M167.436 237.65V23.77" clip-path="url(#pcec6c36b4c)" style="fill:none;stroke-dasharray:2.96,1.28;stroke-dashoffset:0;stroke:#b0b0b0;stroke-opacity:.7;stroke-width:.8"/><use xlink:href="#m177c807612" id="line2d_4" x="167.436" y="237.65" style="stroke:#000;stroke-width:.8"/><g id="text_2" transform="matrix(.1 0 0 -.1 165.066 251.991)"><defs><path id="GuardianSansCond-Regular-34" d="M1805 0h525v1107h627v455h-627v2873h-461L70 1504v-397h1735zM608 1562v19l1171 1894h26V1562z" transform="scale(.01563)"/></defs><use xlink:href="#GuardianSansCond-Regular-34"/></g></g><g id="xtick_3"><path id="line2d_5" d="M239.27 237.65V23.77" clip-path="url(#pcec6c36b4c)" style="fill:none;stroke-dasharray:2.96,1.28;stroke-dashoffset:0;stroke:#b0b0b0;stroke-opacity:.7;stroke-width:.8"/><use xlink:href="#m177c807612" id="line2d_6" x="239.27" y="237.65" style="stroke:#000;stroke-width:.8"/><g id="text_3" transform="matrix(.1 0 0 -.1 236.8 251.991)"><defs><path id="GuardianSansCond-Regular-38" d="M1581-64c864 0 1350 531 1350 1203 0 621-339 935-825 1191 384 211 716 569 716 1094 0 653-428 1075-1216 1075-787 0-1222-486-1222-1101 0-550 294-889 685-1113-467-231-839-602-839-1203C230 384 710-64 1581-64m6 454c-505 0-819 288-819 736 0 455 269 768 646 954 615-288 973-506 973-998 0-468-333-692-800-692m167 2132c-544 256-826 499-826 908 0 391 243 621 678 621 461 0 679-269 679-653 0-390-186-633-531-876" transform="scale(.01563)"/></defs><use xlink:href="#GuardianSansCond-Regular-38"/></g></g><g id="xtick_4"><path id="line2d_7" d="M311.103 237.65V23.77" clip-path="url(#pcec6c36b4c)" style="fill:none;stroke-dasharray:2.96,1.28;stroke-dashoffset:0;stroke:#b0b0b0;stroke-opacity:.7;stroke-width:.8"/><use xlink:href="#m177c807612" id="line2d_8" x="311.103" y="237.65" style="stroke:#000;stroke-width:.8"/><g id="text_4" transform="matrix(.1 0 0 -.1 307.218 251.991)"><defs><path id="GuardianSansCond-Regular-31" d="M832 0h531v4474h-192L141 4083v-307l691 70z" transform="scale(.01563)"/><path id="GuardianSansCond-Regular-36" d="M1632 384c-550 0-787 531-787 1453v217c147 96 409 224 749 224 492 0 729-294 729-921 0-615-237-973-691-973m0-454c806 0 1254 614 1254 1478 0 826-396 1338-1132 1338-391 0-698-135-909-301 32 1408 595 1593 1184 1593 262 0 525-64 659-108v422c-141 90-416 147-730 147-915 0-1683-518-1683-2291v-365C275 691 717-70 1632-70" transform="scale(.01563)"/></defs><use xlink:href="#GuardianSansCond-Regular-31"/><use xlink:href="#GuardianSansCond-Regular-36" x="28.8"/></g></g><g id="xtick_5"><path id="line2d_9" d="M382.937 237.65V23.77" clip-path="url(#pcec6c36b4c)" style="fill:none;stroke-dasharray:2.96,1.28;stroke-dashoffset:0;stroke:#b0b0b0;stroke-opacity:.7;stroke-width:.8"/><use xlink:href="#m177c807612" id="line2d_10" x="382.937" y="237.65" style="stroke:#000;stroke-width:.8"/><g id="text_5" transform="matrix(.1 0 0 -.1 378.702 251.991)"><defs><path id="GuardianSansCond-Regular-33" d="M1094-64c826 0 1338 480 1338 1312 0 691-320 1005-826 1114v19c436 134 704 422 704 1024 0 691-428 1094-1152 1094-371 0-672-70-883-179v-429c186 77 403 147 723 147 480 0 756-172 756-736 0-505-276-755-736-755H717v-461h339c544 0 813-249 813-819 0-621-352-864-922-864-301 0-589 90-800 205V166C358 32 640-64 1094-64" transform="scale(.01563)"/></defs><use xlink:href="#GuardianSansCond-Regular-33"/><use xlink:href="#GuardianSansCond-Regular-32" x="42.2"/></g></g><g id="text_6" transform="matrix(.12 0 0 -.12 191.103 266.71)"><defs><path id="GuardianSansCond-Regular-54" d="M1152 0h538v3974h1056v461H90v-461h1062z" transform="scale(.01563)"/><path id="GuardianSansCond-Regular-65" d="M1555-51c429 0 762 153 915 294v384c-230-128-505-230-857-230-576 0-871 301-890 1069h1831v332c0 1095-378 1536-1152 1536-743 0-1216-524-1216-1612v-173C186 499 634-51 1555-51m-173 2957c448 0 628-295 628-1012H723c13 736 269 1012 659 1012" transform="scale(.01563)"/><path id="GuardianSansCond-Regular-6e" d="M346 0h524v2688c167 90 436 198 717 198 378 0 506-121 506-428V0h518v2528c0 557-269 806-800 806-371 0-704-140-941-313h-25v262H346z" transform="scale(.01563)"/><path id="GuardianSansCond-Regular-73" d="M992-51c666 0 1062 358 1062 998 0 538-236 762-748 941l-256 90c-282 96-391 217-391 473 0 320 205 442 563 442 295 0 538-83 692-154v429c-141 83-346 166-717 166-666 0-1037-352-1037-928 0-505 262-748 666-889l256-90c326-115 454-243 454-531 0-314-166-506-602-506-352 0-576 90-780 173V141C358 19 640-51 992-51" transform="scale(.01563)"/><path id="GuardianSansCond-Regular-6f" d="M1459-51c813 0 1274 621 1274 1593v205c0 1024-442 1587-1274 1587-800 0-1273-620-1273-1593v-211C186 531 614-51 1459-51m7 429c-474 0-743 384-743 1094v346c0 633 224 1088 730 1088 467 0 742-346 742-1101v-339c0-640-237-1088-729-1088" transform="scale(.01563)"/><path id="GuardianSansCond-Regular-72" d="M346 0h524v2605c192 147 436 237 717 237 51 0 141-7 199-13v473c-39 13-109 26-180 26-300 0-576-186-736-390h-25v345H346z" transform="scale(.01563)"/><path id="GuardianSansCond-Regular-50" d="M416 0h538v1766h601c807 0 1299 480 1299 1351 0 909-441 1318-1318 1318H416zm538 2221v1753h524c583 0 807-224 807-876 0-602-231-877-813-877z" transform="scale(.01563)"/><path id="GuardianSansCond-Regular-61" d="M1082-51c313 0 556 128 697 281h32l51-230h429v2413c0 614-333 921-998 921-378 0-659-76-883-179v-384c166 58 396 115 684 115 506 0 672-147 672-608v-320l-678-102c-608-90-928-390-928-973 0-633 365-934 922-934m140 409c-345 0-518 186-518 557 0 359 173 525 538 570l524 64V525c-108-90-307-167-544-167" transform="scale(.01563)"/><path id="GuardianSansCond-Regular-6c" d="M358 0h519v4698H358z" transform="scale(.01563)"/><path id="GuardianSansCond-Regular-69" d="M358 0h525v3283H358zm-6 3910h531v564H352z" transform="scale(.01563)"/><path id="GuardianSansCond-Regular-6d" d="M346 0h524v2688c180 102 397 198 653 198 333 0 448-128 448-422V0h519v2688c192 109 422 198 646 198 352 0 454-140 454-422V0h525v2528c0 576-294 806-768 806-352 0-659-147-928-339h-25c-128 231-333 339-672 339-327 0-634-153-852-313h-25v262H346z" transform="scale(.01563)"/><path id="GuardianSansCond-Regular-28" d="M1318-768h442C1267-166 826 877 826 1869v217c0 1031 441 2016 934 2612h-442C800 4160 275 3187 275 2029v-147C275 723 800-237 1318-768" transform="scale(.01563)"/><path id="GuardianSansCond-Regular-29" d="M32-768h448C992-237 1517 717 1517 1882v147c0 1152-525 2131-1037 2669H32c499-602 941-1645 941-2663v-217C973 813 531-166 32-768" transform="scale(.01563)"/></defs><use xlink:href="#GuardianSansCond-Regular-54"/><use xlink:href="#GuardianSansCond-Regular-65" x="44.5"/><use xlink:href="#GuardianSansCond-Regular-6e" x="87.2"/><use xlink:href="#GuardianSansCond-Regular-73" x="133.3"/><use xlink:href="#GuardianSansCond-Regular-6f" x="167.8"/><use xlink:href="#GuardianSansCond-Regular-72" x="213.4"/><use xlink:href="#GuardianSansCond-Regular-50" x="258"/><use xlink:href="#GuardianSansCond-Regular-61" x="305"/><use xlink:href="#GuardianSansCond-Regular-72" x="345.9"/><use xlink:href="#GuardianSansCond-Regular-61" x="374.7"/><use xlink:href="#GuardianSansCond-Regular-6c" x="415.6"/><use xlink:href="#GuardianSansCond-Regular-6c" x="434.9"/><use xlink:href="#GuardianSansCond-Regular-65" x="454.2"/><use xlink:href="#GuardianSansCond-Regular-6c" x="496.9"/><use xlink:href="#GuardianSansCond-Regular-69" x="516.2"/><use xlink:href="#GuardianSansCond-Regular-73" x="535.5"/><use xlink:href="#GuardianSansCond-Regular-6d" x="570"/><use xlink:href="#GuardianSansCond-Regular-28" x="655.3"/><use xlink:href="#GuardianSansCond-Regular-54" x="683.3"/><use xlink:href="#GuardianSansCond-Regular-50" x="727.8"/><use xlink:href="#GuardianSansCond-Regular-29" x="774.8"/></g></g><g id="matplotlib.axis_2"><g id="ytick_1"><path id="line2d_11" d="M53.58 237.65h371.38" clip-path="url(#pcec6c36b4c)" style="fill:none;stroke-dasharray:2.96,1.28;stroke-dashoffset:0;stroke:#b0b0b0;stroke-opacity:.7;stroke-width:.8"/><g id="line2d_12"><defs><path id="m17974e93a3" d="M0 0h-3.5" style="stroke:#000;stroke-width:.8"/></defs><use xlink:href="#m17974e93a3" x="53.58" y="237.65" style="stroke:#000;stroke-width:.8"/></g><g id="text_7" transform="matrix(.1 0 0 -.1 41.23 241.32)"><defs><path id="GuardianSansCond-Regular-30" d="M1722-70c934 0 1433 716 1433 2131v345c0 1485-557 2093-1440 2093-896 0-1446-665-1446-2131v-326C269 499 845-70 1722-70m6 454c-659 0-883 595-883 1632v474c0 1004 243 1561 864 1561 627 0 883-537 883-1593v-480c0-1044-218-1594-864-1594" transform="scale(.01563)"/></defs><use xlink:href="#GuardianSansCond-Regular-30"/></g></g><g id="ytick_2"><path id="line2d_13" d="M53.58 208.895h371.38" clip-path="url(#pcec6c36b4c)" style="fill:none;stroke-dasharray:2.96,1.28;stroke-dashoffset:0;stroke:#b0b0b0;stroke-opacity:.7;stroke-width:.8"/><use xlink:href="#m17974e93a3" id="line2d_14" x="53.58" y="208.895" style="stroke:#000;stroke-width:.8"/><g id="text_8" transform="matrix(.1 0 0 -.1 26.28 212.565)"><use xlink:href="#GuardianSansCond-Regular-32"/><use xlink:href="#GuardianSansCond-Regular-30" x="42.5"/><use xlink:href="#GuardianSansCond-Regular-30" x="96"/><use xlink:href="#GuardianSansCond-Regular-30" x="149.5"/></g></g><g id="ytick_3"><path id="line2d_15" d="M53.58 180.139h371.38" clip-path="url(#pcec6c36b4c)" style="fill:none;stroke-dasharray:2.96,1.28;stroke-dashoffset:0;stroke:#b0b0b0;stroke-opacity:.7;stroke-width:.8"/><use xlink:href="#m17974e93a3" id="line2d_16" x="53.58" y="180.139" style="stroke:#000;stroke-width:.8"/><g id="text_9" transform="matrix(.1 0 0 -.1 25.79 183.81)"><use xlink:href="#GuardianSansCond-Regular-34"/><use xlink:href="#GuardianSansCond-Regular-30" x="47.4"/><use xlink:href="#GuardianSansCond-Regular-30" x="100.9"/><use xlink:href="#GuardianSansCond-Regular-30" x="154.4"/></g></g><g id="ytick_4"><path id="line2d_17" d="M53.58 151.383h371.38" clip-path="url(#pcec6c36b4c)" style="fill:none;stroke-dasharray:2.96,1.28;stroke-dashoffset:0;stroke:#b0b0b0;stroke-opacity:.7;stroke-width:.8"/><use xlink:href="#m17974e93a3" id="line2d_18" x="53.58" y="151.383" style="stroke:#000;stroke-width:.8"/><g id="text_10" transform="matrix(.1 0 0 -.1 25.64 155.053)"><use xlink:href="#GuardianSansCond-Regular-36"/><use xlink:href="#GuardianSansCond-Regular-30" x="48.9"/><use xlink:href="#GuardianSansCond-Regular-30" x="102.4"/><use xlink:href="#GuardianSansCond-Regular-30" x="155.9"/></g></g><g id="ytick_5"><path id="line2d_19" d="M53.58 122.627h371.38" clip-path="url(#pcec6c36b4c)" style="fill:none;stroke-dasharray:2.96,1.28;stroke-dashoffset:0;stroke:#b0b0b0;stroke-opacity:.7;stroke-width:.8"/><use xlink:href="#m17974e93a3" id="line2d_20" x="53.58" y="122.627" style="stroke:#000;stroke-width:.8"/><g id="text_11" transform="matrix(.1 0 0 -.1 25.59 126.298)"><use xlink:href="#GuardianSansCond-Regular-38"/><use xlink:href="#GuardianSansCond-Regular-30" x="49.4"/><use xlink:href="#GuardianSansCond-Regular-30" x="102.9"/><use xlink:href="#GuardianSansCond-Regular-30" x="156.4"/></g></g><g id="ytick_6"><path id="line2d_21" d="M53.58 93.872h371.38" clip-path="url(#pcec6c36b4c)" style="fill:none;stroke-dasharray:2.96,1.28;stroke-dashoffset:0;stroke:#b0b0b0;stroke-opacity:.7;stroke-width:.8"/><use xlink:href="#m17974e93a3" id="line2d_22" x="53.58" y="93.872" style="stroke:#000;stroke-width:.8"/><g id="text_12" transform="matrix(.1 0 0 -.1 22.3 97.542)"><use xlink:href="#GuardianSansCond-Regular-31"/><use xlink:href="#GuardianSansCond-Regular-30" x="28.8"/><use xlink:href="#GuardianSansCond-Regular-30" x="82.3"/><use xlink:href="#GuardianSansCond-Regular-30" x="135.8"/><use xlink:href="#GuardianSansCond-Regular-30" x="189.3"/></g></g><g id="ytick_7"><path id="line2d_23" d="M53.58 65.116h371.38" clip-path="url(#pcec6c36b4c)" style="fill:none;stroke-dasharray:2.96,1.28;stroke-dashoffset:0;stroke:#b0b0b0;stroke-opacity:.7;stroke-width:.8"/><use xlink:href="#m17974e93a3" id="line2d_24" x="53.58" y="65.116" style="stroke:#000;stroke-width:.8"/><g id="text_13" transform="matrix(.1 0 0 -.1 23.4 68.786)"><use xlink:href="#GuardianSansCond-Regular-31"/><use xlink:href="#GuardianSansCond-Regular-32" x="28.8"/><use xlink:href="#GuardianSansCond-Regular-30" x="71.3"/><use xlink:href="#GuardianSansCond-Regular-30" x="124.8"/><use xlink:href="#GuardianSansCond-Regular-30" x="178.3"/></g></g><g id="ytick_8"><path id="line2d_25" d="M53.58 36.36h371.38" clip-path="url(#pcec6c36b4c)" style="fill:none;stroke-dasharray:2.96,1.28;stroke-dashoffset:0;stroke:#b0b0b0;stroke-opacity:.7;stroke-width:.8"/><use xlink:href="#m17974e93a3" id="line2d_26" x="53.58" y="36.36" style="stroke:#000;stroke-width:.8"/><g id="text_14" transform="matrix(.1 0 0 -.1 22.91 40.03)"><use xlink:href="#GuardianSansCond-Regular-31"/><use xlink:href="#GuardianSansCond-Regular-34" x="28.8"/><use xlink:href="#GuardianSansCond-Regular-30" x="76.2"/><use xlink:href="#GuardianSansCond-Regular-30" x="129.7"/><use xlink:href="#GuardianSansCond-Regular-30" x="183.2"/></g></g><g id="text_15" transform="matrix(0 -.12 -.12 0 16.009 165.798)"><defs><path id="GuardianSansCond-Regular-6b" d="M870 4698H346V0h524zm103-3002L1984 0h608L1549 1741l966 1542h-576z" transform="scale(.01563)"/><path id="GuardianSansCond-Regular-2f" d="M13-768h461l1312 5466h-461z" transform="scale(.01563)"/><path id="GuardianSansCond-Regular-63" d="M1498-51c371 0 627 102 800 224v422c-135-77-391-205-743-205-550 0-832 314-832 1152v256c0 666 218 1095 787 1095 346 0 544-90 749-179v435c-166 109-384 185-717 185-774 0-1356-448-1356-1593v-205C186 416 685-51 1498-51" transform="scale(.01563)"/><path id="GuardianSansCond-Regular-47" d="M1933-64c518 0 909 115 1165 230v2068H1837v-455h729V486c-134-51-358-89-588-89-922 0-1172 614-1172 1702v307c0 992 282 1632 1184 1632 448 0 724-108 954-217v454c-186 115-467 224-922 224-1113 0-1785-646-1785-2157v-243C237 493 864-64 1933-64" transform="scale(.01563)"/><path id="GuardianSansCond-Regular-55" d="M1760-70c922 0 1350 480 1350 1414v3091h-512V1395c0-736-230-1011-812-1011-589 0-852 282-852 1005v3046H397V1325C397 429 832-70 1760-70" transform="scale(.01563)"/></defs><use xlink:href="#GuardianSansCond-Regular-54"/><use xlink:href="#GuardianSansCond-Regular-6f" x="44.5"/><use xlink:href="#GuardianSansCond-Regular-6b" x="90.1"/><use xlink:href="#GuardianSansCond-Regular-65" x="131.6"/><use xlink:href="#GuardianSansCond-Regular-6e" x="174.3"/><use xlink:href="#GuardianSansCond-Regular-73" x="220.4"/><use xlink:href="#GuardianSansCond-Regular-2f" x="254.9"/><use xlink:href="#GuardianSansCond-Regular-73" x="284.8"/><use xlink:href="#GuardianSansCond-Regular-65" x="319.3"/><use xlink:href="#GuardianSansCond-Regular-63" x="362"/><use xlink:href="#GuardianSansCond-Regular-2f" x="399.8"/><use xlink:href="#GuardianSansCond-Regular-47" x="429.7"/><use xlink:href="#GuardianSansCond-Regular-50" x="483"/><use xlink:href="#GuardianSansCond-Regular-55" x="530"/></g></g><path id="patch_3" d="M53.58 237.65V23.77" style="fill:none;stroke:#000;stroke-width:.8;stroke-linejoin:miter;stroke-linecap:square"/><path id="patch_4" d="M424.96 237.65V23.77" style="fill:none;stroke:#000;stroke-width:.8;stroke-linejoin:miter;stroke-linecap:square"/><path id="patch_5" d="M53.58 237.65h371.38" style="fill:none;stroke:#000;stroke-width:.8;stroke-linejoin:miter;stroke-linecap:square"/><path id="patch_6" d="M53.58 23.77h371.38" style="fill:none;stroke:#000;stroke-width:.8;stroke-linejoin:miter;stroke-linecap:square"/><path id="patch_7" d="M70.46 237.65h50.284V33.956H70.461z" clip-path="url(#pcec6c36b4c)" style="fill:#4ea5b7"/><path id="patch_8" d="M142.294 237.65h50.284V44.123h-50.284z" clip-path="url(#pcec6c36b4c)" style="fill:#4ea5b7"/><path id="patch_9" d="M214.128 237.65h50.283V81.096h-50.283z" clip-path="url(#pcec6c36b4c)" style="fill:#4ea5b7"/><path id="patch_10" d="M285.962 237.65h50.283v-88.557h-50.283z" clip-path="url(#pcec6c36b4c)" style="fill:#4ea5b7"/><path id="patch_11" d="M357.795 237.65h50.284v-51.9h-50.284z" clip-path="url(#pcec6c36b4c)" style="fill:#4ea5b7"/><path id="patch_12" d="M164.293 44.122h6.286V33.955h-6.286z" clip-path="url(#pcec6c36b4c)" style="fill:#e889ab"/><g id="text_16" style="fill:#e889ab" transform="matrix(.12 0 0 -.12 176.033 42.297)"><defs><path id="GuardianSansCond-Regular-2d" d="M333 1536h1075v454H333z" transform="scale(.01563)"/><path id="GuardianSansCond-Regular-35" d="M1094-64c877 0 1351 576 1351 1427 0 935-448 1344-1280 1344-154 0-275-13-371-32l83 1299h1465v461H429L294 2170c173 38 416 76 672 76 621 0 909-256 909-883 0-646-288-966-921-966-327 0-589 77-800 185V147C352 26 672-64 1094-64" transform="scale(.01563)"/><path id="GuardianSansCond-Regular-2e" d="M397 0h589v621H397z" transform="scale(.01563)"/><path id="GuardianSansCond-Regular-25" d="M755-256h455l2560 4819h-461zm327 2432c595 0 902 461 902 1139v96c0 698-320 1088-909 1088-582 0-902-435-902-1107v-102c0-730 320-1114 909-1114m6 371c-294 0-448 192-448 717v173c0 505 160 697 442 697 275 0 435-198 435-704v-172c0-519-141-711-429-711M3501-58c589 0 902 461 902 1140v96c0 697-320 1088-909 1088-582 0-902-436-902-1108v-102c0-730 320-1114 909-1114m6 365c-294 0-448 199-448 723v173c0 506 160 698 442 698 275 0 435-199 435-704v-173c0-518-141-717-429-717" transform="scale(.01563)"/></defs><use xlink:href="#GuardianSansCond-Regular-2d"/><use xlink:href="#GuardianSansCond-Regular-35" x="27.2"/><use xlink:href="#GuardianSansCond-Regular-2e" x="69.3"/><use xlink:href="#GuardianSansCond-Regular-30" x="90.9"/><use xlink:href="#GuardianSansCond-Regular-25" x="144.4"/></g><path id="patch_13" d="M236.127 81.096h6.285V44.122h-6.285z" clip-path="url(#pcec6c36b4c)" style="fill:#e889ab"/><g id="text_17" style="fill:#e889ab" transform="matrix(.12 0 0 -.12 247.212 65.868)"><defs><path id="GuardianSansCond-Regular-39" d="M1171-70c1005 0 1683 518 1683 2291v365c0 1209-422 1913-1331 1913-832 0-1280-582-1280-1478 0-819 410-1338 1146-1338 377 0 685 135 896 301-19-1376-487-1587-1178-1587-256 0-544 70-678 121V96C563 0 858-70 1171-70m371 2220c-486 0-736 295-736 922 0 640 237 973 717 973 525 0 762-487 762-1453v-218c-147-102-403-224-743-224" transform="scale(.01563)"/></defs><use xlink:href="#GuardianSansCond-Regular-2d"/><use xlink:href="#GuardianSansCond-Regular-31" x="27.2"/><use xlink:href="#GuardianSansCond-Regular-39" x="56"/><use xlink:href="#GuardianSansCond-Regular-2e" x="104.9"/><use xlink:href="#GuardianSansCond-Regular-31" x="126.5"/><use xlink:href="#GuardianSansCond-Regular-25" x="155.3"/></g><path id="patch_14" d="M307.96 149.093h6.286V81.096h-6.285z" clip-path="url(#pcec6c36b4c)" style="fill:#e889ab"/><g id="text_18" style="fill:#e889ab" transform="matrix(.12 0 0 -.12 317.215 118.353)"><use xlink:href="#GuardianSansCond-Regular-2d"/><use xlink:href="#GuardianSansCond-Regular-34" x="27.2"/><use xlink:href="#GuardianSansCond-Regular-33" x="74.6"/><use xlink:href="#GuardianSansCond-Regular-2e" x="116.8"/><use xlink:href="#GuardianSansCond-Regular-34" x="138.4"/><use xlink:href="#GuardianSansCond-Regular-25" x="185.8"/></g><path id="patch_15" d="M379.794 185.75h6.286v-36.657h-6.286z" clip-path="url(#pcec6c36b4c)" style="fill:#e889ab"/><g id="text_19" style="fill:#e889ab" transform="matrix(.12 0 0 -.12 389.853 170.68)"><use xlink:href="#GuardianSansCond-Regular-2d"/><use xlink:href="#GuardianSansCond-Regular-34" x="27.2"/><use xlink:href="#GuardianSansCond-Regular-31" x="74.6"/><use xlink:href="#GuardianSansCond-Regular-2e" x="103.4"/><use xlink:href="#GuardianSansCond-Regular-34" x="125"/><use xlink:href="#GuardianSansCond-Regular-25" x="172.4"/></g><g id="text_20" transform="matrix(.144 0 0 -.144 132.425 17.77)"><defs><path id="GuardianSansCond-Regular-68" d="M346 0h524v2688c167 90 436 198 717 198 378 0 506-121 506-428V0h518v2528c0 557-275 806-806 806-365 0-679-134-909-300h-26v1664H346z" transform="scale(.01563)"/><path id="GuardianSansCond-Regular-75" d="M1158-51c365 0 666 160 884 313h25l51-262h448v3283h-524V602c-154-90-416-205-692-205-403 0-492 160-492 441v2445H333V826c0-525 243-877 825-877" transform="scale(.01563)"/><path id="GuardianSansCond-Regular-67" d="M1325-1235c915 0 1350 448 1350 1056 0 595-339 883-979 883h-627c-211 0-295 102-295 262 0 103 52 212 116 276 128-45 281-64 441-64 608 0 1082 352 1082 1030v96c0 256-77 435-179 570h448v409h-935c-121 32-262 51-422 51-621 0-1075-390-1075-1056v-96c0-396 179-672 384-806-212-166-340-352-340-589 0-243 148-384 333-454v-26C320 192 64-38 64-422c0-493 442-813 1261-813m-13 416c-480 0-717 179-717 493 0 275 167 467 371 544h666c390 0 518-173 518-455 0-365-224-582-838-582m19 2400c-333 0-569 192-569 608v134c0 403 211 608 569 608 339 0 570-185 570-621v-134c0-397-218-595-570-595" transform="scale(.01563)"/><path id="GuardianSansCond-Regular-70" d="M346-1222h524V128c135-90 372-179 672-179 832 0 1242 576 1242 1651v218c0 1094-442 1516-1114 1516-352 0-640-147-800-300h-25v249H346zM1466 378c-256 0-493 83-596 160v2150c122 96 359 205 653 205 512 0 723-320 723-1095v-249c0-807-243-1171-780-1171" transform="scale(.01563)"/><path id="GuardianSansCond-Regular-74" d="M1222-38c244 0 397 64 500 128v352c-90-26-205-52-340-52-275 0-377 90-377 391v2067h678v435h-678v768H486v-768H96v-435h390V710c0-550 288-748 736-748" transform="scale(.01563)"/><path id="GuardianSansCond-Regular-53" d="M1184-70c954 0 1325 569 1325 1318 0 781-397 1011-947 1254l-320 141c-384 167-512 327-512 717 0 448 256 678 729 678 384 0 685-102 877-198v461c-179 96-422 198-870 198-813 0-1268-441-1268-1177 0-685 346-973 826-1184l320-141c416-186 614-320 614-800 0-538-256-800-812-800-352 0-704 115-980 249V186C390 51 723-70 1184-70" transform="scale(.01563)"/><path id="GuardianSansCond-Regular-77" d="M858 0h544l416 1696c102 403 166 730 166 730h19s71-333 167-730L2586 0h550l762 3283h-500l-396-1939c-71-378-128-640-128-640h-20s-51 250-147 646l-454 1933h-480l-448-1933c-83-371-147-646-147-646h-20s-51 269-128 646L627 3283H83z" transform="scale(.01563)"/><path id="GuardianSansCond-Regular-42" d="M416 0h1146c966 0 1382 493 1382 1254 0 711-326 999-832 1069v26c493 134 678 493 678 985 0 692-326 1101-1273 1101H416zm538 454v1620h563c569 0 864-199 864-781 0-557-224-839-864-839zm0 2061v1459h499c525 0 787-160 787-710 0-557-320-749-838-749z" transform="scale(.01563)"/><path id="GuardianSansCond-Regular-4d" d="M416 0h493v2675c0 423-26 1171-26 1171h19s154-716 224-985L1875 0h551l761 2899c90 352 224 960 224 960h19s-25-761-25-1177V0h512v4435h-819l-730-2925c-102-403-186-902-186-902h-12s-84 493-186 902l-742 2925H416z" transform="scale(.01563)"/><path id="GuardianSansCond-Regular-64" d="M1357-51c333 0 608 128 768 294h25l45-243h442v4698h-519V3174c-140 90-384 160-652 160-832 0-1268-595-1268-1664v-147C198 339 723-51 1357-51m147 429c-512 0-762 371-762 1164v186c0 813 237 1165 794 1165 243 0 467-58 582-135V595c-134-102-345-217-614-217" transform="scale(.01563)"/></defs><use xlink:href="#GuardianSansCond-Regular-54"/><use xlink:href="#GuardianSansCond-Regular-68" x="44.5"/><use xlink:href="#GuardianSansCond-Regular-72" x="90.6"/><use xlink:href="#GuardianSansCond-Regular-6f" x="119.4"/><use xlink:href="#GuardianSansCond-Regular-75" x="165"/><use xlink:href="#GuardianSansCond-Regular-67" x="210.5"/><use xlink:href="#GuardianSansCond-Regular-68" x="253.2"/><use xlink:href="#GuardianSansCond-Regular-70" x="299.3"/><use xlink:href="#GuardianSansCond-Regular-75" x="345.9"/><use xlink:href="#GuardianSansCond-Regular-74" x="391.4"/><use xlink:href="#GuardianSansCond-Regular-53" x="436.2"/><use xlink:href="#GuardianSansCond-Regular-63" x="478.4"/><use xlink:href="#GuardianSansCond-Regular-61" x="516.2"/><use xlink:href="#GuardianSansCond-Regular-6c" x="557.1"/><use xlink:href="#GuardianSansCond-Regular-69" x="576.4"/><use xlink:href="#GuardianSansCond-Regular-6e" x="595.7"/><use xlink:href="#GuardianSansCond-Regular-67" x="641.8"/><use xlink:href="#GuardianSansCond-Regular-77" x="700.3"/><use xlink:href="#GuardianSansCond-Regular-69" x="762.5"/><use xlink:href="#GuardianSansCond-Regular-74" x="781.8"/><use xlink:href="#GuardianSansCond-Regular-68" x="810.8"/><use xlink:href="#GuardianSansCond-Regular-54" x="872.7"/><use xlink:href="#GuardianSansCond-Regular-50" x="917.2"/><use xlink:href="#GuardianSansCond-Regular-2f" x="964.2"/><use xlink:href="#GuardianSansCond-Regular-53" x="994.1"/><use xlink:href="#GuardianSansCond-Regular-50" x="1036.3"/><use xlink:href="#GuardianSansCond-Regular-28" x="1099.1"/><use xlink:href="#GuardianSansCond-Regular-33" x="1127.1"/><use xlink:href="#GuardianSansCond-Regular-42" x="1169.3"/><use xlink:href="#GuardianSansCond-Regular-4d" x="1234.1"/><use xlink:href="#GuardianSansCond-Regular-6f" x="1301.8"/><use xlink:href="#GuardianSansCond-Regular-64" x="1347.4"/><use xlink:href="#GuardianSansCond-Regular-65" x="1394"/><use xlink:href="#GuardianSansCond-Regular-6c" x="1436.7"/><use xlink:href="#GuardianSansCond-Regular-29" x="1456"/></g><g id="legend_1"><path id="patch_16" d="M300.403 67.653H416.56q2.4 0 2.4-2.4V32.171q0-2.4-2.4-2.4H300.403q-2.4 0-2.4 2.4v33.082q0 2.4 2.4 2.4z" style="fill:#fff;opacity:.8;stroke:#ccc;stroke-linejoin:miter"/><path id="patch_17" d="M302.803 43.38h24v-8.4h-24z" style="fill:#4ea5b7"/><g id="text_21" transform="matrix(.12 0 0 -.12 336.403 43.38)"><use xlink:href="#GuardianSansCond-Regular-54"/><use xlink:href="#GuardianSansCond-Regular-6f" x="44.5"/><use xlink:href="#GuardianSansCond-Regular-6b" x="90.1"/><use xlink:href="#GuardianSansCond-Regular-65" x="131.6"/><use xlink:href="#GuardianSansCond-Regular-6e" x="174.3"/><use xlink:href="#GuardianSansCond-Regular-73" x="220.4"/><use xlink:href="#GuardianSansCond-Regular-2f" x="254.9"/><use xlink:href="#GuardianSansCond-Regular-73" x="284.8"/><use xlink:href="#GuardianSansCond-Regular-65" x="319.3"/><use xlink:href="#GuardianSansCond-Regular-63" x="362"/><use xlink:href="#GuardianSansCond-Regular-2f" x="399.8"/><use xlink:href="#GuardianSansCond-Regular-47" x="429.7"/><use xlink:href="#GuardianSansCond-Regular-50" x="483"/><use xlink:href="#GuardianSansCond-Regular-55" x="530"/></g><path id="patch_18" d="M302.803 60.562h24v-8.4h-24z" style="fill:#e889ab"/><g id="text_22" transform="matrix(.12 0 0 -.12 336.403 60.562)"><defs><path id="GuardianSansCond-Regular-66" d="M493 0h525v2848h608v435h-608v429c0 403 128 595 460 595 154 0 276-25 359-45v378c-90 45-250 102-474 102-537 0-870-313-870-985v-474H96v-435h397z" transform="scale(.01563)"/><path id="GuardianSansCond-Regular-44" d="M416 0h1082c1216 0 1772 813 1772 2163v237c0 1402-633 2035-1779 2035H416zm538 461v3513h492c788 0 1248-371 1248-1574v-326c0-1133-371-1613-1184-1613z" transform="scale(.01563)"/></defs><use xlink:href="#GuardianSansCond-Regular-50"/><use xlink:href="#GuardianSansCond-Regular-65" x="47"/><use xlink:href="#GuardianSansCond-Regular-72" x="89.7"/><use xlink:href="#GuardianSansCond-Regular-66" x="118.5"/><use xlink:href="#GuardianSansCond-Regular-6f" x="145.2"/><use xlink:href="#GuardianSansCond-Regular-72" x="190.8"/><use xlink:href="#GuardianSansCond-Regular-6d" x="219.6"/><use xlink:href="#GuardianSansCond-Regular-61" x="289.1"/><use xlink:href="#GuardianSansCond-Regular-6e" x="330"/><use xlink:href="#GuardianSansCond-Regular-63" x="376.1"/><use xlink:href="#GuardianSansCond-Regular-65" x="413.9"/><use xlink:href="#GuardianSansCond-Regular-44" x="472.4"/><use xlink:href="#GuardianSansCond-Regular-72" x="527"/><use xlink:href="#GuardianSansCond-Regular-6f" x="555.8"/><use xlink:href="#GuardianSansCond-Regular-70" x="601.4"/></g></g></g><g id="axes_2"><path id="patch_19" d="M473.76 237.65h371.38V23.77H473.76z" style="fill:#fff"/><g id="matplotlib.axis_3"><g id="xtick_6"><path id="line2d_27" d="M515.782 237.65V23.77" clip-path="url(#p4d46955168)" style="fill:none;stroke-dasharray:2.96,1.28;stroke-dashoffset:0;stroke:#b0b0b0;stroke-opacity:.7;stroke-width:.8"/><use xlink:href="#m177c807612" id="line2d_28" x="515.782" y="237.65" style="stroke:#000;stroke-width:.8"/><use xlink:href="#GuardianSansCond-Regular-32" id="text_23" transform="matrix(.1 0 0 -.1 513.657 251.991)"/></g><g id="xtick_7"><path id="line2d_29" d="M587.616 237.65V23.77" clip-path="url(#p4d46955168)" style="fill:none;stroke-dasharray:2.96,1.28;stroke-dashoffset:0;stroke:#b0b0b0;stroke-opacity:.7;stroke-width:.8"/><use xlink:href="#m177c807612" id="line2d_30" x="587.616" y="237.65" style="stroke:#000;stroke-width:.8"/><use xlink:href="#GuardianSansCond-Regular-34" id="text_24" transform="matrix(.1 0 0 -.1 585.246 251.991)"/></g><g id="xtick_8"><path id="line2d_31" d="M659.45 237.65V23.77" clip-path="url(#p4d46955168)" style="fill:none;stroke-dasharray:2.96,1.28;stroke-dashoffset:0;stroke:#b0b0b0;stroke-opacity:.7;stroke-width:.8"/><use xlink:href="#m177c807612" id="line2d_32" x="659.45" y="237.65" style="stroke:#000;stroke-width:.8"/><use xlink:href="#GuardianSansCond-Regular-38" id="text_25" transform="matrix(.1 0 0 -.1 656.98 251.991)"/></g><g id="xtick_9"><path id="line2d_33" d="M731.283 237.65V23.77" clip-path="url(#p4d46955168)" style="fill:none;stroke-dasharray:2.96,1.28;stroke-dashoffset:0;stroke:#b0b0b0;stroke-opacity:.7;stroke-width:.8"/><use xlink:href="#m177c807612" id="line2d_34" x="731.283" y="237.65" style="stroke:#000;stroke-width:.8"/><g id="text_26" transform="matrix(.1 0 0 -.1 727.398 251.991)"><use xlink:href="#GuardianSansCond-Regular-31"/><use xlink:href="#GuardianSansCond-Regular-36" x="28.8"/></g></g><g id="xtick_10"><path id="line2d_35" d="M803.117 237.65V23.77" clip-path="url(#p4d46955168)" style="fill:none;stroke-dasharray:2.96,1.28;stroke-dashoffset:0;stroke:#b0b0b0;stroke-opacity:.7;stroke-width:.8"/><use xlink:href="#m177c807612" id="line2d_36" x="803.117" y="237.65" style="stroke:#000;stroke-width:.8"/><g id="text_27" transform="matrix(.1 0 0 -.1 798.882 251.991)"><use xlink:href="#GuardianSansCond-Regular-33"/><use xlink:href="#GuardianSansCond-Regular-32" x="42.2"/></g></g><g id="text_28" transform="matrix(.12 0 0 -.12 611.283 266.71)"><use xlink:href="#GuardianSansCond-Regular-54"/><use xlink:href="#GuardianSansCond-Regular-65" x="44.5"/><use xlink:href="#GuardianSansCond-Regular-6e" x="87.2"/><use xlink:href="#GuardianSansCond-Regular-73" x="133.3"/><use xlink:href="#GuardianSansCond-Regular-6f" x="167.8"/><use xlink:href="#GuardianSansCond-Regular-72" x="213.4"/><use xlink:href="#GuardianSansCond-Regular-50" x="258"/><use xlink:href="#GuardianSansCond-Regular-61" x="305"/><use xlink:href="#GuardianSansCond-Regular-72" x="345.9"/><use xlink:href="#GuardianSansCond-Regular-61" x="374.7"/><use xlink:href="#GuardianSansCond-Regular-6c" x="415.6"/><use xlink:href="#GuardianSansCond-Regular-6c" x="434.9"/><use xlink:href="#GuardianSansCond-Regular-65" x="454.2"/><use xlink:href="#GuardianSansCond-Regular-6c" x="496.9"/><use xlink:href="#GuardianSansCond-Regular-69" x="516.2"/><use xlink:href="#GuardianSansCond-Regular-73" x="535.5"/><use xlink:href="#GuardianSansCond-Regular-6d" x="570"/><use xlink:href="#GuardianSansCond-Regular-28" x="655.3"/><use xlink:href="#GuardianSansCond-Regular-54" x="683.3"/><use xlink:href="#GuardianSansCond-Regular-50" x="727.8"/><use xlink:href="#GuardianSansCond-Regular-29" x="774.8"/></g></g><g id="matplotlib.axis_4"><g id="ytick_9"><path id="line2d_37" d="M473.76 237.65h371.38" clip-path="url(#p4d46955168)" style="fill:none;stroke-dasharray:2.96,1.28;stroke-dashoffset:0;stroke:#b0b0b0;stroke-opacity:.7;stroke-width:.8"/><use xlink:href="#m17974e93a3" id="line2d_38" x="473.76" y="237.65" style="stroke:#000;stroke-width:.8"/><use xlink:href="#GuardianSansCond-Regular-30" id="text_29" transform="matrix(.1 0 0 -.1 461.41 241.32)"/></g><g id="ytick_10"><path id="line2d_39" d="M473.76 196.911h371.38" clip-path="url(#p4d46955168)" style="fill:none;stroke-dasharray:2.96,1.28;stroke-dashoffset:0;stroke:#b0b0b0;stroke-opacity:.7;stroke-width:.8"/><use xlink:href="#m17974e93a3" id="line2d_40" x="473.76" y="196.911" style="stroke:#000;stroke-width:.8"/><g id="text_30" transform="matrix(.1 0 0 -.1 457.16 200.582)"><use xlink:href="#GuardianSansCond-Regular-32"/><use xlink:href="#GuardianSansCond-Regular-30" x="42.5"/></g></g><g id="ytick_11"><path id="line2d_41" d="M473.76 156.172h371.38" clip-path="url(#p4d46955168)" style="fill:none;stroke-dasharray:2.96,1.28;stroke-dashoffset:0;stroke:#b0b0b0;stroke-opacity:.7;stroke-width:.8"/><use xlink:href="#m17974e93a3" id="line2d_42" x="473.76" y="156.172" style="stroke:#000;stroke-width:.8"/><g id="text_31" transform="matrix(.1 0 0 -.1 456.67 159.843)"><use xlink:href="#GuardianSansCond-Regular-34"/><use xlink:href="#GuardianSansCond-Regular-30" x="47.4"/></g></g><g id="ytick_12"><path id="line2d_43" d="M473.76 115.433h371.38" clip-path="url(#p4d46955168)" style="fill:none;stroke-dasharray:2.96,1.28;stroke-dashoffset:0;stroke:#b0b0b0;stroke-opacity:.7;stroke-width:.8"/><use xlink:href="#m17974e93a3" id="line2d_44" x="473.76" y="115.433" style="stroke:#000;stroke-width:.8"/><g id="text_32" transform="matrix(.1 0 0 -.1 456.52 119.104)"><use xlink:href="#GuardianSansCond-Regular-36"/><use xlink:href="#GuardianSansCond-Regular-30" x="48.9"/></g></g><g id="ytick_13"><path id="line2d_45" d="M473.76 74.694h371.38" clip-path="url(#p4d46955168)" style="fill:none;stroke-dasharray:2.96,1.28;stroke-dashoffset:0;stroke:#b0b0b0;stroke-opacity:.7;stroke-width:.8"/><use xlink:href="#m17974e93a3" id="line2d_46" x="473.76" y="74.694" style="stroke:#000;stroke-width:.8"/><g id="text_33" transform="matrix(.1 0 0 -.1 456.47 78.365)"><use xlink:href="#GuardianSansCond-Regular-38"/><use xlink:href="#GuardianSansCond-Regular-30" x="49.4"/></g></g><g id="ytick_14"><path id="line2d_47" d="M473.76 33.955h371.38" clip-path="url(#p4d46955168)" style="fill:none;stroke-dasharray:2.96,1.28;stroke-dashoffset:0;stroke:#b0b0b0;stroke-opacity:.7;stroke-width:.8"/><use xlink:href="#m17974e93a3" id="line2d_48" x="473.76" y="33.955" style="stroke:#000;stroke-width:.8"/><g id="text_34" transform="matrix(.1 0 0 -.1 453.18 37.626)"><use xlink:href="#GuardianSansCond-Regular-31"/><use xlink:href="#GuardianSansCond-Regular-30" x="28.8"/><use xlink:href="#GuardianSansCond-Regular-30" x="82.3"/></g></g><g id="text_35" transform="matrix(0 -.12 -.12 0 446.889 174.498)"><defs><path id="GuardianSansCond-Regular-78" d="M83 0h551l422 813c147 256 237 435 237 435h6s77-134 224-429L1939 0h576l-902 1670 838 1613h-531l-371-768-199-429h-12s-64 122-218 423l-403 774H128l883-1625z" transform="scale(.01563)"/><path id="GuardianSansCond-Regular-7a" d="M179 0h2067v435H794v19l1465 2464v365H256v-429h1370v-19L179 384z" transform="scale(.01563)"/></defs><use xlink:href="#GuardianSansCond-Regular-4d"/><use xlink:href="#GuardianSansCond-Regular-61" x="67.7"/><use xlink:href="#GuardianSansCond-Regular-78" x="108.6"/><use xlink:href="#GuardianSansCond-Regular-69" x="149.2"/><use xlink:href="#GuardianSansCond-Regular-6d" x="168.5"/><use xlink:href="#GuardianSansCond-Regular-75" x="238"/><use xlink:href="#GuardianSansCond-Regular-6d" x="283.5"/><use xlink:href="#GuardianSansCond-Regular-42" x="368.8"/><use xlink:href="#GuardianSansCond-Regular-61" x="417.8"/><use xlink:href="#GuardianSansCond-Regular-74" x="458.7"/><use xlink:href="#GuardianSansCond-Regular-63" x="487.7"/><use xlink:href="#GuardianSansCond-Regular-68" x="525.5"/><use xlink:href="#GuardianSansCond-Regular-53" x="587.4"/><use xlink:href="#GuardianSansCond-Regular-69" x="629.6"/><use xlink:href="#GuardianSansCond-Regular-7a" x="648.9"/><use xlink:href="#GuardianSansCond-Regular-65" x="687.1"/></g></g><path id="patch_20" d="M473.76 237.65V23.77" style="fill:none;stroke:#000;stroke-width:.8;stroke-linejoin:miter;stroke-linecap:square"/><path id="patch_21" d="M845.14 237.65V23.77" style="fill:none;stroke:#000;stroke-width:.8;stroke-linejoin:miter;stroke-linecap:square"/><path id="patch_22" d="M473.76 237.65h371.38" style="fill:none;stroke:#000;stroke-width:.8;stroke-linejoin:miter;stroke-linecap:square"/><path id="patch_23" d="M473.76 23.77h371.38" style="fill:none;stroke:#000;stroke-width:.8;stroke-linejoin:miter;stroke-linecap:square"/><path id="patch_24" d="M490.64 237.65h50.284v-8.147h-50.283z" clip-path="url(#p4d46955168)" style="fill:#cec0fa"/><path id="patch_25" d="M562.474 237.65h50.284v-20.369h-50.284z" clip-path="url(#p4d46955168)" style="fill:#cec0fa"/><path id="patch_26" d="M634.308 237.65h50.283v-40.739h-50.283z" clip-path="url(#p4d46955168)" style="fill:#cec0fa"/><path id="patch_27" d="M706.142 237.65h50.283v-81.478h-50.283z" clip-path="url(#p4d46955168)" style="fill:#cec0fa"/><path id="patch_28" d="M777.975 237.65h50.284V33.956h-50.284z" clip-path="url(#p4d46955168)" style="fill:#cec0fa"/><use xlink:href="#GuardianSansCond-Regular-34" id="text_36" transform="matrix(.12 0 0 -.12 512.938 236.835)"/><g id="text_37" transform="matrix(.12 0 0 -.12 582.678 230.724)"><use xlink:href="#GuardianSansCond-Regular-31"/><use xlink:href="#GuardianSansCond-Regular-30" x="28.8"/></g><g id="text_38" transform="matrix(.12 0 0 -.12 653.69 220.54)"><use xlink:href="#GuardianSansCond-Regular-32"/><use xlink:href="#GuardianSansCond-Regular-30" x="42.5"/></g><g id="text_39" transform="matrix(.12 0 0 -.12 725.229 200.17)"><use xlink:href="#GuardianSansCond-Regular-34"/><use xlink:href="#GuardianSansCond-Regular-30" x="47.4"/></g><g id="text_40" transform="matrix(.12 0 0 -.12 794.97 139.062)"><use xlink:href="#GuardianSansCond-Regular-31"/><use xlink:href="#GuardianSansCond-Regular-30" x="28.8"/><use xlink:href="#GuardianSansCond-Regular-30" x="82.3"/></g><g id="text_41" transform="matrix(.144 0 0 -.144 574.11 17.77)"><defs><path id="GuardianSansCond-Regular-56" d="M1318 0h557l1261 4435h-518l-839-3117c-89-339-147-595-147-595h-13s-57 269-147 595L634 4435H70z" transform="scale(.01563)"/></defs><use xlink:href="#GuardianSansCond-Regular-4d"/><use xlink:href="#GuardianSansCond-Regular-61" x="67.7"/><use xlink:href="#GuardianSansCond-Regular-78" x="108.6"/><use xlink:href="#GuardianSansCond-Regular-69" x="149.2"/><use xlink:href="#GuardianSansCond-Regular-6d" x="168.5"/><use xlink:href="#GuardianSansCond-Regular-75" x="238"/><use xlink:href="#GuardianSansCond-Regular-6d" x="283.5"/><use xlink:href="#GuardianSansCond-Regular-42" x="368.8"/><use xlink:href="#GuardianSansCond-Regular-61" x="417.8"/><use xlink:href="#GuardianSansCond-Regular-74" x="458.7"/><use xlink:href="#GuardianSansCond-Regular-63" x="487.7"/><use xlink:href="#GuardianSansCond-Regular-68" x="525.5"/><use xlink:href="#GuardianSansCond-Regular-53" x="587.4"/><use xlink:href="#GuardianSansCond-Regular-69" x="629.6"/><use xlink:href="#GuardianSansCond-Regular-7a" x="648.9"/><use xlink:href="#GuardianSansCond-Regular-65" x="687.1"/><use xlink:href="#GuardianSansCond-Regular-70" x="745.6"/><use xlink:href="#GuardianSansCond-Regular-65" x="792.2"/><use xlink:href="#GuardianSansCond-Regular-72" x="834.9"/><use xlink:href="#GuardianSansCond-Regular-54" x="879.5"/><use xlink:href="#GuardianSansCond-Regular-50" x="924"/><use xlink:href="#GuardianSansCond-Regular-56" x="986.8"/><use xlink:href="#GuardianSansCond-Regular-61" x="1036.9"/><use xlink:href="#GuardianSansCond-Regular-6c" x="1077.8"/><use xlink:href="#GuardianSansCond-Regular-75" x="1097.1"/><use xlink:href="#GuardianSansCond-Regular-65" x="1142.6"/></g><g id="legend_2"><path id="patch_29" d="M482.16 50.47h101.52q2.4 0 2.4-2.4v-15.9q0-2.4-2.4-2.4H482.16q-2.4 0-2.4 2.4v15.9q0 2.4 2.4 2.4z" style="fill:#fff;opacity:.8;stroke:#ccc;stroke-linejoin:miter"/><path id="patch_30" d="M484.56 43.38h24v-8.4h-24z" style="fill:#cec0fa"/><g id="text_42" transform="matrix(.12 0 0 -.12 518.16 43.38)"><use xlink:href="#GuardianSansCond-Regular-4d"/><use xlink:href="#GuardianSansCond-Regular-61" x="67.7"/><use xlink:href="#GuardianSansCond-Regular-78" x="108.6"/><use xlink:href="#GuardianSansCond-Regular-42" x="165"/><use xlink:href="#GuardianSansCond-Regular-61" x="214"/><use xlink:href="#GuardianSansCond-Regular-74" x="254.9"/><use xlink:href="#GuardianSansCond-Regular-63" x="283.9"/><use xlink:href="#GuardianSansCond-Regular-68" x="321.7"/><use xlink:href="#GuardianSansCond-Regular-53" x="383.6"/><use xlink:href="#GuardianSansCond-Regular-69" x="425.8"/><use xlink:href="#GuardianSansCond-Regular-7a" x="445.1"/><use xlink:href="#GuardianSansCond-Regular-65" x="483.3"/></g></g></g></g><defs><clipPath id="pcec6c36b4c"><path d="M53.58 23.77h371.38v213.88H53.58z"/></clipPath><clipPath id="p4d46955168"><path d="M473.76 23.77h371.38v213.88H473.76z"/></clipPath></defs></svg>