<svg xmlns="http://www.w3.org/2000/svg" width="800.933" height="147.238" fill="none" stroke-linecap="square" stroke-miterlimit="10"><clipPath id="a"><path d="M0 0h960v540H0Z"/></clipPath><g clip-path="url(#a)" transform="translate(-125.551 -216.438)"><path d="M249.822 217.588h166.11v42.016h-166.11Z"/><path fill="#000" d="m299.82 232.93-1.875 1.672q-1-1.39-2.03-1.39-.5 0-.829.265-.312.265-.312.61 0 .343.234.64.312.406 1.875 1.718 1.453 1.22 1.766 1.547.765.782 1.093 1.5.328.703.328 1.547 0 1.656-1.14 2.735t-2.969 1.078q-1.437 0-2.5-.703-1.062-.704-1.812-2.204l2.14-1.296q.969 1.765 2.219 1.765.656 0 1.094-.375.453-.375.453-.89 0-.454-.344-.907-.328-.453-1.469-1.39-2.187-1.782-2.828-2.75-.64-.97-.64-1.938 0-1.39 1.062-2.39t2.625-1q1 0 1.906.468.907.453 1.953 1.688m2.67-1.828h2.72q2.187 0 3.156.406t1.531 1.312.563 2.172q0 1.407-.735 2.344-.734.922-1.984 1.281-.75.22-2.688.22v5.67h-2.562zm2.563 5.25h.797q.969 0 1.344-.14.375-.142.578-.454.219-.313.219-.766 0-.765-.61-1.125-.437-.265-1.609-.265h-.719zm12.262-1.75h2.141v1.25q.344-.75.906-1.125.578-.39 1.266-.39.484 0 1.016.265l-.782 2.14q-.437-.218-.718-.218-.579 0-.97.718-.39.703-.39 2.782v4.484h-2.469zm16.483 5.672h-7.985q.172 1.062.922 1.687.75.61 1.922.61 1.39 0 2.39-.97l2.094.985q-.78 1.11-1.875 1.64-1.093.532-2.593.532-2.344 0-3.813-1.469-1.453-1.469-1.453-3.687 0-2.266 1.453-3.766 1.469-1.5 3.672-1.5 2.344 0 3.813 1.5 1.468 1.5 1.468 3.969zm-2.5-1.954q-.25-.828-.969-1.343-.719-.532-1.672-.532-1.047 0-1.828.579-.5.375-.906 1.296zm11.833-3.718h2.484v8.484q0 2.516-1.015 3.703-1.36 1.594-4.094 1.594-1.453 0-2.453-.36-.985-.359-1.672-1.078-.688-.703-1.016-1.703h2.75q.36.407.938.625.578.22 1.36.22 1 0 1.609-.313t.859-.813q.25-.484.25-1.687-.656.656-1.375.953-.719.28-1.625.28-2 0-3.375-1.437t-1.375-3.64q0-2.36 1.453-3.797 1.328-1.297 3.156-1.297.86 0 1.61.328.765.313 1.53 1.031zm-2.578 2.062q-1.172 0-1.938.797-.765.781-.765 1.969 0 1.25.78 2.047.782.78 1.97.78 1.156 0 1.906-.765.75-.78.75-2.047 0-1.234-.75-2-.75-.78-1.953-.78m8.55-6.156q.656 0 1.125.484.469.47.469 1.14 0 .673-.469 1.142t-1.11.468q-.671 0-1.14-.468-.469-.485-.469-1.172 0-.657.47-1.125.468-.47 1.124-.47m-1.25 4.094h2.5v9.906h-2.5zm9.395-.266q1.406 0 2.64.703t1.922 1.906q.703 1.204.703 2.594 0 1.406-.703 2.625-.687 1.219-1.89 1.906-1.203.688-2.657.688-2.125 0-3.64-1.516-1.5-1.515-1.5-3.687 0-2.313 1.703-3.86 1.484-1.359 3.422-1.359m.047 2.344q-1.157 0-1.938.812-.765.797-.765 2.063 0 1.297.75 2.094.765.796 1.937.796t1.938-.812q.78-.813.78-2.078 0-1.281-.765-2.078t-1.937-.797m7.24-2.078h2.484v1q.843-.703 1.53-.985.688-.28 1.407-.28 1.484 0 2.516 1.03.859.875.859 2.594v6.547h-2.453v-4.344q0-1.781-.172-2.36-.156-.577-.547-.874-.39-.313-.984-.313-.75 0-1.297.5t-.75 1.39q-.11.47-.11 2.017v3.984h-2.484z"/><path d="M428.252 217.218h166.11v42.016h-166.11z"/><path fill="#000" d="M443.421 230.732h7.407v2.515h-2.438v10.89h-2.578v-10.89h-2.39zm9.147 0h2.719q2.187 0 3.156.406t1.531 1.312.563 2.172q0 1.406-.735 2.344-.734.922-1.984 1.281-.75.219-2.688.219v5.672h-2.562zm2.562 5.25h.797q.97 0 1.344-.141t.578-.453q.219-.313.219-.766 0-.765-.61-1.125-.437-.265-1.609-.265h-.719zm12.263-1.75h2.14v1.25q.344-.75.906-1.125.579-.391 1.266-.391.484 0 1.016.266l-.782 2.14q-.437-.219-.718-.219-.578 0-.97.72-.39.702-.39 2.78v4.485h-2.468zm16.482 5.671h-7.984q.171 1.063.921 1.688.75.61 1.922.61 1.39 0 2.39-.97l2.095.985q-.782 1.11-1.875 1.64-1.094.532-2.594.532-2.344 0-3.813-1.469-1.453-1.469-1.453-3.687 0-2.266 1.453-3.766 1.47-1.5 3.672-1.5 2.344 0 3.813 1.5t1.469 3.969zm-2.5-1.953q-.25-.828-.969-1.343-.719-.532-1.672-.532-1.047 0-1.828.578-.5.375-.906 1.297zm11.833-3.718h2.484v8.484q0 2.516-1.015 3.703-1.36 1.594-4.094 1.594-1.453 0-2.453-.36-.984-.359-1.672-1.078-.687-.703-1.016-1.703h2.75q.36.406.938.625t1.36.219q1 0 1.609-.313.609-.312.859-.812.25-.484.25-1.688-.656.657-1.375.954-.719.28-1.625.28-2 0-3.375-1.437t-1.375-3.64q0-2.36 1.453-3.797 1.328-1.297 3.156-1.297.86 0 1.61.328.765.313 1.531 1.031zm-2.578 2.062q-1.172 0-1.938.797-.765.781-.765 1.969 0 1.25.781 2.047.781.78 1.969.78 1.156 0 1.906-.765.75-.781.75-2.047 0-1.234-.75-2-.75-.78-1.953-.78m8.55-6.156q.657 0 1.125.484.47.469.47 1.14 0 .673-.47 1.141-.468.47-1.109.47-.672 0-1.14-.47-.47-.484-.47-1.171 0-.657.47-1.125.468-.47 1.124-.47m-1.25 4.094h2.5v9.906h-2.5zm9.395-.266q1.406 0 2.64.703t1.922 1.906q.704 1.203.704 2.594 0 1.406-.704 2.625-.687 1.219-1.89 1.906-1.203.688-2.656.688-2.125 0-3.641-1.516-1.5-1.515-1.5-3.687 0-2.313 1.703-3.86 1.484-1.359 3.422-1.359m.047 2.344q-1.156 0-1.938.812-.765.797-.765 2.063 0 1.297.75 2.093.765.797 1.937.797t1.938-.812q.781-.813.781-2.078 0-1.282-.766-2.078-.765-.797-1.937-.797m7.24-2.078h2.484v1q.843-.704 1.53-.985t1.407-.281q1.485 0 2.516 1.031.86.875.86 2.594v6.547h-2.454v-4.344q0-1.781-.172-2.36-.156-.577-.547-.874-.39-.313-.984-.313-.75 0-1.297.5t-.75 1.39q-.11.47-.11 2.016v3.985h-2.484zm18.633-4.094h3.141q-1.625 1.844-2.422 3.984t-.797 4.89q0 2.97.89 5.235.688 1.735 2.329 3.766h-3.14q-1.47-2.313-2.047-4.328-.579-2.016-.579-4.75 0-2.672.61-4.688t2.015-4.11m6.447.594h2.484l3.11 9.359 3.14-9.36h2.453l2.266 13.407h-2.469l-1.437-8.469-2.844 8.469h-2.25l-2.812-8.469-1.47 8.469h-2.484zm15.492 0h2.547V241.7h3.718v2.438h-6.265zm8.192 0h2.719q2.187 0 3.156.406t1.531 1.312.563 2.172q0 1.406-.735 2.344-.734.922-1.984 1.281-.75.219-2.688.219v5.672h-2.562zm2.562 5.25h.797q.969 0 1.344-.141t.578-.453q.219-.313.219-.766 0-.765-.61-1.125-.437-.265-1.609-.265h-.719zm10.011 12.03h-3.156q1.625-1.827 2.422-3.952.797-2.14.797-4.907 0-2.984-.89-5.234-.688-1.734-2.329-3.781h3.156q1.454 2.328 2.032 4.344.578 2.015.578 4.75 0 2.671-.61 4.687-.609 2.016-2 4.094"/><path d="M125.551 290.64h166.11v19.402h-166.11Z"/><path fill="#000" d="m146.473 296.375-1.531 1.532q-1.469-1.547-3.406-1.547-1.704 0-2.844 1.125t-1.14 2.734q0 1.656 1.187 2.813 1.187 1.156 2.922 1.156 1.14 0 1.906-.469.781-.484 1.265-1.5h-3.328v-2.047h5.782l.015.485q0 1.5-.781 2.86-.781 1.343-2.031 2.062-1.235.718-2.907.718-1.796 0-3.203-.781-1.39-.781-2.218-2.219-.813-1.437-.813-3.11 0-2.28 1.516-3.968 1.78-2 4.656-2 1.5 0 2.797.547 1.11.469 2.156 1.61m2.828-1.875h2.313q1.89 0 2.718.36.829.344 1.313 1.125.484.765.484 1.86 0 1.202-.64 2-.625.796-1.703 1.109-.625.171-2.297.171V306H149.3zm2.188 4.5h.687q.828 0 1.14-.109.329-.125.5-.39.188-.282.188-.657 0-.672-.515-.969-.375-.234-1.39-.234h-.61zm6.695-4.5h2.203v7.438q0 .969.156 1.375.172.39.563.625t.937.234q.578 0 .985-.265.422-.266.578-.672.172-.406.172-1.563V294.5h2.187v6.86q0 1.734-.203 2.406-.187.672-.734 1.297t-1.266.937q-.719.297-1.672.297-1.25 0-2.187-.578-.922-.578-1.328-1.437-.391-.875-.391-2.922zm25.36 2.032-1.532 1.453q-1.562-1.64-3.516-1.64-1.64 0-2.78 1.124-1.126 1.125-1.126 2.766 0 1.156.5 2.047.5.89 1.406 1.406.922.5 2.047.5.953 0 1.735-.36.797-.359 1.734-1.296l1.484 1.547q-1.265 1.25-2.406 1.734-1.125.484-2.578.484-2.687 0-4.39-1.703-1.704-1.703-1.704-4.36 0-1.718.766-3.046.781-1.344 2.234-2.156t3.125-.813q1.422 0 2.735.61 1.312.593 2.265 1.703m5.679.75q1.203 0 2.25.61 1.063.593 1.656 1.624.594 1.031.594 2.219 0 1.203-.594 2.25-.593 1.047-1.625 1.64-1.03.594-2.28.594-1.83 0-3.126-1.297-1.281-1.312-1.281-3.172 0-1.984 1.453-3.312 1.281-1.156 2.953-1.156m.031 2q-1 0-1.656.703-.656.687-.656 1.765 0 1.11.64 1.797.657.688 1.657.688t1.656-.688q.672-.703.672-1.797t-.656-1.78q-.641-.688-1.657-.688m6.196-1.782h2.14v.97q.547-.595 1.219-.891t1.453-.297q.797 0 1.438.39t1.03 1.14q.516-.75 1.25-1.14.735-.39 1.61-.39.906 0 1.594.422.687.421.984 1.109.313.672.313 2.203V306h-2.156v-4.312q0-1.453-.36-1.953-.36-.516-1.078-.516-.547 0-.984.313-.422.312-.64.86-.204.546-.204 1.765V306h-2.156v-4.125q0-1.14-.172-1.64-.156-.516-.5-.766-.328-.25-.813-.25-.53 0-.968.313-.422.312-.641.89-.219.563-.219 1.797V306h-2.14zm17.18 0v.938q.577-.578 1.25-.86.671-.296 1.437-.296 1.656 0 2.812 1.265 1.172 1.25 1.172 3.219 0 1.89-1.203 3.172-1.203 1.281-2.844 1.281-.734 0-1.375-.265-.625-.266-1.25-.86v4.016h-2.125V297.5zm2.234 1.75q-1 0-1.672.688-.656.687-.656 1.797 0 1.125.656 1.828.672.703 1.672.703.984 0 1.64-.703.672-.719.672-1.828 0-1.094-.656-1.781-.656-.704-1.656-.704m6.203-1.75h2.156v4.094q0 1.188.156 1.656.172.47.532.735.359.25.89.25t.906-.25q.375-.266.547-.75.14-.375.14-1.578V297.5h2.141v3.594q0 2.235-.359 3.047-.422 1-1.265 1.547-.829.531-2.125.531-1.391 0-2.266-.625-.86-.625-1.203-1.75-.25-.765-.25-2.812zm9.867-3.14h2.125v3.14h1.266v1.829h-1.266V306h-2.125v-6.671h-1.094V297.5h1.094zm10.812 3.14h2.125v8.5h-2.125v-.906q-.625.594-1.25.86-.625.265-1.359.265-1.656 0-2.86-1.281-1.202-1.281-1.202-3.172 0-1.969 1.156-3.219 1.172-1.265 2.844-1.265.765 0 1.437.297.672.28 1.234.859zm-2.234 1.75q-1 0-1.656.704-.656.687-.656 1.78 0 1.11.671 1.829.672.703 1.641.703 1.016 0 1.672-.703.672-.703.672-1.828 0-1.11-.672-1.797-.656-.688-1.672-.688m6.781-4.89h2.125v3.14h1.266v1.829h-1.266V306h-2.125v-6.671H245.2V297.5h1.093zm5.375-.36q.563 0 .953.407.407.406.407.984 0 .563-.407.969-.39.406-.937.406-.578 0-.984-.406-.391-.422-.391-1 0-.563.39-.953.407-.407.97-.407m-1.078 3.5h2.14v8.5h-2.14zm8.07-.218q1.204 0 2.25.61 1.063.593 1.657 1.624t.594 2.219q0 1.203-.594 2.25t-1.625 1.64-2.281.594q-1.829 0-3.125-1.297-1.282-1.312-1.282-3.172 0-1.984 1.453-3.312 1.282-1.156 2.954-1.156m.032 2q-1 0-1.657.703-.656.687-.656 1.765 0 1.11.64 1.797.657.688 1.657.688t1.656-.688q.672-.703.672-1.797t-.656-1.78q-.64-.688-1.656-.688m6.21-1.782h2.126v.86q.734-.61 1.312-.844.594-.234 1.219-.234 1.266 0 2.14.875.75.75.75 2.218V306h-2.109v-3.734q0-1.516-.14-2.016t-.485-.765q-.328-.266-.828-.266-.656 0-1.125.438-.453.437-.64 1.203-.094.39-.094 1.719V306h-2.125zm10.774-.218q.5 0 .86.36.359.358.359.858t-.36.86q-.359.36-.859.36-.516 0-.875-.345-.36-.359-.36-.875 0-.5.36-.859.36-.36.875-.36m0 6.484q.5 0 .86.36.359.359.359.859 0 .515-.36.875-.359.36-.859.36-.516 0-.875-.36-.36-.36-.36-.875 0-.5.36-.86.36-.359.875-.359"/><path d="M125.551 332.53h186.96v19.402h-186.96Z"/><path fill="#000" d="m146.473 338.265-1.531 1.531q-1.469-1.546-3.406-1.546-1.704 0-2.844 1.125t-1.14 2.734q0 1.656 1.187 2.812 1.187 1.157 2.922 1.157 1.14 0 1.906-.469.781-.484 1.265-1.5h-3.328v-2.047h5.782l.015.484q0 1.5-.781 2.86-.781 1.344-2.031 2.062-1.235.72-2.907.72-1.796 0-3.203-.782-1.39-.781-2.218-2.219-.813-1.437-.813-3.11 0-2.28 1.516-3.968 1.78-2 4.656-2 1.5 0 2.797.547 1.11.469 2.156 1.61m2.828-1.875h2.313q1.89 0 2.718.36.829.343 1.313 1.125.484.765.484 1.859 0 1.203-.64 2-.625.797-1.703 1.11-.625.171-2.297.171v4.875H149.3zm2.188 4.5h.687q.828 0 1.14-.11.329-.124.5-.39.188-.281.188-.656 0-.672-.515-.969-.375-.234-1.39-.234h-.61zm6.695-4.5h2.203v7.438q0 .968.156 1.375.172.39.563.625t.937.234q.578 0 .985-.266.422-.265.578-.671.172-.407.172-1.563v-7.172h2.187v6.86q0 1.734-.203 2.406-.187.672-.734 1.297t-1.266.937q-.719.297-1.672.297-1.25 0-2.187-.578-.922-.578-1.328-1.438-.391-.875-.391-2.921zm25.36 2.031-1.532 1.454q-1.562-1.641-3.516-1.641-1.64 0-2.78 1.125-1.126 1.125-1.126 2.766 0 1.156.5 2.046.5.891 1.406 1.407.922.5 2.047.5.953 0 1.735-.36.797-.36 1.734-1.297l1.484 1.547q-1.265 1.25-2.406 1.735-1.125.484-2.578.484-2.687 0-4.39-1.703-1.704-1.703-1.704-4.36 0-1.718.766-3.046.781-1.344 2.234-2.157t3.125-.812q1.422 0 2.735.61 1.312.593 2.265 1.702m5.679.75q1.203 0 2.25.61 1.063.594 1.656 1.625.594 1.031.594 2.219 0 1.203-.594 2.25-.593 1.046-1.625 1.64-1.03.594-2.28.594-1.83 0-3.126-1.297-1.281-1.312-1.281-3.172 0-1.984 1.453-3.312 1.281-1.157 2.953-1.157m.031 2q-1 0-1.656.704-.656.687-.656 1.765 0 1.11.64 1.797.657.688 1.657.688t1.656-.688q.672-.703.672-1.797t-.656-1.781q-.641-.688-1.657-.688m6.196-1.78h2.14v.968q.547-.594 1.219-.89.672-.298 1.453-.298.797 0 1.438.391.64.39 1.03 1.14.516-.75 1.25-1.14.735-.39 1.61-.39.906 0 1.594.421.687.422.984 1.11.313.672.313 2.203v4.984h-2.156v-4.312q0-1.453-.36-1.953-.36-.516-1.078-.516-.547 0-.984.312-.422.313-.64.86-.204.547-.204 1.765v3.844h-2.156v-4.125q0-1.14-.172-1.64-.156-.516-.5-.766-.328-.25-.813-.25-.53 0-.968.312-.422.313-.641.891-.219.563-.219 1.797v3.781h-2.14zm15.039 0h2.14v.968q.547-.594 1.219-.89.672-.298 1.453-.298.797 0 1.438.391.64.39 1.03 1.14.517-.75 1.25-1.14.735-.39 1.61-.39.907 0 1.594.421.688.422.984 1.11.313.672.313 2.203v4.984h-2.156v-4.312q0-1.453-.36-1.953-.36-.516-1.078-.516-.547 0-.984.312-.422.313-.64.86-.204.547-.204 1.765v3.844h-2.156v-4.125q0-1.14-.172-1.64-.156-.516-.5-.766-.328-.25-.813-.25-.53 0-.968.312-.422.313-.641.891-.219.563-.219 1.797v3.781h-2.14zm15.054 0h2.157v4.093q0 1.187.156 1.656.172.469.531.735.36.25.89.25.532 0 .907-.25.375-.266.547-.75.14-.375.14-1.579v-4.156h2.141v3.594q0 2.234-.36 3.047-.421 1-1.265 1.547-.828.531-2.125.531-1.39 0-2.266-.625-.859-.625-1.203-1.75-.25-.766-.25-2.813zm9.602 0h2.125v.859q.734-.61 1.312-.844.594-.235 1.22-.235 1.265 0 2.14.875.75.75.75 2.22v5.624h-2.11v-3.734q0-1.516-.14-2.016t-.485-.765q-.328-.266-.828-.266-.656 0-1.125.437-.453.438-.64 1.204-.094.39-.094 1.718v3.422h-2.125zm10.445-3.5q.563 0 .953.405.407.407.407.985 0 .562-.407.969-.39.406-.937.406-.578 0-.985-.406-.39-.422-.39-1 0-.563.39-.954.407-.406.97-.406m-1.078 3.5h2.14v8.5h-2.14zm12.399 1.718-1.782.969q-.5-.516-.984-.719t-1.14-.203q-1.204 0-1.938.719-.735.703-.735 1.828 0 1.078.704 1.765.718.688 1.875.688 1.421 0 2.218-.969l1.688 1.14q-1.375 1.782-3.86 1.782-2.25 0-3.515-1.328t-1.266-3.11q0-1.234.61-2.265.625-1.047 1.718-1.64 1.11-.595 2.485-.595 1.265 0 2.265.5 1.016.5 1.657 1.438m8.195-1.719h2.125v8.5h-2.125v-.906q-.625.594-1.25.86-.625.265-1.36.265-1.656 0-2.859-1.281-1.203-1.282-1.203-3.172 0-1.969 1.156-3.219 1.172-1.266 2.844-1.266.766 0 1.437.297.672.282 1.235.86zm-2.235 1.75q-1 0-1.656.703-.656.688-.656 1.782 0 1.109.672 1.828.672.703 1.64.703 1.016 0 1.672-.703.672-.703.672-1.828 0-1.11-.672-1.797-.656-.688-1.672-.688m6.782-4.89h2.125v3.14h1.265v1.828h-1.265v6.672h-2.125v-6.672h-1.094v-1.828h1.094zm5.375-.36q.562 0 .953.406.406.407.406.985 0 .562-.406.969-.39.406-.938.406-.578 0-.984-.406-.39-.422-.39-1 0-.563.39-.954.406-.406.969-.406m-1.078 3.5h2.14v8.5h-2.14zm8.07-.219q1.203 0 2.25.61 1.062.594 1.656 1.625t.594 2.219q0 1.203-.594 2.25t-1.625 1.64-2.281.594q-1.828 0-3.125-1.297-1.281-1.312-1.281-3.172 0-1.984 1.453-3.312 1.281-1.157 2.953-1.157m.031 2q-1 0-1.656.704-.656.687-.656 1.765 0 1.11.64 1.797.656.688 1.656.688t1.657-.688q.672-.703.672-1.797t-.657-1.781q-.64-.688-1.656-.688m6.211-1.78h2.125v.859q.734-.61 1.313-.844.593-.235 1.218-.235 1.266 0 2.14.875.75.75.75 2.22v5.624H293.7v-3.734q0-1.516-.141-2.016t-.484-.765q-.329-.266-.829-.266-.656 0-1.125.437-.453.438-.64 1.204-.094.39-.094 1.718v3.422h-2.125zm10.773-.22q.5 0 .86.36t.36.86-.36.859-.86.359q-.515 0-.875-.344-.359-.36-.359-.875 0-.5.36-.86.359-.359.874-.359m0 6.485q.5 0 .86.36.36.359.36.859 0 .515-.36.875-.36.359-.86.359-.515 0-.875-.36-.359-.359-.359-.874 0-.5.36-.86.359-.36.874-.36"/><path fill="#cec0fa" fill-rule="evenodd" d="M605.397 328.268a6.98 6.98 0 0 1 6.982-6.982h53.249a6.98 6.98 0 0 1 6.982 6.982v27.926a6.98 6.98 0 0 1-6.982 6.982h-53.25a6.98 6.98 0 0 1-6.981-6.982z"/><path stroke="#000" stroke-linecap="butt" stroke-linejoin="round" d="M605.397 328.268a6.98 6.98 0 0 1 6.982-6.982h53.249a6.98 6.98 0 0 1 6.982 6.982v27.926a6.98 6.98 0 0 1-6.982 6.982h-53.25a6.98 6.98 0 0 1-6.981-6.982z"/><path fill="#fff" d="M632.891 337.453h1.938q1.578 0 2.25.297.671.281 1.078.937.421.656.421 1.547 0 .953-.453 1.594-.453.625-1.359.953l2.266 4.25h-2l-2.157-4.047h-.156v4.047h-1.828Zm1.828 3.75h.563q.875 0 1.203-.219.328-.234.328-.766 0-.312-.172-.546-.156-.235-.437-.329-.266-.109-.985-.109h-.5zm10.794-2.438-1.344 1.188q-.719-.985-1.453-.985-.344 0-.578.188-.234.187-.234.437 0 .235.171.454.22.28 1.329 1.218 1.046.875 1.265 1.11.547.562.781 1.078.235.5.235 1.11 0 1.171-.813 1.937-.812.765-2.125.765-1.015 0-1.78-.5-.75-.5-1.298-1.562l1.531-.938q.688 1.282 1.594 1.282.469 0 .781-.266.313-.281.313-.64 0-.329-.234-.657t-1.063-1q-1.562-1.266-2.016-1.953-.453-.703-.453-1.39 0-1 .75-1.704.766-.719 1.875-.719.72 0 1.36.329.656.328 1.406 1.218"/><path fill="#e889ab" fill-rule="evenodd" d="M368.725 328.268a6.98 6.98 0 0 1 6.982-6.982h53.249a6.98 6.98 0 0 1 6.982 6.982v27.926a6.98 6.98 0 0 1-6.982 6.982h-53.25a6.98 6.98 0 0 1-6.98-6.982z"/><path stroke="#000" stroke-linecap="butt" stroke-linejoin="round" d="M368.725 328.268a6.98 6.98 0 0 1 6.982-6.982h53.249a6.98 6.98 0 0 1 6.982 6.982v27.926a6.98 6.98 0 0 1-6.982 6.982h-53.25a6.98 6.98 0 0 1-6.98-6.982z"/><path fill="#fff" d="M395.82 337.453h1.844l3.688 9.578h-1.906l-.75-1.969h-3.891l-.781 1.969h-1.907zm.938 2.547-1.281 3.281h2.547zm14.844-.985-1.281 1.282Q409.1 339 407.477 339q-1.406 0-2.36.937-.953.938-.953 2.281 0 1.391.985 2.36.984.953 2.437.953.938 0 1.578-.39.657-.407 1.063-1.25h-2.781v-1.72h4.812l.016.407q0 1.25-.657 2.39-.64 1.125-1.671 1.72-1.032.577-2.438.577-1.484 0-2.656-.64-1.156-.64-1.844-1.844-.687-1.203-.687-2.578 0-1.906 1.265-3.313 1.485-1.672 3.875-1.672 1.25 0 2.344.454.906.39 1.797 1.343"/><path fill="#4ea5b7" fill-rule="evenodd" d="M417.655 286.378a6.98 6.98 0 0 1 6.982-6.982h48.084a6.98 6.98 0 0 1 6.981 6.982v27.926a6.98 6.98 0 0 1-6.981 6.982h-48.084a6.98 6.98 0 0 1-6.982-6.982z"/><path stroke="#000" stroke-linecap="butt" stroke-linejoin="round" d="M417.655 286.378a6.98 6.98 0 0 1 6.982-6.982h48.084a6.98 6.98 0 0 1 6.981 6.982v27.926a6.98 6.98 0 0 1-6.981 6.982h-48.084a6.98 6.98 0 0 1-6.982-6.982z"/><path fill="#fff" d="M437.676 295.563h4.75v1.781h-2.953v1.735h2.953v1.75h-2.953v4.312h-1.797zm15.163 1.688-1.281 1.218q-1.297-1.375-2.922-1.375-1.375 0-2.312.938-.938.937-.938 2.312 0 .953.406 1.703.422.735 1.188 1.157.765.422 1.687.422.797 0 1.453-.297.657-.297 1.438-1.078l1.25 1.296q-1.063 1.032-2.016 1.438-.937.39-2.156.39-2.219 0-3.64-1.406-1.422-1.422-1.422-3.625 0-1.437.64-2.547.64-1.109 1.844-1.78 1.219-.688 2.61-.688 1.187 0 2.28.5 1.094.5 1.891 1.422m2.69-1.688h2.734v9.578h-1.812v-7.86h-1.969z"/><path fill="#e889ab" fill-rule="evenodd" d="M806.047 252.987a3.77 3.77 0 0 1 3.77-3.77h112.398a3.77 3.77 0 0 1 3.77 3.77v15.076a3.77 3.77 0 0 1-3.77 3.769H809.816a3.77 3.77 0 0 1-3.769-3.77z"/><path stroke="#000" stroke-linecap="butt" stroke-linejoin="round" d="M806.047 252.987a3.77 3.77 0 0 1 3.77-3.77h112.398a3.77 3.77 0 0 1 3.77 3.77v15.076a3.77 3.77 0 0 1-3.77 3.769H809.816a3.77 3.77 0 0 1-3.769-3.77z"/><path fill="#fff" d="M827.775 256.609h1.484l2.938 7.656h-1.516l-.594-1.578h-3.125l-.625 1.578h-1.515zm.75 2.03-1.016 2.626h2.032zm4.492-2.218h1.422v7.844h-1.422zm2.555 0h1.422v7.844h-1.422zm9.93 1.438-1.016 1.015q-.984-1.031-2.281-1.031-1.125 0-1.89.75-.75.75-.75 1.828 0 1.11.78 1.875.797.766 1.954.766.75 0 1.265-.313.532-.328.844-1h-2.219v-1.36h3.844l.016.313q0 1-.516 1.907-.516.906-1.344 1.375t-1.953.468q-1.187 0-2.125-.515-.922-.516-1.469-1.469-.546-.953-.546-2.062 0-1.532 1-2.657 1.187-1.328 3.109-1.328 1 0 1.86.36.734.312 1.437 1.078m5.918.75h1.406v5.656h-1.406v-.594q-.422.39-.844.563-.421.172-.906.172-1.094 0-1.906-.844-.797-.86-.797-2.11 0-1.312.781-2.156.782-.844 1.875-.844.516 0 .953.204.454.187.844.578zm-1.5 1.156q-.656 0-1.094.469-.437.468-.437 1.203 0 .719.437 1.203.454.469 1.094.469.672 0 1.11-.47.453-.468.453-1.218 0-.734-.453-1.187-.438-.47-1.11-.47m4.52-3.25h1.421v2.094h.828v1.218h-.828v4.438h-1.422v-4.438h-.734v-1.218h.734zm3.022-.094h1.422v2.75q.406-.36.828-.531.422-.188.86-.188.843 0 1.422.594.484.5.484 1.485v3.734h-1.39v-2.484q0-.985-.094-1.329t-.329-.515q-.218-.172-.562-.172-.422 0-.734.281-.313.281-.422.781-.063.25-.063 1.157v2.281h-1.422zm12.067 5.422h-4.563q.094.61.516.969.438.344 1.11.344.796 0 1.359-.547l1.203.562q-.453.625-1.078.938-.625.297-1.485.297-1.328 0-2.171-.829-.829-.843-.829-2.109 0-1.297.829-2.156.843-.86 2.093-.86 1.344 0 2.172.86.844.86.844 2.265zm-1.422-1.11q-.14-.484-.562-.78-.407-.297-.954-.297-.593 0-1.046.343-.282.203-.516.735zm2.243-2.124h1.22v.703q.187-.422.515-.64.328-.22.719-.22.28 0 .578.157l-.438 1.218q-.25-.125-.406-.125-.328 0-.563.407-.218.406-.218 1.593v2.563h-1.407zm9.203-2h1.484l2.937 7.656h-1.515l-.594-1.578h-3.125l-.625 1.578h-1.516zm.75 2.031-1.016 2.625h2.031zm10.195 1.11-1.188.656q-.328-.36-.656-.485-.328-.14-.765-.14-.797 0-1.297.484-.485.469-.485 1.219 0 .718.469 1.172.484.453 1.25.453.953 0 1.484-.64l1.125.765q-.921 1.172-2.578 1.172-1.484 0-2.343-.875-.844-.891-.844-2.079 0-.812.406-1.5.422-.703 1.156-1.093.735-.407 1.64-.407.845 0 1.517.344.671.328 1.109.953m1.446-3.235h1.422v2.094h.828v1.218h-.828v4.438h-1.422v-4.438h-.734v-1.218h.734zm3.586-.25q.375 0 .64.281.266.266.266.656 0 .375-.266.641-.265.266-.64.266t-.64-.266q-.266-.281-.266-.672 0-.375.265-.64.266-.266.64-.266m-.719 2.344h1.422v5.656h-1.422zm2.102 0h1.453l1.422 3.328 1.422-3.328h1.453l-2.422 5.656h-.906zm10.046.781-.89.89q-.532-.53-.97-.53-.234 0-.374.109-.125.093-.125.234 0 .125.078.219.093.094.422.265l.515.25q.828.407 1.125.829.313.421.313.984 0 .766-.563 1.266-.547.5-1.469.5-1.234 0-1.984-.97l.875-.952q.25.297.578.484.344.172.61.172.28 0 .453-.125.172-.14.172-.328 0-.328-.625-.64l-.47-.235q-1.374-.688-1.374-1.735 0-.671.515-1.14.516-.485 1.329-.485.546 0 1.03.25.485.235.829.688"/><path fill="#cec0fa" fill-rule="evenodd" d="M806.047 280.759a3.77 3.77 0 0 1 3.77-3.77h112.398a3.77 3.77 0 0 1 3.77 3.77v15.076a3.77 3.77 0 0 1-3.77 3.769H809.816a3.77 3.77 0 0 1-3.769-3.77z"/><path stroke="#000" stroke-linecap="butt" stroke-linejoin="round" d="M806.047 280.759a3.77 3.77 0 0 1 3.77-3.77h112.398a3.77 3.77 0 0 1 3.77 3.77v15.076a3.77 3.77 0 0 1-3.77 3.769H809.816a3.77 3.77 0 0 1-3.769-3.77z"/><path fill="#fff" d="M811.893 284.38h1.546q1.266 0 1.797.235.547.218.875.75.328.515.328 1.234 0 .766-.359 1.281-.36.5-1.094.75l1.813 3.407h-1.594l-1.719-3.235h-.125v3.235h-1.468zm1.468 3h.453q.688 0 .954-.187.265-.188.265-.61 0-.25-.14-.421-.125-.188-.344-.266-.219-.094-.797-.094h-.39zm10.135 2.235h-4.563q.094.61.516.968.437.344 1.11.344.796 0 1.359-.547l1.203.563q-.453.625-1.078.937-.625.297-1.485.297-1.328 0-2.172-.828-.828-.844-.828-2.11 0-1.296.828-2.156.844-.859 2.094-.859 1.344 0 2.172.86.844.859.844 2.265zm-1.422-1.11q-.14-.484-.563-.78-.406-.298-.953-.298-.593 0-1.047.344-.28.203-.515.734zm6.759-4.312h1.406v7.844h-1.406v-.594q-.422.39-.844.562t-.906.172q-1.094 0-1.906-.844-.797-.859-.797-2.109 0-1.312.781-2.156t1.875-.844q.516 0 .953.203.453.188.844.578zm-1.5 3.344q-.656 0-1.094.468-.437.47-.437 1.203 0 .72.437 1.204.453.468 1.094.468.672 0 1.11-.468.452-.47.452-1.22 0-.734-.453-1.187-.437-.468-1.11-.468m4.347-1.157h1.438v2.72q0 .796.11 1.108.108.313.343.485.234.172.594.172.359 0 .593-.172.25-.172.375-.5.094-.25.094-1.047v-2.766h1.422v2.391q0 1.484-.234 2.031-.282.672-.844 1.031-.563.344-1.422.344-.922 0-1.5-.406-.578-.422-.813-1.172-.156-.516-.156-1.86zm11.942 1.141-1.188.656q-.328-.36-.656-.484-.328-.14-.766-.14-.796 0-1.296.484-.485.468-.485 1.218 0 .72.469 1.172.484.453 1.25.453.953 0 1.484-.64l1.125.765q-.922 1.172-2.578 1.172-1.484 0-2.344-.875-.843-.89-.843-2.078 0-.812.406-1.5.422-.703 1.156-1.094.735-.406 1.64-.406.845 0 1.516.344.672.328 1.11.953m6.946 2.094h-4.562q.094.61.515.968.438.344 1.11.344.797 0 1.36-.547l1.202.563q-.453.625-1.078.937-.625.297-1.484.297-1.328 0-2.172-.828-.828-.844-.828-2.11 0-1.296.828-2.156.844-.859 2.094-.859 1.343 0 2.172.86.843.859.843 2.265zm-1.422-1.11q-.14-.484-.562-.78-.406-.298-.953-.298-.594 0-1.047.344-.281.203-.516.734zm6.744-3.078-1.078.953q-.578-.797-1.157-.797-.28 0-.468.157-.188.156-.188.343t.14.36q.173.234 1.063.984.828.703 1 .89.453.438.625.845.188.406.188.89 0 .953-.656 1.563-.641.61-1.688.61-.812 0-1.422-.392-.61-.406-1.031-1.265l1.219-.735q.547 1.016 1.265 1.016.375 0 .625-.219.266-.218.266-.515 0-.25-.203-.5-.188-.266-.844-.813-1.25-1.015-1.61-1.562-.359-.563-.359-1.11 0-.797.594-1.359.61-.578 1.5-.578.578 0 1.094.265.515.266 1.125.97m6.916 2.094-1.187.656q-.328-.36-.656-.484-.329-.14-.766-.14-.797 0-1.297.484-.484.468-.484 1.218 0 .72.468 1.172.485.453 1.25.453.954 0 1.485-.64l1.125.765q-.922 1.172-2.578 1.172-1.485 0-2.344-.875-.844-.89-.844-2.078 0-.812.406-1.5.422-.703 1.157-1.094.734-.406 1.64-.406.844 0 1.516.344.672.328 1.11.953m5.462-1.14h1.407v5.656h-1.407v-.594q-.422.39-.843.562-.422.172-.907.172-1.093 0-1.906-.844-.797-.859-.797-2.109 0-1.312.781-2.156.782-.844 1.875-.844.516 0 .954.203.453.188.843.578zm-1.5 1.156q-.656 0-1.093.468-.438.47-.438 1.203 0 .72.438 1.204.453.468 1.093.468.672 0 1.11-.468.453-.47.453-1.22 0-.734-.453-1.187-.438-.468-1.11-.468m4.52-3.25h1.421v2.093h.829v1.22h-.829v4.437h-1.421V287.6h-.735v-1.219h.735zm3.194 0h1.422v2.093h.828v1.22h-.828v4.437h-1.422V287.6h-.734v-1.219h.734zm8.695 5.328h-4.562q.093.61.515.968.438.344 1.11.344.796 0 1.359-.547l1.203.563q-.453.625-1.078.937-.625.297-1.484.297-1.329 0-2.172-.828-.828-.844-.828-2.11 0-1.296.828-2.156.843-.859 2.093-.859 1.344 0 2.172.86.844.859.844 2.265zm-1.422-1.11q-.14-.484-.562-.78-.407-.298-.953-.298-.594 0-1.047.344-.282.203-.516.734zM884 286.38h1.218v.703q.188-.421.516-.64t.719-.219q.28 0 .578.156l-.438 1.22q-.25-.126-.406-.126-.328 0-.562.406-.22.407-.22 1.594v2.563H884zm9.202-2h1.484l2.937 7.657h-1.515l-.594-1.579h-3.125l-.625 1.579h-1.516zm.75 2.032-1.016 2.625h2.031zm10.195 1.109-1.187.656q-.329-.36-.657-.484-.328-.14-.765-.14-.797 0-1.297.484-.485.468-.485 1.218 0 .72.47 1.172.484.453 1.25.453.952 0 1.484-.64l1.125.765q-.922 1.172-2.579 1.172-1.484 0-2.343-.875-.844-.89-.844-2.078 0-.812.406-1.5.422-.703 1.156-1.094.735-.406 1.641-.406.844 0 1.516.344.672.328 1.109.953m1.447-3.234h1.421v2.093h.829v1.22h-.829v4.437h-1.421v-4.438h-.735v-1.219h.735zm3.585-.25q.375 0 .64.28.266.266.266.657 0 .375-.265.64-.266.266-.641.266t-.64-.265q-.266-.282-.266-.672 0-.375.265-.64.266-.266.64-.266m-.719 2.343h1.422v5.657h-1.422zm2.102 0h1.453l1.422 3.328 1.422-3.328h1.453l-2.422 5.657h-.906zm10.046.782-.89.89q-.532-.531-.97-.531-.234 0-.374.11-.125.093-.125.234 0 .125.078.218.094.094.422.266l.515.25q.828.406 1.125.828.313.422.313.985 0 .765-.563 1.265-.547.5-1.468.5-1.235 0-1.985-.969l.875-.953q.25.297.578.485.344.172.61.172.28 0 .453-.125.172-.141.172-.329 0-.328-.625-.64l-.47-.235q-1.374-.687-1.374-1.734 0-.672.516-1.14.515-.485 1.328-.485.547 0 1.03.25.485.234.83.688"/><path fill="#4ea5b7" fill-rule="evenodd" d="M806.047 308.53a3.77 3.77 0 0 1 3.77-3.769h112.398a3.77 3.77 0 0 1 3.77 3.77v15.075a3.77 3.77 0 0 1-3.77 3.77H809.816a3.77 3.77 0 0 1-3.769-3.77z"/><path stroke="#000" stroke-linecap="butt" stroke-linejoin="round" d="M806.047 308.53a3.77 3.77 0 0 1 3.77-3.769h112.398a3.77 3.77 0 0 1 3.77 3.77v15.075a3.77 3.77 0 0 1-3.77 3.77H809.816a3.77 3.77 0 0 1-3.769-3.77z"/><path fill="#fff" d="M824.758 311.29h4.75v1.781h-2.953v1.735h2.953v1.75h-2.953v4.312h-1.797zm9.491 2.313q1 0 1.875.5.89.5 1.39 1.359.5.86.5 1.86t-.5 1.874-1.359 1.375q-.859.485-1.89.485-1.531 0-2.61-1.078-1.078-1.094-1.078-2.641 0-1.656 1.22-2.766 1.077-.968 2.452-.968m.031 1.671q-.828 0-1.375.579-.546.578-.546 1.468 0 .938.53 1.516.548.563 1.391.563.829 0 1.375-.579.563-.578.563-1.5 0-.906-.547-1.468-.547-.579-1.39-.579m4.767-1.484h1.515v.89q.25-.53.656-.796.422-.281.907-.281.343 0 .718.187l-.546 1.531q-.313-.156-.516-.156-.406 0-.703.516-.281.5-.281 1.984l.015.344v2.86h-1.765zm3.887 0h1.735l1.437 4.031 1.531-4.03h1.063l1.5 3.983 1.422-3.984h1.75l-2.578 7.078h-1.125l-1.516-4.031-1.547 4.031h-1.125zm16.676 0h1.781v7.078h-1.781v-.75q-.516.5-1.047.719-.516.219-1.125.219-1.375 0-2.375-1.063-1-1.078-1-2.656 0-1.64.969-2.687.968-1.047 2.343-1.047.641 0 1.204.25.562.234 1.03.718zm-1.86 1.453q-.828 0-1.375.594-.546.578-.546 1.484 0 .922.546 1.516.563.594 1.375.594.844 0 1.391-.578.563-.594.563-1.532 0-.937-.563-1.5-.547-.578-1.39-.578m5.018-1.453h1.515v.89q.25-.53.657-.796.422-.281.906-.281.344 0 .719.187l-.547 1.531q-.313-.156-.516-.156-.406 0-.703.516-.281.5-.281 1.984l.015.344v2.86h-1.765zm9.903-2.734h1.781v9.812h-1.78v-.75q-.517.5-1.048.719-.515.219-1.125.219-1.375 0-2.375-1.063-1-1.078-1-2.656 0-1.64.969-2.687t2.344-1.047q.64 0 1.203.25.562.234 1.031.718zm-1.86 4.187q-.827 0-1.374.594-.547.578-.547 1.484 0 .922.547 1.516.562.594 1.375.594.843 0 1.39-.578.563-.594.563-1.532 0-.937-.563-1.5-.547-.578-1.39-.578m10.919-1.453v.781q.484-.484 1.047-.718.562-.25 1.203-.25 1.375 0 2.344 1.046t.969 2.688q0 1.578-1 2.656-1 1.063-2.375 1.063-.61 0-1.141-.219-.516-.219-1.047-.719v3.344h-1.766v-9.672zm1.875 1.453q-.844 0-1.406.578-.547.563-.547 1.5t.547 1.532q.562.578 1.406.578.813 0 1.36-.594.562-.594.562-1.516 0-.906-.547-1.484-.547-.594-1.375-.594M894 313.79h1.782v7.078H894v-.75q-.515.5-1.046.719-.516.219-1.125.219-1.375 0-2.375-1.063-1-1.078-1-2.656 0-1.64.968-2.687.969-1.047 2.344-1.047.64 0 1.203.25.563.234 1.031.718zm-1.859 1.453q-.828 0-1.375.594-.547.578-.547 1.484 0 .922.547 1.516.563.594 1.375.594.844 0 1.39-.578.563-.594.563-1.532 0-.937-.562-1.5-.547-.578-1.391-.578m9.767-.469-1.109 1.11q-.656-.672-1.203-.672-.313 0-.484.125-.157.125-.157.313 0 .156.11.28.109.11.53.313l.642.328q1.03.516 1.406 1.047.39.516.39 1.219 0 .953-.703 1.594-.687.625-1.843.625-1.547 0-2.47-1.219l1.095-1.187q.312.359.718.593.422.219.75.219.36 0 .563-.172.219-.172.219-.39 0-.407-.766-.797l-.61-.297q-1.718-.875-1.718-2.172 0-.844.64-1.438.657-.593 1.672-.593.688 0 1.297.312.61.297 1.031.86m5.864 0-1.11 1.11q-.656-.672-1.202-.672-.313 0-.485.125-.156.125-.156.313 0 .156.11.28.109.11.53.313l.641.328q1.031.516 1.406 1.047.391.516.391 1.219 0 .953-.703 1.594-.688.625-1.844.625-1.547 0-2.469-1.219l1.094-1.187q.313.359.719.593.422.219.75.219.36 0 .562-.172.22-.172.22-.39 0-.407-.766-.797l-.61-.297q-1.719-.875-1.719-2.172 0-.844.641-1.438.656-.593 1.672-.593.687 0 1.297.312.61.297 1.031.86"/><path fill="#4ea5b7" fill-rule="evenodd" d="M480.284 286.377a6.98 6.98 0 0 1 6.982-6.982h48.084a6.98 6.98 0 0 1 6.982 6.982v27.926a6.98 6.98 0 0 1-6.982 6.982h-48.084a6.98 6.98 0 0 1-6.982-6.982z"/><path stroke="#000" stroke-linecap="butt" stroke-linejoin="round" d="M480.284 286.377a6.98 6.98 0 0 1 6.982-6.982h48.084a6.98 6.98 0 0 1 6.982 6.982v27.926a6.98 6.98 0 0 1-6.982 6.982h-48.084a6.98 6.98 0 0 1-6.982-6.982z"/><path fill="#fff" d="m504.185 297.124-1.281 1.282q-1.219-1.297-2.844-1.297-1.406 0-2.36.937-.952.938-.952 2.281 0 1.391.984 2.36.984.953 2.437.953.938 0 1.579-.39.656-.407 1.062-1.25h-2.781v-1.72h4.812l.016.407q0 1.25-.656 2.39-.64 1.125-1.672 1.72-1.031.577-2.438.577-1.484 0-2.656-.64-1.156-.641-1.844-1.844-.687-1.203-.687-2.578 0-1.906 1.265-3.313 1.485-1.672 3.875-1.672 1.25 0 2.344.454.906.39 1.797 1.343m9.24 4.985h-5.703q.125.765.657 1.218.547.438 1.375.438 1 0 1.718-.703l1.485.703q-.547.797-1.328 1.187-.782.375-1.86.375-1.672 0-2.718-1.046-1.047-1.063-1.047-2.641 0-1.625 1.047-2.688 1.046-1.078 2.625-1.078 1.671 0 2.718 1.078 1.047 1.063 1.047 2.829zm-1.78-1.391q-.173-.594-.688-.969-.516-.375-1.203-.375-.735 0-1.297.422-.36.266-.656.922zm3.422-5.156h1.828v7.844h2.656v1.734h-4.484zm5.8 0h1.829v6.203q0 .797.14 1.14.141.329.454.532.328.187.781.187.484 0 .828-.218.36-.22.484-.563.141-.344.141-1.312v-5.97h1.828v5.72q0 1.437-.172 2-.156.562-.625 1.078-.453.515-1.062.765-.594.25-1.375.25-1.047 0-1.828-.468-.766-.485-1.094-1.204-.328-.718-.328-2.421z"/><path fill="#4ea5b7" fill-rule="evenodd" d="M542.91 286.377a6.98 6.98 0 0 1 6.981-6.982h48.084a6.98 6.98 0 0 1 6.982 6.982v27.926a6.98 6.98 0 0 1-6.982 6.982h-48.084a6.98 6.98 0 0 1-6.981-6.982z"/><path stroke="#000" stroke-linecap="butt" stroke-linejoin="round" d="M542.91 286.377a6.98 6.98 0 0 1 6.981-6.982h48.084a6.98 6.98 0 0 1 6.982 6.982v27.926a6.98 6.98 0 0 1-6.982 6.982h-48.084a6.98 6.98 0 0 1-6.981-6.982z"/><path fill="#fff" d="M562.93 295.562h4.75v1.781h-2.952v1.734h2.953v1.75h-2.953v4.313h-1.797zm15.164 1.687-1.282 1.219q-1.296-1.375-2.921-1.375-1.375 0-2.313.938-.937.937-.937 2.312 0 .953.406 1.703.422.735 1.187 1.156.766.422 1.688.422.797 0 1.453-.297.656-.296 1.437-1.078l1.25 1.297q-1.062 1.031-2.015 1.438-.938.39-2.156.39-2.22 0-3.641-1.406-1.422-1.422-1.422-3.625 0-1.437.64-2.547.641-1.11 1.844-1.781 1.22-.688 2.61-.688 1.187 0 2.281.5t1.89 1.422m2.83 1.407h-1.78q.077-1.547.968-2.438.906-.89 2.312-.89.875 0 1.547.374.672.36 1.063 1.063.406.687.406 1.406 0 .844-.484 1.828-.485.985-1.782 2.328l-1.078 1.125h3.422v1.688h-6.64v-.875l2.968-3.016q1.078-1.093 1.422-1.75.36-.656.36-1.187 0-.563-.376-.922-.359-.36-.937-.36-.594 0-.984.438-.391.438-.407 1.188"/><path d="m400.042 225.127-.787 99.213"/><path stroke="#000" stroke-dasharray="12, 9" stroke-linecap="butt" stroke-linejoin="round" stroke-width="3" d="m400.042 225.127-.787 99.213"/><path fill="#4ea5b7" fill-rule="evenodd" d="M306.332 286.378a6.98 6.98 0 0 1 6.981-6.982h48.084a6.98 6.98 0 0 1 6.982 6.982v27.926a6.98 6.98 0 0 1-6.982 6.982h-48.084a6.98 6.98 0 0 1-6.981-6.982z"/><path stroke="#000" stroke-linecap="butt" stroke-linejoin="round" d="M306.332 286.378a6.98 6.98 0 0 1 6.981-6.982h48.084a6.98 6.98 0 0 1 6.982 6.982v27.926a6.98 6.98 0 0 1-6.982 6.982h-48.084a6.98 6.98 0 0 1-6.981-6.982z"/><path fill="#fff" d="M310.099 296.425h1.453v6.266h2.125v1.39h-3.578zm8.72 2h1.405v5.656h-1.406v-.594q-.422.391-.844.563-.421.172-.906.172-1.094 0-1.906-.844-.797-.86-.797-2.11 0-1.312.781-2.156.782-.843 1.875-.843.516 0 .953.203.454.187.844.578zm-1.5 1.156q-.657 0-1.095.469t-.437 1.203q0 .719.437 1.203.454.469 1.094.469.672 0 1.11-.469.453-.469.453-1.219 0-.734-.453-1.187-.438-.469-1.11-.469m3.721-1.156h1.454l1.468 3.547 1.625-3.547h1.453l-3.546 7.734h-1.47l1.173-2.5zm12.479 3.234h-4.563q.094.61.516.97.437.343 1.11.343.796 0 1.359-.547l1.203.562q-.453.625-1.078.938-.625.297-1.485.297-1.328 0-2.172-.828-.828-.844-.828-2.11 0-1.297.828-2.156.844-.86 2.094-.86 1.344 0 2.172.86.844.86.844 2.266zm-1.422-1.109q-.14-.484-.563-.781-.406-.297-.953-.297-.593 0-1.047.344-.28.203-.515.734zm2.243-2.125h1.219v.703q.188-.422.516-.64.328-.22.718-.22.282 0 .579.157l-.438 1.219q-.25-.125-.406-.125-.328 0-.563.406-.218.406-.218 1.594v2.562h-1.407zm3.893-2h1.406l3.281 5.031v-5.031h1.453v7.656h-1.406l-3.265-5.015v5.015h-1.47zm10.383 1.844q.797 0 1.5.406.718.406 1.11 1.094.39.687.39 1.484t-.407 1.5q-.39.688-1.078 1.078-.687.39-1.515.39-1.203 0-2.078-.859-.86-.875-.86-2.109 0-1.328.985-2.203.843-.781 1.953-.781m.015 1.343q-.656 0-1.093.47-.438.452-.438 1.171 0 .734.422 1.203.437.453 1.11.453.671 0 1.109-.468.437-.47.437-1.188 0-.734-.437-1.187-.422-.454-1.11-.454m3.822-1.187h1.218v.703q.188-.422.516-.64.328-.22.719-.22.281 0 .578.157l-.438 1.219q-.25-.125-.406-.125-.328 0-.562.406-.219.406-.219 1.594v2.562h-1.406zm3.72 0h1.438v.64q.36-.39.797-.593.453-.203.969-.203.53 0 .953.265.437.266.703.766.328-.5.812-.766.5-.265 1.094-.265t1.047.281q.469.281.656.734.203.453.203 1.485v3.312h-1.422v-2.875q0-.953-.25-1.297-.234-.343-.703-.343-.375 0-.672.218-.28.203-.421.578-.141.36-.141 1.157v2.562h-1.422v-2.734q0-.766-.125-1.11-.11-.343-.328-.5-.219-.171-.547-.171-.344 0-.64.218-.282.203-.422.594-.141.375-.141 1.188v2.515h-1.438z"/><path d="M636.126 216.438h166.11v42.016h-166.11Z"/><path fill="#000" d="m686.125 231.78-1.875 1.672q-1-1.39-2.031-1.39-.5 0-.828.265-.313.266-.313.61t.234.64q.313.406 1.875 1.719 1.454 1.219 1.766 1.547.766.781 1.094 1.5.328.703.328 1.547 0 1.656-1.14 2.734-1.141 1.078-2.97 1.078-1.437 0-2.5-.703t-1.812-2.203l2.14-1.297q.97 1.766 2.22 1.766.656 0 1.093-.375.453-.375.453-.891 0-.453-.343-.906-.329-.453-1.47-1.39-2.187-1.782-2.827-2.75-.641-.97-.641-1.938 0-1.391 1.063-2.391t2.625-1q1 0 1.906.469.906.453 1.953 1.687m2.67-1.828h2.72q2.187 0 3.155.406.97.407 1.532 1.313t.562 2.172q0 1.406-.734 2.343-.735.922-1.985 1.282-.75.218-2.687.218v5.672h-2.563zm2.563 5.25h.797q.968 0 1.343-.14t.579-.454q.218-.312.218-.765 0-.766-.61-1.125-.437-.266-1.608-.266h-.72zm12.262-1.75h2.14v1.25q.344-.75.907-1.125.578-.39 1.265-.39.485 0 1.016.265l-.781 2.14q-.438-.218-.719-.218-.578 0-.969.719-.39.703-.39 2.781v4.484h-2.47zm16.482 5.672h-7.984q.172 1.062.922 1.687.75.61 1.922.61 1.39 0 2.39-.969l2.094.984q-.781 1.11-1.875 1.641t-2.594.531q-2.344 0-3.812-1.468-1.453-1.47-1.453-3.688 0-2.266 1.453-3.766 1.468-1.5 3.672-1.5 2.343 0 3.812 1.5t1.469 3.97zm-2.5-1.953q-.25-.828-.969-1.344-.718-.531-1.671-.531-1.047 0-1.829.578-.5.375-.906 1.297zm11.833-3.719h2.485v8.484q0 2.516-1.016 3.704-1.36 1.593-4.094 1.593-1.453 0-2.453-.359-.984-.36-1.672-1.078-.687-.703-1.015-1.703h2.75q.36.406.937.625t1.36.218q1 0 1.609-.312.61-.313.86-.813.25-.484.25-1.687-.657.656-1.376.953-.718.281-1.625.281-2 0-3.375-1.437t-1.375-3.64q0-2.36 1.454-3.798 1.328-1.297 3.156-1.297.86 0 1.61.329.765.312 1.53 1.03zm-2.578 2.063q-1.172 0-1.937.796-.766.782-.766 1.97 0 1.25.781 2.046.782.781 1.97.781 1.155 0 1.905-.765.75-.782.75-2.047 0-1.235-.75-2-.75-.781-1.953-.781m8.55-6.157q.657 0 1.126.485.468.468.468 1.14t-.468 1.141-1.11.469q-.672 0-1.14-.469-.47-.484-.47-1.172 0-.656.47-1.125.468-.469 1.125-.469m-1.25 4.094h2.5v9.906h-2.5zm9.395-.266q1.407 0 2.64.704 1.235.703 1.923 1.906.703 1.203.703 2.594 0 1.406-.703 2.625-.688 1.218-1.89 1.906-1.204.687-2.657.687-2.125 0-3.64-1.515-1.5-1.516-1.5-3.688 0-2.312 1.702-3.86 1.485-1.359 3.422-1.359m.047 2.344q-1.156 0-1.937.813-.766.797-.766 2.062 0 1.297.75 2.094.766.797 1.938.797t1.937-.813q.781-.812.781-2.078 0-1.281-.765-2.078-.766-.797-1.938-.797m7.24-2.078h2.484v1q.844-.703 1.531-.984.688-.282 1.407-.282 1.484 0 2.515 1.032.86.875.86 2.593v6.547h-2.454v-4.343q0-1.782-.171-2.36-.157-.578-.547-.875-.391-.312-.985-.312-.75 0-1.297.5t-.75 1.39q-.109.47-.109 2.016v3.984h-2.484z"/><path fill="#4ea5b7" fill-rule="evenodd" d="M674.138 285.599a6.98 6.98 0 0 1 6.982-6.982h48.083a6.98 6.98 0 0 1 6.982 6.982v27.926a6.98 6.98 0 0 1-6.982 6.982H681.12a6.98 6.98 0 0 1-6.982-6.982z"/><path stroke="#000" stroke-linecap="butt" stroke-linejoin="round" d="M674.138 285.599a6.98 6.98 0 0 1 6.982-6.982h48.083a6.98 6.98 0 0 1 6.982 6.982v27.926a6.98 6.98 0 0 1-6.982 6.982H681.12a6.98 6.98 0 0 1-6.982-6.982z"/><path fill="#fff" d="M677.905 295.645h1.453v6.266h2.125v1.39h-3.578zm8.72 2h1.406v5.657h-1.406v-.594q-.422.39-.844.562t-.906.172q-1.094 0-1.907-.843-.796-.86-.796-2.11 0-1.312.78-2.156.782-.844 1.876-.844.515 0 .953.203.453.188.844.578zm-1.5 1.157q-.657 0-1.094.468-.438.47-.438 1.204 0 .718.438 1.203.453.468 1.094.468.672 0 1.11-.468.452-.47.452-1.22 0-.733-.453-1.187-.437-.468-1.11-.468m3.722-1.157h1.453l1.469 3.547 1.625-3.547h1.453l-3.547 7.735h-1.469l1.172-2.5zm12.478 3.235h-4.562q.094.61.515.969.438.343 1.11.343.797 0 1.36-.547l1.202.563q-.453.625-1.078.937-.625.297-1.484.297-1.328 0-2.172-.828-.828-.844-.828-2.11 0-1.296.828-2.155.844-.86 2.094-.86 1.343 0 2.172.86.843.859.843 2.265zm-1.422-1.11q-.14-.484-.562-.78-.406-.298-.953-.298-.594 0-1.047.344-.281.203-.516.734zm2.244-2.125h1.219v.704q.187-.422.515-.641t.719-.219q.281 0 .578.156l-.437 1.22q-.25-.126-.407-.126-.328 0-.562.406-.219.407-.219 1.594v2.563h-1.406zm3.892-2h1.406l3.282 5.032v-5.032h1.453v7.657h-1.406l-3.266-5.016v5.016h-1.469zm10.383 1.844q.797 0 1.5.406.719.407 1.11 1.094.39.688.39 1.485 0 .796-.406 1.5-.39.687-1.078 1.078-.688.39-1.516.39-1.203 0-2.078-.86-.86-.874-.86-2.108 0-1.329.985-2.204.844-.78 1.953-.78m.016 1.344q-.656 0-1.094.469-.437.453-.437 1.172 0 .734.421 1.203.438.453 1.11.453t1.11-.469.437-1.187q0-.735-.438-1.188-.422-.453-1.11-.453m3.821-1.188h1.219v.704q.188-.422.516-.641t.718-.219q.282 0 .579.156l-.438 1.22q-.25-.126-.406-.126-.328 0-.563.406-.218.407-.218 1.594v2.563h-1.407zm3.72 0h1.438v.641q.36-.39.797-.594.453-.203.969-.203.531 0 .953.266.438.265.703.765.328-.5.813-.765.5-.266 1.094-.266.593 0 1.046.281.47.282.657.735.203.453.203 1.484v3.313h-1.422v-2.875q0-.953-.25-1.297-.234-.344-.703-.344-.375 0-.672.219-.281.203-.422.578-.14.36-.14 1.156v2.563h-1.422v-2.735q0-.765-.125-1.11-.11-.343-.329-.5-.218-.171-.546-.171-.344 0-.641.219-.281.203-.422.594-.14.375-.14 1.187v2.516h-1.438z"/><path d="m640.525 224.348-.787 99.213"/><path stroke="#000" stroke-dasharray="12, 9" stroke-linecap="butt" stroke-linejoin="round" stroke-width="3" d="m640.525 224.348-.787 99.213"/></g></svg>